<svg xmlns="http://www.w3.org/2000/svg" width="838" height="701" viewBox="0 0 209.45 175.29"><rect width="100%" height="100%" fill="white"/><polygon points="4.141,28.039 4.098,28.330 4.074,28.524 4.045,28.817 4.028,29.050 4.019,29.197 4.013,29.313 4.010,29.386 4.007,29.466 4.003,29.599 4.001,29.789 4.000,29.877 4.000,70.860 4.000,70.933 4.001,71.013 4.005,71.146 4.011,71.336 4.015,71.424 4.019,71.503 4.028,71.650 4.045,71.883 4.074,72.176 4.098,72.370 4.141,72.661 4.174,72.854 4.232,73.143 4.275,73.334 4.346,73.620 4.399,73.809 4.484,74.091 4.545,74.277 4.645,74.554 4.715,74.737 4.828,75.009 4.907,75.188 5.033,75.454 5.121,75.629 5.260,75.889 5.357,76.059 5.508,76.312 5.613,76.477 5.776,76.722 5.889,76.882 6.065,77.119 6.185,77.273 6.372,77.501 6.500,77.649 6.698,77.867 6.833,78.009 7.041,78.217 7.183,78.352 7.401,78.550 7.549,78.678 7.777,78.865 7.931,78.985 8.168,79.161 8.328,79.274 8.573,79.437 8.738,79.542 8.991,79.693 9.161,79.790 9.421,79.929 9.596,80.017 9.862,80.143 10.041,80.222 10.313,80.335 10.496,80.405 10.773,80.505 10.959,80.566 11.241,80.651 11.430,80.704 11.716,80.775 11.907,80.818 12.196,80.876 12.389,80.909 12.680,80.952 12.874,80.976 13.167,81.005 13.400,81.022 13.547,81.031 13.663,81.037 13.736,81.040 13.816,81.043 13.949,81.047 14.139,81.049 14.227,81.050 35.396,81.050 35.540,81.053 37.724,81.159 38.011,81.186 40.103,81.490 40.385,81.545 42.439,82.048 42.715,82.130 44.710,82.828 44.977,82.936 46.897,83.822 47.152,83.956 48.977,85.022 49.219,85.179 50.933,86.416 51.159,86.595 52.746,87.991 52.954,88.191 54.400,89.733 54.587,89.952 55.879,91.625 56.044,91.861 57.169,93.651 57.311,93.902 58.292,95.856 58.353,95.986 67.148,115.829 67.163,115.864 67.206,115.958 67.241,116.035 67.280,116.119 67.358,116.278 67.411,116.383 67.451,116.461 67.474,116.506 67.544,116.636 67.572,116.686 67.645,116.813 67.686,116.882 67.762,117.009 67.796,117.063 67.871,117.182 67.923,117.261 68.009,117.389 68.040,117.434 68.125,117.554 68.173,117.619 68.261,117.738 68.300,117.788 68.387,117.898 68.446,117.972 68.544,118.091 68.580,118.133 68.676,118.244 68.730,118.304 68.829,118.414 68.873,118.460 68.970,118.561 69.036,118.629 69.146,118.738 69.185,118.776 69.292,118.877 69.351,118.931 69.461,119.031 69.509,119.073 69.615,119.164 69.688,119.225 69.808,119.322 69.851,119.357 69.967,119.446 70.031,119.495 70.150,119.583 70.202,119.620 70.317,119.700 70.395,119.754 70.524,119.839 70.570,119.869 70.694,119.947 70.763,119.989 70.890,120.065 70.945,120.097 71.067,120.165 71.151,120.211 71.287,120.283 71.336,120.308 71.467,120.374 71.539,120.409 71.674,120.472 71.732,120.498 71.860,120.555 71.947,120.592 72.090,120.650 72.141,120.671 72.278,120.723 72.354,120.751 72.493,120.800 72.554,120.821 72.687,120.864 72.777,120.893 72.925,120.937 72.978,120.952 73.119,120.991 73.197,121.011 73.341,121.047 73.403,121.061 73.540,121.091 73.633,121.111 73.784,121.140 73.838,121.150 73.983,121.175 74.063,121.187 74.209,121.209 74.272,121.217 74.412,121.234 74.506,121.244 74.659,121.259 74.714,121.263 74.860,121.274 74.941,121.278 75.089,121.285 75.152,121.287 75.293,121.290 75.388,121.291 75.542,121.291 75.597,121.290 75.743,121.286 75.824,121.282 75.972,121.275 76.035,121.270 76.175,121.260 76.270,121.251 76.423,121.236 76.478,121.230 76.623,121.211 76.703,121.200 76.850,121.178 76.912,121.167 77.050,121.143 77.144,121.125 77.295,121.095 77.349,121.083 77.492,121.051 77.570,121.032 77.713,120.995 77.775,120.979 77.910,120.941 78.001,120.915 78.148,120.869 78.201,120.853 78.340,120.806 78.416,120.780 78.555,120.729 78.643,120.696 78.721,120.666 78.737,120.660 78.977,120.560 92.757,114.463 92.901,114.404 95.112,113.560 95.409,113.464 97.696,112.854 97.848,112.818 109.478,110.358 109.632,110.330 111.972,109.961 112.283,109.928 114.649,109.805 114.805,109.801 129.656,109.800 129.696,109.800 129.802,109.799 129.888,109.798 129.978,109.796 130.155,109.790 130.272,109.784 130.360,109.779 130.411,109.775 130.558,109.764 130.615,109.759 130.760,109.744 130.840,109.735 130.987,109.716 131.050,109.707 131.189,109.686 131.283,109.671 131.434,109.644 131.489,109.634 131.632,109.605 131.711,109.588 131.856,109.555 131.917,109.540 132.053,109.505 132.145,109.481 132.293,109.439 132.346,109.423 132.486,109.380 132.563,109.356 132.704,109.309 132.764,109.288 132.896,109.240 132.984,109.207 133.128,109.151 133.179,109.130 133.314,109.074 133.388,109.041 133.524,108.981 133.581,108.954 133.708,108.894 133.793,108.852 133.930,108.782 133.979,108.757 134.108,108.687 134.179,108.648 134.307,108.574 134.362,108.542 134.482,108.470 134.563,108.420 134.693,108.337 134.739,108.306 134.860,108.225 134.927,108.179 135.048,108.093 135.099,108.055 135.211,107.971 135.287,107.914 135.408,107.819 135.451,107.784 135.564,107.691 135.625,107.638 135.737,107.541 135.784,107.499 135.888,107.404 135.957,107.340 136.069,107.233 136.108,107.194 136.211,107.090 136.267,107.032 136.369,106.925 136.412,106.878 136.506,106.774 136.569,106.702 136.669,106.585 136.704,106.543 136.797,106.429 136.847,106.366 136.938,106.249 136.976,106.198 137.059,106.085 137.115,106.008 137.203,105.882 137.234,105.836 137.315,105.714 137.358,105.646 137.437,105.521 137.471,105.466 137.479,105.454 137.553,105.335 138.730,103.545 138.897,103.317 140.192,101.700 140.379,101.489 141.822,100.002 142.027,99.808 143.603,98.463 143.826,98.290 145.522,97.100 145.760,96.949 147.560,95.923 147.811,95.794 149.700,94.942 149.962,94.838 151.922,94.168 152.193,94.089 154.208,93.606 154.485,93.553 156.536,93.261 156.817,93.235 158.957,93.134 159.098,93.130 196.330,93.131 196.371,93.131 196.478,93.130 196.564,93.129 196.653,93.127 196.830,93.121 196.947,93.115 197.035,93.110 197.086,93.107 197.233,93.095 197.290,93.090 197.435,93.075 197.515,93.066 197.662,93.047 197.725,93.038 197.864,93.017 197.958,93.002 198.109,92.975 198.164,92.965 198.307,92.936 198.386,92.919 198.531,92.886 198.592,92.871 198.728,92.836 198.820,92.812 198.968,92.770 199.021,92.755 199.161,92.712 199.238,92.687 199.379,92.640 199.439,92.619 199.571,92.571 199.659,92.538 199.803,92.482 199.854,92.461 199.989,92.405 200.063,92.373 200.199,92.312 200.256,92.285 200.383,92.225 200.468,92.183 200.605,92.113 200.654,92.088 200.783,92.018 200.854,91.979 200.982,91.906 201.037,91.873 201.157,91.801 201.238,91.751 201.368,91.668 201.414,91.638 201.535,91.556 201.602,91.510 201.723,91.424 201.774,91.387 201.886,91.303 201.962,91.245 202.083,91.150 202.126,91.115 202.239,91.022 202.300,90.970 202.412,90.872 202.459,90.830 202.563,90.736 202.632,90.671 202.744,90.564 202.783,90.525 202.886,90.421 202.942,90.364 203.044,90.256 203.087,90.209 203.181,90.105 203.244,90.034 203.344,89.917 203.379,89.874 203.472,89.761 203.522,89.697 203.613,89.580 203.651,89.530 203.734,89.417 203.790,89.339 203.878,89.213 203.909,89.168 203.990,89.045 204.033,88.978 204.112,88.852 204.145,88.798 204.217,88.677 204.265,88.595 204.340,88.461 204.367,88.412 204.435,88.283 204.472,88.211 204.538,88.079 204.566,88.021 204.625,87.894 204.665,87.808 204.727,87.667 204.748,87.616 204.804,87.481 204.833,87.406 204.886,87.267 204.908,87.207 204.955,87.075 204.985,86.985 205.033,86.839 205.050,86.786 205.092,86.646 205.114,86.568 205.153,86.425 205.169,86.364 205.202,86.228 205.224,86.135 205.257,85.985 205.269,85.931 205.297,85.787 205.311,85.708 205.336,85.562 205.346,85.499 205.366,85.360 205.378,85.266 205.397,85.113 205.403,85.058 205.416,84.912 205.423,84.832 205.433,84.684 205.439,84.590 205.443,84.507 205.444,84.490 205.449,84.229 205.452,28.103 205.452,28.063 205.452,27.956 205.450,27.870 205.449,27.781 205.442,27.604 205.436,27.486 205.431,27.398 205.428,27.348 205.416,27.201 205.411,27.144 205.396,26.998 205.387,26.918 205.369,26.771 205.360,26.708 205.339,26.570 205.323,26.476 205.296,26.324 205.286,26.270 205.257,26.126 205.240,26.048 205.207,25.903 205.192,25.841 205.158,25.705 205.133,25.614 205.092,25.465 205.076,25.412 205.033,25.272 205.008,25.196 204.961,25.055 204.940,24.995 204.893,24.863 204.859,24.774 204.803,24.631 204.783,24.580 204.726,24.444 204.694,24.370 204.633,24.235 204.607,24.178 204.546,24.051 204.504,23.966 204.435,23.828 204.409,23.779 204.339,23.650 204.300,23.580 204.227,23.451 204.195,23.397 204.122,23.276 204.072,23.196 203.989,23.066 203.959,23.020 203.877,22.898 203.831,22.832 203.745,22.711 203.708,22.660 203.624,22.547 203.566,22.472 203.471,22.351 203.436,22.308 203.343,22.195 203.291,22.134 203.194,22.022 203.151,21.974 203.057,21.871 202.992,21.801 202.885,21.690 202.847,21.651 202.743,21.547 202.685,21.491 202.577,21.390 202.530,21.347 202.426,21.253 202.355,21.190 202.238,21.090 202.195,21.054 202.082,20.962 202.019,20.912 201.902,20.821 201.851,20.783 201.738,20.700 201.661,20.644 201.534,20.556 201.489,20.525 201.367,20.444 201.299,20.400 201.174,20.321 201.119,20.288 200.999,20.217 200.916,20.169 200.782,20.094 200.734,20.067 200.604,19.999 200.533,19.962 200.400,19.896 200.343,19.868 200.216,19.808 200.129,19.769 199.988,19.707 199.937,19.686 199.802,19.630 199.727,19.600 199.588,19.548 199.529,19.526 199.396,19.479 199.307,19.448 199.160,19.400 199.108,19.384 198.967,19.342 198.890,19.320 198.747,19.281 198.685,19.265 198.549,19.231 198.457,19.210 198.306,19.176 198.252,19.165 198.108,19.137 198.029,19.123 197.883,19.098 197.820,19.088 197.681,19.068 197.587,19.055 197.434,19.037 197.379,19.031 197.233,19.017 197.153,19.011 197.005,19.000 196.911,18.995 196.828,18.991 196.811,18.990 196.551,18.984 175.902,18.981 175.743,18.977 173.329,18.848 173.012,18.814 170.704,18.443 170.392,18.376 168.136,17.761 167.834,17.661 165.656,16.811 165.366,16.679 163.220,15.566 163.080,15.489 163.014,15.450 162.970,15.424 162.967,15.422 162.909,15.389 162.878,15.372 162.819,15.339 162.769,15.312 162.639,15.243 162.568,15.206 162.435,15.139 162.377,15.111 162.250,15.051 162.163,15.012 162.022,14.949 161.971,14.928 161.835,14.872 161.760,14.842 161.621,14.789 161.561,14.767 161.428,14.720 161.338,14.689 161.191,14.641 161.138,14.624 160.998,14.582 160.920,14.560 160.777,14.520 160.715,14.504 160.578,14.470 160.485,14.449 160.335,14.415 160.280,14.404 160.136,14.376 160.056,14.361 159.910,14.336 159.847,14.326 159.708,14.306 159.613,14.293 159.460,14.275 159.405,14.269 159.258,14.255 159.178,14.248 159.030,14.238 158.935,14.233 158.852,14.228 158.834,14.228 158.575,14.222 152.326,14.219 152.188,14.216 150.090,14.118 149.814,14.092 147.803,13.811 147.531,13.760 145.554,13.295 145.288,13.219 143.297,12.551 143.167,12.504 142.993,12.437 142.853,12.385 142.762,12.352 142.610,12.299 142.554,12.281 142.407,12.235 142.327,12.211 142.177,12.168 142.113,12.150 141.970,12.113 141.873,12.089 141.716,12.053 141.659,12.040 141.508,12.009 141.425,11.993 141.272,11.966 141.206,11.955 141.061,11.933 140.962,11.919 140.801,11.899 140.538,11.869 140.419,11.854 138.468,11.555 138.193,11.500 136.071,10.968 135.787,10.882 133.736,10.145 133.462,10.031 131.493,9.096 131.232,8.955 129.366,7.830 129.119,7.664 127.255,6.270 127.254,6.271 126.922,6.023 126.415,5.717 125.880,5.462 125.323,5.262 124.749,5.117 124.163,5.029 123.571,5.000 38.797,5.000 38.194,5.030 37.598,5.121 37.013,5.271 36.447,5.479 35.905,5.743 35.391,6.060 34.913,6.427 34.473,6.840 34.077,7.295 33.729,7.788 32.964,8.994 32.790,9.241 31.422,10.982 31.224,11.210 29.689,12.805 29.469,13.012 27.780,14.445 27.540,14.628 25.716,15.884 25.460,16.043 23.519,17.109 23.247,17.241 21.209,18.106 20.925,18.210 18.810,18.866 18.518,18.941 16.348,19.381 16.049,19.426 13.770,19.654 13.620,19.665 13.547,19.669 13.400,19.678 13.167,19.695 12.874,19.724 12.680,19.748 12.389,19.791 12.196,19.824 11.907,19.882 11.716,19.925 11.430,19.996 11.241,20.049 10.959,20.134 10.773,20.195 10.496,20.295 10.313,20.365 10.041,20.478 9.862,20.557 9.596,20.683 9.421,20.771 9.161,20.910 8.991,21.007 8.738,21.158 8.573,21.263 8.328,21.426 8.168,21.539 7.931,21.715 7.777,21.835 7.549,22.022 7.401,22.150 7.183,22.348 7.041,22.483 6.833,22.691 6.698,22.833 6.500,23.051 6.372,23.199 6.185,23.427 6.065,23.581 5.889,23.818 5.776,23.978 5.613,24.223 5.508,24.388 5.357,24.641 5.260,24.811 5.121,25.071 5.033,25.246 4.907,25.512 4.828,25.691 4.715,25.963 4.645,26.146 4.545,26.423 4.484,26.609 4.399,26.891 4.346,27.080 4.275,27.366 4.232,27.557 4.174,27.846 4.141,28.039" fill="none" stroke="#1f2937" stroke-width="0.25"/><text x="4" y="128.3" font-size="3" fill="#1f2937" font-family="sans-serif">OUTER_WALL</text><polygon points="58.504,36.921 58.534,36.924 58.544,36.925 58.906,36.979 58.917,36.981 58.946,36.986 58.956,36.989 59.311,37.078 59.322,37.080 59.350,37.089 59.360,37.093 59.704,37.216 59.715,37.220 59.742,37.231 59.752,37.235 60.082,37.392 60.092,37.396 60.118,37.410 60.128,37.416 60.441,37.604 60.450,37.610 60.475,37.626 60.484,37.632 60.777,37.850 60.786,37.857 60.809,37.875 60.817,37.883 61.088,38.128 61.096,38.136 61.117,38.156 61.124,38.165 61.370,38.435 61.377,38.444 61.396,38.466 61.402,38.475 61.620,38.769 61.627,38.778 61.643,38.802 61.649,38.811 61.837,39.125 61.842,39.134 61.856,39.160 61.861,39.170 62.017,39.501 62.022,39.511 62.033,39.538 62.037,39.548 62.160,39.892 62.164,39.903 62.172,39.931 62.175,39.942 62.264,40.296 62.266,40.307 62.272,40.336 62.274,40.347 62.327,40.708 62.329,40.719 62.332,40.748 62.332,40.759 62.352,41.154 62.352,41.158 62.352,41.177 62.352,41.183 62.352,57.131 62.353,57.168 62.353,57.169 62.354,57.206 62.356,57.247 62.362,57.320 62.362,57.323 62.371,57.396 62.374,57.418 62.387,57.490 62.387,57.492 62.403,57.564 62.409,57.586 62.428,57.657 62.429,57.659 62.452,57.729 62.460,57.750 62.486,57.818 62.487,57.821 62.517,57.888 62.526,57.908 62.559,57.974 62.561,57.976 62.597,58.040 62.608,58.059 62.648,58.121 62.649,58.123 62.691,58.183 62.704,58.201 62.750,58.259 62.751,58.261 62.799,58.316 62.814,58.333 62.865,58.386 62.867,58.388 62.920,58.438 62.936,58.453 62.992,58.501 62.994,58.503 63.052,58.548 63.070,58.561 63.130,58.604 63.132,58.605 63.194,58.644 63.213,58.656 63.277,58.692 63.279,58.693 63.345,58.726 63.365,58.736 63.432,58.765 63.434,58.766 63.503,58.793 63.524,58.800 63.594,58.823 63.596,58.824 63.667,58.844 63.688,58.849 63.760,58.865 63.763,58.866 63.835,58.878 63.857,58.881 63.930,58.891 63.932,58.891 64.006,58.896 64.047,58.898 64.084,58.900 64.085,58.900 64.122,58.900 77.119,58.900 77.124,58.900 77.143,58.900 77.148,58.901 77.543,58.920 77.554,58.921 77.584,58.924 77.594,58.925 77.956,58.979 77.967,58.981 77.996,58.986 78.006,58.989 78.361,59.078 78.372,59.080 78.400,59.089 78.410,59.093 78.754,59.216 78.765,59.220 78.792,59.231 78.802,59.235 79.132,59.392 79.142,59.396 79.168,59.410 79.178,59.416 79.491,59.604 79.500,59.610 79.525,59.626 79.534,59.632 79.827,59.850 79.836,59.857 79.859,59.875 79.867,59.883 80.138,60.128 80.146,60.136 80.167,60.156 80.174,60.165 80.420,60.435 80.427,60.444 80.446,60.466 80.452,60.475 80.670,60.769 80.677,60.778 80.693,60.802 80.699,60.811 80.887,61.125 80.892,61.134 80.906,61.160 80.911,61.170 81.067,61.501 81.072,61.511 81.083,61.538 81.087,61.548 81.210,61.892 81.214,61.903 81.222,61.931 81.225,61.942 81.314,62.296 81.316,62.307 81.322,62.336 81.324,62.347 81.377,62.708 81.379,62.719 81.382,62.748 81.382,62.759 81.402,63.154 81.402,63.158 81.402,63.177 81.402,63.183 81.402,74.778 81.402,74.783 81.402,74.801 81.402,74.806 81.383,75.193 81.383,75.204 81.380,75.233 81.378,75.243 81.327,75.598 81.325,75.608 81.320,75.637 81.317,75.647 81.232,75.995 81.229,76.005 81.221,76.033 81.218,76.043 81.099,76.381 81.096,76.391 81.085,76.418 81.081,76.428 80.930,76.753 80.926,76.763 80.912,76.788 80.907,76.798 80.726,77.107 80.721,77.116 80.705,77.140 80.699,77.149 80.489,77.439 80.483,77.448 80.465,77.470 80.458,77.479 80.222,77.748 80.214,77.756 80.194,77.776 80.187,77.784 79.925,78.029 79.917,78.036 79.896,78.055 79.887,78.061 79.604,78.280 79.595,78.287 79.571,78.303 79.562,78.309 79.259,78.499 79.250,78.505 79.225,78.519 79.215,78.524 78.869,78.698 78.865,78.700 78.849,78.707 78.844,78.710 63.571,85.471 63.538,85.486 63.537,85.487 63.504,85.503 63.467,85.522 63.402,85.556 63.400,85.557 63.337,85.595 63.318,85.607 63.257,85.648 63.255,85.649 63.196,85.693 63.178,85.707 63.121,85.753 63.119,85.755 63.065,85.804 63.049,85.819 62.997,85.872 62.995,85.873 62.946,85.928 62.931,85.944 62.885,86.001 62.883,86.003 62.839,86.062 62.827,86.080 62.786,86.142 62.784,86.144 62.746,86.207 62.736,86.226 62.701,86.291 62.700,86.293 62.668,86.360 62.659,86.380 62.631,86.448 62.630,86.450 62.605,86.519 62.598,86.540 62.577,86.611 62.576,86.613 62.559,86.684 62.554,86.706 62.539,86.778 62.539,86.780 62.528,86.853 62.525,86.875 62.518,86.948 62.518,86.951 62.514,87.024 62.514,87.046 62.514,87.120 62.514,87.122 62.517,87.196 62.519,87.218 62.526,87.291 62.526,87.294 62.537,87.366 62.541,87.388 62.555,87.460 62.556,87.463 62.574,87.534 62.580,87.555 62.601,87.626 62.602,87.628 62.626,87.697 62.641,87.736 62.655,87.770 62.655,87.771 62.670,87.805 73.817,112.985 73.833,113.018 73.833,113.019 73.849,113.052 73.868,113.089 73.902,113.154 73.904,113.156 73.941,113.219 73.953,113.238 73.994,113.299 73.996,113.301 74.039,113.360 74.053,113.377 74.100,113.434 74.101,113.436 74.151,113.491 74.166,113.507 74.218,113.559 74.220,113.561 74.274,113.610 74.291,113.624 74.348,113.671 74.350,113.673 74.409,113.716 74.427,113.729 74.488,113.770 74.490,113.771 74.553,113.809 74.572,113.820 74.637,113.855 74.639,113.856 74.706,113.887 74.726,113.896 74.794,113.925 74.796,113.925 74.865,113.950 74.886,113.957 74.957,113.979 74.959,113.979 75.031,113.997 75.052,114.002 75.124,114.016 75.127,114.017 75.199,114.028 75.221,114.030 75.295,114.038 75.297,114.038 75.370,114.041 75.393,114.042 75.466,114.042 75.469,114.042 75.542,114.038 75.564,114.037 75.637,114.030 75.640,114.029 75.713,114.019 75.734,114.015 75.807,114.000 75.809,114.000 75.880,113.982 75.901,113.976 75.972,113.955 75.974,113.954 76.044,113.929 76.082,113.915 76.116,113.901 76.117,113.900 76.151,113.886 92.538,106.631 92.542,106.629 92.560,106.622 92.566,106.620 92.958,106.470 92.969,106.466 92.999,106.456 93.010,106.453 93.415,106.345 93.420,106.344 93.439,106.339 93.445,106.338 110.889,102.649 110.894,102.648 110.913,102.645 110.919,102.644 111.334,102.578 111.345,102.577 111.376,102.573 111.388,102.573 111.807,102.551 111.812,102.551 111.831,102.550 111.837,102.550 129.758,102.550 129.795,102.550 129.797,102.550 129.833,102.548 129.874,102.546 129.948,102.541 129.950,102.540 130.023,102.531 130.045,102.528 130.118,102.516 130.120,102.515 130.192,102.499 130.213,102.494 130.284,102.474 130.286,102.473 130.356,102.450 130.377,102.443 130.446,102.416 130.448,102.415 130.515,102.386 130.535,102.376 130.601,102.343 130.603,102.342 130.667,102.306 130.686,102.294 130.748,102.255 130.750,102.254 130.810,102.211 130.828,102.198 130.886,102.153 130.888,102.151 130.944,102.103 130.960,102.088 131.013,102.038 131.015,102.036 131.066,101.983 131.081,101.966 131.129,101.910 131.130,101.909 131.176,101.851 131.189,101.833 131.231,101.773 131.232,101.771 131.272,101.709 131.283,101.690 131.319,101.625 131.321,101.623 131.354,101.558 131.363,101.538 131.393,101.470 131.394,101.468 131.420,101.400 131.428,101.379 131.451,101.309 131.452,101.306 131.471,101.236 131.477,101.214 131.493,101.142 131.493,101.140 131.506,101.067 131.509,101.046 131.518,100.973 131.518,100.970 131.524,100.897 131.526,100.856 131.527,100.819 131.527,100.818 131.528,100.781 131.528,83.946 131.528,83.942 131.528,83.924 131.528,83.918 131.547,83.531 131.547,83.520 131.550,83.492 131.552,83.481 131.603,83.127 131.605,83.116 131.610,83.088 131.613,83.077 131.698,82.730 131.701,82.719 131.709,82.692 131.712,82.682 131.830,82.344 131.834,82.334 131.845,82.307 131.849,82.297 131.999,81.972 132.004,81.962 132.017,81.937 132.023,81.927 132.203,81.618 132.209,81.609 132.224,81.585 132.231,81.576 132.440,81.286 132.446,81.277 132.464,81.255 132.471,81.247 132.708,80.978 132.715,80.970 132.735,80.949 132.743,80.942 133.003,80.697 133.011,80.689 133.033,80.671 133.042,80.664 133.325,80.445 133.334,80.439 133.357,80.422 133.366,80.416 133.669,80.226 133.679,80.220 133.704,80.206 133.713,80.201 134.033,80.041 134.043,80.036 134.069,80.024 134.079,80.020 134.413,79.891 134.423,79.887 134.450,79.878 134.461,79.875 134.805,79.779 134.816,79.776 134.844,79.769 134.854,79.767 135.207,79.704 135.217,79.703 135.246,79.699 135.257,79.698 135.613,79.669 135.624,79.668 135.653,79.667 135.664,79.667 136.022,79.673 136.032,79.673 136.061,79.675 136.072,79.676 136.427,79.716 136.438,79.717 136.467,79.722 136.477,79.724 136.827,79.798 136.838,79.800 136.866,79.807 136.876,79.810 137.218,79.917 137.228,79.921 137.255,79.931 137.265,79.935 137.595,80.074 137.604,80.078 137.630,80.091 137.640,80.096 137.955,80.266 137.964,80.271 137.989,80.286 137.998,80.292 138.295,80.492 138.304,80.498 138.327,80.515 138.335,80.522 138.562,80.708 138.590,80.731 138.591,80.732 138.621,80.754 138.654,80.779 138.714,80.822 138.716,80.823 138.778,80.862 138.797,80.874 138.861,80.910 138.863,80.911 138.929,80.944 138.949,80.954 139.017,80.984 139.019,80.985 139.087,81.011 139.108,81.019 139.178,81.042 139.181,81.043 139.252,81.062 139.273,81.068 139.345,81.084 139.347,81.084 139.420,81.097 139.442,81.100 139.515,81.109 139.517,81.109 139.591,81.115 139.632,81.117 139.669,81.118 139.670,81.118 139.707,81.119 153.332,81.119 153.337,81.119 153.355,81.119 153.360,81.119 153.743,81.138 153.753,81.138 153.782,81.141 153.792,81.142 154.143,81.193 154.153,81.194 154.181,81.200 154.192,81.202 154.536,81.286 154.546,81.288 154.574,81.296 154.584,81.300 154.918,81.415 154.928,81.419 154.955,81.429 154.965,81.434 155.287,81.581 155.296,81.585 155.322,81.598 155.331,81.604 155.638,81.780 155.647,81.786 155.671,81.801 155.680,81.807 155.968,82.013 155.977,82.019 155.999,82.036 156.008,82.043 156.275,82.275 156.283,82.282 156.304,82.302 156.311,82.309 156.556,82.565 156.563,82.573 156.582,82.595 156.589,82.603 156.808,82.881 156.814,82.890 156.831,82.913 156.837,82.922 157.028,83.219 157.034,83.228 157.048,83.253 157.053,83.263 157.216,83.577 157.221,83.587 157.233,83.613 157.237,83.622 157.369,83.951 157.372,83.961 157.382,83.988 157.385,83.998 157.485,84.338 157.488,84.348 157.495,84.376 157.497,84.386 157.509,84.446 157.516,84.482 157.516,84.483 157.525,84.519 157.535,84.559 157.554,84.631 157.555,84.633 157.578,84.703 157.585,84.724 157.611,84.793 157.612,84.795 157.642,84.863 157.651,84.883 157.684,84.949 157.685,84.951 157.721,85.016 157.733,85.035 157.772,85.097 157.773,85.099 157.816,85.160 157.829,85.178 157.874,85.236 157.876,85.238 157.924,85.294 157.939,85.310 157.989,85.364 157.991,85.366 158.044,85.417 158.061,85.432 158.117,85.480 158.119,85.482 158.177,85.527 158.194,85.540 158.255,85.583 158.257,85.584 158.319,85.624 158.338,85.635 158.402,85.672 158.404,85.673 158.470,85.706 158.490,85.716 158.558,85.746 158.560,85.747 158.629,85.773 158.650,85.781 158.720,85.804 158.722,85.805 158.793,85.825 158.815,85.830 158.887,85.846 158.889,85.847 158.962,85.859 158.984,85.863 159.057,85.872 159.059,85.872 159.133,85.877 159.174,85.879 159.211,85.881 159.212,85.881 159.249,85.881 196.433,85.881 196.470,85.881 196.472,85.881 196.508,85.879 196.549,85.877 196.623,85.872 196.625,85.872 196.698,85.863 196.720,85.859 196.793,85.847 196.795,85.846 196.867,85.830 196.888,85.825 196.959,85.805 196.961,85.805 197.031,85.782 197.052,85.774 197.121,85.748 197.123,85.747 197.190,85.717 197.210,85.707 197.276,85.674 197.278,85.673 197.342,85.637 197.361,85.626 197.423,85.586 197.425,85.585 197.485,85.542 197.503,85.529 197.561,85.484 197.563,85.482 197.619,85.434 197.635,85.420 197.688,85.369 197.690,85.367 197.741,85.314 197.756,85.297 197.804,85.242 197.805,85.240 197.851,85.182 197.864,85.164 197.906,85.104 197.907,85.102 197.947,85.040 197.958,85.021 197.994,84.957 197.996,84.955 198.029,84.889 198.038,84.869 198.068,84.802 198.069,84.799 198.095,84.731 198.103,84.710 198.126,84.640 198.127,84.638 198.146,84.567 198.152,84.545 198.168,84.474 198.168,84.471 198.181,84.399 198.184,84.377 198.193,84.304 198.193,84.301 198.199,84.228 198.201,84.187 198.202,84.150 198.202,84.149 198.203,84.112 198.202,28.000 198.202,27.963 198.202,27.962 198.201,27.925 198.199,27.884 198.193,27.811 198.193,27.809 198.184,27.736 198.181,27.714 198.168,27.641 198.168,27.639 198.152,27.567 198.146,27.546 198.127,27.475 198.126,27.472 198.103,27.402 198.095,27.382 198.069,27.313 198.068,27.311 198.038,27.243 198.029,27.224 197.996,27.158 197.994,27.156 197.958,27.092 197.947,27.073 197.907,27.010 197.906,27.008 197.864,26.948 197.851,26.931 197.805,26.873 197.804,26.871 197.756,26.815 197.741,26.799 197.690,26.745 197.688,26.744 197.635,26.693 197.619,26.678 197.563,26.630 197.561,26.628 197.503,26.583 197.485,26.570 197.425,26.528 197.423,26.526 197.361,26.487 197.342,26.476 197.278,26.439 197.276,26.438 197.210,26.405 197.190,26.396 197.123,26.366 197.121,26.365 197.052,26.338 197.031,26.331 196.961,26.308 196.959,26.307 196.888,26.288 196.867,26.282 196.795,26.266 196.792,26.266 196.720,26.253 196.698,26.250 196.625,26.241 196.623,26.241 196.549,26.235 196.508,26.233 196.471,26.232 196.470,26.232 196.433,26.231 164.373,26.231 164.368,26.231 164.350,26.231 164.345,26.231 163.962,26.212 163.952,26.212 163.923,26.209 163.913,26.208 163.562,26.157 163.552,26.156 163.524,26.150 163.513,26.148 163.169,26.064 163.159,26.062 163.131,26.054 163.121,26.050 162.787,25.935 162.777,25.931 162.750,25.921 162.740,25.916 162.418,25.769 162.409,25.765 162.383,25.752 162.374,25.746 162.067,25.570 162.058,25.564 162.034,25.549 162.025,25.543 161.737,25.337 161.728,25.331 161.706,25.314 161.697,25.307 161.430,25.075 161.422,25.068 161.401,25.048 161.394,25.041 161.149,24.785 161.142,24.777 161.123,24.755 161.116,24.747 160.897,24.469 160.891,24.460 160.874,24.437 160.868,24.428 160.677,24.131 160.671,24.122 160.657,24.097 160.652,24.087 160.489,23.773 160.484,23.763 160.472,23.737 160.468,23.728 160.336,23.399 160.333,23.389 160.323,23.362 160.320,23.352 160.220,23.012 160.217,23.002 160.210,22.974 160.208,22.964 160.196,22.904 160.189,22.868 160.189,22.867 160.180,22.831 160.170,22.791 160.151,22.719 160.150,22.717 160.127,22.647 160.120,22.626 160.094,22.557 160.093,22.555 160.063,22.487 160.054,22.467 160.021,22.401 160.020,22.399 159.984,22.334 159.972,22.315 159.933,22.253 159.932,22.251 159.889,22.190 159.876,22.172 159.831,22.114 159.829,22.112 159.781,22.056 159.766,22.040 159.716,21.986 159.714,21.984 159.661,21.933 159.644,21.918 159.588,21.870 159.586,21.868 159.528,21.823 159.511,21.810 159.450,21.767 159.448,21.766 159.386,21.726 159.367,21.715 159.303,21.678 159.301,21.677 159.235,21.644 159.215,21.634 159.147,21.604 159.145,21.603 159.076,21.577 159.055,21.569 158.985,21.546 158.983,21.545 158.912,21.525 158.890,21.520 158.818,21.504 158.816,21.503 158.743,21.491 158.721,21.487 158.648,21.478 158.646,21.478 158.572,21.473 158.531,21.471 158.494,21.469 158.493,21.469 158.456,21.469 144.590,21.469 144.585,21.469 144.566,21.468 144.560,21.468 144.145,21.447 144.133,21.446 144.103,21.443 144.091,21.441 143.712,21.382 143.701,21.380 143.670,21.374 143.659,21.371 143.288,21.273 143.277,21.270 143.248,21.261 143.237,21.257 142.878,21.121 142.867,21.117 142.839,21.105 142.828,21.100 142.485,20.928 142.475,20.923 142.448,20.907 142.438,20.901 142.114,20.695 142.105,20.689 142.080,20.671 142.070,20.664 141.770,20.426 141.761,20.418 141.737,20.398 141.729,20.390 141.454,20.122 141.446,20.114 141.425,20.091 141.418,20.082 141.129,19.736 141.107,19.709 141.056,19.651 141.054,19.649 141.000,19.594 140.984,19.578 140.927,19.525 140.925,19.524 140.866,19.474 140.848,19.460 140.786,19.413 140.784,19.412 140.720,19.369 140.700,19.356 140.634,19.316 140.632,19.315 140.564,19.279 140.543,19.268 140.473,19.236 140.471,19.235 140.399,19.205 140.377,19.197 140.304,19.172 140.302,19.171 140.228,19.150 140.205,19.144 140.130,19.126 140.128,19.125 140.052,19.111 140.029,19.108 139.952,19.098 139.950,19.098 139.873,19.092 139.829,19.090 139.791,19.088 139.790,19.088 139.751,19.087 122.761,19.087 122.756,19.087 122.737,19.087 122.732,19.087 122.337,19.067 122.326,19.067 122.296,19.064 122.286,19.062 121.924,19.009 121.913,19.007 121.884,19.001 121.874,18.999 121.519,18.910 121.508,18.907 121.480,18.899 121.470,18.895 121.126,18.772 121.115,18.768 121.088,18.757 121.078,18.752 120.748,18.596 120.738,18.591 120.712,18.577 120.702,18.572 120.389,18.384 120.380,18.378 120.355,18.362 120.346,18.355 120.053,18.137 120.044,18.131 120.021,18.112 120.013,18.105 119.742,17.859 119.734,17.852 119.713,17.831 119.706,17.823 119.460,17.552 119.453,17.544 119.434,17.521 119.428,17.512 119.210,17.219 119.203,17.210 119.187,17.185 119.181,17.176 118.993,16.863 118.988,16.853 118.974,16.827 118.969,16.817 118.813,16.487 118.808,16.477 118.797,16.450 118.793,16.439 118.670,16.095 118.666,16.085 118.658,16.057 118.655,16.046 118.566,15.691 118.564,15.681 118.558,15.652 118.556,15.641 118.503,15.279 118.501,15.269 118.498,15.239 118.498,15.228 118.478,14.834 118.478,14.829 118.478,14.811 118.477,14.805 118.477,8.369 118.477,8.332 118.477,8.331 118.476,8.294 118.474,8.253 118.468,8.180 118.468,8.177 118.459,8.104 118.456,8.082 118.443,8.010 118.443,8.008 118.427,7.936 118.421,7.914 118.402,7.843 118.401,7.841 118.378,7.771 118.370,7.750 118.344,7.682 118.343,7.679 118.313,7.612 118.304,7.592 118.271,7.526 118.269,7.524 118.233,7.460 118.222,7.441 118.182,7.379 118.181,7.377 118.139,7.317 118.126,7.299 118.080,7.241 118.079,7.239 118.031,7.184 118.016,7.167 117.965,7.114 117.963,7.112 117.910,7.062 117.894,7.047 117.838,6.999 117.836,6.997 117.778,6.952 117.760,6.939 117.700,6.896 117.698,6.895 117.636,6.856 117.617,6.844 117.553,6.808 117.551,6.807 117.485,6.774 117.465,6.764 117.398,6.735 117.396,6.734 117.327,6.707 117.306,6.700 117.236,6.677 117.234,6.676 117.163,6.656 117.142,6.651 117.070,6.635 117.067,6.634 116.995,6.622 116.973,6.619 116.900,6.609 116.898,6.609 116.824,6.604 116.783,6.602 116.746,6.600 116.745,6.600 116.708,6.600 105.747,6.600 105.710,6.600 105.708,6.600 105.672,6.602 105.631,6.604 105.557,6.609 105.555,6.610 105.482,6.619 105.460,6.622 105.387,6.634 105.385,6.635 105.313,6.651 105.292,6.656 105.221,6.676 105.219,6.677 105.149,6.700 105.128,6.707 105.059,6.734 105.057,6.735 104.990,6.764 104.970,6.774 104.904,6.807 104.902,6.808 104.838,6.844 104.819,6.856 104.757,6.895 104.755,6.896 104.695,6.939 104.677,6.952 104.619,6.997 104.617,6.999 104.561,7.047 104.545,7.062 104.492,7.112 104.490,7.114 104.439,7.167 104.424,7.184 104.376,7.240 104.375,7.241 104.329,7.299 104.316,7.317 104.274,7.377 104.273,7.379 104.233,7.441 104.222,7.460 104.186,7.525 104.184,7.527 104.151,7.592 104.142,7.612 104.112,7.680 104.111,7.682 104.085,7.750 104.077,7.771 104.054,7.841 104.053,7.844 104.034,7.914 104.028,7.936 104.012,8.008 104.012,8.010 103.999,8.083 103.996,8.104 103.987,8.177 103.987,8.180 103.981,8.253 103.979,8.294 103.978,8.331 103.978,8.332 103.977,8.369 103.977,17.408 103.977,17.413 103.977,17.432 103.977,17.438 103.956,17.849 103.955,17.861 103.952,17.891 103.950,17.903 103.892,18.279 103.890,18.290 103.884,18.320 103.881,18.331 103.785,18.700 103.782,18.711 103.773,18.740 103.769,18.751 103.635,19.107 103.631,19.118 103.619,19.146 103.614,19.157 103.445,19.498 103.440,19.508 103.425,19.535 103.419,19.544 103.216,19.866 103.209,19.876 103.192,19.901 103.185,19.910 102.950,20.210 102.943,20.219 102.923,20.242 102.915,20.250 102.651,20.524 102.643,20.533 102.620,20.553 102.612,20.561 102.321,20.807 102.312,20.814 102.288,20.833 102.278,20.839 101.964,21.054 101.954,21.060 101.928,21.076 101.918,21.082 101.583,21.263 101.573,21.269 101.546,21.282 101.535,21.286 101.197,21.427 101.163,21.442 101.162,21.442 101.129,21.458 101.092,21.475 101.027,21.508 101.025,21.509 100.961,21.545 100.942,21.557 100.881,21.596 100.879,21.597 100.819,21.639 100.801,21.652 100.744,21.697 100.742,21.699 100.687,21.746 100.670,21.761 100.617,21.811 100.616,21.813 100.565,21.866 100.551,21.882 100.503,21.937 100.501,21.939 100.456,21.997 100.432,22.029 100.410,22.059 100.410,22.060 100.389,22.090 100.365,22.125 100.359,22.135 100.340,22.160 100.333,22.169 100.087,22.463 100.080,22.472 100.059,22.495 100.051,22.503 99.776,22.771 99.768,22.779 99.744,22.799 99.735,22.807 99.435,23.045 99.425,23.052 99.400,23.070 99.391,23.076 99.067,23.282 99.057,23.289 99.030,23.304 99.020,23.309 98.677,23.481 98.666,23.486 98.638,23.498 98.627,23.502 98.268,23.638 98.257,23.642 98.228,23.651 98.217,23.654 97.846,23.752 97.835,23.755 97.804,23.761 97.793,23.763 97.414,23.822 97.402,23.824 97.372,23.827 97.360,23.828 96.946,23.849 96.941,23.849 96.922,23.850 96.916,23.850 88.685,23.850 88.680,23.850 88.662,23.850 88.657,23.849 88.274,23.831 88.263,23.830 88.235,23.828 88.224,23.826 87.874,23.776 87.863,23.774 87.835,23.769 87.825,23.767 87.481,23.683 87.470,23.681 87.443,23.673 87.433,23.669 87.098,23.554 87.088,23.550 87.062,23.539 87.052,23.535 86.730,23.388 86.720,23.384 86.695,23.370 86.686,23.365 86.379,23.188 86.370,23.183 86.346,23.168 86.337,23.161 86.048,22.956 86.040,22.950 86.017,22.932 86.009,22.925 85.741,22.694 85.733,22.687 85.713,22.667 85.705,22.659 85.461,22.403 85.453,22.396 85.435,22.374 85.428,22.366 85.209,22.088 85.202,22.079 85.186,22.056 85.180,22.047 84.988,21.749 84.983,21.740 84.968,21.716 84.963,21.706 84.801,21.392 84.796,21.382 84.784,21.356 84.780,21.346 84.648,21.018 84.644,21.008 84.635,20.981 84.632,20.971 84.531,20.631 84.529,20.621 84.522,20.593 84.520,20.583 84.482,20.386 84.477,20.352 84.511,20.350 98.352,20.350 98.500,20.343 98.645,20.321 98.788,20.285 98.927,20.236 99.060,20.173 99.186,20.097 99.304,20.010 99.413,19.911 99.512,19.802 99.600,19.683 99.675,19.557 99.738,19.424 99.788,19.285 99.824,19.143 99.845,18.997 99.852,18.850 99.852,8.100 99.845,7.953 99.824,7.807 99.788,7.665 99.738,7.526 99.675,7.393 99.600,7.267 99.512,7.148 99.413,7.039 99.304,6.940 99.186,6.853 99.060,6.777 98.927,6.714 98.788,6.665 98.645,6.629 98.500,6.607 98.352,6.600 62.590,6.600 62.435,6.608 62.426,6.609 62.352,6.617 62.283,6.611 62.275,6.609 62.273,6.609 62.199,6.604 62.158,6.602 62.121,6.600 62.120,6.600 62.083,6.600 43.622,6.600 43.585,6.600 43.583,6.600 43.547,6.602 43.506,6.604 43.432,6.609 43.430,6.610 43.357,6.619 43.335,6.622 43.262,6.634 43.260,6.635 43.188,6.651 43.167,6.656 43.096,6.676 43.094,6.677 43.024,6.700 43.003,6.707 42.934,6.734 42.932,6.735 42.865,6.764 42.845,6.774 42.779,6.807 42.777,6.808 42.713,6.844 42.694,6.856 42.632,6.895 42.630,6.896 42.570,6.939 42.552,6.952 42.494,6.997 42.492,6.999 42.436,7.047 42.420,7.062 42.367,7.112 42.365,7.114 42.314,7.167 42.299,7.184 42.251,7.240 42.250,7.241 42.204,7.299 42.191,7.317 42.149,7.377 42.148,7.379 42.108,7.441 42.097,7.460 42.061,7.525 42.059,7.527 42.026,7.592 42.017,7.612 41.987,7.680 41.986,7.682 41.960,7.750 41.952,7.771 41.929,7.841 41.928,7.844 41.909,7.914 41.903,7.936 41.887,8.008 41.887,8.010 41.874,8.083 41.871,8.104 41.862,8.177 41.862,8.180 41.856,8.253 41.854,8.294 41.853,8.331 41.853,8.332 41.852,8.369 41.852,35.131 41.853,35.168 41.853,35.169 41.854,35.206 41.856,35.247 41.862,35.320 41.862,35.323 41.871,35.396 41.874,35.418 41.887,35.490 41.887,35.492 41.903,35.564 41.909,35.586 41.928,35.657 41.929,35.659 41.952,35.729 41.960,35.750 41.986,35.818 41.987,35.821 42.017,35.888 42.026,35.908 42.059,35.974 42.061,35.976 42.097,36.040 42.108,36.059 42.148,36.121 42.149,36.123 42.191,36.183 42.204,36.201 42.250,36.259 42.251,36.261 42.299,36.316 42.314,36.333 42.365,36.386 42.367,36.388 42.420,36.438 42.436,36.453 42.492,36.501 42.494,36.503 42.552,36.548 42.570,36.561 42.630,36.604 42.632,36.605 42.694,36.644 42.713,36.656 42.777,36.692 42.779,36.693 42.845,36.726 42.865,36.736 42.932,36.765 42.934,36.766 43.003,36.793 43.024,36.800 43.094,36.823 43.096,36.824 43.167,36.844 43.188,36.849 43.260,36.865 43.263,36.866 43.335,36.878 43.357,36.881 43.430,36.891 43.432,36.891 43.506,36.896 43.547,36.898 43.584,36.900 43.585,36.900 43.622,36.900 58.069,36.900 58.074,36.900 58.093,36.900 58.098,36.901 58.493,36.920 58.504,36.921" fill="none" stroke="#2563eb" stroke-width="0.25"/><text x="4" y="132.3" font-size="3" fill="#2563eb" font-family="sans-serif">INNER_WALL</text><polygon points="202.452,60.050 202.452,52.050 202.452,52.025 202.447,51.927 202.442,51.879 202.428,51.782 202.418,51.733 202.394,51.638 202.380,51.591 202.347,51.499 202.328,51.454 202.286,51.365 202.263,51.322 202.213,51.237 202.186,51.197 202.127,51.118 202.096,51.080 202.030,51.007 201.995,50.972 201.923,50.907 201.885,50.875 201.806,50.817 201.765,50.790 201.681,50.739 201.638,50.716 201.549,50.674 201.504,50.655 201.411,50.622 201.364,50.608 201.269,50.584 201.221,50.575 201.124,50.560 201.075,50.555 200.977,50.551 200.952,50.550 197.452,50.550 197.428,50.551 197.330,50.555 197.281,50.560 197.184,50.575 197.136,50.584 197.041,50.608 196.994,50.622 196.901,50.655 196.856,50.674 196.767,50.716 196.724,50.739 196.640,50.790 196.599,50.817 196.520,50.875 196.482,50.907 196.410,50.972 196.375,51.007 196.309,51.080 196.278,51.118 196.219,51.197 196.192,51.237 196.142,51.322 196.119,51.365 196.077,51.454 196.058,51.499 196.025,51.591 196.011,51.638 195.987,51.733 195.977,51.782 195.963,51.879 195.958,51.927 195.953,52.025 195.952,52.050 195.952,60.050 195.953,60.075 195.958,60.173 195.963,60.221 195.977,60.318 195.987,60.367 196.011,60.462 196.025,60.509 196.058,60.601 196.077,60.646 196.119,60.735 196.142,60.778 196.192,60.863 196.219,60.903 196.278,60.982 196.309,61.020 196.375,61.093 196.410,61.128 196.482,61.193 196.520,61.225 196.599,61.283 196.640,61.310 196.724,61.361 196.767,61.384 196.856,61.426 196.901,61.445 196.994,61.478 197.041,61.492 197.136,61.516 197.184,61.525 197.281,61.540 197.330,61.545 197.428,61.549 197.452,61.550 200.952,61.550 200.977,61.549 201.075,61.545 201.124,61.540 201.221,61.525 201.269,61.516 201.364,61.492 201.411,61.478 201.504,61.445 201.549,61.426 201.638,61.384 201.681,61.361 201.765,61.310 201.806,61.283 201.885,61.225 201.923,61.193 201.995,61.128 202.030,61.093 202.096,61.020 202.127,60.982 202.186,60.903 202.213,60.863 202.263,60.778 202.286,60.735 202.328,60.646 202.347,60.601 202.380,60.509 202.394,60.462 202.418,60.367 202.428,60.318 202.442,60.221 202.447,60.173 202.452,60.075 202.452,60.050" fill="none" stroke="#dc2626" stroke-width="0.25"/><polygon points="181.840,21.981 173.840,21.981 173.815,21.982 173.717,21.987 173.669,21.991 173.572,22.006 173.523,22.015 173.428,22.039 173.381,22.054 173.289,22.087 173.244,22.105 173.155,22.147 173.112,22.170 173.027,22.221 172.987,22.248 172.908,22.307 172.870,22.338 172.797,22.404 172.762,22.438 172.697,22.511 172.665,22.549 172.607,22.628 172.580,22.669 172.529,22.753 172.506,22.796 172.464,22.885 172.445,22.930 172.412,23.023 172.398,23.069 172.374,23.165 172.365,23.213 172.350,23.310 172.345,23.359 172.341,23.457 172.340,23.481 172.340,26.981 172.341,27.006 172.345,27.104 172.350,27.153 172.365,27.250 172.374,27.298 172.398,27.393 172.412,27.440 172.445,27.532 172.464,27.578 172.506,27.666 172.529,27.710 172.580,27.794 172.607,27.835 172.665,27.913 172.697,27.951 172.762,28.024 172.797,28.059 172.870,28.125 172.908,28.156 172.987,28.214 173.027,28.242 173.112,28.292 173.155,28.315 173.244,28.357 173.289,28.376 173.381,28.409 173.428,28.423 173.523,28.447 173.572,28.457 173.669,28.471 173.717,28.476 173.815,28.481 173.840,28.481 181.840,28.481 181.865,28.481 181.963,28.476 182.011,28.471 182.108,28.457 182.157,28.447 182.252,28.423 182.299,28.409 182.391,28.376 182.436,28.357 182.525,28.315 182.568,28.292 182.653,28.242 182.693,28.214 182.772,28.156 182.810,28.125 182.883,28.059 182.918,28.024 182.983,27.951 183.015,27.913 183.073,27.835 183.100,27.794 183.151,27.710 183.174,27.666 183.216,27.578 183.235,27.532 183.268,27.440 183.282,27.393 183.306,27.298 183.315,27.250 183.330,27.153 183.335,27.104 183.339,27.006 183.340,26.981 183.340,23.481 183.339,23.457 183.335,23.359 183.330,23.310 183.315,23.213 183.306,23.165 183.282,23.069 183.268,23.023 183.235,22.930 183.216,22.885 183.174,22.796 183.151,22.753 183.100,22.669 183.073,22.628 183.015,22.549 182.983,22.511 182.918,22.438 182.883,22.404 182.810,22.338 182.772,22.307 182.693,22.248 182.653,22.221 182.568,22.170 182.525,22.147 182.436,22.105 182.391,22.087 182.299,22.054 182.252,22.039 182.157,22.015 182.108,22.006 182.011,21.991 181.963,21.987 181.865,21.982 181.840,21.981" fill="none" stroke="#dc2626" stroke-width="0.25"/><polygon points="134.240,14.837 126.240,14.837 126.215,14.838 126.117,14.843 126.069,14.848 125.972,14.862 125.923,14.872 125.828,14.896 125.781,14.910 125.689,14.943 125.644,14.962 125.555,15.004 125.512,15.027 125.427,15.077 125.387,15.104 125.308,15.163 125.270,15.194 125.197,15.260 125.162,15.295 125.097,15.367 125.065,15.405 125.007,15.484 124.980,15.525 124.929,15.609 124.906,15.652 124.864,15.741 124.845,15.786 124.812,15.879 124.798,15.926 124.774,16.021 124.765,16.069 124.750,16.166 124.745,16.215 124.741,16.313 124.740,16.337 124.740,19.837 124.741,19.862 124.745,19.960 124.750,20.009 124.765,20.106 124.774,20.154 124.798,20.249 124.812,20.296 124.845,20.389 124.864,20.434 124.906,20.523 124.929,20.566 124.980,20.650 125.007,20.691 125.065,20.770 125.097,20.808 125.162,20.880 125.197,20.915 125.270,20.981 125.308,21.012 125.387,21.071 125.427,21.098 125.512,21.148 125.555,21.171 125.644,21.213 125.689,21.232 125.781,21.265 125.828,21.279 125.923,21.303 125.972,21.313 126.069,21.327 126.117,21.332 126.215,21.337 126.240,21.337 134.240,21.337 134.265,21.337 134.363,21.332 134.411,21.327 134.508,21.313 134.557,21.303 134.652,21.279 134.699,21.265 134.791,21.232 134.836,21.213 134.925,21.171 134.968,21.148 135.053,21.098 135.093,21.071 135.172,21.012 135.210,20.981 135.283,20.915 135.318,20.880 135.383,20.808 135.415,20.770 135.473,20.691 135.500,20.650 135.551,20.566 135.574,20.523 135.616,20.434 135.635,20.389 135.668,20.296 135.682,20.249 135.706,20.154 135.715,20.106 135.730,20.009 135.735,19.960 135.739,19.862 135.740,19.837 135.740,16.337 135.739,16.313 135.735,16.215 135.730,16.166 135.715,16.069 135.706,16.021 135.682,15.926 135.668,15.879 135.635,15.786 135.616,15.741 135.574,15.652 135.551,15.609 135.500,15.525 135.473,15.484 135.415,15.405 135.383,15.367 135.318,15.295 135.283,15.260 135.210,15.194 135.172,15.163 135.093,15.104 135.053,15.077 134.968,15.027 134.925,15.004 134.836,14.962 134.791,14.943 134.699,14.910 134.652,14.896 134.557,14.872 134.508,14.862 134.411,14.848 134.363,14.843 134.265,14.838 134.240,14.837" fill="none" stroke="#dc2626" stroke-width="0.25"/><polygon points="173.840,90.131 181.840,90.131 181.865,90.131 181.963,90.126 182.011,90.121 182.108,90.107 182.157,90.097 182.252,90.073 182.299,90.059 182.391,90.026 182.436,90.007 182.525,89.965 182.568,89.942 182.653,89.892 182.693,89.864 182.772,89.806 182.810,89.775 182.883,89.709 182.918,89.674 182.983,89.601 183.015,89.563 183.073,89.485 183.100,89.444 183.151,89.360 183.174,89.316 183.216,89.228 183.235,89.182 183.268,89.090 183.282,89.043 183.306,88.948 183.315,88.900 183.330,88.803 183.335,88.754 183.339,88.656 183.340,88.631 183.340,85.131 183.339,85.107 183.335,85.009 183.330,84.960 183.315,84.863 183.306,84.815 183.282,84.719 183.268,84.673 183.235,84.580 183.216,84.535 183.174,84.446 183.151,84.403 183.100,84.319 183.073,84.278 183.015,84.199 182.983,84.161 182.918,84.088 182.883,84.054 182.810,83.988 182.772,83.957 182.693,83.898 182.653,83.871 182.568,83.820 182.525,83.797 182.436,83.755 182.391,83.737 182.299,83.704 182.252,83.689 182.157,83.665 182.108,83.656 182.011,83.641 181.963,83.637 181.865,83.632 181.840,83.631 173.840,83.631 173.815,83.632 173.717,83.637 173.669,83.641 173.572,83.656 173.523,83.665 173.428,83.689 173.381,83.704 173.289,83.737 173.244,83.755 173.155,83.797 173.112,83.820 173.027,83.871 172.987,83.898 172.908,83.957 172.870,83.988 172.797,84.054 172.762,84.088 172.697,84.161 172.665,84.199 172.607,84.278 172.580,84.319 172.529,84.403 172.506,84.446 172.464,84.535 172.445,84.580 172.412,84.673 172.398,84.719 172.374,84.815 172.365,84.863 172.350,84.960 172.345,85.009 172.341,85.107 172.340,85.131 172.340,88.631 172.341,88.656 172.345,88.754 172.350,88.803 172.365,88.900 172.374,88.948 172.398,89.043 172.412,89.090 172.445,89.182 172.464,89.228 172.506,89.316 172.529,89.360 172.580,89.444 172.607,89.485 172.665,89.563 172.697,89.601 172.762,89.674 172.797,89.709 172.870,89.775 172.908,89.806 172.987,89.864 173.027,89.892 173.112,89.942 173.155,89.965 173.244,90.007 173.289,90.026 173.381,90.059 173.428,90.073 173.523,90.097 173.572,90.107 173.669,90.121 173.717,90.126 173.815,90.131 173.840,90.131" fill="none" stroke="#dc2626" stroke-width="0.25"/><polygon points="116.740,106.800 124.740,106.800 124.765,106.799 124.863,106.795 124.911,106.790 125.008,106.775 125.057,106.766 125.152,106.742 125.199,106.728 125.291,106.695 125.336,106.676 125.425,106.634 125.468,106.611 125.553,106.560 125.593,106.533 125.672,106.475 125.710,106.443 125.783,106.378 125.818,106.343 125.883,106.270 125.915,106.232 125.973,106.153 126.000,106.113 126.051,106.028 126.074,105.985 126.116,105.896 126.135,105.851 126.168,105.759 126.182,105.712 126.206,105.617 126.215,105.568 126.230,105.471 126.235,105.423 126.239,105.325 126.240,105.300 126.240,101.800 126.239,101.775 126.235,101.677 126.230,101.629 126.215,101.532 126.206,101.483 126.182,101.388 126.168,101.341 126.135,101.249 126.116,101.204 126.074,101.115 126.051,101.072 126.000,100.987 125.973,100.947 125.915,100.868 125.883,100.830 125.818,100.757 125.783,100.722 125.710,100.657 125.672,100.625 125.593,100.567 125.553,100.540 125.468,100.489 125.425,100.466 125.336,100.424 125.291,100.405 125.199,100.372 125.152,100.358 125.057,100.334 125.008,100.325 124.911,100.310 124.863,100.305 124.765,100.301 124.740,100.300 116.740,100.300 116.715,100.301 116.617,100.305 116.569,100.310 116.472,100.325 116.423,100.334 116.328,100.358 116.281,100.372 116.189,100.405 116.144,100.424 116.055,100.466 116.012,100.489 115.927,100.540 115.887,100.567 115.808,100.625 115.770,100.657 115.697,100.722 115.662,100.757 115.597,100.830 115.565,100.868 115.507,100.947 115.480,100.987 115.429,101.072 115.406,101.115 115.364,101.204 115.345,101.249 115.312,101.341 115.298,101.388 115.274,101.483 115.265,101.532 115.250,101.629 115.245,101.677 115.241,101.775 115.240,101.800 115.240,105.300 115.241,105.325 115.245,105.423 115.250,105.471 115.265,105.568 115.274,105.617 115.298,105.712 115.312,105.759 115.345,105.851 115.364,105.896 115.406,105.985 115.429,106.028 115.480,106.113 115.507,106.153 115.565,106.232 115.597,106.270 115.662,106.343 115.697,106.378 115.770,106.443 115.808,106.475 115.887,106.533 115.927,106.560 116.012,106.611 116.055,106.634 116.144,106.676 116.189,106.695 116.281,106.728 116.328,106.742 116.423,106.766 116.472,106.775 116.569,106.790 116.617,106.795 116.715,106.799 116.740,106.800" fill="none" stroke="#dc2626" stroke-width="0.25"/><polygon points="96.671,110.000 104.498,108.345 104.522,108.339 104.617,108.314 104.664,108.299 104.756,108.265 104.801,108.246 104.889,108.203 104.932,108.179 105.016,108.128 105.056,108.100 105.134,108.040 105.172,108.009 105.244,107.942 105.278,107.907 105.343,107.833 105.374,107.795 105.431,107.716 105.458,107.674 105.507,107.590 105.530,107.546 105.571,107.457 105.589,107.411 105.621,107.319 105.635,107.271 105.657,107.176 105.666,107.128 105.680,107.030 105.684,106.982 105.688,106.884 105.687,106.834 105.681,106.737 105.676,106.688 105.660,106.591 105.655,106.567 104.931,103.142 104.926,103.119 104.901,103.024 104.886,102.977 104.852,102.885 104.832,102.840 104.789,102.752 104.766,102.709 104.714,102.625 104.687,102.585 104.627,102.506 104.596,102.469 104.529,102.397 104.494,102.363 104.420,102.298 104.382,102.267 104.302,102.210 104.261,102.183 104.176,102.133 104.133,102.111 104.044,102.070 103.998,102.052 103.905,102.020 103.858,102.006 103.763,101.983 103.714,101.974 103.617,101.961 103.568,101.957 103.470,101.953 103.421,101.954 103.323,101.960 103.275,101.965 103.178,101.981 103.153,101.985 95.327,103.640 95.303,103.646 95.208,103.671 95.161,103.686 95.069,103.720 95.024,103.739 94.936,103.782 94.893,103.806 94.809,103.857 94.769,103.885 94.691,103.945 94.653,103.976 94.581,104.043 94.547,104.078 94.482,104.152 94.451,104.190 94.394,104.269 94.367,104.310 94.317,104.395 94.295,104.439 94.254,104.528 94.236,104.574 94.204,104.666 94.190,104.713 94.167,104.809 94.158,104.857 94.145,104.954 94.141,105.003 94.137,105.101 94.138,105.150 94.144,105.248 94.149,105.297 94.165,105.394 94.169,105.418 94.893,108.842 94.899,108.866 94.924,108.961 94.939,109.008 94.973,109.100 94.992,109.145 95.035,109.233 95.059,109.276 95.111,109.360 95.138,109.400 95.198,109.478 95.229,109.516 95.296,109.588 95.331,109.622 95.405,109.687 95.443,109.718 95.523,109.775 95.564,109.802 95.648,109.852 95.692,109.874 95.781,109.915 95.827,109.933 95.920,109.965 95.967,109.979 96.062,110.002 96.110,110.011 96.208,110.024 96.256,110.028 96.355,110.032 96.404,110.031 96.502,110.025 96.550,110.020 96.647,110.004 96.671,110.000" fill="none" stroke="#dc2626" stroke-width="0.25"/><polygon points="62.766,98.522 66.005,105.837 66.016,105.859 66.060,105.947 66.084,105.989 66.136,106.072 66.164,106.112 66.225,106.190 66.257,106.227 66.324,106.298 66.360,106.332 66.434,106.396 66.473,106.426 66.553,106.483 66.595,106.509 66.680,106.558 66.724,106.580 66.813,106.619 66.859,106.637 66.952,106.668 67.000,106.681 67.095,106.703 67.144,106.711 67.241,106.723 67.290,106.727 67.388,106.729 67.437,106.728 67.535,106.721 67.584,106.715 67.681,106.698 67.728,106.687 67.823,106.661 67.870,106.646 67.961,106.611 67.984,106.601 71.184,105.184 71.206,105.174 71.294,105.130 71.337,105.106 71.420,105.053 71.460,105.025 71.537,104.965 71.574,104.933 71.646,104.865 71.679,104.829 71.744,104.755 71.774,104.716 71.830,104.636 71.857,104.595 71.905,104.509 71.927,104.466 71.967,104.376 71.985,104.330 72.015,104.237 72.028,104.190 72.050,104.094 72.058,104.046 72.070,103.948 72.074,103.899 72.077,103.801 72.075,103.752 72.068,103.654 72.062,103.606 72.045,103.509 72.035,103.461 72.009,103.366 71.993,103.320 71.958,103.228 71.949,103.206 68.710,95.890 68.700,95.868 68.655,95.780 68.631,95.738 68.579,95.655 68.551,95.615 68.490,95.537 68.458,95.500 68.391,95.429 68.355,95.395 68.281,95.331 68.242,95.301 68.162,95.244 68.120,95.218 68.035,95.170 67.991,95.148 67.902,95.108 67.856,95.090 67.763,95.059 67.715,95.046 67.620,95.025 67.571,95.016 67.474,95.004 67.425,95.000 67.327,94.998 67.278,94.999 67.180,95.006 67.131,95.012 67.035,95.029 66.987,95.040 66.892,95.066 66.845,95.081 66.754,95.117 66.731,95.126 63.531,96.543 63.509,96.553 63.421,96.597 63.378,96.622 63.295,96.674 63.255,96.702 63.178,96.763 63.141,96.795 63.069,96.862 63.036,96.898 62.972,96.972 62.941,97.011 62.885,97.091 62.858,97.132 62.810,97.218 62.788,97.262 62.748,97.351 62.731,97.397 62.700,97.490 62.687,97.538 62.665,97.633 62.657,97.682 62.645,97.779 62.641,97.828 62.638,97.926 62.640,97.975 62.647,98.073 62.653,98.122 62.670,98.218 62.680,98.266 62.706,98.361 62.722,98.407 62.757,98.499 62.766,98.522" fill="none" stroke="#dc2626" stroke-width="0.25"/><polygon points="57.530,86.671 60.752,93.994 60.762,94.016 60.806,94.104 60.830,94.146 60.882,94.229 60.910,94.270 60.970,94.347 61.002,94.384 61.070,94.456 61.105,94.490 61.179,94.554 61.218,94.584 61.298,94.641 61.340,94.667 61.425,94.716 61.469,94.738 61.558,94.778 61.604,94.796 61.697,94.827 61.744,94.840 61.840,94.862 61.888,94.870 61.986,94.883 62.035,94.886 62.133,94.889 62.182,94.888 62.280,94.881 62.328,94.875 62.425,94.859 62.473,94.848 62.568,94.822 62.614,94.807 62.706,94.772 62.729,94.763 65.932,93.353 65.954,93.343 66.042,93.299 66.085,93.275 66.168,93.223 66.208,93.194 66.286,93.134 66.323,93.102 66.394,93.035 66.428,92.999 66.493,92.925 66.523,92.887 66.580,92.807 66.606,92.765 66.655,92.680 66.677,92.636 66.717,92.547 66.735,92.501 66.766,92.408 66.779,92.360 66.801,92.265 66.809,92.216 66.821,92.119 66.825,92.070 66.828,91.972 66.827,91.923 66.820,91.825 66.814,91.776 66.797,91.680 66.787,91.632 66.761,91.537 66.746,91.490 66.711,91.399 66.701,91.376 63.480,84.053 63.469,84.031 63.425,83.943 63.401,83.901 63.349,83.818 63.321,83.777 63.261,83.700 63.229,83.663 63.161,83.591 63.126,83.557 63.052,83.493 63.013,83.463 62.933,83.406 62.892,83.380 62.807,83.331 62.763,83.309 62.673,83.269 62.627,83.251 62.534,83.220 62.487,83.207 62.391,83.185 62.343,83.177 62.246,83.164 62.197,83.161 62.099,83.158 62.050,83.159 61.952,83.166 61.903,83.172 61.806,83.188 61.758,83.199 61.664,83.225 61.617,83.240 61.525,83.275 61.503,83.284 58.299,84.694 58.277,84.704 58.189,84.748 58.146,84.772 58.063,84.824 58.023,84.853 57.945,84.913 57.908,84.945 57.837,85.012 57.803,85.048 57.739,85.122 57.708,85.160 57.652,85.240 57.625,85.282 57.577,85.367 57.555,85.411 57.515,85.500 57.497,85.546 57.466,85.639 57.452,85.687 57.431,85.782 57.422,85.831 57.410,85.928 57.406,85.977 57.403,86.075 57.405,86.124 57.412,86.222 57.417,86.271 57.434,86.367 57.444,86.415 57.470,86.510 57.486,86.557 57.521,86.648 57.530,86.671" fill="none" stroke="#dc2626" stroke-width="0.25"/><text x="4" y="136.3" font-size="3" fill="#dc2626" font-family="sans-serif">GASKET_POCKETS</text><polygon points="126.045,15.357 125.950,15.381 125.857,15.414 125.769,15.456 125.684,15.506 125.606,15.564 125.533,15.630 125.467,15.703 125.409,15.782 125.358,15.866 125.316,15.955 125.283,16.047 125.259,16.142 125.245,16.239 125.240,16.337 125.240,19.837 120.794,19.837 120.774,19.838 120.702,19.842 120.661,19.846 120.600,19.856 120.559,19.864 120.500,19.880 120.460,19.892 120.403,19.914 120.365,19.931 120.310,19.958 120.274,19.978 120.222,20.012 120.188,20.036 120.140,20.074 120.109,20.101 120.064,20.144 120.037,20.174 120.001,20.217 119.701,20.577 119.674,20.608 119.667,20.616 119.638,20.645 119.336,20.940 119.306,20.968 119.298,20.975 119.266,21.001 118.935,21.264 118.902,21.288 118.894,21.294 118.860,21.317 118.503,21.544 118.468,21.566 118.459,21.571 118.423,21.590 118.045,21.779 118.008,21.796 117.998,21.801 117.960,21.816 117.565,21.965 117.526,21.979 117.516,21.982 117.477,21.993 117.068,22.101 117.028,22.111 117.018,22.113 116.977,22.120 116.560,22.185 116.519,22.190 116.509,22.191 116.468,22.195 116.023,22.218 116.002,22.218 115.997,22.218 115.977,22.219 101.744,22.219 101.724,22.219 101.652,22.223 101.611,22.227 101.550,22.237 101.509,22.245 101.450,22.261 101.410,22.273 101.353,22.295 101.315,22.312 101.260,22.339 101.224,22.360 101.172,22.393 101.138,22.417 101.090,22.455 101.059,22.482 101.014,22.526 100.987,22.556 100.951,22.598 100.651,22.958 100.624,22.989 100.617,22.997 100.588,23.026 100.286,23.321 100.256,23.349 100.248,23.356 100.216,23.383 99.885,23.645 99.852,23.670 99.844,23.676 99.810,23.699 99.453,23.926 99.418,23.947 99.409,23.952 99.373,23.971 98.995,24.160 98.958,24.178 98.948,24.182 98.910,24.197 98.515,24.346 98.476,24.360 98.466,24.363 98.427,24.375 98.018,24.482 97.978,24.492 97.968,24.494 97.927,24.501 97.510,24.566 97.469,24.572 97.459,24.573 97.418,24.576 96.973,24.599 96.952,24.600 96.947,24.600 96.927,24.600 83.162,24.600 83.143,24.600 83.074,24.604 83.035,24.608 82.977,24.616 82.938,24.624 82.881,24.638 82.844,24.650 82.788,24.670 82.752,24.685 82.699,24.710 82.664,24.728 82.614,24.758 82.581,24.780 82.534,24.815 82.504,24.840 82.460,24.880 82.432,24.907 82.393,24.951 82.368,24.981 82.333,25.029 82.311,25.061 82.281,25.112 82.262,25.146 82.237,25.200 82.222,25.236 82.202,25.291 82.191,25.329 82.176,25.386 82.169,25.424 82.160,25.483 82.156,25.522 82.153,25.590 82.152,25.610 82.152,74.789 82.152,74.808 82.152,74.813 82.151,74.832 82.131,75.247 82.129,75.286 82.128,75.295 82.123,75.333 82.067,75.723 82.060,75.761 82.058,75.771 82.050,75.808 81.956,76.191 81.946,76.228 81.943,76.237 81.932,76.274 81.801,76.646 81.788,76.682 81.784,76.691 81.769,76.726 81.604,77.084 81.587,77.118 81.582,77.127 81.564,77.160 81.365,77.501 81.345,77.533 81.339,77.541 81.318,77.573 81.087,77.893 81.064,77.923 81.058,77.931 81.033,77.960 80.773,78.256 80.747,78.285 80.740,78.291 80.713,78.318 80.425,78.588 80.397,78.614 80.389,78.620 80.359,78.644 80.047,78.885 80.016,78.908 80.009,78.913 79.977,78.934 79.643,79.144 79.610,79.164 79.602,79.168 79.568,79.186 79.196,79.373 79.179,79.381 79.174,79.383 79.157,79.391 63.866,86.161 63.862,86.163 63.022,84.255 62.978,84.167 62.926,84.084 62.866,84.006 62.798,83.935 62.724,83.871 62.644,83.814 62.559,83.765 62.469,83.725 62.376,83.694 62.280,83.673 62.183,83.660 62.085,83.658 61.987,83.665 61.890,83.681 61.796,83.707 61.704,83.742 58.500,85.151 58.413,85.195 58.330,85.248 58.252,85.308 58.181,85.375 58.116,85.449 58.060,85.529 58.011,85.615 57.971,85.704 57.940,85.797 57.918,85.893 57.906,85.990 57.903,86.089 57.910,86.186 57.927,86.283 57.953,86.378 57.988,86.470 61.209,93.792 61.253,93.880 61.305,93.963 61.366,94.041 61.433,94.112 61.507,94.176 61.587,94.233 61.672,94.282 61.762,94.322 61.855,94.353 61.951,94.374 62.048,94.387 62.146,94.389 62.244,94.382 62.341,94.366 62.436,94.340 62.527,94.305 65.731,92.895 65.741,92.890 66.934,95.583 63.733,97.000 63.646,97.044 63.563,97.097 63.485,97.157 63.414,97.225 63.350,97.299 63.293,97.379 63.245,97.464 63.205,97.554 63.174,97.647 63.153,97.743 63.141,97.840 63.138,97.939 63.145,98.036 63.162,98.133 63.188,98.228 63.224,98.319 66.462,105.634 66.506,105.722 66.559,105.805 66.619,105.882 66.687,105.954 66.761,106.018 66.841,106.074 66.927,106.123 67.016,106.162 67.109,106.193 67.205,106.215 67.303,106.227 67.401,106.229 67.499,106.222 67.595,106.205 67.690,106.179 67.781,106.144 70.982,104.727 70.982,104.727 74.507,112.689 74.515,112.707 74.546,112.768 74.565,112.803 74.597,112.852 74.619,112.884 74.656,112.931 74.681,112.961 74.722,113.003 74.750,113.030 74.795,113.069 74.826,113.093 74.874,113.127 74.907,113.148 74.958,113.177 74.993,113.194 75.047,113.218 75.084,113.232 75.139,113.251 75.177,113.261 75.235,113.274 75.273,113.281 75.332,113.288 75.371,113.291 75.430,113.293 75.469,113.292 75.528,113.287 75.567,113.283 75.625,113.273 75.663,113.264 75.720,113.248 75.757,113.236 75.821,113.211 75.839,113.204 92.245,105.941 92.264,105.933 92.269,105.931 92.288,105.923 92.709,105.762 92.748,105.748 92.758,105.745 92.798,105.733 93.233,105.617 93.253,105.612 93.258,105.611 93.279,105.607 94.659,105.315 95.383,108.739 95.408,108.834 95.442,108.926 95.485,109.014 95.536,109.098 95.596,109.176 95.662,109.248 95.736,109.313 95.815,109.370 95.900,109.420 95.989,109.461 96.082,109.493 96.178,109.515 96.275,109.528 96.373,109.532 96.471,109.526 96.568,109.511 104.395,107.855 104.490,107.830 104.582,107.796 104.670,107.753 104.753,107.702 104.832,107.642 104.904,107.576 104.969,107.502 105.026,107.423 105.075,107.338 105.116,107.249 105.148,107.156 105.171,107.060 105.184,106.963 105.188,106.865 105.182,106.767 105.166,106.670 104.442,103.246 110.745,101.913 110.766,101.909 110.771,101.908 110.791,101.905 111.236,101.834 111.278,101.829 111.288,101.828 111.329,101.825 111.779,101.801 111.800,101.800 111.805,101.800 111.826,101.800 115.740,101.800 115.740,105.300 115.745,105.398 115.759,105.495 115.783,105.590 115.816,105.683 115.858,105.771 115.909,105.856 115.967,105.934 116.033,106.007 116.106,106.073 116.184,106.131 116.269,106.182 116.357,106.224 116.450,106.257 116.545,106.281 116.642,106.295 116.740,106.300 124.740,106.300 124.838,106.295 124.935,106.281 125.030,106.257 125.123,106.224 125.211,106.182 125.296,106.131 125.374,106.073 125.447,106.007 125.513,105.934 125.571,105.856 125.622,105.771 125.664,105.683 125.697,105.590 125.721,105.495 125.735,105.398 125.740,105.300 125.740,101.800 129.768,101.800 129.787,101.800 129.856,101.796 129.895,101.792 129.953,101.784 129.992,101.776 130.049,101.762 130.086,101.750 130.142,101.730 130.178,101.715 130.231,101.690 130.266,101.672 130.316,101.642 130.349,101.620 130.396,101.585 130.426,101.560 130.470,101.520 130.498,101.493 130.537,101.449 130.562,101.419 130.597,101.371 130.619,101.339 130.649,101.288 130.668,101.254 130.693,101.200 130.708,101.164 130.728,101.109 130.739,101.071 130.754,101.014 130.761,100.976 130.770,100.917 130.774,100.878 130.777,100.810 130.777,100.790 130.777,83.935 130.778,83.916 130.778,83.911 130.779,83.892 130.799,83.477 130.801,83.439 130.802,83.429 130.807,83.391 130.863,83.001 130.870,82.963 130.872,82.954 130.880,82.916 130.974,82.534 130.984,82.497 130.986,82.488 130.998,82.451 131.128,82.079 131.142,82.043 131.145,82.034 131.161,81.999 131.326,81.641 131.343,81.607 131.347,81.598 131.366,81.565 131.565,81.225 131.585,81.192 131.590,81.184 131.612,81.152 131.842,80.833 131.865,80.802 131.871,80.795 131.896,80.765 132.156,80.469 132.182,80.441 132.189,80.434 132.216,80.407 132.503,80.137 132.532,80.112 132.539,80.106 132.569,80.081 132.881,79.841 132.912,79.818 132.920,79.812 132.952,79.791 133.285,79.581 133.318,79.562 133.327,79.557 133.361,79.539 133.713,79.362 133.747,79.346 133.756,79.342 133.792,79.327 134.159,79.185 134.195,79.172 134.204,79.169 134.241,79.158 134.620,79.052 134.658,79.042 134.667,79.040 134.705,79.032 135.092,78.963 135.130,78.957 135.140,78.956 135.178,78.952 135.571,78.920 135.609,78.918 135.619,78.918 135.657,78.917 136.051,78.923 136.089,78.925 136.099,78.925 136.137,78.929 136.529,78.973 136.567,78.978 136.576,78.979 136.614,78.986 137.000,79.067 137.037,79.076 137.046,79.079 137.083,79.089 137.459,79.207 137.496,79.219 137.504,79.223 137.540,79.237 137.903,79.390 137.938,79.406 137.947,79.410 137.981,79.428 138.327,79.615 138.361,79.634 138.369,79.639 138.401,79.660 138.728,79.880 138.760,79.902 138.767,79.908 138.798,79.931 139.045,80.135 139.061,80.147 139.116,80.188 139.148,80.210 139.199,80.240 139.234,80.259 139.287,80.284 139.323,80.299 139.379,80.319 139.416,80.330 139.473,80.345 139.512,80.352 139.570,80.361 139.609,80.365 139.678,80.368 139.698,80.369 153.343,80.369 153.362,80.369 153.367,80.369 153.386,80.370 153.796,80.389 153.834,80.392 153.844,80.393 153.881,80.397 154.267,80.453 154.305,80.459 154.314,80.461 154.351,80.469 154.730,80.561 154.767,80.571 154.776,80.573 154.812,80.585 155.180,80.712 155.216,80.726 155.225,80.729 155.260,80.744 155.614,80.906 155.649,80.922 155.657,80.927 155.690,80.945 156.028,81.140 156.060,81.159 156.068,81.164 156.100,81.186 156.418,81.412 156.448,81.434 156.455,81.440 156.485,81.464 156.780,81.720 156.808,81.745 156.815,81.752 156.841,81.778 157.111,82.060 157.136,82.088 157.142,82.096 157.167,82.125 157.408,82.431 157.431,82.461 157.436,82.469 157.458,82.501 157.669,82.828 157.688,82.861 157.693,82.869 157.711,82.902 157.890,83.249 157.907,83.283 157.911,83.291 157.926,83.326 158.071,83.688 158.085,83.724 158.088,83.733 158.099,83.769 158.210,84.143 158.219,84.179 158.222,84.188 158.230,84.226 158.247,84.312 158.251,84.331 158.267,84.398 158.279,84.436 158.298,84.492 158.313,84.528 158.338,84.582 158.357,84.616 158.387,84.667 158.409,84.700 158.444,84.747 158.468,84.778 158.508,84.822 158.536,84.850 158.579,84.890 158.610,84.915 158.657,84.950 158.690,84.972 158.740,85.002 158.775,85.021 158.828,85.046 158.865,85.061 158.920,85.081 158.958,85.093 159.015,85.107 159.054,85.115 159.112,85.124 159.152,85.127 159.220,85.131 159.240,85.131 172.840,85.131 172.840,88.631 172.845,88.729 172.859,88.826 172.883,88.922 172.916,89.014 172.958,89.103 173.009,89.187 173.067,89.266 173.133,89.338 173.206,89.404 173.284,89.463 173.369,89.513 173.457,89.555 173.550,89.588 173.645,89.612 173.742,89.626 173.840,89.631 181.840,89.631 181.938,89.626 182.035,89.612 182.130,89.588 182.223,89.555 182.311,89.513 182.396,89.463 182.474,89.404 182.547,89.338 182.613,89.266 182.671,89.187 182.722,89.103 182.764,89.014 182.797,88.922 182.821,88.826 182.835,88.729 182.840,88.631 182.840,85.131 196.443,85.131 196.462,85.131 196.531,85.127 196.570,85.124 196.628,85.115 196.667,85.107 196.724,85.093 196.761,85.082 196.817,85.062 196.853,85.047 196.906,85.022 196.941,85.003 196.991,84.973 197.024,84.951 197.071,84.916 197.101,84.891 197.145,84.852 197.173,84.824 197.212,84.780 197.237,84.750 197.272,84.703 197.294,84.670 197.324,84.619 197.343,84.585 197.368,84.532 197.383,84.495 197.403,84.440 197.414,84.402 197.429,84.345 197.436,84.307 197.445,84.249 197.449,84.210 197.452,84.141 197.452,84.121 197.452,61.050 200.952,61.050 201.051,61.045 201.148,61.031 201.243,61.007 201.335,60.974 201.424,60.932 201.508,60.881 201.587,60.823 201.660,60.757 201.726,60.684 201.784,60.606 201.834,60.521 201.876,60.433 201.909,60.340 201.933,60.245 201.948,60.148 201.952,60.050 201.952,52.050 201.948,51.952 201.933,51.855 201.909,51.760 201.876,51.667 201.834,51.579 201.784,51.494 201.726,51.416 201.660,51.343 201.587,51.277 201.508,51.219 201.424,51.168 201.335,51.126 201.243,51.093 201.148,51.069 201.051,51.055 200.952,51.050 197.452,51.050 197.452,27.991 197.452,27.971 197.449,27.903 197.445,27.864 197.436,27.806 197.429,27.767 197.414,27.710 197.403,27.672 197.383,27.617 197.368,27.581 197.343,27.528 197.324,27.493 197.294,27.443 197.272,27.410 197.237,27.363 197.212,27.332 197.173,27.289 197.145,27.261 197.101,27.221 197.071,27.197 197.024,27.161 196.991,27.140 196.941,27.109 196.906,27.091 196.853,27.066 196.817,27.051 196.761,27.031 196.724,27.020 196.667,27.005 196.628,26.998 196.570,26.989 196.531,26.985 196.462,26.982 196.443,26.981 182.840,26.981 182.840,23.481 182.835,23.383 182.821,23.286 182.797,23.191 182.764,23.099 182.722,23.010 182.671,22.926 182.613,22.847 182.547,22.774 182.474,22.708 182.396,22.650 182.311,22.599 182.223,22.557 182.130,22.524 182.035,22.500 181.938,22.486 181.840,22.481 173.840,22.481 173.742,22.486 173.645,22.500 173.550,22.524 173.457,22.557 173.369,22.599 173.284,22.650 173.206,22.708 173.133,22.774 173.067,22.847 173.009,22.926 172.958,23.010 172.916,23.099 172.883,23.191 172.859,23.286 172.845,23.383 172.840,23.481 172.840,26.981 164.362,26.981 164.343,26.981 164.338,26.981 164.319,26.980 163.909,26.961 163.871,26.958 163.861,26.957 163.824,26.953 163.438,26.897 163.400,26.891 163.391,26.889 163.354,26.881 162.975,26.789 162.938,26.779 162.929,26.777 162.893,26.765 162.525,26.638 162.489,26.624 162.480,26.621 162.445,26.606 162.091,26.444 162.056,26.428 162.048,26.423 162.015,26.405 161.677,26.210 161.645,26.191 161.637,26.186 161.605,26.164 161.287,25.938 161.257,25.916 161.250,25.910 161.220,25.886 160.925,25.630 160.897,25.605 160.890,25.598 160.864,25.572 160.594,25.290 160.569,25.262 160.563,25.254 160.538,25.225 160.297,24.919 160.274,24.889 160.269,24.881 160.247,24.849 160.036,24.522 160.017,24.489 160.012,24.481 159.994,24.448 159.815,24.101 159.798,24.067 159.794,24.059 159.779,24.024 159.634,23.662 159.620,23.626 159.617,23.617 159.606,23.581 159.495,23.207 159.486,23.171 159.483,23.162 159.475,23.124 159.458,23.038 159.454,23.019 159.438,22.952 159.426,22.914 159.407,22.858 159.392,22.822 159.367,22.768 159.348,22.734 159.318,22.683 159.296,22.650 159.261,22.603 159.237,22.572 159.197,22.528 159.169,22.500 159.126,22.460 159.095,22.435 159.048,22.400 159.015,22.378 158.965,22.348 158.930,22.329 158.877,22.304 158.840,22.289 158.785,22.269 158.747,22.257 158.690,22.243 158.651,22.235 158.593,22.226 158.553,22.223 158.485,22.219 158.465,22.219 144.578,22.219 144.558,22.218 144.553,22.218 144.532,22.218 144.087,22.195 144.046,22.191 144.036,22.190 143.995,22.185 143.578,22.120 143.537,22.113 143.527,22.111 143.487,22.101 143.078,21.993 143.039,21.982 143.029,21.979 142.990,21.965 142.595,21.816 142.557,21.801 142.547,21.796 142.510,21.779 142.132,21.590 142.096,21.571 142.087,21.566 142.052,21.544 141.695,21.317 141.661,21.294 141.653,21.288 141.620,21.264 141.289,21.001 141.257,20.975 141.249,20.968 141.219,20.940 140.917,20.645 140.888,20.616 140.881,20.608 140.854,20.577 140.553,20.216 140.518,20.175 140.490,20.144 140.446,20.101 140.415,20.074 140.367,20.036 140.333,20.012 140.281,19.978 140.245,19.958 140.190,19.931 140.152,19.914 140.095,19.892 140.055,19.880 139.996,19.864 139.955,19.856 139.894,19.846 139.853,19.842 139.781,19.838 139.761,19.837 135.240,19.837 135.240,16.337 135.235,16.239 135.221,16.142 135.197,16.047 135.164,15.955 135.122,15.866 135.071,15.782 135.013,15.703 134.947,15.630 134.874,15.564 134.796,15.506 134.711,15.456 134.623,15.414 134.530,15.381 134.435,15.357 134.338,15.342 134.240,15.337 126.240,15.337 126.142,15.342 126.045,15.357" fill="none" stroke="#059669" stroke-width="0.25"/><text x="4" y="140.3" font-size="3" fill="#059669" font-family="sans-serif">PLATE</text><polygon points="102.581,20.587 102.545,20.620 102.513,20.657 102.485,20.696 102.460,20.738 102.440,20.783 102.424,20.829 102.412,20.876 102.406,20.925 102.404,20.973 102.407,21.022 102.414,21.070 102.426,21.117 102.443,21.163 102.464,21.207 102.490,21.249 102.519,21.288 102.552,21.324 102.588,21.357 102.627,21.385 102.669,21.410 102.713,21.431 102.759,21.447 102.807,21.459 102.855,21.466 102.904,21.469 115.967,21.469 115.985,21.468 115.986,21.468 115.994,21.468 116.411,21.447 116.463,21.441 116.844,21.382 116.895,21.371 117.268,21.273 117.317,21.257 117.678,21.121 117.726,21.100 118.071,20.927 118.116,20.902 118.442,20.694 118.484,20.665 118.786,20.425 118.825,20.391 119.101,20.121 119.136,20.083 119.425,19.737 119.459,19.696 119.463,19.691 119.484,19.667 119.488,19.663 119.512,19.637 119.516,19.633 119.538,19.610 119.543,19.605 119.583,19.567 119.587,19.562 119.611,19.540 119.616,19.536 119.642,19.513 119.647,19.509 119.671,19.488 119.676,19.484 119.720,19.450 119.725,19.446 119.751,19.426 119.756,19.423 119.784,19.402 119.789,19.399 119.816,19.381 119.822,19.377 119.868,19.348 119.874,19.344 119.901,19.328 119.907,19.324 119.937,19.307 119.943,19.304 119.971,19.289 119.977,19.286 120.026,19.261 120.032,19.258 120.061,19.245 120.067,19.242 120.099,19.228 120.105,19.226 120.135,19.214 120.141,19.211 120.185,19.195 120.229,19.175 120.272,19.152 120.312,19.124 120.349,19.093 120.383,19.058 120.413,19.020 120.440,18.979 120.462,18.936 120.480,18.891 120.494,18.844 120.503,18.796 120.508,18.748 120.507,18.699 120.502,18.650 120.492,18.603 120.478,18.556 120.459,18.511 120.436,18.469 120.409,18.428 120.378,18.391 120.344,18.356 120.306,18.325 120.054,18.138 120.051,18.137 120.047,18.134 120.040,18.128 120.025,18.115 120.018,18.109 120.014,18.106 120.012,18.104 119.743,17.860 119.741,17.858 119.737,17.855 119.731,17.849 119.716,17.834 119.710,17.828 119.707,17.824 119.705,17.822 119.461,17.553 119.459,17.551 119.456,17.547 119.450,17.540 119.437,17.525 119.431,17.518 119.428,17.514 119.427,17.511 119.211,17.220 119.209,17.218 119.206,17.214 119.201,17.206 119.190,17.189 119.185,17.182 119.182,17.177 119.180,17.175 118.994,16.864 118.993,16.861 118.990,16.857 118.986,16.849 118.976,16.831 118.972,16.823 118.970,16.819 118.968,16.816 118.814,16.488 118.812,16.485 118.810,16.481 118.807,16.473 118.799,16.454 118.795,16.445 118.794,16.441 118.793,16.438 118.671,16.097 118.670,16.094 118.668,16.089 118.665,16.080 118.659,16.061 118.657,16.052 118.656,16.047 118.655,16.044 118.567,15.693 118.566,15.690 118.565,15.685 118.563,15.676 118.559,15.656 118.557,15.647 118.557,15.642 118.556,15.639 118.503,15.281 118.502,15.278 118.502,15.273 118.501,15.264 118.499,15.244 118.498,15.235 118.498,15.230 118.498,15.227 118.478,14.835 118.478,14.831 118.478,14.827 118.478,14.813 118.478,14.808 118.478,14.807 118.477,8.372 118.477,8.366 118.477,8.338 118.477,8.326 118.476,8.297 118.476,8.291 118.474,8.259 118.473,8.247 118.469,8.192 118.467,8.168 118.460,8.111 118.458,8.098 118.457,8.089 118.455,8.076 118.445,8.022 118.441,7.998 118.428,7.942 118.425,7.930 118.423,7.920 118.420,7.908 118.405,7.855 118.398,7.832 118.380,7.777 118.376,7.765 118.372,7.756 118.368,7.745 118.348,7.693 118.339,7.671 118.316,7.618 118.310,7.607 118.306,7.598 118.301,7.587 118.276,7.537 118.265,7.516 118.236,7.466 118.230,7.455 118.225,7.447 118.219,7.436 118.189,7.389 118.175,7.369 118.142,7.322 118.135,7.312 118.129,7.304 118.122,7.295 118.088,7.251 118.072,7.232 118.035,7.189 118.026,7.179 118.020,7.172 118.012,7.163 117.973,7.123 117.956,7.106 117.915,7.066 117.905,7.057 117.898,7.051 117.889,7.043 117.847,7.007 117.828,6.991 117.783,6.956 117.773,6.948 117.765,6.942 117.755,6.935 117.710,6.903 117.690,6.890 117.641,6.859 117.631,6.852 117.622,6.847 117.612,6.841 117.563,6.814 117.542,6.803 117.491,6.777 117.479,6.771 117.471,6.767 117.460,6.762 117.409,6.739 117.387,6.730 117.333,6.709 117.321,6.705 117.312,6.702 117.300,6.698 117.248,6.680 117.225,6.673 117.169,6.658 117.157,6.655 117.148,6.652 117.136,6.650 117.082,6.637 117.058,6.633 117.001,6.623 116.989,6.621 116.979,6.619 116.967,6.618 116.912,6.611 116.888,6.609 116.831,6.604 116.818,6.604 116.786,6.602 116.780,6.602 116.753,6.601 116.740,6.600 116.712,6.600 116.705,6.600 105.750,6.600 105.743,6.600 105.716,6.600 105.704,6.601 105.675,6.602 105.669,6.602 105.637,6.604 105.625,6.604 105.569,6.608 105.545,6.611 105.488,6.618 105.476,6.619 105.466,6.621 105.454,6.623 105.399,6.632 105.376,6.637 105.319,6.650 105.307,6.652 105.298,6.655 105.286,6.658 105.232,6.673 105.209,6.680 105.155,6.698 105.143,6.702 105.134,6.705 105.122,6.709 105.070,6.729 105.048,6.739 104.996,6.762 104.984,6.767 104.975,6.771 104.964,6.777 104.915,6.802 104.893,6.813 104.843,6.841 104.832,6.848 104.824,6.853 104.814,6.859 104.767,6.889 104.747,6.902 104.700,6.935 104.690,6.943 104.682,6.948 104.672,6.956 104.628,6.990 104.610,7.005 104.566,7.043 104.557,7.051 104.549,7.058 104.540,7.066 104.500,7.104 104.483,7.121 104.443,7.163 104.435,7.172 104.428,7.179 104.420,7.188 104.384,7.230 104.369,7.249 104.333,7.294 104.326,7.304 104.320,7.312 104.313,7.322 104.281,7.367 104.267,7.388 104.237,7.436 104.230,7.447 104.225,7.455 104.219,7.466 104.191,7.514 104.180,7.535 104.154,7.587 104.149,7.598 104.145,7.607 104.139,7.618 104.117,7.669 104.108,7.691 104.087,7.745 104.083,7.756 104.079,7.765 104.075,7.777 104.058,7.830 104.051,7.853 104.035,7.908 104.032,7.921 104.030,7.930 104.027,7.942 104.015,7.996 104.010,8.020 104.000,8.076 103.998,8.089 103.997,8.098 103.995,8.110 103.988,8.165 103.986,8.189 103.982,8.247 103.981,8.260 103.979,8.291 103.979,8.297 103.978,8.325 103.978,8.337 103.978,8.366 103.977,8.372 103.977,17.406 103.977,17.411 103.977,17.415 103.977,17.430 103.977,17.434 103.977,17.436 103.956,17.848 103.956,17.851 103.955,17.856 103.954,17.866 103.952,17.887 103.951,17.896 103.950,17.901 103.950,17.904 103.892,18.277 103.892,18.281 103.891,18.286 103.889,18.295 103.885,18.316 103.883,18.325 103.882,18.330 103.881,18.333 103.785,18.698 103.784,18.701 103.783,18.706 103.780,18.715 103.774,18.735 103.771,18.745 103.769,18.749 103.768,18.752 103.636,19.106 103.635,19.109 103.633,19.114 103.629,19.122 103.621,19.142 103.617,19.151 103.615,19.155 103.613,19.158 103.446,19.496 103.444,19.499 103.442,19.504 103.437,19.512 103.427,19.530 103.422,19.539 103.420,19.543 103.418,19.546 103.217,19.865 103.215,19.868 103.212,19.872 103.207,19.880 103.195,19.897 103.189,19.905 103.186,19.909 103.184,19.911 102.951,20.209 102.949,20.211 102.946,20.215 102.940,20.222 102.926,20.238 102.919,20.245 102.916,20.249 102.914,20.251 102.652,20.523 102.650,20.526 102.646,20.529 102.639,20.536 102.624,20.550 102.617,20.557 102.613,20.560 102.610,20.562 102.581,20.587" fill="none" stroke="#d97706" stroke-width="0.25"/><polygon points="58.529,36.923 58.538,36.924 58.543,36.925 58.546,36.925 58.904,36.979 58.907,36.979 58.912,36.980 58.921,36.981 58.941,36.985 58.950,36.987 58.955,36.988 58.958,36.989 59.309,37.077 59.312,37.078 59.317,37.079 59.326,37.082 59.345,37.088 59.354,37.090 59.359,37.092 59.362,37.093 59.703,37.215 59.706,37.216 59.710,37.218 59.719,37.221 59.738,37.229 59.746,37.233 59.750,37.235 59.753,37.236 60.081,37.391 60.084,37.392 60.088,37.394 60.096,37.399 60.114,37.408 60.122,37.413 60.126,37.415 60.129,37.417 60.440,37.603 60.442,37.605 60.447,37.607 60.454,37.612 60.471,37.623 60.479,37.629 60.483,37.631 60.485,37.633 60.776,37.849 60.779,37.851 60.783,37.854 60.790,37.860 60.805,37.872 60.812,37.878 60.816,37.882 60.818,37.884 61.087,38.127 61.089,38.129 61.093,38.133 61.099,38.139 61.114,38.153 61.120,38.160 61.123,38.163 61.125,38.166 61.369,38.434 61.371,38.436 61.374,38.440 61.380,38.447 61.393,38.463 61.399,38.470 61.402,38.474 61.403,38.476 61.619,38.767 61.621,38.770 61.624,38.774 61.629,38.781 61.640,38.798 61.645,38.806 61.648,38.810 61.650,38.813 61.836,39.124 61.837,39.126 61.840,39.130 61.844,39.138 61.854,39.156 61.858,39.165 61.860,39.169 61.862,39.172 62.016,39.499 62.018,39.502 62.020,39.506 62.023,39.515 62.031,39.534 62.035,39.542 62.036,39.547 62.037,39.550 62.159,39.891 62.160,39.894 62.162,39.898 62.165,39.907 62.171,39.926 62.173,39.935 62.174,39.940 62.175,39.943 62.263,40.295 62.264,40.298 62.265,40.302 62.267,40.311 62.271,40.331 62.273,40.340 62.273,40.345 62.274,40.348 62.327,40.707 62.328,40.710 62.328,40.714 62.329,40.724 62.331,40.744 62.332,40.753 62.332,40.758 62.332,40.761 62.352,41.152 62.352,41.157 62.352,41.160 62.352,41.175 62.352,41.179 62.352,41.181 62.353,57.128 62.353,57.134 62.353,57.162 62.353,57.174 62.354,57.203 62.354,57.209 62.356,57.241 62.357,57.253 62.361,57.308 62.363,57.332 62.370,57.389 62.372,57.402 62.373,57.411 62.375,57.424 62.385,57.478 62.389,57.502 62.402,57.558 62.405,57.570 62.407,57.580 62.410,57.592 62.425,57.645 62.432,57.668 62.450,57.723 62.454,57.735 62.458,57.744 62.462,57.755 62.482,57.807 62.491,57.829 62.514,57.882 62.520,57.893 62.524,57.902 62.529,57.913 62.554,57.963 62.565,57.984 62.594,58.034 62.600,58.045 62.605,58.053 62.611,58.064 62.641,58.111 62.655,58.131 62.688,58.178 62.695,58.188 62.701,58.196 62.708,58.205 62.742,58.249 62.758,58.268 62.795,58.311 62.804,58.321 62.810,58.328 62.818,58.337 62.857,58.377 62.874,58.394 62.915,58.434 62.925,58.443 62.932,58.449 62.941,58.457 62.983,58.493 63.002,58.509 63.047,58.544 63.057,58.552 63.065,58.558 63.075,58.565 63.120,58.597 63.140,58.610 63.189,58.641 63.199,58.648 63.208,58.653 63.218,58.659 63.267,58.686 63.288,58.697 63.339,58.723 63.351,58.729 63.359,58.733 63.370,58.738 63.421,58.761 63.443,58.770 63.497,58.791 63.509,58.795 63.518,58.798 63.530,58.802 63.582,58.820 63.605,58.827 63.661,58.842 63.673,58.845 63.682,58.848 63.694,58.850 63.748,58.863 63.772,58.867 63.829,58.877 63.841,58.879 63.851,58.881 63.863,58.882 63.918,58.889 63.942,58.891 63.999,58.896 64.012,58.896 64.044,58.898 64.050,58.898 64.077,58.899 64.090,58.900 64.118,58.900 64.125,58.900 77.118,58.900 77.123,58.900 77.126,58.900 77.140,58.900 77.145,58.901 77.146,58.901 77.542,58.920 77.545,58.920 77.550,58.920 77.559,58.921 77.579,58.923 77.588,58.924 77.593,58.925 77.596,58.925 77.954,58.979 77.957,58.979 77.962,58.980 77.971,58.981 77.991,58.985 78.000,58.987 78.005,58.988 78.008,58.989 78.359,59.077 78.362,59.078 78.367,59.079 78.376,59.082 78.395,59.088 78.404,59.090 78.409,59.092 78.412,59.093 78.753,59.215 78.756,59.216 78.760,59.218 78.769,59.221 78.788,59.229 78.796,59.233 78.800,59.235 78.803,59.236 79.131,59.391 79.134,59.392 79.138,59.394 79.146,59.399 79.164,59.408 79.172,59.413 79.176,59.415 79.179,59.417 79.490,59.603 79.492,59.605 79.497,59.607 79.504,59.612 79.521,59.623 79.529,59.629 79.533,59.631 79.535,59.633 79.826,59.849 79.829,59.851 79.833,59.854 79.840,59.860 79.855,59.872 79.862,59.878 79.866,59.882 79.868,59.884 80.137,60.127 80.139,60.129 80.143,60.133 80.149,60.139 80.164,60.153 80.170,60.160 80.173,60.163 80.175,60.166 80.419,60.434 80.421,60.436 80.424,60.440 80.430,60.447 80.443,60.463 80.449,60.470 80.452,60.474 80.453,60.476 80.501,60.540 80.533,60.579 80.568,60.614 80.607,60.646 80.649,60.673 80.693,60.697 80.740,60.715 80.788,60.729 80.837,60.738 80.887,60.742 80.937,60.741 80.987,60.735 81.035,60.725 81.083,60.709 81.129,60.689 81.172,60.664 81.213,60.635 81.250,60.602 81.285,60.565 81.315,60.525 81.341,60.483 81.363,60.438 81.380,60.391 81.393,60.342 81.400,60.293 81.402,60.243 81.402,25.611 81.403,25.608 81.403,25.593 81.403,25.590 81.403,25.573 81.403,25.570 81.404,25.555 81.404,25.552 81.407,25.488 81.407,25.482 81.410,25.451 81.410,25.445 81.414,25.412 81.414,25.406 81.418,25.376 81.419,25.369 81.427,25.317 81.427,25.311 81.433,25.281 81.434,25.275 81.440,25.243 81.442,25.237 81.448,25.207 81.450,25.201 81.463,25.150 81.464,25.144 81.472,25.114 81.474,25.108 81.484,25.076 81.485,25.071 81.495,25.041 81.497,25.036 81.515,24.986 81.517,24.980 81.528,24.952 81.530,24.946 81.543,24.915 81.545,24.910 81.558,24.882 81.560,24.876 81.583,24.828 81.586,24.823 81.599,24.796 81.602,24.790 81.618,24.761 81.621,24.756 81.636,24.729 81.639,24.724 81.666,24.678 81.669,24.673 81.686,24.647 81.689,24.642 81.707,24.615 81.711,24.609 81.729,24.584 81.732,24.579 81.764,24.537 81.767,24.532 81.786,24.508 81.790,24.503 81.811,24.478 81.815,24.473 81.835,24.450 81.839,24.445 81.874,24.406 81.879,24.402 81.900,24.379 81.904,24.375 81.927,24.352 81.932,24.347 81.954,24.326 81.959,24.322 81.998,24.287 82.002,24.282 82.025,24.262 82.030,24.258 82.056,24.237 82.061,24.234 82.085,24.215 82.090,24.211 82.132,24.180 82.137,24.176 82.162,24.158 82.167,24.155 82.195,24.137 82.200,24.133 82.226,24.117 82.231,24.114 82.276,24.086 82.281,24.083 82.308,24.068 82.313,24.065 82.343,24.050 82.348,24.047 82.375,24.033 82.381,24.030 82.429,24.008 82.434,24.005 82.462,23.993 82.468,23.990 82.498,23.978 82.504,23.975 82.533,23.964 82.539,23.962 82.588,23.945 82.594,23.943 82.623,23.933 82.629,23.931 82.661,23.921 82.667,23.920 82.696,23.912 82.702,23.910 82.753,23.897 82.759,23.896 82.789,23.889 82.795,23.888 82.828,23.881 82.834,23.880 82.864,23.875 82.870,23.874 82.922,23.866 82.928,23.865 82.958,23.862 82.965,23.861 82.998,23.858 83.004,23.857 83.034,23.855 83.040,23.855 83.104,23.851 83.107,23.851 83.123,23.851 83.126,23.851 83.142,23.850 83.145,23.850 83.161,23.850 83.164,23.850 85.740,23.850 85.790,23.848 85.839,23.840 85.887,23.828 85.934,23.811 85.979,23.789 86.022,23.763 86.061,23.733 86.098,23.699 86.131,23.662 86.160,23.621 86.185,23.578 86.205,23.533 86.221,23.485 86.232,23.437 86.239,23.387 86.240,23.337 86.236,23.288 86.227,23.239 86.214,23.191 86.196,23.144 86.173,23.100 86.146,23.058 86.115,23.019 86.080,22.983 86.042,22.951 86.036,22.947 86.021,22.935 86.014,22.929 86.010,22.926 86.008,22.924 85.743,22.695 85.740,22.693 85.737,22.690 85.730,22.684 85.716,22.670 85.710,22.664 85.706,22.660 85.704,22.658 85.462,22.404 85.460,22.402 85.457,22.399 85.451,22.392 85.438,22.377 85.432,22.371 85.429,22.367 85.427,22.365 85.210,22.089 85.208,22.086 85.205,22.083 85.200,22.075 85.189,22.060 85.183,22.052 85.181,22.048 85.179,22.046 84.989,21.751 84.988,21.748 84.985,21.744 84.980,21.736 84.971,21.719 84.966,21.712 84.964,21.707 84.963,21.705 84.801,21.393 84.800,21.390 84.798,21.386 84.794,21.378 84.786,21.360 84.782,21.352 84.781,21.348 84.779,21.345 84.649,21.019 84.647,21.016 84.646,21.012 84.643,21.004 84.636,20.985 84.634,20.977 84.632,20.972 84.631,20.969 84.532,20.633 84.531,20.630 84.530,20.625 84.528,20.616 84.523,20.597 84.521,20.589 84.520,20.584 84.519,20.581 84.483,20.392 84.481,20.380 84.478,20.364 84.477,20.352 84.489,20.351 84.505,20.350 84.517,20.350 98.340,20.350 98.365,20.349 98.475,20.344 98.524,20.339 98.621,20.325 98.669,20.315 98.764,20.291 98.811,20.277 98.903,20.244 98.949,20.225 99.037,20.183 99.081,20.160 99.165,20.110 99.206,20.083 99.284,20.024 99.322,19.993 99.395,19.927 99.430,19.892 99.496,19.820 99.527,19.782 99.585,19.703 99.612,19.662 99.663,19.578 99.686,19.535 99.728,19.446 99.747,19.401 99.780,19.309 99.794,19.262 99.818,19.166 99.827,19.118 99.842,19.021 99.846,18.972 99.852,18.862 99.852,18.838 99.852,8.112 99.852,8.088 99.846,7.978 99.842,7.929 99.827,7.832 99.818,7.784 99.794,7.688 99.780,7.641 99.747,7.549 99.728,7.504 99.686,7.415 99.663,7.372 99.612,7.288 99.585,7.247 99.527,7.168 99.496,7.130 99.430,7.058 99.395,7.023 99.322,6.957 99.284,6.926 99.206,6.867 99.165,6.840 99.081,6.790 99.037,6.767 98.949,6.725 98.903,6.706 98.811,6.673 98.764,6.659 98.669,6.635 98.621,6.625 98.524,6.611 98.475,6.606 98.365,6.601 98.340,6.600 62.603,6.600 62.577,6.601 62.456,6.607 62.429,6.609 62.365,6.616 62.352,6.617 62.340,6.616 62.287,6.611 62.282,6.610 62.264,6.609 62.206,6.604 62.193,6.604 62.161,6.602 62.155,6.602 62.128,6.601 62.115,6.600 62.087,6.600 62.080,6.600 43.625,6.600 43.618,6.600 43.591,6.600 43.579,6.601 43.550,6.602 43.544,6.602 43.512,6.604 43.500,6.604 43.444,6.608 43.420,6.611 43.363,6.618 43.351,6.619 43.341,6.621 43.329,6.623 43.274,6.632 43.251,6.637 43.194,6.650 43.182,6.652 43.173,6.655 43.161,6.658 43.107,6.673 43.084,6.680 43.030,6.698 43.018,6.702 43.009,6.705 42.997,6.709 42.945,6.729 42.923,6.739 42.871,6.762 42.859,6.767 42.850,6.771 42.839,6.777 42.790,6.802 42.768,6.813 42.718,6.841 42.707,6.848 42.699,6.853 42.689,6.859 42.642,6.889 42.622,6.902 42.575,6.935 42.565,6.943 42.557,6.948 42.547,6.956 42.503,6.990 42.485,7.005 42.441,7.043 42.432,7.051 42.424,7.058 42.415,7.066 42.375,7.104 42.358,7.121 42.318,7.163 42.310,7.172 42.303,7.179 42.295,7.188 42.259,7.230 42.244,7.249 42.208,7.294 42.201,7.304 42.195,7.312 42.188,7.322 42.156,7.367 42.142,7.388 42.112,7.436 42.105,7.447 42.100,7.455 42.094,7.466 42.066,7.514 42.055,7.535 42.029,7.587 42.024,7.598 42.020,7.607 42.014,7.618 41.992,7.669 41.983,7.691 41.962,7.745 41.958,7.756 41.954,7.765 41.950,7.777 41.933,7.830 41.926,7.853 41.910,7.908 41.907,7.921 41.905,7.930 41.902,7.942 41.890,7.996 41.885,8.020 41.875,8.076 41.873,8.089 41.872,8.098 41.870,8.110 41.863,8.165 41.861,8.189 41.857,8.247 41.856,8.260 41.854,8.291 41.854,8.297 41.853,8.325 41.853,8.337 41.853,8.366 41.852,8.372 41.852,35.128 41.853,35.134 41.853,35.162 41.853,35.174 41.854,35.203 41.854,35.209 41.856,35.241 41.857,35.253 41.861,35.308 41.863,35.332 41.870,35.389 41.872,35.402 41.873,35.411 41.875,35.424 41.885,35.478 41.889,35.502 41.902,35.558 41.905,35.570 41.907,35.580 41.910,35.592 41.925,35.645 41.932,35.668 41.950,35.723 41.954,35.735 41.958,35.744 41.962,35.755 41.982,35.807 41.991,35.829 42.014,35.882 42.020,35.893 42.024,35.902 42.029,35.913 42.054,35.963 42.065,35.984 42.094,36.034 42.100,36.045 42.105,36.053 42.111,36.064 42.141,36.111 42.155,36.131 42.188,36.178 42.195,36.188 42.201,36.196 42.208,36.205 42.242,36.249 42.258,36.268 42.295,36.311 42.304,36.321 42.310,36.328 42.318,36.337 42.357,36.377 42.374,36.394 42.415,36.434 42.425,36.443 42.432,36.449 42.441,36.457 42.483,36.493 42.502,36.509 42.547,36.544 42.557,36.552 42.565,36.558 42.575,36.565 42.620,36.597 42.640,36.610 42.689,36.641 42.699,36.648 42.708,36.653 42.718,36.659 42.767,36.686 42.788,36.697 42.839,36.723 42.851,36.729 42.859,36.733 42.870,36.738 42.921,36.761 42.943,36.770 42.997,36.791 43.009,36.795 43.018,36.798 43.030,36.802 43.082,36.820 43.105,36.827 43.161,36.842 43.173,36.845 43.182,36.848 43.194,36.850 43.248,36.863 43.272,36.867 43.329,36.877 43.341,36.879 43.351,36.881 43.363,36.882 43.418,36.889 43.442,36.891 43.499,36.896 43.512,36.896 43.544,36.898 43.550,36.898 43.577,36.899 43.590,36.900 43.618,36.900 43.625,36.900 58.068,36.900 58.073,36.900 58.076,36.900 58.090,36.900 58.095,36.901 58.096,36.901 58.492,36.920 58.495,36.920 58.500,36.920 58.509,36.921 58.529,36.923" fill="none" stroke="#d97706" stroke-width="0.25"/><text x="4" y="144.3" font-size="3" fill="#d97706" font-family="sans-serif">ROOF</text><polygon points="64.602,6.600 64.602,19.600 97.602,19.600 97.602,6.600 64.602,6.600" fill="none" stroke="#7c3aed" stroke-width="0.25"/><text x="4" y="148.3" font-size="3" fill="#7c3aed" font-family="sans-serif">DAUGHTERBOARD</text><polygon points="90.702,4.000 90.702,7.100 71.502,7.100 71.502,4.000 90.702,4.000" fill="none" stroke="#db2777" stroke-width="0.25"/><polygon points="116.727,4.000 116.727,7.100 105.727,7.100 105.727,4.000 116.727,4.000" fill="none" stroke="#db2777" stroke-width="0.25"/><text x="4" y="152.3" font-size="3" fill="#db2777" font-family="sans-serif">PORTS</text><polygon points="70.202,4.000 70.202,7.100 67.002,7.100 67.002,4.000 70.202,4.000" fill="none" stroke="#0891b2" stroke-width="0.25"/><polygon points="95.202,4.000 95.202,7.100 92.002,7.100 92.002,4.000 95.202,4.000" fill="none" stroke="#0891b2" stroke-width="0.25"/><text x="4" y="156.3" font-size="3" fill="#0891b2" font-family="sans-serif">JACKSCREWS</text><polygon points="43.402,7.850 43.402,24.650 62.602,24.650 62.602,7.850 43.402,7.850" fill="none" stroke="#1f2937" stroke-width="0.25"/><text x="4" y="160.3" font-size="3" fill="#1f2937" font-family="sans-serif">MCU_MODULE</text><polygon points="14.000,22.650 71.400,22.650 72.086,22.684 72.766,22.785 73.432,22.951 74.079,23.183 74.700,23.477 75.289,23.830 75.841,24.239 76.350,24.700 76.811,25.209 77.220,25.761 77.573,26.350 77.867,26.971 78.099,27.618 78.265,28.284 78.366,28.964 78.400,29.650 78.400,71.050 78.366,71.736 78.265,72.416 78.099,73.082 77.867,73.729 77.573,74.350 77.220,74.939 76.811,75.491 76.350,76.000 75.841,76.461 75.289,76.870 74.700,77.223 74.079,77.517 73.432,77.749 72.766,77.915 72.086,78.016 71.400,78.050 14.000,78.050 13.314,78.016 12.634,77.915 11.968,77.749 11.321,77.517 10.700,77.223 10.111,76.870 9.559,76.461 9.050,76.000 8.589,75.491 8.180,74.939 7.827,74.350 7.533,73.729 7.301,73.082 7.135,72.416 7.034,71.736 7.000,71.050 7.000,29.650 7.034,28.964 7.135,28.284 7.301,27.618 7.533,26.971 7.827,26.350 8.180,25.761 8.589,25.209 9.050,24.700 9.559,24.239 10.111,23.830 10.700,23.477 11.321,23.183 11.968,22.951 12.634,22.785 13.314,22.684 14.000,22.650" fill="none" stroke="#2563eb" stroke-width="0.25"/><text x="4" y="164.3" font-size="3" fill="#2563eb" font-family="sans-serif">TRACKPAD</text><polygon points="14.000,25.550 71.400,25.550 71.802,25.570 72.200,25.629 72.590,25.727 72.969,25.862 73.333,26.034 73.678,26.241 74.001,26.481 74.299,26.751 74.569,27.049 74.809,27.372 75.016,27.717 75.188,28.081 75.323,28.460 75.421,28.850 75.480,29.248 75.500,29.650 75.500,71.050 75.480,71.452 75.421,71.850 75.323,72.240 75.188,72.619 75.016,72.983 74.809,73.328 74.569,73.651 74.299,73.949 74.001,74.219 73.678,74.459 73.333,74.666 72.969,74.838 72.590,74.973 72.200,75.071 71.802,75.130 71.400,75.150 14.000,75.150 13.598,75.130 13.200,75.071 12.810,74.973 12.431,74.838 12.067,74.666 11.722,74.459 11.399,74.219 11.101,73.949 10.831,73.651 10.591,73.328 10.384,72.983 10.212,72.619 10.077,72.240 9.979,71.850 9.920,71.452 9.900,71.050 9.900,29.650 9.920,29.248 9.979,28.850 10.077,28.460 10.212,28.081 10.384,27.717 10.591,27.372 10.831,27.049 11.101,26.751 11.399,26.481 11.722,26.241 12.067,26.034 12.431,25.862 12.810,25.727 13.200,25.629 13.598,25.570 14.000,25.550" fill="none" stroke="#dc2626" stroke-width="0.25"/><text x="4" y="168.3" font-size="3" fill="#dc2626" font-family="sans-serif">TRACKPAD_WELL</text><polygon points="87.710,46.991 87.707,46.893 87.697,46.796 87.681,46.699 87.659,46.603 87.631,46.509 87.596,46.417 87.555,46.328 87.509,46.241 87.457,46.158 87.400,46.078 87.338,46.002 87.271,45.931 87.199,45.864 87.123,45.801 87.043,45.744 86.960,45.692 86.874,45.646 86.784,45.606 86.692,45.571 86.598,45.543 86.503,45.520 86.406,45.504 86.308,45.495 86.210,45.491 86.112,45.495 86.014,45.504 85.917,45.520 85.822,45.543 85.728,45.571 85.636,45.606 85.547,45.646 85.460,45.692 85.377,45.744 85.297,45.801 85.221,45.864 85.149,45.931 85.082,46.002 85.020,46.078 84.963,46.158 84.911,46.241 84.865,46.328 84.824,46.417 84.790,46.509 84.761,46.603 84.739,46.699 84.723,46.796 84.713,46.893 84.710,46.991 84.713,47.090 84.723,47.187 84.739,47.284 84.761,47.380 84.790,47.474 84.824,47.565 84.865,47.655 84.911,47.741 84.963,47.825 85.020,47.905 85.082,47.980 85.149,48.052 85.221,48.119 85.297,48.182 85.377,48.239 85.460,48.291 85.547,48.337 85.636,48.377 85.728,48.412 85.822,48.440 85.917,48.463 86.014,48.479 86.112,48.488 86.210,48.491 86.308,48.488 86.406,48.479 86.503,48.463 86.598,48.440 86.692,48.412 86.784,48.377 86.874,48.337 86.960,48.291 87.043,48.239 87.123,48.182 87.199,48.119 87.271,48.052 87.338,47.980 87.400,47.905 87.457,47.825 87.509,47.741 87.555,47.655 87.596,47.565 87.631,47.474 87.659,47.380 87.681,47.284 87.697,47.187 87.707,47.090 87.710,46.991" fill="none" stroke="#059669" stroke-width="0.25"/><polygon points="86.340,41.150 86.337,41.052 86.327,40.954 86.311,40.857 86.289,40.762 86.260,40.668 86.226,40.576 86.185,40.487 86.139,40.400 86.087,40.317 86.030,40.237 85.968,40.161 85.901,40.089 85.829,40.022 85.753,39.960 85.673,39.903 85.590,39.851 85.503,39.805 85.414,39.764 85.322,39.730 85.228,39.701 85.133,39.679 85.036,39.663 84.938,39.653 84.840,39.650 84.742,39.653 84.644,39.663 84.547,39.679 84.452,39.701 84.358,39.730 84.266,39.764 84.177,39.805 84.090,39.851 84.007,39.903 83.927,39.960 83.851,40.022 83.779,40.089 83.712,40.161 83.650,40.237 83.593,40.317 83.541,40.400 83.495,40.487 83.454,40.576 83.420,40.668 83.391,40.762 83.369,40.857 83.353,40.954 83.343,41.052 83.340,41.150 83.343,41.248 83.353,41.346 83.369,41.443 83.391,41.538 83.420,41.632 83.454,41.724 83.495,41.813 83.541,41.900 83.593,41.983 83.650,42.063 83.712,42.139 83.779,42.211 83.851,42.278 83.927,42.340 84.007,42.397 84.090,42.449 84.177,42.495 84.266,42.536 84.358,42.570 84.452,42.599 84.547,42.621 84.644,42.637 84.742,42.647 84.840,42.650 84.938,42.647 85.036,42.637 85.133,42.621 85.228,42.599 85.322,42.570 85.414,42.536 85.503,42.495 85.590,42.449 85.673,42.397 85.753,42.340 85.829,42.278 85.901,42.211 85.968,42.139 86.030,42.063 86.087,41.983 86.139,41.900 86.185,41.813 86.226,41.724 86.260,41.632 86.289,41.538 86.311,41.443 86.327,41.346 86.337,41.248 86.340,41.150" fill="none" stroke="#059669" stroke-width="0.25"/><text x="4" y="172.3" font-size="3" fill="#059669" font-family="sans-serif">FLOOR_ACCESS</text></svg>
