  0
SECTION
  2
HEADER
  9
$ACADVER
  1
AC1024
  9
$ACADMAINTVER
 70
6
  9
$DWGCODEPAGE
  3
ANSI_1252
  9
$LASTSAVEDBY
  1
ezdxf
  9
$INSBASE
 10
0.0
 20
0.0
 30
0.0
  9
$EXTMIN
 10
1e+20
 20
1e+20
 30
1e+20
  9
$EXTMAX
 10
-1e+20
 20
-1e+20
 30
-1e+20
  9
$LIMMIN
 10
0.0
 20
0.0
  9
$LIMMAX
 10
420.0
 20
297.0
  9
$ORTHOMODE
 70
0
  9
$REGENMODE
 70
1
  9
$FILLMODE
 70
1
  9
$QTEXTMODE
 70
0
  9
$MIRRTEXT
 70
1
  9
$LTSCALE
 40
1.0
  9
$ATTMODE
 70
1
  9
$TEXTSIZE
 40
2.5
  9
$TRACEWID
 40
1.0
  9
$TEXTSTYLE
  7
OpenSans
  9
$CLAYER
  8
0
  9
$CELTYPE
  6
ByLayer
  9
$CECOLOR
 62
256
  9
$CELTSCALE
 40
1.0
  9
$DISPSILH
 70
0
  9
$DIMSCALE
 40
1.0
  9
$DIMASZ
 40
0.175
  9
$DIMEXO
 40
0.125
  9
$DIMDLI
 40
3.75
  9
$DIMRND
 40
0.0
  9
$DIMDLE
 40
0.0
  9
$DIMEXE
 40
0.375
  9
$DIMTP
 40
0.0
  9
$DIMTM
 40
0.0
  9
$DIMTXT
 40
0.25
  9
$DIMCEN
 40
2.5
  9
$DIMTSZ
 40
0.0
  9
$DIMTOL
 70
0
  9
$DIMLIM
 70
0
  9
$DIMTIH
 70
0
  9
$DIMTOH
 70
0
  9
$DIMSE1
 70
0
  9
$DIMSE2
 70
0
  9
$DIMTAD
 70
1
  9
$DIMZIN
 70
12
  9
$DIMBLK
  1
ARCHTICK
  9
$DIMASO
 70
1
  9
$DIMSHO
 70
1
  9
$DIMPOST
  1

  9
$DIMAPOST
  1

  9
$DIMALT
 70
0
  9
$DIMALTD
 70
3
  9
$DIMALTF
 40
0.03937007874
  9
$DIMLFAC
 40
100.0
  9
$DIMTOFL
 70
1
  9
$DIMTVP
 40
0.0
  9
$DIMTIX
 70
0
  9
$DIMSOXD
 70
0
  9
$DIMSAH
 70
0
  9
$DIMBLK1
  1

  9
$DIMBLK2
  1

  9
$DIMSTYLE
  2
EZDXF
  9
$DIMCLRD
 70
0
  9
$DIMCLRE
 70
0
  9
$DIMCLRT
 70
0
  9
$DIMTFAC
 40
0.5
  9
$DIMGAP
 40
0.1
  9
$DIMJUST
 70
0
  9
$DIMSD1
 70
0
  9
$DIMSD2
 70
0
  9
$DIMTOLJ
 70
0
  9
$DIMTZIN
 70
8
  9
$DIMALTZ
 70
0
  9
$DIMALTTZ
 70
0
  9
$DIMUPT
 70
1
  9
$DIMDEC
 70
2
  9
$DIMTDEC
 70
2
  9
$DIMALTU
 70
2
  9
$DIMALTTD
 70
3
  9
$DIMTXSTY
  7
OpenSansCondensed-Light
  9
$DIMAUNIT
 70
0
  9
$DIMADEC
 70
2
  9
$DIMALTRND
 40
0.0
  9
$DIMAZIN
 70
3
  9
$DIMDSEP
 70
46
  9
$DIMATFIT
 70
3
  9
$DIMFRAC
 70
0
  9
$DIMLDRBLK
  1

  9
$DIMLUNIT
 70
2
  9
$DIMLWD
 70
-2
  9
$DIMLWE
 70
-2
  9
$DIMTMOVE
 70
2
  9
$DIMFXL
 40
1.0
  9
$DIMFXLON
 70
0
  9
$DIMJOGANG
 40
0.785398163397
  9
$DIMTFILL
 70
0
  9
$DIMTFILLCLR
 70
0
  9
$DIMARCSYM
 70
0
  9
$DIMLTYPE
  6

  9
$DIMLTEX1
  6

  9
$DIMLTEX2
  6

  9
$DIMTXTDIRECTION
 70
0
  9
$LUNITS
 70
2
  9
$LUPREC
 70
4
  9
$SKETCHINC
 40
1.0
  9
$FILLETRAD
 40
10.0
  9
$AUNITS
 70
0
  9
$AUPREC
 70
2
  9
$MENU
  1
.
  9
$ELEVATION
 40
0.0
  9
$PELEVATION
 40
0.0
  9
$THICKNESS
 40
0.0
  9
$LIMCHECK
 70
0
  9
$CHAMFERA
 40
0.0
  9
$CHAMFERB
 40
0.0
  9
$CHAMFERC
 40
0.0
  9
$CHAMFERD
 40
0.0
  9
$SKPOLY
 70
0
  9
$TDCREATE
 40
2461317.0384143516
  9
$TDUCREATE
 40
2458532.153996898
  9
$TDUPDATE
 40
2461317.0384143516
  9
$TDUUPDATE
 40
2458532.1544311
  9
$TDINDWG
 40
0.0
  9
$TDUSRTIMER
 40
0.0
  9
$USRTIMER
 70
1
  9
$ANGBASE
 50
0.0
  9
$ANGDIR
 70
0
  9
$PDMODE
 70
0
  9
$PDSIZE
 40
0.0
  9
$PLINEWID
 40
0.0
  9
$SPLFRAME
 70
0
  9
$SPLINETYPE
 70
6
  9
$SPLINESEGS
 70
8
  9
$HANDSEED
  5
AD
  9
$SURFTAB1
 70
6
  9
$SURFTAB2
 70
6
  9
$SURFTYPE
 70
6
  9
$SURFU
 70
6
  9
$SURFV
 70
6
  9
$UCSBASE
  2

  9
$UCSNAME
  2

  9
$UCSORG
 10
0.0
 20
0.0
 30
0.0
  9
$UCSXDIR
 10
1.0
 20
0.0
 30
0.0
  9
$UCSYDIR
 10
0.0
 20
1.0
 30
0.0
  9
$UCSORTHOREF
  2

  9
$UCSORTHOVIEW
 70
0
  9
$UCSORGTOP
 10
0.0
 20
0.0
 30
0.0
  9
$UCSORGBOTTOM
 10
0.0
 20
0.0
 30
0.0
  9
$UCSORGLEFT
 10
0.0
 20
0.0
 30
0.0
  9
$UCSORGRIGHT
 10
0.0
 20
0.0
 30
0.0
  9
$UCSORGFRONT
 10
0.0
 20
0.0
 30
0.0
  9
$UCSORGBACK
 10
0.0
 20
0.0
 30
0.0
  9
$PUCSBASE
  2

  9
$PUCSNAME
  2

  9
$PUCSORG
 10
0.0
 20
0.0
 30
0.0
  9
$PUCSXDIR
 10
1.0
 20
0.0
 30
0.0
  9
$PUCSYDIR
 10
0.0
 20
1.0
 30
0.0
  9
$PUCSORTHOREF
  2

  9
$PUCSORTHOVIEW
 70
0
  9
$PUCSORGTOP
 10
0.0
 20
0.0
 30
0.0
  9
$PUCSORGBOTTOM
 10
0.0
 20
0.0
 30
0.0
  9
$PUCSORGLEFT
 10
0.0
 20
0.0
 30
0.0
  9
$PUCSORGRIGHT
 10
0.0
 20
0.0
 30
0.0
  9
$PUCSORGFRONT
 10
0.0
 20
0.0
 30
0.0
  9
$PUCSORGBACK
 10
0.0
 20
0.0
 30
0.0
  9
$USERI1
 70
0
  9
$USERI2
 70
0
  9
$USERI3
 70
0
  9
$USERI4
 70
0
  9
$USERI5
 70
0
  9
$USERR1
 40
0.0
  9
$USERR2
 40
0.0
  9
$USERR3
 40
0.0
  9
$USERR4
 40
0.0
  9
$USERR5
 40
0.0
  9
$WORLDVIEW
 70
1
  9
$SHADEDGE
 70
3
  9
$SHADEDIF
 70
70
  9
$TILEMODE
 70
1
  9
$MAXACTVP
 70
64
  9
$PINSBASE
 10
0.0
 20
0.0
 30
0.0
  9
$PLIMCHECK
 70
0
  9
$PEXTMIN
 10
1e+20
 20
1e+20
 30
1e+20
  9
$PEXTMAX
 10
-1e+20
 20
-1e+20
 30
-1e+20
  9
$PLIMMIN
 10
0.0
 20
0.0
  9
$PLIMMAX
 10
420.0
 20
297.0
  9
$UNITMODE
 70
0
  9
$VISRETAIN
 70
1
  9
$PLINEGEN
 70
0
  9
$PSLTSCALE
 70
1
  9
$TREEDEPTH
 70
3020
  9
$CMLSTYLE
  2
Standard
  9
$CMLJUST
 70
0
  9
$CMLSCALE
 40
20.0
  9
$PROXYGRAPHICS
 70
1
  9
$MEASUREMENT
 70
1
  9
$CELWEIGHT
370
-1
  9
$ENDCAPS
280
0
  9
$JOINSTYLE
280
0
  9
$LWDISPLAY
290
0
  9
$INSUNITS
 70
4
  9
$HYPERLINKBASE
  1

  9
$STYLESHEET
  1

  9
$XEDIT
290
1
  9
$CEPSNTYPE
380
0
  9
$PSTYLEMODE
290
1
  9
$FINGERPRINTGUID
  2
{FD15E625-AA1F-4C8A-AB89-3E4E62296FA1}
  9
$VERSIONGUID
  2
{C3FAFA81-6B5A-4307-9A49-DE50F61D01A8}
  9
$EXTNAMES
290
1
  9
$PSVPSCALE
 40
0.0
  9
$OLESTARTUP
290
0
  9
$SORTENTS
280
127
  9
$INDEXCTL
280
0
  9
$HIDETEXT
280
1
  9
$XCLIPFRAME
280
1
  9
$HALOGAP
280
0
  9
$OBSCOLOR
 70
257
  9
$OBSLTYPE
280
0
  9
$INTERSECTIONDISPLAY
280
0
  9
$INTERSECTIONCOLOR
 70
257
  9
$DIMASSOC
280
2
  9
$PROJECTNAME
  1

  9
$CAMERADISPLAY
290
0
  9
$LENSLENGTH
 40
50.0
  9
$CAMERAHEIGHT
 40
0.0
  9
$STEPSPERSEC
 40
24.0
  9
$STEPSIZE
 40
100.0
  9
$3DDWFPREC
 40
2.0
  9
$PSOLWIDTH
 40
0.005
  9
$PSOLHEIGHT
 40
0.08
  9
$LOFTANG1
 40
1.570796326795
  9
$LOFTANG2
 40
1.570796326795
  9
$LOFTMAG1
 40
0.0
  9
$LOFTMAG2
 40
0.0
  9
$LOFTPARAM
 70
7
  9
$LOFTNORMALS
280
1
  9
$LATITUDE
 40
37.795
  9
$LONGITUDE
 40
-122.394
  9
$NORTHDIRECTION
 40
0.0
  9
$TIMEZONE
 70
-8000
  9
$LIGHTGLYPHDISPLAY
280
1
  9
$TILEMODELIGHTSYNCH
280
1
  9
$CMATERIAL
347
20
  9
$SOLIDHIST
280
0
  9
$SHOWHIST
280
1
  9
$DWFFRAME
280
2
  9
$DGNFRAME
280
2
  9
$REALWORLDSCALE
290
1
  9
$INTERFERECOLOR
 62
256
  9
$CSHADOW
280
0
  9
$SHADOWPLANELOCATION
 40
0.0
  0
ENDSEC
  0
SECTION
  2
CLASSES
  0
CLASS
  1
ACDBDICTIONARYWDFLT
  2
AcDbDictionaryWithDefault
  3
ObjectDBX Classes
 90
0
 91
0
280
0
281
0
  0
CLASS
  1
SUN
  2
AcDbSun
  3
SCENEOE
 90
1153
 91
0
280
0
281
0
  0
CLASS
  1
VISUALSTYLE
  2
AcDbVisualStyle
  3
ObjectDBX Classes
 90
4095
 91
0
280
0
281
0
  0
CLASS
  1
MATERIAL
  2
AcDbMaterial
  3
ObjectDBX Classes
 90
1153
 91
0
280
0
281
0
  0
CLASS
  1
SCALE
  2
AcDbScale
  3
ObjectDBX Classes
 90
1153
 91
0
280
0
281
0
  0
CLASS
  1
TABLESTYLE
  2
AcDbTableStyle
  3
ObjectDBX Classes
 90
4095
 91
0
280
0
281
0
  0
CLASS
  1
MLEADERSTYLE
  2
AcDbMLeaderStyle
  3
ACDB_MLEADERSTYLE_CLASS
 90
4095
 91
0
280
0
281
0
  0
CLASS
  1
DICTIONARYVAR
  2
AcDbDictionaryVar
  3
ObjectDBX Classes
 90
0
 91
0
280
0
281
0
  0
CLASS
  1
CELLSTYLEMAP
  2
AcDbCellStyleMap
  3
ObjectDBX Classes
 90
1152
 91
0
280
0
281
0
  0
CLASS
  1
MENTALRAYRENDERSETTINGS
  2
AcDbMentalRayRenderSettings
  3
SCENEOE
 90
1024
 91
0
280
0
281
0
  0
CLASS
  1
ACDBDETAILVIEWSTYLE
  2
AcDbDetailViewStyle
  3
ObjectDBX Classes
 90
1025
 91
0
280
0
281
0
  0
CLASS
  1
ACDBSECTIONVIEWSTYLE
  2
AcDbSectionViewStyle
  3
ObjectDBX Classes
 90
1025
 91
0
280
0
281
0
  0
CLASS
  1
RASTERVARIABLES
  2
AcDbRasterVariables
  3
ISM
 90
0
 91
0
280
0
281
0
  0
CLASS
  1
ACDBPLACEHOLDER
  2
AcDbPlaceHolder
  3
ObjectDBX Classes
 90
0
 91
0
280
0
281
0
  0
CLASS
  1
LAYOUT
  2
AcDbLayout
  3
ObjectDBX Classes
 90
0
 91
0
280
0
281
0
  0
ENDSEC
  0
SECTION
  2
TABLES
  0
TABLE
  2
VPORT
  5
8
330
0
100
AcDbSymbolTable
 70
1
  0
VPORT
  5
23
330
8
100
AcDbSymbolTableRecord
100
AcDbViewportTableRecord
  2
*Active
 70
0
 10
0.0
 20
0.0
 11
1.0
 21
1.0
 12
0.0
 22
0.0
 13
0.0
 23
0.0
 14
0.5
 24
0.5
 15
0.5
 25
0.5
 16
0.0
 26
0.0
 36
1.0
 17
0.0
 27
0.0
 37
0.0
 40
1000.0
 41
1.34
 42
50.0
 43
0.0
 44
0.0
 50
0.0
 51
0.0
 71
0
 72
1000
 73
1
 74
3
 75
0
 76
0
 77
0
 78
0
281
0
 65
0
146
0.0
  0
ENDTAB
  0
TABLE
  2
LTYPE
  5
2
330
0
100
AcDbSymbolTable
 70
21
  0
LTYPE
  5
24
330
2
100
AcDbSymbolTableRecord
100
AcDbLinetypeTableRecord
  2
ByBlock
 70
0
  3

 72
65
 73
0
 40
0.0
  0
LTYPE
  5
25
330
2
100
AcDbSymbolTableRecord
100
AcDbLinetypeTableRecord
  2
ByLayer
 70
0
  3

 72
65
 73
0
 40
0.0
  0
LTYPE
  5
26
330
2
100
AcDbSymbolTableRecord
100
AcDbLinetypeTableRecord
  2
Continuous
 70
0
  3

 72
65
 73
0
 40
0.0
  0
LTYPE
  5
2F
330
2
100
AcDbSymbolTableRecord
100
AcDbLinetypeTableRecord
  2
CENTER
 70
0
  3
Center ____ _ ____ _ ____ _ ____ _ ____ _ ____
 72
65
 73
4
 40
5.08
 49
3.175
 74
0
 49
-0.635
 74
0
 49
0.635
 74
0
 49
-0.635
 74
0
  0
LTYPE
  5
30
330
2
100
AcDbSymbolTableRecord
100
AcDbLinetypeTableRecord
  2
CENTERX2
 70
0
  3
Center (2x) ________  __  ________  __  ________
 72
65
 73
4
 40
8.89
 49
6.35
 74
0
 49
-0.635
 74
0
 49
1.27
 74
0
 49
-0.635
 74
0
  0
LTYPE
  5
31
330
2
100
AcDbSymbolTableRecord
100
AcDbLinetypeTableRecord
  2
CENTER2
 70
0
  3
Center (.5x) ____ _ ____ _ ____ _ ____ _ ____
 72
65
 73
4
 40
2.54
 49
1.587
 74
0
 49
-0.318
 74
0
 49
0.318
 74
0
 49
-0.318
 74
0
  0
LTYPE
  5
32
330
2
100
AcDbSymbolTableRecord
100
AcDbLinetypeTableRecord
  2
DASHED
 70
0
  3
Dashed __ __ __ __ __ __ __ __ __ __ __ __ __ _
 72
65
 73
2
 40
1.524
 49
1.27
 74
0
 49
-0.254
 74
0
  0
LTYPE
  5
33
330
2
100
AcDbSymbolTableRecord
100
AcDbLinetypeTableRecord
  2
DASHEDX2
 70
0
  3
Dashed (2x) ____  ____  ____  ____  ____  ____
 72
65
 73
2
 40
3.048
 49
2.54
 74
0
 49
-0.508
 74
0
  0
LTYPE
  5
34
330
2
100
AcDbSymbolTableRecord
100
AcDbLinetypeTableRecord
  2
DASHED2
 70
0
  3
Dashed (.5x) _ _ _ _ _ _ _ _ _ _ _ _ _ _
 72
65
 73
2
 40
0.762
 49
0.635
 74
0
 49
-0.127
 74
0
  0
LTYPE
  5
35
330
2
100
AcDbSymbolTableRecord
100
AcDbLinetypeTableRecord
  2
PHANTOM
 70
0
  3
Phantom ______  __  __  ______  __  __  ______
 72
65
 73
6
 40
6.35
 49
3.175
 74
0
 49
-0.635
 74
0
 49
0.635
 74
0
 49
-0.635
 74
0
 49
0.635
 74
0
 49
-0.635
 74
0
  0
LTYPE
  5
36
330
2
100
AcDbSymbolTableRecord
100
AcDbLinetypeTableRecord
  2
PHANTOMX2
 70
0
  3
Phantom (2x)____________    ____    ____    ____________
 72
65
 73
6
 40
10.795
 49
6.35
 74
0
 49
-0.635
 74
0
 49
1.27
 74
0
 49
-0.635
 74
0
 49
1.27
 74
0
 49
-0.635
 74
0
  0
LTYPE
  5
37
330
2
100
AcDbSymbolTableRecord
100
AcDbLinetypeTableRecord
  2
PHANTOM2
 70
0
  3
Phantom (.5x) ___ _ _ ___ _ _ ___ _ _ ___ _ _ ___
 72
65
 73
6
 40
3.175
 49
1.587
 74
0
 49
-0.318
 74
0
 49
0.318
 74
0
 49
-0.318
 74
0
 49
0.318
 74
0
 49
-0.318
 74
0
  0
LTYPE
  5
38
330
2
100
AcDbSymbolTableRecord
100
AcDbLinetypeTableRecord
  2
DASHDOT
 70
0
  3
Dash dot __ . __ . __ . __ . __ . __ . __ . __
 72
65
 73
4
 40
3.556
 49
2.54
 74
0
 49
-0.508
 74
0
 49
0.0
 74
0
 49
-0.508
 74
0
  0
LTYPE
  5
39
330
2
100
AcDbSymbolTableRecord
100
AcDbLinetypeTableRecord
  2
DASHDOTX2
 70
0
  3
Dash dot (2x) ____  .  ____  .  ____  .  ____
 72
65
 73
4
 40
6.096
 49
5.08
 74
0
 49
-0.508
 74
0
 49
0.0
 74
0
 49
-0.508
 74
0
  0
LTYPE
  5
3A
330
2
100
AcDbSymbolTableRecord
100
AcDbLinetypeTableRecord
  2
DASHDOT2
 70
0
  3
Dash dot (.5x) _ . _ . _ . _ . _ . _ . _ . _
 72
65
 73
4
 40
1.778
 49
1.27
 74
0
 49
-0.254
 74
0
 49
0.0
 74
0
 49
-0.254
 74
0
  0
LTYPE
  5
3B
330
2
100
AcDbSymbolTableRecord
100
AcDbLinetypeTableRecord
  2
DOT
 70
0
  3
Dot .  .  .  .  .  .  .  .  .  .  .  .  .  .  .  .
 72
65
 73
2
 40
0.508
 49
0.0
 74
0
 49
-0.508
 74
0
  0
LTYPE
  5
3C
330
2
100
AcDbSymbolTableRecord
100
AcDbLinetypeTableRecord
  2
DOTX2
 70
0
  3
Dot (2x) .    .    .    .    .    .    .    . 
 72
65
 73
2
 40
1.016
 49
0.0
 74
0
 49
-1.016
 74
0
  0
LTYPE
  5
3D
330
2
100
AcDbSymbolTableRecord
100
AcDbLinetypeTableRecord
  2
DOT2
 70
0
  3
Dot (.5) . . . . . . . . . . . . . . . . . . . 
 72
65
 73
2
 40
0.254
 49
0.0
 74
0
 49
-0.254
 74
0
  0
LTYPE
  5
3E
330
2
100
AcDbSymbolTableRecord
100
AcDbLinetypeTableRecord
  2
DIVIDE
 70
0
  3
Divide __ . . __ . . __ . . __ . . __ . . __
 72
65
 73
6
 40
4.064
 49
2.54
 74
0
 49
-0.508
 74
0
 49
0.0
 74
0
 49
-0.508
 74
0
 49
0.0
 74
0
 49
-0.508
 74
0
  0
LTYPE
  5
3F
330
2
100
AcDbSymbolTableRecord
100
AcDbLinetypeTableRecord
  2
DIVIDEX2
 70
0
  3
Divide (2x) ____  . .  ____  . .  ____  . .  ____
 72
65
 73
6
 40
6.604
 49
5.08
 74
0
 49
-0.508
 74
0
 49
0.0
 74
0
 49
-0.508
 74
0
 49
0.0
 74
0
 49
-0.508
 74
0
  0
LTYPE
  5
40
330
2
100
AcDbSymbolTableRecord
100
AcDbLinetypeTableRecord
  2
DIVIDE2
 70
0
  3
Divide(.5x) _ . _ . _ . _ . _ . _ . _ . _
 72
65
 73
6
 40
2.032
 49
1.27
 74
0
 49
-0.254
 74
0
 49
0.0
 74
0
 49
-0.254
 74
0
 49
0.0
 74
0
 49
-0.254
 74
0
  0
ENDTAB
  0
TABLE
  2
LAYER
  5
1
330
0
100
AcDbSymbolTable
 70
5
  0
LAYER
  5
27
330
1
100
AcDbSymbolTableRecord
100
AcDbLayerTableRecord
  2
0
 70
0
 62
7
  6
Continuous
370
-3
390
13
347
21
  0
LAYER
  5
28
330
1
100
AcDbSymbolTableRecord
100
AcDbLayerTableRecord
  2
Defpoints
 70
0
 62
7
  6
Continuous
290
0
370
-3
390
13
347
21
  0
LAYER
  5
8A
330
1
100
AcDbSymbolTableRecord
100
AcDbLayerTableRecord
  2
OUTLINE
 70
0
 62
7
  6
Continuous
370
-3
390
13
347
21
  0
LAYER
  5
8B
330
1
100
AcDbSymbolTableRecord
100
AcDbLayerTableRecord
  2
HOLES
 70
0
 62
7
  6
Continuous
370
-3
390
13
347
21
  0
LAYER
  5
8C
330
1
100
AcDbSymbolTableRecord
100
AcDbLayerTableRecord
  2
TEXT
 70
0
 62
7
  6
Continuous
370
-3
390
13
347
21
  0
ENDTAB
  0
TABLE
  2
STYLE
  5
5
330
0
100
AcDbSymbolTable
 70
26
  0
STYLE
  5
29
330
5
100
AcDbSymbolTableRecord
100
AcDbTextStyleTableRecord
  2
Standard
 70
0
 40
0.0
 41
1.0
 50
0.0
 71
0
 42
2.5
  3
txt
  4

  0
STYLE
  5
41
330
5
100
AcDbSymbolTableRecord
100
AcDbTextStyleTableRecord
  2
OpenSans-Light
 70
0
 40
0.0
 41
1.0
 50
0.0
 71
0
 42
2.5
  3
OpenSans-Light.ttf
  4

  0
STYLE
  5
42
330
5
100
AcDbSymbolTableRecord
100
AcDbTextStyleTableRecord
  2
OpenSans-Light-Italic
 70
0
 40
0.0
 41
1.0
 50
0.0
 71
0
 42
2.5
  3
OpenSans-LightItalic.ttf
  4

  0
STYLE
  5
43
330
5
100
AcDbSymbolTableRecord
100
AcDbTextStyleTableRecord
  2
OpenSans
 70
0
 40
0.0
 41
1.0
 50
0.0
 71
0
 42
2.5
  3
OpenSans-Regular.ttf
  4

  0
STYLE
  5
44
330
5
100
AcDbSymbolTableRecord
100
AcDbTextStyleTableRecord
  2
OpenSans-Italic
 70
0
 40
0.0
 41
1.0
 50
0.0
 71
0
 42
2.5
  3
OpenSans-Italic.ttf
  4

  0
STYLE
  5
45
330
5
100
AcDbSymbolTableRecord
100
AcDbTextStyleTableRecord
  2
OpenSans-SemiBold
 70
0
 40
0.0
 41
1.0
 50
0.0
 71
0
 42
2.5
  3
OpenSans-SemiBold.ttf
  4

  0
STYLE
  5
46
330
5
100
AcDbSymbolTableRecord
100
AcDbTextStyleTableRecord
  2
OpenSans-SemiBoldItalic
 70
0
 40
0.0
 41
1.0
 50
0.0
 71
0
 42
2.5
  3
OpenSans-SemiBoldItalic.ttf
  4

  0
STYLE
  5
47
330
5
100
AcDbSymbolTableRecord
100
AcDbTextStyleTableRecord
  2
OpenSans-Bold
 70
0
 40
0.0
 41
1.0
 50
0.0
 71
0
 42
2.5
  3
OpenSans-Bold.ttf
  4

  0
STYLE
  5
48
330
5
100
AcDbSymbolTableRecord
100
AcDbTextStyleTableRecord
  2
OpenSans-BoldItalic
 70
0
 40
0.0
 41
1.0
 50
0.0
 71
0
 42
2.5
  3
OpenSans-BoldItalic.ttf
  4

  0
STYLE
  5
49
330
5
100
AcDbSymbolTableRecord
100
AcDbTextStyleTableRecord
  2
OpenSans-ExtraBold
 70
0
 40
0.0
 41
1.0
 50
0.0
 71
0
 42
2.5
  3
OpenSans-ExtraBold.ttf
  4

  0
STYLE
  5
4A
330
5
100
AcDbSymbolTableRecord
100
AcDbTextStyleTableRecord
  2
OpenSans-ExtraBoldItalic
 70
0
 40
0.0
 41
1.0
 50
0.0
 71
0
 42
2.5
  3
OpenSans-ExtraBoldItalic.ttf
  4

  0
STYLE
  5
4B
330
5
100
AcDbSymbolTableRecord
100
AcDbTextStyleTableRecord
  2
OpenSansCondensed-Bold
 70
0
 40
0.0
 41
1.0
 50
0.0
 71
0
 42
2.5
  3
OpenSansCondensed-Bold.ttf
  4

  0
STYLE
  5
4C
330
5
100
AcDbSymbolTableRecord
100
AcDbTextStyleTableRecord
  2
OpenSansCondensed-Light
 70
0
 40
0.0
 41
1.0
 50
0.0
 71
0
 42
2.5
  3
OpenSansCondensed-Light.ttf
  4

  0
STYLE
  5
4D
330
5
100
AcDbSymbolTableRecord
100
AcDbTextStyleTableRecord
  2
OpenSansCondensed-Italic
 70
0
 40
0.0
 41
1.0
 50
0.0
 71
0
 42
2.5
  3
OpenSansCondensed-LightItalic.ttf
  4

  0
STYLE
  5
4E
330
5
100
AcDbSymbolTableRecord
100
AcDbTextStyleTableRecord
  2
LiberationSans
 70
0
 40
0.0
 41
1.0
 50
0.0
 71
0
 42
2.5
  3
LiberationSans-Regular.ttf
  4

  0
STYLE
  5
4F
330
5
100
AcDbSymbolTableRecord
100
AcDbTextStyleTableRecord
  2
LiberationSans-Bold
 70
0
 40
0.0
 41
1.0
 50
0.0
 71
0
 42
2.5
  3
LiberationSans-Bold.ttf
  4

  0
STYLE
  5
50
330
5
100
AcDbSymbolTableRecord
100
AcDbTextStyleTableRecord
  2
LiberationSans-BoldItalic
 70
0
 40
0.0
 41
1.0
 50
0.0
 71
0
 42
2.5
  3
LiberationSans-BoldItalic.ttf
  4

  0
STYLE
  5
51
330
5
100
AcDbSymbolTableRecord
100
AcDbTextStyleTableRecord
  2
LiberationSans-Italic
 70
0
 40
0.0
 41
1.0
 50
0.0
 71
0
 42
2.5
  3
LiberationSans-Italic.ttf
  4

  0
STYLE
  5
52
330
5
100
AcDbSymbolTableRecord
100
AcDbTextStyleTableRecord
  2
LiberationSerif
 70
0
 40
0.0
 41
1.0
 50
0.0
 71
0
 42
2.5
  3
LiberationSerif-Regular.ttf
  4

  0
STYLE
  5
53
330
5
100
AcDbSymbolTableRecord
100
AcDbTextStyleTableRecord
  2
LiberationSerif-Bold
 70
0
 40
0.0
 41
1.0
 50
0.0
 71
0
 42
2.5
  3
LiberationSerif-Bold.ttf
  4

  0
STYLE
  5
54
330
5
100
AcDbSymbolTableRecord
100
AcDbTextStyleTableRecord
  2
LiberationSerif-BoldItalic
 70
0
 40
0.0
 41
1.0
 50
0.0
 71
0
 42
2.5
  3
LiberationSerif-BoldItalic.ttf
  4

  0
STYLE
  5
55
330
5
100
AcDbSymbolTableRecord
100
AcDbTextStyleTableRecord
  2
LiberationSerif-Italic
 70
0
 40
0.0
 41
1.0
 50
0.0
 71
0
 42
2.5
  3
LiberationSerif-Italic.ttf
  4

  0
STYLE
  5
56
330
5
100
AcDbSymbolTableRecord
100
AcDbTextStyleTableRecord
  2
LiberationMono
 70
0
 40
0.0
 41
1.0
 50
0.0
 71
0
 42
2.5
  3
LiberationMono-Regular.ttf
  4

  0
STYLE
  5
57
330
5
100
AcDbSymbolTableRecord
100
AcDbTextStyleTableRecord
  2
LiberationMono-Bold
 70
0
 40
0.0
 41
1.0
 50
0.0
 71
0
 42
2.5
  3
LiberationMono-Bold.ttf
  4

  0
STYLE
  5
58
330
5
100
AcDbSymbolTableRecord
100
AcDbTextStyleTableRecord
  2
LiberationMono-BoldItalic
 70
0
 40
0.0
 41
1.0
 50
0.0
 71
0
 42
2.5
  3
LiberationMono-BoldItalic.ttf
  4

  0
STYLE
  5
59
330
5
100
AcDbSymbolTableRecord
100
AcDbTextStyleTableRecord
  2
LiberationMono-Italic
 70
0
 40
0.0
 41
1.0
 50
0.0
 71
0
 42
2.5
  3
LiberationMono-Italic.ttf
  4

  0
ENDTAB
  0
TABLE
  2
VIEW
  5
7
330
0
100
AcDbSymbolTable
 70
0
  0
ENDTAB
  0
TABLE
  2
UCS
  5
6
330
0
100
AcDbSymbolTable
 70
0
  0
ENDTAB
  0
TABLE
  2
APPID
  5
3
330
0
100
AcDbSymbolTable
 70
3
  0
APPID
  5
2A
330
3
100
AcDbSymbolTableRecord
100
AcDbRegAppTableRecord
  2
ACAD
 70
0
  0
APPID
  5
AA
330
3
100
AcDbSymbolTableRecord
100
AcDbRegAppTableRecord
  2
HATCHBACKGROUNDCOLOR
 70
0
  0
APPID
  5
AB
330
3
100
AcDbSymbolTableRecord
100
AcDbRegAppTableRecord
  2
EZDXF
 70
0
  0
ENDTAB
  0
TABLE
  2
DIMSTYLE
  5
4
330
0
100
AcDbSymbolTable
 70
12
100
AcDbDimStyleTable
  0
DIMSTYLE
105
2B
330
4
100
AcDbSymbolTableRecord
100
AcDbDimStyleTableRecord
  2
Standard
 70
0
 40
1.0
 41
2.5
 42
0.625
 43
3.75
 44
1.25
 45
0.0
 46
0.0
 47
0.0
 48
0.0
 49
2.5
140
2.5
141
2.5
142
0.0
143
0.03937007874
144
1.0
145
0.0
146
1.0
147
0.625
148
0.0
 69
0
 70
0
 71
0
 72
0
 73
0
 74
0
 75
0
 76
0
 77
1
 78
8
 79
3
170
0
171
3
172
1
173
0
174
0
175
0
176
0
177
0
178
0
179
2
271
2
272
2
273
2
274
3
275
0
276
0
277
2
278
44
279
0
280
0
281
0
282
0
283
0
284
8
285
0
286
0
288
0
289
3
290
0
371
-2
372
-2
  0
DIMSTYLE
105
73
330
4
100
AcDbSymbolTableRecord
100
AcDbDimStyleTableRecord
  2
EZDXF
 70
0
 40
1.0
 41
0.175
 42
0.125
 43
3.75
 44
0.375
 45
0.0
 46
0.0
 47
0.0
 48
0.0
 49
2.5
140
0.25
141
2.5
142
0.0
143
0.03937007874
144
100.0
145
0.0
146
0.5
147
0.1
148
0.0
 69
0
 70
0
 71
0
 72
0
 73
0
 74
0
 75
0
 76
0
 77
1
 78
12
 79
3
170
0
171
3
172
1
173
0
174
0
175
0
176
0
177
0
178
0
179
2
271
2
272
2
273
2
274
3
275
0
276
0
277
2
278
46
279
2
280
0
281
0
282
0
283
0
284
8
285
0
286
0
288
1
289
3
290
0
340
4C
342
74
371
-2
372
-2
  0
DIMSTYLE
105
7C
330
4
100
AcDbSymbolTableRecord
100
AcDbDimStyleTableRecord
  2
EZ_M_100_H25_CM
 70
0
 40
1.0
 41
0.25
 42
0.125
 43
3.75
 44
0.375
 45
0.0
 46
0.0
 47
0.0
 48
0.0
 49
2.5
140
0.25
141
2.5
142
0.125
143
0.03937007874
144
100.0
145
0.0
146
0.5
147
0.1
148
0.0
 69
0
 70
0
 71
0
 72
0
 73
0
 74
0
 75
0
 76
0
 77
1
 78
12
 79
3
170
0
171
3
172
1
173
0
174
0
175
0
176
0
177
0
178
0
179
2
271
2
272
2
273
2
274
3
275
0
276
0
277
2
278
46
279
2
280
0
281
0
282
0
283
0
284
8
285
0
286
0
288
1
289
3
290
0
340
4C
371
-2
372
-2
  0
DIMSTYLE
105
7D
330
4
100
AcDbSymbolTableRecord
100
AcDbDimStyleTableRecord
  2
EZ_M_50_H25_CM
 70
0
 40
1.0
 41
0.125
 42
0.0625
 43
3.75
 44
0.1875
 45
0.0
 46
0.0
 47
0.0
 48
0.0
 49
2.5
140
0.125
141
2.5
142
0.0625
143
0.03937007874
144
100.0
145
0.0
146
0.5
147
0.05
148
0.0
 69
0
 70
0
 71
0
 72
0
 73
0
 74
0
 75
0
 76
0
 77
1
 78
12
 79
3
170
0
171
3
172
1
173
0
174
0
175
0
176
0
177
0
178
0
179
2
271
2
272
2
273
2
274
3
275
0
276
0
277
2
278
46
279
2
280
0
281
0
282
0
283
0
284
8
285
0
286
0
288
1
289
3
290
0
340
4C
371
-2
372
-2
  0
DIMSTYLE
105
7E
330
4
100
AcDbSymbolTableRecord
100
AcDbDimStyleTableRecord
  2
EZ_M_25_H25_CM
 70
0
 40
1.0
 41
0.0625
 42
0.03125
 43
3.75
 44
0.09375
 45
0.0
 46
0.0
 47
0.0
 48
0.0
 49
2.5
140
0.0625
141
2.5
142
0.03125
143
0.03937007874
144
100.0
145
0.0
146
0.5
147
0.025
148
0.0
 69
0
 70
0
 71
0
 72
0
 73
0
 74
0
 75
0
 76
0
 77
1
 78
12
 79
3
170
0
171
3
172
1
173
0
174
0
175
0
176
0
177
0
178
0
179
2
271
2
272
2
273
2
274
3
275
0
276
0
277
2
278
46
279
2
280
0
281
0
282
0
283
0
284
8
285
0
286
0
288
1
289
3
290
0
340
4C
371
-2
372
-2
  0
DIMSTYLE
105
7F
330
4
100
AcDbSymbolTableRecord
100
AcDbDimStyleTableRecord
  2
EZ_M_20_H25_CM
 70
0
 40
1.0
 41
0.05
 42
0.025
 43
3.75
 44
0.07500000000000001
 45
0.0
 46
0.0
 47
0.0
 48
0.0
 49
2.5
140
0.05
141
2.5
142
0.025
143
0.03937007874
144
100.0
145
0.0
146
0.5
147
0.020000000000000004
148
0.0
 69
0
 70
0
 71
0
 72
0
 73
0
 74
0
 75
0
 76
0
 77
1
 78
12
 79
3
170
0
171
3
172
1
173
0
174
0
175
0
176
0
177
0
178
0
179
2
271
2
272
2
273
2
274
3
275
0
276
0
277
2
278
46
279
2
280
0
281
0
282
0
283
0
284
8
285
0
286
0
288
1
289
3
290
0
340
4C
371
-2
372
-2
  0
DIMSTYLE
105
80
330
4
100
AcDbSymbolTableRecord
100
AcDbDimStyleTableRecord
  2
EZ_M_10_H25_CM
 70
0
 40
1.0
 41
0.025
 42
0.0125
 43
3.75
 44
0.037500000000000006
 45
0.0
 46
0.0
 47
0.0
 48
0.0
 49
2.5
140
0.025
141
2.5
142
0.0125
143
0.03937007874
144
100.0
145
0.0
146
0.5
147
0.010000000000000002
148
0.0
 69
0
 70
0
 71
0
 72
0
 73
0
 74
0
 75
0
 76
0
 77
1
 78
12
 79
3
170
0
171
3
172
1
173
0
174
0
175
0
176
0
177
0
178
0
179
2
271
2
272
2
273
2
274
3
275
0
276
0
277
2
278
46
279
2
280
0
281
0
282
0
283
0
284
8
285
0
286
0
288
1
289
3
290
0
340
4C
371
-2
372
-2
  0
DIMSTYLE
105
81
330
4
100
AcDbSymbolTableRecord
100
AcDbDimStyleTableRecord
  2
EZ_M_5_H25_CM
 70
0
 40
1.0
 41
0.0125
 42
0.00625
 43
3.75
 44
0.018750000000000003
 45
0.0
 46
0.0
 47
0.0
 48
0.0
 49
2.5
140
0.0125
141
2.5
142
0.00625
143
0.03937007874
144
100.0
145
0.0
146
0.5
147
0.005000000000000001
148
0.0
 69
0
 70
0
 71
0
 72
0
 73
0
 74
0
 75
0
 76
0
 77
1
 78
12
 79
3
170
0
171
3
172
1
173
0
174
0
175
0
176
0
177
0
178
0
179
2
271
2
272
2
273
2
274
3
275
0
276
0
277
2
278
46
279
2
280
0
281
0
282
0
283
0
284
8
285
0
286
0
288
1
289
3
290
0
340
4C
371
-2
372
-2
  0
DIMSTYLE
105
82
330
4
100
AcDbSymbolTableRecord
100
AcDbDimStyleTableRecord
  2
EZ_M_1_H25_CM
 70
0
 40
1.0
 41
0.0025
 42
0.00125
 43
3.75
 44
0.00375
 45
0.0
 46
0.0
 47
0.0
 48
0.0
 49
2.5
140
0.0025
141
2.5
142
0.00125
143
0.03937007874
144
100.0
145
0.0
146
0.5
147
0.001
148
0.0
 69
0
 70
0
 71
0
 72
0
 73
0
 74
0
 75
0
 76
0
 77
1
 78
12
 79
3
170
0
171
3
172
1
173
0
174
0
175
0
176
0
177
0
178
0
179
2
271
2
272
2
273
2
274
3
275
0
276
0
277
2
278
46
279
2
280
0
281
0
282
0
283
0
284
8
285
0
286
0
288
1
289
3
290
0
340
4C
371
-2
372
-2
  0
DIMSTYLE
105
83
330
4
100
AcDbSymbolTableRecord
100
AcDbDimStyleTableRecord
  2
EZ_RADIUS
 70
0
 40
1.0
 41
0.25
 42
0.125
 43
3.75
 44
0.375
 45
0.0
 46
0.0
 47
0.0
 48
0.0
 49
2.5
140
0.25
141
0.0
142
0.0
143
0.03937007874
144
100.0
145
0.0
146
0.5
147
0.1
148
0.0
 69
0
 70
0
 71
0
 72
0
 73
0
 74
0
 75
0
 76
0
 77
1
 78
12
 79
3
170
0
171
3
172
0
173
0
174
0
175
0
176
0
177
0
178
0
179
2
271
2
272
2
273
2
274
3
275
0
276
0
277
2
278
46
279
1
280
0
281
0
282
0
283
0
284
8
285
0
286
0
288
1
289
3
290
0
340
4C
342
84
371
-2
372
-2
  0
DIMSTYLE
105
88
330
4
100
AcDbSymbolTableRecord
100
AcDbDimStyleTableRecord
  2
EZ_RADIUS_INSIDE
 70
0
 40
1.0
 41
0.25
 42
0.125
 43
3.75
 44
0.375
 45
0.0
 46
0.0
 47
0.0
 48
0.0
 49
2.5
140
0.25
141
0.0
142
0.0
143
0.03937007874
144
100.0
145
0.0
146
0.5
147
0.1
148
0.0
 69
0
 70
0
 71
0
 72
0
 73
0
 74
0
 75
0
 76
0
 77
0
 78
12
 79
3
170
0
171
3
172
0
173
0
174
1
175
0
176
0
177
0
178
0
179
2
271
2
272
2
273
2
274
3
275
0
276
0
277
2
278
46
279
0
280
0
281
0
282
0
283
0
284
8
285
0
286
0
288
1
289
0
290
0
340
4C
342
84
371
-2
372
-2
  0
DIMSTYLE
105
89
330
4
100
AcDbSymbolTableRecord
100
AcDbDimStyleTableRecord
  2
EZ_CURVED
 70
0
 40
1.0
 41
0.25
 42
0.125
 43
3.75
 44
0.375
 45
0.0
 46
0.0
 47
0.0
 48
0.0
 49
2.5
140
0.25
141
2.5
142
0.0
143
0.03937007874
144
100.0
145
0.0
146
0.5
147
0.1
148
0.0
 69
0
 70
0
 71
0
 72
0
 73
0
 74
0
 75
0
 76
0
 77
1
 78
12
 79
2
 90
2
170
0
171
3
172
1
173
0
174
0
175
0
176
0
177
0
178
0
179
2
271
2
272
2
273
2
274
3
275
0
276
0
277
2
278
46
279
2
280
0
281
0
282
0
283
0
284
8
285
0
286
0
288
1
289
3
290
0
340
4C
371
-2
372
-2
  0
ENDTAB
  0
TABLE
  2
BLOCK_RECORD
  5
9
330
0
100
AcDbSymbolTable
 70
5
  0
BLOCK_RECORD
  5
17
330
9
100
AcDbSymbolTableRecord
100
AcDbBlockTableRecord
  2
*Model_Space
340
1A
 70
0
280
1
281
0
  0
BLOCK_RECORD
  5
1B
330
9
100
AcDbSymbolTableRecord
100
AcDbBlockTableRecord
  2
*Paper_Space
340
1E
 70
0
280
1
281
0
  0
BLOCK_RECORD
  5
74
330
9
100
AcDbSymbolTableRecord
100
AcDbBlockTableRecord
  2
_ARCHTICK
340
0
 70
0
280
1
281
0
  0
BLOCK_RECORD
  5
78
330
9
100
AcDbSymbolTableRecord
100
AcDbBlockTableRecord
  2
_CLOSEDFILLED
340
0
 70
0
280
1
281
0
  0
BLOCK_RECORD
  5
84
330
9
100
AcDbSymbolTableRecord
100
AcDbBlockTableRecord
  2
_CLOSEDBLANK
340
0
 70
0
280
1
281
0
  0
ENDTAB
  0
ENDSEC
  0
SECTION
  2
BLOCKS
  0
BLOCK
  5
18
330
17
100
AcDbEntity
  8
0
100
AcDbBlockBegin
  2
*Model_Space
 70
0
 10
0.0
 20
0.0
 30
0.0
  3
*Model_Space
  1

  0
ENDBLK
  5
19
330
17
100
AcDbEntity
  8
0
100
AcDbBlockEnd
  0
BLOCK
  5
1C
330
1B
100
AcDbEntity
  8
0
100
AcDbBlockBegin
  2
*Paper_Space
 70
0
 10
0.0
 20
0.0
 30
0.0
  3
*Paper_Space
  1

  0
ENDBLK
  5
1D
330
1B
100
AcDbEntity
  8
0
100
AcDbBlockEnd
  0
BLOCK
  5
75
330
74
100
AcDbEntity
  8
0
100
AcDbBlockBegin
  2
_ARCHTICK
 70
0
 10
0.0
 20
0.0
 30
0.0
  3
_ARCHTICK
  1

  0
LWPOLYLINE
  5
77
330
74
100
AcDbEntity
  8
0
  6
BYBLOCK
 62
0
100
AcDbPolyline
 90
2
 70
0
 43
0.15
 10
-0.5
 20
-0.5
 10
0.5
 20
0.5
  0
ENDBLK
  5
76
330
74
100
AcDbEntity
  8
0
100
AcDbBlockEnd
  0
BLOCK
  5
79
330
78
100
AcDbEntity
  8
0
100
AcDbBlockBegin
  2
_CLOSEDFILLED
 70
0
 10
0.0
 20
0.0
 30
0.0
  3
_CLOSEDFILLED
  1

  0
SOLID
  5
7B
330
78
100
AcDbEntity
  8
0
  6
BYBLOCK
 62
0
100
AcDbTrace
 10
-1.0
 20
0.16439898372402537
 30
0.0
 11
0.0
 21
0.0
 31
0.0
 12
-1.0
 22
-0.16439898372402537
 32
0.0
 13
-1.0
 23
-0.16439898372402537
 33
0.0
  0
ENDBLK
  5
7A
330
78
100
AcDbEntity
  8
0
100
AcDbBlockEnd
  0
BLOCK
  5
85
330
84
100
AcDbEntity
  8
0
100
AcDbBlockBegin
  2
_CLOSEDBLANK
 70
0
 10
0.0
 20
0.0
 30
0.0
  3
_CLOSEDBLANK
  1

  0
LWPOLYLINE
  5
87
330
84
100
AcDbEntity
  8
0
  6
BYBLOCK
 62
0
100
AcDbPolyline
 90
3
 70
1
 10
-1.0
 20
0.16439898372402537
 10
0.0
 20
0.0
 10
-1.0
 20
-0.16439898372402537
  0
ENDBLK
  5
86
330
84
100
AcDbEntity
  8
0
100
AcDbBlockEnd
  0
ENDSEC
  0
SECTION
  2
ENTITIES
  0
LWPOLYLINE
  5
8D
330
17
100
AcDbEntity
  8
OUTLINE
100
AcDbPolyline
 90
830
 70
1
 10
95.30086645382455
 20
-43.888677149093155
 10
95.25765510056591
 20
-44.17998443045989
 10
95.23367834707531
 20
-44.3743828120293
 10
95.20481281459546
 20
-44.667459481626395
 10
95.18768292503368
 20
-44.89968372857338
 10
95.1786529278748
 20
-45.046665064206984
 10
95.17294708836411
 20
-45.1628100956401
 10
95.16978551806504
 20
-45.23637280395649
 10
95.16685078809756
 20
-45.31605122343133
 10
95.16342867640655
 20
-45.44901649128739
 10
95.16064358077891
 20
-45.63915245321068
 10
95.16000000000003
 20
-45.727030523002604
 10
95.16000000000003
 20
-86.70978399511445
 10
95.16045178896515
 20
-86.78341322482812
 10
95.16143022874614
 20
-86.86313966853118
 10
95.16453653559856
 20
-86.99611268896186
 10
95.17108432419818
 20
-87.1861562819578
 10
95.1747534911496
 20
-87.27396007777791
 10
95.17865292787477
 20
-87.35333493579267
 10
95.18768292503368
 20
-87.50031627142651
 10
95.2048128145955
 20
-87.73254051837391
 10
95.23367834707531
 20
-88.02561718797048
 10
95.25765510056596
 20
-88.2200155695403
 10
95.30086645382465
 20
-88.51132285090743
 10
95.3343530027421
 20
-88.70431058758003
 10
95.39180607684457
 20
-88.99314669595941
 10
95.43472174915985
 20
-89.184258863376
 10
95.50627813461833
 20
-89.46992796728391
 10
95.55851954271742
 20
-89.65870415949173
 10
95.64400685393183
 20
-89.94051805703567
 10
95.70544814368701
 20
-90.12650349565362
 10
95.80466043423685
 20
-90.40378327247035
 10
95.8751535881995
 20
-90.5865299022864
 10
95.98785184698671
 20
-90.85860756710635
 10
96.06722704097427
 20
-91.03767513548215
 10
96.19313976802245
 20
-91.30389522938002
 10
96.28120578024063
 20
-91.47885234685987
 10
96.42002964076126
 20
-91.73857352231057
 10
96.51657431247214
 20
-91.9089987018725
 10
96.66797486762644
 20
-92.16159526781684
 10
96.77276561426054
 20
-92.32707794027745
 10
96.93637812684919
 20
-92.57194136946178
 10
97.04916249831865
 20
-92.73208287256756
 10
97.22459281146834
 20
-92.96862326754402
 10
97.34509910034348
 20
-93.12303780638719
 10
97.53192458706441
 20
-93.35068532062635
 10
97.65986248314078
 20
-93.49900089705841
 10
97.85763306447062
 20
-93.71720710775784
 10
97.99269435414955
 20
-93.85906641656315
 10
98.20093358343608
 20
-94.0673056458497
 10
98.34279289224226
 20
-94.20236693552947
 10
98.56099910294199
 20
-94.40013751685956
 10
98.7093146793737
 20
-94.52807541293564
 10
98.93696219361273
 20
-94.71490089965647
 10
99.09137673245604
 20
-94.83540718853172
 10
99.32791712743264
 20
-95.01083750168151
 10
99.4880586305384
 20
-95.12362187315095
 10
99.73292205972304
 20
-95.2872343857398
 10
99.89840473218341
 20
-95.39202513237372
 10
100.1510012981271
 20
-95.54342568752763
 10
100.32142647768929
 20
-95.63997035923867
 10
100.58114765314039
 20
-95.77879421975952
 10
100.75610477061994
 20
-95.86686023197754
 10
101.0223248645177
 20
-95.99277295902566
 10
101.20139243289398
 20
-96.07214815301343
 10
101.47347009771413
 20
-96.18484641180073
 10
101.65621672752998
 20
-96.2553395657633
 10
101.93349650434621
 20
-96.35455185631295
 10
102.11948194296417
 20
-96.41599314606815
 10
102.40129584050818
 20
-96.50148045728258
 10
102.59007203271588
 20
-96.55372186538165
 10
102.87574113662417
 20
-96.62527825084021
 10
103.06685330404079
 20
-96.66819392315548
 10
103.35568941242018
 20
-96.72564699725797
 10
103.54867714909297
 20
-96.75913354617545
 10
103.83998443045961
 20
-96.80234489943408
 10
104.03438281202922
 20
-96.8263216529247
 10
104.32745948162636
 20
-96.85518718540456
 10
104.5596837285735
 20
-96.87231707496636
 10
104.70666506420685
 20
-96.88134707212524
 10
104.82281009563867
 20
-96.88705291163586
 10
104.89637280395623
 20
-96.89021448193498
 10
104.97605122343252
 20
-96.8931492119025
 10
105.10901649128759
 20
-96.89657132359348
 10
105.29915245321055
 20
-96.89935641922112
 10
105.38703052300264
 20
-96.9
 10
126.55610501752096
 20
-96.9
 10
126.70022871040096
 20
-96.90346444051411
 10
128.88378103926374
 20
-97.0085014492542
 10
129.17057314353238
 20
-97.03615698242312
 10
131.26258569556757
 20
-97.3399337214819
 10
131.54539908202622
 20
-97.39498940261939
 10
133.59859416563518
 20
-97.89816608501786
 10
133.8748171922328
 20
-97.98011350207949
 10
135.8702345641019
 20
-98.6780435394812
 10
136.13731644750828
 20
-98.78612594851276
 10
138.0565294129781
 20
-99.67236430146167
 10
138.3120037838083
 20
-99.8055836147558
 10
140.13728935830417
 20
-100.87194630943488
 10
140.37879703682498
 20
-101.02907231237954
 10
142.0932996088728
 20
-102.26571201556972
 10
142.31861039086021
 20
-102.44529372707139
 10
143.90649737534133
 20
-103.84079068141509
 10
144.1135306269184
 20
-104.0411697529946
 10
145.56013867117753
 20
-105.58263723281748
 10
145.74698254244004
 20
-105.80196326263903
 10
147.0389529351119
 20
-107.47516657650296
 10
147.2038820151191
 20
-107.7114141969219
 10
148.32928404723503
 20
-109.50090213797537
 10
148.47077529732817
 20
-109.75188971880914
 10
149.45157556187056
 20
-111.7055950157157
 10
149.51314157610568
 20
-111.83595324172633
 10
158.3077163008039
 20
-131.6786963427392
 10
158.32340225934348
 20
-131.71378395836584
 10
158.36591577579375
 20
-131.80806994551548
 10
158.4014207145752
 20
-131.88534617000423
 10
158.44034625802388
 20
-131.9685086732812
 10
158.51792718381427
 20
-132.1280686619452
 10
158.57078349724534
 20
-132.232810810997
 10
158.61109445188492
 20
-132.3112538219693
 10
158.63449833537732
 20
-132.35598479142413
 10
158.70445312835258
 20
-132.4857788652859
 10
158.73215196061378
 20
-132.53569289247494
 10
158.80480780158803
 20
-132.6629335109661
 10
158.84561025200986
 20
-132.73240604076375
 10
158.92221258877635
 20
-132.85922157094157
 10
158.95577591651525
 20
-132.9132666720925
 10
159.0311827072764
 20
-133.0315806075541
 10
159.08312414189416
 20
-133.11101262243739
 10
159.16907734861118
 20
-133.23884440469433
 10
159.2004656717234
 20
-133.28425591849333
 10
159.28524793774682
 20
-133.40376903024236
 10
159.33267267254533
 20
-133.4689205028205
 10
159.42133981430652
 20
-133.5876218575019
 10
159.46003769770903
 20
-133.63811536720664
 10
159.54667691263586
 20
-133.748466779967
 10
159.60615393400724
 20
-133.822425157114
 10
159.70422295826782
 20
-133.94121650686162
 10
159.73991124470598
 20
-133.98333275809244
 10
159.83599959439175
 20
-134.09396026627948
 10
159.8895819272155
 20
-134.1541495798871
 10
159.98945687983294
 20
-134.26358845546957
 10
160.0329176517981
 20
-134.3100457692794
 10
160.12995600514768
 20
-134.41137368175143
 10
160.1963958170188
 20
-134.47914616152974
 10
160.3056362005197
 20
-134.58775305314475
 10
160.345280752617
 20
-134.62616843933992
 10
160.45174980263036
 20
-134.7268449405824
 10
160.51097370626502
 20
-134.78149243914922
 10
160.62109461930314
 20
-134.88061487937816
 10
160.6688997288366
 20
-134.92258858795455
 10
160.77540268819826
 20
-135.0139171569268
 10
160.84816543884315
 20
-135.07485105329962
 10
160.96752513693798
 20
-135.17222754301764
 10
161.01074415592942
 20
-135.20657210296216
 10
161.1265685511093
 20
-135.29632802751405
 10
161.19086366705503
 20
-135.34490742581076
 10
161.31017001597348
 20
-135.43275882744265
 10
161.36185907371694
 20
-135.46984470100674
 10
161.47680095739983
 20
-135.55029438245725
 10
161.55518590180895
 20
-135.60380286874025
 10
161.6835154154309
 20
-135.68901116779233
 10
161.72989267864932
 20
-135.71895414468514
 10
161.8539569667692
 20
-135.79692509393507
 10
161.9227040977882
 20
-135.83896854570494
 10
162.05004689713917
 20
-135.91470285165096
 10
162.10512210921587
 20
-135.9465437329713
 10
162.22739596400842
 20
-136.0153397524626
 10
162.31064821226994
 20
-136.0609075126498
 10
162.44671165797803
 20
-136.1331270184893
 10
162.4958005269072
 20
-136.15838004501748
 10
162.62690990103175
 20
-136.22381511609214
 10
162.69944697480054
 20
-136.2589177199937
 10
162.83359984390577
 20
-136.32180556754483
 10
162.89153080593036
 20
-136.34809481153476
 10
163.01995906779484
 20
-136.40457462580784
 10
163.10727685526209
 20
-136.44176281747065
 10
163.2497638677359
 20
-136.50029801680162
 10
163.30109158980525
 20
-136.52061789255674
 10
163.437983395004
 20
-136.57288690995765
 10
163.51361183977653
 20
-136.6007106086836
 10
163.65328281312102
 20
-136.65014635346063
 10
163.7135116182468
 20
-136.67063078032103
 10
163.84685745281206
 20
-136.71425045788644
 10
163.93739986146545
 20
-136.7427009384138
 10
164.08493821287044
 20
-136.78698810526234
 10
164.1380104740376
 20
-136.80217913872357
 10
164.27936636739906
 20
-136.84077872324102
 10
164.35735783993252
 20
-136.86105555937132
 10
164.50120180970305
 20
-136.89656310813191
 10
164.56314842160515
 20
-136.91104544163238
 10
164.70012763558717
 20
-136.9413849011487
 10
164.79302269254646
 20
-136.96082367686296
 10
164.9441915079215
 20
-136.99043630160617
 10
164.99849719331732
 20
-137.00035219482103
 10
165.1429558403041
 20
-137.0249106113515
 10
165.2225592400489
 20
-137.03744530786182
 10
165.36919091016333
 20
-137.05868270349697
 10
165.43225874905988
 20
-137.06702347084448
 10
165.57155215777058
 20
-137.0837905267339
 10
165.6659052329417
 20
-137.0940303916059
 10
165.81924867402242
 20
-137.10868328848252
 10
165.87426479030998
 20
-137.11322854598356
 10
166.02043497519284
 20
-137.12350928355025
 10
166.10088367776717
 20
-137.12818112445714
 10
166.24889090498806
 20
-137.13494383923478
 10
166.3124725931871
 20
-137.13706271429308
 10
166.45273872485836
 20
-137.14009589063625
 10
166.54764114635486
 20
-137.1410382291507
 10
166.70168243177733
 20
-137.1405902827447
 10
166.75687914335342
 20
-137.13972113120326
 10
166.90335316732882
 20
-137.1356251806903
 10
166.98387240816464
 20
-137.13238917362887
 10
167.1318298022897
 20
-137.12461207891877
 10
167.19531301337494
 20
-137.12048865575886
 10
167.33520102865242
 20
-137.10975874140925
 10
167.4297388344516
 20
-137.10139447833285
 10
167.5829944626842
 20
-137.08585000260467
 10
167.6378401954878
 20
-137.07957481241303
 10
167.78320743366558
 20
-137.06114162005085
 10
167.86302176791207
 20
-137.0500289295553
 10
168.00950441796041
 20
-137.0277869230463
 10
168.07227777383065
 20
-137.01746091249527
 10
168.2104404745003
 20
-136.99307124240252
 10
168.30370321378325
 20
-136.9754809301609
 10
168.45469724916245
 20
-136.94498962692614
 10
168.50866380846637
 20
-136.9333688316258
 10
168.65152429484567
 20
-136.90077591914434
 10
168.72986506723578
 20
-136.88189356646274
 10
168.8734622654973
 20
-136.84540085080891
 10
168.93492122453083
 20
-136.8289716979753
 10
169.07002802832005
 20
-136.79115715799006
 10
169.16111752985555
 20
-136.76451020092463
 10
169.30839581731055
 20
-136.7193657181027
 10
169.36096952925126
 20
-136.70250929139272
 10
169.49994387639205
 20
-136.65607178543277
 10
169.57604512742154
 20
-136.6296056692446
 10
169.71524946324982
 20
-136.57926055865394
 10
169.80349388886384
 20
-136.5461092282228
 10
169.88134468019723
 20
-136.51624361049716
 10
169.89729062075108
 20
-136.50999887605803
 10
170.1371490564462
 20
-136.41002232713404
 10
183.91654191110067
 20
-130.3130592598806
 10
184.0607366910841
 20
-130.2536900091298
 10
186.27218050758188
 20
-129.409713076124
 10
186.5690014895188
 20
-129.3138036296104
 10
188.85609270515414
 20
-128.70419969794705
 10
189.00791976560154
 20
-128.66793512932173
 10
200.63842074376237
 20
-126.20796920071972
 10
200.79207927547236
 20
-126.17962865085157
 10
203.132430693989
 20
-125.81072826514917
 10
203.4429711284779
 20
-125.77823927148005
 10
205.80899812948738
 20
-125.65475450634644
 10
205.96519515540504
 20
-125.6506777149215
 10
220.81592992260212
 20
-125.65000465509554
 10
220.85575271257957
 20
-125.6498706942152
 10
220.9623272599142
 20
-125.64915849887635
 10
221.0481695133882
 20
-125.64797064354605
 10
221.13788372347292
 20
-125.64608717259614
 10
221.31519112962854
 20
-125.63974099897972
 10
221.43236428105018
 20
-125.63381140436196
 10
221.52041098172066
 20
-125.62870674617382
 10
221.570787187807
 20
-125.6254144442523
 10
221.71778955068905
 20
-125.61399166092578
 10
221.77464381209745
 20
-125.60887029596034
 10
221.92040475213128
 20
-125.59394399098288
 10
222.0004478552951
 20
-125.5847584593899
 10
222.14741772656524
 20
-125.56605141184532
 10
222.21042350194872
 20
-125.55723993104831
 10
222.3491355709709
 20
-125.53618444896617
 10
222.44279489134783
 20
-125.52084530526963
 10
222.59447946066018
 20
-125.49399926762776
 10
222.64871023353808
 20
-125.4836815310923
 10
222.7923142263983
 20
-125.45453861175656
 10
222.87108702430172
 20
-125.43754843344573
 10
223.0155214351115
 20
-125.40452458445044
 10
223.0773582351986
 20
-125.38958032610867
 10
223.21333654794086
 20
-125.35503056016155
 10
223.30504137408295
 20
-125.33058505988843
 10
223.45336416886195
 20
-125.2890006055502
 10
223.5063224906428
 20
-125.27341700648306
 10
223.64637848540983
 20
-125.23033876555195
 10
223.7231066421606
 20
-125.20570931517884
 10
223.8636086586286
 20
-125.15868743710908
 10
223.92368290418108
 20
-125.13775407313501
 10
224.05561997494266
 20
-125.09004246838542
 10
224.1444871392342
 20
-125.05672603507075
 10
224.2880197299262
 20
-125.00080364505307
 10
224.33919558312624
 20
-124.98010426200479
 10
224.47435476401262
 20
-124.92350556648366
 10
224.54829934538805
 20
-124.89147403915335
 10
224.68351585619646
 20
-124.83090697842536
 10
224.7412489993716
 20
-124.80418610855973
 10
224.86787420199678
 20
-124.74377215385847
 10
224.95304786505127
 20
-124.70190564297941
 10
225.09040795430215
 20
-124.63218388049036
 10
225.13930848738423
 20
-124.60656805987878
 10
225.2682691975863
 20
-124.53699398615089
 10
225.33871807696423
 20
-124.49786886292588
 10
225.46734687328706
 20
-124.42433991340002
 10
225.52218291238478
 20
-124.39208887420746
 10
225.64227677697826
 20
-124.31955438895275
 10
225.7229366698541
 20
-124.26954099790672
 10
225.85280140494018
 20
-124.18669132162526
 10
225.89895567910352
 20
-124.15640575777986
 10
226.0204759564886
 20
-124.07452634220544
 10
226.0867506725653
 20
-124.02868441944531
 10
226.2075529887095
 20
-123.94290170513138
 10
226.2589638226662
 20
-123.90543109176129
 10
226.37136977965002
 20
-123.82147462270561
 10
226.44673910350687
 20
-123.76379600778397
 10
226.56785781602946
 20
-123.66861630539455
 10
226.6108213403466
 20
-123.63395266488189
 10
226.72373087821828
 20
-123.54055645099055
 10
226.78519316929842
 20
-123.48843921142885
 10
226.89700561296368
 20
-123.39122886672445
 10
226.944496127324
 20
-123.34889954168187
 10
227.04813164592562
 20
-123.25432963548138
 10
227.11748455303817
 20
-123.18954127322105
 10
227.22869080366118
 20
-123.08294817721902
 10
227.26804981604462
 20
-123.04424028972237
 10
227.37126123382458
 20
-122.94022673410849
 10
227.42731918426685
 20
-122.88233609541544
 10
227.52906494036614
 20
-122.77463430920265
 10
227.57217777547598
 20
-122.72785392707449
 10
227.6660447889383
 20
-122.62358134367814
 10
227.72871337288936
 20
-122.55230718141985
 10
227.82893618457433
 20
-122.43532724163445
 10
227.86431163609697
 20
-122.39294788537764
 10
227.9568309514186
 20
-122.27931869543795
 10
228.00694469267458
 20
-122.21621217596878
 10
228.0976438940727
 20
-122.09905617521909
 10
228.13596384983367
 20
-122.04827525658723
 10
228.21915836754044
 20
-121.93530419793561
 10
228.27453909555678
 20
-121.85823064487579
 10
228.36281326783185
 20
-121.7319904420826
 10
228.39386447357933
 20
-121.6863477534099
 10
228.4748006748496
 20
-121.56419724037056
 10
228.51848758416173
 20
-121.49648259044409
 10
228.5971614089512
 20
-121.37117312527921
 10
228.6311081150699
 20
-121.3155935689095
 10
228.6391863712421
 20
-121.30395832190491
 10
228.7134839294906
 20
-121.18495071884007
 10
229.8904742523767
 20
-119.39494694166905
 10
230.0565401059234
 20
-119.16658764455234
 10
231.35247811796987
 20
-117.55037741656723
 10
231.5392886913659
 20
-117.33865201430925
 10
232.9815124172771
 20
-115.85151329968706
 10
233.18741102481493
 20
-115.6582994293052
 10
234.76313044210764
 20
-114.31342056856055
 10
234.98629112033018
 20
-114.14043170189875
 10
236.68153233132557
 20
-112.94973943743531
 10
236.91997603215606
 20
-112.79850968563977
 10
238.7197051882121
 20
-111.7725633922339
 10
238.971317329675
 20
-111.64443390085054
 10
240.85957395534163
 20
-110.79233194231657
 10
241.1221231742385
 20
-110.68843899765507
 10
243.08216170898743
 20
-110.0177380401415
 10
243.35331964921582
 20
-109.93900299238801
 10
245.367757951513
 20
-109.45565098985789
 10
245.64511991254736
 20
-109.40277208229656
 10
247.69609340929222
 20
-109.11105552849496
 10
247.97719967170474
 20
-109.08450170530175
 10
250.1171190647365
 20
-108.98368140088448
 10
250.25835675492172
 20
-108.98035779274161
 10
287.4904745643634
 20
-108.98124753138009
 10
287.5305776939149
 20
-108.98111446650195
 10
287.63754091868833
 20
-108.98040208013408
 10
287.72351814540906
 20
-108.9792133243427
 10
287.81288372357807
 20
-108.97733717260621
 10
287.9901911292964
 20
-108.97099099899789
 10
288.1073642809974
 20
-108.96506140436529
 10
288.19541098165496
 20
-108.95995674617745
 10
288.2457871878546
 20
-108.95666444424833
 10
288.39278955084114
 20
-108.94524166091182
 10
288.4496438123719
 20
-108.94012029593414
 10
288.5954047523805
 20
-108.92519399095639
 10
288.6754478553871
 20
-108.91600845938005
 10
288.8224177265424
 20
-108.89730141184896
 10
288.88542350192745
 20
-108.88848993105186
 10
289.024135570931
 20
-108.86743444897306
 10
289.11779489129316
 20
-108.85209530527943
 10
289.2694794605743
 20
-108.82524926764431
 10
289.32371023339084
 20
-108.81493153112112
 10
289.467314226253
 20
-108.78578861178654
 10
289.54608702424036
 20
-108.76879843345843
 10
289.69052143511203
 20
-108.73577458444976
 10
289.7523582352606
 20
-108.72083032609311
 10
289.88833654799754
 20
-108.68628056014735
 10
289.98004137405513
 20
-108.66183505989682
 10
290.128364168783
 20
-108.62025060557373
 10
290.18132249051143
 20
-108.60466700652255
 10
290.32137848527964
 20
-108.5615887655925
 10
290.3981066421031
 20
-108.53695931519685
 10
290.5386086586191
 20
-108.48993743711183
 10
290.5986829042118
 20
-108.46900407312383
 10
290.730619974983
 20
-108.42129246837077
 10
290.8194871392316
 20
-108.3879760350721
 10
290.9630197298999
 20
-108.3320536450639
 10
291.0141955830759
 20
-108.31135426202555
 10
291.1493547639618
 20
-108.25475556650518
 10
291.2232993453665
 20
-108.22272403916251
 10
291.35851585619247
 20
-108.16215697842698
 10
291.4162489993496
 20
-108.13543610856972
 10
291.54287420199853
 20
-108.07502215385686
 10
291.628047865096
 20
-108.03315564295626
 10
291.765407954391
 20
-107.9634338804434
 10
291.8143084875422
 20
-107.93781805979485
 10
291.9432691977501
 20
-107.86824398606164
 10
292.01371807704635
 20
-107.82911886288075
 10
292.14234687331026
 20
-107.75558991338721
 10
292.19718291238195
 20
-107.72333887420979
 10
292.3172767769555
 20
-107.65080438896703
 10
292.39793666984053
 20
-107.60079099791547
 10
292.5278014049196
 20
-107.51794132163886
 10
292.57395567906525
 20
-107.48765575780527
 10
292.6954759564525
 20
-107.40577634222987
 10
292.76175067255355
 20
-107.35993441945315
 10
292.88255298871036
 20
-107.27415170513046
 10
292.93396382266127
 20
-107.2366810917646
 10
293.0463697796635
 20
-107.1527246226948
 10
293.1217391035403
 20
-107.09504600775745
 10
293.2428578160869
 20
-106.99986630534791
 10
293.2858213404514
 20
-106.96520266479638
 10
293.39873087832297
 20
-106.87180645090332
 10
293.46019316934604
 20
-106.81968921138903
 10
293.572005612969
 20
-106.7224788667205
 10
293.6194961273056
 20
-106.68014954169907
 10
293.7231316458924
 20
-106.5855796355124
 10
293.79248455301746
 20
-106.5207912732408
 10
293.90369080363826
 20
-106.41419817724163
 10
293.9430498160001
 20
-106.37549028976652
 10
294.046261233787
 20
-106.27147673414635
 10
294.1023191842623
 20
-106.21358609541946
 10
294.204064940385
 20
-106.10588430918173
 10
294.24717777556464
 20
-106.05910392697754
 10
294.341044789001
 20
-105.95483134361001
 10
294.40371337284154
 20
-105.88355718147784
 10
294.5039361844467
 20
-105.76657724178884
 10
294.53931163586503
 20
-105.72419788565901
 10
294.6318309511781
 20
-105.6105686957358
 10
294.68194469256446
 20
-105.54746217610591
 10
294.77264389405735
 20
-105.43030617523718
 10
294.8109638498805
 20
-105.37952525652308
 10
294.894158367591
 20
-105.26655419786674
 10
294.9495390955387
 20
-105.18948064490255
 10
295.03781326778204
 20
-105.0632404421561
 10
295.0688644734963
 20
-105.01759775353318
 10
295.1498006747681
 20
-104.89544724049426
 10
295.193487584128
 20
-104.82773259049522
 10
295.27226674794287
 20
-104.70225065151654
 10
295.30542478221975
 20
-104.64795824439933
 10
295.37714559549033
 20
-104.52737668353087
 10
295.42470512090574
 20
-104.445246000092
 10
295.50018052525616
 20
-104.31096129641972
 10
295.5266084451669
 20
-104.262494839327
 10
295.5951820725252
 20
-104.13299937939986
 10
295.6320214210503
 20
-104.06132872816421
 10
295.6981218607866
 20
-103.92872931076275
 10
295.72579864354054
 20
-103.87144828080447
 10
295.7853550417073
 20
-103.74441748411664
 10
295.82463534032115
 20
-103.65802063361073
 10
295.8865851073449
 20
-103.51698466414815
 10
295.90813522608033
 20
-103.46616119713806
 10
295.9636858780141
 20
-103.33056790238278
 10
295.9933228827199
 20
-103.2556314773456
 10
296.04610801506624
 20
-103.11719158630912
 10
296.06803700377816
 20
-103.05747358111186
 10
296.1148554261908
 20
-102.92521692457332
 10
296.1454782072352
 20
-102.83538595590052
 10
296.19330572680167
 20
-102.6889569741236
 10
296.2097705049602
 20
-102.6362659548777
 10
296.25176319832246
 20
-102.49588066284025
 10
296.27391243861547
 20
-102.41840014287773
 10
296.3128739138596
 20
-102.27545303015731
 10
296.3288439203964
 20
-102.21387316673413
 10
296.3624734800309
 20
-102.07766435432828
 10
296.38414382934593
 20
-101.98526438892868
 10
296.4173884962686
 20
-101.83485258608067
 10
296.4286093689656
 20
-101.78080145815878
 10
296.4566396911642
 20
-101.63697615596142
 10
296.4710878578488
 20
-101.5576977205018
 10
296.4958504557572
 20
-101.4116200446835
 10
296.50570768025705
 20
-101.348771370609
 10
296.52582450609003
 20
-101.20992216760312
 10
296.538333726347
 20
-101.11584306783496
 10
296.5566753763104
 20
-100.96289699188503
 10
296.56254495627627
 20
-100.9079999761894
 10
296.57634265066423
 20
-100.76212353960027
 10
296.58294965103545
 20
-100.6818228342743
 10
296.59326735461764
 20
-100.53415421103446
 10
296.5986772557551
 20
-100.44004351936947
 10
296.60288402097666
 20
-100.35676684809083
 10
296.60361400282414
 20
-100.34000550156391
 10
296.6092961117131
 20
-100.07928594056476
 10
296.61249527582476
 20
-43.95313659193596
 10
296.6123622189822
 20
-43.91283484793556
 10
296.61165208012795
 20
-43.80620908154942
 10
296.6104633243344
 20
-43.720231854528585
 10
296.60858717259225
 20
-43.63086627609801
 10
296.6022409989823
 20
-43.45355887035303
 10
296.59631140436915
 20
-43.33638571905017
 10
296.5912067461837
 20
-43.2483390184371
 10
296.5879144442496
 20
-43.19796281216035
 10
296.5764916609195
 20
-43.05096044924284
 10
296.5713702959491
 20
-42.99410618778515
 10
296.5564439909708
 20
-42.84834524775552
 10
296.5472584593837
 20
-42.76830214464854
 10
296.52855141184386
 20
-42.621332273420464
 10
296.51973993104195
 20
-42.55832649800231
 10
296.4986844489703
 20
-42.41961442904508
 10
296.48334530529354
 20
-42.32595510878282
 10
296.456499267675
 20
-42.174270539584775
 10
296.44618153117307
 20
-42.12003976687442
 10
296.41703861184254
 20
-41.976435774017574
 10
296.40004843348527
 20
-41.897662975887336
 10
296.36702458445427
 20
-41.75322856491084
 10
296.3520803260793
 20
-41.69139176468594
 10
296.3175305601343
 20
-41.5554134519505
 10
296.2930850599092
 20
-41.463708625987366
 10
296.2515006055998
 20
-41.31538583130469
 10
296.2359170065671
 20
-41.26242750963699
 10
296.1928387656402
 20
-41.12237151487368
 10
296.16820931521625
 20
-41.04564335795908
 10
296.1211874371079
 20
-40.90514134137091
 10
296.10025407307404
 20
-40.845067095646954
 10
296.0525424683428
 20
-40.71313002493449
 10
296.0192260351285
 20
-40.624262860908466
 10
295.96330364518894
 20
-40.480730270406184
 10
295.9426042622468
 20
-40.429554417462256
 10
295.88600556673686
 20
-40.29439523658609
 10
295.8539740392619
 20
-40.22045065486768
 10
295.79340697842457
 20
-40.08523414380718
 10
295.7666861084967
 20
-40.02750100049767
 10
295.7062721537729
 20
-39.90087579782699
 10
295.6644056429536
 20
-39.81570213489619
 10
295.5946838804774
 20
-39.678342045672956
 10
295.56906805985307
 20
-39.62944151256701
 10
295.4994939861291
 20
-39.50048080237334
 10
295.46036886292006
 20
-39.43003192302465
 10
295.3868399134074
 20
-39.30140312672513
 10
295.3545888742248
 20
-39.24656708764414
 10
295.28205438897237
 20
-39.126473223053836
 10
295.2320409979155
 20
-39.04581333016007
 10
295.1491913216362
 20
-38.915948595076614
 10
295.11890575779944
 20
-38.869794320926175
 10
295.0370263422185
 20
-38.74827404353098
 10
294.99118441944506
 20
-38.68199932743494
 10
294.905401705121
 20
-38.561197011276654
 10
294.8679310917347
 20
-38.50978617729794
 10
294.7839746226729
 20
-38.39738022030655
 10
294.7262960077681
 20
-38.32201089647232
 10
294.6311163053876
 20
-38.20089218396165
 10
294.5964526648752
 20
-38.157928659644945
 10
294.5030564509901
 20
-38.04501912178091
 10
294.4509392114357
 20
-37.98355683070934
 10
294.353728866744
 20
-37.871744387058186
 10
294.31139954171545
 20
-37.82425387271326
 10
294.2168296355153
 20
-37.72061835411127
 10
294.1520412732402
 20
-37.651265446982386
 10
294.04544817722694
 20
-37.5400591963472
 10
294.00674028972406
 20
-37.50070018395736
 10
293.9027267341045
 20
-37.397488766171705
 10
293.84483609540916
 20
-37.34143081572731
 10
293.73713430918866
 20
-37.23968505962102
 10
293.6903539270779
 20
-37.19657222452743
 10
293.5860813436679
 20
-37.102705211053525
 10
293.51480718137265
 20
-37.040036627070634
 10
293.39782724155407
 20
-36.93981381535897
 10
293.3554478852447
 20
-36.904438363793346
 10
293.24181869530275
 20
-36.811919048472234
 10
293.1787121758991
 20
-36.761805307269555
 10
293.0615561751958
 20
-36.67110610590882
 10
293.01077525658013
 20
-36.63278615016027
 10
292.8978041979577
 20
-36.549591632474915
 10
292.82073064490874
 20
-36.494210904465966
 10
292.6944904421313
 20
-36.40593673220102
 10
292.64884775349753
 20
-36.37488552647958
 10
292.5266972404628
 20
-36.29394932521112
 10
292.45898259048136
 20
-36.25026241586283
 10
292.3335006515188
 20
-36.171483252058266
 10
292.2792082443921
 20
-36.138325217775545
 10
292.158626683547
 20
-36.06660440451843
 10
292.07649600014304
 20
-36.01904487912267
 10
291.9422112965073
 20
-35.943569474791246
 10
291.8937448394756
 20
-35.91714155491299
 10
291.7642493795474
 20
-35.84856792755223
 10
291.69257872823044
 20
-35.81172857898428
 10
291.5599793107742
 20
-35.74562813921958
 10
291.5026982807606
 20
-35.71795135643883
 10
291.3756674840775
 20
-35.65839495827401
 10
291.2892706336486
 20
-35.619114659694944
 10
291.14823466424104
 20
-35.557164892694225
 10
291.0974111972866
 20
-35.535614773981656
 10
290.96181790253127
 20
-35.48006412204598
 10
290.88688147742977
 20
-35.45042711731369
 10
290.748441586357
 20
-35.3976419849521
 10
290.6887235810575
 20
-35.375712996202274
 10
290.5564669245418
 20
-35.32889457379664
 10
290.466635956022
 20
-35.29827179280343
 10
290.3202069743539
 20
-35.25044427326944
 10
290.2675159552791
 20
-35.23397949516274
 10
290.12713066325495
 20
-35.19198680179998
 10
290.04965014306345
 20
-35.16983756143897
 10
289.906703030174
 20
-35.13087608614635
 10
289.8451231666242
 20
-35.114906079576635
 10
289.7089143541978
 20
-35.08127651993716
 10
289.6165143889396
 20
-35.059606170655556
 10
289.4661025861636
 20
-35.02636150374819
 10
289.412051458307
 20
-35.015140631064156
 10
289.26822615612
 20
-34.987110308866065
 10
289.18894772057865
 20
-34.97266214216563
 10
289.04287004469546
 20
-34.94789954424527
 10
288.9800213706137
 20
-34.93804231974424
 10
288.84117216757977
 20
-34.917925493907475
 10
288.7470930677912
 20
-34.9054162736482
 10
288.59414699179393
 20
-34.88707462368037
 10
288.53924997599347
 20
-34.88120504370397
 10
288.39337353938663
 20
-34.86740734931632
 10
288.3130728341959
 20
-34.86080034895745
 10
288.1654042110584
 20
-34.85048264538335
 10
288.0712935192233
 20
-34.84507274423592
 10
287.98801684802686
 20
-34.840865979017785
 10
287.97103560924285
 20
-34.840126420531554
 10
287.7108987425085
 20
-34.83444437314617
 10
267.06232151231734
 20
-34.83126211234039
 10
266.90304378361793
 20
-34.82700556635068
 10
264.48867140700776
 20
-34.698242877454355
 10
264.1718562095835
 20
-34.66439090061396
 10
261.86361008068064
 20
-34.29280459868594
 10
261.55217696190164
 20
-34.225519844227485
 10
259.2964043797224
 20
-33.6110553384478
 10
258.9938712022964
 20
-33.51109783642024
 10
256.8160527524494
 20
-32.66069594855733
 10
256.52583684779904
 20
-32.529194791364645
 10
254.37975556834593
 20
-31.41571862427199
 10
254.24022348374402
 20
-31.338548946310326
 10
254.1744669214163
 20
-31.299864310218346
 10
254.13040911988526
 20
-31.274196444731494
 10
254.12707181542334
 20
-31.27227109407451
 10
254.06902792434332
 20
-31.23921379881244
 10
254.03847403948805
 20
-31.22203721075999
 10
253.97941763771533
 20
-31.18927329911315
 10
253.92918054064316
 20
-31.161770864644257
 10
253.7993636541517
 20
-31.09275581466844
 10
253.72751435001857
 20
-31.05568015580207
 10
253.59457541358262
 20
-30.98915331611628
 10
253.53714632142447
 20
-30.96129816843321
 10
253.40977785887998
 20
-30.901355261427746
 10
253.32314646529193
 20
-30.86181888463107
 10
253.18172335126107
 20
-30.799465171249963
 10
253.13075736213418
 20
-30.777773854614303
 10
252.9947825348343
 20
-30.721860104234608
 10
252.91963534512814
 20
-30.69203013812593
 10
252.78079830331112
 20
-30.638899571998245
 10
252.7209082073913
 20
-30.616827275142747
 10
252.5882621283666
 20
-30.569700901643618
 10
252.49816250862546
 20
-30.538875879754098
 10
252.35129281969108
 20
-30.49073258070267
 10
252.29844067393515
 20
-30.47415862630894
 10
252.15762619436646
 20
-30.431888264516136
 10
252.0799096782357
 20
-30.409593195522152
 10
251.9365205691497
 20
-30.37037400876333
 10
251.8747501095109
 20
-30.354298555700897
 10
251.73811243008817
 20
-30.320445610285034
 10
251.64541810839134
 20
-30.298630794760705
 10
251.49452575987277
 20
-30.26516466380935
 10
251.44029986407995
 20
-30.25386875772775
 10
251.29601094167637
 20
-30.22565159959498
 10
251.21647856777295
 20
-30.211107580419846
 10
251.0699275619936
 20
-30.18618000664109
 10
251.0068756089163
 20
-30.176257250366678
 10
250.86757104401465
 20
-30.156005940464482
 10
250.77318070041892
 20
-30.143412827965278
 10
250.61972860759258
 20
-30.124948322346825
 10
250.56464830213176
 20
-30.119039294468607
 10
250.41828762870472
 20
-30.105149221445718
 10
250.33772274434187
 20
-30.098498219439325
 10
250.189563939516
 20
-30.088111524519576
 10
250.0951405938141
 20
-30.08266544272707
 10
250.01158599545982
 20
-30.07843048558093
 10
249.99375884934088
 20
-30.077651484290946
 10
249.73484742239225
 20
-30.071932028474276
 10
243.48583573006715
 20
-30.068783078091936
 10
243.34777989297572
 20
-30.065534760924873
 10
241.2497639648317
 20
-29.967811131258234
 10
240.9741521262168
 20
-29.94218294145116
 10
238.96290159858992
 20
-29.66102114929004
 10
238.69082755414004
 20
-29.610085856672317
 10
236.7140753525508
 20
-29.144649102898555
 10
236.4478577917251
 20
-29.068840791972185
 10
234.45676292129042
 20
-28.40106534198362
 10
234.32650969676962
 20
-28.354008733792522
 10
234.1531227986815
 20
-28.286804848631
 10
234.0131300366729
 20
-28.234540045371006
 10
233.9218784620861
 20
-28.201761051532827
 10
233.76950309178667
 20
-28.149324799124177
 10
233.71425116915182
 20
-28.13113729097608
 10
233.56749944984492
 20
-28.084907314698786
 10
233.48651920558473
 20
-28.060533632434808
 10
233.3370100014145
 20
-28.017639310287134
 10
233.2726002385478
 20
-28.000060401459447
 10
233.1300155769272
 20
-27.963020435979807
 10
233.03323566529022
 20
-27.939143763136634
 10
232.87567196405888
 20
-27.90251709490613
 10
232.81901748170534
 20
-27.890149957433287
 10
232.6682876667727
 20
-27.859266293189457
 10
232.58522922094699
 20
-27.843354947702352
 10
232.4320998013111
 20
-27.81607297866668
 10
232.36622306333814
 20
-27.805215217429403
 10
232.2205838473643
 20
-27.78304398513862
 10
232.12186074785117
 20
-27.769252812959337
 10
231.961364535728
 20
-27.749034042743272
 10
231.6982473303572
 20
-27.719484858436775
 10
231.5789245459227
 20
-27.70365422021015
 10
229.62818990602767
 20
-27.404907236780545
 10
229.35345807389382
 20
-27.349583620014315
 10
227.23135221416692
 20
-26.817958359492696
 10
226.9471687829625
 20
-26.73159864937137
 10
224.89599657584057
 20
-25.99545364954504
 10
224.62175245399087
 20
-25.881399347854654
 10
222.6534828587366
 20
-24.945914615516966
 10
222.3918694986977
 20
-24.805285059759992
 10
220.52581926128704
 20
-23.679641512495866
 10
220.27940415626816
 20
-23.51381685171884
 10
218.41479122623102
 20
-22.1200389685197
 10
218.41392569371718
 20
-22.12119688839784
 10
218.08237100748144
 20
-21.87327843414505
 10
217.57524287851285
 20
-21.567026256273827
 10
217.04038499718442
 20
-21.312278572431772
 10
216.4830117722537
 20
-21.111518955545392
 10
215.9085571179001
 20
-20.966704640874752
 10
215.32262147769015
 20
-20.87924744463684
 10
214.73091722502312
 20
-20.85
 10
150.1437109808439
 20
-20.85
 10
149.52630473231974
 20
-20.881850410363086
 10
148.91545336458765
 20
-20.977063491905568
 10
148.31764216655864
 20
-21.134628386054427
 10
147.73921798222509
 20
-21.35287225729718
 10
147.1863218274652
 20
-21.629478053347725
 10
146.66482369208484
 20
-21.961509104835052
 10
146.1802602192891
 20
-22.34544030334478
 10
145.73777592422982
 20
-22.77719552680233
 10
145.34206857569927
 20
-23.252190914859863
 10
144.9973393208423
 20
-23.765383534840637
 10
144.69912774421783
 20
-24.262919492376653
 10
144.53566307756452
 20
-24.507561654482203
 10
143.24966726946755
 20
-26.241526275099154
 10
143.06301060473012
 20
-26.46896807915622
 10
141.61324896440243
 20
-28.06853355459829
 10
141.40519790729834
 20
-28.276584611702365
 10
139.80563243185642
 20
-29.726346252029913
 10
139.57819062779893
 20
-29.9130029167677
 10
137.84422600718236
 20
-31.198998724864378
 10
137.5995838450766
 20
-31.362463391517824
 10
135.74791910646357
 20
-32.47230852475466
 10
135.48843262406558
 20
-32.611006939225085
 10
133.5369003111117
 20
-33.53401298226598
 10
133.2650685050968
 20
-33.646609403001726
 10
131.23246294079215
 20
-34.373887303085674
 10
130.95090370005042
 20
-34.45929736500367
 10
128.85679998711447
 20
-34.98384303838232
 10
128.56822488105036
 20
-35.041244195896375
 10
126.43279038299194
 20
-35.358005980989326
 10
126.1399785476282
 20
-35.38684542957389
 10
123.9102104306669
 20
-35.49638691287659
 10
123.76302957842277
 20
-35.5
 10
105.3502160048864
 20
-35.5
 10
105.27658677517239
 20
-35.50045178896513
 10
105.19686033146797
 20
-35.501430228746145
 10
105.06388731103762
 20
-35.50453653559856
 10
104.87384371804333
 20
-35.51108432419812
 10
104.7860399222233
 20
-35.514753491149534
 10
104.70666506420693
 20
-35.518652927874776
 10
104.55968372857339
 20
-35.52768292503367
 10
104.32745948162629
 20
-35.54481281459545
 10
104.03438281202891
 20
-35.573678347075344
 10
103.83998443045968
 20
-35.59765510056593
 10
103.54867714909324
 20
-35.64086645382453
 10
103.35568941241978
 20
-35.67435300274212
 10
103.06685330404035
 20
-35.731806076844606
 10
102.87574113662458
 20
-35.77472174915969
 10
102.59007203271636
 20
-35.84627813461823
 10
102.4012958405083
 20
-35.898519542717395
 10
102.11948194296438
 20
-35.9840068539318
 10
101.93349650434625
 20
-36.04544814368705
 10
101.65621672752974
 20
-36.144660434236805
 10
101.47347009771386
 20
-36.21515358819938
 10
101.20139243289366
 20
-36.327851846986704
 10
101.02232486451764
 20
-36.40722704097436
 10
100.75610477062003
 20
-36.53313976802242
 10
100.58114765314066
 20
-36.621205780240345
 10
100.32142647768961
 20
-36.76002964076117
 10
100.15100129812697
 20
-36.85657431247247
 10
99.89840473218308
 20
-37.007974867626494
 10
99.73292205972287
 20
-37.112765614260326
 10
99.48805863053848
 20
-37.276378126849
 10
99.32791712743266
 20
-37.389162498318484
 10
99.09137673245587
 20
-37.56459281146842
 10
98.93696219361263
 20
-37.68509910034362
 10
98.7093146793738
 20
-37.871924587064285
 10
98.56099910294188
 20
-37.99986248314053
 10
98.34279289224207
 20
-38.1976330644707
 10
98.20093358343652
 20
-38.33269435414987
 10
97.9926943541502
 20
-38.54093358343619
 10
97.8576330644708
 20
-38.68279289224198
 10
97.65986248314051
 20
-38.90099910294192
 10
97.53192458706411
 20
-39.04931467937402
 10
97.34509910034365
 20
-39.2769621936126
 10
97.22459281146848
 20
-39.43137673245578
 10
97.04916249831822
 20
-39.66791712743302
 10
96.9363781268489
 20
-39.82805863053863
 10
96.77276561426065
 20
-40.07292205972237
 10
96.66797486762661
 20
-40.238404732182886
 10
96.51657431247227
 20
-40.49100129812727
 10
96.42002964076138
 20
-40.6614264776892
 10
96.28120578024061
 20
-40.921147653140174
 10
96.19313976802235
 20
-41.09610477062021
 10
96.06722704097437
 20
-41.36232486451765
 10
95.98785184698679
 20
-41.541392432893495
 10
95.8751535881994
 20
-41.81347009771384
 10
95.8046604342367
 20
-41.996216727530054
 10
95.70544814368698
 20
-42.27349650434644
 10
95.64400685393186
 20
-42.459481942964196
 10
95.55851954271739
 20
-42.741295840508315
 10
95.50627813461828
 20
-42.93007203271619
 10
95.43472174915983
 20
-43.21574113662401
 10
95.39180607684469
 20
-43.40685330404002
 10
95.33435300274215
 20
-43.6956894124197
 10
95.30086645382455
 20
-43.888677149093155
  0
CIRCLE
  5
8E
330
17
100
AcDbEntity
  8
HOLES
100
AcDbCircle
 10
149.8875
 20
-24.817684316145076
 30
0.0
 40
1.7
  0
TEXT
  5
8F
330
17
100
AcDbEntity
  8
TEXT
100
AcDbText
 10
152.8875
 20
-23.817684316145076
 30
0.0
 40
2.0
  1
B1
 11
152.8875
 21
-23.817684316145076
 31
0.0
100
AcDbText
  0
CIRCLE
  5
90
330
17
100
AcDbEntity
  8
HOLES
100
AcDbCircle
 10
237.64211901703783
 20
-33.693749998820714
 30
0.0
 40
1.7
  0
TEXT
  5
91
330
17
100
AcDbEntity
  8
TEXT
100
AcDbText
 10
240.64211901703783
 20
-32.693749998820714
 30
0.0
 40
2.0
  1
B2
 11
240.64211901703783
 21
-32.693749998820714
 31
0.0
100
AcDbText
  0
CIRCLE
  5
92
330
17
100
AcDbEntity
  8
HOLES
100
AcDbCircle
 10
292.98750000034363
 20
-46.11720669061242
 30
0.0
 40
1.7
  0
TEXT
  5
93
330
17
100
AcDbEntity
  8
TEXT
100
AcDbText
 10
295.98750000034363
 20
-45.11720669061242
 30
0.0
 40
2.0
  1
B3
 11
295.98750000034363
 21
-45.11720669061242
 31
0.0
100
AcDbText
  0
CIRCLE
  5
94
330
17
100
AcDbEntity
  8
HOLES
100
AcDbCircle
 10
292.096927760232
 20
-102.94221956713407
 30
0.0
 40
1.7
  0
TEXT
  5
95
330
17
100
AcDbEntity
  8
TEXT
100
AcDbText
 10
295.096927760232
 20
-101.94221956713407
 30
0.0
 40
2.0
  1
B4
 11
295.096927760232
 21
-101.94221956713407
 31
0.0
100
AcDbText
  0
CIRCLE
  5
96
330
17
100
AcDbEntity
  8
HOLES
100
AcDbCircle
 10
258.9176342016513
 20
-105.35625000664699
 30
0.0
 40
1.7
  0
TEXT
  5
97
330
17
100
AcDbEntity
  8
TEXT
100
AcDbText
 10
261.9176342016513
 20
-104.35625000664699
 30
0.0
 40
2.0
  1
B5
 11
261.9176342016513
 21
-104.35625000664699
 31
0.0
100
AcDbText
  0
CIRCLE
  5
98
330
17
100
AcDbEntity
  8
HOLES
100
AcDbCircle
 10
226.31250000018633
 20
-100.15982840821154
 30
0.0
 40
1.7
  0
TEXT
  5
99
330
17
100
AcDbEntity
  8
TEXT
100
AcDbText
 10
229.31250000018633
 20
-99.15982840821154
 30
0.0
 40
2.0
  1
B6
 11
229.31250000018633
 21
-99.15982840821154
 31
0.0
100
AcDbText
  0
CIRCLE
  5
9A
330
17
100
AcDbEntity
  8
HOLES
100
AcDbCircle
 10
201.8895375842419
 20
-122.2381479650058
 30
0.0
 40
1.7
  0
TEXT
  5
9B
330
17
100
AcDbEntity
  8
TEXT
100
AcDbText
 10
204.8895375842419
 20
-121.2381479650058
 30
0.0
 40
2.0
  1
B7
 11
204.8895375842419
 21
-121.2381479650058
 31
0.0
100
AcDbText
  0
CIRCLE
  5
9C
330
17
100
AcDbEntity
  8
HOLES
100
AcDbCircle
 10
167.851890141344
 20
-133.3657094118039
 30
0.0
 40
1.7
  0
TEXT
  5
9D
330
17
100
AcDbEntity
  8
TEXT
100
AcDbText
 10
170.851890141344
 20
-132.3657094118039
 30
0.0
 40
2.0
  1
B8
 11
170.851890141344
 21
-132.3657094118039
 31
0.0
100
AcDbText
  0
CIRCLE
  5
9E
330
17
100
AcDbEntity
  8
HOLES
100
AcDbCircle
 10
192.8625
 20
-58.8
 30
0.0
 40
2.55
  0
TEXT
  5
9F
330
17
100
AcDbEntity
  8
TEXT
100
AcDbText
 10
195.8625
 20
-57.8
 30
0.0
 40
2.0
  1
C1
 11
195.8625
 21
-57.8
 31
0.0
100
AcDbText
  0
CIRCLE
  5
A0
330
17
100
AcDbEntity
  8
HOLES
100
AcDbCircle
 10
192.8625
 20
-97.0
 30
0.0
 40
2.55
  0
TEXT
  5
A1
330
17
100
AcDbEntity
  8
TEXT
100
AcDbText
 10
195.8625
 20
-96.0
 30
0.0
 40
2.0
  1
C2
 11
195.8625
 21
-96.0
 31
0.0
100
AcDbText
  0
TEXT
  5
A2
330
17
100
AcDbEntity
  8
TEXT
100
AcDbText
 10
95.16000000000003
 20
-147.1410382291507
 30
0.0
 40
2.5
  1
case-right-tray-tapped: aluminium (CNC 6061, or printed AlSi10Mg)
 11
95.16000000000003
 21
-147.1410382291507
 31
0.0
100
AcDbText
  0
TEXT
  5
A3
330
17
100
AcDbEntity
  8
TEXT
100
AcDbText
 10
95.16000000000003
 20
-151.6410382291507
 30
0.0
 40
2.5
  1
Units mm. Plan view from above; holes marked * are drilled from below.
 11
95.16000000000003
 21
-151.6410382291507
 31
0.0
100
AcDbText
  0
TEXT
  5
A4
330
17
100
AcDbEntity
  8
TEXT
100
AcDbText
 10
95.16000000000003
 20
-156.1410382291507
 30
0.0
 40
2.5
  1
Material: aluminium 6061-T6 (CNC) or AlSi10Mg (SLM). General tolerance +/-0.1.
 11
95.16000000000003
 21
-156.1410382291507
 31
0.0
100
AcDbText
  0
TEXT
  5
A5
330
17
100
AcDbEntity
  8
TEXT
100
AcDbText
 10
95.16000000000003
 20
-160.6410382291507
 30
0.0
 40
2.5
  1
Threads as tabulated, cutting taps. Mask all tapped holes when anodising.
 11
95.16000000000003
 21
-160.6410382291507
 31
0.0
100
AcDbText
  0
TEXT
  5
A6
330
17
100
AcDbEntity
  8
TEXT
100
AcDbText
 10
95.16000000000003
 20
-165.1410382291507
 30
0.0
 40
2.5
  1
Break all sharp edges 0.2-0.5. Bead blast, then anodise.
 11
95.16000000000003
 21
-165.1410382291507
 31
0.0
100
AcDbText
  0
TEXT
  5
A7
330
17
100
AcDbEntity
  8
TEXT
100
AcDbText
 10
95.16000000000003
 20
-169.6410382291507
 30
0.0
 40
2.5
  1

 11
95.16000000000003
 21
-169.6410382291507
 31
0.0
100
AcDbText
  0
TEXT
  5
A8
330
17
100
AcDbEntity
  8
TEXT
100
AcDbText
 10
95.16000000000003
 20
-174.1410382291507
 30
0.0
 40
2.5
  1
B1-B8 (8x): Clearance 3.4 thru, counterbore 6.0 x 4.5 deep*
 11
95.16000000000003
 21
-174.1410382291507
 31
0.0
100
AcDbText
  0
TEXT
  5
A9
330
17
100
AcDbEntity
  8
TEXT
100
AcDbText
 10
95.16000000000003
 20
-178.6410382291507
 30
0.0
 40
2.5
  1
C1-C2 (2x): 1/4"-20 UNC tapped, 4.5 mm full thread (#7 = 5.1 mm drill, 5.5 mm deep)*
 11
95.16000000000003
 21
-178.6410382291507
 31
0.0
100
AcDbText
  0
ENDSEC
  0
SECTION
  2
OBJECTS
  0
DICTIONARY
  5
A
330
0
100
AcDbDictionary
281
1
  3
ACAD_COLOR
350
B
  3
ACAD_GROUP
350
C
  3
ACAD_LAYOUT
350
D
  3
ACAD_MATERIAL
350
E
  3
ACAD_MLEADERSTYLE
350
F
  3
ACAD_MLINESTYLE
350
10
  3
ACAD_PLOTSETTINGS
350
11
  3
ACAD_PLOTSTYLENAME
350
12
  3
ACAD_SCALELIST
350
14
  3
ACAD_TABLESTYLE
350
15
  3
ACAD_VISUALSTYLE
350
16
  3
EZDXF_META
350
2D
  0
DICTIONARY
  5
B
330
A
100
AcDbDictionary
281
1
  0
DICTIONARY
  5
C
330
A
100
AcDbDictionary
281
1
  0
DICTIONARY
  5
D
330
A
100
AcDbDictionary
281
1
  3
Model
350
1A
  3
Layout1
350
1E
  0
DICTIONARY
  5
E
330
A
100
AcDbDictionary
281
1
  3
ByBlock
350
1F
  3
ByLayer
350
20
  3
Global
350
21
  0
DICTIONARY
  5
F
330
A
100
AcDbDictionary
281
1
  3
Standard
350
2C
  0
DICTIONARY
  5
10
330
A
100
AcDbDictionary
281
1
  3
Standard
350
22
  0
DICTIONARY
  5
11
330
A
100
AcDbDictionary
281
1
  0
ACDBDICTIONARYWDFLT
  5
12
330
A
100
AcDbDictionary
281
1
  3
Normal
350
13
100
AcDbDictionaryWithDefault
340
13
  0
ACDBPLACEHOLDER
  5
13
330
12
  0
DICTIONARY
  5
14
330
A
100
AcDbDictionary
281
1
  0
DICTIONARY
  5
15
330
A
100
AcDbDictionary
281
1
  0
DICTIONARY
  5
16
330
A
100
AcDbDictionary
281
1
  3
2dWireframe
350
5A
  3
Basic
350
5B
  3
Brighten
350
5C
  3
ColorChange
350
5D
  3
Conceptual
350
5E
  3
Dim
350
5F
  3
EdgeColorOff
350
60
  3
Facepattern
350
61
  3
Flat
350
62
  3
FlatWithEdges
350
63
  3
Gouraud
350
64
  3
GouraudWithEdges
350
65
  3
Hidden
350
66
  3
JitterOff
350
67
  3
Linepattern
350
68
  3
Modeling
350
69
  3
OverhangOff
350
6A
  3
Realistic
350
6B
  3
Shaded
350
6C
  3
Shaded with edges
350
6D
  3
Shades of Gray
350
6E
  3
Sketchy
350
6F
  3
Thicken
350
70
  3
Wireframe
350
71
  3
X-Ray
350
72
  0
LAYOUT
  5
1A
330
D
100
AcDbPlotSettings
  1

  4
A3
  6

 40
7.5
 41
20.0
 42
7.5
 43
20.0
 44
420.0
 45
297.0
 46
0.0
 47
0.0
 48
0.0
 49
0.0
140
0.0
141
0.0
142
1.0
143
1.0
 70
1024
 72
1
 73
0
 74
5
  7

 75
16
 76
0
 77
2
 78
300
147
1.0
148
0.0
149
0.0
100
AcDbLayout
  1
Model
 70
1
 71
0
 10
0.0
 20
0.0
 11
420.0
 21
297.0
 12
0.0
 22
0.0
 32
0.0
 14
1e+20
 24
1e+20
 34
1e+20
 15
-1e+20
 25
-1e+20
 35
-1e+20
146
0.0
 13
0.0
 23
0.0
 33
0.0
 16
1.0
 26
0.0
 36
0.0
 17
0.0
 27
1.0
 37
0.0
 76
1
330
17
  0
LAYOUT
  5
1E
330
D
100
AcDbPlotSettings
  1

  4
A3
  6

 40
7.5
 41
20.0
 42
7.5
 43
20.0
 44
420.0
 45
297.0
 46
0.0
 47
0.0
 48
0.0
 49
0.0
140
0.0
141
0.0
142
1.0
143
1.0
 70
0
 72
1
 73
0
 74
5
  7

 75
16
 76
0
 77
2
 78
300
147
1.0
148
0.0
149
0.0
100
AcDbLayout
  1
Layout1
 70
1
 71
1
 10
0.0
 20
0.0
 11
420.0
 21
297.0
 12
0.0
 22
0.0
 32
0.0
 14
1e+20
 24
1e+20
 34
1e+20
 15
-1e+20
 25
-1e+20
 35
-1e+20
146
0.0
 13
0.0
 23
0.0
 33
0.0
 16
1.0
 26
0.0
 36
0.0
 17
0.0
 27
1.0
 37
0.0
 76
1
330
1B
  0
MATERIAL
  5
1F
102
{ACAD_REACTORS
330
E
102
}
330
E
100
AcDbMaterial
  1
ByBlock
  2

 70
0
 40
1.0
 71
1
 41
1.0
 91
-1023410177
 42
1.0
 72
1
  3

 73
1
 74
1
 75
1
 44
0.5
 73
0
 45
1.0
 46
1.0
 77
1
  4

 78
1
 79
1
170
1
 48
1.0
171
1
  6

172
1
173
1
174
1
140
1.0
141
1.0
175
1
  7

176
1
177
1
178
1
143
1.0
179
1
  8

270
1
271
1
272
1
145
1.0
146
1.0
273
1
  9

274
1
275
1
276
1
 42
1.0
 72
1
  3

 73
1
 74
1
 75
1
 94
63
  0
MATERIAL
  5
20
102
{ACAD_REACTORS
330
E
102
}
330
E
100
AcDbMaterial
  1
ByLayer
  2

 70
0
 40
1.0
 71
1
 41
1.0
 91
-1023410177
 42
1.0
 72
1
  3

 73
1
 74
1
 75
1
 44
0.5
 73
0
 45
1.0
 46
1.0
 77
1
  4

 78
1
 79
1
170
1
 48
1.0
171
1
  6

172
1
173
1
174
1
140
1.0
141
1.0
175
1
  7

176
1
177
1
178
1
143
1.0
179
1
  8

270
1
271
1
272
1
145
1.0
146
1.0
273
1
  9

274
1
275
1
276
1
 42
1.0
 72
1
  3

 73
1
 74
1
 75
1
 94
63
  0
MATERIAL
  5
21
102
{ACAD_REACTORS
330
E
102
}
330
E
100
AcDbMaterial
  1
Global
  2

 70
0
 40
1.0
 71
1
 41
1.0
 91
-1023410177
 42
1.0
 72
1
  3

 73
1
 74
1
 75
1
 44
0.5
 73
0
 45
1.0
 46
1.0
 77
1
  4

 78
1
 79
1
170
1
 48
1.0
171
1
  6

172
1
173
1
174
1
140
1.0
141
1.0
175
1
  7

176
1
177
1
178
1
143
1.0
179
1
  8

270
1
271
1
272
1
145
1.0
146
1.0
273
1
  9

274
1
275
1
276
1
 42
1.0
 72
1
  3

 73
1
 74
1
 75
1
 94
63
  0
MLINESTYLE
  5
22
102
{ACAD_REACTORS
330
10
102
}
330
10
100
AcDbMlineStyle
  2
Standard
 70
0
  3

 62
256
 51
90.0
 52
90.0
 71
2
 49
0.5
 62
256
  6
BYLAYER
 49
-0.5
 62
256
  6
BYLAYER
  0
MLEADERSTYLE
  5
2C
102
{ACAD_REACTORS
330
F
102
}
330
F
100
AcDbMLeaderStyle
179
2
170
2
171
1
172
0
 90
2
 40
0.0
 41
0.0
173
1
 91
-1056964608
 92
-2
290
1
 42
2.0
291
1
 43
8.0
  3
Standard
 44
4.0
300

342
29
174
1
175
1
176
0
178
1
 93
-1056964608
 45
4.0
292
0
297
0
 46
4.0
 94
-1056964608
 47
1.0
 49
1.0
140
1.0
294
1
141
0.0
177
0
142
1.0
295
0
296
0
143
3.75
271
0
272
9
273
9
  0
DICTIONARY
  5
2D
330
A
100
AcDbDictionary
280
1
281
1
  3
CREATED_BY_EZDXF
350
2E
  3
WRITTEN_BY_EZDXF
350
AC
  0
DICTIONARYVAR
  5
2E
330
2D
100
DictionaryVariables
280
0
  1
1.4.4 @ 2026-10-02T23:55:19.477965+00:00
  0
VISUALSTYLE
  5
5A
102
{ACAD_REACTORS
330
16
102
}
330
16
100
AcDbVisualStyle
  2
2dWireframe
 70
4
 90
0
 40
0.6
 62
7
290
0
291
0
  0
VISUALSTYLE
  5
5B
102
{ACAD_REACTORS
330
16
102
}
330
16
100
AcDbVisualStyle
  2
Basic
 70
7
 90
1
 40
0.6
 62
7
290
0
291
1
  0
VISUALSTYLE
  5
5C
102
{ACAD_REACTORS
330
16
102
}
330
16
100
AcDbVisualStyle
  2
Brighten
 70
12
 90
2
 40
0.6
 62
7
290
0
291
1
  0
VISUALSTYLE
  5
5D
102
{ACAD_REACTORS
330
16
102
}
330
16
100
AcDbVisualStyle
  2
ColorChange
 70
16
 90
2
 40
0.6
 62
8
290
0
291
1
  0
VISUALSTYLE
  5
5E
102
{ACAD_REACTORS
330
16
102
}
330
16
100
AcDbVisualStyle
  2
Conceptual
 70
9
 90
3
 40
0.6
 62
7
290
0
291
0
  0
VISUALSTYLE
  5
5F
102
{ACAD_REACTORS
330
16
102
}
330
16
100
AcDbVisualStyle
  2
Dim
 70
11
 90
2
 40
0.6
 62
7
290
0
291
1
  0
VISUALSTYLE
  5
60
102
{ACAD_REACTORS
330
16
102
}
330
16
100
AcDbVisualStyle
  2
EdgeColorOff
 70
22
 90
2
 40
0.6
 62
7
290
0
291
1
  0
VISUALSTYLE
  5
61
102
{ACAD_REACTORS
330
16
102
}
330
16
100
AcDbVisualStyle
  2
Facepattern
 70
15
 90
2
 40
0.6
 62
7
290
0
291
1
  0
VISUALSTYLE
  5
62
102
{ACAD_REACTORS
330
16
102
}
330
16
100
AcDbVisualStyle
  2
Flat
 70
0
 90
2
 40
0.6
 62
7
290
0
291
1
  0
VISUALSTYLE
  5
63
102
{ACAD_REACTORS
330
16
102
}
330
16
100
AcDbVisualStyle
  2
FlatWithEdges
 70
1
 90
2
 40
0.6
 62
7
290
0
291
1
  0
VISUALSTYLE
  5
64
102
{ACAD_REACTORS
330
16
102
}
330
16
100
AcDbVisualStyle
  2
Gouraud
 70
2
 90
2
 40
0.6
 62
7
290
0
291
1
  0
VISUALSTYLE
  5
65
102
{ACAD_REACTORS
330
16
102
}
330
16
100
AcDbVisualStyle
  2
GouraudWithEdges
 70
3
 90
2
 40
0.6
 62
7
290
0
291
1
  0
VISUALSTYLE
  5
66
102
{ACAD_REACTORS
330
16
102
}
330
16
100
AcDbVisualStyle
  2
Hidden
 70
6
 90
1
 40
0.6
 62
7
290
0
291
0
  0
VISUALSTYLE
  5
67
102
{ACAD_REACTORS
330
16
102
}
330
16
100
AcDbVisualStyle
  2
JitterOff
 70
20
 90
2
 40
0.6
 62
7
290
0
291
1
  0
VISUALSTYLE
  5
68
102
{ACAD_REACTORS
330
16
102
}
330
16
100
AcDbVisualStyle
  2
Linepattern
 70
14
 90
2
 40
0.6
 62
7
290
0
291
1
  0
VISUALSTYLE
  5
69
102
{ACAD_REACTORS
330
16
102
}
330
16
100
AcDbVisualStyle
  2
Modeling
 70
10
 90
2
 40
0.6
 62
7
290
0
291
0
  0
VISUALSTYLE
  5
6A
102
{ACAD_REACTORS
330
16
102
}
330
16
100
AcDbVisualStyle
  2
OverhangOff
 70
21
 90
2
 40
0.6
 62
7
290
0
291
1
  0
VISUALSTYLE
  5
6B
102
{ACAD_REACTORS
330
16
102
}
330
16
100
AcDbVisualStyle
  2
Realistic
 70
8
 90
2
 40
0.6
 62
7
290
0
291
0
  0
VISUALSTYLE
  5
6C
102
{ACAD_REACTORS
330
16
102
}
330
16
100
AcDbVisualStyle
  2
Shaded
 70
27
 90
2
 40
0.6
 62
7
290
0
291
0
  0
VISUALSTYLE
  5
6D
102
{ACAD_REACTORS
330
16
102
}
330
16
100
AcDbVisualStyle
  2
Shaded with edges
 70
26
 90
2
 40
0.6
 62
7
290
0
291
0
  0
VISUALSTYLE
  5
6E
102
{ACAD_REACTORS
330
16
102
}
330
16
100
AcDbVisualStyle
  2
Shades of Gray
 70
23
 90
2
 40
0.6
 62
7
290
0
291
0
  0
VISUALSTYLE
  5
6F
102
{ACAD_REACTORS
330
16
102
}
330
16
100
AcDbVisualStyle
  2
Sketchy
 70
24
 90
1
 40
0.6
 62
7
290
0
291
0
  0
VISUALSTYLE
  5
70
102
{ACAD_REACTORS
330
16
102
}
330
16
100
AcDbVisualStyle
  2
Thicken
 70
13
 90
2
 40
0.6
 62
7
290
0
291
1
  0
VISUALSTYLE
  5
71
102
{ACAD_REACTORS
330
16
102
}
330
16
100
AcDbVisualStyle
  2
Wireframe
 70
5
 90
0
 40
0.6
 62
7
290
0
291
0
  0
VISUALSTYLE
  5
72
102
{ACAD_REACTORS
330
16
102
}
330
16
100
AcDbVisualStyle
  2
X-Ray
 70
25
 90
2
 40
0.5
 62
7
290
0
291
0
  0
DICTIONARYVAR
  5
AC
330
2D
100
DictionaryVariables
280
0
  1
1.4.4 @ 2026-10-02T23:55:19.487625+00:00
  0
ENDSEC
  0
EOF
