  0
SECTION
  2
HEADER
  9
$ACADVER
  1
AC1024
  9
$ACADMAINTVER
 70
6
  9
$DWGCODEPAGE
  3
ANSI_1252
  9
$LASTSAVEDBY
  1
ezdxf
  9
$INSBASE
 10
0.0
 20
0.0
 30
0.0
  9
$EXTMIN
 10
1e+20
 20
1e+20
 30
1e+20
  9
$EXTMAX
 10
-1e+20
 20
-1e+20
 30
-1e+20
  9
$LIMMIN
 10
0.0
 20
0.0
  9
$LIMMAX
 10
420.0
 20
297.0
  9
$ORTHOMODE
 70
0
  9
$REGENMODE
 70
1
  9
$FILLMODE
 70
1
  9
$QTEXTMODE
 70
0
  9
$MIRRTEXT
 70
1
  9
$LTSCALE
 40
1.0
  9
$ATTMODE
 70
1
  9
$TEXTSIZE
 40
2.5
  9
$TRACEWID
 40
1.0
  9
$TEXTSTYLE
  7
OpenSans
  9
$CLAYER
  8
0
  9
$CELTYPE
  6
ByLayer
  9
$CECOLOR
 62
256
  9
$CELTSCALE
 40
1.0
  9
$DISPSILH
 70
0
  9
$DIMSCALE
 40
1.0
  9
$DIMASZ
 40
0.175
  9
$DIMEXO
 40
0.125
  9
$DIMDLI
 40
3.75
  9
$DIMRND
 40
0.0
  9
$DIMDLE
 40
0.0
  9
$DIMEXE
 40
0.375
  9
$DIMTP
 40
0.0
  9
$DIMTM
 40
0.0
  9
$DIMTXT
 40
0.25
  9
$DIMCEN
 40
2.5
  9
$DIMTSZ
 40
0.0
  9
$DIMTOL
 70
0
  9
$DIMLIM
 70
0
  9
$DIMTIH
 70
0
  9
$DIMTOH
 70
0
  9
$DIMSE1
 70
0
  9
$DIMSE2
 70
0
  9
$DIMTAD
 70
1
  9
$DIMZIN
 70
12
  9
$DIMBLK
  1
ARCHTICK
  9
$DIMASO
 70
1
  9
$DIMSHO
 70
1
  9
$DIMPOST
  1

  9
$DIMAPOST
  1

  9
$DIMALT
 70
0
  9
$DIMALTD
 70
3
  9
$DIMALTF
 40
0.03937007874
  9
$DIMLFAC
 40
100.0
  9
$DIMTOFL
 70
1
  9
$DIMTVP
 40
0.0
  9
$DIMTIX
 70
0
  9
$DIMSOXD
 70
0
  9
$DIMSAH
 70
0
  9
$DIMBLK1
  1

  9
$DIMBLK2
  1

  9
$DIMSTYLE
  2
EZDXF
  9
$DIMCLRD
 70
0
  9
$DIMCLRE
 70
0
  9
$DIMCLRT
 70
0
  9
$DIMTFAC
 40
0.5
  9
$DIMGAP
 40
0.1
  9
$DIMJUST
 70
0
  9
$DIMSD1
 70
0
  9
$DIMSD2
 70
0
  9
$DIMTOLJ
 70
0
  9
$DIMTZIN
 70
8
  9
$DIMALTZ
 70
0
  9
$DIMALTTZ
 70
0
  9
$DIMUPT
 70
1
  9
$DIMDEC
 70
2
  9
$DIMTDEC
 70
2
  9
$DIMALTU
 70
2
  9
$DIMALTTD
 70
3
  9
$DIMTXSTY
  7
OpenSansCondensed-Light
  9
$DIMAUNIT
 70
0
  9
$DIMADEC
 70
2
  9
$DIMALTRND
 40
0.0
  9
$DIMAZIN
 70
3
  9
$DIMDSEP
 70
46
  9
$DIMATFIT
 70
3
  9
$DIMFRAC
 70
0
  9
$DIMLDRBLK
  1

  9
$DIMLUNIT
 70
2
  9
$DIMLWD
 70
-2
  9
$DIMLWE
 70
-2
  9
$DIMTMOVE
 70
2
  9
$DIMFXL
 40
1.0
  9
$DIMFXLON
 70
0
  9
$DIMJOGANG
 40
0.785398163397
  9
$DIMTFILL
 70
0
  9
$DIMTFILLCLR
 70
0
  9
$DIMARCSYM
 70
0
  9
$DIMLTYPE
  6

  9
$DIMLTEX1
  6

  9
$DIMLTEX2
  6

  9
$DIMTXTDIRECTION
 70
0
  9
$LUNITS
 70
2
  9
$LUPREC
 70
4
  9
$SKETCHINC
 40
1.0
  9
$FILLETRAD
 40
10.0
  9
$AUNITS
 70
0
  9
$AUPREC
 70
2
  9
$MENU
  1
.
  9
$ELEVATION
 40
0.0
  9
$PELEVATION
 40
0.0
  9
$THICKNESS
 40
0.0
  9
$LIMCHECK
 70
0
  9
$CHAMFERA
 40
0.0
  9
$CHAMFERB
 40
0.0
  9
$CHAMFERC
 40
0.0
  9
$CHAMFERD
 40
0.0
  9
$SKPOLY
 70
0
  9
$TDCREATE
 40
2461316.5739699076
  9
$TDUCREATE
 40
2458532.153996898
  9
$TDUPDATE
 40
2461316.5739699076
  9
$TDUUPDATE
 40
2458532.1544311
  9
$TDINDWG
 40
0.0
  9
$TDUSRTIMER
 40
0.0
  9
$USRTIMER
 70
1
  9
$ANGBASE
 50
0.0
  9
$ANGDIR
 70
0
  9
$PDMODE
 70
0
  9
$PDSIZE
 40
0.0
  9
$PLINEWID
 40
0.0
  9
$SPLFRAME
 70
0
  9
$SPLINETYPE
 70
6
  9
$SPLINESEGS
 70
8
  9
$HANDSEED
  5
A8
  9
$SURFTAB1
 70
6
  9
$SURFTAB2
 70
6
  9
$SURFTYPE
 70
6
  9
$SURFU
 70
6
  9
$SURFV
 70
6
  9
$UCSBASE
  2

  9
$UCSNAME
  2

  9
$UCSORG
 10
0.0
 20
0.0
 30
0.0
  9
$UCSXDIR
 10
1.0
 20
0.0
 30
0.0
  9
$UCSYDIR
 10
0.0
 20
1.0
 30
0.0
  9
$UCSORTHOREF
  2

  9
$UCSORTHOVIEW
 70
0
  9
$UCSORGTOP
 10
0.0
 20
0.0
 30
0.0
  9
$UCSORGBOTTOM
 10
0.0
 20
0.0
 30
0.0
  9
$UCSORGLEFT
 10
0.0
 20
0.0
 30
0.0
  9
$UCSORGRIGHT
 10
0.0
 20
0.0
 30
0.0
  9
$UCSORGFRONT
 10
0.0
 20
0.0
 30
0.0
  9
$UCSORGBACK
 10
0.0
 20
0.0
 30
0.0
  9
$PUCSBASE
  2

  9
$PUCSNAME
  2

  9
$PUCSORG
 10
0.0
 20
0.0
 30
0.0
  9
$PUCSXDIR
 10
1.0
 20
0.0
 30
0.0
  9
$PUCSYDIR
 10
0.0
 20
1.0
 30
0.0
  9
$PUCSORTHOREF
  2

  9
$PUCSORTHOVIEW
 70
0
  9
$PUCSORGTOP
 10
0.0
 20
0.0
 30
0.0
  9
$PUCSORGBOTTOM
 10
0.0
 20
0.0
 30
0.0
  9
$PUCSORGLEFT
 10
0.0
 20
0.0
 30
0.0
  9
$PUCSORGRIGHT
 10
0.0
 20
0.0
 30
0.0
  9
$PUCSORGFRONT
 10
0.0
 20
0.0
 30
0.0
  9
$PUCSORGBACK
 10
0.0
 20
0.0
 30
0.0
  9
$USERI1
 70
0
  9
$USERI2
 70
0
  9
$USERI3
 70
0
  9
$USERI4
 70
0
  9
$USERI5
 70
0
  9
$USERR1
 40
0.0
  9
$USERR2
 40
0.0
  9
$USERR3
 40
0.0
  9
$USERR4
 40
0.0
  9
$USERR5
 40
0.0
  9
$WORLDVIEW
 70
1
  9
$SHADEDGE
 70
3
  9
$SHADEDIF
 70
70
  9
$TILEMODE
 70
1
  9
$MAXACTVP
 70
64
  9
$PINSBASE
 10
0.0
 20
0.0
 30
0.0
  9
$PLIMCHECK
 70
0
  9
$PEXTMIN
 10
1e+20
 20
1e+20
 30
1e+20
  9
$PEXTMAX
 10
-1e+20
 20
-1e+20
 30
-1e+20
  9
$PLIMMIN
 10
0.0
 20
0.0
  9
$PLIMMAX
 10
420.0
 20
297.0
  9
$UNITMODE
 70
0
  9
$VISRETAIN
 70
1
  9
$PLINEGEN
 70
0
  9
$PSLTSCALE
 70
1
  9
$TREEDEPTH
 70
3020
  9
$CMLSTYLE
  2
Standard
  9
$CMLJUST
 70
0
  9
$CMLSCALE
 40
20.0
  9
$PROXYGRAPHICS
 70
1
  9
$MEASUREMENT
 70
1
  9
$CELWEIGHT
370
-1
  9
$ENDCAPS
280
0
  9
$JOINSTYLE
280
0
  9
$LWDISPLAY
290
0
  9
$INSUNITS
 70
4
  9
$HYPERLINKBASE
  1

  9
$STYLESHEET
  1

  9
$XEDIT
290
1
  9
$CEPSNTYPE
380
0
  9
$PSTYLEMODE
290
1
  9
$FINGERPRINTGUID
  2
{1CDD4750-57A6-4F73-9EB7-596F18A2C07E}
  9
$VERSIONGUID
  2
{26BE2ECE-1A65-45FA-AABC-3BFEE05153AF}
  9
$EXTNAMES
290
1
  9
$PSVPSCALE
 40
0.0
  9
$OLESTARTUP
290
0
  9
$SORTENTS
280
127
  9
$INDEXCTL
280
0
  9
$HIDETEXT
280
1
  9
$XCLIPFRAME
280
1
  9
$HALOGAP
280
0
  9
$OBSCOLOR
 70
257
  9
$OBSLTYPE
280
0
  9
$INTERSECTIONDISPLAY
280
0
  9
$INTERSECTIONCOLOR
 70
257
  9
$DIMASSOC
280
2
  9
$PROJECTNAME
  1

  9
$CAMERADISPLAY
290
0
  9
$LENSLENGTH
 40
50.0
  9
$CAMERAHEIGHT
 40
0.0
  9
$STEPSPERSEC
 40
24.0
  9
$STEPSIZE
 40
100.0
  9
$3DDWFPREC
 40
2.0
  9
$PSOLWIDTH
 40
0.005
  9
$PSOLHEIGHT
 40
0.08
  9
$LOFTANG1
 40
1.570796326795
  9
$LOFTANG2
 40
1.570796326795
  9
$LOFTMAG1
 40
0.0
  9
$LOFTMAG2
 40
0.0
  9
$LOFTPARAM
 70
7
  9
$LOFTNORMALS
280
1
  9
$LATITUDE
 40
37.795
  9
$LONGITUDE
 40
-122.394
  9
$NORTHDIRECTION
 40
0.0
  9
$TIMEZONE
 70
-8000
  9
$LIGHTGLYPHDISPLAY
280
1
  9
$TILEMODELIGHTSYNCH
280
1
  9
$CMATERIAL
347
20
  9
$SOLIDHIST
280
0
  9
$SHOWHIST
280
1
  9
$DWFFRAME
280
2
  9
$DGNFRAME
280
2
  9
$REALWORLDSCALE
290
1
  9
$INTERFERECOLOR
 62
256
  9
$CSHADOW
280
0
  9
$SHADOWPLANELOCATION
 40
0.0
  0
ENDSEC
  0
SECTION
  2
CLASSES
  0
CLASS
  1
ACDBDICTIONARYWDFLT
  2
AcDbDictionaryWithDefault
  3
ObjectDBX Classes
 90
0
 91
0
280
0
281
0
  0
CLASS
  1
SUN
  2
AcDbSun
  3
SCENEOE
 90
1153
 91
0
280
0
281
0
  0
CLASS
  1
VISUALSTYLE
  2
AcDbVisualStyle
  3
ObjectDBX Classes
 90
4095
 91
0
280
0
281
0
  0
CLASS
  1
MATERIAL
  2
AcDbMaterial
  3
ObjectDBX Classes
 90
1153
 91
0
280
0
281
0
  0
CLASS
  1
SCALE
  2
AcDbScale
  3
ObjectDBX Classes
 90
1153
 91
0
280
0
281
0
  0
CLASS
  1
TABLESTYLE
  2
AcDbTableStyle
  3
ObjectDBX Classes
 90
4095
 91
0
280
0
281
0
  0
CLASS
  1
MLEADERSTYLE
  2
AcDbMLeaderStyle
  3
ACDB_MLEADERSTYLE_CLASS
 90
4095
 91
0
280
0
281
0
  0
CLASS
  1
DICTIONARYVAR
  2
AcDbDictionaryVar
  3
ObjectDBX Classes
 90
0
 91
0
280
0
281
0
  0
CLASS
  1
CELLSTYLEMAP
  2
AcDbCellStyleMap
  3
ObjectDBX Classes
 90
1152
 91
0
280
0
281
0
  0
CLASS
  1
MENTALRAYRENDERSETTINGS
  2
AcDbMentalRayRenderSettings
  3
SCENEOE
 90
1024
 91
0
280
0
281
0
  0
CLASS
  1
ACDBDETAILVIEWSTYLE
  2
AcDbDetailViewStyle
  3
ObjectDBX Classes
 90
1025
 91
0
280
0
281
0
  0
CLASS
  1
ACDBSECTIONVIEWSTYLE
  2
AcDbSectionViewStyle
  3
ObjectDBX Classes
 90
1025
 91
0
280
0
281
0
  0
CLASS
  1
RASTERVARIABLES
  2
AcDbRasterVariables
  3
ISM
 90
0
 91
0
280
0
281
0
  0
CLASS
  1
LAYOUT
  2
AcDbLayout
  3
ObjectDBX Classes
 90
0
 91
0
280
0
281
0
  0
CLASS
  1
ACDBPLACEHOLDER
  2
AcDbPlaceHolder
  3
ObjectDBX Classes
 90
0
 91
0
280
0
281
0
  0
ENDSEC
  0
SECTION
  2
TABLES
  0
TABLE
  2
VPORT
  5
8
330
0
100
AcDbSymbolTable
 70
1
  0
VPORT
  5
23
330
8
100
AcDbSymbolTableRecord
100
AcDbViewportTableRecord
  2
*Active
 70
0
 10
0.0
 20
0.0
 11
1.0
 21
1.0
 12
0.0
 22
0.0
 13
0.0
 23
0.0
 14
0.5
 24
0.5
 15
0.5
 25
0.5
 16
0.0
 26
0.0
 36
1.0
 17
0.0
 27
0.0
 37
0.0
 40
1000.0
 41
1.34
 42
50.0
 43
0.0
 44
0.0
 50
0.0
 51
0.0
 71
0
 72
1000
 73
1
 74
3
 75
0
 76
0
 77
0
 78
0
281
0
 65
0
146
0.0
  0
ENDTAB
  0
TABLE
  2
LTYPE
  5
2
330
0
100
AcDbSymbolTable
 70
21
  0
LTYPE
  5
24
330
2
100
AcDbSymbolTableRecord
100
AcDbLinetypeTableRecord
  2
ByBlock
 70
0
  3

 72
65
 73
0
 40
0.0
  0
LTYPE
  5
25
330
2
100
AcDbSymbolTableRecord
100
AcDbLinetypeTableRecord
  2
ByLayer
 70
0
  3

 72
65
 73
0
 40
0.0
  0
LTYPE
  5
26
330
2
100
AcDbSymbolTableRecord
100
AcDbLinetypeTableRecord
  2
Continuous
 70
0
  3

 72
65
 73
0
 40
0.0
  0
LTYPE
  5
2F
330
2
100
AcDbSymbolTableRecord
100
AcDbLinetypeTableRecord
  2
CENTER
 70
0
  3
Center ____ _ ____ _ ____ _ ____ _ ____ _ ____
 72
65
 73
4
 40
5.08
 49
3.175
 74
0
 49
-0.635
 74
0
 49
0.635
 74
0
 49
-0.635
 74
0
  0
LTYPE
  5
30
330
2
100
AcDbSymbolTableRecord
100
AcDbLinetypeTableRecord
  2
CENTERX2
 70
0
  3
Center (2x) ________  __  ________  __  ________
 72
65
 73
4
 40
8.89
 49
6.35
 74
0
 49
-0.635
 74
0
 49
1.27
 74
0
 49
-0.635
 74
0
  0
LTYPE
  5
31
330
2
100
AcDbSymbolTableRecord
100
AcDbLinetypeTableRecord
  2
CENTER2
 70
0
  3
Center (.5x) ____ _ ____ _ ____ _ ____ _ ____
 72
65
 73
4
 40
2.54
 49
1.587
 74
0
 49
-0.318
 74
0
 49
0.318
 74
0
 49
-0.318
 74
0
  0
LTYPE
  5
32
330
2
100
AcDbSymbolTableRecord
100
AcDbLinetypeTableRecord
  2
DASHED
 70
0
  3
Dashed __ __ __ __ __ __ __ __ __ __ __ __ __ _
 72
65
 73
2
 40
1.524
 49
1.27
 74
0
 49
-0.254
 74
0
  0
LTYPE
  5
33
330
2
100
AcDbSymbolTableRecord
100
AcDbLinetypeTableRecord
  2
DASHEDX2
 70
0
  3
Dashed (2x) ____  ____  ____  ____  ____  ____
 72
65
 73
2
 40
3.048
 49
2.54
 74
0
 49
-0.508
 74
0
  0
LTYPE
  5
34
330
2
100
AcDbSymbolTableRecord
100
AcDbLinetypeTableRecord
  2
DASHED2
 70
0
  3
Dashed (.5x) _ _ _ _ _ _ _ _ _ _ _ _ _ _
 72
65
 73
2
 40
0.762
 49
0.635
 74
0
 49
-0.127
 74
0
  0
LTYPE
  5
35
330
2
100
AcDbSymbolTableRecord
100
AcDbLinetypeTableRecord
  2
PHANTOM
 70
0
  3
Phantom ______  __  __  ______  __  __  ______
 72
65
 73
6
 40
6.35
 49
3.175
 74
0
 49
-0.635
 74
0
 49
0.635
 74
0
 49
-0.635
 74
0
 49
0.635
 74
0
 49
-0.635
 74
0
  0
LTYPE
  5
36
330
2
100
AcDbSymbolTableRecord
100
AcDbLinetypeTableRecord
  2
PHANTOMX2
 70
0
  3
Phantom (2x)____________    ____    ____    ____________
 72
65
 73
6
 40
10.795
 49
6.35
 74
0
 49
-0.635
 74
0
 49
1.27
 74
0
 49
-0.635
 74
0
 49
1.27
 74
0
 49
-0.635
 74
0
  0
LTYPE
  5
37
330
2
100
AcDbSymbolTableRecord
100
AcDbLinetypeTableRecord
  2
PHANTOM2
 70
0
  3
Phantom (.5x) ___ _ _ ___ _ _ ___ _ _ ___ _ _ ___
 72
65
 73
6
 40
3.175
 49
1.587
 74
0
 49
-0.318
 74
0
 49
0.318
 74
0
 49
-0.318
 74
0
 49
0.318
 74
0
 49
-0.318
 74
0
  0
LTYPE
  5
38
330
2
100
AcDbSymbolTableRecord
100
AcDbLinetypeTableRecord
  2
DASHDOT
 70
0
  3
Dash dot __ . __ . __ . __ . __ . __ . __ . __
 72
65
 73
4
 40
3.556
 49
2.54
 74
0
 49
-0.508
 74
0
 49
0.0
 74
0
 49
-0.508
 74
0
  0
LTYPE
  5
39
330
2
100
AcDbSymbolTableRecord
100
AcDbLinetypeTableRecord
  2
DASHDOTX2
 70
0
  3
Dash dot (2x) ____  .  ____  .  ____  .  ____
 72
65
 73
4
 40
6.096
 49
5.08
 74
0
 49
-0.508
 74
0
 49
0.0
 74
0
 49
-0.508
 74
0
  0
LTYPE
  5
3A
330
2
100
AcDbSymbolTableRecord
100
AcDbLinetypeTableRecord
  2
DASHDOT2
 70
0
  3
Dash dot (.5x) _ . _ . _ . _ . _ . _ . _ . _
 72
65
 73
4
 40
1.778
 49
1.27
 74
0
 49
-0.254
 74
0
 49
0.0
 74
0
 49
-0.254
 74
0
  0
LTYPE
  5
3B
330
2
100
AcDbSymbolTableRecord
100
AcDbLinetypeTableRecord
  2
DOT
 70
0
  3
Dot .  .  .  .  .  .  .  .  .  .  .  .  .  .  .  .
 72
65
 73
2
 40
0.508
 49
0.0
 74
0
 49
-0.508
 74
0
  0
LTYPE
  5
3C
330
2
100
AcDbSymbolTableRecord
100
AcDbLinetypeTableRecord
  2
DOTX2
 70
0
  3
Dot (2x) .    .    .    .    .    .    .    . 
 72
65
 73
2
 40
1.016
 49
0.0
 74
0
 49
-1.016
 74
0
  0
LTYPE
  5
3D
330
2
100
AcDbSymbolTableRecord
100
AcDbLinetypeTableRecord
  2
DOT2
 70
0
  3
Dot (.5) . . . . . . . . . . . . . . . . . . . 
 72
65
 73
2
 40
0.254
 49
0.0
 74
0
 49
-0.254
 74
0
  0
LTYPE
  5
3E
330
2
100
AcDbSymbolTableRecord
100
AcDbLinetypeTableRecord
  2
DIVIDE
 70
0
  3
Divide __ . . __ . . __ . . __ . . __ . . __
 72
65
 73
6
 40
4.064
 49
2.54
 74
0
 49
-0.508
 74
0
 49
0.0
 74
0
 49
-0.508
 74
0
 49
0.0
 74
0
 49
-0.508
 74
0
  0
LTYPE
  5
3F
330
2
100
AcDbSymbolTableRecord
100
AcDbLinetypeTableRecord
  2
DIVIDEX2
 70
0
  3
Divide (2x) ____  . .  ____  . .  ____  . .  ____
 72
65
 73
6
 40
6.604
 49
5.08
 74
0
 49
-0.508
 74
0
 49
0.0
 74
0
 49
-0.508
 74
0
 49
0.0
 74
0
 49
-0.508
 74
0
  0
LTYPE
  5
40
330
2
100
AcDbSymbolTableRecord
100
AcDbLinetypeTableRecord
  2
DIVIDE2
 70
0
  3
Divide(.5x) _ . _ . _ . _ . _ . _ . _ . _
 72
65
 73
6
 40
2.032
 49
1.27
 74
0
 49
-0.254
 74
0
 49
0.0
 74
0
 49
-0.254
 74
0
 49
0.0
 74
0
 49
-0.254
 74
0
  0
ENDTAB
  0
TABLE
  2
LAYER
  5
1
330
0
100
AcDbSymbolTable
 70
5
  0
LAYER
  5
27
330
1
100
AcDbSymbolTableRecord
100
AcDbLayerTableRecord
  2
0
 70
0
 62
7
  6
Continuous
370
-3
390
13
347
21
  0
LAYER
  5
28
330
1
100
AcDbSymbolTableRecord
100
AcDbLayerTableRecord
  2
Defpoints
 70
0
 62
7
  6
Continuous
290
0
370
-3
390
13
347
21
  0
LAYER
  5
8A
330
1
100
AcDbSymbolTableRecord
100
AcDbLayerTableRecord
  2
OUTLINE
 70
0
 62
7
  6
Continuous
370
-3
390
13
347
21
  0
LAYER
  5
8B
330
1
100
AcDbSymbolTableRecord
100
AcDbLayerTableRecord
  2
HOLES
 70
0
 62
7
  6
Continuous
370
-3
390
13
347
21
  0
LAYER
  5
8C
330
1
100
AcDbSymbolTableRecord
100
AcDbLayerTableRecord
  2
TEXT
 70
0
 62
7
  6
Continuous
370
-3
390
13
347
21
  0
ENDTAB
  0
TABLE
  2
STYLE
  5
5
330
0
100
AcDbSymbolTable
 70
26
  0
STYLE
  5
29
330
5
100
AcDbSymbolTableRecord
100
AcDbTextStyleTableRecord
  2
Standard
 70
0
 40
0.0
 41
1.0
 50
0.0
 71
0
 42
2.5
  3
txt
  4

  0
STYLE
  5
41
330
5
100
AcDbSymbolTableRecord
100
AcDbTextStyleTableRecord
  2
OpenSans-Light
 70
0
 40
0.0
 41
1.0
 50
0.0
 71
0
 42
2.5
  3
OpenSans-Light.ttf
  4

  0
STYLE
  5
42
330
5
100
AcDbSymbolTableRecord
100
AcDbTextStyleTableRecord
  2
OpenSans-Light-Italic
 70
0
 40
0.0
 41
1.0
 50
0.0
 71
0
 42
2.5
  3
OpenSans-LightItalic.ttf
  4

  0
STYLE
  5
43
330
5
100
AcDbSymbolTableRecord
100
AcDbTextStyleTableRecord
  2
OpenSans
 70
0
 40
0.0
 41
1.0
 50
0.0
 71
0
 42
2.5
  3
OpenSans-Regular.ttf
  4

  0
STYLE
  5
44
330
5
100
AcDbSymbolTableRecord
100
AcDbTextStyleTableRecord
  2
OpenSans-Italic
 70
0
 40
0.0
 41
1.0
 50
0.0
 71
0
 42
2.5
  3
OpenSans-Italic.ttf
  4

  0
STYLE
  5
45
330
5
100
AcDbSymbolTableRecord
100
AcDbTextStyleTableRecord
  2
OpenSans-SemiBold
 70
0
 40
0.0
 41
1.0
 50
0.0
 71
0
 42
2.5
  3
OpenSans-SemiBold.ttf
  4

  0
STYLE
  5
46
330
5
100
AcDbSymbolTableRecord
100
AcDbTextStyleTableRecord
  2
OpenSans-SemiBoldItalic
 70
0
 40
0.0
 41
1.0
 50
0.0
 71
0
 42
2.5
  3
OpenSans-SemiBoldItalic.ttf
  4

  0
STYLE
  5
47
330
5
100
AcDbSymbolTableRecord
100
AcDbTextStyleTableRecord
  2
OpenSans-Bold
 70
0
 40
0.0
 41
1.0
 50
0.0
 71
0
 42
2.5
  3
OpenSans-Bold.ttf
  4

  0
STYLE
  5
48
330
5
100
AcDbSymbolTableRecord
100
AcDbTextStyleTableRecord
  2
OpenSans-BoldItalic
 70
0
 40
0.0
 41
1.0
 50
0.0
 71
0
 42
2.5
  3
OpenSans-BoldItalic.ttf
  4

  0
STYLE
  5
49
330
5
100
AcDbSymbolTableRecord
100
AcDbTextStyleTableRecord
  2
OpenSans-ExtraBold
 70
0
 40
0.0
 41
1.0
 50
0.0
 71
0
 42
2.5
  3
OpenSans-ExtraBold.ttf
  4

  0
STYLE
  5
4A
330
5
100
AcDbSymbolTableRecord
100
AcDbTextStyleTableRecord
  2
OpenSans-ExtraBoldItalic
 70
0
 40
0.0
 41
1.0
 50
0.0
 71
0
 42
2.5
  3
OpenSans-ExtraBoldItalic.ttf
  4

  0
STYLE
  5
4B
330
5
100
AcDbSymbolTableRecord
100
AcDbTextStyleTableRecord
  2
OpenSansCondensed-Bold
 70
0
 40
0.0
 41
1.0
 50
0.0
 71
0
 42
2.5
  3
OpenSansCondensed-Bold.ttf
  4

  0
STYLE
  5
4C
330
5
100
AcDbSymbolTableRecord
100
AcDbTextStyleTableRecord
  2
OpenSansCondensed-Light
 70
0
 40
0.0
 41
1.0
 50
0.0
 71
0
 42
2.5
  3
OpenSansCondensed-Light.ttf
  4

  0
STYLE
  5
4D
330
5
100
AcDbSymbolTableRecord
100
AcDbTextStyleTableRecord
  2
OpenSansCondensed-Italic
 70
0
 40
0.0
 41
1.0
 50
0.0
 71
0
 42
2.5
  3
OpenSansCondensed-LightItalic.ttf
  4

  0
STYLE
  5
4E
330
5
100
AcDbSymbolTableRecord
100
AcDbTextStyleTableRecord
  2
LiberationSans
 70
0
 40
0.0
 41
1.0
 50
0.0
 71
0
 42
2.5
  3
LiberationSans-Regular.ttf
  4

  0
STYLE
  5
4F
330
5
100
AcDbSymbolTableRecord
100
AcDbTextStyleTableRecord
  2
LiberationSans-Bold
 70
0
 40
0.0
 41
1.0
 50
0.0
 71
0
 42
2.5
  3
LiberationSans-Bold.ttf
  4

  0
STYLE
  5
50
330
5
100
AcDbSymbolTableRecord
100
AcDbTextStyleTableRecord
  2
LiberationSans-BoldItalic
 70
0
 40
0.0
 41
1.0
 50
0.0
 71
0
 42
2.5
  3
LiberationSans-BoldItalic.ttf
  4

  0
STYLE
  5
51
330
5
100
AcDbSymbolTableRecord
100
AcDbTextStyleTableRecord
  2
LiberationSans-Italic
 70
0
 40
0.0
 41
1.0
 50
0.0
 71
0
 42
2.5
  3
LiberationSans-Italic.ttf
  4

  0
STYLE
  5
52
330
5
100
AcDbSymbolTableRecord
100
AcDbTextStyleTableRecord
  2
LiberationSerif
 70
0
 40
0.0
 41
1.0
 50
0.0
 71
0
 42
2.5
  3
LiberationSerif-Regular.ttf
  4

  0
STYLE
  5
53
330
5
100
AcDbSymbolTableRecord
100
AcDbTextStyleTableRecord
  2
LiberationSerif-Bold
 70
0
 40
0.0
 41
1.0
 50
0.0
 71
0
 42
2.5
  3
LiberationSerif-Bold.ttf
  4

  0
STYLE
  5
54
330
5
100
AcDbSymbolTableRecord
100
AcDbTextStyleTableRecord
  2
LiberationSerif-BoldItalic
 70
0
 40
0.0
 41
1.0
 50
0.0
 71
0
 42
2.5
  3
LiberationSerif-BoldItalic.ttf
  4

  0
STYLE
  5
55
330
5
100
AcDbSymbolTableRecord
100
AcDbTextStyleTableRecord
  2
LiberationSerif-Italic
 70
0
 40
0.0
 41
1.0
 50
0.0
 71
0
 42
2.5
  3
LiberationSerif-Italic.ttf
  4

  0
STYLE
  5
56
330
5
100
AcDbSymbolTableRecord
100
AcDbTextStyleTableRecord
  2
LiberationMono
 70
0
 40
0.0
 41
1.0
 50
0.0
 71
0
 42
2.5
  3
LiberationMono-Regular.ttf
  4

  0
STYLE
  5
57
330
5
100
AcDbSymbolTableRecord
100
AcDbTextStyleTableRecord
  2
LiberationMono-Bold
 70
0
 40
0.0
 41
1.0
 50
0.0
 71
0
 42
2.5
  3
LiberationMono-Bold.ttf
  4

  0
STYLE
  5
58
330
5
100
AcDbSymbolTableRecord
100
AcDbTextStyleTableRecord
  2
LiberationMono-BoldItalic
 70
0
 40
0.0
 41
1.0
 50
0.0
 71
0
 42
2.5
  3
LiberationMono-BoldItalic.ttf
  4

  0
STYLE
  5
59
330
5
100
AcDbSymbolTableRecord
100
AcDbTextStyleTableRecord
  2
LiberationMono-Italic
 70
0
 40
0.0
 41
1.0
 50
0.0
 71
0
 42
2.5
  3
LiberationMono-Italic.ttf
  4

  0
ENDTAB
  0
TABLE
  2
VIEW
  5
7
330
0
100
AcDbSymbolTable
 70
0
  0
ENDTAB
  0
TABLE
  2
UCS
  5
6
330
0
100
AcDbSymbolTable
 70
0
  0
ENDTAB
  0
TABLE
  2
APPID
  5
3
330
0
100
AcDbSymbolTable
 70
3
  0
APPID
  5
2A
330
3
100
AcDbSymbolTableRecord
100
AcDbRegAppTableRecord
  2
ACAD
 70
0
  0
APPID
  5
A5
330
3
100
AcDbSymbolTableRecord
100
AcDbRegAppTableRecord
  2
HATCHBACKGROUNDCOLOR
 70
0
  0
APPID
  5
A6
330
3
100
AcDbSymbolTableRecord
100
AcDbRegAppTableRecord
  2
EZDXF
 70
0
  0
ENDTAB
  0
TABLE
  2
DIMSTYLE
  5
4
330
0
100
AcDbSymbolTable
 70
12
100
AcDbDimStyleTable
  0
DIMSTYLE
105
2B
330
4
100
AcDbSymbolTableRecord
100
AcDbDimStyleTableRecord
  2
Standard
 70
0
 40
1.0
 41
2.5
 42
0.625
 43
3.75
 44
1.25
 45
0.0
 46
0.0
 47
0.0
 48
0.0
 49
2.5
140
2.5
141
2.5
142
0.0
143
0.03937007874
144
1.0
145
0.0
146
1.0
147
0.625
148
0.0
 69
0
 70
0
 71
0
 72
0
 73
0
 74
0
 75
0
 76
0
 77
1
 78
8
 79
3
170
0
171
3
172
1
173
0
174
0
175
0
176
0
177
0
178
0
179
2
271
2
272
2
273
2
274
3
275
0
276
0
277
2
278
44
279
0
280
0
281
0
282
0
283
0
284
8
285
0
286
0
288
0
289
3
290
0
371
-2
372
-2
  0
DIMSTYLE
105
73
330
4
100
AcDbSymbolTableRecord
100
AcDbDimStyleTableRecord
  2
EZDXF
 70
0
 40
1.0
 41
0.175
 42
0.125
 43
3.75
 44
0.375
 45
0.0
 46
0.0
 47
0.0
 48
0.0
 49
2.5
140
0.25
141
2.5
142
0.0
143
0.03937007874
144
100.0
145
0.0
146
0.5
147
0.1
148
0.0
 69
0
 70
0
 71
0
 72
0
 73
0
 74
0
 75
0
 76
0
 77
1
 78
12
 79
3
170
0
171
3
172
1
173
0
174
0
175
0
176
0
177
0
178
0
179
2
271
2
272
2
273
2
274
3
275
0
276
0
277
2
278
46
279
2
280
0
281
0
282
0
283
0
284
8
285
0
286
0
288
1
289
3
290
0
340
4C
342
74
371
-2
372
-2
  0
DIMSTYLE
105
7C
330
4
100
AcDbSymbolTableRecord
100
AcDbDimStyleTableRecord
  2
EZ_M_100_H25_CM
 70
0
 40
1.0
 41
0.25
 42
0.125
 43
3.75
 44
0.375
 45
0.0
 46
0.0
 47
0.0
 48
0.0
 49
2.5
140
0.25
141
2.5
142
0.125
143
0.03937007874
144
100.0
145
0.0
146
0.5
147
0.1
148
0.0
 69
0
 70
0
 71
0
 72
0
 73
0
 74
0
 75
0
 76
0
 77
1
 78
12
 79
3
170
0
171
3
172
1
173
0
174
0
175
0
176
0
177
0
178
0
179
2
271
2
272
2
273
2
274
3
275
0
276
0
277
2
278
46
279
2
280
0
281
0
282
0
283
0
284
8
285
0
286
0
288
1
289
3
290
0
340
4C
371
-2
372
-2
  0
DIMSTYLE
105
7D
330
4
100
AcDbSymbolTableRecord
100
AcDbDimStyleTableRecord
  2
EZ_M_50_H25_CM
 70
0
 40
1.0
 41
0.125
 42
0.0625
 43
3.75
 44
0.1875
 45
0.0
 46
0.0
 47
0.0
 48
0.0
 49
2.5
140
0.125
141
2.5
142
0.0625
143
0.03937007874
144
100.0
145
0.0
146
0.5
147
0.05
148
0.0
 69
0
 70
0
 71
0
 72
0
 73
0
 74
0
 75
0
 76
0
 77
1
 78
12
 79
3
170
0
171
3
172
1
173
0
174
0
175
0
176
0
177
0
178
0
179
2
271
2
272
2
273
2
274
3
275
0
276
0
277
2
278
46
279
2
280
0
281
0
282
0
283
0
284
8
285
0
286
0
288
1
289
3
290
0
340
4C
371
-2
372
-2
  0
DIMSTYLE
105
7E
330
4
100
AcDbSymbolTableRecord
100
AcDbDimStyleTableRecord
  2
EZ_M_25_H25_CM
 70
0
 40
1.0
 41
0.0625
 42
0.03125
 43
3.75
 44
0.09375
 45
0.0
 46
0.0
 47
0.0
 48
0.0
 49
2.5
140
0.0625
141
2.5
142
0.03125
143
0.03937007874
144
100.0
145
0.0
146
0.5
147
0.025
148
0.0
 69
0
 70
0
 71
0
 72
0
 73
0
 74
0
 75
0
 76
0
 77
1
 78
12
 79
3
170
0
171
3
172
1
173
0
174
0
175
0
176
0
177
0
178
0
179
2
271
2
272
2
273
2
274
3
275
0
276
0
277
2
278
46
279
2
280
0
281
0
282
0
283
0
284
8
285
0
286
0
288
1
289
3
290
0
340
4C
371
-2
372
-2
  0
DIMSTYLE
105
7F
330
4
100
AcDbSymbolTableRecord
100
AcDbDimStyleTableRecord
  2
EZ_M_20_H25_CM
 70
0
 40
1.0
 41
0.05
 42
0.025
 43
3.75
 44
0.07500000000000001
 45
0.0
 46
0.0
 47
0.0
 48
0.0
 49
2.5
140
0.05
141
2.5
142
0.025
143
0.03937007874
144
100.0
145
0.0
146
0.5
147
0.020000000000000004
148
0.0
 69
0
 70
0
 71
0
 72
0
 73
0
 74
0
 75
0
 76
0
 77
1
 78
12
 79
3
170
0
171
3
172
1
173
0
174
0
175
0
176
0
177
0
178
0
179
2
271
2
272
2
273
2
274
3
275
0
276
0
277
2
278
46
279
2
280
0
281
0
282
0
283
0
284
8
285
0
286
0
288
1
289
3
290
0
340
4C
371
-2
372
-2
  0
DIMSTYLE
105
80
330
4
100
AcDbSymbolTableRecord
100
AcDbDimStyleTableRecord
  2
EZ_M_10_H25_CM
 70
0
 40
1.0
 41
0.025
 42
0.0125
 43
3.75
 44
0.037500000000000006
 45
0.0
 46
0.0
 47
0.0
 48
0.0
 49
2.5
140
0.025
141
2.5
142
0.0125
143
0.03937007874
144
100.0
145
0.0
146
0.5
147
0.010000000000000002
148
0.0
 69
0
 70
0
 71
0
 72
0
 73
0
 74
0
 75
0
 76
0
 77
1
 78
12
 79
3
170
0
171
3
172
1
173
0
174
0
175
0
176
0
177
0
178
0
179
2
271
2
272
2
273
2
274
3
275
0
276
0
277
2
278
46
279
2
280
0
281
0
282
0
283
0
284
8
285
0
286
0
288
1
289
3
290
0
340
4C
371
-2
372
-2
  0
DIMSTYLE
105
81
330
4
100
AcDbSymbolTableRecord
100
AcDbDimStyleTableRecord
  2
EZ_M_5_H25_CM
 70
0
 40
1.0
 41
0.0125
 42
0.00625
 43
3.75
 44
0.018750000000000003
 45
0.0
 46
0.0
 47
0.0
 48
0.0
 49
2.5
140
0.0125
141
2.5
142
0.00625
143
0.03937007874
144
100.0
145
0.0
146
0.5
147
0.005000000000000001
148
0.0
 69
0
 70
0
 71
0
 72
0
 73
0
 74
0
 75
0
 76
0
 77
1
 78
12
 79
3
170
0
171
3
172
1
173
0
174
0
175
0
176
0
177
0
178
0
179
2
271
2
272
2
273
2
274
3
275
0
276
0
277
2
278
46
279
2
280
0
281
0
282
0
283
0
284
8
285
0
286
0
288
1
289
3
290
0
340
4C
371
-2
372
-2
  0
DIMSTYLE
105
82
330
4
100
AcDbSymbolTableRecord
100
AcDbDimStyleTableRecord
  2
EZ_M_1_H25_CM
 70
0
 40
1.0
 41
0.0025
 42
0.00125
 43
3.75
 44
0.00375
 45
0.0
 46
0.0
 47
0.0
 48
0.0
 49
2.5
140
0.0025
141
2.5
142
0.00125
143
0.03937007874
144
100.0
145
0.0
146
0.5
147
0.001
148
0.0
 69
0
 70
0
 71
0
 72
0
 73
0
 74
0
 75
0
 76
0
 77
1
 78
12
 79
3
170
0
171
3
172
1
173
0
174
0
175
0
176
0
177
0
178
0
179
2
271
2
272
2
273
2
274
3
275
0
276
0
277
2
278
46
279
2
280
0
281
0
282
0
283
0
284
8
285
0
286
0
288
1
289
3
290
0
340
4C
371
-2
372
-2
  0
DIMSTYLE
105
83
330
4
100
AcDbSymbolTableRecord
100
AcDbDimStyleTableRecord
  2
EZ_RADIUS
 70
0
 40
1.0
 41
0.25
 42
0.125
 43
3.75
 44
0.375
 45
0.0
 46
0.0
 47
0.0
 48
0.0
 49
2.5
140
0.25
141
0.0
142
0.0
143
0.03937007874
144
100.0
145
0.0
146
0.5
147
0.1
148
0.0
 69
0
 70
0
 71
0
 72
0
 73
0
 74
0
 75
0
 76
0
 77
1
 78
12
 79
3
170
0
171
3
172
0
173
0
174
0
175
0
176
0
177
0
178
0
179
2
271
2
272
2
273
2
274
3
275
0
276
0
277
2
278
46
279
1
280
0
281
0
282
0
283
0
284
8
285
0
286
0
288
1
289
3
290
0
340
4C
342
84
371
-2
372
-2
  0
DIMSTYLE
105
88
330
4
100
AcDbSymbolTableRecord
100
AcDbDimStyleTableRecord
  2
EZ_RADIUS_INSIDE
 70
0
 40
1.0
 41
0.25
 42
0.125
 43
3.75
 44
0.375
 45
0.0
 46
0.0
 47
0.0
 48
0.0
 49
2.5
140
0.25
141
0.0
142
0.0
143
0.03937007874
144
100.0
145
0.0
146
0.5
147
0.1
148
0.0
 69
0
 70
0
 71
0
 72
0
 73
0
 74
0
 75
0
 76
0
 77
0
 78
12
 79
3
170
0
171
3
172
0
173
0
174
1
175
0
176
0
177
0
178
0
179
2
271
2
272
2
273
2
274
3
275
0
276
0
277
2
278
46
279
0
280
0
281
0
282
0
283
0
284
8
285
0
286
0
288
1
289
0
290
0
340
4C
342
84
371
-2
372
-2
  0
DIMSTYLE
105
89
330
4
100
AcDbSymbolTableRecord
100
AcDbDimStyleTableRecord
  2
EZ_CURVED
 70
0
 40
1.0
 41
0.25
 42
0.125
 43
3.75
 44
0.375
 45
0.0
 46
0.0
 47
0.0
 48
0.0
 49
2.5
140
0.25
141
2.5
142
0.0
143
0.03937007874
144
100.0
145
0.0
146
0.5
147
0.1
148
0.0
 69
0
 70
0
 71
0
 72
0
 73
0
 74
0
 75
0
 76
0
 77
1
 78
12
 79
2
 90
2
170
0
171
3
172
1
173
0
174
0
175
0
176
0
177
0
178
0
179
2
271
2
272
2
273
2
274
3
275
0
276
0
277
2
278
46
279
2
280
0
281
0
282
0
283
0
284
8
285
0
286
0
288
1
289
3
290
0
340
4C
371
-2
372
-2
  0
ENDTAB
  0
TABLE
  2
BLOCK_RECORD
  5
9
330
0
100
AcDbSymbolTable
 70
5
  0
BLOCK_RECORD
  5
17
330
9
100
AcDbSymbolTableRecord
100
AcDbBlockTableRecord
  2
*Model_Space
340
1A
 70
0
280
1
281
0
  0
BLOCK_RECORD
  5
1B
330
9
100
AcDbSymbolTableRecord
100
AcDbBlockTableRecord
  2
*Paper_Space
340
1E
 70
0
280
1
281
0
  0
BLOCK_RECORD
  5
74
330
9
100
AcDbSymbolTableRecord
100
AcDbBlockTableRecord
  2
_ARCHTICK
340
0
 70
0
280
1
281
0
  0
BLOCK_RECORD
  5
78
330
9
100
AcDbSymbolTableRecord
100
AcDbBlockTableRecord
  2
_CLOSEDFILLED
340
0
 70
0
280
1
281
0
  0
BLOCK_RECORD
  5
84
330
9
100
AcDbSymbolTableRecord
100
AcDbBlockTableRecord
  2
_CLOSEDBLANK
340
0
 70
0
280
1
281
0
  0
ENDTAB
  0
ENDSEC
  0
SECTION
  2
BLOCKS
  0
BLOCK
  5
18
330
17
100
AcDbEntity
  8
0
100
AcDbBlockBegin
  2
*Model_Space
 70
0
 10
0.0
 20
0.0
 30
0.0
  3
*Model_Space
  1

  0
ENDBLK
  5
19
330
17
100
AcDbEntity
  8
0
100
AcDbBlockEnd
  0
BLOCK
  5
1C
330
1B
100
AcDbEntity
  8
0
100
AcDbBlockBegin
  2
*Paper_Space
 70
0
 10
0.0
 20
0.0
 30
0.0
  3
*Paper_Space
  1

  0
ENDBLK
  5
1D
330
1B
100
AcDbEntity
  8
0
100
AcDbBlockEnd
  0
BLOCK
  5
75
330
74
100
AcDbEntity
  8
0
100
AcDbBlockBegin
  2
_ARCHTICK
 70
0
 10
0.0
 20
0.0
 30
0.0
  3
_ARCHTICK
  1

  0
LWPOLYLINE
  5
77
330
74
100
AcDbEntity
  8
0
  6
BYBLOCK
 62
0
100
AcDbPolyline
 90
2
 70
0
 43
0.15
 10
-0.5
 20
-0.5
 10
0.5
 20
0.5
  0
ENDBLK
  5
76
330
74
100
AcDbEntity
  8
0
100
AcDbBlockEnd
  0
BLOCK
  5
79
330
78
100
AcDbEntity
  8
0
100
AcDbBlockBegin
  2
_CLOSEDFILLED
 70
0
 10
0.0
 20
0.0
 30
0.0
  3
_CLOSEDFILLED
  1

  0
SOLID
  5
7B
330
78
100
AcDbEntity
  8
0
  6
BYBLOCK
 62
0
100
AcDbTrace
 10
-1.0
 20
0.16439898372402537
 30
0.0
 11
0.0
 21
0.0
 31
0.0
 12
-1.0
 22
-0.16439898372402537
 32
0.0
 13
-1.0
 23
-0.16439898372402537
 33
0.0
  0
ENDBLK
  5
7A
330
78
100
AcDbEntity
  8
0
100
AcDbBlockEnd
  0
BLOCK
  5
85
330
84
100
AcDbEntity
  8
0
100
AcDbBlockBegin
  2
_CLOSEDBLANK
 70
0
 10
0.0
 20
0.0
 30
0.0
  3
_CLOSEDBLANK
  1

  0
LWPOLYLINE
  5
87
330
84
100
AcDbEntity
  8
0
  6
BYBLOCK
 62
0
100
AcDbPolyline
 90
3
 70
1
 10
-1.0
 20
0.16439898372402537
 10
0.0
 20
0.0
 10
-1.0
 20
-0.16439898372402537
  0
ENDBLK
  5
86
330
84
100
AcDbEntity
  8
0
100
AcDbBlockEnd
  0
ENDSEC
  0
SECTION
  2
ENTITIES
  0
LWPOLYLINE
  5
8D
330
17
100
AcDbEntity
  8
OUTLINE
100
AcDbPolyline
 90
627
 70
1
 10
3.391412827396606
 20
-100.18163372351917
 10
3.397759001007606
 20
-100.35894112939448
 10
3.403688595635912
 20
-100.47611428101844
 10
3.408793253823501
 20
-100.56416098167688
 10
3.4120855557485266
 20
-100.61453718781638
 10
3.423508339076446
 20
-100.76153955071283
 10
3.4286297040437548
 20
-100.8183938121401
 10
3.4435560090217177
 20
-100.96415475217422
 10
3.452741540612516
 20
-101.04419785531687
 10
3.4714485881556145
 20
-101.19116772657313
 10
3.4802600689558174
 20
-101.2541735019791
 10
3.5013155510338674
 20
-101.39288557097555
 10
3.51665469472141
 20
-101.48654489129964
 10
3.543500732353242
 20
-101.63822946056209
 10
3.5538184688736463
 20
-101.69246023336443
 10
3.582961388207231
 20
-101.83606422622307
 10
3.599951566538474
 20
-101.91483702422576
 10
3.6329754155488363
 20
-102.05927143510577
 10
3.647919673900212
 20
-102.12110823523271
 10
3.682469439851241
 20
-102.25708654798981
 10
3.7069149401144124
 20
-102.34879137409379
 10
3.7484993944496976
 20
-102.49711416886161
 10
3.764082993518259
 20
-102.55007249064722
 10
3.8071612344498824
 20
-102.69012848541573
 10
3.8317906848222485
 20
-102.76685664216403
 10
3.8788125628912544
 20
-102.90735865862969
 10
3.8997459268716606
 20
-102.96743290420034
 10
3.9474575316165366
 20
-103.09936997494927
 10
3.980773964917682
 20
-103.18823713920531
 10
4.036696354922089
 20
-103.33176972986539
 10
4.057395737950287
 20
-103.38294558301695
 10
4.113994433469147
 20
-103.51810476390101
 10
4.146025960825932
 20
-103.59204934533928
 10
4.206593021573284
 20
-103.72726585619249
 10
4.233313891445541
 20
-103.784998999382
 10
4.293727846154373
 20
-103.91162420202267
 10
4.335594357031542
 20
-103.99679786507275
 10
4.405316119525696
 20
-104.13415795433251
 10
4.4309319401541485
 20
-104.18305848744629
 10
4.500506013884739
 20
-104.31201919765195
 10
4.539631137087526
 20
-104.38246807698903
 10
4.613160086594463
 20
-104.51109687327819
 10
4.645411125771147
 20
-104.5659329123491
 10
4.717945611028389
 20
-104.68602677694703
 10
4.767959002094885
 20
-104.76668666985597
 10
4.850808678388649
 20
-104.89655140496097
 10
4.881094242250809
 20
-104.94270567914954
 10
4.962973657829341
 20
-105.06422595653974
 10
5.008815580568466
 20
-105.13050067258546
 10
5.094598294866661
 20
-105.25130298870697
 10
5.132068908216074
 20
-105.30271382263534
 10
5.21602537728697
 20
-105.41511977963913
 10
5.273703992247954
 20
-105.49048910354676
 10
5.3688836946720455
 20
-105.61160781611139
 10
5.403547335240492
 20
-105.65457134049652
 10
5.496943549134443
 20
-105.76748087836835
 10
5.549060788625287
 20
-105.82894316936328
 10
5.646271133278057
 20
-105.94075561296766
 10
5.68860045829756
 20
-105.98824612730209
 10
5.7831703644756605
 20
-106.09188164587975
 10
5.847958726743014
 20
-106.16123455300058
 10
5.9545518227329
 20
-106.27244080361245
 10
5.993259710196745
 20
-106.31179981596318
 10
6.097273265811083
 20
-106.41501123374529
 10
6.155163904547843
 20
-106.47106918423077
 10
6.262865690793872
 20
-106.5728149403623
 10
6.309646072950338
 20
-106.61592777549825
 10
6.4139186563515596
 20
-106.70979478896489
 10
6.485192818578926
 20
-106.77246337288864
 10
6.602172758350257
 20
-106.87268618456172
 10
6.644552114595731
 20
-106.90806163607505
 10
6.758181304531661
 20
-107.00058095139411
 10
6.821287824016322
 20
-107.0506946926627
 10
6.938443824773449
 20
-107.14139389406695
 10
6.9892247434100785
 20
-107.17971384983164
 10
7.10219580205718
 20
-107.26290836753542
 10
7.179269355103399
 20
-107.31828909554224
 10
7.305509557888959
 20
-107.40656326781253
 10
7.351152246546793
 20
-107.43761447355014
 10
7.473302759586478
 20
-107.5185506748213
 10
7.541017409536485
 20
-107.56223758414896
 10
7.666499348481751
 20
-107.64101674794233
 10
7.7207917556010335
 20
-107.6741747822205
 10
7.841373316434451
 20
-107.74589559547081
 10
7.923503999840825
 20
-107.79345512086817
 10
8.057788703472104
 20
-107.86893052519751
 10
8.10625516049166
 20
-107.8953584450693
 10
8.23575062042303
 20
-107.96393207243216
 10
8.307421271759047
 20
-108.00077142101011
 10
8.440020689233153
 20
-108.0668718607838
 10
8.497301719280054
 20
-108.09454864358057
 10
8.62433251595703
 20
-108.15410504174241
 10
8.710729366337423
 20
-108.19338534029941
 10
8.85176533571262
 20
-108.25533510728643
 10
8.90258880262503
 20
-108.27688522598152
 10
9.038182097374847
 20
-108.33243587791593
 10
9.11311852253444
 20
-108.36207288267178
 10
9.251558413648201
 20
-108.41485801504948
 10
9.311276418972003
 20
-108.43678700380819
 10
9.443533075485377
 20
-108.48360542621295
 10
9.533364043971083
 20
-108.51422820719452
 10
9.679793025623336
 20
-108.56205572672353
 10
9.732484044681193
 20
-108.5785205048251
 10
9.872869336702669
 20
-108.6205131981875
 10
9.950349856917608
 20
-108.64266243855546
 10
10.09329696982079
 20
-108.68162391385209
 10
10.154876833391471
 20
-108.69759392042727
 10
10.291085645823086
 20
-108.73122348006807
 10
10.383485611054972
 20
-108.75289382934348
 10
10.533897413811985
 20
-108.78613849624686
 10
10.587948541648657
 20
-108.79735936892693
 10
10.731773843837352
 20
-108.82538969112578
 10
10.811052279406434
 20
-108.83983785783148
 10
10.9571299553093
 20
-108.86460045575535
 10
11.019978629391263
 20
-108.87445768025637
 10
11.1588278324311
 20
-108.89457450609383
 10
11.252906932235495
 20
-108.90708372635505
 10
11.40585300823673
 20
-108.92542537632305
 10
11.460750024021563
 20
-108.93129495629765
 10
11.606626460617598
 20
-108.94509265068407
 10
11.686927165818883
 20
-108.95169965104378
 10
11.834595788965382
 20
-108.96201735461833
 10
11.928706480744639
 20
-108.96742725576236
 10
12.011983151946687
 20
-108.97163402098057
 10
12.028809839187442
 20
-108.97236684851462
 10
12.289356340460554
 20
-108.97804894504682
 10
49.52889620359221
 20
-108.98124569255118
 10
49.553558405646
 20
-108.9811971240768
 10
49.641847023581875
 20
-108.98084180152163
 10
49.782655832701145
 20
-108.98358136188925
 10
51.91629139370943
 20
-109.07523764475867
 10
52.19663183369846
 20
-109.10050478801278
 10
54.242472706687415
 20
-109.38222505808491
 10
54.519208433760035
 20
-109.43366947647152
 10
56.52961634353977
 20
-109.90599481398417
 10
56.800308496805805
 20
-109.98316312990235
 10
58.757565798908736
 20
-110.64193095055492
 10
59.01982877925251
 20
-110.7441430827242
 10
60.90668624338905
 20
-111.5835476920719
 10
61.15820873765883
 20
-111.70990284906132
 10
62.958037564495136
 20
-112.72254660786855
 10
63.1966029150124
 20
-112.87193122673504
 10
64.89354128511286
 20
-114.04888974607363
 10
65.11704702498945
 20
-114.21998730614857
 10
66.69613988839649
 20
-115.55088809768026
 10
66.90261627048969
 20
-115.74219072301263
 10
68.34994714498102
 20
-117.21530461131378
 10
68.53757450119741
 20
-117.42512635952133
 10
69.84038811768733
 20
-119.0274708508372
 10
70.0075128956433
 20
-119.25396257124774
 10
71.19345345726099
 20
-121.03001059022107
 10
71.26889089023283
 20
-121.14893838185588
 10
71.37101415046564
 20
-121.31861618496225
 10
71.41593829762262
 20
-121.3920598411567
 10
71.44543647188385
 20
-121.43951627069355
 10
71.5247975753197
 20
-121.56376082889642
 10
71.55610418482158
 20
-121.61147083127325
 10
71.63797365786093
 20
-121.7329759565862
 10
71.68381558058691
 20
-121.7992506726123
 10
71.76959829487399
 20
-121.92005298871747
 10
71.80706890821843
 20
-121.97146382263891
 10
71.89102537728138
 20
-122.08386977963208
 10
71.94870399223952
 20
-122.1592391035362
 10
72.04388369465525
 20
-122.28035781609073
 10
72.07854733520949
 20
-122.32332134045855
 10
72.17194354910107
 20
-122.43623087832835
 10
72.22406078860874
 20
-122.4976931693436
 10
72.32127113327249
 20
-122.60950561296119
 10
72.36360045828742
 20
-122.65699612729058
 10
72.45817036447342
 20
-122.7606316458769
 10
72.52295872675336
 20
-122.82998455301107
 10
72.62955182275645
 20
-122.94119080363616
 10
72.66825971024105
 20
-122.98054981600767
 10
72.77227326585894
 20
-123.08376123379239
 10
72.83016390457041
 20
-123.13981918425284
 10
72.93786569079822
 20
-123.24156494036664
 10
72.98464607295413
 20
-123.28467777550203
 10
73.08891865634818
 20
-123.37854478896224
 10
73.1601928185682
 20
-123.44121337287967
 10
73.27717275832391
 20
-123.54143618453992
 10
73.31955211454536
 20
-123.57681163603351
 10
73.43318130447913
 20
-123.6693309513517
 10
73.49628782399105
 20
-123.71944469264243
 10
73.61344382477174
 20
-123.81014389406535
 10
73.66422474342366
 20
-123.84846384984156
 10
73.77719580207452
 20
-123.93165836754801
 10
73.85426935510786
 20
-123.98703909554547
 10
73.98050955789003
 20
-124.07531326781327
 10
74.02615224654737
 20
-124.10636447355053
 10
74.14830275958631
 20
-124.18730067482116
 10
74.21601740953969
 20
-124.23098758415098
 10
74.34149934848644
 20
-124.30976674794523
 10
74.39579175560435
 20
-124.34292478222254
 10
74.51637331643873
 20
-124.41464559547335
 10
74.59850399984492
 20
-124.46220512087054
 10
74.73278870347694
 20
-124.53768052520017
 10
74.78125516050171
 20
-124.56410844507477
 10
74.9107506204315
 20
-124.63268207243668
 10
74.98242127175841
 20
-124.66952142100992
 10
75.11502068922418
 20
-124.73562186077952
 10
75.17230171925536
 20
-124.76329864356876
 10
75.29933251593685
 20
-124.82285504173284
 10
75.38572936634209
 20
-124.86213534030117
 10
75.52676533573239
 20
-124.92408510729463
 10
75.577588802668
 20
-124.94563522599941
 10
75.71318209742381
 20
-125.00118587793581
 10
75.78811852255453
 20
-125.03082288267994
 10
75.92655841364879
 20
-125.08360801504992
 10
75.9862764189726
 20
-125.10553700380864
 10
76.11853307547291
 20
-125.15235542620894
 10
76.20836404394535
 20
-125.18297820718622
 10
76.35479302557549
 20
-125.23080572670868
 10
76.40748404460206
 20
-125.24727050480082
 10
76.54786933662479
 20
-125.28926319816452
 10
76.62534985687911
 20
-125.31141243854424
 10
76.76829696981208
 20
-125.3503739138495
 10
76.82987683340467
 20
-125.36634392043041
 10
76.96608564583886
 20
-125.3999734800719
 10
77.0584856110484
 20
-125.4216438293421
 10
77.20889741379607
 20
-125.4548884962436
 10
77.26294854162197
 20
-125.46610936892154
 10
77.4067738438083
 20
-125.49413969112022
 10
77.48605227939188
 20
-125.50858785782876
 10
77.63212995530465
 20
-125.5333504557545
 10
77.69497862940649
 20
-125.54320768025867
 10
77.8338278324408
 20
-125.56332450609548
 10
77.9279069322128
 20
-125.57583372635254
 10
78.08085300819008
 20
-125.59417537631822
 10
78.13575002394201
 20
-125.60004495628961
 10
78.28162646053434
 20
-125.61384265067655
 10
78.3619271657785
 20
-125.62044965104027
 10
78.50959578895575
 20
-125.63076735461749
 10
78.60370648076135
 20
-125.63617725576313
 10
78.686983151963
 20
-125.6403840209814
 10
78.70409204154348
 20
-125.64112913885175
 10
78.96389025587735
 20
-125.64681112448804
 10
94.03229743214536
 20
-125.6499838880049
 10
94.18818673471688
 20
-125.65407042584282
 10
96.55204579689294
 20
-125.7775906495825
 10
96.86229218105552
 20
-125.81005305835353
 10
99.20044132939275
 20
-126.1785199319973
 10
99.35395604833644
 20
-126.20682431689382
 10
110.98459819465005
 20
-128.6657822157279
 10
111.13657549667498
 20
-128.70207302749404
 10
113.42591720130837
 20
-129.31219189060988
 10
113.72302560287882
 20
-129.40819950929492
 10
115.93649388510956
 20
-130.2531188138815
 10
116.08096973148372
 20
-130.31262388226898
 10
129.66014908129043
 20
-136.32377373597103
 10
129.69663266754864
 20
-136.3397794217216
 10
129.7944589996433
 20
-136.38231000279046
 10
129.8734490717642
 20
-136.41598141839071
 10
129.95620564665592
 20
-136.4505607291118
 10
130.12090378254163
 20
-136.51653583217623
 10
130.23044679673743
 20
-136.5585481581534
 10
130.313022767937
 20
-136.58952376166818
 10
130.36041933273282
 20
-136.60690671423052
 10
130.49946180435265
 20
-136.65597162796692
 10
130.55352231835053
 20
-136.67430455591534
 10
130.69284794285971
 20
-136.7196633100355
 10
130.76975749102124
 20
-136.74366734623356
 10
130.9117190859633
 20
-136.78605840951485
 10
130.97289835721384
 20
-136.80350738363578
 10
131.10825975537995
 20
-136.8404081058129
 10
131.20011102899574
 20
-136.86429745799248
 10
131.34967856745203
 20
-136.90115488231189
 10
131.40344378346467
 20
-136.91367422539366
 10
131.54655230990488
 20
-136.9451601932817
 10
131.62545979303997
 20
-136.961513449013
 10
131.770898737214
 20
-136.98978688480537
 10
131.83349178883796
 20
-137.00115484842166
 10
131.97181624184836
 20
-137.02460977473442
 10
132.06556679246845
 20
-137.03938109397896
 10
132.21802678169777
 20
-137.06140085732252
 10
132.27276021374612
 20
-137.0685900036274
 10
132.41826579804717
 20
-137.08589726945442
 10
132.49839621940478
 20
-137.0944374939372
 10
132.6459061166038
 20
-137.10831927600438
 10
132.7093120208987
 20
-137.11349730784698
 10
132.84926938861227
 20
-137.12328112495368
 10
132.94401634707745
 20
-137.12879215537737
 10
133.0979005139191
 20
-137.13576219538066
 10
133.15307504894145
 20
-137.13755190948766
 10
133.2995763927703
 20
-137.14051379482734
 10
133.38015805280878
 20
-137.14115874104365
 10
133.52831830223818
 20
-137.14051518024405
 10
133.59192642567228
 20
-137.139453413029
 10
133.73216884224644
 20
-137.135471897429
 10
133.82699974368344
 20
-137.13166956480947
 10
133.9808260996488
 20
-137.1235227561846
 10
134.03591037696557
 20
-137.1198958021795
 10
134.18199659232812
 20
-137.10848378245154
 10
134.26225344531326
 20
-137.1012272392049
 10
134.40963718257882
 20
-137.08606453337316
 10
134.47283494405062
 20
-137.0787731925052
 10
134.61201179828825
 20
-137.06106468836424
 10
134.70601336934737
 20
-137.04798561122706
 10
134.858300482551
 20
-137.02480041218075
 10
134.91276401045585
 20
-137.01579171959347
 10
135.05702820721643
 20
-136.99011569878695
 10
135.13618733576152
 20
-136.9750275505831
 10
135.2813751748739
 20
-136.94549172488752
 10
135.34355394540407
 20
-136.93204102997834
 10
135.4803248880925
 20
-136.90077607987766
 10
135.57259184221104
 20
-136.878546216877
 10
135.72187310444724
 20
-136.84054591355275
 10
135.77519136929132
 20
-136.8262422410258
 10
135.91624420438927
 20
-136.78654949325625
 10
135.99354326296518
 20
-136.76377504719588
 10
136.13513696578858
 20
-136.72015054776983
 10
136.19569792994676
 20
-136.70067003633915
 10
136.32874578213588
 20
-136.656149738845
 10
136.41838953795937
 20
-136.62498317575293
 10
136.56322728897834
 20
-136.5725337318747
 10
136.6148868066121
 20
-136.55307283163728
 10
136.75136986411158
 20
-136.49974561977464
 10
136.8260644206604
 20
-136.4695042061688
 10
136.96270036252602
 20
-136.41221116074945
 10
137.0210602851181
 20
-136.386888440761
 10
137.14910372330098
 20
-136.32954155066264
 10
137.23526096250092
 20
-136.28973843851873
 10
137.37426033565242
 20
-136.22334497088522
 10
137.4237635968155
 20
-136.19891426200434
 10
137.5543624702817
 20
-136.13246615624206
 10
137.62573317522663
 20
-136.09504901648617
 10
137.7560954772005
 20
-136.02463918845916
 10
137.81169232019082
 20
-135.9937181315802
 10
137.93349821605977
 20
-135.92409693077607
 10
138.01533919741797
 20
-135.87604059526612
 10
138.1471615527858
 20
-135.7963425092471
 10
138.19403181402714
 20
-135.7671772727905
 10
138.3174887649266
 20
-135.68824820470292
 10
138.3848482793447
 20
-135.64401568632337
 10
138.50768148118038
 20
-135.561167160835
 10
138.55997981664592
 20
-135.52494555370617
 10
138.67437511278936
 20
-135.44372053244976
 10
138.75111166278413
 20
-135.38787378243998
 10
138.87448747891946
 20
-135.29563861424592
 10
138.9182733538518
 20
-135.2620197274914
 10
139.03339942422977
 20
-135.1713698271759
 10
139.09609903934944
 20
-135.12074791337795
 10
139.210220190293
 20
-135.0262585669253
 10
139.25871635662156
 20
-134.98508524345613
 10
139.3645993638888
 20
-134.89303864304017
 10
139.43549246774964
 20
-134.82993931315156
 10
139.54923356825967
 20
-134.726055337747
 10
139.5895133752239
 20
-134.68830656875136
 10
139.69519983811864
 20
-134.5868088442695
 10
139.75263572207027
 20
-134.53028505199865
 10
139.85694577284218
 20
-134.42506486881317
 10
139.90117272539987
 20
-134.3793363506616
 10
139.99752373247395
 20
-134.2773546302275
 10
140.0618906508308
 20
-134.20761040150595
 10
140.16490164666652
 20
-134.09307807841827
 10
140.20128746895816
 20
-134.0515629685767
 10
140.2965165059399
 20
-133.94019489852002
 10
140.34813551993528
 20
-133.87831358265802
 10
140.44162990783937
 20
-133.76337589053233
 10
140.48116171696742
 20
-133.71353256825918
 10
140.56705281098937
 20
-133.60259786752212
 10
140.62427365515316
 20
-133.52688041510177
 10
140.71556249407584
 20
-133.40280275326083
 10
140.74770391628945
 20
-133.35792111584374
 10
140.83155841967863
 20
-133.2377552356064
 10
140.87686344446038
 20
-133.17111234695727
 10
140.9586417674858
 20
-133.04756405861892
 10
140.9930977202293
 20
-132.9940859506905
 10
141.06770172305713
 20
-132.8752666313945
 10
141.11722542509142
 20
-132.79430515563277
 10
141.19591294575088
 20
-132.66187709063897
 10
141.22350360544374
 20
-132.61405565381267
 10
141.2951742057713
 20
-132.48625253892538
 10
141.33372314230945
 20
-132.4155006118858
 10
141.40293717258433
 20
-132.28464995176847
 10
141.445982079538
 20
-132.20078562492736
 10
141.4835409901319
 20
-132.12634081938467
 10
141.49105064688692
 20
-132.11119528942942
 10
141.60165445691513
 20
-131.87540418735773
 10
152.98907801950315
 20
-106.16186369411977
 10
153.00543896748655
 20
-106.12457842496619
 10
153.04775719842007
 20
-106.02724236930358
 10
153.08153826316604
 20
-105.94799140865499
 10
153.11606251344682
 20
-105.8653572570372
 10
153.18215277072312
 20
-105.70033886251336
 10
153.22423484293813
 20
-105.59058216955187
 10
153.25526071752554
 20
-105.5078442445057
 10
153.27267122379794
 20
-105.46035416602638
 10
153.32180969172472
 20
-105.32103720790883
 10
153.34016873665968
 20
-105.26686897987261
 10
153.38558712385233
 20
-105.12726733396113
 10
153.40961978333056
 20
-105.05020668497748
 10
153.4520572609132
 20
-104.90796370162664
 10
153.46952303768452
 20
-104.84666361616985
 10
153.50645535266065
 20
-104.71103198348105
 10
153.53036211452803
 20
-104.61899620805897
 10
153.56724002480118
 20
-104.4691288872022
 10
153.57976414142854
 20
-104.41525523967488
 10
153.61125542846287
 20
-104.27186020226449
 10
153.62760749767472
 20
-104.19279637193556
 10
153.6558721276958
 20
-104.04706748945917
 10
153.6672331683501
 20
-103.98435043076465
 10
153.6906669662408
 20
-103.8457495478176
 10
153.70541985099493
 20
-103.75181089962301
 10
153.7274018727955
 20
-103.5990464244792
 10
153.7345748219044
 20
-103.5442032643879
 10
153.75183186468215
 20
-103.39840877755316
 10
153.7603404762288
 20
-103.31812127579066
 10
153.77415726493012
 20
-103.17032109711997
 10
153.77930429815186
 20
-103.10679149193092
 10
153.7890136066181
 20
-102.96655926679453
 10
153.79446999118707
 20
-102.87162589479983
 10
153.80134361397992
 20
-102.71744111126587
 10
153.80309605128147
 20
-102.66215863323096
 10
153.8059520178692
 20
-102.51537416071727
 10
153.80653491503992
 20
-102.43463916441635
 10
153.8057702890627
 20
-102.28619654319424
 10
153.8046535560799
 20
-102.22246856196713
 10
153.80054451068125
 20
-102.08196068541004
 10
153.79665164562104
 20
-101.986950355175
 10
153.7883504188648
 20
-101.83283583998966
 10
153.77267631385993
 20
-101.59809809358967
 10
153.7664356132037
 20
-101.44868213550872
 10
153.7252483242695
 20
-98.99906857817771
 10
153.72671783959817
 20
-98.8420835152162
 10
153.73180240209913
 20
-98.69905118329422
 10
153.73482029082848
 20
-98.58199114289081
 10
153.73570767286364
 20
-98.52659192301746
 10
153.7364772483012
 20
-98.43059557611603
 10
153.73749999918266
 20
-36.468865155550766
 10
153.7375
 20
-26.85
 10
153.7086083600332
 20
-26.261897158022638
 10
153.6222116824194
 20
-25.679458067903234
 10
153.47914201439326
 20
-25.10829193647323
 10
153.28077719506774
 20
-24.553899405809464
 10
153.02902758609014
 20
-24.021619579044014
 10
152.7263176738153
 20
-23.516578601882387
 10
152.37556272017645
 20
-23.04364029501813
 10
151.9801406871193
 20
-22.607359312880718
 10
151.54385970498188
 20
-22.21193727982358
 10
151.07092139811763
 20
-21.861182326184732
 10
150.565880420956
 20
-21.558472413909872
 10
150.03360059419055
 20
-21.30672280493228
 10
149.47920806352678
 20
-21.108357985606748
 10
148.90804193209678
 20
-20.96528831758062
 10
148.32560284197737
 20
-20.87889163996682
 10
147.7375
 20
-20.85
 10
103.69777625926318
 20
-20.85
 10
103.1515598333362
 20
-20.87491442604815
 10
102.60987963032589
 20
-20.94945079465082
 10
102.07723420068548
 20
-21.072990095526862
 10
101.55804706280385
 20
-21.24450635841771
 10
101.05662996653164
 20
-21.462575173574074
 10
100.57714708492362
 20
-21.725385521206416
 10
100.1235804315782
 20
-22.03075481165782
 10
98.29557139307673
 20
-23.386498714082087
 10
98.05092923115164
 20
-23.54996338067918
 10
96.19926449391613
 20
-24.65980851362437
 10
95.93977801171187
 20
-24.798506928072143
 10
93.98824570021365
 20
-25.721512971076034
 10
93.71641389440047
 20
-25.834109391824757
 10
91.68380833159218
 20
-26.56138729213778
 10
91.40224909105513
 20
-26.64679735410553
 10
89.30814537961754
 20
-27.171343027985817
 10
89.01957027375572
 20
-27.22874418558693
 10
86.88413577715876
 20
-27.54550597145537
 10
86.59132394198929
 20
-27.574345420164185
 10
84.3615558264603
 20
-27.683886904548284
 10
84.21437497430868
 20
-27.687499991747544
 10
69.15733734440308
 20
-27.68749999996274
 10
69.13090588211732
 20
-27.68755821877616
 10
69.09667394637316
 20
-27.68770902027785
 10
69.03781838972714
 20
-27.688256988432705
 10
68.92374325896613
 20
-27.68987867364183
 10
68.74831722329174
 20
-27.694939437747177
 10
68.66619998614892
 20
-27.698510983709905
 10
68.51607496359327
 20
-27.706926218995324
 10
68.40418186836632
 20
-27.714605900856686
 10
68.24985702616833
 20
-27.72720044592424
 10
68.19021655861123
 20
-27.732843298225426
 10
68.03712903613895
 20
-27.749312002676465
 10
67.90180149870095
 20
-27.765629181978664
 10
67.83783494865177
 20
-27.773690879267384
 10
51.5244154046535
 20
-29.918770444493457
 10
51.429890366479555
 20
-29.929677627489095
 10
49.94658541620408
 20
-30.077037779268036
 10
49.85176200395056
 20
-30.084941574007566
 10
49.74701092094352
 20
-30.09200200274294
 10
49.67773587967145
 20
-30.097074252098658
 10
49.64962738195355
 20
-30.099295975078753
 10
49.58232399869938
 20
-30.10499707299027
 10
49.525292838861404
 20
-30.110151511141186
 10
49.37897254438878
 20
-30.125186162857965
 10
49.27600363341858
 20
-30.137043565838404
 10
49.20453409362097
 20
-30.145708422101087
 10
13.513188801947937
 20
-34.69030818557247
 10
13.41588161800827
 20
-34.7010878790802
 10
11.88897067706532
 20
-34.845059137915165
 10
11.783672509024068
 20
-34.853256505527156
 10
11.736296186066669
 20
-34.85677241625467
 10
11.709153948863971
 20
-34.85884862766198
 10
11.674323693820934
 20
-34.86159241173937
 10
11.60724382413785
 20
-34.86725550592748
 10
11.550374240063386
 20
-34.87237807795029
 10
11.404595247776198
 20
-34.88730600902698
 10
11.32455214466268
 20
-34.89649154061471
 10
11.177582273427587
 20
-34.91519858815536
 10
11.114576498021133
 20
-34.924010068955624
 10
10.975864429034011
 20
-34.94506555103212
 10
10.882205108719027
 20
-34.96040469471801
 10
10.730520539470955
 20
-34.98725073234684
 10
10.676289766696765
 20
-34.997568468861644
 10
10.532685773839514
 20
-35.02671138819431
 10
10.453912975801707
 20
-35.04370156653276
 10
10.309478564897159
 20
-35.07672541554838
 10
10.247641764744596
 20
-35.09166967390593
 10
10.111663451989712
 20
-35.126219439856335
 10
10.019958625920454
 20
-35.15066494011019
 10
9.871635831174268
 20
-35.19224939443901
 10
9.818677509414838
 20
-35.207832993499615
 10
9.678621514648228
 20
-35.25091123442995
 10
9.60189335786611
 20
-35.27554068481277
 10
9.461391341377366
 20
-35.322562562889075
 10
9.401317095796818
 20
-35.34349592687288
 10
9.269380025040238
 20
-35.39120753162052
 10
9.18051286078888
 20
-35.42452396491997
 10
9.036980270125941
 20
-35.48044635492564
 10
8.985804416966161
 20
-35.50114573795723
 10
8.850645236081608
 20
-35.55774443347649
 10
8.776700654654388
 20
-35.589775960828604
 10
8.641484143808022
 20
-35.65034302157299
 10
8.58375100061279
 20
-35.6770638914479
 10
8.457125797979938
 20
-35.73747784615289
 10
8.37195213494271
 20
-35.77934435702359
 10
8.23459204569478
 20
-35.8490661195113
 10
8.185691512602727
 20
-35.87468194012814
 10
8.056730802398386
 20
-35.944256013857384
 10
7.9862819230321165
 20
-35.983381137076016
 10
7.857653126721344
 20
-36.056910086594975
 10
7.802817087649752
 20
-36.08916112577207
 10
7.682723223041577
 20
-36.16169561103569
 10
7.602063330129203
 20
-36.211709002104556
 10
7.472198595006475
 20
-36.29455867841035
 10
7.426044320773224
 20
-36.324844242302206
 10
7.304524043376707
 20
-36.40672365788613
 10
7.238249327380883
 20
-36.45256558059144
 10
7.117447011296349
 20
-36.53834829486398
 10
7.066036177378589
 20
-36.575818908205626
 10
6.9536302203762705
 20
-36.65977537727534
 10
6.878260896450374
 20
-36.7174539922502
 10
6.757142183886809
 20
-36.8126336946733
 10
6.714178659522379
 20
-36.84729733522498
 10
6.6012691216569745
 20
-36.9406935491133
 10
6.5398068306448085
 20
-36.9928107886185
 10
6.427994387028319
 20
-37.09002113328159
 10
6.3805038727012615
 20
-37.132350458294546
 10
6.276868354123723
 20
-37.22692036447259
 10
6.207515446995865
 20
-37.29170872674654
 10
6.096309196379905
 20
-37.39830182274049
 10
6.056950184024042
 20
-37.43700971020948
 10
5.953738766241473
 20
-37.541023265824556
 10
5.897680815762854
 20
-37.59891390455439
 10
5.795935059636632
 20
-37.70661569079495
 10
5.752822224503495
 20
-37.75339607294838
 10
5.658955211036298
 20
-37.857668656350256
 10
5.596286627109162
 20
-37.928942818581504
 10
5.496063815434462
 20
-38.04592275835484
 10
5.460688363919622
 20
-38.08830211460218
 10
5.368169048601611
 20
-38.20193130453693
 10
5.318055307336
 20
-38.265037824017895
 10
5.227356105930748
 20
-38.382193824776444
 10
5.189036150168671
 20
-38.43297474340968
 10
5.105841632465198
 20
-38.54594580205652
 10
5.050460904453285
 20
-38.623019355109925
 10
4.962186732177389
 20
-38.74925955790389
 10
4.931135526431171
 20
-38.7949022465746
 10
4.850199325159805
 20
-38.91705275961524
 10
4.806512415842176
 20
-38.98476740955006
 10
4.727733252057127
 20
-39.11024934848239
 10
4.694575217782924
 20
-39.16454175559516
 10
4.622854404532314
 20
-39.285123316429065
 10
4.57529487913156
 20
-39.367253999841296
 10
4.499819474800561
 20
-39.50153870347562
 10
4.47339155492659
 20
-39.55000516049923
 10
4.404817927564289
 20
-39.679500620429714
 10
4.367978578989631
 20
-39.75117127175938
 10
4.3018781392197
 20
-39.883770689225834
 10
4.274201356426794
 20
-39.94105171926461
 10
4.214644958263664
 20
-40.06808251594407
 10
4.175364659701399
 20
-40.154479366335906
 10
4.113414892712277
 20
-40.295515335715855
 10
4.091864774014026
 20
-40.34633880263576
 10
4.036314122078671
 20
-40.48193209738809
 10
4.006677117327082
 20
-40.55686852253706
 10
3.953891984952408
 20
-40.69530841364291
 10
3.9319629961932474
 20
-40.7550264189678
 10
3.8851445737902006
 20
-40.88728307547587
 10
3.8545217928107975
 20
-40.97711404395474
 10
3.806694273284725
 20
-41.123543025596824
 10
3.7902294951878677
 20
-41.176234044638996
 10
3.7482368018247527
 20
-41.31661933666117
 10
3.7260875614505657
 20
-41.39409985689693
 10
3.687126086148953
 20
-41.5370469698174
 10
3.6711560795724454
 20
-41.598626833393176
 10
3.637526519930785
 20
-41.73483564582835
 10
3.6158561706555554
 20
-41.82723561105963
 10
3.5826115037506767
 20
-41.977647413824144
 10
3.571390631068459
 20
-42.03169854167162
 10
3.543360308869934
 20
-42.175523843859864
 10
3.5289121421664937
 20
-42.254802279417234
 10
3.5041495442442736
 20
-42.40087995531119
 10
3.4942923197441003
 20
-42.463728629387795
 10
3.474175493906559
 20
-42.60257783242832
 10
3.4616662736445996
 20
-42.6966569322384
 10
3.44332462367625
 20
-42.849603008243186
 10
3.43745504370136
 20
-42.90450002403114
 10
3.4236573493151035
 20
-43.05037646062649
 10
3.417050348955856
 20
-43.130677165822846
 10
3.406732645381724
 20
-43.27834578896395
 10
3.4013227442372296
 20
-43.372456480750834
 10
3.3971159790192145
 20
-43.45573315194788
 10
3.396385997197503
 20
-43.47249449787763
 10
3.3907038883048983
 20
-43.733214058958545
 10
3.3875047241752885
 20
-99.85936340826899
 10
3.3876377810173004
 20
-99.89966515218765
 10
3.388347919867483
 20
-100.00629091818921
 10
3.389536675657646
 20
-100.09226814510613
 10
3.391412827396606
 20
-100.18163372351917
  0
CIRCLE
  5
8E
330
17
100
AcDbEntity
  8
HOLES
100
AcDbCircle
 10
21.336190987312023
 20
-38.456084897596696
 30
0.0
 40
1.25
  0
TEXT
  5
8F
330
17
100
AcDbEntity
  8
TEXT
100
AcDbText
 10
24.336190987312023
 20
-37.456084897596696
 30
0.0
 40
2.0
  1
A1
 11
24.336190987312023
 21
-37.456084897596696
 31
0.0
100
AcDbText
  0
CIRCLE
  5
90
330
17
100
AcDbEntity
  8
HOLES
100
AcDbCircle
 10
63.27275386857712
 20
-33.6931035756491
 30
0.0
 40
1.25
  0
TEXT
  5
91
330
17
100
AcDbEntity
  8
TEXT
100
AcDbText
 10
66.27275386857713
 20
-32.6931035756491
 30
0.0
 40
2.0
  1
A2
 11
66.27275386857713
 21
-32.6931035756491
 31
0.0
100
AcDbText
  0
CIRCLE
  5
92
330
17
100
AcDbEntity
  8
HOLES
100
AcDbCircle
 10
105.3625
 20
-25.28034636178542
 30
0.0
 40
1.25
  0
TEXT
  5
93
330
17
100
AcDbEntity
  8
TEXT
100
AcDbText
 10
108.3625
 20
-24.28034636178542
 30
0.0
 40
2.0
  1
A3
 11
108.3625
 21
-24.28034636178542
 31
0.0
100
AcDbText
  0
CIRCLE
  5
94
330
17
100
AcDbEntity
  8
HOLES
100
AcDbCircle
 10
150.1125
 20
-27.02524210940509
 30
0.0
 40
1.25
  0
TEXT
  5
95
330
17
100
AcDbEntity
  8
TEXT
100
AcDbText
 10
153.1125
 20
-26.02524210940509
 30
0.0
 40
2.0
  1
A4
 11
153.1125
 21
-26.02524210940509
 31
0.0
100
AcDbText
  0
CIRCLE
  5
96
330
17
100
AcDbEntity
  8
HOLES
100
AcDbCircle
 10
150.1125000048428
 20
-71.02499492120113
 30
0.0
 40
1.25
  0
TEXT
  5
97
330
17
100
AcDbEntity
  8
TEXT
100
AcDbText
 10
153.1125000048428
 20
-70.02499492120113
 30
0.0
 40
2.0
  1
A5
 11
153.1125000048428
 21
-70.02499492120113
 31
0.0
100
AcDbText
  0
CIRCLE
  5
98
330
17
100
AcDbEntity
  8
HOLES
100
AcDbCircle
 10
134.4536774244614
 20
-133.41563334229895
 30
0.0
 40
1.25
  0
TEXT
  5
99
330
17
100
AcDbEntity
  8
TEXT
100
AcDbText
 10
137.4536774244614
 20
-132.41563334229895
 30
0.0
 40
2.0
  1
A6
 11
137.4536774244614
 21
-132.41563334229895
 31
0.0
100
AcDbText
  0
CIRCLE
  5
9A
330
17
100
AcDbEntity
  8
HOLES
100
AcDbCircle
 10
73.68717121718062
 20
-107.48407517189312
 30
0.0
 40
1.25
  0
TEXT
  5
9B
330
17
100
AcDbEntity
  8
TEXT
100
AcDbText
 10
76.68717121718062
 20
-106.48407517189312
 30
0.0
 40
2.0
  1
A7
 11
76.68717121718062
 21
-106.48407517189312
 31
0.0
100
AcDbText
  0
CIRCLE
  5
9C
330
17
100
AcDbEntity
  8
HOLES
100
AcDbCircle
 10
8.089901172670345
 20
-103.20718344261873
 30
0.0
 40
1.25
  0
TEXT
  5
9D
330
17
100
AcDbEntity
  8
TEXT
100
AcDbText
 10
11.089901172670345
 20
-102.20718344261873
 30
0.0
 40
2.0
  1
A8
 11
11.089901172670345
 21
-102.20718344261873
 31
0.0
100
AcDbText
  0
TEXT
  5
9E
330
17
100
AcDbEntity
  8
TEXT
100
AcDbText
 10
3.3875047241752885
 20
-147.14115874104365
 30
0.0
 40
2.5
  1
case-left-frame-tapped: aluminium (CNC 6061, or printed AlSi10Mg)
 11
3.3875047241752885
 21
-147.14115874104365
 31
0.0
100
AcDbText
  0
TEXT
  5
9F
330
17
100
AcDbEntity
  8
TEXT
100
AcDbText
 10
3.3875047241752885
 20
-151.64115874104365
 30
0.0
 40
2.5
  1
Units mm. Plan view from above; holes marked * are drilled from below.
 11
3.3875047241752885
 21
-151.64115874104365
 31
0.0
100
AcDbText
  0
TEXT
  5
A0
330
17
100
AcDbEntity
  8
TEXT
100
AcDbText
 10
3.3875047241752885
 20
-156.14115874104365
 30
0.0
 40
2.5
  1
Material: aluminium 6061-T6 (CNC) or AlSi10Mg (SLM). General tolerance +/-0.1.
 11
3.3875047241752885
 21
-156.14115874104365
 31
0.0
100
AcDbText
  0
TEXT
  5
A1
330
17
100
AcDbEntity
  8
TEXT
100
AcDbText
 10
3.3875047241752885
 20
-160.64115874104365
 30
0.0
 40
2.5
  1
Threads as tabulated, cutting taps. Mask all tapped holes when anodising.
 11
3.3875047241752885
 21
-160.64115874104365
 31
0.0
100
AcDbText
  0
TEXT
  5
A2
330
17
100
AcDbEntity
  8
TEXT
100
AcDbText
 10
3.3875047241752885
 20
-165.14115874104365
 30
0.0
 40
2.5
  1
Break all sharp edges 0.2-0.5. Bead blast, then anodise.
 11
3.3875047241752885
 21
-165.14115874104365
 31
0.0
100
AcDbText
  0
TEXT
  5
A3
330
17
100
AcDbEntity
  8
TEXT
100
AcDbText
 10
3.3875047241752885
 20
-169.64115874104365
 30
0.0
 40
2.5
  1

 11
3.3875047241752885
 21
-169.64115874104365
 31
0.0
100
AcDbText
  0
TEXT
  5
A4
330
17
100
AcDbEntity
  8
TEXT
100
AcDbText
 10
3.3875047241752885
 20
-174.14115874104365
 30
0.0
 40
2.5
  1
A1-A8 (8x): M3 x 0.5: M3 x 0.5 tapped, ~3.5 mm full thread (2.5 mm drill, 5 mm deep)
 11
3.3875047241752885
 21
-174.14115874104365
 31
0.0
100
AcDbText
  0
ENDSEC
  0
SECTION
  2
OBJECTS
  0
DICTIONARY
  5
A
330
0
100
AcDbDictionary
281
1
  3
ACAD_COLOR
350
B
  3
ACAD_GROUP
350
C
  3
ACAD_LAYOUT
350
D
  3
ACAD_MATERIAL
350
E
  3
ACAD_MLEADERSTYLE
350
F
  3
ACAD_MLINESTYLE
350
10
  3
ACAD_PLOTSETTINGS
350
11
  3
ACAD_PLOTSTYLENAME
350
12
  3
ACAD_SCALELIST
350
14
  3
ACAD_TABLESTYLE
350
15
  3
ACAD_VISUALSTYLE
350
16
  3
EZDXF_META
350
2D
  0
DICTIONARY
  5
B
330
A
100
AcDbDictionary
281
1
  0
DICTIONARY
  5
C
330
A
100
AcDbDictionary
281
1
  0
DICTIONARY
  5
D
330
A
100
AcDbDictionary
281
1
  3
Model
350
1A
  3
Layout1
350
1E
  0
DICTIONARY
  5
E
330
A
100
AcDbDictionary
281
1
  3
ByBlock
350
1F
  3
ByLayer
350
20
  3
Global
350
21
  0
DICTIONARY
  5
F
330
A
100
AcDbDictionary
281
1
  3
Standard
350
2C
  0
DICTIONARY
  5
10
330
A
100
AcDbDictionary
281
1
  3
Standard
350
22
  0
DICTIONARY
  5
11
330
A
100
AcDbDictionary
281
1
  0
ACDBDICTIONARYWDFLT
  5
12
330
A
100
AcDbDictionary
281
1
  3
Normal
350
13
100
AcDbDictionaryWithDefault
340
13
  0
ACDBPLACEHOLDER
  5
13
330
12
  0
DICTIONARY
  5
14
330
A
100
AcDbDictionary
281
1
  0
DICTIONARY
  5
15
330
A
100
AcDbDictionary
281
1
  0
DICTIONARY
  5
16
330
A
100
AcDbDictionary
281
1
  3
2dWireframe
350
5A
  3
Basic
350
5B
  3
Brighten
350
5C
  3
ColorChange
350
5D
  3
Conceptual
350
5E
  3
Dim
350
5F
  3
EdgeColorOff
350
60
  3
Facepattern
350
61
  3
Flat
350
62
  3
FlatWithEdges
350
63
  3
Gouraud
350
64
  3
GouraudWithEdges
350
65
  3
Hidden
350
66
  3
JitterOff
350
67
  3
Linepattern
350
68
  3
Modeling
350
69
  3
OverhangOff
350
6A
  3
Realistic
350
6B
  3
Shaded
350
6C
  3
Shaded with edges
350
6D
  3
Shades of Gray
350
6E
  3
Sketchy
350
6F
  3
Thicken
350
70
  3
Wireframe
350
71
  3
X-Ray
350
72
  0
LAYOUT
  5
1A
330
D
100
AcDbPlotSettings
  1

  4
A3
  6

 40
7.5
 41
20.0
 42
7.5
 43
20.0
 44
420.0
 45
297.0
 46
0.0
 47
0.0
 48
0.0
 49
0.0
140
0.0
141
0.0
142
1.0
143
1.0
 70
1024
 72
1
 73
0
 74
5
  7

 75
16
 76
0
 77
2
 78
300
147
1.0
148
0.0
149
0.0
100
AcDbLayout
  1
Model
 70
1
 71
0
 10
0.0
 20
0.0
 11
420.0
 21
297.0
 12
0.0
 22
0.0
 32
0.0
 14
1e+20
 24
1e+20
 34
1e+20
 15
-1e+20
 25
-1e+20
 35
-1e+20
146
0.0
 13
0.0
 23
0.0
 33
0.0
 16
1.0
 26
0.0
 36
0.0
 17
0.0
 27
1.0
 37
0.0
 76
1
330
17
  0
LAYOUT
  5
1E
330
D
100
AcDbPlotSettings
  1

  4
A3
  6

 40
7.5
 41
20.0
 42
7.5
 43
20.0
 44
420.0
 45
297.0
 46
0.0
 47
0.0
 48
0.0
 49
0.0
140
0.0
141
0.0
142
1.0
143
1.0
 70
0
 72
1
 73
0
 74
5
  7

 75
16
 76
0
 77
2
 78
300
147
1.0
148
0.0
149
0.0
100
AcDbLayout
  1
Layout1
 70
1
 71
1
 10
0.0
 20
0.0
 11
420.0
 21
297.0
 12
0.0
 22
0.0
 32
0.0
 14
1e+20
 24
1e+20
 34
1e+20
 15
-1e+20
 25
-1e+20
 35
-1e+20
146
0.0
 13
0.0
 23
0.0
 33
0.0
 16
1.0
 26
0.0
 36
0.0
 17
0.0
 27
1.0
 37
0.0
 76
1
330
1B
  0
MATERIAL
  5
1F
102
{ACAD_REACTORS
330
E
102
}
330
E
100
AcDbMaterial
  1
ByBlock
  2

 70
0
 40
1.0
 71
1
 41
1.0
 91
-1023410177
 42
1.0
 72
1
  3

 73
1
 74
1
 75
1
 44
0.5
 73
0
 45
1.0
 46
1.0
 77
1
  4

 78
1
 79
1
170
1
 48
1.0
171
1
  6

172
1
173
1
174
1
140
1.0
141
1.0
175
1
  7

176
1
177
1
178
1
143
1.0
179
1
  8

270
1
271
1
272
1
145
1.0
146
1.0
273
1
  9

274
1
275
1
276
1
 42
1.0
 72
1
  3

 73
1
 74
1
 75
1
 94
63
  0
MATERIAL
  5
20
102
{ACAD_REACTORS
330
E
102
}
330
E
100
AcDbMaterial
  1
ByLayer
  2

 70
0
 40
1.0
 71
1
 41
1.0
 91
-1023410177
 42
1.0
 72
1
  3

 73
1
 74
1
 75
1
 44
0.5
 73
0
 45
1.0
 46
1.0
 77
1
  4

 78
1
 79
1
170
1
 48
1.0
171
1
  6

172
1
173
1
174
1
140
1.0
141
1.0
175
1
  7

176
1
177
1
178
1
143
1.0
179
1
  8

270
1
271
1
272
1
145
1.0
146
1.0
273
1
  9

274
1
275
1
276
1
 42
1.0
 72
1
  3

 73
1
 74
1
 75
1
 94
63
  0
MATERIAL
  5
21
102
{ACAD_REACTORS
330
E
102
}
330
E
100
AcDbMaterial
  1
Global
  2

 70
0
 40
1.0
 71
1
 41
1.0
 91
-1023410177
 42
1.0
 72
1
  3

 73
1
 74
1
 75
1
 44
0.5
 73
0
 45
1.0
 46
1.0
 77
1
  4

 78
1
 79
1
170
1
 48
1.0
171
1
  6

172
1
173
1
174
1
140
1.0
141
1.0
175
1
  7

176
1
177
1
178
1
143
1.0
179
1
  8

270
1
271
1
272
1
145
1.0
146
1.0
273
1
  9

274
1
275
1
276
1
 42
1.0
 72
1
  3

 73
1
 74
1
 75
1
 94
63
  0
MLINESTYLE
  5
22
102
{ACAD_REACTORS
330
10
102
}
330
10
100
AcDbMlineStyle
  2
Standard
 70
0
  3

 62
256
 51
90.0
 52
90.0
 71
2
 49
0.5
 62
256
  6
BYLAYER
 49
-0.5
 62
256
  6
BYLAYER
  0
MLEADERSTYLE
  5
2C
102
{ACAD_REACTORS
330
F
102
}
330
F
100
AcDbMLeaderStyle
179
2
170
2
171
1
172
0
 90
2
 40
0.0
 41
0.0
173
1
 91
-1056964608
 92
-2
290
1
 42
2.0
291
1
 43
8.0
  3
Standard
 44
4.0
300

342
29
174
1
175
1
176
0
178
1
 93
-1056964608
 45
4.0
292
0
297
0
 46
4.0
 94
-1056964608
 47
1.0
 49
1.0
140
1.0
294
1
141
0.0
177
0
142
1.0
295
0
296
0
143
3.75
271
0
272
9
273
9
  0
DICTIONARY
  5
2D
330
A
100
AcDbDictionary
280
1
281
1
  3
CREATED_BY_EZDXF
350
2E
  3
WRITTEN_BY_EZDXF
350
A7
  0
DICTIONARYVAR
  5
2E
330
2D
100
DictionaryVariables
280
0
  1
1.4.4 @ 2026-10-02T12:46:31.194217+00:00
  0
VISUALSTYLE
  5
5A
102
{ACAD_REACTORS
330
16
102
}
330
16
100
AcDbVisualStyle
  2
2dWireframe
 70
4
 90
0
 40
0.6
 62
7
290
0
291
0
  0
VISUALSTYLE
  5
5B
102
{ACAD_REACTORS
330
16
102
}
330
16
100
AcDbVisualStyle
  2
Basic
 70
7
 90
1
 40
0.6
 62
7
290
0
291
1
  0
VISUALSTYLE
  5
5C
102
{ACAD_REACTORS
330
16
102
}
330
16
100
AcDbVisualStyle
  2
Brighten
 70
12
 90
2
 40
0.6
 62
7
290
0
291
1
  0
VISUALSTYLE
  5
5D
102
{ACAD_REACTORS
330
16
102
}
330
16
100
AcDbVisualStyle
  2
ColorChange
 70
16
 90
2
 40
0.6
 62
8
290
0
291
1
  0
VISUALSTYLE
  5
5E
102
{ACAD_REACTORS
330
16
102
}
330
16
100
AcDbVisualStyle
  2
Conceptual
 70
9
 90
3
 40
0.6
 62
7
290
0
291
0
  0
VISUALSTYLE
  5
5F
102
{ACAD_REACTORS
330
16
102
}
330
16
100
AcDbVisualStyle
  2
Dim
 70
11
 90
2
 40
0.6
 62
7
290
0
291
1
  0
VISUALSTYLE
  5
60
102
{ACAD_REACTORS
330
16
102
}
330
16
100
AcDbVisualStyle
  2
EdgeColorOff
 70
22
 90
2
 40
0.6
 62
7
290
0
291
1
  0
VISUALSTYLE
  5
61
102
{ACAD_REACTORS
330
16
102
}
330
16
100
AcDbVisualStyle
  2
Facepattern
 70
15
 90
2
 40
0.6
 62
7
290
0
291
1
  0
VISUALSTYLE
  5
62
102
{ACAD_REACTORS
330
16
102
}
330
16
100
AcDbVisualStyle
  2
Flat
 70
0
 90
2
 40
0.6
 62
7
290
0
291
1
  0
VISUALSTYLE
  5
63
102
{ACAD_REACTORS
330
16
102
}
330
16
100
AcDbVisualStyle
  2
FlatWithEdges
 70
1
 90
2
 40
0.6
 62
7
290
0
291
1
  0
VISUALSTYLE
  5
64
102
{ACAD_REACTORS
330
16
102
}
330
16
100
AcDbVisualStyle
  2
Gouraud
 70
2
 90
2
 40
0.6
 62
7
290
0
291
1
  0
VISUALSTYLE
  5
65
102
{ACAD_REACTORS
330
16
102
}
330
16
100
AcDbVisualStyle
  2
GouraudWithEdges
 70
3
 90
2
 40
0.6
 62
7
290
0
291
1
  0
VISUALSTYLE
  5
66
102
{ACAD_REACTORS
330
16
102
}
330
16
100
AcDbVisualStyle
  2
Hidden
 70
6
 90
1
 40
0.6
 62
7
290
0
291
0
  0
VISUALSTYLE
  5
67
102
{ACAD_REACTORS
330
16
102
}
330
16
100
AcDbVisualStyle
  2
JitterOff
 70
20
 90
2
 40
0.6
 62
7
290
0
291
1
  0
VISUALSTYLE
  5
68
102
{ACAD_REACTORS
330
16
102
}
330
16
100
AcDbVisualStyle
  2
Linepattern
 70
14
 90
2
 40
0.6
 62
7
290
0
291
1
  0
VISUALSTYLE
  5
69
102
{ACAD_REACTORS
330
16
102
}
330
16
100
AcDbVisualStyle
  2
Modeling
 70
10
 90
2
 40
0.6
 62
7
290
0
291
0
  0
VISUALSTYLE
  5
6A
102
{ACAD_REACTORS
330
16
102
}
330
16
100
AcDbVisualStyle
  2
OverhangOff
 70
21
 90
2
 40
0.6
 62
7
290
0
291
1
  0
VISUALSTYLE
  5
6B
102
{ACAD_REACTORS
330
16
102
}
330
16
100
AcDbVisualStyle
  2
Realistic
 70
8
 90
2
 40
0.6
 62
7
290
0
291
0
  0
VISUALSTYLE
  5
6C
102
{ACAD_REACTORS
330
16
102
}
330
16
100
AcDbVisualStyle
  2
Shaded
 70
27
 90
2
 40
0.6
 62
7
290
0
291
0
  0
VISUALSTYLE
  5
6D
102
{ACAD_REACTORS
330
16
102
}
330
16
100
AcDbVisualStyle
  2
Shaded with edges
 70
26
 90
2
 40
0.6
 62
7
290
0
291
0
  0
VISUALSTYLE
  5
6E
102
{ACAD_REACTORS
330
16
102
}
330
16
100
AcDbVisualStyle
  2
Shades of Gray
 70
23
 90
2
 40
0.6
 62
7
290
0
291
0
  0
VISUALSTYLE
  5
6F
102
{ACAD_REACTORS
330
16
102
}
330
16
100
AcDbVisualStyle
  2
Sketchy
 70
24
 90
1
 40
0.6
 62
7
290
0
291
0
  0
VISUALSTYLE
  5
70
102
{ACAD_REACTORS
330
16
102
}
330
16
100
AcDbVisualStyle
  2
Thicken
 70
13
 90
2
 40
0.6
 62
7
290
0
291
1
  0
VISUALSTYLE
  5
71
102
{ACAD_REACTORS
330
16
102
}
330
16
100
AcDbVisualStyle
  2
Wireframe
 70
5
 90
0
 40
0.6
 62
7
290
0
291
0
  0
VISUALSTYLE
  5
72
102
{ACAD_REACTORS
330
16
102
}
330
16
100
AcDbVisualStyle
  2
X-Ray
 70
25
 90
2
 40
0.5
 62
7
290
0
291
0
  0
DICTIONARYVAR
  5
A7
330
2D
100
DictionaryVariables
280
0
  1
1.4.4 @ 2026-10-02T12:46:31.199795+00:00
  0
ENDSEC
  0
EOF
