  0
SECTION
  2
HEADER
  9
$ACADVER
  1
AC1024
  9
$ACADMAINTVER
 70
6
  9
$DWGCODEPAGE
  3
ANSI_1252
  9
$LASTSAVEDBY
  1
ezdxf
  9
$INSBASE
 10
0.0
 20
0.0
 30
0.0
  9
$EXTMIN
 10
1e+20
 20
1e+20
 30
1e+20
  9
$EXTMAX
 10
-1e+20
 20
-1e+20
 30
-1e+20
  9
$LIMMIN
 10
0.0
 20
0.0
  9
$LIMMAX
 10
420.0
 20
297.0
  9
$ORTHOMODE
 70
0
  9
$REGENMODE
 70
1
  9
$FILLMODE
 70
1
  9
$QTEXTMODE
 70
0
  9
$MIRRTEXT
 70
1
  9
$LTSCALE
 40
1.0
  9
$ATTMODE
 70
1
  9
$TEXTSIZE
 40
2.5
  9
$TRACEWID
 40
1.0
  9
$TEXTSTYLE
  7
OpenSans
  9
$CLAYER
  8
0
  9
$CELTYPE
  6
ByLayer
  9
$CECOLOR
 62
256
  9
$CELTSCALE
 40
1.0
  9
$DISPSILH
 70
0
  9
$DIMSCALE
 40
1.0
  9
$DIMASZ
 40
0.175
  9
$DIMEXO
 40
0.125
  9
$DIMDLI
 40
3.75
  9
$DIMRND
 40
0.0
  9
$DIMDLE
 40
0.0
  9
$DIMEXE
 40
0.375
  9
$DIMTP
 40
0.0
  9
$DIMTM
 40
0.0
  9
$DIMTXT
 40
0.25
  9
$DIMCEN
 40
2.5
  9
$DIMTSZ
 40
0.0
  9
$DIMTOL
 70
0
  9
$DIMLIM
 70
0
  9
$DIMTIH
 70
0
  9
$DIMTOH
 70
0
  9
$DIMSE1
 70
0
  9
$DIMSE2
 70
0
  9
$DIMTAD
 70
1
  9
$DIMZIN
 70
12
  9
$DIMBLK
  1
ARCHTICK
  9
$DIMASO
 70
1
  9
$DIMSHO
 70
1
  9
$DIMPOST
  1

  9
$DIMAPOST
  1

  9
$DIMALT
 70
0
  9
$DIMALTD
 70
3
  9
$DIMALTF
 40
0.03937007874
  9
$DIMLFAC
 40
100.0
  9
$DIMTOFL
 70
1
  9
$DIMTVP
 40
0.0
  9
$DIMTIX
 70
0
  9
$DIMSOXD
 70
0
  9
$DIMSAH
 70
0
  9
$DIMBLK1
  1

  9
$DIMBLK2
  1

  9
$DIMSTYLE
  2
EZDXF
  9
$DIMCLRD
 70
0
  9
$DIMCLRE
 70
0
  9
$DIMCLRT
 70
0
  9
$DIMTFAC
 40
0.5
  9
$DIMGAP
 40
0.1
  9
$DIMJUST
 70
0
  9
$DIMSD1
 70
0
  9
$DIMSD2
 70
0
  9
$DIMTOLJ
 70
0
  9
$DIMTZIN
 70
8
  9
$DIMALTZ
 70
0
  9
$DIMALTTZ
 70
0
  9
$DIMUPT
 70
1
  9
$DIMDEC
 70
2
  9
$DIMTDEC
 70
2
  9
$DIMALTU
 70
2
  9
$DIMALTTD
 70
3
  9
$DIMTXSTY
  7
OpenSansCondensed-Light
  9
$DIMAUNIT
 70
0
  9
$DIMADEC
 70
2
  9
$DIMALTRND
 40
0.0
  9
$DIMAZIN
 70
3
  9
$DIMDSEP
 70
46
  9
$DIMATFIT
 70
3
  9
$DIMFRAC
 70
0
  9
$DIMLDRBLK
  1

  9
$DIMLUNIT
 70
2
  9
$DIMLWD
 70
-2
  9
$DIMLWE
 70
-2
  9
$DIMTMOVE
 70
2
  9
$DIMFXL
 40
1.0
  9
$DIMFXLON
 70
0
  9
$DIMJOGANG
 40
0.785398163397
  9
$DIMTFILL
 70
0
  9
$DIMTFILLCLR
 70
0
  9
$DIMARCSYM
 70
0
  9
$DIMLTYPE
  6

  9
$DIMLTEX1
  6

  9
$DIMLTEX2
  6

  9
$DIMTXTDIRECTION
 70
0
  9
$LUNITS
 70
2
  9
$LUPREC
 70
4
  9
$SKETCHINC
 40
1.0
  9
$FILLETRAD
 40
10.0
  9
$AUNITS
 70
0
  9
$AUPREC
 70
2
  9
$MENU
  1
.
  9
$ELEVATION
 40
0.0
  9
$PELEVATION
 40
0.0
  9
$THICKNESS
 40
0.0
  9
$LIMCHECK
 70
0
  9
$CHAMFERA
 40
0.0
  9
$CHAMFERB
 40
0.0
  9
$CHAMFERC
 40
0.0
  9
$CHAMFERD
 40
0.0
  9
$SKPOLY
 70
0
  9
$TDCREATE
 40
2461312.946053241
  9
$TDUCREATE
 40
2458532.153996898
  9
$TDUPDATE
 40
2461312.946053241
  9
$TDUUPDATE
 40
2458532.1544311
  9
$TDINDWG
 40
0.0
  9
$TDUSRTIMER
 40
0.0
  9
$USRTIMER
 70
1
  9
$ANGBASE
 50
0.0
  9
$ANGDIR
 70
0
  9
$PDMODE
 70
0
  9
$PDSIZE
 40
0.0
  9
$PLINEWID
 40
0.0
  9
$SPLFRAME
 70
0
  9
$SPLINETYPE
 70
6
  9
$SPLINESEGS
 70
8
  9
$HANDSEED
  5
9A
  9
$SURFTAB1
 70
6
  9
$SURFTAB2
 70
6
  9
$SURFTYPE
 70
6
  9
$SURFU
 70
6
  9
$SURFV
 70
6
  9
$UCSBASE
  2

  9
$UCSNAME
  2

  9
$UCSORG
 10
0.0
 20
0.0
 30
0.0
  9
$UCSXDIR
 10
1.0
 20
0.0
 30
0.0
  9
$UCSYDIR
 10
0.0
 20
1.0
 30
0.0
  9
$UCSORTHOREF
  2

  9
$UCSORTHOVIEW
 70
0
  9
$UCSORGTOP
 10
0.0
 20
0.0
 30
0.0
  9
$UCSORGBOTTOM
 10
0.0
 20
0.0
 30
0.0
  9
$UCSORGLEFT
 10
0.0
 20
0.0
 30
0.0
  9
$UCSORGRIGHT
 10
0.0
 20
0.0
 30
0.0
  9
$UCSORGFRONT
 10
0.0
 20
0.0
 30
0.0
  9
$UCSORGBACK
 10
0.0
 20
0.0
 30
0.0
  9
$PUCSBASE
  2

  9
$PUCSNAME
  2

  9
$PUCSORG
 10
0.0
 20
0.0
 30
0.0
  9
$PUCSXDIR
 10
1.0
 20
0.0
 30
0.0
  9
$PUCSYDIR
 10
0.0
 20
1.0
 30
0.0
  9
$PUCSORTHOREF
  2

  9
$PUCSORTHOVIEW
 70
0
  9
$PUCSORGTOP
 10
0.0
 20
0.0
 30
0.0
  9
$PUCSORGBOTTOM
 10
0.0
 20
0.0
 30
0.0
  9
$PUCSORGLEFT
 10
0.0
 20
0.0
 30
0.0
  9
$PUCSORGRIGHT
 10
0.0
 20
0.0
 30
0.0
  9
$PUCSORGFRONT
 10
0.0
 20
0.0
 30
0.0
  9
$PUCSORGBACK
 10
0.0
 20
0.0
 30
0.0
  9
$USERI1
 70
0
  9
$USERI2
 70
0
  9
$USERI3
 70
0
  9
$USERI4
 70
0
  9
$USERI5
 70
0
  9
$USERR1
 40
0.0
  9
$USERR2
 40
0.0
  9
$USERR3
 40
0.0
  9
$USERR4
 40
0.0
  9
$USERR5
 40
0.0
  9
$WORLDVIEW
 70
1
  9
$SHADEDGE
 70
3
  9
$SHADEDIF
 70
70
  9
$TILEMODE
 70
1
  9
$MAXACTVP
 70
64
  9
$PINSBASE
 10
0.0
 20
0.0
 30
0.0
  9
$PLIMCHECK
 70
0
  9
$PEXTMIN
 10
1e+20
 20
1e+20
 30
1e+20
  9
$PEXTMAX
 10
-1e+20
 20
-1e+20
 30
-1e+20
  9
$PLIMMIN
 10
0.0
 20
0.0
  9
$PLIMMAX
 10
420.0
 20
297.0
  9
$UNITMODE
 70
0
  9
$VISRETAIN
 70
1
  9
$PLINEGEN
 70
0
  9
$PSLTSCALE
 70
1
  9
$TREEDEPTH
 70
3020
  9
$CMLSTYLE
  2
Standard
  9
$CMLJUST
 70
0
  9
$CMLSCALE
 40
20.0
  9
$PROXYGRAPHICS
 70
1
  9
$MEASUREMENT
 70
1
  9
$CELWEIGHT
370
-1
  9
$ENDCAPS
280
0
  9
$JOINSTYLE
280
0
  9
$LWDISPLAY
290
0
  9
$INSUNITS
 70
4
  9
$HYPERLINKBASE
  1

  9
$STYLESHEET
  1

  9
$XEDIT
290
1
  9
$CEPSNTYPE
380
0
  9
$PSTYLEMODE
290
1
  9
$FINGERPRINTGUID
  2
{33E88186-0D96-4F64-89D7-5ABE3BF23A44}
  9
$VERSIONGUID
  2
{20BEF626-4814-4E67-8260-50899E5110DF}
  9
$EXTNAMES
290
1
  9
$PSVPSCALE
 40
0.0
  9
$OLESTARTUP
290
0
  9
$SORTENTS
280
127
  9
$INDEXCTL
280
0
  9
$HIDETEXT
280
1
  9
$XCLIPFRAME
280
1
  9
$HALOGAP
280
0
  9
$OBSCOLOR
 70
257
  9
$OBSLTYPE
280
0
  9
$INTERSECTIONDISPLAY
280
0
  9
$INTERSECTIONCOLOR
 70
257
  9
$DIMASSOC
280
2
  9
$PROJECTNAME
  1

  9
$CAMERADISPLAY
290
0
  9
$LENSLENGTH
 40
50.0
  9
$CAMERAHEIGHT
 40
0.0
  9
$STEPSPERSEC
 40
24.0
  9
$STEPSIZE
 40
100.0
  9
$3DDWFPREC
 40
2.0
  9
$PSOLWIDTH
 40
0.005
  9
$PSOLHEIGHT
 40
0.08
  9
$LOFTANG1
 40
1.570796326795
  9
$LOFTANG2
 40
1.570796326795
  9
$LOFTMAG1
 40
0.0
  9
$LOFTMAG2
 40
0.0
  9
$LOFTPARAM
 70
7
  9
$LOFTNORMALS
280
1
  9
$LATITUDE
 40
37.795
  9
$LONGITUDE
 40
-122.394
  9
$NORTHDIRECTION
 40
0.0
  9
$TIMEZONE
 70
-8000
  9
$LIGHTGLYPHDISPLAY
280
1
  9
$TILEMODELIGHTSYNCH
280
1
  9
$CMATERIAL
347
20
  9
$SOLIDHIST
280
0
  9
$SHOWHIST
280
1
  9
$DWFFRAME
280
2
  9
$DGNFRAME
280
2
  9
$REALWORLDSCALE
290
1
  9
$INTERFERECOLOR
 62
256
  9
$CSHADOW
280
0
  9
$SHADOWPLANELOCATION
 40
0.0
  0
ENDSEC
  0
SECTION
  2
CLASSES
  0
CLASS
  1
ACDBDICTIONARYWDFLT
  2
AcDbDictionaryWithDefault
  3
ObjectDBX Classes
 90
0
 91
0
280
0
281
0
  0
CLASS
  1
SUN
  2
AcDbSun
  3
SCENEOE
 90
1153
 91
0
280
0
281
0
  0
CLASS
  1
VISUALSTYLE
  2
AcDbVisualStyle
  3
ObjectDBX Classes
 90
4095
 91
0
280
0
281
0
  0
CLASS
  1
MATERIAL
  2
AcDbMaterial
  3
ObjectDBX Classes
 90
1153
 91
0
280
0
281
0
  0
CLASS
  1
SCALE
  2
AcDbScale
  3
ObjectDBX Classes
 90
1153
 91
0
280
0
281
0
  0
CLASS
  1
TABLESTYLE
  2
AcDbTableStyle
  3
ObjectDBX Classes
 90
4095
 91
0
280
0
281
0
  0
CLASS
  1
MLEADERSTYLE
  2
AcDbMLeaderStyle
  3
ACDB_MLEADERSTYLE_CLASS
 90
4095
 91
0
280
0
281
0
  0
CLASS
  1
DICTIONARYVAR
  2
AcDbDictionaryVar
  3
ObjectDBX Classes
 90
0
 91
0
280
0
281
0
  0
CLASS
  1
CELLSTYLEMAP
  2
AcDbCellStyleMap
  3
ObjectDBX Classes
 90
1152
 91
0
280
0
281
0
  0
CLASS
  1
MENTALRAYRENDERSETTINGS
  2
AcDbMentalRayRenderSettings
  3
SCENEOE
 90
1024
 91
0
280
0
281
0
  0
CLASS
  1
ACDBDETAILVIEWSTYLE
  2
AcDbDetailViewStyle
  3
ObjectDBX Classes
 90
1025
 91
0
280
0
281
0
  0
CLASS
  1
ACDBSECTIONVIEWSTYLE
  2
AcDbSectionViewStyle
  3
ObjectDBX Classes
 90
1025
 91
0
280
0
281
0
  0
CLASS
  1
RASTERVARIABLES
  2
AcDbRasterVariables
  3
ISM
 90
0
 91
0
280
0
281
0
  0
CLASS
  1
ACDBPLACEHOLDER
  2
AcDbPlaceHolder
  3
ObjectDBX Classes
 90
0
 91
0
280
0
281
0
  0
CLASS
  1
LAYOUT
  2
AcDbLayout
  3
ObjectDBX Classes
 90
0
 91
0
280
0
281
0
  0
ENDSEC
  0
SECTION
  2
TABLES
  0
TABLE
  2
VPORT
  5
8
330
0
100
AcDbSymbolTable
 70
1
  0
VPORT
  5
23
330
8
100
AcDbSymbolTableRecord
100
AcDbViewportTableRecord
  2
*Active
 70
0
 10
0.0
 20
0.0
 11
1.0
 21
1.0
 12
0.0
 22
0.0
 13
0.0
 23
0.0
 14
0.5
 24
0.5
 15
0.5
 25
0.5
 16
0.0
 26
0.0
 36
1.0
 17
0.0
 27
0.0
 37
0.0
 40
1000.0
 41
1.34
 42
50.0
 43
0.0
 44
0.0
 50
0.0
 51
0.0
 71
0
 72
1000
 73
1
 74
3
 75
0
 76
0
 77
0
 78
0
281
0
 65
0
146
0.0
  0
ENDTAB
  0
TABLE
  2
LTYPE
  5
2
330
0
100
AcDbSymbolTable
 70
21
  0
LTYPE
  5
24
330
2
100
AcDbSymbolTableRecord
100
AcDbLinetypeTableRecord
  2
ByBlock
 70
0
  3

 72
65
 73
0
 40
0.0
  0
LTYPE
  5
25
330
2
100
AcDbSymbolTableRecord
100
AcDbLinetypeTableRecord
  2
ByLayer
 70
0
  3

 72
65
 73
0
 40
0.0
  0
LTYPE
  5
26
330
2
100
AcDbSymbolTableRecord
100
AcDbLinetypeTableRecord
  2
Continuous
 70
0
  3

 72
65
 73
0
 40
0.0
  0
LTYPE
  5
2F
330
2
100
AcDbSymbolTableRecord
100
AcDbLinetypeTableRecord
  2
CENTER
 70
0
  3
Center ____ _ ____ _ ____ _ ____ _ ____ _ ____
 72
65
 73
4
 40
5.08
 49
3.175
 74
0
 49
-0.635
 74
0
 49
0.635
 74
0
 49
-0.635
 74
0
  0
LTYPE
  5
30
330
2
100
AcDbSymbolTableRecord
100
AcDbLinetypeTableRecord
  2
CENTERX2
 70
0
  3
Center (2x) ________  __  ________  __  ________
 72
65
 73
4
 40
8.89
 49
6.35
 74
0
 49
-0.635
 74
0
 49
1.27
 74
0
 49
-0.635
 74
0
  0
LTYPE
  5
31
330
2
100
AcDbSymbolTableRecord
100
AcDbLinetypeTableRecord
  2
CENTER2
 70
0
  3
Center (.5x) ____ _ ____ _ ____ _ ____ _ ____
 72
65
 73
4
 40
2.54
 49
1.587
 74
0
 49
-0.318
 74
0
 49
0.318
 74
0
 49
-0.318
 74
0
  0
LTYPE
  5
32
330
2
100
AcDbSymbolTableRecord
100
AcDbLinetypeTableRecord
  2
DASHED
 70
0
  3
Dashed __ __ __ __ __ __ __ __ __ __ __ __ __ _
 72
65
 73
2
 40
1.524
 49
1.27
 74
0
 49
-0.254
 74
0
  0
LTYPE
  5
33
330
2
100
AcDbSymbolTableRecord
100
AcDbLinetypeTableRecord
  2
DASHEDX2
 70
0
  3
Dashed (2x) ____  ____  ____  ____  ____  ____
 72
65
 73
2
 40
3.048
 49
2.54
 74
0
 49
-0.508
 74
0
  0
LTYPE
  5
34
330
2
100
AcDbSymbolTableRecord
100
AcDbLinetypeTableRecord
  2
DASHED2
 70
0
  3
Dashed (.5x) _ _ _ _ _ _ _ _ _ _ _ _ _ _
 72
65
 73
2
 40
0.762
 49
0.635
 74
0
 49
-0.127
 74
0
  0
LTYPE
  5
35
330
2
100
AcDbSymbolTableRecord
100
AcDbLinetypeTableRecord
  2
PHANTOM
 70
0
  3
Phantom ______  __  __  ______  __  __  ______
 72
65
 73
6
 40
6.35
 49
3.175
 74
0
 49
-0.635
 74
0
 49
0.635
 74
0
 49
-0.635
 74
0
 49
0.635
 74
0
 49
-0.635
 74
0
  0
LTYPE
  5
36
330
2
100
AcDbSymbolTableRecord
100
AcDbLinetypeTableRecord
  2
PHANTOMX2
 70
0
  3
Phantom (2x)____________    ____    ____    ____________
 72
65
 73
6
 40
10.795
 49
6.35
 74
0
 49
-0.635
 74
0
 49
1.27
 74
0
 49
-0.635
 74
0
 49
1.27
 74
0
 49
-0.635
 74
0
  0
LTYPE
  5
37
330
2
100
AcDbSymbolTableRecord
100
AcDbLinetypeTableRecord
  2
PHANTOM2
 70
0
  3
Phantom (.5x) ___ _ _ ___ _ _ ___ _ _ ___ _ _ ___
 72
65
 73
6
 40
3.175
 49
1.587
 74
0
 49
-0.318
 74
0
 49
0.318
 74
0
 49
-0.318
 74
0
 49
0.318
 74
0
 49
-0.318
 74
0
  0
LTYPE
  5
38
330
2
100
AcDbSymbolTableRecord
100
AcDbLinetypeTableRecord
  2
DASHDOT
 70
0
  3
Dash dot __ . __ . __ . __ . __ . __ . __ . __
 72
65
 73
4
 40
3.556
 49
2.54
 74
0
 49
-0.508
 74
0
 49
0.0
 74
0
 49
-0.508
 74
0
  0
LTYPE
  5
39
330
2
100
AcDbSymbolTableRecord
100
AcDbLinetypeTableRecord
  2
DASHDOTX2
 70
0
  3
Dash dot (2x) ____  .  ____  .  ____  .  ____
 72
65
 73
4
 40
6.096
 49
5.08
 74
0
 49
-0.508
 74
0
 49
0.0
 74
0
 49
-0.508
 74
0
  0
LTYPE
  5
3A
330
2
100
AcDbSymbolTableRecord
100
AcDbLinetypeTableRecord
  2
DASHDOT2
 70
0
  3
Dash dot (.5x) _ . _ . _ . _ . _ . _ . _ . _
 72
65
 73
4
 40
1.778
 49
1.27
 74
0
 49
-0.254
 74
0
 49
0.0
 74
0
 49
-0.254
 74
0
  0
LTYPE
  5
3B
330
2
100
AcDbSymbolTableRecord
100
AcDbLinetypeTableRecord
  2
DOT
 70
0
  3
Dot .  .  .  .  .  .  .  .  .  .  .  .  .  .  .  .
 72
65
 73
2
 40
0.508
 49
0.0
 74
0
 49
-0.508
 74
0
  0
LTYPE
  5
3C
330
2
100
AcDbSymbolTableRecord
100
AcDbLinetypeTableRecord
  2
DOTX2
 70
0
  3
Dot (2x) .    .    .    .    .    .    .    . 
 72
65
 73
2
 40
1.016
 49
0.0
 74
0
 49
-1.016
 74
0
  0
LTYPE
  5
3D
330
2
100
AcDbSymbolTableRecord
100
AcDbLinetypeTableRecord
  2
DOT2
 70
0
  3
Dot (.5) . . . . . . . . . . . . . . . . . . . 
 72
65
 73
2
 40
0.254
 49
0.0
 74
0
 49
-0.254
 74
0
  0
LTYPE
  5
3E
330
2
100
AcDbSymbolTableRecord
100
AcDbLinetypeTableRecord
  2
DIVIDE
 70
0
  3
Divide __ . . __ . . __ . . __ . . __ . . __
 72
65
 73
6
 40
4.064
 49
2.54
 74
0
 49
-0.508
 74
0
 49
0.0
 74
0
 49
-0.508
 74
0
 49
0.0
 74
0
 49
-0.508
 74
0
  0
LTYPE
  5
3F
330
2
100
AcDbSymbolTableRecord
100
AcDbLinetypeTableRecord
  2
DIVIDEX2
 70
0
  3
Divide (2x) ____  . .  ____  . .  ____  . .  ____
 72
65
 73
6
 40
6.604
 49
5.08
 74
0
 49
-0.508
 74
0
 49
0.0
 74
0
 49
-0.508
 74
0
 49
0.0
 74
0
 49
-0.508
 74
0
  0
LTYPE
  5
40
330
2
100
AcDbSymbolTableRecord
100
AcDbLinetypeTableRecord
  2
DIVIDE2
 70
0
  3
Divide(.5x) _ . _ . _ . _ . _ . _ . _ . _
 72
65
 73
6
 40
2.032
 49
1.27
 74
0
 49
-0.254
 74
0
 49
0.0
 74
0
 49
-0.254
 74
0
 49
0.0
 74
0
 49
-0.254
 74
0
  0
ENDTAB
  0
TABLE
  2
LAYER
  5
1
330
0
100
AcDbSymbolTable
 70
4
  0
LAYER
  5
27
330
1
100
AcDbSymbolTableRecord
100
AcDbLayerTableRecord
  2
0
 70
0
 62
7
  6
Continuous
370
-3
390
13
347
21
  0
LAYER
  5
28
330
1
100
AcDbSymbolTableRecord
100
AcDbLayerTableRecord
  2
Defpoints
 70
0
 62
7
  6
Continuous
290
0
370
-3
390
13
347
21
  0
LAYER
  5
8A
330
1
100
AcDbSymbolTableRecord
100
AcDbLayerTableRecord
  2
OUTLINE
 70
0
 62
1
  6
Continuous
370
-3
390
13
347
21
  0
LAYER
  5
8C
330
1
100
AcDbSymbolTableRecord
100
AcDbLayerTableRecord
  2
CUTOUTS
 70
0
 62
2
  6
Continuous
370
-3
390
13
347
21
  0
ENDTAB
  0
TABLE
  2
STYLE
  5
5
330
0
100
AcDbSymbolTable
 70
26
  0
STYLE
  5
29
330
5
100
AcDbSymbolTableRecord
100
AcDbTextStyleTableRecord
  2
Standard
 70
0
 40
0.0
 41
1.0
 50
0.0
 71
0
 42
2.5
  3
txt
  4

  0
STYLE
  5
41
330
5
100
AcDbSymbolTableRecord
100
AcDbTextStyleTableRecord
  2
OpenSans-Light
 70
0
 40
0.0
 41
1.0
 50
0.0
 71
0
 42
2.5
  3
OpenSans-Light.ttf
  4

  0
STYLE
  5
42
330
5
100
AcDbSymbolTableRecord
100
AcDbTextStyleTableRecord
  2
OpenSans-Light-Italic
 70
0
 40
0.0
 41
1.0
 50
0.0
 71
0
 42
2.5
  3
OpenSans-LightItalic.ttf
  4

  0
STYLE
  5
43
330
5
100
AcDbSymbolTableRecord
100
AcDbTextStyleTableRecord
  2
OpenSans
 70
0
 40
0.0
 41
1.0
 50
0.0
 71
0
 42
2.5
  3
OpenSans-Regular.ttf
  4

  0
STYLE
  5
44
330
5
100
AcDbSymbolTableRecord
100
AcDbTextStyleTableRecord
  2
OpenSans-Italic
 70
0
 40
0.0
 41
1.0
 50
0.0
 71
0
 42
2.5
  3
OpenSans-Italic.ttf
  4

  0
STYLE
  5
45
330
5
100
AcDbSymbolTableRecord
100
AcDbTextStyleTableRecord
  2
OpenSans-SemiBold
 70
0
 40
0.0
 41
1.0
 50
0.0
 71
0
 42
2.5
  3
OpenSans-SemiBold.ttf
  4

  0
STYLE
  5
46
330
5
100
AcDbSymbolTableRecord
100
AcDbTextStyleTableRecord
  2
OpenSans-SemiBoldItalic
 70
0
 40
0.0
 41
1.0
 50
0.0
 71
0
 42
2.5
  3
OpenSans-SemiBoldItalic.ttf
  4

  0
STYLE
  5
47
330
5
100
AcDbSymbolTableRecord
100
AcDbTextStyleTableRecord
  2
OpenSans-Bold
 70
0
 40
0.0
 41
1.0
 50
0.0
 71
0
 42
2.5
  3
OpenSans-Bold.ttf
  4

  0
STYLE
  5
48
330
5
100
AcDbSymbolTableRecord
100
AcDbTextStyleTableRecord
  2
OpenSans-BoldItalic
 70
0
 40
0.0
 41
1.0
 50
0.0
 71
0
 42
2.5
  3
OpenSans-BoldItalic.ttf
  4

  0
STYLE
  5
49
330
5
100
AcDbSymbolTableRecord
100
AcDbTextStyleTableRecord
  2
OpenSans-ExtraBold
 70
0
 40
0.0
 41
1.0
 50
0.0
 71
0
 42
2.5
  3
OpenSans-ExtraBold.ttf
  4

  0
STYLE
  5
4A
330
5
100
AcDbSymbolTableRecord
100
AcDbTextStyleTableRecord
  2
OpenSans-ExtraBoldItalic
 70
0
 40
0.0
 41
1.0
 50
0.0
 71
0
 42
2.5
  3
OpenSans-ExtraBoldItalic.ttf
  4

  0
STYLE
  5
4B
330
5
100
AcDbSymbolTableRecord
100
AcDbTextStyleTableRecord
  2
OpenSansCondensed-Bold
 70
0
 40
0.0
 41
1.0
 50
0.0
 71
0
 42
2.5
  3
OpenSansCondensed-Bold.ttf
  4

  0
STYLE
  5
4C
330
5
100
AcDbSymbolTableRecord
100
AcDbTextStyleTableRecord
  2
OpenSansCondensed-Light
 70
0
 40
0.0
 41
1.0
 50
0.0
 71
0
 42
2.5
  3
OpenSansCondensed-Light.ttf
  4

  0
STYLE
  5
4D
330
5
100
AcDbSymbolTableRecord
100
AcDbTextStyleTableRecord
  2
OpenSansCondensed-Italic
 70
0
 40
0.0
 41
1.0
 50
0.0
 71
0
 42
2.5
  3
OpenSansCondensed-LightItalic.ttf
  4

  0
STYLE
  5
4E
330
5
100
AcDbSymbolTableRecord
100
AcDbTextStyleTableRecord
  2
LiberationSans
 70
0
 40
0.0
 41
1.0
 50
0.0
 71
0
 42
2.5
  3
LiberationSans-Regular.ttf
  4

  0
STYLE
  5
4F
330
5
100
AcDbSymbolTableRecord
100
AcDbTextStyleTableRecord
  2
LiberationSans-Bold
 70
0
 40
0.0
 41
1.0
 50
0.0
 71
0
 42
2.5
  3
LiberationSans-Bold.ttf
  4

  0
STYLE
  5
50
330
5
100
AcDbSymbolTableRecord
100
AcDbTextStyleTableRecord
  2
LiberationSans-BoldItalic
 70
0
 40
0.0
 41
1.0
 50
0.0
 71
0
 42
2.5
  3
LiberationSans-BoldItalic.ttf
  4

  0
STYLE
  5
51
330
5
100
AcDbSymbolTableRecord
100
AcDbTextStyleTableRecord
  2
LiberationSans-Italic
 70
0
 40
0.0
 41
1.0
 50
0.0
 71
0
 42
2.5
  3
LiberationSans-Italic.ttf
  4

  0
STYLE
  5
52
330
5
100
AcDbSymbolTableRecord
100
AcDbTextStyleTableRecord
  2
LiberationSerif
 70
0
 40
0.0
 41
1.0
 50
0.0
 71
0
 42
2.5
  3
LiberationSerif-Regular.ttf
  4

  0
STYLE
  5
53
330
5
100
AcDbSymbolTableRecord
100
AcDbTextStyleTableRecord
  2
LiberationSerif-Bold
 70
0
 40
0.0
 41
1.0
 50
0.0
 71
0
 42
2.5
  3
LiberationSerif-Bold.ttf
  4

  0
STYLE
  5
54
330
5
100
AcDbSymbolTableRecord
100
AcDbTextStyleTableRecord
  2
LiberationSerif-BoldItalic
 70
0
 40
0.0
 41
1.0
 50
0.0
 71
0
 42
2.5
  3
LiberationSerif-BoldItalic.ttf
  4

  0
STYLE
  5
55
330
5
100
AcDbSymbolTableRecord
100
AcDbTextStyleTableRecord
  2
LiberationSerif-Italic
 70
0
 40
0.0
 41
1.0
 50
0.0
 71
0
 42
2.5
  3
LiberationSerif-Italic.ttf
  4

  0
STYLE
  5
56
330
5
100
AcDbSymbolTableRecord
100
AcDbTextStyleTableRecord
  2
LiberationMono
 70
0
 40
0.0
 41
1.0
 50
0.0
 71
0
 42
2.5
  3
LiberationMono-Regular.ttf
  4

  0
STYLE
  5
57
330
5
100
AcDbSymbolTableRecord
100
AcDbTextStyleTableRecord
  2
LiberationMono-Bold
 70
0
 40
0.0
 41
1.0
 50
0.0
 71
0
 42
2.5
  3
LiberationMono-Bold.ttf
  4

  0
STYLE
  5
58
330
5
100
AcDbSymbolTableRecord
100
AcDbTextStyleTableRecord
  2
LiberationMono-BoldItalic
 70
0
 40
0.0
 41
1.0
 50
0.0
 71
0
 42
2.5
  3
LiberationMono-BoldItalic.ttf
  4

  0
STYLE
  5
59
330
5
100
AcDbSymbolTableRecord
100
AcDbTextStyleTableRecord
  2
LiberationMono-Italic
 70
0
 40
0.0
 41
1.0
 50
0.0
 71
0
 42
2.5
  3
LiberationMono-Italic.ttf
  4

  0
ENDTAB
  0
TABLE
  2
VIEW
  5
7
330
0
100
AcDbSymbolTable
 70
0
  0
ENDTAB
  0
TABLE
  2
UCS
  5
6
330
0
100
AcDbSymbolTable
 70
0
  0
ENDTAB
  0
TABLE
  2
APPID
  5
3
330
0
100
AcDbSymbolTable
 70
3
  0
APPID
  5
2A
330
3
100
AcDbSymbolTableRecord
100
AcDbRegAppTableRecord
  2
ACAD
 70
0
  0
APPID
  5
97
330
3
100
AcDbSymbolTableRecord
100
AcDbRegAppTableRecord
  2
HATCHBACKGROUNDCOLOR
 70
0
  0
APPID
  5
98
330
3
100
AcDbSymbolTableRecord
100
AcDbRegAppTableRecord
  2
EZDXF
 70
0
  0
ENDTAB
  0
TABLE
  2
DIMSTYLE
  5
4
330
0
100
AcDbSymbolTable
 70
12
100
AcDbDimStyleTable
  0
DIMSTYLE
105
2B
330
4
100
AcDbSymbolTableRecord
100
AcDbDimStyleTableRecord
  2
Standard
 70
0
 40
1.0
 41
2.5
 42
0.625
 43
3.75
 44
1.25
 45
0.0
 46
0.0
 47
0.0
 48
0.0
 49
2.5
140
2.5
141
2.5
142
0.0
143
0.03937007874
144
1.0
145
0.0
146
1.0
147
0.625
148
0.0
 69
0
 70
0
 71
0
 72
0
 73
0
 74
0
 75
0
 76
0
 77
1
 78
8
 79
3
170
0
171
3
172
1
173
0
174
0
175
0
176
0
177
0
178
0
179
2
271
2
272
2
273
2
274
3
275
0
276
0
277
2
278
44
279
0
280
0
281
0
282
0
283
0
284
8
285
0
286
0
288
0
289
3
290
0
371
-2
372
-2
  0
DIMSTYLE
105
73
330
4
100
AcDbSymbolTableRecord
100
AcDbDimStyleTableRecord
  2
EZDXF
 70
0
 40
1.0
 41
0.175
 42
0.125
 43
3.75
 44
0.375
 45
0.0
 46
0.0
 47
0.0
 48
0.0
 49
2.5
140
0.25
141
2.5
142
0.0
143
0.03937007874
144
100.0
145
0.0
146
0.5
147
0.1
148
0.0
 69
0
 70
0
 71
0
 72
0
 73
0
 74
0
 75
0
 76
0
 77
1
 78
12
 79
3
170
0
171
3
172
1
173
0
174
0
175
0
176
0
177
0
178
0
179
2
271
2
272
2
273
2
274
3
275
0
276
0
277
2
278
46
279
2
280
0
281
0
282
0
283
0
284
8
285
0
286
0
288
1
289
3
290
0
340
4C
342
74
371
-2
372
-2
  0
DIMSTYLE
105
7C
330
4
100
AcDbSymbolTableRecord
100
AcDbDimStyleTableRecord
  2
EZ_M_100_H25_CM
 70
0
 40
1.0
 41
0.25
 42
0.125
 43
3.75
 44
0.375
 45
0.0
 46
0.0
 47
0.0
 48
0.0
 49
2.5
140
0.25
141
2.5
142
0.125
143
0.03937007874
144
100.0
145
0.0
146
0.5
147
0.1
148
0.0
 69
0
 70
0
 71
0
 72
0
 73
0
 74
0
 75
0
 76
0
 77
1
 78
12
 79
3
170
0
171
3
172
1
173
0
174
0
175
0
176
0
177
0
178
0
179
2
271
2
272
2
273
2
274
3
275
0
276
0
277
2
278
46
279
2
280
0
281
0
282
0
283
0
284
8
285
0
286
0
288
1
289
3
290
0
340
4C
371
-2
372
-2
  0
DIMSTYLE
105
7D
330
4
100
AcDbSymbolTableRecord
100
AcDbDimStyleTableRecord
  2
EZ_M_50_H25_CM
 70
0
 40
1.0
 41
0.125
 42
0.0625
 43
3.75
 44
0.1875
 45
0.0
 46
0.0
 47
0.0
 48
0.0
 49
2.5
140
0.125
141
2.5
142
0.0625
143
0.03937007874
144
100.0
145
0.0
146
0.5
147
0.05
148
0.0
 69
0
 70
0
 71
0
 72
0
 73
0
 74
0
 75
0
 76
0
 77
1
 78
12
 79
3
170
0
171
3
172
1
173
0
174
0
175
0
176
0
177
0
178
0
179
2
271
2
272
2
273
2
274
3
275
0
276
0
277
2
278
46
279
2
280
0
281
0
282
0
283
0
284
8
285
0
286
0
288
1
289
3
290
0
340
4C
371
-2
372
-2
  0
DIMSTYLE
105
7E
330
4
100
AcDbSymbolTableRecord
100
AcDbDimStyleTableRecord
  2
EZ_M_25_H25_CM
 70
0
 40
1.0
 41
0.0625
 42
0.03125
 43
3.75
 44
0.09375
 45
0.0
 46
0.0
 47
0.0
 48
0.0
 49
2.5
140
0.0625
141
2.5
142
0.03125
143
0.03937007874
144
100.0
145
0.0
146
0.5
147
0.025
148
0.0
 69
0
 70
0
 71
0
 72
0
 73
0
 74
0
 75
0
 76
0
 77
1
 78
12
 79
3
170
0
171
3
172
1
173
0
174
0
175
0
176
0
177
0
178
0
179
2
271
2
272
2
273
2
274
3
275
0
276
0
277
2
278
46
279
2
280
0
281
0
282
0
283
0
284
8
285
0
286
0
288
1
289
3
290
0
340
4C
371
-2
372
-2
  0
DIMSTYLE
105
7F
330
4
100
AcDbSymbolTableRecord
100
AcDbDimStyleTableRecord
  2
EZ_M_20_H25_CM
 70
0
 40
1.0
 41
0.05
 42
0.025
 43
3.75
 44
0.07500000000000001
 45
0.0
 46
0.0
 47
0.0
 48
0.0
 49
2.5
140
0.05
141
2.5
142
0.025
143
0.03937007874
144
100.0
145
0.0
146
0.5
147
0.020000000000000004
148
0.0
 69
0
 70
0
 71
0
 72
0
 73
0
 74
0
 75
0
 76
0
 77
1
 78
12
 79
3
170
0
171
3
172
1
173
0
174
0
175
0
176
0
177
0
178
0
179
2
271
2
272
2
273
2
274
3
275
0
276
0
277
2
278
46
279
2
280
0
281
0
282
0
283
0
284
8
285
0
286
0
288
1
289
3
290
0
340
4C
371
-2
372
-2
  0
DIMSTYLE
105
80
330
4
100
AcDbSymbolTableRecord
100
AcDbDimStyleTableRecord
  2
EZ_M_10_H25_CM
 70
0
 40
1.0
 41
0.025
 42
0.0125
 43
3.75
 44
0.037500000000000006
 45
0.0
 46
0.0
 47
0.0
 48
0.0
 49
2.5
140
0.025
141
2.5
142
0.0125
143
0.03937007874
144
100.0
145
0.0
146
0.5
147
0.010000000000000002
148
0.0
 69
0
 70
0
 71
0
 72
0
 73
0
 74
0
 75
0
 76
0
 77
1
 78
12
 79
3
170
0
171
3
172
1
173
0
174
0
175
0
176
0
177
0
178
0
179
2
271
2
272
2
273
2
274
3
275
0
276
0
277
2
278
46
279
2
280
0
281
0
282
0
283
0
284
8
285
0
286
0
288
1
289
3
290
0
340
4C
371
-2
372
-2
  0
DIMSTYLE
105
81
330
4
100
AcDbSymbolTableRecord
100
AcDbDimStyleTableRecord
  2
EZ_M_5_H25_CM
 70
0
 40
1.0
 41
0.0125
 42
0.00625
 43
3.75
 44
0.018750000000000003
 45
0.0
 46
0.0
 47
0.0
 48
0.0
 49
2.5
140
0.0125
141
2.5
142
0.00625
143
0.03937007874
144
100.0
145
0.0
146
0.5
147
0.005000000000000001
148
0.0
 69
0
 70
0
 71
0
 72
0
 73
0
 74
0
 75
0
 76
0
 77
1
 78
12
 79
3
170
0
171
3
172
1
173
0
174
0
175
0
176
0
177
0
178
0
179
2
271
2
272
2
273
2
274
3
275
0
276
0
277
2
278
46
279
2
280
0
281
0
282
0
283
0
284
8
285
0
286
0
288
1
289
3
290
0
340
4C
371
-2
372
-2
  0
DIMSTYLE
105
82
330
4
100
AcDbSymbolTableRecord
100
AcDbDimStyleTableRecord
  2
EZ_M_1_H25_CM
 70
0
 40
1.0
 41
0.0025
 42
0.00125
 43
3.75
 44
0.00375
 45
0.0
 46
0.0
 47
0.0
 48
0.0
 49
2.5
140
0.0025
141
2.5
142
0.00125
143
0.03937007874
144
100.0
145
0.0
146
0.5
147
0.001
148
0.0
 69
0
 70
0
 71
0
 72
0
 73
0
 74
0
 75
0
 76
0
 77
1
 78
12
 79
3
170
0
171
3
172
1
173
0
174
0
175
0
176
0
177
0
178
0
179
2
271
2
272
2
273
2
274
3
275
0
276
0
277
2
278
46
279
2
280
0
281
0
282
0
283
0
284
8
285
0
286
0
288
1
289
3
290
0
340
4C
371
-2
372
-2
  0
DIMSTYLE
105
83
330
4
100
AcDbSymbolTableRecord
100
AcDbDimStyleTableRecord
  2
EZ_RADIUS
 70
0
 40
1.0
 41
0.25
 42
0.125
 43
3.75
 44
0.375
 45
0.0
 46
0.0
 47
0.0
 48
0.0
 49
2.5
140
0.25
141
0.0
142
0.0
143
0.03937007874
144
100.0
145
0.0
146
0.5
147
0.1
148
0.0
 69
0
 70
0
 71
0
 72
0
 73
0
 74
0
 75
0
 76
0
 77
1
 78
12
 79
3
170
0
171
3
172
0
173
0
174
0
175
0
176
0
177
0
178
0
179
2
271
2
272
2
273
2
274
3
275
0
276
0
277
2
278
46
279
1
280
0
281
0
282
0
283
0
284
8
285
0
286
0
288
1
289
3
290
0
340
4C
342
84
371
-2
372
-2
  0
DIMSTYLE
105
88
330
4
100
AcDbSymbolTableRecord
100
AcDbDimStyleTableRecord
  2
EZ_RADIUS_INSIDE
 70
0
 40
1.0
 41
0.25
 42
0.125
 43
3.75
 44
0.375
 45
0.0
 46
0.0
 47
0.0
 48
0.0
 49
2.5
140
0.25
141
0.0
142
0.0
143
0.03937007874
144
100.0
145
0.0
146
0.5
147
0.1
148
0.0
 69
0
 70
0
 71
0
 72
0
 73
0
 74
0
 75
0
 76
0
 77
0
 78
12
 79
3
170
0
171
3
172
0
173
0
174
1
175
0
176
0
177
0
178
0
179
2
271
2
272
2
273
2
274
3
275
0
276
0
277
2
278
46
279
0
280
0
281
0
282
0
283
0
284
8
285
0
286
0
288
1
289
0
290
0
340
4C
342
84
371
-2
372
-2
  0
DIMSTYLE
105
89
330
4
100
AcDbSymbolTableRecord
100
AcDbDimStyleTableRecord
  2
EZ_CURVED
 70
0
 40
1.0
 41
0.25
 42
0.125
 43
3.75
 44
0.375
 45
0.0
 46
0.0
 47
0.0
 48
0.0
 49
2.5
140
0.25
141
2.5
142
0.0
143
0.03937007874
144
100.0
145
0.0
146
0.5
147
0.1
148
0.0
 69
0
 70
0
 71
0
 72
0
 73
0
 74
0
 75
0
 76
0
 77
1
 78
12
 79
2
 90
2
170
0
171
3
172
1
173
0
174
0
175
0
176
0
177
0
178
0
179
2
271
2
272
2
273
2
274
3
275
0
276
0
277
2
278
46
279
2
280
0
281
0
282
0
283
0
284
8
285
0
286
0
288
1
289
3
290
0
340
4C
371
-2
372
-2
  0
ENDTAB
  0
TABLE
  2
BLOCK_RECORD
  5
9
330
0
100
AcDbSymbolTable
 70
5
  0
BLOCK_RECORD
  5
17
330
9
100
AcDbSymbolTableRecord
100
AcDbBlockTableRecord
  2
*Model_Space
340
1A
 70
0
280
1
281
0
  0
BLOCK_RECORD
  5
1B
330
9
100
AcDbSymbolTableRecord
100
AcDbBlockTableRecord
  2
*Paper_Space
340
1E
 70
0
280
1
281
0
  0
BLOCK_RECORD
  5
74
330
9
100
AcDbSymbolTableRecord
100
AcDbBlockTableRecord
  2
_ARCHTICK
340
0
 70
0
280
1
281
0
  0
BLOCK_RECORD
  5
78
330
9
100
AcDbSymbolTableRecord
100
AcDbBlockTableRecord
  2
_CLOSEDFILLED
340
0
 70
0
280
1
281
0
  0
BLOCK_RECORD
  5
84
330
9
100
AcDbSymbolTableRecord
100
AcDbBlockTableRecord
  2
_CLOSEDBLANK
340
0
 70
0
280
1
281
0
  0
ENDTAB
  0
ENDSEC
  0
SECTION
  2
BLOCKS
  0
BLOCK
  5
18
330
17
100
AcDbEntity
  8
0
100
AcDbBlockBegin
  2
*Model_Space
 70
0
 10
0.0
 20
0.0
 30
0.0
  3
*Model_Space
  1

  0
ENDBLK
  5
19
330
17
100
AcDbEntity
  8
0
100
AcDbBlockEnd
  0
BLOCK
  5
1C
330
1B
100
AcDbEntity
  8
0
100
AcDbBlockBegin
  2
*Paper_Space
 70
0
 10
0.0
 20
0.0
 30
0.0
  3
*Paper_Space
  1

  0
ENDBLK
  5
1D
330
1B
100
AcDbEntity
  8
0
100
AcDbBlockEnd
  0
BLOCK
  5
75
330
74
100
AcDbEntity
  8
0
100
AcDbBlockBegin
  2
_ARCHTICK
 70
0
 10
0.0
 20
0.0
 30
0.0
  3
_ARCHTICK
  1

  0
LWPOLYLINE
  5
77
330
74
100
AcDbEntity
  8
0
  6
BYBLOCK
 62
0
100
AcDbPolyline
 90
2
 70
0
 43
0.15
 10
-0.5
 20
-0.5
 10
0.5
 20
0.5
  0
ENDBLK
  5
76
330
74
100
AcDbEntity
  8
0
100
AcDbBlockEnd
  0
BLOCK
  5
79
330
78
100
AcDbEntity
  8
0
100
AcDbBlockBegin
  2
_CLOSEDFILLED
 70
0
 10
0.0
 20
0.0
 30
0.0
  3
_CLOSEDFILLED
  1

  0
SOLID
  5
7B
330
78
100
AcDbEntity
  8
0
  6
BYBLOCK
 62
0
100
AcDbTrace
 10
-1.0
 20
0.16439898372402537
 30
0.0
 11
0.0
 21
0.0
 31
0.0
 12
-1.0
 22
-0.16439898372402537
 32
0.0
 13
-1.0
 23
-0.16439898372402537
 33
0.0
  0
ENDBLK
  5
7A
330
78
100
AcDbEntity
  8
0
100
AcDbBlockEnd
  0
BLOCK
  5
85
330
84
100
AcDbEntity
  8
0
100
AcDbBlockBegin
  2
_CLOSEDBLANK
 70
0
 10
0.0
 20
0.0
 30
0.0
  3
_CLOSEDBLANK
  1

  0
LWPOLYLINE
  5
87
330
84
100
AcDbEntity
  8
0
  6
BYBLOCK
 62
0
100
AcDbPolyline
 90
3
 70
1
 10
-1.0
 20
0.16439898372402537
 10
0.0
 20
0.0
 10
-1.0
 20
-0.16439898372402537
  0
ENDBLK
  5
86
330
84
100
AcDbEntity
  8
0
100
AcDbBlockEnd
  0
ENDSEC
  0
SECTION
  2
ENTITIES
  0
LWPOLYLINE
  5
8B
330
17
100
AcDbEntity
  8
OUTLINE
100
AcDbPolyline
 90
1232
 70
1
 10
12.345891464718107
 20
-43.33389709449712
 10
12.331280300453361
 20
-43.33533616857024
 10
12.29734271165644
 20
-43.3403703343191
 10
12.2829429580664
 20
-43.343234623395375
 10
12.249662222566226
 20
-43.35157101366375
 10
12.235612557150032
 20
-43.35583293307354
 10
12.203309186622564
 20
-43.36739126386601
 10
12.189744915338538
 20
-43.373009768995566
 10
12.15873000890076
 20
-43.387678727268195
 10
12.145781763095993
 20
-43.394599708841874
 10
12.11635401125158
 20
-43.41223802450752
 10
12.104146489611617
 20
-43.420394829689286
 10
12.076589297697515
 20
-43.44083263612611
 10
12.065240065329128
 20
-43.45014671042303
 10
12.03981882416774
 20
-43.47318718038261
 10
12.029437180382622
 20
-43.483568824167726
 10
12.006396710423072
 20
-43.50899006532909
 10
11.99708263612603
 20
-43.52033929769762
 10
11.976644829689269
 20
-43.547896489611645
 10
11.968488024507554
 20
-43.56010401125154
 10
11.950849708841828
 20
-43.58953176309607
 10
11.94392872726819
 20
-43.60248000890076
 10
11.929259768995621
 20
-43.6334949153384
 10
11.923641263865967
 20
-43.64705918662268
 10
11.912082933073533
 20
-43.679362557150036
 10
11.907821013663725
 20
-43.69341222256627
 10
11.899484623395361
 20
-43.72669295806642
 10
11.89662033431911
 20
-43.741092711656336
 10
11.891586168570234
 20
-43.77503030045335
 10
11.890147094497111
 20
-43.789641464718166
 10
11.887680563645983
 20
-43.83984885360429
 10
11.887499999999994
 20
-43.84720420109338
 10
11.887499999999994
 20
-99.96529579890662
 10
11.887680563645985
 20
-99.97265114639573
 10
11.890147094497111
 20
-100.02285853528187
 10
11.89158616857023
 20
-100.03746969954663
 10
11.896620334319104
 20
-100.07140728834364
 10
11.899484623395368
 20
-100.0858070419336
 10
11.907821013663717
 20
-100.1190877774337
 10
11.91208293307353
 20
-100.13313744284996
 10
11.923641263865964
 20
-100.16544081337732
 10
11.929259768995669
 20
-100.17900508466171
 10
11.94392872726815
 20
-100.21001999109916
 10
11.950849708841895
 20
-100.22296823690407
 10
11.968488024507497
 20
-100.25239598874839
 10
11.976644829689242
 20
-100.26460351038833
 10
11.997082636126123
 20
-100.29216070230252
 10
12.0063967104231
 20
-100.30350993467097
 10
12.02943718038266
 20
-100.32893117583234
 10
12.0398188241677
 20
-100.33931281961738
 10
12.065240065328945
 20
-100.36235328957682
 10
12.07658929769755
 20
-100.37166736387393
 10
12.1041464896118
 20
-100.39210517031084
 10
12.116354011251447
 20
-100.4002619754924
 10
12.145781763095803
 20
-100.41790029115802
 10
12.15873000890091
 20
-100.42482127273188
 10
12.189744915338514
 20
-100.43949023100444
 10
12.203309186622565
 20
-100.445108736134
 10
12.235612557150095
 20
-100.45666706692649
 10
12.24966222256614
 20
-100.46092898633624
 10
12.282942958066451
 20
-100.46926537660464
 10
12.297342711656375
 20
-100.4721296656809
 10
12.331280300453262
 20
-100.47716383142975
 10
12.345891464718095
 20
-100.47860290550288
 10
12.39609885360436
 20
-100.481069436354
 10
12.403454201093664
 20
-100.48125
 10
49.59380487105932
 20
-100.48125
 10
49.60118479361371
 20
-100.48106822623943
 10
49.65155956674177
 20
-100.47858517292885
 10
49.666218879846234
 20
-100.4771364910422
 10
49.70026725661226
 20
-100.47206873272523
 10
49.71471303846529
 20
-100.4691854140572
 10
49.748097979194426
 20
-100.46079375943548
 10
49.76219017660303
 20
-100.45650375802762
 10
49.794588011201725
 20
-100.44486956497019
 10
49.80818999900679
 20
-100.4392144727835
 10
49.83928662746688
 20
-100.42445053587
 10
49.852266533136074
 20
-100.41748517954733
 10
49.881760470764036
 20
-100.39973463651376
 10
49.89399245290979
 20
-100.3915265458297
 10
49.921597753247205
 20
-100.37096148983568
 10
49.93296322166915
 20
-100.36159024299
 10
49.95841224877214
 20
-100.33841005415842
 10
49.96880101420113
 20
-100.3279665062573
 10
49.991847037394194
 20
-100.3023959186664
 10
50.001158379786304
 20
-100.29098132087496
 10
50.02157796573961
 20
-100.26326824374026
 10
50.02972161076828
 20
-100.25099326164091
 10
50.04731678970397
 20
-100.22140637581303
 10
50.05421378397591
 20
-100.20839001649486
 10
50.068813969004204
 20
-100.17721616957279
 10
50.074397445521015
 20
-100.16358462784524
 10
50.08586108649531
 20
-100.13112605316323
 10
50.09007691293498
 20
-100.11701148808599
 10
50.10211461858652
 20
-100.06803315650805
 10
50.10369948785356
 20
-100.06082312960085
 10
50.11931880726069
 20
-99.9803662020638
 10
50.12172294949655
 20
-99.96872376529431
 10
50.129857985665225
 20
-99.93156468435465
 10
50.13253824103479
 20
-99.91998269553685
 10
50.134780177789956
 20
-99.91079352523522
 10
50.13773503113156
 20
-99.8992785317248
 10
50.147627245951
 20
-99.86254816015501
 10
50.15085502687155
 20
-99.85110667143432
 10
50.26112745578747
 20
-99.47728951024133
 10
50.264626339606515
 20
-99.46592799424027
 10
50.27625336776688
 20
-99.42970937574245
 10
50.28002137654805
 20
-99.41843425518236
 10
50.283125817173875
 20
-99.40949951513872
 10
50.28716082084321
 20
-99.39831716390091
 10
50.30049637479422
 20
-99.3626921851568
 10
50.30479609234427
 20
-99.35160892467954
 10
50.45006915743261
 20
-98.98995298992736
 10
50.45463115821182
 20
-98.97897508563243
 10
50.4696450875975
 20
-98.94402429116191
 10
50.47446679268434
 20
-98.93315794891276
 10
50.478405677728325
 20
-98.92455839567685
 10
50.48348436138908
 20
-98.91380975827049
 10
50.50014272121384
 20
-98.87961216833101
 10
50.50547551244356
 20
-98.86898731202521
 10
50.68443616470107
 20
-98.52276142690813
 10
50.6900200488465
 20
-98.51226635798668
 10
50.70828517622157
 20
-98.47889928991549
 10
50.71411699668556
 20
-98.46853994129245
 10
50.71885472457839
 20
-98.46035330183193
 10
50.72493118460413
 20
-98.45013552969809
 10
50.74476178390036
 20
-98.41767442310436
 10
50.751079448434766
 20
-98.40760400361711
 10
50.962110153971715
 20
-98.07993752699473
 10
50.96866545160787
 20
-98.07002015301187
 10
50.99001668781923
 20
-98.0385383992181
 10
50.99680591281517
 20
-98.02877967707985
 10
51.002299661655535
 20
-98.02107994624521
 10
51.00931897602895
 20
-98.01148539260528
 10
51.03214257614272
 20
-97.98105416871276
 10
51.03938801184041
 20
-97.97162920741987
 10
51.280581371942624
 20
-97.66548374914225
 10
51.288048833083906
 20
-97.65623370817369
 10
51.31229319521781
 20
-97.6269218161429
 10
51.31997846041022
 20
-97.61785192459222
 10
51.32617857500955
 20
-97.61070869631611
 10
51.334077299734744
 20
-97.60182408143783
 10
51.359687609806855
 20
-97.57369779252977
 10
51.36779532887673
 20
-97.56500347684053
 10
51.63697132000835
 20
-97.28314612926941
 10
51.645283450089316
 20
-97.27464702770878
 10
51.672201805744926
 20
-97.2477699326552
 10
51.68071364794872
 20
-97.23947084980733
 10
51.6875640886391
 20
-97.23294868808031
 10
51.696270831179405
 20
-97.22485431545762
 10
51.72443637270357
 20
-97.19928718068732
 10
51.73333309361587
 20
-97.19140209407858
 10
52.028058771537324
 20
-96.93638042175441
 10
52.03714044146125
 20
-96.9287090786381
 10
52.06648948937623
 20
-96.9045097088905
 10
52.07575097439917
 20
-96.89705644591457
 10
52.08318982354828
 20
-96.89121430122323
 10
52.09262588810713
 20
-96.88398333175397
 10
52.123092087146084
 20
-96.86120643938784
 10
52.132697396986586
 20
-96.85420185112827
 10
52.450308886895286
 20
-96.62832086463511
 10
52.46007801208855
 20
-96.62154661731341
 10
52.49159248121598
 20
-96.60024369860923
 10
52.501519899227354
 20
-96.59370362174083
 10
52.509479920877915
 20
-96.58859429824655
 10
52.51956001968909
 20
-96.58229208896911
 10
52.55205150783708
 20
-96.56251130769893
 10
52.5622785891184
 20
-96.5564505286825
 10
52.89990516305191
 20
-96.36175185083538
 10
52.910273445383645
 20
-96.35593592826837
 10
52.94366849254054
 20
-96.33772200680427
 10
52.95417211468187
 20
-96.33215422845622
 10
52.96258136226643
 20
-96.32782390672274
 10
52.973214386467724
 20
-96.32250742008634
 10
53.00743748976602
 20
-96.30590153828632
 10
53.01819390512616
 20
-96.30083934879771
 10
53.37278392900358
 20
-96.13908276145828
 10
53.38365765486815
 20
-96.13427773079806
 10
53.418631439288035
 20
-96.11931743290302
 10
53.42961632868589
 20
-96.11477227737883
 10
53.43839879531225
 20
-96.11126009697178
 10
53.449488638430914
 20
-96.1069773859826
 10
53.48513403173579
 20
-96.09369649573316
 10
53.49632255943267
 20
-96.08967865031643
 10
53.86467107521854
 20
-95.96232618862236
 10
53.875951962563846
 20
-95.95857548008593
 10
53.912188374079484
 20
-95.94700402424851
 10
53.92355524393145
 20
-95.94352257288656
 10
53.93263154937143
 20
-95.94086027860997
 10
53.944077975982616
 20
-95.93765005250407
 10
53.98082347879916
 20
-95.92781419298545
 10
53.99234299144831
 20
-95.92487700689222
 10
54.37112068512862
 20
-95.83307974466975
 10
54.38270677177795
 20
-95.83041725899508
 10
54.41987828798115
 20
-95.82233923369185
 10
54.43152439895883
 20
-95.81995295355199
 10
54.440812507125116
 20
-95.81816460852349
 10
54.452512058827885
 20
-95.81605588289425
 10
54.49002554733305
 20
-95.80975395541466
 10
54.501771925946
 20
-95.80792397636917
 10
54.887555219496804
 20
-95.75251162216459
 10
54.89934178473401
 20
-95.75096142419905
 10
54.93711243128671
 20
-95.74644984257247
 10
54.948932520144936
 20
-95.74518030202141
 10
54.958348480574045
 20
-95.74428207017786
 10
54.97019541109806
 20
-95.74329390471888
 10
55.008137820035394
 20
-95.74058286918108
 10
55.02000489509721
 20
-95.73987663742894
 10
55.43068878260099
 20
-95.72033248631368
 10
55.436627778263315
 20
-95.72008522657153
 10
55.45563659599708
 20
-95.71940698847708
 10
55.461578111418355
 20
-95.7192303494102
 10
55.46632561277037
 20
-95.71911744820795
 10
55.47226880822902
 20
-95.71901145478098
 10
55.491288377820815
 20
-95.71878533280686
 10
55.49723241335704
 20
-95.71875
 10
69.13618614620027
 20
-95.71875
 10
69.1435524160042
 20
-95.718568899023
 10
69.1938341987775
 20
-95.71609503163843
 10
69.20846676347817
 20
-95.71465169131693
 10
69.24245359487159
 20
-95.7096026091134
 10
69.25687380814809
 20
-95.70672986999375
 10
69.29020086593904
 20
-95.69836893952629
 10
69.30426943996396
 20
-95.6940945499908
 10
69.33661481119506
 20
-95.68250253121937
 10
69.35019585469654
 20
-95.67686777848228
 10
69.38124710872462
 20
-95.66215664111829
 10
69.39420943958935
 20
-95.65521595242386
 10
69.42366664591756
 20
-95.63752779439145
 10
69.43588505830623
 20
-95.62934821128964
 10
69.4762921203164
 20
-95.59932077319952
 10
69.48209657427299
 20
-95.5947817157345
 10
69.72478650559172
 20
-95.3951955416593
 10
69.73415815553543
 20
-95.38767531040499
 10
69.76443224393351
 20
-95.36397436688247
 10
69.77398189923862
 20
-95.35668150843522
 10
69.78164831983851
 20
-95.35097136144375
 10
69.79137046532341
 20
-95.34391008762455
 10
69.82274833148321
 20
-95.32169107172798
 10
69.83263735234819
 20
-95.31486546061183
 10
70.15950444168126
 20
-95.09500633442845
 10
70.16955462675173
 20
-95.08842032798867
 10
70.20196379490433
 20
-95.06773456061578
 10
70.21216933992925
 20
-95.06139196244749
 10
70.22034843393261
 20
-95.05644401289668
 10
70.23070344493611
 20
-95.05034848602038
 10
70.26406905723866
 20
-95.03124374661178
 10
70.27456755392424
 20
-95.0253988113577
 10
70.62102794101081
 20
-94.8379279345939
 10
70.63166386021501
 20
-94.83233696656892
 10
70.66590884965329
 20
-94.81485738274945
 10
70.67667604884801
 20
-94.80952361088727
 10
70.68529229246735
 20
-94.80538354695364
 10
70.69618455330672
 20
-94.80031005165037
 10
70.73122982170733
 20
-94.78449599730176
 10
70.74224085361834
 20
-94.77968570863715
 10
71.10509540651752
 20
-94.62633414230935
 10
71.11621885033446
 20
-94.62178983835385
 10
71.15198345105854
 20
-94.60767784036285
 10
71.16321288269415
 20
-94.60340214557398
 10
71.17218671560602
 20
-94.60010819561323
 10
71.18351564976204
 20
-94.59610357931945
 10
71.21991697467391
 20
-94.58372623320837
 10
71.2313388685878
 20
-94.57999500818272
 10
71.60723707557152
 20
-94.46217876379583
 10
71.61874533279368
 20
-94.45872308492069
 10
71.65569930307431
 20
-94.44810897955665
 10
71.66728727727754
 20
-94.44493084257927
 10
71.67653583726617
 20
-94.44251342213339
 10
71.68819683608454
 20
-94.43961466251312
 10
71.72561809642487
 20
-94.43078831407773
 10
71.7373453853192
 20
-94.42817060592589
 10
72.12281629269245
 20
-94.34697757036311
 10
72.13460309883924
 20
-94.3446424254763
 10
72.172405214598
 20
-94.33762422083666
 10
72.18424473080044
 20
-94.3355729878237
 10
72.19368261888562
 20
-94.33405441877211
 10
72.20556800750575
 20
-94.33228828227504
 10
72.24366366434982
 20
-94.3270944318957
 10
72.25558806125724
 20
-94.32561441190568
 10
72.64707232331102
 20
-94.28179430214237
 10
72.65902884184672
 20
-94.28060125341061
 10
72.69733004743081
 20
-94.27724375391033
 10
72.70931178238517
 20
-94.27633836545442
 10
72.71885185137627
 20
-94.27573266989874
 10
72.73085188297678
 20
-94.27511546460475
 10
72.76927017018738
 20
-94.27360207104735
 10
72.7812815680935
 20
-94.27327340536796
 10
73.17516431324594
 20
-94.26723084576547
 10
73.1871801405528
 20
-94.2671909095139
 10
73.2256267718375
 20
-94.26752511749615
 10
73.23764008908358
 20
-94.26777393373663
 10
73.24719424827748
 20
-94.26808670452398
 10
73.25919811745031
 20
-94.26862412955849
 10
73.29758428979547
 20
-94.2708051671356
 10
73.30957177833835
 20
-94.27163089058679
 10
73.70221598799164
 20
-94.30342167668807
 10
73.71418017280851
 20
-94.30453522167846
 10
73.75241722284119
 20
-94.30855805114713
 10
73.76435119429475
 20
-94.30995877457465
 10
73.77383122288175
 20
-94.3111871236548
 10
73.78572808878397
 20
-94.31287421656418
 10
73.82372769757465
 20
-94.31872954609898
 10
73.83558058716662
 20
-94.32070203414885
 10
74.22336067906237
 20
-94.39003261747607
 10
74.23516274698243
 20
-94.3922893615017
 10
74.27283714403426
 20
-94.39996366661659
 10
74.28458157427158
 20
-94.40250336328775
 10
74.29389993594616
 20
-94.40463594838057
 10
74.30557994577742
 20
-94.40745713095434
 10
74.34284211175863
 20
-94.41693268574103
 10
74.35445095566561
 20
-94.42003372490896
 10
74.733786261639
 20
-94.52626392351935
 10
74.74531723520329
 20
-94.52964302834825
 10
74.78208110294618
 20
-94.54089794642037
 10
74.79352754672121
 20
-94.54455316538655
 10
74.80259819797135
 20
-94.54757029471389
 10
74.81395350132868
 20
-94.55149951683033
 10
74.85013415461675
 20
-94.56450780187362
 10
74.86139175956446
 20
-94.56870875790922
 10
75.22877958857546
 20
-94.71085766768184
 10
75.23993299354551
 20
-94.71532793147213
 10
75.27544686326067
 20
-94.73005953729304
 10
75.2864896268626
 20
-94.73479652714083
 10
75.29522881147435
 20
-94.73867034125549
 10
75.30615455621566
 20
-94.74367132142193
 10
75.34091961335456
 20
-94.76009222134438
 10
75.35172202932505
 20
-94.76535430362946
 10
75.70377001046319
 20
-94.94210935569733
 10
75.71444285897849
 20
-94.9476295011077
 10
75.74837880412912
 20
-94.96570176657015
 10
75.75891592133297
 20
-94.97147678707381
 10
75.76724294377676
 20
-94.97617151610763
 10
75.77763824420114
 20
-94.98219807647521
 10
75.81066669300894
 20
-95.0018799646337
 10
75.82091417308942
 20
-95.00815458436516
 10
76.15437157991279
 20
-95.21788366506115
 10
76.1644653214553
 20
-95.22440272039562
 10
76.19650998568008
 20
-95.24564877054378
 10
76.20644415927808
 20
-95.25240849655194
 10
76.21428212982958
 20
-95.25788079050513
 10
76.22405099823149
 20
-95.26487728326394
 10
76.25503786195078
 20
-95.28763842183407
 10
76.26463578337344
 20
-95.29486764068159
 10
76.57642355033498
 20
-95.53563416208362
 10
76.58584498172144
 20
-95.54309193195216
 10
76.6157024722933
 20
-95.5673155858657
 10
76.62494197251425
 20
-95.57499759969312
 10
76.63221851723719
 20
-95.58119692871848
 10
76.64127075023379
 20
-95.58909874993604
 10
76.66992990361243
 20
-95.6147289680348
 10
76.67878964147748
 20
-95.62284603312897
 10
76.96602879527663
 20
-95.89242681504771
 10
76.97469092127409
 20
-95.90075443619584
 10
77.00208554130184
 20
-95.92773201847713
 10
77.01054505282171
 20
-95.9362653862548
 10
77.01719298185147
 20
-95.94313450723848
 10
77.02544499329885
 20
-95.95186869339676
 10
77.05151180460253
 20
-95.98013132775019
 10
77.05955155021995
 20
-95.9890612880628
 10
77.3195897935492
 20
-96.28496708635255
 10
77.32741263016821
 20
-96.29408766352826
 10
77.3520914243144
 20
-96.32357006966622
 10
77.35969283403675
 20
-96.33287599632673
 10
77.36565076199429
 20
-96.34035148145635
 10
77.37302635480226
 20
-96.34983738317973
 10
77.39626012936108
 20
-96.38047146341563
 10
77.40340564565237
 20
-96.39013186183969
 10
77.63384184787395
 20
-96.7096303534811
 10
77.64075316092129
 20
-96.71945966946674
 10
77.66248825113276
 20
-96.75117466600972
 10
77.66916136946757
 20
-96.76116722286343
 10
77.67437428227791
 20
-96.76918004530566
 10
77.6808053519952
 20
-96.77933007205756
 10
77.70099155471888
 20
-96.81205273044162
 10
77.70717686170389
 20
-96.82235436517976
 10
77.90588323031245
 20
-97.16249537789338
 10
77.91181920238472
 20
-97.17294267114782
 10
77.93040989206227
 20
-97.2065974094402
 10
77.93609310103848
 20
-97.2171843276185
 10
77.9405128639183
 20
-97.22566049889777
 10
77.945940027593
 20
-97.23638092777092
 10
77.96289226393768
 20
-97.270890011141
 10
77.96806024797841
 20
-97.28173775937415
 10
78.13320197612593
 20
-97.63938051280255
 10
78.13810779588354
 20
-97.65034931553055
 10
78.15338242306703
 20
-97.68563303580785
 10
78.15802324529909
 20
-97.69671655825316
 10
78.16160904721984
 20
-97.70557781144038
 10
78.16598219172693
 20
-97.7167696525712
 10
78.17954392881674
 20
-97.75274651234591
 10
78.1836468699908
 20
-97.76404020857429
 10
78.31369907865208
 20
-98.13588231549333
 10
78.31752944693466
 20
-98.14727134440714
 10
78.3293469693879
 20
-98.18385824527661
 10
78.33290255263859
 20
-98.1953360294062
 10
78.33562128316727
 20
-98.20450054181931
 10
78.33890002794148
 20
-98.21606045243682
 10
78.34894603995582
 20
-98.25317288694048
 10
78.35194605269058
 20
-98.26480824788776
 10
78.44570787102911
 20
-98.6474162076551
 10
78.44842741913658
 20
-98.65912029919909
 10
78.45667871669785
 20
-98.69667254601248
 10
78.45911622956618
 20
-98.70843860872687
 10
78.46094278459871
 20
-98.71782175746156
 10
78.46309685449883
 20
-98.72964299612951
 10
78.46953437897712
 20
-98.76754831806136
 10
78.47140376187593
 20
-98.77941790560081
 10
78.52800941579729
 20
-99.16925880827758
 10
78.5295930320761
 20
-99.1811698896836
 10
78.53420191424684
 20
-99.21934073401907
 10
78.53549884932475
 20
-99.23128643032271
 10
78.53641636289088
 20
-99.2408015736383
 10
78.53742586775317
 20
-99.2527749858802
 10
78.54019546214175
 20
-99.29112318660877
 10
78.54091695377231
 20
-99.30311739982223
 10
78.56088330851904
 20
-99.71820297857249
 10
78.56113591265496
 20
-99.72420572122236
 10
78.56182881140383
 20
-99.74341866075102
 10
78.56200926898595
 20
-99.74942400530657
 10
78.56212460757799
 20
-99.75422238379157
 10
78.5622328925506
 20
-99.76022946315956
 10
78.56246390327183
 20
-99.77945350508708
 10
78.5625
 20
-99.78546145192378
 10
78.5625
 20
-116.63404579890687
 10
78.56268056364598
 20
-116.6414011463958
 10
78.56514709449712
 20
-116.69160853528193
 10
78.5665861685702
 20
-116.70621969954634
 10
78.57162033431914
 20
-116.74015728834374
 10
78.57448462339538
 20
-116.75455704193361
 10
78.58282101366378
 20
-116.7878377774339
 10
78.5870829330735
 20
-116.8018874428499
 10
78.59864126386594
 20
-116.83419081337725
 10
78.60425976899569
 20
-116.84775508466176
 10
78.61892872726813
 20
-116.87876999109912
 10
78.62584970884191
 20
-116.89171823690407
 10
78.6434880245075
 20
-116.9211459887484
 10
78.65164482968923
 20
-116.9333535103883
 10
78.67208263612608
 20
-116.96091070230244
 10
78.68139671042306
 20
-116.9722599346709
 10
78.70443718038273
 20
-116.9976811758324
 10
78.71481882416761
 20
-117.00806281961728
 10
78.7402400653291
 20
-117.03110328957695
 10
78.75158929769756
 20
-117.04041736387393
 10
78.7791464896117
 20
-117.06085517031077
 10
78.7913540112516
 20
-117.0690119754925
 10
78.82078176309594
 20
-117.0866502911581
 10
78.83373000890089
 20
-117.09357127273188
 10
78.86474491533825
 20
-117.10824023100432
 10
78.87830918662276
 20
-117.11385873613406
 10
78.9106125571501
 20
-117.1254170669265
 10
78.92466222256611
 20
-117.12967898633623
 10
78.9579429580664
 20
-117.13801537660463
 10
78.97234271165627
 20
-117.14087966568087
 10
79.00628030045367
 20
-117.14591383142981
 10
79.02089146471808
 20
-117.14735290550288
 10
79.07109885360421
 20
-117.14981943635402
 10
79.07845420109314
 20
-117.15
 10
97.01389084753181
 20
-117.15
 10
97.02040292318317
 20
-117.15004240892782
 10
97.04123979777926
 20
-117.15031381455528
 10
97.04775076875045
 20
-117.15044103414463
 10
97.05295026879719
 20
-117.15057650676772
 10
97.05945903059518
 20
-117.15078851543767
 10
97.08028176708036
 20
-117.15160254816763
 10
97.08678721558562
 20
-117.1518993099539
 10
97.53657691166389
 20
-117.17535371259798
 10
97.54957345532137
 20
-117.17620127978529
 10
97.59112001905294
 20
-117.17945464941646
 10
97.60409007772769
 20
-117.18064043824863
 10
97.61438520797732
 20
-117.18171705027379
 10
97.62731998130197
 20
-117.1832402561764
 10
97.66864075709947
 20
-117.1886527287509
 10
97.68153146864827
 20
-117.19051231820734
 10
98.12644228691
 20
-117.26062111576562
 10
98.13286838489805
 20
-117.2616766689206
 10
98.1534090300888
 20
-117.26518820692493
 10
98.15982083534496
 20
-117.26632736502265
 10
98.16493587067048
 20
-117.26727053371306
 10
98.17133229552327
 20
-117.26849310351155
 10
98.19177451030814
 20
-117.27253845376164
 10
98.1981544696959
 20
-117.27384422786946
 10
115.6646937449302
 20
-120.96735870171885
 10
115.67105615658375
 20
-120.96874745863006
 10
115.69138607063292
 20
-120.97332387629889
 10
115.6977298552601
 20
-120.9747953804307
 10
115.7027888354654
 20
-120.97600363240973
 10
115.70911291693464
 20
-120.97755763414271
 10
115.72931673611873
 20
-120.98266201406732
 10
115.73562004163954
 20
-120.98429824978722
 10
116.17082602555406
 20
-121.10030097073253
 10
116.18336603539112
 20
-121.10381901997364
 10
116.22334064970934
 20
-121.11559745713329
 10
116.23578477382118
 20
-121.11944093111696
 10
116.24563442943959
 20
-121.12262418173562
 10
116.25797422431339
 20
-121.1267904726108
 10
116.29728124476918
 20
-121.14063458741853
 10
116.30950833768026
 20
-121.14512086829819
 10
116.7302887992486
 20
-121.30575922879986
 10
116.73635748674707
 20
-121.30812142266555
 10
116.75572723825668
 20
-121.3158065856725
 10
116.76176464545172
 20
-121.31824761868616
 10
116.76657388631901
 20
-121.32022861738257
 10
116.77257898905081
 20
-121.32274807545782
 10
116.79174200076343
 20
-121.33093513757304
 10
116.79771378035203
 20
-121.33353259331979
 10
133.19779389219892
 20
-128.59419993111428
 10
133.20459268373995
 20
-128.5970124341861
 10
133.2515005922034
 20
-128.615082126953
 10
133.2654435418958
 20
-128.6196811713376
 10
133.29851385748287
 20
-128.62881665080607
 10
133.31284045323892
 20
-128.63202690147796
 10
133.3466469597906
 20
-128.63787693335223
 10
133.3612192286645
 20
-128.63966747384322
 10
133.3954363510421
 20
-128.64217571911828
 10
133.41011395411502
 20
-128.64252930554423
 10
133.44441216272534
 20
-128.64167160844693
 10
133.4590537466588
 20
-128.64058483557744
 10
133.49310273100238
 20
-128.63636945619982
 10
133.5075672893394
 20
-128.63385279025152
 10
133.54103913908511
 20
-128.62632032500125
 10
133.5551873702199
 20
-128.62239800284325
 10
133.58775973315622
 20
-128.61162099347857
 10
133.60145538189062
 20
-128.6063307892169
 10
133.63281456835787
 20
-128.5924130242289
 10
133.64592573810526
 20
-128.58580588542355
 10
133.67576974199423
 20
-128.56888140049762
 10
133.68817016502592
 20
-128.56102095750543
 10
133.7162115722642
 20
-128.54125274468367
 10
133.72778182572532
 20
-128.5322146978689
 10
133.75375058223395
 20
-128.50979313584605
 10
133.76437923825807
 20
-128.49966452654095
 10
133.7880252507153
 20
-128.47480554721636
 10
133.7976099495368
 20
-128.46368391946353
 10
133.8187054939152
 20
-128.43662692839882
 10
133.8271539296437
 20
-128.4246193895544
 10
133.84549584432065
 20
-128.39562496036217
 10
133.8527266539016
 20
-128.38284714958965
 10
133.87530711520589
 20
-128.33793625513732
 10
133.8784498313835
 20
-128.33128365602366
 10
145.25954769151633
 20
-102.62415399655556
 10
145.26236525662637
 20
-102.61734206114272
 10
145.28046509672137
 20
-102.57034271000985
 10
145.2850702738278
 20
-102.55637233146493
 10
145.294213857115
 20
-102.5232362425549
 10
145.29742482136314
 20
-102.50888114445394
 10
145.3032700972379
 20
-102.47500728648714
 10
145.30505580672906
 20
-102.46040624630201
 10
145.3075462661661
 20
-102.42612209376108
 10
145.3078894576086
 20
-102.41141626659963
 10
145.30700102416765
 20
-102.37705326048012
 10
145.30589837976873
 20
-102.36238481447403
 10
145.30163964235282
 20
-102.32827515808151
 10
145.2991018218935
 20
-102.31378589998468
 10
145.29151395171596
 20
-102.2802593473767
 10
145.28756548949755
 20
-102.26608935164637
 10
145.27167781734693
 20
-102.2182968303493
 10
145.2691810882238
 20
-102.2113608746908
 10
145.2345529620223
 20
-102.1221131123014
 10
145.230382364547
 20
-102.11097297796347
 10
145.21746235726602
 20
-102.07517085076056
 10
145.21355795019068
 20
-102.06393465559671
 10
145.21055800431924
 20
-102.05495835079185
 10
145.20692199748333
 20
-102.0436324543305
 10
145.19571950867717
 20
-102.00725632005421
 10
145.19235396000923
 20
-101.99584713259287
 10
145.08647385462837
 20
-101.6205186287758
 10
145.08338066898133
 20
-101.60903260775314
 10
145.07392105686398
 20
-101.5721648082661
 10
145.07110198493766
 20
-101.56060845460937
 10
145.06896854589033
 20
-101.55138770838033
 10
145.0664251832396
 20
-101.53976756282258
 10
145.05872986080988
 20
-101.50249155293675
 10
145.05646364694203
 20
-101.49081419231585
 10
144.9867265196059
 20
-101.1071231505078
 10
144.98473873716603
 20
-101.09539518404524
 10
144.9788251237344
 20
-101.05779534260158
 10
144.97711689777947
 20
-101.04602340816184
 10
144.97586927183386
 20
-101.0366416624455
 10
144.9744415691957
 20
-101.02483242277751
 10
144.97032305095556
 20
-100.98699386165491
 10
144.96917667969365
 20
-100.97515400062129
 10
144.9362136074099
 20
-100.58657258269339
 10
144.93534921635427
 20
-100.57470880148925
 10
144.93303511607922
 20
-100.53671717293503
 10
144.93245319446297
 20
-100.52483618629277
 10
144.9321026718468
 20
-100.5153783399702
 10
144.93180354902935
 20
-100.50348687236041
 10
144.93129910497063
 20
-100.46542817510687
 10
144.93128295025136
 20
-100.45353295693319
 10
144.93539222802912
 20
-100.06357757957596
 10
144.93565905055132
 20
-100.0516853433652
 10
144.93696540458023
 20
-100.01364572797058
 10
144.9375150533261
 20
-100.00176320455972
 10
144.93806480604783
 20
-99.99231484517159
 10
144.93889696992406
 20
-99.98044875990017
 10
144.94201116494753
 20
-99.94251433371672
 10
144.94312537296096
 20
-99.93067140262347
 10
144.98426981442864
 20
-99.54287091599518
 10
144.9856654359533
 20
-99.53105784201183
 10
144.99058042260677
 20
-99.4933144742946
 10
144.99225666774052
 20
-99.4815379434547
 10
144.99370172088487
 20
-99.47218457269395
 10
144.99565764089644
 20
-99.46045125034854
 10
145.0023622935013
 20
-99.42298437786447
 10
145.00459678136778
 20
-99.41130090490732
 10
145.08240405528682
 20
-99.02916465876095
 10
145.08491584631943
 20
-99.01753764787371
 10
145.09339498806827
 20
-98.98043208150557
 10
145.09618266062867
 20
-98.96886811341271
 10
145.09850993737632
 20
-98.95969437338364
 10
145.10157191368137
 20
-98.94819999312718
 10
145.11180635099197
 20
-98.91153972589724
 10
145.11514089800605
 20
-98.900121439135
 10
145.21107310827338
 20
-98.58558063326925
 10
145.21305531188972
 20
-98.5784561301047
 10
145.22539320716538
 20
-98.52946133780657
 10
145.22828656984794
 20
-98.51499132995924
 10
145.2333720594616
 20
-98.48088463267767
 10
145.2348258127046
 20
-98.46619997142035
 10
145.23731758747178
 20
-98.41573707028925
 10
145.2375
 20
-98.40834420871947
 10
145.2375
 20
-36.465954201092906
 10
145.23731943635406
 20
-36.458598853605004
 10
145.2348529055029
 20
-36.40839146471808
 10
145.23341383142974
 20
-36.39378030045308
 10
145.22837966568096
 20
-36.35984271165663
 10
145.22551537660468
 20
-36.345442958066506
 10
145.21717898633617
 20
-36.312162222565796
 10
145.21291706692662
 20
-36.2981125571504
 10
145.2013587361341
 20
-36.265809186622874
 10
145.19574023100424
 20
-36.252244915338046
 10
145.181071272732
 20
-36.22123000890113
 10
145.17415029115796
 20
-36.2082817630957
 10
145.15651197549258
 20
-36.17885401125173
 10
145.14835517031065
 20
-36.16664648961151
 10
145.12791736387413
 20
-36.13908929769782
 10
145.11860328957675
 20
-36.12774006532888
 10
145.0955628196176
 20
-36.102318824167966
 10
145.08518117583202
 20
-36.09193718038238
 10
145.059759934671
 20
-36.068896710423125
 10
145.0484107023024
 20
-36.059582636126024
 10
145.0208535103885
 20
-36.03914482968934
 10
145.00864598874836
 20
-36.03098802450747
 10
144.97921823690425
 20
-36.013349708842
 10
144.9662699910992
 20
-36.00642872726819
 10
144.93525508466126
 20
-35.991759768995465
 10
144.92169081337775
 20
-35.98614126386612
 10
144.88938744284994
 20
-35.974582933073535
 10
144.87533777743357
 20
-35.970321013663686
 10
144.8420570419338
 20
-35.961984623395416
 10
144.82765728834354
 20
-35.959120334319095
 10
144.79371969954656
 20
-35.95408616857022
 10
144.77910853528198
 20
-35.952647094497124
 10
144.72890114639594
 20
-35.950180563646
 10
144.72154579890645
 20
-35.95
 10
126.11563401491819
 20
-35.95
 10
126.10825409236475
 20
-35.95018177376056
 10
126.05787931923591
 20
-35.95266482707119
 10
126.043220006132
 20
-35.95411350895776
 10
126.0091716293656
 20
-35.959181267274786
 10
125.99472584751292
 20
-35.962064585942755
 10
125.96134090678355
 20
-35.97045624056454
 10
125.94724870937488
 20
-35.97474624197242
 10
125.91485087477623
 20
-35.98638043502982
 10
125.90124888697126
 20
-35.99203552721647
 10
125.87015225851107
 20
-36.00679946413002
 10
125.85717235284181
 20
-36.01376482045273
 10
125.82767841521404
 20
-36.03151536348619
 10
125.81544643306813
 20
-36.03972345417034
 10
125.78784113273075
 20
-36.06028851016434
 10
125.77647566430892
 20
-36.06965975700993
 10
125.75102663720556
 20
-36.092839945841845
 10
125.74063787177707
 20
-36.10328349374247
 10
125.71759184858378
 20
-36.1288540813336
 10
125.70828050619166
 20
-36.140268679125064
 10
125.68786092023842
 20
-36.16798175625969
 10
125.67971727520965
 20
-36.18025673835919
 10
125.66212209627409
 20
-36.20984362418685
 10
125.65522510200205
 20
-36.22285998350522
 10
125.64062491697382
 20
-36.25403383042714
 10
125.63504144045696
 20
-36.26766537215481
 10
125.62357779948265
 20
-36.30012394683683
 10
125.61936197304294
 20
-36.31423851191421
 10
125.60732426739143
 20
-36.36321684349209
 10
125.60573939812446
 20
-36.370426870398944
 10
125.54401356591907
 20
-36.688383797936176
 10
125.54160942368323
 20
-36.70002623470557
 10
125.53347438751467
 20
-36.73718531564471
 10
125.53079413214518
 20
-36.748767304462284
 10
125.52855219538999
 20
-36.75795647476399
 10
125.52559734204834
 20
-36.76947146827461
 10
125.51570512722877
 20
-36.80620183984494
 10
125.51247734630819
 20
-36.81764332856577
 10
125.40220491739228
 20
-37.19146048975867
 10
125.39870603357333
 20
-37.2028220057594
 10
125.38707900541338
 20
-37.23904062425603
 10
125.38331099663236
 20
-37.250315744815694
 10
125.38020655600646
 20
-37.259250484859606
 10
125.37617155233704
 20
-37.270432836097676
 10
125.36283599838562
 20
-37.306057814842994
 10
125.3585362808354
 20
-37.31714107532074
 10
125.21326321574728
 20
-37.67879701007234
 10
125.20870121496809
 20
-37.689774914367206
 10
125.1936872855825
 20
-37.72472570883752
 10
125.1888655804957
 20
-37.7355920510866
 10
125.18492669545154
 20
-37.74419160432287
 10
125.17984801179074
 20
-37.754940241729365
 10
125.16318965196591
 20
-37.78913783166899
 10
125.1578568607362
 20
-37.799762687974756
 10
124.97889620847877
 20
-38.14598857309172
 10
124.97331232433336
 20
-38.156483642013114
 10
124.95504719695833
 20
-38.18985071008424
 10
124.94921537649434
 20
-38.20021005870729
 10
124.94447764860155
 20
-38.20839669816774
 10
124.93840118857587
 20
-38.21861447030151
 10
124.9185705892796
 20
-38.25107557689533
 10
124.9122529247451
 20
-38.26114599638271
 10
124.70122221920802
 20
-38.58881247300531
 10
124.69466692157162
 20
-38.598729846988526
 10
124.67331568535973
 20
-38.630211600783035
 10
124.6665264603637
 20
-38.639970322921386
 10
124.66103271152345
 20
-38.64767005375585
 10
124.65401339715022
 20
-38.657264607395504
 10
124.63118979703701
 20
-38.68769583128726
 10
124.62394436133947
 20
-38.69712079257995
 10
124.38275100123714
 20
-39.00326625085775
 10
124.3752835400959
 20
-39.012516291826294
 10
124.35103917796226
 20
-39.04182818385676
 10
124.34335391277
 20
-39.050898075407254
 10
124.33715379817082
 20
-39.0580413036832
 10
124.32925507344555
 20
-39.06692591856157
 10
124.30364476337314
 20
-39.095052207469976
 10
124.29553704430315
 20
-39.10374652315935
 10
124.02636105317148
 20
-39.38560387073052
 10
124.01804892309052
 20
-39.39410297229116
 10
123.99113056743481
 20
-39.420980067344836
 10
123.98261872523096
 20
-39.42927915019275
 10
123.97576828454048
 20
-39.43580131191987
 10
123.96706154200021
 20
-39.44389568454252
 10
123.93889600047613
 20
-39.46946281931273
 10
123.92999927956386
 20
-39.47734790592146
 10
123.63527360164227
 20
-39.73236957824575
 10
123.62619193171835
 20
-39.740040921362045
 10
123.59684288380352
 20
-39.764240291109516
 10
123.58758139878066
 20
-39.77169355408539
 10
123.58014254963203
 20
-39.777535698776354
 10
123.57070648507325
 20
-39.78476666824558
 10
123.54024028603416
 20
-39.80754356061182
 10
123.53063497619353
 20
-39.814548148871495
 10
123.2130234862845
 20
-40.040429135364896
 10
123.20325436109114
 20
-40.047203382686654
 10
123.17173989196338
 20
-40.06850630139105
 10
123.16181247395188
 20
-40.07504637825953
 10
123.15385245230134
 20
-40.080155701753796
 10
123.14377235349022
 20
-40.0864579110312
 10
123.11128086534252
 20
-40.10623869230119
 10
123.10105378406134
 20
-40.11229947131754
 10
122.76342721012766
 20
-40.306998149164755
 10
122.75305892779569
 20
-40.31281407173188
 10
122.71966388063835
 20
-40.331027993196194
 10
122.70916025849698
 20
-40.33659577154427
 10
122.70075101091267
 20
-40.34092609327761
 10
122.69011798671154
 20
-40.34624257991392
 10
122.6558948834137
 20
-40.36284846171371
 10
122.64513846805366
 20
-40.367910651202266
 10
122.29054844417594
 20
-40.52966723854182
 10
122.27967471831141
 20
-40.53447226920203
 10
122.24470093389164
 20
-40.54943256709703
 10
122.2337160444938
 20
-40.5539777226212
 10
122.22493357786789
 20
-40.55748990302808
 10
122.21384373474915
 20
-40.56177261401729
 10
122.17819834144417
 20
-40.575053504266776
 10
122.16700981374731
 20
-40.57907134968349
 10
121.7986612979609
 20
-40.706423811377746
 10
121.78738041061577
 20
-40.710174519914126
 10
121.75114399910026
 20
-40.72174597575151
 10
121.73977712924821
 20
-40.725227427113495
 10
121.73070082380885
 20
-40.72788972138991
 10
121.71925439719746
 20
-40.731099947495856
 10
121.6825088943808
 20
-40.740935807014495
 10
121.67098938173177
 20
-40.74387299310769
 10
121.29221168805115
 20
-40.83567025533025
 10
121.28062560140178
 20
-40.83833274100493
 10
121.24345408519804
 20
-40.84641076630828
 10
121.23180797422008
 20
-40.84879704644819
 10
121.2225198660539
 20
-40.85058539147666
 10
121.21082031435124
 20
-40.852694117105884
 10
121.17330682584657
 20
-40.85899604458537
 10
121.16156044723381
 20
-40.86082602363083
 10
120.77577715368284
 20
-40.91623837783541
 10
120.76399058844595
 20
-40.91778857580091
 10
120.72621994189446
 20
-40.922300157427365
 10
120.71439985303665
 20
-40.923569697978394
 10
120.70498389260761
 20
-40.92446792982195
 10
120.69313696208337
 20
-40.92545609528097
 10
120.65519455314488
 20
-40.92816713081889
 10
120.64332747808257
 20
-40.928873362571075
 10
120.23264359057806
 20
-40.948417513686366
 10
120.22670459491522
 20
-40.94866477342853
 10
120.2076957771807
 20
-40.94934301152299
 10
120.20175426175948
 20
-40.94951965058986
 10
120.19700676040847
 20
-40.94963255179208
 10
120.19106356495016
 20
-40.949738545219034
 10
120.1720439953591
 20
-40.94996466719314
 10
120.16609995982301
 20
-40.95
 10
111.91340470324921
 20
-40.95
 10
111.9069621622244
 20
-40.949958491942226
 10
111.88634774241591
 20
-40.94969285139914
 10
111.8799062710604
 20
-40.94956833411749
 10
111.8747620767485
 20
-40.949435734361245
 10
111.86832274455428
 20
-40.9492282285296
 10
111.8477220148095
 20
-40.94843148331256
 10
111.84128589091324
 20
-40.94814102338356
 10
111.39628118990737
 20
-40.92518436822431
 10
111.38342284071511
 20
-40.92435479274219
 10
111.3423171571321
 20
-40.9211704571206
 10
111.32948445408498
 20
-40.92000982283922
 10
111.31929665177991
 20
-40.918955892687606
 10
111.30649811709327
 20
-40.917464970385744
 10
111.26561107471191
 20
-40.912167142384654
 10
111.2528552079102
 20
-40.91034692218584
 10
110.8355009870314
 20
-40.84529413919516
 10
110.82279625930308
 20
-40.8431458299101
 10
110.78223645265308
 20
-40.83574858037213
 10
110.76959130122515
 20
-40.83327360869597
 10
110.75956603037736
 20
-40.83117693776195
 10
110.74698885291211
 20
-40.82837694732673
 10
110.70686400739615
 20
-40.81889992308339
 10
110.69436315641391
 20
-40.81577677336652
 10
110.2859184185192
 20
-40.708123132711705
 10
110.27350219585239
 20
-40.7046788978012
 10
110.23391888163142
 20
-40.69314726949144
 10
110.22159553291016
 20
-40.68938423670834
 10
110.21183922985018
 20
-40.68626708493521
 10
110.19961693902711
 20
-40.6821877533147
 10
110.1606802879743
 20
-40.66863214853269
 10
110.14856717188937
 20
-40.66423922716444
 10
109.75336829448263
 20
-40.51512766638935
 10
109.74137239747279
 20
-40.51042407261845
 10
109.70318582394795
 20
-40.49488049456818
 10
109.69131511250475
 20
-40.48986935205766
 10
109.68193135798474
 20
-40.485764813633196
 10
109.67019371546344
 20
-40.48044945028948
 10
109.63285864164534
 20
-40.462959182160475
 10
109.62126186303034
 20
-40.457343127923565
 10
109.24350459491879
 20
-40.26835673516189
 10
109.23205638164686
 20
-40.26244371966123
 10
109.19567196816362
 20
-40.243053214983526
 10
109.18437992300854
 20
-40.236847165060624
 10
109.17546834250541
 20
-40.23179881706234
 10
109.16433996452942
 20
-40.225303854163236
 10
109.12900284708687
 20
-40.20406461342637
 10
109.11804552666125
 20
-40.197285050864934
 10
108.76174044251366
 20
-39.97043025750405
 10
108.75096145640984
 20
-39.96337059759702
 10
108.71676548913487
 20
-39.94033903146886
 10
108.70617199569185
 20
-39.93300396254578
 10
108.69782720170453
 20
-39.92706540229225
 10
108.68742623607581
 20
-39.91945979558243
 10
108.65446224223943
 20
-39.89469707508221
 10
108.6442607117204
 20
-39.88682598147939
 10
108.31319063258513
 20
-39.62451126027321
 10
108.30319531202613
 20
-39.616379906981365
 10
108.27155084282306
 20
-39.589951801013626
 10
108.26176837013014
 20
-39.581565588075634
 10
108.25407895769622
 20
-39.57479986409383
 10
108.24451582942257
 20
-39.566164360804905
 10
108.2142749314359
 20
-39.53814106147782
 10
108.20493749846788
 20
-39.529262002687325
 10
107.90261733030468
 20
-39.234272297474085
 10
107.8935117936444
 20
-39.22515557977715
 10
107.86475478562289
 20
-39.195611515976296
 10
107.85588719226973
 20
-39.1862631937977
 10
107.84893479836974
 20
-39.17874213644939
 10
107.8403110373044
 20
-39.16916841802248
 10
107.81311429683791
 20
-39.138182057729914
 10
107.8047400951117
 20
-39.128389300973964
 10
107.50508099361807
 20
-38.76868738558751
 10
107.47765960099763
 20
-38.735835714791165
 10
107.4672924555986
 20
-38.72463144480357
 10
107.44128822037605
 20
-38.69925774337571
 10
107.42971812291921
 20
-38.68907750054074
 10
107.40148679929759
 20
-38.666709149391544
 10
107.38893056297647
 20
-38.65777352245289
 10
107.3585473759334
 20
-38.63842894409868
 10
107.34513830784142
 20
-38.63083280085144
 10
107.31292582970255
 20
-38.61471737287883
 10
107.29880629127958
 20
-38.60854136008254
 10
107.26510651559398
 20
-38.595826176822854
 10
107.2504264112048
 20
-38.59113586399173
 10
107.21559712186735
 20
-38.5819559200465
 10
107.20051230729452
 20
-38.57880110330987
 10
107.16492328002471
 20
-38.573253860339726
 10
107.14959390778
 20
-38.5716680337669
 10
107.0968876763185
 20
-38.56894905399506
 10
107.08916539644267
 20
-38.56875
 10
92.86340470324922
 20
-38.56875
 10
92.8569621622244
 20
-38.568708491942225
 10
92.83634774241591
 20
-38.56844285139914
 10
92.82990627106041
 20
-38.568318334117485
 10
92.8247620767485
 20
-38.56818573436124
 10
92.81832274455428
 20
-38.5679782285296
 10
92.79772201480951
 20
-38.56718148331256
 10
92.79128589091324
 20
-38.56689102338356
 10
92.34628118990737
 20
-38.543934368224306
 10
92.33342284071512
 20
-38.54310479274219
 10
92.2923171571321
 20
-38.5399204571206
 10
92.27948445408498
 20
-38.53875982283922
 10
92.26929665177991
 20
-38.537705892687605
 10
92.25649811709327
 20
-38.53621497038574
 10
92.21561107471192
 20
-38.53091714238465
 10
92.2028552079102
 20
-38.529096922185836
 10
91.7855009870314
 20
-38.46404413919516
 10
91.77279625930308
 20
-38.4618958299101
 10
91.73223645265308
 20
-38.45449858037213
 10
91.71959130122515
 20
-38.45202360869597
 10
91.70956603037736
 20
-38.44992693776195
 10
91.69698885291203
 20
-38.447126947326716
 10
91.65686400739607
 20
-38.43764992308337
 10
91.64436315641395
 20
-38.434526773366514
 10
91.23591841851923
 20
-38.32687313271171
 10
91.2235021958523
 20
-38.32342889780118
 10
91.18391888163134
 20
-38.31189726949141
 10
91.17159553291016
 20
-38.30813423670834
 10
91.16183922985019
 20
-38.30501708493521
 10
91.14961693902714
 20
-38.30093775331471
 10
91.11068028797435
 20
-38.28738214853271
 10
91.0985671718894
 20
-38.28298922716445
 10
90.70336829448277
 20
-38.13387766638941
 10
90.69137239747285
 20
-38.12917407261847
 10
90.6531858239474
 20
-38.11363049456794
 10
90.64131511250392
 20
-38.1086193520573
 10
90.63193135798365
 20
-38.10451481363272
 10
90.6201937154624
 20
-38.09919945028901
 10
90.5828586416449
 20
-38.08170918216025
 10
90.5712618630302
 20
-38.07609312792349
 10
90.19350459491879
 20
-37.887106735161886
 10
90.18205638164686
 20
-37.881193719661226
 10
90.14567196816363
 20
-37.861803214983524
 10
90.13437992300854
 20
-37.85559716506062
 10
90.12546834250541
 20
-37.85054881706234
 10
90.11433996452942
 20
-37.844053854163235
 10
90.07900284708687
 20
-37.82281461342637
 10
90.06804552666125
 20
-37.81603505086493
 10
89.71174044251366
 20
-37.58918025750405
 10
89.70096145640984
 20
-37.58212059759702
 10
89.66676548913487
 20
-37.55908903146886
 10
89.65617199569185
 20
-37.55175396254578
 10
89.64782720170453
 20
-37.54581540229225
 10
89.63742623607575
 20
-37.5382097955824
 10
89.60446224223938
 20
-37.51344707508217
 10
89.59426071172041
 20
-37.50557598147938
 10
89.26319063258514
 20
-37.2432612602732
 10
89.2531953120262
 20
-37.2351299069814
 10
89.22155084282312
 20
-37.20870180101367
 10
89.21176837013014
 20
-37.20031558807563
 10
89.20407895769623
 20
-37.19354986409383
 10
89.19451582942257
 20
-37.1849143608049
 10
89.1642749314359
 20
-37.15689106147782
 10
89.15493749846789
 20
-37.148012002687324
 10
88.85261733030468
 20
-36.853022297474084
 10
88.8435117936444
 20
-36.84390557977715
 10
88.8147547856229
 20
-36.814361515976294
 10
88.80588719226974
 20
-36.8050131937977
 10
88.79893479836974
 20
-36.797492136449385
 10
88.7903110373044
 20
-36.78791841802248
 10
88.76311429683791
 20
-36.75693205772991
 10
88.7547400951117
 20
-36.74713930097396
 10
88.45508099361807
 20
-36.38743738558751
 10
88.42765960099763
 20
-36.35458571479116
 10
88.4172924555986
 20
-36.34338144480357
 10
88.39128822037605
 20
-36.31800774337571
 10
88.37971812291921
 20
-36.30782750054074
 10
88.35148679929759
 20
-36.28545914939154
 10
88.33893056297647
 20
-36.27652352245289
 10
88.3085473759334
 20
-36.257178944098676
 10
88.29513830784143
 20
-36.249582800851435
 10
88.26292582970255
 20
-36.23346737287883
 10
88.24880629127958
 20
-36.22729136008254
 10
88.21510651559399
 20
-36.21457617682285
 10
88.2004264112048
 20
-36.20988586399173
 10
88.16559712186735
 20
-36.200705920046495
 10
88.15051230729452
 20
-36.19755110330987
 10
88.11492328002471
 20
-36.192003860339724
 10
88.09959390778
 20
-36.190418033766896
 10
88.0468876763185
 20
-36.18769905399506
 10
88.03916539644267
 20
-36.1875
 10
69.08583460355766
 20
-36.1875
 10
69.07811232368108
 20
-36.18769905399508
 10
69.02540609221994
 20
-36.1904180337669
 10
69.01007671997527
 20
-36.192003860339724
 10
68.97448769270544
 20
-36.19755110330987
 10
68.95940287813256
 20
-36.20070592004651
 10
68.92457358879535
 20
-36.20988586399168
 10
68.90989348440596
 20
-36.214576176822874
 10
68.8761937087203
 20
-36.22729136008258
 10
68.86207417029759
 20
-36.233467372878756
 10
68.82986169215867
 20
-36.24958280085139
 10
68.81645262406633
 20
-36.25717894409883
 10
68.78606943702364
 20
-36.27652352245282
 10
68.77351320070247
 20
-36.28545914939152
 10
68.74528187708067
 20
-36.30782750054084
 10
68.73371177962387
 20
-36.31800774337577
 10
68.70793204583731
 20
-36.34316238693257
 10
68.6974709246954
 20
-36.354479164026586
 10
68.67132753111505
 20
-36.38586091982401
 10
68.37013047088496
 20
-36.747294645152586
 10
68.36178039456614
 20
-36.75705688405973
 10
68.33466330984658
 20
-36.78794764307165
 10
68.32606520163021
 20
-36.79749213644945
 10
68.3191128077302
 20
-36.80501319379778
 10
68.31024521437696
 20
-36.814361515976465
 10
68.28148820635548
 20
-36.843905579777285
 10
68.27238266969529
 20
-36.85302229747411
 10
67.97006250153217
 20
-37.14801200268725
 10
67.96072506856427
 20
-37.156891061477644
 10
67.93048417057759
 20
-37.184914360804754
 10
67.9209210423038
 20
-37.193549864093804
 10
67.91323162986966
 20
-37.2003155880758
 10
67.90344915717667
 20
-37.20870180101385
 10
67.87180468797364
 20
-37.23512990698154
 10
67.86180936741474
 20
-37.2432612602733
 10
67.53073928827959
 20
-37.50557598147938
 10
67.52053775776062
 20
-37.51344707508217
 10
67.48757376392425
 20
-37.5382097955824
 10
67.47717279829547
 20
-37.54581540229225
 10
67.46882800430815
 20
-37.55175396254578
 10
67.45823451086513
 20
-37.55908903146886
 10
67.42403854359016
 20
-37.58212059759702
 10
67.41325955748634
 20
-37.58918025750405
 10
67.05695447333875
 20
-37.81603505086493
 10
67.04599715291313
 20
-37.82281461342637
 10
67.01066003547058
 20
-37.844053854163235
 10
66.99953165749459
 20
-37.85054881706234
 10
66.99062007699146
 20
-37.85559716506062
 10
66.97932803183637
 20
-37.861803214983524
 10
66.94294361835314
 20
-37.881193719661226
 10
66.93149540508121
 20
-37.887106735161886
 10
66.5537381369698
 20
-38.07609312792349
 10
66.5421413583551
 20
-38.08170918216025
 10
66.5048062845376
 20
-38.09919945028901
 10
66.49306864201635
 20
-38.10451481363272
 10
66.48368488749608
 20
-38.1086193520573
 10
66.4718141760526
 20
-38.11363049456794
 10
66.43362760252715
 20
-38.12917407261847
 10
66.42163170551723
 20
-38.13387766638941
 10
66.0264328281106
 20
-38.28298922716445
 10
66.01431971202565
 20
-38.28738214853271
 10
65.97538306097286
 20
-38.30093775331471
 10
65.96316077014981
 20
-38.30501708493521
 10
65.95340446708984
 20
-38.30813423670834
 10
65.94108111836866
 20
-38.31189726949141
 10
65.9014978041477
 20
-38.32342889780118
 10
65.88908158148077
 20
-38.32687313271171
 10
65.48063684358605
 20
-38.434526773366514
 10
65.46813599260399
 20
-38.437649923083356
 10
65.42801114708817
 20
-38.44712694732667
 10
65.41543396962287
 20
-38.4499269377619
 10
65.40540869877512
 20
-38.45202360869591
 10
65.39276354734714
 20
-38.454498580372096
 10
65.35220374069701
 20
-38.46189582991009
 10
65.33949901296864
 20
-38.46404413919515
 10
64.92214479208977
 20
-38.529096922185836
 10
64.90938892528814
 20
-38.53091714238464
 10
64.86850188290701
 20
-38.53621497038571
 10
64.85570334822043
 20
-38.53770589268757
 10
64.84551554591539
 20
-38.53875982283918
 10
64.83268284286817
 20
-38.53992045712057
 10
64.79157715928491
 20
-38.543104792742184
 10
64.7787188100926
 20
-38.543934368224306
 10
64.33371410908687
 20
-38.56689102338355
 10
64.3272779851907
 20
-38.56718148331254
 10
64.30667725544622
 20
-38.56797822852957
 10
64.30023792325208
 20
-38.56818573436122
 10
64.29509372893969
 20
-38.56831833411748
 10
64.28865225758412
 20
-38.56844285139913
 10
64.26803783777535
 20
-38.568708491942225
 10
64.26159529675044
 20
-38.56875
 10
50.3811951289402
 20
-38.56875
 10
50.37381520638677
 20
-38.56893177376056
 10
50.323440433258
 20
-38.57141482707118
 10
50.30878112015397
 20
-38.57286350895777
 10
50.27473274338773
 20
-38.57793126727477
 10
50.26028696153486
 20
-38.58081458594278
 10
50.22690202080557
 20
-38.589206240564536
 10
50.21280982339685
 20
-38.59349624197243
 10
50.18041198879823
 20
-38.605130435029835
 10
50.16681000099321
 20
-38.61078552721649
 10
50.135713372533196
 20
-38.62554946412997
 10
50.12273346686366
 20
-38.632514820452826
 10
50.093239529236214
 20
-38.65026536348609
 10
50.08100754709018
 20
-38.65847345417033
 10
50.05340224675277
 20
-38.67903851016435
 10
50.042036778330825
 20
-38.68840975701003
 10
50.01658775122767
 20
-38.71158994584176
 10
50.00619898579908
 20
-38.72203349374248
 10
49.983152962605786
 20
-38.74760408133363
 10
49.97384162021367
 20
-38.759018679125084
 10
49.95342203426035
 20
-38.78673175625981
 10
49.94527838923178
 20
-38.799006738359
 10
49.927683210296
 20
-38.82859362418702
 10
49.92078621602407
 20
-38.841609983505194
 10
49.90618603099583
 20
-38.872783830427124
 10
49.900602554479
 20
-38.886415372154744
 10
49.889138913504674
 20
-38.918873946836804
 10
49.88492308706499
 20
-38.93298851191409
 10
49.872885381413525
 20
-38.98196684349179
 10
49.87130051214638
 20
-38.98917687039947
 10
49.85568119273931
 20
-39.069633797936184
 10
49.8532770505035
 20
-39.081276234705456
 10
49.845142014334954
 20
-39.118435315644604
 10
49.84246175896543
 20
-39.13001730446229
 10
49.84021982221024
 20
-39.13920647476403
 10
49.83726496886858
 20
-39.15072146827467
 10
49.827372754049016
 20
-39.18745183984496
 10
49.82414497312844
 20
-39.19889332856575
 10
49.713872544212535
 20
-39.5727104897587
 10
49.7103736603935
 20
-39.58407200575973
 10
49.69874663223316
 20
-39.6202906242575
 10
49.69497862345199
 20
-39.63156574481758
 10
49.69187418282614
 20
-39.640500484861285
 10
49.68783917915679
 20
-39.65168283609911
 10
49.67450362520575
 20
-39.6873078148433
 10
49.670203907655704
 20
-39.69839107532059
 10
49.524930842567485
 20
-40.06004701007245
 10
49.52036884178826
 20
-40.0710249143674
 10
49.50535491240258
 20
-40.10597570883791
 10
49.500533207315755
 20
-40.116842051087026
 10
49.49659432227169
 20
-40.12544160432311
 10
49.491515638610956
 20
-40.13619024172942
 10
49.47485727878622
 20
-40.17038783166887
 10
49.469524487556484
 20
-40.18101268797471
 10
49.290563835298975
 20
-40.527238573091815
 10
49.284979951153446
 20
-40.53773364201344
 10
49.26671482377814
 20
-40.57110071008503
 10
49.2608830033141
 20
-40.58146005870814
 10
49.25614527542133
 20
-40.589646698168536
 10
49.25006881539575
 20
-40.59986447030213
 10
49.23023821609975
 20
-40.63232557689549
 10
49.223920551565335
 20
-40.642395996382746
 10
49.01288984602826
 20
-40.970062473005335
 10
49.00633454839197
 20
-40.979979846988385
 10
48.9849833121804
 20
-41.01146160078244
 10
48.978194087184455
 20
-41.02122032292067
 10
48.972700338344126
 20
-41.02892005375526
 10
48.965681023970774
 20
-41.0385146073951
 10
48.94285742385722
 20
-41.06894583128732
 10
48.9356119881596
 20
-41.078370792580124
 10
48.69441862805739
 20
-41.38451625085774
 10
48.68695116691606
 20
-41.393766291826374
 10
48.66270680478208
 20
-41.42307818385724
 10
48.655021539589676
 20
-41.4321480754079
 10
48.64882142499038
 20
-41.439291303683966
 10
48.640922700265236
 20
-41.44817591856221
 10
48.6153123901932
 20
-41.47630220747018
 10
48.60720467112333
 20
-41.48499652315942
 10
48.33802867999168
 20
-41.76685387073058
 10
48.32971654991071
 20
-41.775352972291216
 10
48.3027981942549
 20
-41.80223006734499
 10
48.29428635205099
 20
-41.81052915019296
 10
48.287435911360696
 20
-41.8170513119199
 10
48.278729168820426
 20
-41.82514568454256
 10
48.25056362729645
 20
-41.850712819312676
 10
48.24166690638424
 20
-41.858597905921336
 10
47.946941228462485
 20
-42.113619578245775
 10
47.937859558538406
 20
-42.12129092136221
 10
47.908510510623
 20
-42.14549029111013
 10
47.89924902559996
 20
-42.15294355408614
 10
47.89181017645138
 20
-42.15878569877706
 10
47.882374111892766
 20
-42.16601666824614
 10
47.851907912854244
 20
-42.188793560611934
 10
47.84230260301378
 20
-42.19579814887148
 10
47.5246911131047
 20
-42.42167913536492
 10
47.51492198791131
 20
-42.428453382686705
 10
47.48340751878359
 20
-42.44975630139107
 10
47.47348010077216
 20
-42.45629637825951
 10
47.46552007912149
 20
-42.461405701753854
 10
47.45543998031039
 20
-42.46770791103125
 10
47.42294849216266
 20
-42.48748869230126
 10
47.41272141088143
 20
-42.49354947131763
 10
47.07509483694801
 20
-42.6882481491647
 10
47.06472655461614
 20
-42.69406407173178
 10
47.03133150745909
 20
-42.71227799319595
 10
47.02082788531781
 20
-42.71784577154397
 10
47.01241863773356
 20
-42.722176093277284
 10
47.001785613532384
 20
-42.72749257991364
 10
46.967562510234224
 20
-42.74409846171359
 10
46.95680609487405
 20
-42.74916065120221
 10
46.60221607099608
 20
-42.91091723854187
 10
46.59134234513161
 20
-42.91572226920205
 10
46.55636856071216
 20
-42.930682567096916
 10
46.545383671314475
 20
-42.93522772262103
 10
46.53660120468862
 20
-42.93873990302789
 10
46.52551136156981
 20
-42.94302261401713
 10
46.4898659682645
 20
-42.95630350426675
 10
46.478677440567495
 20
-42.96032134968352
 10
46.110328924781314
 20
-43.087673811377684
 10
46.0990480374362
 20
-43.09142451991406
 10
46.06281162592074
 20
-43.102995975751426
 10
46.05144475606869
 20
-43.106477427113404
 10
46.04236845062896
 20
-43.10913972138992
 10
46.0309220240176
 20
-43.11234994749587
 10
45.99417652120095
 20
-43.12218580701451
 10
45.982657008551904
 20
-43.125122993107716
 10
45.6038793148713
 20
-43.21692025533028
 10
45.592293228221834
 20
-43.21958274100498
 10
45.555121712017836
 20
-43.227660766308375
 10
45.54347560103981
 20
-43.2300470464483
 10
45.534187492873805
 20
-43.231835391476736
 10
45.5224879411712
 20
-43.23394411710594
 10
45.48497445266674
 20
-43.24024604458538
 10
45.47322807405406
 20
-43.24207602363083
 10
45.087444780503006
 20
-43.29748837783542
 10
45.07565821526605
 20
-43.29903857580093
 10
45.03788756871446
 20
-43.30355015742739
 10
45.026067479856664
 20
-43.30481969797842
 10
45.01665151942776
 20
-43.30571792982196
 10
45.0048045889036
 20
-43.30670609528097
 10
44.96686217996523
 20
-43.309417130818886
 10
44.954995104902906
 20
-43.31012336257107
 10
44.54431121739833
 20
-43.32966751368637
 10
44.53837222173539
 20
-43.32991477342854
 10
44.519363404000785
 20
-43.330593011523
 10
44.51342188857959
 20
-43.330769650589865
 10
44.50867438722857
 20
-43.33088255179208
 10
44.50273119177032
 20
-43.330988545219036
 10
44.48371162217936
 20
-43.331214667193144
 10
44.477767586643246
 20
-43.331250000000004
 10
12.403454201093572
 20
-43.331250000000004
 10
12.39609885360405
 20
-43.331430563646
 10
12.345891464718107
 20
-43.33389709449712
  0
LWPOLYLINE
  5
8D
330
17
100
AcDbEntity
  8
CUTOUTS
100
AcDbPolyline
 90
129
 70
1
 10
33.9375
 20
-62.38125
 10
33.93388636861552
 20
-62.23404697701775
 10
33.92305418001659
 20
-62.08719857901132
 10
33.90502952989434
 20
-61.941058576633914
 10
33.87985584120969
 20
-61.79597903395162
 10
33.84759375958363
 20
-61.65230946029021
 10
33.808321007196625
 20
-61.510395968236615
 10
33.762132195549064
 20
-61.37058043982334
 10
33.70913859753386
 20
-61.233199702904734
 10
33.64946787937033
 20
-61.09858471970915
 10
33.58326379304506
 20
-60.96705978952201
 10
33.51068583000082
 20
-60.83894176742034
 10
33.43190883690764
 20
-60.7145393009412
 10
33.347122594441934
 20
-60.5941520865227
 10
33.25653136008821
 20
-60.478070147509065
 10
33.160353376064876
 20
-60.36657313545895
 10
33.058820343559645
 20
-60.259929656440356
 10
32.95217686454105
 20
-60.158396623935126
 10
32.840679852490936
 20
-60.06221863991179
 10
32.724597913477304
 20
-59.97162740555807
 10
32.604210699058804
 20
-59.88684116309236
 10
32.479808232579664
 20
-59.808064169999184
 10
32.35169021047799
 20
-59.73548620695494
 10
32.22016528029085
 20
-59.669282120629674
 10
32.08555029709527
 20
-59.60961140246614
 10
31.94816956017666
 20
-59.55661780445094
 10
31.808354031763386
 20
-59.51042899280338
 10
31.666440539709793
 20
-59.47115624041637
 10
31.522770966048384
 20
-59.43889415879031
 10
31.377691423366084
 20
-59.41372047010566
 10
31.231551420988684
 20
-59.39569581998341
 10
31.084703022982254
 20
-59.38486363138448
 10
30.9375
 20
-59.38125
 10
30.790296977017746
 20
-59.38486363138448
 10
30.643448579011316
 20
-59.39569581998341
 10
30.497308576633916
 20
-59.41372047010566
 10
30.352229033951616
 20
-59.43889415879031
 10
30.208559460290207
 20
-59.47115624041637
 10
30.066645968236614
 20
-59.51042899280338
 10
29.92683043982334
 20
-59.55661780445094
 10
29.78944970290473
 20
-59.60961140246614
 10
29.654834719709154
 20
-59.669282120629674
 10
29.523309789522006
 20
-59.73548620695494
 10
29.395191767420336
 20
-59.808064169999184
 10
29.270789300941193
 20
-59.88684116309236
 10
29.1504020865227
 20
-59.97162740555807
 10
29.034320147509064
 20
-60.06221863991179
 10
28.922823135458945
 20
-60.158396623935126
 10
28.816179656440358
 20
-60.259929656440356
 10
28.714646623935124
 20
-60.36657313545894
 10
28.61846863991179
 20
-60.478070147509065
 10
28.527877405558066
 20
-60.5941520865227
 10
28.443091163092365
 20
-60.7145393009412
 10
28.364314169999183
 20
-60.83894176742034
 10
28.291736206954937
 20
-60.96705978952201
 10
28.22553212062967
 20
-61.09858471970916
 10
28.165861402466142
 20
-61.233199702904734
 10
28.11286780445094
 20
-61.37058043982334
 10
28.066678992803375
 20
-61.510395968236615
 10
28.02740624041637
 20
-61.65230946029021
 10
27.99514415879031
 20
-61.79597903395162
 10
27.969970470105658
 20
-61.941058576633914
 10
27.951945819983408
 20
-62.08719857901132
 10
27.941113631384482
 20
-62.23404697701775
 10
27.9375
 20
-62.38125
 10
27.941113631384482
 20
-62.528453022982255
 10
27.951945819983408
 20
-62.67530142098868
 10
27.969970470105658
 20
-62.82144142336609
 10
27.99514415879031
 20
-62.966520966048385
 10
28.02740624041637
 20
-63.11019053970979
 10
28.066678992803375
 20
-63.25210403176339
 10
28.112867804450936
 20
-63.39191956017666
 10
28.16586140246614
 20
-63.52930029709527
 10
28.22553212062967
 20
-63.663915280290844
 10
28.291736206954933
 20
-63.79544021047799
 10
28.364314169999183
 20
-63.923558232579666
 10
28.44309116309236
 20
-64.0479606990588
 10
28.527877405558066
 20
-64.1683479134773
 10
28.61846863991179
 20
-64.28442985249093
 10
28.714646623935124
 20
-64.39592686454105
 10
28.816179656440358
 20
-64.50257034355964
 10
28.922823135458945
 20
-64.60410337606488
 10
29.034320147509064
 20
-64.70028136008821
 10
29.1504020865227
 20
-64.79087259444194
 10
29.270789300941193
 20
-64.87565883690763
 10
29.395191767420336
 20
-64.95443583000082
 10
29.523309789522006
 20
-65.02701379304507
 10
29.654834719709154
 20
-65.09321787937033
 10
29.78944970290473
 20
-65.15288859753386
 10
29.92683043982334
 20
-65.20588219554907
 10
30.066645968236614
 20
-65.25207100719663
 10
30.208559460290207
 20
-65.29134375958364
 10
30.352229033951613
 20
-65.3236058412097
 10
30.497308576633912
 20
-65.34877952989434
 10
30.64344857901132
 20
-65.36680418001659
 10
30.790296977017746
 20
-65.37763636861551
 10
30.9375
 20
-65.38125
 10
31.084703022982254
 20
-65.37763636861551
 10
31.23155142098868
 20
-65.36680418001659
 10
31.377691423366088
 20
-65.34877952989434
 10
31.522770966048384
 20
-65.3236058412097
 10
31.66644053970979
 20
-65.29134375958364
 10
31.808354031763386
 20
-65.25207100719663
 10
31.94816956017666
 20
-65.20588219554907
 10
32.08555029709527
 20
-65.15288859753386
 10
32.22016528029085
 20
-65.09321787937033
 10
32.35169021047799
 20
-65.02701379304507
 10
32.479808232579664
 20
-64.95443583000082
 10
32.604210699058804
 20
-64.87565883690763
 10
32.7245979134773
 20
-64.79087259444194
 10
32.840679852490936
 20
-64.70028136008821
 10
32.95217686454105
 20
-64.60410337606488
 10
33.058820343559645
 20
-64.50257034355964
 10
33.160353376064876
 20
-64.39592686454105
 10
33.25653136008821
 20
-64.28442985249094
 10
33.347122594441934
 20
-64.1683479134773
 10
33.43190883690764
 20
-64.0479606990588
 10
33.51068583000082
 20
-63.923558232579666
 10
33.58326379304506
 20
-63.79544021047799
 10
33.64946787937033
 20
-63.66391528029085
 10
33.70913859753386
 20
-63.529300297095276
 10
33.762132195549064
 20
-63.39191956017666
 10
33.808321007196625
 20
-63.25210403176339
 10
33.84759375958363
 20
-63.11019053970979
 10
33.87985584120969
 20
-62.966520966048385
 10
33.90502952989434
 20
-62.82144142336609
 10
33.92305418001659
 20
-62.67530142098868
 10
33.93388636861552
 20
-62.528453022982255
 10
33.9375
 20
-62.38125
  0
LWPOLYLINE
  5
8E
330
17
100
AcDbEntity
  8
CUTOUTS
100
AcDbPolyline
 90
129
 70
1
 10
33.9375
 20
-81.43125
 10
33.93388636861552
 20
-81.28404697701775
 10
33.92305418001659
 20
-81.13719857901133
 10
33.90502952989434
 20
-80.99105857663392
 10
33.87985584120969
 20
-80.84597903395162
 10
33.84759375958363
 20
-80.70230946029021
 10
33.808321007196625
 20
-80.56039596823662
 10
33.762132195549064
 20
-80.42058043982334
 10
33.70913859753386
 20
-80.28319970290474
 10
33.64946787937033
 20
-80.14858471970916
 10
33.58326379304506
 20
-80.01705978952201
 10
33.51068583000082
 20
-79.88894176742033
 10
33.43190883690764
 20
-79.7645393009412
 10
33.347122594441934
 20
-79.64415208652271
 10
33.25653136008821
 20
-79.52807014750907
 10
33.160353376064876
 20
-79.41657313545895
 10
33.058820343559645
 20
-79.30992965644036
 10
32.95217686454105
 20
-79.20839662393513
 10
32.840679852490936
 20
-79.11221863991179
 10
32.724597913477304
 20
-79.02162740555806
 10
32.604210699058804
 20
-78.93684116309237
 10
32.479808232579664
 20
-78.8580641699992
 10
32.35169021047799
 20
-78.78548620695494
 10
32.22016528029085
 20
-78.71928212062967
 10
32.08555029709527
 20
-78.65961140246614
 10
31.94816956017666
 20
-78.60661780445095
 10
31.808354031763386
 20
-78.56042899280338
 10
31.666440539709793
 20
-78.52115624041637
 10
31.522770966048384
 20
-78.48889415879032
 10
31.377691423366084
 20
-78.46372047010566
 10
31.231551420988684
 20
-78.44569581998341
 10
31.084703022982254
 20
-78.43486363138449
 10
30.9375
 20
-78.43125
 10
30.790296977017746
 20
-78.43486363138449
 10
30.643448579011316
 20
-78.44569581998341
 10
30.497308576633916
 20
-78.46372047010566
 10
30.352229033951616
 20
-78.48889415879032
 10
30.208559460290207
 20
-78.52115624041637
 10
30.066645968236614
 20
-78.56042899280338
 10
29.92683043982334
 20
-78.60661780445095
 10
29.78944970290473
 20
-78.65961140246614
 10
29.654834719709154
 20
-78.71928212062967
 10
29.523309789522006
 20
-78.78548620695494
 10
29.395191767420336
 20
-78.8580641699992
 10
29.270789300941193
 20
-78.93684116309237
 10
29.1504020865227
 20
-79.02162740555806
 10
29.034320147509064
 20
-79.11221863991179
 10
28.922823135458945
 20
-79.20839662393513
 10
28.816179656440358
 20
-79.30992965644036
 10
28.714646623935124
 20
-79.41657313545895
 10
28.61846863991179
 20
-79.52807014750907
 10
28.527877405558066
 20
-79.64415208652271
 10
28.443091163092365
 20
-79.7645393009412
 10
28.364314169999183
 20
-79.88894176742033
 10
28.291736206954937
 20
-80.01705978952201
 10
28.22553212062967
 20
-80.14858471970916
 10
28.165861402466142
 20
-80.28319970290474
 10
28.11286780445094
 20
-80.42058043982334
 10
28.066678992803375
 20
-80.56039596823662
 10
28.02740624041637
 20
-80.70230946029021
 10
27.99514415879031
 20
-80.84597903395162
 10
27.969970470105658
 20
-80.99105857663392
 10
27.951945819983408
 20
-81.13719857901133
 10
27.941113631384482
 20
-81.28404697701775
 10
27.9375
 20
-81.43125
 10
27.941113631384482
 20
-81.57845302298226
 10
27.951945819983408
 20
-81.72530142098869
 10
27.969970470105658
 20
-81.8714414233661
 10
27.99514415879031
 20
-82.01652096604839
 10
28.02740624041637
 20
-82.1601905397098
 10
28.066678992803375
 20
-82.30210403176339
 10
28.112867804450936
 20
-82.44191956017667
 10
28.16586140246614
 20
-82.57930029709527
 10
28.22553212062967
 20
-82.71391528029085
 10
28.291736206954933
 20
-82.845440210478
 10
28.364314169999183
 20
-82.97355823257968
 10
28.44309116309236
 20
-83.09796069905882
 10
28.527877405558066
 20
-83.2183479134773
 10
28.61846863991179
 20
-83.33442985249094
 10
28.714646623935124
 20
-83.44592686454106
 10
28.816179656440358
 20
-83.55257034355965
 10
28.922823135458945
 20
-83.65410337606488
 10
29.034320147509064
 20
-83.75028136008821
 10
29.1504020865227
 20
-83.84087259444195
 10
29.270789300941193
 20
-83.92565883690764
 10
29.395191767420336
 20
-84.00443583000082
 10
29.523309789522006
 20
-84.07701379304507
 10
29.654834719709154
 20
-84.14321787937034
 10
29.78944970290473
 20
-84.20288859753387
 10
29.92683043982334
 20
-84.25588219554906
 10
30.066645968236614
 20
-84.30207100719663
 10
30.208559460290207
 20
-84.34134375958364
 10
30.352229033951613
 20
-84.3736058412097
 10
30.497308576633912
 20
-84.39877952989434
 10
30.64344857901132
 20
-84.4168041800166
 10
30.790296977017746
 20
-84.42763636861552
 10
30.9375
 20
-84.43125
 10
31.084703022982254
 20
-84.42763636861552
 10
31.23155142098868
 20
-84.4168041800166
 10
31.377691423366088
 20
-84.39877952989434
 10
31.522770966048384
 20
-84.3736058412097
 10
31.66644053970979
 20
-84.34134375958364
 10
31.808354031763386
 20
-84.30207100719663
 10
31.94816956017666
 20
-84.25588219554906
 10
32.08555029709527
 20
-84.20288859753387
 10
32.22016528029085
 20
-84.14321787937034
 10
32.35169021047799
 20
-84.07701379304507
 10
32.479808232579664
 20
-84.00443583000082
 10
32.604210699058804
 20
-83.92565883690764
 10
32.7245979134773
 20
-83.84087259444195
 10
32.840679852490936
 20
-83.75028136008822
 10
32.95217686454105
 20
-83.65410337606488
 10
33.058820343559645
 20
-83.55257034355965
 10
33.160353376064876
 20
-83.44592686454106
 10
33.25653136008821
 20
-83.33442985249094
 10
33.347122594441934
 20
-83.2183479134773
 10
33.43190883690764
 20
-83.09796069905882
 10
33.51068583000082
 20
-82.97355823257968
 10
33.58326379304506
 20
-82.845440210478
 10
33.64946787937033
 20
-82.71391528029085
 10
33.70913859753386
 20
-82.57930029709527
 10
33.762132195549064
 20
-82.44191956017667
 10
33.808321007196625
 20
-82.30210403176339
 10
33.84759375958363
 20
-82.1601905397098
 10
33.87985584120969
 20
-82.01652096604839
 10
33.90502952989434
 20
-81.8714414233661
 10
33.92305418001659
 20
-81.72530142098869
 10
33.93388636861552
 20
-81.57845302298226
 10
33.9375
 20
-81.43125
  0
LWPOLYLINE
  5
8F
330
17
100
AcDbEntity
  8
CUTOUTS
100
AcDbPolyline
 90
129
 70
1
 10
72.0375
 20
-56.428125
 10
72.03388636861551
 20
-56.28092197701775
 10
72.02305418001659
 20
-56.13407357901132
 10
72.00502952989434
 20
-55.987933576633914
 10
71.97985584120968
 20
-55.84285403395162
 10
71.94759375958363
 20
-55.69918446029021
 10
71.90832100719662
 20
-55.557270968236615
 10
71.86213219554905
 20
-55.41745543982334
 10
71.80913859753386
 20
-55.280074702904734
 10
71.74946787937033
 20
-55.14545971970915
 10
71.68326379304506
 20
-55.01393478952201
 10
71.6106858300008
 20
-54.88581676742034
 10
71.53190883690763
 20
-54.7614143009412
 10
71.44712259444194
 20
-54.6410270865227
 10
71.35653136008821
 20
-54.524945147509065
 10
71.26035337606487
 20
-54.41344813545895
 10
71.15882034355964
 20
-54.306804656440356
 10
71.05217686454105
 20
-54.205271623935126
 10
70.94067985249093
 20
-54.10909363991179
 10
70.82459791347729
 20
-54.01850240555807
 10
70.7042106990588
 20
-53.93371616309236
 10
70.57980823257967
 20
-53.854939169999184
 10
70.45169021047799
 20
-53.78236120695494
 10
70.32016528029084
 20
-53.716157120629674
 10
70.18555029709526
 20
-53.65648640246614
 10
70.04816956017666
 20
-53.60349280445094
 10
69.90835403176338
 20
-53.55730399280338
 10
69.76644053970979
 20
-53.51803124041637
 10
69.62277096604838
 20
-53.48576915879031
 10
69.47769142336608
 20
-53.46059547010566
 10
69.33155142098867
 20
-53.44257081998341
 10
69.18470302298225
 20
-53.43173863138448
 10
69.0375
 20
-53.428125
 10
68.89029697701774
 20
-53.43173863138448
 10
68.74344857901131
 20
-53.44257081998341
 10
68.5973085766339
 20
-53.46059547010566
 10
68.45222903395161
 20
-53.48576915879031
 10
68.3085594602902
 20
-53.51803124041637
 10
68.16664596823661
 20
-53.55730399280338
 10
68.02683043982333
 20
-53.60349280445094
 10
67.88944970290473
 20
-53.65648640246614
 10
67.75483471970915
 20
-53.716157120629674
 10
67.623309789522
 20
-53.78236120695494
 10
67.49519176742032
 20
-53.854939169999184
 10
67.37078930094118
 20
-53.93371616309236
 10
67.2504020865227
 20
-54.01850240555807
 10
67.13432014750906
 20
-54.10909363991179
 10
67.02282313545894
 20
-54.205271623935126
 10
66.91617965644035
 20
-54.306804656440356
 10
66.81464662393512
 20
-54.41344813545894
 10
66.71846863991178
 20
-54.524945147509065
 10
66.62787740555805
 20
-54.6410270865227
 10
66.54309116309236
 20
-54.7614143009412
 10
66.46431416999918
 20
-54.88581676742034
 10
66.39173620695493
 20
-55.01393478952201
 10
66.32553212062966
 20
-55.14545971970916
 10
66.26586140246613
 20
-55.280074702904734
 10
66.21286780445094
 20
-55.41745543982334
 10
66.16667899280337
 20
-55.557270968236615
 10
66.12740624041636
 20
-55.69918446029021
 10
66.0951441587903
 20
-55.84285403395162
 10
66.06997047010564
 20
-55.987933576633914
 10
66.0519458199834
 20
-56.13407357901132
 10
66.04111363138448
 20
-56.28092197701775
 10
66.0375
 20
-56.428125
 10
66.04111363138448
 20
-56.575328022982255
 10
66.0519458199834
 20
-56.72217642098868
 10
66.06997047010564
 20
-56.86831642336609
 10
66.0951441587903
 20
-57.013395966048385
 10
66.12740624041636
 20
-57.15706553970979
 10
66.16667899280337
 20
-57.29897903176339
 10
66.21286780445094
 20
-57.43879456017666
 10
66.26586140246613
 20
-57.57617529709527
 10
66.32553212062966
 20
-57.710790280290844
 10
66.39173620695493
 20
-57.84231521047799
 10
66.46431416999918
 20
-57.970433232579666
 10
66.54309116309236
 20
-58.094835699058805
 10
66.62787740555805
 20
-58.2152229134773
 10
66.71846863991178
 20
-58.33130485249094
 10
66.81464662393512
 20
-58.44280186454105
 10
66.91617965644035
 20
-58.54944534355965
 10
67.02282313545894
 20
-58.65097837606488
 10
67.13432014750906
 20
-58.74715636008821
 10
67.2504020865227
 20
-58.837747594441936
 10
67.37078930094118
 20
-58.92253383690764
 10
67.49519176742032
 20
-59.00131083000082
 10
67.623309789522
 20
-59.073888793045064
 10
67.75483471970915
 20
-59.14009287937033
 10
67.88944970290473
 20
-59.19976359753386
 10
68.02683043982333
 20
-59.252757195549066
 10
68.16664596823661
 20
-59.298946007196626
 10
68.3085594602902
 20
-59.33821875958363
 10
68.45222903395161
 20
-59.37048084120969
 10
68.5973085766339
 20
-59.395654529894344
 10
68.74344857901131
 20
-59.413679180016594
 10
68.89029697701774
 20
-59.42451136861552
 10
69.0375
 20
-59.428125
 10
69.18470302298225
 20
-59.42451136861552
 10
69.33155142098867
 20
-59.413679180016594
 10
69.47769142336608
 20
-59.395654529894344
 10
69.62277096604838
 20
-59.37048084120969
 10
69.76644053970979
 20
-59.33821875958363
 10
69.90835403176338
 20
-59.298946007196626
 10
70.04816956017666
 20
-59.252757195549066
 10
70.18555029709526
 20
-59.19976359753386
 10
70.32016528029084
 20
-59.14009287937033
 10
70.45169021047799
 20
-59.073888793045064
 10
70.57980823257967
 20
-59.00131083000082
 10
70.7042106990588
 20
-58.92253383690764
 10
70.82459791347729
 20
-58.837747594441936
 10
70.94067985249093
 20
-58.74715636008821
 10
71.05217686454105
 20
-58.65097837606488
 10
71.15882034355964
 20
-58.54944534355965
 10
71.26035337606487
 20
-58.44280186454106
 10
71.3565313600882
 20
-58.33130485249094
 10
71.44712259444194
 20
-58.2152229134773
 10
71.53190883690763
 20
-58.094835699058805
 10
71.6106858300008
 20
-57.970433232579666
 10
71.68326379304506
 20
-57.84231521047799
 10
71.74946787937033
 20
-57.71079028029085
 10
71.80913859753386
 20
-57.576175297095276
 10
71.86213219554905
 20
-57.43879456017666
 10
71.90832100719662
 20
-57.29897903176339
 10
71.94759375958363
 20
-57.15706553970979
 10
71.97985584120968
 20
-57.013395966048385
 10
72.00502952989433
 20
-56.86831642336609
 10
72.02305418001659
 20
-56.72217642098868
 10
72.03388636861551
 20
-56.575328022982255
 10
72.0375
 20
-56.428125
  0
LWPOLYLINE
  5
90
330
17
100
AcDbEntity
  8
CUTOUTS
100
AcDbPolyline
 90
129
 70
1
 10
72.0375
 20
-75.478125
 10
72.03388636861551
 20
-75.33092197701775
 10
72.02305418001659
 20
-75.18407357901133
 10
72.00502952989434
 20
-75.03793357663392
 10
71.97985584120968
 20
-74.89285403395162
 10
71.94759375958363
 20
-74.74918446029021
 10
71.90832100719662
 20
-74.60727096823662
 10
71.86213219554905
 20
-74.46745543982334
 10
71.80913859753386
 20
-74.33007470290474
 10
71.74946787937033
 20
-74.19545971970916
 10
71.68326379304506
 20
-74.06393478952201
 10
71.6106858300008
 20
-73.93581676742033
 10
71.53190883690763
 20
-73.8114143009412
 10
71.44712259444194
 20
-73.69102708652271
 10
71.35653136008821
 20
-73.57494514750907
 10
71.26035337606487
 20
-73.46344813545895
 10
71.15882034355964
 20
-73.35680465644036
 10
71.05217686454105
 20
-73.25527162393513
 10
70.94067985249093
 20
-73.15909363991179
 10
70.82459791347729
 20
-73.06850240555806
 10
70.7042106990588
 20
-72.98371616309237
 10
70.57980823257967
 20
-72.9049391699992
 10
70.45169021047799
 20
-72.83236120695494
 10
70.32016528029084
 20
-72.76615712062967
 10
70.18555029709526
 20
-72.70648640246614
 10
70.04816956017666
 20
-72.65349280445095
 10
69.90835403176338
 20
-72.60730399280338
 10
69.76644053970979
 20
-72.56803124041637
 10
69.62277096604838
 20
-72.53576915879032
 10
69.47769142336608
 20
-72.51059547010566
 10
69.33155142098867
 20
-72.49257081998341
 10
69.18470302298225
 20
-72.48173863138449
 10
69.0375
 20
-72.478125
 10
68.89029697701774
 20
-72.48173863138449
 10
68.74344857901131
 20
-72.49257081998341
 10
68.5973085766339
 20
-72.51059547010566
 10
68.45222903395161
 20
-72.53576915879032
 10
68.3085594602902
 20
-72.56803124041637
 10
68.16664596823661
 20
-72.60730399280338
 10
68.02683043982333
 20
-72.65349280445095
 10
67.88944970290473
 20
-72.70648640246614
 10
67.75483471970915
 20
-72.76615712062967
 10
67.623309789522
 20
-72.83236120695494
 10
67.49519176742032
 20
-72.9049391699992
 10
67.37078930094118
 20
-72.98371616309237
 10
67.2504020865227
 20
-73.06850240555806
 10
67.13432014750906
 20
-73.15909363991179
 10
67.02282313545894
 20
-73.25527162393513
 10
66.91617965644035
 20
-73.35680465644036
 10
66.81464662393512
 20
-73.46344813545895
 10
66.71846863991178
 20
-73.57494514750907
 10
66.62787740555805
 20
-73.69102708652271
 10
66.54309116309236
 20
-73.8114143009412
 10
66.46431416999918
 20
-73.93581676742033
 10
66.39173620695493
 20
-74.06393478952201
 10
66.32553212062966
 20
-74.19545971970916
 10
66.26586140246613
 20
-74.33007470290474
 10
66.21286780445094
 20
-74.46745543982334
 10
66.16667899280337
 20
-74.60727096823662
 10
66.12740624041636
 20
-74.74918446029021
 10
66.0951441587903
 20
-74.89285403395162
 10
66.06997047010564
 20
-75.03793357663392
 10
66.0519458199834
 20
-75.18407357901133
 10
66.04111363138448
 20
-75.33092197701775
 10
66.0375
 20
-75.478125
 10
66.04111363138448
 20
-75.62532802298226
 10
66.0519458199834
 20
-75.77217642098869
 10
66.06997047010564
 20
-75.9183164233661
 10
66.0951441587903
 20
-76.06339596604839
 10
66.12740624041636
 20
-76.2070655397098
 10
66.16667899280337
 20
-76.34897903176339
 10
66.21286780445094
 20
-76.48879456017667
 10
66.26586140246613
 20
-76.62617529709527
 10
66.32553212062966
 20
-76.76079028029085
 10
66.39173620695493
 20
-76.892315210478
 10
66.46431416999918
 20
-77.02043323257968
 10
66.54309116309236
 20
-77.14483569905882
 10
66.62787740555805
 20
-77.2652229134773
 10
66.71846863991178
 20
-77.38130485249094
 10
66.81464662393512
 20
-77.49280186454106
 10
66.91617965644035
 20
-77.59944534355965
 10
67.02282313545894
 20
-77.70097837606488
 10
67.13432014750906
 20
-77.79715636008821
 10
67.2504020865227
 20
-77.88774759444195
 10
67.37078930094118
 20
-77.97253383690764
 10
67.49519176742032
 20
-78.05131083000082
 10
67.623309789522
 20
-78.12388879304507
 10
67.75483471970915
 20
-78.19009287937034
 10
67.88944970290473
 20
-78.24976359753387
 10
68.02683043982333
 20
-78.30275719554906
 10
68.16664596823661
 20
-78.34894600719663
 10
68.3085594602902
 20
-78.38821875958364
 10
68.45222903395161
 20
-78.4204808412097
 10
68.5973085766339
 20
-78.44565452989434
 10
68.74344857901131
 20
-78.4636791800166
 10
68.89029697701774
 20
-78.47451136861552
 10
69.0375
 20
-78.478125
 10
69.18470302298225
 20
-78.47451136861552
 10
69.33155142098867
 20
-78.4636791800166
 10
69.47769142336608
 20
-78.44565452989434
 10
69.62277096604838
 20
-78.4204808412097
 10
69.76644053970979
 20
-78.38821875958364
 10
69.90835403176338
 20
-78.34894600719663
 10
70.04816956017666
 20
-78.30275719554906
 10
70.18555029709526
 20
-78.24976359753387
 10
70.32016528029084
 20
-78.19009287937034
 10
70.45169021047799
 20
-78.12388879304507
 10
70.57980823257967
 20
-78.05131083000082
 10
70.7042106990588
 20
-77.97253383690764
 10
70.82459791347729
 20
-77.88774759444195
 10
70.94067985249093
 20
-77.79715636008822
 10
71.05217686454105
 20
-77.70097837606488
 10
71.15882034355964
 20
-77.59944534355965
 10
71.26035337606487
 20
-77.49280186454106
 10
71.3565313600882
 20
-77.38130485249094
 10
71.44712259444194
 20
-77.2652229134773
 10
71.53190883690763
 20
-77.14483569905882
 10
71.6106858300008
 20
-77.02043323257968
 10
71.68326379304506
 20
-76.892315210478
 10
71.74946787937033
 20
-76.76079028029085
 10
71.80913859753386
 20
-76.62617529709527
 10
71.86213219554905
 20
-76.48879456017667
 10
71.90832100719662
 20
-76.34897903176339
 10
71.94759375958363
 20
-76.2070655397098
 10
71.97985584120968
 20
-76.06339596604839
 10
72.00502952989433
 20
-75.9183164233661
 10
72.02305418001659
 20
-75.77217642098869
 10
72.03388636861551
 20
-75.62532802298226
 10
72.0375
 20
-75.478125
  0
LWPOLYLINE
  5
91
330
17
100
AcDbEntity
  8
CUTOUTS
100
AcDbPolyline
 90
129
 70
1
 10
110.1375
 20
-77.859375
 10
110.13388636861552
 20
-77.71217197701775
 10
110.1230541800166
 20
-77.56532357901132
 10
110.10502952989435
 20
-77.41918357663391
 10
110.07985584120969
 20
-77.27410403395162
 10
110.04759375958363
 20
-77.1304344602902
 10
110.00832100719663
 20
-76.98852096823661
 10
109.96213219554906
 20
-76.84870543982333
 10
109.90913859753387
 20
-76.71132470290473
 10
109.84946787937034
 20
-76.57670971970916
 10
109.78326379304507
 20
-76.445184789522
 10
109.71068583000081
 20
-76.31706676742033
 10
109.63190883690764
 20
-76.19266430094119
 10
109.54712259444194
 20
-76.0722770865227
 10
109.45653136008822
 20
-75.95619514750906
 10
109.36035337606488
 20
-75.84469813545894
 10
109.25882034355965
 20
-75.73805465644035
 10
109.15217686454106
 20
-75.63652162393512
 10
109.04067985249094
 20
-75.54034363991178
 10
108.9245979134773
 20
-75.44975240555806
 10
108.80421069905881
 20
-75.36496616309236
 10
108.67980823257967
 20
-75.28618916999919
 10
108.551690210478
 20
-75.21361120695494
 10
108.42016528029085
 20
-75.14740712062967
 10
108.28555029709527
 20
-75.08773640246613
 10
108.14816956017667
 20
-75.03474280445094
 10
108.00835403176339
 20
-74.98855399280338
 10
107.8664405397098
 20
-74.94928124041637
 10
107.72277096604839
 20
-74.91701915879031
 10
107.57769142336609
 20
-74.89184547010565
 10
107.43155142098868
 20
-74.87382081998341
 10
107.28470302298226
 20
-74.86298863138448
 10
107.1375
 20
-74.859375
 10
106.99029697701775
 20
-74.86298863138448
 10
106.84344857901132
 20
-74.87382081998341
 10
106.69730857663392
 20
-74.89184547010565
 10
106.55222903395162
 20
-74.91701915879031
 10
106.4085594602902
 20
-74.94928124041637
 10
106.26664596823662
 20
-74.98855399280338
 10
106.12683043982334
 20
-75.03474280445094
 10
105.98944970290474
 20
-75.08773640246613
 10
105.85483471970916
 20
-75.14740712062967
 10
105.723309789522
 20
-75.21361120695494
 10
105.59519176742033
 20
-75.28618916999919
 10
105.47078930094119
 20
-75.36496616309236
 10
105.3504020865227
 20
-75.44975240555806
 10
105.23432014750907
 20
-75.54034363991178
 10
105.12282313545894
 20
-75.63652162393512
 10
105.01617965644036
 20
-75.73805465644035
 10
104.91464662393513
 20
-75.84469813545894
 10
104.81846863991179
 20
-75.95619514750906
 10
104.72787740555808
 20
-76.0722770865227
 10
104.64309116309236
 20
-76.19266430094119
 10
104.5643141699992
 20
-76.31706676742033
 10
104.49173620695494
 20
-76.445184789522
 10
104.42553212062967
 20
-76.57670971970916
 10
104.36586140246614
 20
-76.71132470290473
 10
104.31286780445095
 20
-76.84870543982333
 10
104.26667899280338
 20
-76.98852096823661
 10
104.22740624041637
 20
-77.1304344602902
 10
104.19514415879031
 20
-77.27410403395162
 10
104.16997047010565
 20
-77.41918357663391
 10
104.15194581998341
 20
-77.56532357901132
 10
104.14111363138448
 20
-77.71217197701775
 10
104.1375
 20
-77.859375
 10
104.14111363138448
 20
-78.00657802298225
 10
104.15194581998341
 20
-78.15342642098868
 10
104.16997047010565
 20
-78.29956642336609
 10
104.19514415879031
 20
-78.44464596604838
 10
104.22740624041637
 20
-78.5883155397098
 10
104.26667899280338
 20
-78.73022903176339
 10
104.31286780445095
 20
-78.87004456017667
 10
104.36586140246614
 20
-79.00742529709527
 10
104.42553212062967
 20
-79.14204028029084
 10
104.49173620695494
 20
-79.273565210478
 10
104.5643141699992
 20
-79.40168323257967
 10
104.64309116309236
 20
-79.52608569905881
 10
104.72787740555806
 20
-79.6464729134773
 10
104.81846863991179
 20
-79.76255485249094
 10
104.91464662393513
 20
-79.87405186454106
 10
105.01617965644036
 20
-79.98069534355965
 10
105.12282313545894
 20
-80.08222837606488
 10
105.23432014750907
 20
-80.1784063600882
 10
105.3504020865227
 20
-80.26899759444194
 10
105.47078930094119
 20
-80.35378383690764
 10
105.59519176742033
 20
-80.43256083000081
 10
105.723309789522
 20
-80.50513879304506
 10
105.85483471970916
 20
-80.57134287937033
 10
105.98944970290474
 20
-80.63101359753387
 10
106.12683043982334
 20
-80.68400719554906
 10
106.26664596823662
 20
-80.73019600719662
 10
106.4085594602902
 20
-80.76946875958363
 10
106.55222903395162
 20
-80.80173084120969
 10
106.69730857663392
 20
-80.82690452989434
 10
106.84344857901132
 20
-80.84492918001659
 10
106.99029697701775
 20
-80.85576136861552
 10
107.1375
 20
-80.859375
 10
107.28470302298226
 20
-80.85576136861552
 10
107.43155142098868
 20
-80.84492918001659
 10
107.57769142336609
 20
-80.82690452989434
 10
107.72277096604839
 20
-80.80173084120969
 10
107.8664405397098
 20
-80.76946875958363
 10
108.00835403176339
 20
-80.73019600719662
 10
108.14816956017665
 20
-80.68400719554906
 10
108.28555029709527
 20
-80.63101359753387
 10
108.42016528029085
 20
-80.57134287937033
 10
108.551690210478
 20
-80.50513879304506
 10
108.67980823257967
 20
-80.43256083000081
 10
108.80421069905881
 20
-80.35378383690764
 10
108.9245979134773
 20
-80.26899759444194
 10
109.04067985249094
 20
-80.17840636008822
 10
109.15217686454106
 20
-80.08222837606488
 10
109.25882034355965
 20
-79.98069534355965
 10
109.36035337606488
 20
-79.87405186454106
 10
109.4565313600882
 20
-79.76255485249094
 10
109.54712259444194
 20
-79.6464729134773
 10
109.63190883690764
 20
-79.52608569905881
 10
109.71068583000081
 20
-79.40168323257967
 10
109.78326379304507
 20
-79.273565210478
 10
109.84946787937034
 20
-79.14204028029084
 10
109.90913859753387
 20
-79.00742529709527
 10
109.96213219554906
 20
-78.87004456017667
 10
110.00832100719663
 20
-78.73022903176339
 10
110.04759375958363
 20
-78.5883155397098
 10
110.07985584120969
 20
-78.44464596604838
 10
110.10502952989435
 20
-78.29956642336609
 10
110.1230541800166
 20
-78.15342642098868
 10
110.13388636861552
 20
-78.00657802298225
 10
110.1375
 20
-77.859375
  0
LWPOLYLINE
  5
92
330
17
100
AcDbEntity
  8
CUTOUTS
100
AcDbPolyline
 90
129
 70
1
 10
101.5
 20
-108.7
 10
101.49638636861552
 20
-108.55279697701775
 10
101.48555418001659
 20
-108.40594857901132
 10
101.46752952989435
 20
-108.25980857663392
 10
101.44235584120969
 20
-108.11472903395162
 10
101.41009375958363
 20
-107.9710594602902
 10
101.37082100719662
 20
-107.82914596823662
 10
101.32463219554906
 20
-107.68933043982334
 10
101.27163859753387
 20
-107.55194970290474
 10
101.21196787937033
 20
-107.41733471970916
 10
101.14576379304506
 20
-107.285809789522
 10
101.07318583000081
 20
-107.15769176742033
 10
100.99440883690764
 20
-107.03328930094119
 10
100.90962259444194
 20
-106.9129020865227
 10
100.81903136008822
 20
-106.79682014750907
 10
100.72285337606488
 20
-106.68532313545894
 10
100.62132034355965
 20
-106.57867965644036
 10
100.51467686454106
 20
-106.47714662393513
 10
100.40317985249094
 20
-106.38096863991179
 10
100.2870979134773
 20
-106.29037740555808
 10
100.16671069905881
 20
-106.20559116309236
 10
100.04230823257967
 20
-106.1268141699992
 10
99.914190210478
 20
-106.05423620695494
 10
99.78266528029084
 20
-105.98803212062967
 10
99.64805029709527
 20
-105.92836140246614
 10
99.51066956017667
 20
-105.87536780445095
 10
99.37085403176339
 20
-105.82917899280338
 10
99.2289405397098
 20
-105.78990624041637
 10
99.08527096604838
 20
-105.75764415879031
 10
98.94019142336609
 20
-105.73247047010565
 10
98.79405142098868
 20
-105.71444581998341
 10
98.64720302298225
 20
-105.70361363138448
 10
98.5
 20
-105.7
 10
98.35279697701775
 20
-105.70361363138448
 10
98.20594857901132
 20
-105.71444581998341
 10
98.05980857663391
 20
-105.73247047010565
 10
97.91472903395162
 20
-105.75764415879031
 10
97.7710594602902
 20
-105.78990624041637
 10
97.62914596823661
 20
-105.82917899280338
 10
97.48933043982333
 20
-105.87536780445095
 10
97.35194970290473
 20
-105.92836140246614
 10
97.21733471970916
 20
-105.98803212062967
 10
97.085809789522
 20
-106.05423620695494
 10
96.95769176742033
 20
-106.1268141699992
 10
96.83328930094119
 20
-106.20559116309236
 10
96.7129020865227
 20
-106.29037740555806
 10
96.59682014750906
 20
-106.38096863991179
 10
96.48532313545894
 20
-106.47714662393513
 10
96.37867965644035
 20
-106.57867965644036
 10
96.27714662393512
 20
-106.68532313545894
 10
96.18096863991178
 20
-106.79682014750907
 10
96.09037740555806
 20
-106.9129020865227
 10
96.00559116309236
 20
-107.03328930094119
 10
95.92681416999919
 20
-107.15769176742033
 10
95.85423620695494
 20
-107.285809789522
 10
95.78803212062967
 20
-107.41733471970916
 10
95.72836140246613
 20
-107.55194970290474
 10
95.67536780445094
 20
-107.68933043982334
 10
95.62917899280338
 20
-107.82914596823662
 10
95.58990624041637
 20
-107.9710594602902
 10
95.55764415879031
 20
-108.11472903395162
 10
95.53247047010565
 20
-108.25980857663392
 10
95.51444581998341
 20
-108.40594857901132
 10
95.50361363138448
 20
-108.55279697701775
 10
95.5
 20
-108.7
 10
95.50361363138448
 20
-108.84720302298226
 10
95.51444581998341
 20
-108.99405142098868
 10
95.53247047010565
 20
-109.14019142336609
 10
95.55764415879031
 20
-109.28527096604839
 10
95.58990624041637
 20
-109.4289405397098
 10
95.62917899280338
 20
-109.57085403176339
 10
95.67536780445094
 20
-109.71066956017667
 10
95.72836140246613
 20
-109.84805029709527
 10
95.78803212062967
 20
-109.98266528029085
 10
95.85423620695494
 20
-110.114190210478
 10
95.92681416999919
 20
-110.24230823257967
 10
96.00559116309236
 20
-110.36671069905881
 10
96.09037740555806
 20
-110.4870979134773
 10
96.18096863991178
 20
-110.60317985249094
 10
96.27714662393512
 20
-110.71467686454106
 10
96.37867965644035
 20
-110.82132034355965
 10
96.48532313545894
 20
-110.92285337606488
 10
96.59682014750906
 20
-111.0190313600882
 10
96.7129020865227
 20
-111.10962259444194
 10
96.83328930094119
 20
-111.19440883690764
 10
96.95769176742033
 20
-111.27318583000081
 10
97.085809789522
 20
-111.34576379304507
 10
97.21733471970916
 20
-111.41196787937034
 10
97.35194970290473
 20
-111.47163859753387
 10
97.48933043982333
 20
-111.52463219554906
 10
97.62914596823661
 20
-111.57082100719663
 10
97.7710594602902
 20
-111.61009375958363
 10
97.91472903395162
 20
-111.64235584120969
 10
98.05980857663391
 20
-111.66752952989435
 10
98.20594857901132
 20
-111.6855541800166
 10
98.35279697701775
 20
-111.69638636861552
 10
98.5
 20
-111.7
 10
98.64720302298225
 20
-111.69638636861552
 10
98.79405142098868
 20
-111.6855541800166
 10
98.94019142336609
 20
-111.66752952989435
 10
99.08527096604838
 20
-111.64235584120969
 10
99.2289405397098
 20
-111.61009375958363
 10
99.37085403176339
 20
-111.57082100719663
 10
99.51066956017667
 20
-111.52463219554906
 10
99.64805029709527
 20
-111.47163859753387
 10
99.78266528029084
 20
-111.41196787937034
 10
99.914190210478
 20
-111.34576379304507
 10
100.04230823257967
 20
-111.27318583000081
 10
100.16671069905881
 20
-111.19440883690764
 10
100.2870979134773
 20
-111.10962259444194
 10
100.40317985249094
 20
-111.0190313600882
 10
100.51467686454106
 20
-110.92285337606488
 10
100.62132034355965
 20
-110.82132034355965
 10
100.72285337606488
 20
-110.71467686454106
 10
100.8190313600882
 20
-110.60317985249094
 10
100.90962259444194
 20
-110.4870979134773
 10
100.99440883690764
 20
-110.36671069905881
 10
101.07318583000081
 20
-110.24230823257967
 10
101.14576379304506
 20
-110.114190210478
 10
101.21196787937033
 20
-109.98266528029085
 10
101.27163859753387
 20
-109.84805029709527
 10
101.32463219554906
 20
-109.71066956017667
 10
101.37082100719662
 20
-109.57085403176339
 10
101.41009375958363
 20
-109.4289405397098
 10
101.44235584120969
 20
-109.28527096604839
 10
101.46752952989434
 20
-109.14019142336609
 10
101.48555418001659
 20
-108.99405142098868
 10
101.49638636861552
 20
-108.84720302298226
 10
101.5
 20
-108.7
  0
LWPOLYLINE
  5
93
330
17
100
AcDbEntity
  8
CUTOUTS
100
AcDbPolyline
 90
129
 70
1
 10
52.9875
 20
-88.0
 10
52.983886368615515
 20
-87.85279697701775
 10
52.97305418001659
 20
-87.70594857901132
 10
52.95502952989434
 20
-87.55980857663391
 10
52.92985584120969
 20
-87.41472903395162
 10
52.89759375958363
 20
-87.2710594602902
 10
52.85832100719662
 20
-87.12914596823661
 10
52.81213219554906
 20
-86.98933043982333
 10
52.759138597533855
 20
-86.85194970290473
 10
52.699467879370324
 20
-86.71733471970916
 10
52.63326379304506
 20
-86.585809789522
 10
52.560685830000814
 20
-86.45769176742033
 10
52.481908836907635
 20
-86.33328930094119
 10
52.39712259444193
 20
-86.2129020865227
 10
52.30653136008821
 20
-86.09682014750906
 10
52.21035337606487
 20
-85.98532313545894
 10
52.10882034355964
 20
-85.87867965644035
 10
52.00217686454105
 20
-85.77714662393512
 10
51.89067985249093
 20
-85.68096863991178
 10
51.7745979134773
 20
-85.59037740555806
 10
51.6542106990588
 20
-85.50559116309236
 10
51.52980823257966
 20
-85.42681416999919
 10
51.40169021047799
 20
-85.35423620695494
 10
51.27016528029085
 20
-85.28803212062967
 10
51.135550297095264
 20
-85.22836140246613
 10
50.998169560176656
 20
-85.17536780445094
 10
50.85835403176338
 20
-85.12917899280338
 10
50.71644053970979
 20
-85.08990624041637
 10
50.57277096604838
 20
-85.05764415879031
 10
50.427691423366085
 20
-85.03247047010565
 10
50.28155142098868
 20
-85.01444581998341
 10
50.13470302298225
 20
-85.00361363138448
 10
49.9875
 20
-85.0
 10
49.84029697701774
 20
-85.00361363138448
 10
49.69344857901132
 20
-85.01444581998341
 10
49.54730857663391
 20
-85.03247047010565
 10
49.40222903395161
 20
-85.05764415879031
 10
49.25855946029021
 20
-85.08990624041637
 10
49.11664596823661
 20
-85.12917899280338
 10
48.97683043982334
 20
-85.17536780445094
 10
48.83944970290473
 20
-85.22836140246613
 10
48.704834719709154
 20
-85.28803212062967
 10
48.57330978952201
 20
-85.35423620695494
 10
48.44519176742033
 20
-85.42681416999919
 10
48.32078930094119
 20
-85.50559116309236
 10
48.2004020865227
 20
-85.59037740555806
 10
48.08432014750906
 20
-85.68096863991178
 10
47.97282313545894
 20
-85.77714662393512
 10
47.86617965644035
 20
-85.87867965644035
 10
47.76464662393512
 20
-85.98532313545894
 10
47.66846863991179
 20
-86.09682014750906
 10
47.57787740555806
 20
-86.2129020865227
 10
47.49309116309236
 20
-86.33328930094119
 10
47.41431416999918
 20
-86.45769176742033
 10
47.341736206954934
 20
-86.585809789522
 10
47.27553212062967
 20
-86.71733471970916
 10
47.21586140246614
 20
-86.85194970290473
 10
47.16286780445093
 20
-86.98933043982333
 10
47.11667899280337
 20
-87.12914596823661
 10
47.077406240416366
 20
-87.2710594602902
 10
47.04514415879031
 20
-87.41472903395162
 10
47.019970470105655
 20
-87.55980857663391
 10
47.001945819983405
 20
-87.70594857901132
 10
46.99111363138448
 20
-87.85279697701775
 10
46.9875
 20
-88.0
 10
46.99111363138448
 20
-88.14720302298225
 10
47.001945819983405
 20
-88.29405142098868
 10
47.019970470105655
 20
-88.44019142336609
 10
47.04514415879031
 20
-88.58527096604838
 10
47.077406240416366
 20
-88.7289405397098
 10
47.11667899280337
 20
-88.87085403176339
 10
47.16286780445093
 20
-89.01066956017667
 10
47.21586140246614
 20
-89.14805029709527
 10
47.27553212062967
 20
-89.28266528029084
 10
47.341736206954934
 20
-89.414190210478
 10
47.41431416999918
 20
-89.54230823257967
 10
47.49309116309236
 20
-89.66671069905881
 10
47.57787740555806
 20
-89.7870979134773
 10
47.66846863991179
 20
-89.90317985249094
 10
47.76464662393512
 20
-90.01467686454106
 10
47.86617965644035
 20
-90.12132034355965
 10
47.97282313545894
 20
-90.22285337606488
 10
48.08432014750906
 20
-90.3190313600882
 10
48.2004020865227
 20
-90.40962259444194
 10
48.32078930094119
 20
-90.49440883690764
 10
48.44519176742033
 20
-90.57318583000081
 10
48.57330978952201
 20
-90.64576379304506
 10
48.70483471970915
 20
-90.71196787937033
 10
48.83944970290472
 20
-90.77163859753387
 10
48.97683043982334
 20
-90.82463219554906
 10
49.11664596823661
 20
-90.87082100719662
 10
49.25855946029021
 20
-90.91009375958363
 10
49.40222903395161
 20
-90.94235584120969
 10
49.54730857663391
 20
-90.96752952989434
 10
49.69344857901132
 20
-90.98555418001659
 10
49.84029697701774
 20
-90.99638636861552
 10
49.9875
 20
-91.0
 10
50.13470302298225
 20
-90.99638636861552
 10
50.28155142098868
 20
-90.98555418001659
 10
50.427691423366085
 20
-90.96752952989434
 10
50.57277096604838
 20
-90.94235584120969
 10
50.71644053970979
 20
-90.91009375958363
 10
50.85835403176338
 20
-90.87082100719662
 10
50.998169560176656
 20
-90.82463219554906
 10
51.135550297095264
 20
-90.77163859753387
 10
51.27016528029085
 20
-90.71196787937033
 10
51.40169021047799
 20
-90.64576379304506
 10
51.52980823257966
 20
-90.57318583000081
 10
51.6542106990588
 20
-90.49440883690764
 10
51.774597913477294
 20
-90.40962259444194
 10
51.89067985249093
 20
-90.31903136008822
 10
52.00217686454105
 20
-90.22285337606488
 10
52.10882034355964
 20
-90.12132034355965
 10
52.21035337606487
 20
-90.01467686454106
 10
52.30653136008821
 20
-89.90317985249094
 10
52.39712259444193
 20
-89.7870979134773
 10
52.481908836907635
 20
-89.66671069905881
 10
52.560685830000814
 20
-89.54230823257967
 10
52.63326379304506
 20
-89.414190210478
 10
52.699467879370324
 20
-89.28266528029084
 10
52.759138597533855
 20
-89.14805029709527
 10
52.81213219554906
 20
-89.01066956017667
 10
52.85832100719662
 20
-88.87085403176339
 10
52.89759375958363
 20
-88.7289405397098
 10
52.92985584120969
 20
-88.58527096604838
 10
52.95502952989434
 20
-88.44019142336609
 10
52.97305418001659
 20
-88.29405142098868
 10
52.983886368615515
 20
-88.14720302298225
 10
52.9875
 20
-88.0
  0
LWPOLYLINE
  5
94
330
17
100
AcDbEntity
  8
CUTOUTS
100
AcDbPolyline
 90
129
 70
1
 10
129.1875
 20
-79.05
 10
129.1838863686155
 20
-78.90279697701774
 10
129.17305418001658
 20
-78.75594857901132
 10
129.15502952989434
 20
-78.60980857663391
 10
129.1298558412097
 20
-78.46472903395161
 10
129.09759375958365
 20
-78.3210594602902
 10
129.05832100719664
 20
-78.17914596823661
 10
129.01213219554907
 20
-78.03933043982333
 10
128.95913859753387
 20
-77.90194970290473
 10
128.89946787937032
 20
-77.76733471970915
 10
128.83326379304506
 20
-77.635809789522
 10
128.76068583000082
 20
-77.50769176742033
 10
128.68190883690764
 20
-77.38328930094119
 10
128.59712259444194
 20
-77.2629020865227
 10
128.50653136008822
 20
-77.14682014750906
 10
128.41035337606488
 20
-77.03532313545894
 10
128.30882034355963
 20
-76.92867965644035
 10
128.20217686454106
 20
-76.82714662393512
 10
128.09067985249095
 20
-76.73096863991178
 10
127.9745979134773
 20
-76.64037740555807
 10
127.85421069905881
 20
-76.55559116309236
 10
127.72980823257967
 20
-76.47681416999919
 10
127.601690210478
 20
-76.40423620695493
 10
127.47016528029084
 20
-76.33803212062966
 10
127.33555029709527
 20
-76.27836140246613
 10
127.19816956017667
 20
-76.22536780445094
 10
127.05835403176339
 20
-76.17917899280337
 10
126.9164405397098
 20
-76.13990624041637
 10
126.77277096604838
 20
-76.10764415879031
 10
126.62769142336609
 20
-76.08247047010565
 10
126.48155142098868
 20
-76.0644458199834
 10
126.33470302298225
 20
-76.05361363138448
 10
126.1875
 20
-76.05
 10
126.04029697701775
 20
-76.05361363138448
 10
125.89344857901132
 20
-76.0644458199834
 10
125.74730857663391
 20
-76.08247047010565
 10
125.60222903395162
 20
-76.10764415879031
 10
125.4585594602902
 20
-76.13990624041637
 10
125.31664596823661
 20
-76.17917899280337
 10
125.17683043982333
 20
-76.22536780445094
 10
125.03944970290473
 20
-76.27836140246613
 10
124.90483471970916
 20
-76.33803212062966
 10
124.773309789522
 20
-76.40423620695493
 10
124.64519176742033
 20
-76.47681416999919
 10
124.52078930094119
 20
-76.55559116309236
 10
124.4004020865227
 20
-76.64037740555806
 10
124.28432014750906
 20
-76.73096863991178
 10
124.17282313545894
 20
-76.82714662393512
 10
124.06617965644035
 20
-76.92867965644035
 10
123.96464662393512
 20
-77.03532313545894
 10
123.86846863991178
 20
-77.14682014750906
 10
123.77787740555806
 20
-77.2629020865227
 10
123.69309116309236
 20
-77.38328930094119
 10
123.61431416999919
 20
-77.50769176742033
 10
123.54173620695494
 20
-77.635809789522
 10
123.47553212062967
 20
-77.76733471970915
 10
123.41586140246613
 20
-77.90194970290473
 10
123.36286780445094
 20
-78.03933043982333
 10
123.31667899280338
 20
-78.17914596823661
 10
123.27740624041637
 20
-78.3210594602902
 10
123.24514415879031
 20
-78.46472903395161
 10
123.21997047010565
 20
-78.60980857663391
 10
123.20194581998341
 20
-78.75594857901132
 10
123.19111363138448
 20
-78.90279697701774
 10
123.1875
 20
-79.05
 10
123.19111363138448
 20
-79.19720302298225
 10
123.20194581998341
 20
-79.34405142098868
 10
123.21997047010565
 20
-79.49019142336608
 10
123.24514415879031
 20
-79.63527096604838
 10
123.27740624041637
 20
-79.7789405397098
 10
123.31667899280338
 20
-79.92085403176338
 10
123.36286780445094
 20
-80.06066956017666
 10
123.41586140246613
 20
-80.19805029709526
 10
123.47553212062967
 20
-80.33266528029084
 10
123.54173620695494
 20
-80.464190210478
 10
123.61431416999919
 20
-80.59230823257967
 10
123.69309116309236
 20
-80.71671069905881
 10
123.77787740555806
 20
-80.8370979134773
 10
123.86846863991178
 20
-80.95317985249093
 10
123.96464662393512
 20
-81.06467686454106
 10
124.06617965644035
 20
-81.17132034355964
 10
124.17282313545894
 20
-81.27285337606487
 10
124.28432014750906
 20
-81.3690313600882
 10
124.4004020865227
 20
-81.45962259444194
 10
124.52078930094119
 20
-81.54440883690764
 10
124.64519176742033
 20
-81.6231858300008
 10
124.773309789522
 20
-81.69576379304506
 10
124.90483471970916
 20
-81.76196787937033
 10
125.03944970290473
 20
-81.82163859753386
 10
125.17683043982333
 20
-81.87463219554905
 10
125.31664596823661
 20
-81.92082100719662
 10
125.4585594602902
 20
-81.96009375958363
 10
125.60222903395162
 20
-81.99235584120969
 10
125.74730857663391
 20
-82.01752952989435
 10
125.89344857901132
 20
-82.03555418001659
 10
126.04029697701775
 20
-82.04638636861552
 10
126.1875
 20
-82.05
 10
126.33470302298225
 20
-82.04638636861552
 10
126.48155142098868
 20
-82.03555418001659
 10
126.62769142336609
 20
-82.01752952989435
 10
126.77277096604838
 20
-81.99235584120969
 10
126.9164405397098
 20
-81.96009375958363
 10
127.05835403176339
 20
-81.92082100719662
 10
127.19816956017667
 20
-81.87463219554905
 10
127.33555029709527
 20
-81.82163859753386
 10
127.47016528029084
 20
-81.76196787937033
 10
127.601690210478
 20
-81.69576379304506
 10
127.72980823257967
 20
-81.6231858300008
 10
127.85421069905881
 20
-81.54440883690764
 10
127.9745979134773
 20
-81.45962259444194
 10
128.09067985249095
 20
-81.3690313600882
 10
128.20217686454106
 20
-81.27285337606487
 10
128.30882034355963
 20
-81.17132034355964
 10
128.41035337606488
 20
-81.06467686454106
 10
128.50653136008822
 20
-80.95317985249093
 10
128.59712259444194
 20
-80.8370979134773
 10
128.68190883690764
 20
-80.71671069905881
 10
128.76068583000082
 20
-80.59230823257967
 10
128.83326379304506
 20
-80.464190210478
 10
128.89946787937032
 20
-80.33266528029084
 10
128.95913859753387
 20
-80.19805029709526
 10
129.01213219554907
 20
-80.06066956017666
 10
129.05832100719664
 20
-79.92085403176338
 10
129.09759375958365
 20
-79.7789405397098
 10
129.1298558412097
 20
-79.63527096604838
 10
129.15502952989434
 20
-79.49019142336608
 10
129.17305418001658
 20
-79.34405142098868
 10
129.1838863686155
 20
-79.19720302298225
 10
129.1875
 20
-79.05
  0
LWPOLYLINE
  5
95
330
17
100
AcDbEntity
  8
CUTOUTS
100
AcDbPolyline
 90
69
 70
1
 10
137.7625
 20
-80.475
 10
127.4125
 20
-80.475
 10
127.31448285967043
 20
-80.4798152733278
 10
127.21740967798387
 20
-80.49421471959677
 10
127.12221532274553
 20
-80.51805966426778
 10
127.02981656763491
 20
-80.5511204674887
 10
126.941103263174
 20
-80.59307873565164
 10
126.85692976698039
 20
-80.64353038769745
 10
126.77810671583634
 20
-80.70198954663725
 10
126.70539321881344
 20
-80.76789321881344
 10
126.63948954663725
 20
-80.84060671583634
 10
126.58103038769745
 20
-80.91942976698039
 10
126.53057873565164
 20
-81.003603263174
 10
126.4886204674887
 20
-81.09231656763491
 10
126.45555966426778
 20
-81.18471532274553
 10
126.43171471959677
 20
-81.27990967798387
 10
126.4173152733278
 20
-81.37698285967043
 10
126.4125
 20
-81.475
 10
126.4125
 20
-95.675
 10
126.4173152733278
 20
-95.77301714032956
 10
126.43171471959677
 20
-95.87009032201613
 10
126.45555966426778
 20
-95.96528467725446
 10
126.4886204674887
 20
-96.05768343236508
 10
126.53057873565164
 20
-96.14639673682599
 10
126.58103038769745
 20
-96.2305702330196
 10
126.63948954663725
 20
-96.30939328416365
 10
126.70539321881344
 20
-96.38210678118655
 10
126.77810671583634
 20
-96.44801045336274
 10
126.85692976698039
 20
-96.50646961230254
 10
126.941103263174
 20
-96.55692126434835
 10
127.02981656763491
 20
-96.59887953251129
 10
127.12221532274553
 20
-96.63194033573221
 10
127.21740967798387
 20
-96.65578528040322
 10
127.31448285967043
 20
-96.67018472667219
 10
127.4125
 20
-96.675
 10
137.7625
 20
-96.675
 10
137.86051714032956
 20
-96.67018472667219
 10
137.95759032201613
 20
-96.65578528040322
 10
138.05278467725446
 20
-96.63194033573221
 10
138.1451834323651
 20
-96.59887953251129
 10
138.23389673682598
 20
-96.55692126434835
 10
138.3180702330196
 20
-96.50646961230254
 10
138.39689328416364
 20
-96.44801045336274
 10
138.46960678118654
 20
-96.38210678118655
 10
138.53551045336272
 20
-96.30939328416365
 10
138.59396961230254
 20
-96.2305702330196
 10
138.64442126434835
 20
-96.14639673682599
 10
138.68637953251127
 20
-96.05768343236508
 10
138.7194403357322
 20
-95.96528467725446
 10
138.74328528040323
 20
-95.87009032201613
 10
138.75768472667218
 20
-95.77301714032956
 10
138.7625
 20
-95.675
 10
138.7625
 20
-81.475
 10
138.75768472667218
 20
-81.37698285967043
 10
138.74328528040323
 20
-81.27990967798387
 10
138.7194403357322
 20
-81.18471532274553
 10
138.68637953251127
 20
-81.09231656763491
 10
138.64442126434835
 20
-81.003603263174
 10
138.59396961230254
 20
-80.91942976698039
 10
138.53551045336272
 20
-80.84060671583634
 10
138.46960678118654
 20
-80.76789321881344
 10
138.39689328416364
 20
-80.70198954663725
 10
138.3180702330196
 20
-80.64353038769745
 10
138.23389673682598
 20
-80.59307873565164
 10
138.1451834323651
 20
-80.5511204674887
 10
138.05278467725446
 20
-80.51805966426778
 10
137.95759032201613
 20
-80.49421471959677
 10
137.86051714032956
 20
-80.4798152733278
 10
137.7625
 20
-80.475
  0
LWPOLYLINE
  5
96
330
17
100
AcDbEntity
  8
CUTOUTS
100
AcDbPolyline
 90
69
 70
1
 10
142.945
 20
-34.725
 10
129.055
 20
-34.725
 10
129.00599142983523
 20
-34.727407636663905
 10
128.95745483899194
 20
-34.73460735979839
 10
128.90985766137277
 20
-34.746529832133895
 10
128.86365828381747
 20
-34.763060233744355
 10
128.819301631587
 20
-34.78403936782583
 10
128.77721488349022
 20
-34.80926519384873
 10
128.73780335791818
 20
-34.83849477331863
 10
128.70144660940673
 20
-34.871446609406725
 10
128.66849477331863
 20
-34.907803357918176
 10
128.63926519384873
 20
-34.9472148834902
 10
128.61403936782582
 20
-34.989301631587004
 10
128.59306023374435
 20
-35.03365828381746
 10
128.5765298321339
 20
-35.07985766137277
 10
128.5646073597984
 20
-35.12745483899194
 10
128.5574076366639
 20
-35.17599142983522
 10
128.555
 20
-35.225
 10
128.555
 20
-41.875
 10
128.5574076366639
 20
-41.92400857016478
 10
128.5646073597984
 20
-41.972545161008064
 10
128.5765298321339
 20
-42.02014233862723
 10
128.59306023374435
 20
-42.06634171618254
 10
128.61403936782582
 20
-42.110698368413
 10
128.63926519384873
 20
-42.152785116509804
 10
128.66849477331863
 20
-42.192196642081825
 10
128.70144660940673
 20
-42.22855339059328
 10
128.73780335791818
 20
-42.26150522668137
 10
128.77721488349022
 20
-42.29073480615127
 10
128.819301631587
 20
-42.315960632174175
 10
128.86365828381747
 20
-42.33693976625565
 10
128.90985766137277
 20
-42.35347016786611
 10
128.95745483899194
 20
-42.36539264020161
 10
129.00599142983523
 20
-42.372592363336096
 10
129.055
 20
-42.375
 10
142.945
 20
-42.375
 10
142.99400857016477
 20
-42.372592363336096
 10
143.04254516100806
 20
-42.36539264020161
 10
143.09014233862723
 20
-42.35347016786611
 10
143.13634171618253
 20
-42.33693976625565
 10
143.180698368413
 20
-42.315960632174175
 10
143.22278511650978
 20
-42.29073480615127
 10
143.26219664208182
 20
-42.26150522668137
 10
143.29855339059327
 20
-42.22855339059328
 10
143.33150522668137
 20
-42.192196642081825
 10
143.36073480615127
 20
-42.152785116509804
 10
143.38596063217418
 20
-42.110698368413
 10
143.40693976625565
 20
-42.06634171618254
 10
143.4234701678661
 20
-42.02014233862723
 10
143.4353926402016
 20
-41.972545161008064
 10
143.4425923633361
 20
-41.92400857016478
 10
143.445
 20
-41.875
 10
143.445
 20
-35.225
 10
143.4425923633361
 20
-35.17599142983522
 10
143.4353926402016
 20
-35.12745483899194
 10
143.4234701678661
 20
-35.07985766137277
 10
143.40693976625565
 20
-35.03365828381746
 10
143.38596063217418
 20
-34.989301631587004
 10
143.36073480615127
 20
-34.9472148834902
 10
143.33150522668137
 20
-34.907803357918176
 10
143.29855339059327
 20
-34.871446609406725
 10
143.26219664208182
 20
-34.83849477331863
 10
143.22278511650978
 20
-34.80926519384873
 10
143.180698368413
 20
-34.78403936782583
 10
143.13634171618253
 20
-34.763060233744355
 10
143.09014233862723
 20
-34.746529832133895
 10
143.04254516100806
 20
-34.73460735979839
 10
142.99400857016477
 20
-34.727407636663905
 10
142.945
 20
-34.725
  0
ENDSEC
  0
SECTION
  2
OBJECTS
  0
DICTIONARY
  5
A
330
0
100
AcDbDictionary
281
1
  3
ACAD_COLOR
350
B
  3
ACAD_GROUP
350
C
  3
ACAD_LAYOUT
350
D
  3
ACAD_MATERIAL
350
E
  3
ACAD_MLEADERSTYLE
350
F
  3
ACAD_MLINESTYLE
350
10
  3
ACAD_PLOTSETTINGS
350
11
  3
ACAD_PLOTSTYLENAME
350
12
  3
ACAD_SCALELIST
350
14
  3
ACAD_TABLESTYLE
350
15
  3
ACAD_VISUALSTYLE
350
16
  3
EZDXF_META
350
2D
  0
DICTIONARY
  5
B
330
A
100
AcDbDictionary
281
1
  0
DICTIONARY
  5
C
330
A
100
AcDbDictionary
281
1
  0
DICTIONARY
  5
D
330
A
100
AcDbDictionary
281
1
  3
Model
350
1A
  3
Layout1
350
1E
  0
DICTIONARY
  5
E
330
A
100
AcDbDictionary
281
1
  3
ByBlock
350
1F
  3
ByLayer
350
20
  3
Global
350
21
  0
DICTIONARY
  5
F
330
A
100
AcDbDictionary
281
1
  3
Standard
350
2C
  0
DICTIONARY
  5
10
330
A
100
AcDbDictionary
281
1
  3
Standard
350
22
  0
DICTIONARY
  5
11
330
A
100
AcDbDictionary
281
1
  0
ACDBDICTIONARYWDFLT
  5
12
330
A
100
AcDbDictionary
281
1
  3
Normal
350
13
100
AcDbDictionaryWithDefault
340
13
  0
ACDBPLACEHOLDER
  5
13
330
12
  0
DICTIONARY
  5
14
330
A
100
AcDbDictionary
281
1
  0
DICTIONARY
  5
15
330
A
100
AcDbDictionary
281
1
  0
DICTIONARY
  5
16
330
A
100
AcDbDictionary
281
1
  3
2dWireframe
350
5A
  3
Basic
350
5B
  3
Brighten
350
5C
  3
ColorChange
350
5D
  3
Conceptual
350
5E
  3
Dim
350
5F
  3
EdgeColorOff
350
60
  3
Facepattern
350
61
  3
Flat
350
62
  3
FlatWithEdges
350
63
  3
Gouraud
350
64
  3
GouraudWithEdges
350
65
  3
Hidden
350
66
  3
JitterOff
350
67
  3
Linepattern
350
68
  3
Modeling
350
69
  3
OverhangOff
350
6A
  3
Realistic
350
6B
  3
Shaded
350
6C
  3
Shaded with edges
350
6D
  3
Shades of Gray
350
6E
  3
Sketchy
350
6F
  3
Thicken
350
70
  3
Wireframe
350
71
  3
X-Ray
350
72
  0
LAYOUT
  5
1A
330
D
100
AcDbPlotSettings
  1

  4
A3
  6

 40
7.5
 41
20.0
 42
7.5
 43
20.0
 44
420.0
 45
297.0
 46
0.0
 47
0.0
 48
0.0
 49
0.0
140
0.0
141
0.0
142
1.0
143
1.0
 70
1024
 72
1
 73
0
 74
5
  7

 75
16
 76
0
 77
2
 78
300
147
1.0
148
0.0
149
0.0
100
AcDbLayout
  1
Model
 70
1
 71
0
 10
0.0
 20
0.0
 11
420.0
 21
297.0
 12
0.0
 22
0.0
 32
0.0
 14
1e+20
 24
1e+20
 34
1e+20
 15
-1e+20
 25
-1e+20
 35
-1e+20
146
0.0
 13
0.0
 23
0.0
 33
0.0
 16
1.0
 26
0.0
 36
0.0
 17
0.0
 27
1.0
 37
0.0
 76
1
330
17
  0
LAYOUT
  5
1E
330
D
100
AcDbPlotSettings
  1

  4
A3
  6

 40
7.5
 41
20.0
 42
7.5
 43
20.0
 44
420.0
 45
297.0
 46
0.0
 47
0.0
 48
0.0
 49
0.0
140
0.0
141
0.0
142
1.0
143
1.0
 70
0
 72
1
 73
0
 74
5
  7

 75
16
 76
0
 77
2
 78
300
147
1.0
148
0.0
149
0.0
100
AcDbLayout
  1
Layout1
 70
1
 71
1
 10
0.0
 20
0.0
 11
420.0
 21
297.0
 12
0.0
 22
0.0
 32
0.0
 14
1e+20
 24
1e+20
 34
1e+20
 15
-1e+20
 25
-1e+20
 35
-1e+20
146
0.0
 13
0.0
 23
0.0
 33
0.0
 16
1.0
 26
0.0
 36
0.0
 17
0.0
 27
1.0
 37
0.0
 76
1
330
1B
  0
MATERIAL
  5
1F
102
{ACAD_REACTORS
330
E
102
}
330
E
100
AcDbMaterial
  1
ByBlock
  2

 70
0
 40
1.0
 71
1
 41
1.0
 91
-1023410177
 42
1.0
 72
1
  3

 73
1
 74
1
 75
1
 44
0.5
 73
0
 45
1.0
 46
1.0
 77
1
  4

 78
1
 79
1
170
1
 48
1.0
171
1
  6

172
1
173
1
174
1
140
1.0
141
1.0
175
1
  7

176
1
177
1
178
1
143
1.0
179
1
  8

270
1
271
1
272
1
145
1.0
146
1.0
273
1
  9

274
1
275
1
276
1
 42
1.0
 72
1
  3

 73
1
 74
1
 75
1
 94
63
  0
MATERIAL
  5
20
102
{ACAD_REACTORS
330
E
102
}
330
E
100
AcDbMaterial
  1
ByLayer
  2

 70
0
 40
1.0
 71
1
 41
1.0
 91
-1023410177
 42
1.0
 72
1
  3

 73
1
 74
1
 75
1
 44
0.5
 73
0
 45
1.0
 46
1.0
 77
1
  4

 78
1
 79
1
170
1
 48
1.0
171
1
  6

172
1
173
1
174
1
140
1.0
141
1.0
175
1
  7

176
1
177
1
178
1
143
1.0
179
1
  8

270
1
271
1
272
1
145
1.0
146
1.0
273
1
  9

274
1
275
1
276
1
 42
1.0
 72
1
  3

 73
1
 74
1
 75
1
 94
63
  0
MATERIAL
  5
21
102
{ACAD_REACTORS
330
E
102
}
330
E
100
AcDbMaterial
  1
Global
  2

 70
0
 40
1.0
 71
1
 41
1.0
 91
-1023410177
 42
1.0
 72
1
  3

 73
1
 74
1
 75
1
 44
0.5
 73
0
 45
1.0
 46
1.0
 77
1
  4

 78
1
 79
1
170
1
 48
1.0
171
1
  6

172
1
173
1
174
1
140
1.0
141
1.0
175
1
  7

176
1
177
1
178
1
143
1.0
179
1
  8

270
1
271
1
272
1
145
1.0
146
1.0
273
1
  9

274
1
275
1
276
1
 42
1.0
 72
1
  3

 73
1
 74
1
 75
1
 94
63
  0
MLINESTYLE
  5
22
102
{ACAD_REACTORS
330
10
102
}
330
10
100
AcDbMlineStyle
  2
Standard
 70
0
  3

 62
256
 51
90.0
 52
90.0
 71
2
 49
0.5
 62
256
  6
BYLAYER
 49
-0.5
 62
256
  6
BYLAYER
  0
MLEADERSTYLE
  5
2C
102
{ACAD_REACTORS
330
F
102
}
330
F
100
AcDbMLeaderStyle
179
2
170
2
171
1
172
0
 90
2
 40
0.0
 41
0.0
173
1
 91
-1056964608
 92
-2
290
1
 42
2.0
291
1
 43
8.0
  3
Standard
 44
4.0
300

342
29
174
1
175
1
176
0
178
1
 93
-1056964608
 45
4.0
292
0
297
0
 46
4.0
 94
-1056964608
 47
1.0
 49
1.0
140
1.0
294
1
141
0.0
177
0
142
1.0
295
0
296
0
143
3.75
271
0
272
9
273
9
  0
DICTIONARY
  5
2D
330
A
100
AcDbDictionary
280
1
281
1
  3
CREATED_BY_EZDXF
350
2E
  3
WRITTEN_BY_EZDXF
350
99
  0
DICTIONARYVAR
  5
2E
330
2D
100
DictionaryVariables
280
0
  1
1.4.4 @ 2026-09-28T21:42:19.959961+00:00
  0
VISUALSTYLE
  5
5A
102
{ACAD_REACTORS
330
16
102
}
330
16
100
AcDbVisualStyle
  2
2dWireframe
 70
4
 90
0
 40
0.6
 62
7
290
0
291
0
  0
VISUALSTYLE
  5
5B
102
{ACAD_REACTORS
330
16
102
}
330
16
100
AcDbVisualStyle
  2
Basic
 70
7
 90
1
 40
0.6
 62
7
290
0
291
1
  0
VISUALSTYLE
  5
5C
102
{ACAD_REACTORS
330
16
102
}
330
16
100
AcDbVisualStyle
  2
Brighten
 70
12
 90
2
 40
0.6
 62
7
290
0
291
1
  0
VISUALSTYLE
  5
5D
102
{ACAD_REACTORS
330
16
102
}
330
16
100
AcDbVisualStyle
  2
ColorChange
 70
16
 90
2
 40
0.6
 62
8
290
0
291
1
  0
VISUALSTYLE
  5
5E
102
{ACAD_REACTORS
330
16
102
}
330
16
100
AcDbVisualStyle
  2
Conceptual
 70
9
 90
3
 40
0.6
 62
7
290
0
291
0
  0
VISUALSTYLE
  5
5F
102
{ACAD_REACTORS
330
16
102
}
330
16
100
AcDbVisualStyle
  2
Dim
 70
11
 90
2
 40
0.6
 62
7
290
0
291
1
  0
VISUALSTYLE
  5
60
102
{ACAD_REACTORS
330
16
102
}
330
16
100
AcDbVisualStyle
  2
EdgeColorOff
 70
22
 90
2
 40
0.6
 62
7
290
0
291
1
  0
VISUALSTYLE
  5
61
102
{ACAD_REACTORS
330
16
102
}
330
16
100
AcDbVisualStyle
  2
Facepattern
 70
15
 90
2
 40
0.6
 62
7
290
0
291
1
  0
VISUALSTYLE
  5
62
102
{ACAD_REACTORS
330
16
102
}
330
16
100
AcDbVisualStyle
  2
Flat
 70
0
 90
2
 40
0.6
 62
7
290
0
291
1
  0
VISUALSTYLE
  5
63
102
{ACAD_REACTORS
330
16
102
}
330
16
100
AcDbVisualStyle
  2
FlatWithEdges
 70
1
 90
2
 40
0.6
 62
7
290
0
291
1
  0
VISUALSTYLE
  5
64
102
{ACAD_REACTORS
330
16
102
}
330
16
100
AcDbVisualStyle
  2
Gouraud
 70
2
 90
2
 40
0.6
 62
7
290
0
291
1
  0
VISUALSTYLE
  5
65
102
{ACAD_REACTORS
330
16
102
}
330
16
100
AcDbVisualStyle
  2
GouraudWithEdges
 70
3
 90
2
 40
0.6
 62
7
290
0
291
1
  0
VISUALSTYLE
  5
66
102
{ACAD_REACTORS
330
16
102
}
330
16
100
AcDbVisualStyle
  2
Hidden
 70
6
 90
1
 40
0.6
 62
7
290
0
291
0
  0
VISUALSTYLE
  5
67
102
{ACAD_REACTORS
330
16
102
}
330
16
100
AcDbVisualStyle
  2
JitterOff
 70
20
 90
2
 40
0.6
 62
7
290
0
291
1
  0
VISUALSTYLE
  5
68
102
{ACAD_REACTORS
330
16
102
}
330
16
100
AcDbVisualStyle
  2
Linepattern
 70
14
 90
2
 40
0.6
 62
7
290
0
291
1
  0
VISUALSTYLE
  5
69
102
{ACAD_REACTORS
330
16
102
}
330
16
100
AcDbVisualStyle
  2
Modeling
 70
10
 90
2
 40
0.6
 62
7
290
0
291
0
  0
VISUALSTYLE
  5
6A
102
{ACAD_REACTORS
330
16
102
}
330
16
100
AcDbVisualStyle
  2
OverhangOff
 70
21
 90
2
 40
0.6
 62
7
290
0
291
1
  0
VISUALSTYLE
  5
6B
102
{ACAD_REACTORS
330
16
102
}
330
16
100
AcDbVisualStyle
  2
Realistic
 70
8
 90
2
 40
0.6
 62
7
290
0
291
0
  0
VISUALSTYLE
  5
6C
102
{ACAD_REACTORS
330
16
102
}
330
16
100
AcDbVisualStyle
  2
Shaded
 70
27
 90
2
 40
0.6
 62
7
290
0
291
0
  0
VISUALSTYLE
  5
6D
102
{ACAD_REACTORS
330
16
102
}
330
16
100
AcDbVisualStyle
  2
Shaded with edges
 70
26
 90
2
 40
0.6
 62
7
290
0
291
0
  0
VISUALSTYLE
  5
6E
102
{ACAD_REACTORS
330
16
102
}
330
16
100
AcDbVisualStyle
  2
Shades of Gray
 70
23
 90
2
 40
0.6
 62
7
290
0
291
0
  0
VISUALSTYLE
  5
6F
102
{ACAD_REACTORS
330
16
102
}
330
16
100
AcDbVisualStyle
  2
Sketchy
 70
24
 90
1
 40
0.6
 62
7
290
0
291
0
  0
VISUALSTYLE
  5
70
102
{ACAD_REACTORS
330
16
102
}
330
16
100
AcDbVisualStyle
  2
Thicken
 70
13
 90
2
 40
0.6
 62
7
290
0
291
1
  0
VISUALSTYLE
  5
71
102
{ACAD_REACTORS
330
16
102
}
330
16
100
AcDbVisualStyle
  2
Wireframe
 70
5
 90
0
 40
0.6
 62
7
290
0
291
0
  0
VISUALSTYLE
  5
72
102
{ACAD_REACTORS
330
16
102
}
330
16
100
AcDbVisualStyle
  2
X-Ray
 70
25
 90
2
 40
0.5
 62
7
290
0
291
0
  0
DICTIONARYVAR
  5
99
330
2D
100
DictionaryVariables
280
0
  1
1.4.4 @ 2026-09-28T21:42:19.969002+00:00
  0
ENDSEC
  0
EOF
