  0
SECTION
  2
HEADER
  9
$ACADVER
  1
AC1024
  9
$ACADMAINTVER
 70
6
  9
$DWGCODEPAGE
  3
ANSI_1252
  9
$LASTSAVEDBY
  1
ezdxf
  9
$INSBASE
 10
0.0
 20
0.0
 30
0.0
  9
$EXTMIN
 10
1e+20
 20
1e+20
 30
1e+20
  9
$EXTMAX
 10
-1e+20
 20
-1e+20
 30
-1e+20
  9
$LIMMIN
 10
0.0
 20
0.0
  9
$LIMMAX
 10
420.0
 20
297.0
  9
$ORTHOMODE
 70
0
  9
$REGENMODE
 70
1
  9
$FILLMODE
 70
1
  9
$QTEXTMODE
 70
0
  9
$MIRRTEXT
 70
1
  9
$LTSCALE
 40
1.0
  9
$ATTMODE
 70
1
  9
$TEXTSIZE
 40
2.5
  9
$TRACEWID
 40
1.0
  9
$TEXTSTYLE
  7
OpenSans
  9
$CLAYER
  8
0
  9
$CELTYPE
  6
ByLayer
  9
$CECOLOR
 62
256
  9
$CELTSCALE
 40
1.0
  9
$DISPSILH
 70
0
  9
$DIMSCALE
 40
1.0
  9
$DIMASZ
 40
0.175
  9
$DIMEXO
 40
0.125
  9
$DIMDLI
 40
3.75
  9
$DIMRND
 40
0.0
  9
$DIMDLE
 40
0.0
  9
$DIMEXE
 40
0.375
  9
$DIMTP
 40
0.0
  9
$DIMTM
 40
0.0
  9
$DIMTXT
 40
0.25
  9
$DIMCEN
 40
2.5
  9
$DIMTSZ
 40
0.0
  9
$DIMTOL
 70
0
  9
$DIMLIM
 70
0
  9
$DIMTIH
 70
0
  9
$DIMTOH
 70
0
  9
$DIMSE1
 70
0
  9
$DIMSE2
 70
0
  9
$DIMTAD
 70
1
  9
$DIMZIN
 70
12
  9
$DIMBLK
  1
ARCHTICK
  9
$DIMASO
 70
1
  9
$DIMSHO
 70
1
  9
$DIMPOST
  1

  9
$DIMAPOST
  1

  9
$DIMALT
 70
0
  9
$DIMALTD
 70
3
  9
$DIMALTF
 40
0.03937007874
  9
$DIMLFAC
 40
100.0
  9
$DIMTOFL
 70
1
  9
$DIMTVP
 40
0.0
  9
$DIMTIX
 70
0
  9
$DIMSOXD
 70
0
  9
$DIMSAH
 70
0
  9
$DIMBLK1
  1

  9
$DIMBLK2
  1

  9
$DIMSTYLE
  2
EZDXF
  9
$DIMCLRD
 70
0
  9
$DIMCLRE
 70
0
  9
$DIMCLRT
 70
0
  9
$DIMTFAC
 40
0.5
  9
$DIMGAP
 40
0.1
  9
$DIMJUST
 70
0
  9
$DIMSD1
 70
0
  9
$DIMSD2
 70
0
  9
$DIMTOLJ
 70
0
  9
$DIMTZIN
 70
8
  9
$DIMALTZ
 70
0
  9
$DIMALTTZ
 70
0
  9
$DIMUPT
 70
1
  9
$DIMDEC
 70
2
  9
$DIMTDEC
 70
2
  9
$DIMALTU
 70
2
  9
$DIMALTTD
 70
3
  9
$DIMTXSTY
  7
OpenSansCondensed-Light
  9
$DIMAUNIT
 70
0
  9
$DIMADEC
 70
2
  9
$DIMALTRND
 40
0.0
  9
$DIMAZIN
 70
3
  9
$DIMDSEP
 70
46
  9
$DIMATFIT
 70
3
  9
$DIMFRAC
 70
0
  9
$DIMLDRBLK
  1

  9
$DIMLUNIT
 70
2
  9
$DIMLWD
 70
-2
  9
$DIMLWE
 70
-2
  9
$DIMTMOVE
 70
2
  9
$DIMFXL
 40
1.0
  9
$DIMFXLON
 70
0
  9
$DIMJOGANG
 40
0.785398163397
  9
$DIMTFILL
 70
0
  9
$DIMTFILLCLR
 70
0
  9
$DIMARCSYM
 70
0
  9
$DIMLTYPE
  6

  9
$DIMLTEX1
  6

  9
$DIMLTEX2
  6

  9
$DIMTXTDIRECTION
 70
0
  9
$LUNITS
 70
2
  9
$LUPREC
 70
4
  9
$SKETCHINC
 40
1.0
  9
$FILLETRAD
 40
10.0
  9
$AUNITS
 70
0
  9
$AUPREC
 70
2
  9
$MENU
  1
.
  9
$ELEVATION
 40
0.0
  9
$PELEVATION
 40
0.0
  9
$THICKNESS
 40
0.0
  9
$LIMCHECK
 70
0
  9
$CHAMFERA
 40
0.0
  9
$CHAMFERB
 40
0.0
  9
$CHAMFERC
 40
0.0
  9
$CHAMFERD
 40
0.0
  9
$SKPOLY
 70
0
  9
$TDCREATE
 40
2461312.946053241
  9
$TDUCREATE
 40
2458532.153996898
  9
$TDUPDATE
 40
2461312.946053241
  9
$TDUUPDATE
 40
2458532.1544311
  9
$TDINDWG
 40
0.0
  9
$TDUSRTIMER
 40
0.0
  9
$USRTIMER
 70
1
  9
$ANGBASE
 50
0.0
  9
$ANGDIR
 70
0
  9
$PDMODE
 70
0
  9
$PDSIZE
 40
0.0
  9
$PLINEWID
 40
0.0
  9
$SPLFRAME
 70
0
  9
$SPLINETYPE
 70
6
  9
$SPLINESEGS
 70
8
  9
$HANDSEED
  5
B0
  9
$SURFTAB1
 70
6
  9
$SURFTAB2
 70
6
  9
$SURFTYPE
 70
6
  9
$SURFU
 70
6
  9
$SURFV
 70
6
  9
$UCSBASE
  2

  9
$UCSNAME
  2

  9
$UCSORG
 10
0.0
 20
0.0
 30
0.0
  9
$UCSXDIR
 10
1.0
 20
0.0
 30
0.0
  9
$UCSYDIR
 10
0.0
 20
1.0
 30
0.0
  9
$UCSORTHOREF
  2

  9
$UCSORTHOVIEW
 70
0
  9
$UCSORGTOP
 10
0.0
 20
0.0
 30
0.0
  9
$UCSORGBOTTOM
 10
0.0
 20
0.0
 30
0.0
  9
$UCSORGLEFT
 10
0.0
 20
0.0
 30
0.0
  9
$UCSORGRIGHT
 10
0.0
 20
0.0
 30
0.0
  9
$UCSORGFRONT
 10
0.0
 20
0.0
 30
0.0
  9
$UCSORGBACK
 10
0.0
 20
0.0
 30
0.0
  9
$PUCSBASE
  2

  9
$PUCSNAME
  2

  9
$PUCSORG
 10
0.0
 20
0.0
 30
0.0
  9
$PUCSXDIR
 10
1.0
 20
0.0
 30
0.0
  9
$PUCSYDIR
 10
0.0
 20
1.0
 30
0.0
  9
$PUCSORTHOREF
  2

  9
$PUCSORTHOVIEW
 70
0
  9
$PUCSORGTOP
 10
0.0
 20
0.0
 30
0.0
  9
$PUCSORGBOTTOM
 10
0.0
 20
0.0
 30
0.0
  9
$PUCSORGLEFT
 10
0.0
 20
0.0
 30
0.0
  9
$PUCSORGRIGHT
 10
0.0
 20
0.0
 30
0.0
  9
$PUCSORGFRONT
 10
0.0
 20
0.0
 30
0.0
  9
$PUCSORGBACK
 10
0.0
 20
0.0
 30
0.0
  9
$USERI1
 70
0
  9
$USERI2
 70
0
  9
$USERI3
 70
0
  9
$USERI4
 70
0
  9
$USERI5
 70
0
  9
$USERR1
 40
0.0
  9
$USERR2
 40
0.0
  9
$USERR3
 40
0.0
  9
$USERR4
 40
0.0
  9
$USERR5
 40
0.0
  9
$WORLDVIEW
 70
1
  9
$SHADEDGE
 70
3
  9
$SHADEDIF
 70
70
  9
$TILEMODE
 70
1
  9
$MAXACTVP
 70
64
  9
$PINSBASE
 10
0.0
 20
0.0
 30
0.0
  9
$PLIMCHECK
 70
0
  9
$PEXTMIN
 10
1e+20
 20
1e+20
 30
1e+20
  9
$PEXTMAX
 10
-1e+20
 20
-1e+20
 30
-1e+20
  9
$PLIMMIN
 10
0.0
 20
0.0
  9
$PLIMMAX
 10
420.0
 20
297.0
  9
$UNITMODE
 70
0
  9
$VISRETAIN
 70
1
  9
$PLINEGEN
 70
0
  9
$PSLTSCALE
 70
1
  9
$TREEDEPTH
 70
3020
  9
$CMLSTYLE
  2
Standard
  9
$CMLJUST
 70
0
  9
$CMLSCALE
 40
20.0
  9
$PROXYGRAPHICS
 70
1
  9
$MEASUREMENT
 70
1
  9
$CELWEIGHT
370
-1
  9
$ENDCAPS
280
0
  9
$JOINSTYLE
280
0
  9
$LWDISPLAY
290
0
  9
$INSUNITS
 70
4
  9
$HYPERLINKBASE
  1

  9
$STYLESHEET
  1

  9
$XEDIT
290
1
  9
$CEPSNTYPE
380
0
  9
$PSTYLEMODE
290
1
  9
$FINGERPRINTGUID
  2
{FDBD1560-2F9B-42E3-97E2-F5DBB8BB389E}
  9
$VERSIONGUID
  2
{7D542B49-20EF-43E1-B284-8E7473187587}
  9
$EXTNAMES
290
1
  9
$PSVPSCALE
 40
0.0
  9
$OLESTARTUP
290
0
  9
$SORTENTS
280
127
  9
$INDEXCTL
280
0
  9
$HIDETEXT
280
1
  9
$XCLIPFRAME
280
1
  9
$HALOGAP
280
0
  9
$OBSCOLOR
 70
257
  9
$OBSLTYPE
280
0
  9
$INTERSECTIONDISPLAY
280
0
  9
$INTERSECTIONCOLOR
 70
257
  9
$DIMASSOC
280
2
  9
$PROJECTNAME
  1

  9
$CAMERADISPLAY
290
0
  9
$LENSLENGTH
 40
50.0
  9
$CAMERAHEIGHT
 40
0.0
  9
$STEPSPERSEC
 40
24.0
  9
$STEPSIZE
 40
100.0
  9
$3DDWFPREC
 40
2.0
  9
$PSOLWIDTH
 40
0.005
  9
$PSOLHEIGHT
 40
0.08
  9
$LOFTANG1
 40
1.570796326795
  9
$LOFTANG2
 40
1.570796326795
  9
$LOFTMAG1
 40
0.0
  9
$LOFTMAG2
 40
0.0
  9
$LOFTPARAM
 70
7
  9
$LOFTNORMALS
280
1
  9
$LATITUDE
 40
37.795
  9
$LONGITUDE
 40
-122.394
  9
$NORTHDIRECTION
 40
0.0
  9
$TIMEZONE
 70
-8000
  9
$LIGHTGLYPHDISPLAY
280
1
  9
$TILEMODELIGHTSYNCH
280
1
  9
$CMATERIAL
347
20
  9
$SOLIDHIST
280
0
  9
$SHOWHIST
280
1
  9
$DWFFRAME
280
2
  9
$DGNFRAME
280
2
  9
$REALWORLDSCALE
290
1
  9
$INTERFERECOLOR
 62
256
  9
$CSHADOW
280
0
  9
$SHADOWPLANELOCATION
 40
0.0
  0
ENDSEC
  0
SECTION
  2
CLASSES
  0
CLASS
  1
ACDBDICTIONARYWDFLT
  2
AcDbDictionaryWithDefault
  3
ObjectDBX Classes
 90
0
 91
0
280
0
281
0
  0
CLASS
  1
SUN
  2
AcDbSun
  3
SCENEOE
 90
1153
 91
0
280
0
281
0
  0
CLASS
  1
VISUALSTYLE
  2
AcDbVisualStyle
  3
ObjectDBX Classes
 90
4095
 91
0
280
0
281
0
  0
CLASS
  1
MATERIAL
  2
AcDbMaterial
  3
ObjectDBX Classes
 90
1153
 91
0
280
0
281
0
  0
CLASS
  1
SCALE
  2
AcDbScale
  3
ObjectDBX Classes
 90
1153
 91
0
280
0
281
0
  0
CLASS
  1
TABLESTYLE
  2
AcDbTableStyle
  3
ObjectDBX Classes
 90
4095
 91
0
280
0
281
0
  0
CLASS
  1
MLEADERSTYLE
  2
AcDbMLeaderStyle
  3
ACDB_MLEADERSTYLE_CLASS
 90
4095
 91
0
280
0
281
0
  0
CLASS
  1
DICTIONARYVAR
  2
AcDbDictionaryVar
  3
ObjectDBX Classes
 90
0
 91
0
280
0
281
0
  0
CLASS
  1
CELLSTYLEMAP
  2
AcDbCellStyleMap
  3
ObjectDBX Classes
 90
1152
 91
0
280
0
281
0
  0
CLASS
  1
MENTALRAYRENDERSETTINGS
  2
AcDbMentalRayRenderSettings
  3
SCENEOE
 90
1024
 91
0
280
0
281
0
  0
CLASS
  1
ACDBDETAILVIEWSTYLE
  2
AcDbDetailViewStyle
  3
ObjectDBX Classes
 90
1025
 91
0
280
0
281
0
  0
CLASS
  1
ACDBSECTIONVIEWSTYLE
  2
AcDbSectionViewStyle
  3
ObjectDBX Classes
 90
1025
 91
0
280
0
281
0
  0
CLASS
  1
RASTERVARIABLES
  2
AcDbRasterVariables
  3
ISM
 90
0
 91
0
280
0
281
0
  0
CLASS
  1
ACDBPLACEHOLDER
  2
AcDbPlaceHolder
  3
ObjectDBX Classes
 90
0
 91
0
280
0
281
0
  0
CLASS
  1
LAYOUT
  2
AcDbLayout
  3
ObjectDBX Classes
 90
0
 91
0
280
0
281
0
  0
ENDSEC
  0
SECTION
  2
TABLES
  0
TABLE
  2
VPORT
  5
8
330
0
100
AcDbSymbolTable
 70
1
  0
VPORT
  5
23
330
8
100
AcDbSymbolTableRecord
100
AcDbViewportTableRecord
  2
*Active
 70
0
 10
0.0
 20
0.0
 11
1.0
 21
1.0
 12
0.0
 22
0.0
 13
0.0
 23
0.0
 14
0.5
 24
0.5
 15
0.5
 25
0.5
 16
0.0
 26
0.0
 36
1.0
 17
0.0
 27
0.0
 37
0.0
 40
1000.0
 41
1.34
 42
50.0
 43
0.0
 44
0.0
 50
0.0
 51
0.0
 71
0
 72
1000
 73
1
 74
3
 75
0
 76
0
 77
0
 78
0
281
0
 65
0
146
0.0
  0
ENDTAB
  0
TABLE
  2
LTYPE
  5
2
330
0
100
AcDbSymbolTable
 70
21
  0
LTYPE
  5
24
330
2
100
AcDbSymbolTableRecord
100
AcDbLinetypeTableRecord
  2
ByBlock
 70
0
  3

 72
65
 73
0
 40
0.0
  0
LTYPE
  5
25
330
2
100
AcDbSymbolTableRecord
100
AcDbLinetypeTableRecord
  2
ByLayer
 70
0
  3

 72
65
 73
0
 40
0.0
  0
LTYPE
  5
26
330
2
100
AcDbSymbolTableRecord
100
AcDbLinetypeTableRecord
  2
Continuous
 70
0
  3

 72
65
 73
0
 40
0.0
  0
LTYPE
  5
2F
330
2
100
AcDbSymbolTableRecord
100
AcDbLinetypeTableRecord
  2
CENTER
 70
0
  3
Center ____ _ ____ _ ____ _ ____ _ ____ _ ____
 72
65
 73
4
 40
5.08
 49
3.175
 74
0
 49
-0.635
 74
0
 49
0.635
 74
0
 49
-0.635
 74
0
  0
LTYPE
  5
30
330
2
100
AcDbSymbolTableRecord
100
AcDbLinetypeTableRecord
  2
CENTERX2
 70
0
  3
Center (2x) ________  __  ________  __  ________
 72
65
 73
4
 40
8.89
 49
6.35
 74
0
 49
-0.635
 74
0
 49
1.27
 74
0
 49
-0.635
 74
0
  0
LTYPE
  5
31
330
2
100
AcDbSymbolTableRecord
100
AcDbLinetypeTableRecord
  2
CENTER2
 70
0
  3
Center (.5x) ____ _ ____ _ ____ _ ____ _ ____
 72
65
 73
4
 40
2.54
 49
1.587
 74
0
 49
-0.318
 74
0
 49
0.318
 74
0
 49
-0.318
 74
0
  0
LTYPE
  5
32
330
2
100
AcDbSymbolTableRecord
100
AcDbLinetypeTableRecord
  2
DASHED
 70
0
  3
Dashed __ __ __ __ __ __ __ __ __ __ __ __ __ _
 72
65
 73
2
 40
1.524
 49
1.27
 74
0
 49
-0.254
 74
0
  0
LTYPE
  5
33
330
2
100
AcDbSymbolTableRecord
100
AcDbLinetypeTableRecord
  2
DASHEDX2
 70
0
  3
Dashed (2x) ____  ____  ____  ____  ____  ____
 72
65
 73
2
 40
3.048
 49
2.54
 74
0
 49
-0.508
 74
0
  0
LTYPE
  5
34
330
2
100
AcDbSymbolTableRecord
100
AcDbLinetypeTableRecord
  2
DASHED2
 70
0
  3
Dashed (.5x) _ _ _ _ _ _ _ _ _ _ _ _ _ _
 72
65
 73
2
 40
0.762
 49
0.635
 74
0
 49
-0.127
 74
0
  0
LTYPE
  5
35
330
2
100
AcDbSymbolTableRecord
100
AcDbLinetypeTableRecord
  2
PHANTOM
 70
0
  3
Phantom ______  __  __  ______  __  __  ______
 72
65
 73
6
 40
6.35
 49
3.175
 74
0
 49
-0.635
 74
0
 49
0.635
 74
0
 49
-0.635
 74
0
 49
0.635
 74
0
 49
-0.635
 74
0
  0
LTYPE
  5
36
330
2
100
AcDbSymbolTableRecord
100
AcDbLinetypeTableRecord
  2
PHANTOMX2
 70
0
  3
Phantom (2x)____________    ____    ____    ____________
 72
65
 73
6
 40
10.795
 49
6.35
 74
0
 49
-0.635
 74
0
 49
1.27
 74
0
 49
-0.635
 74
0
 49
1.27
 74
0
 49
-0.635
 74
0
  0
LTYPE
  5
37
330
2
100
AcDbSymbolTableRecord
100
AcDbLinetypeTableRecord
  2
PHANTOM2
 70
0
  3
Phantom (.5x) ___ _ _ ___ _ _ ___ _ _ ___ _ _ ___
 72
65
 73
6
 40
3.175
 49
1.587
 74
0
 49
-0.318
 74
0
 49
0.318
 74
0
 49
-0.318
 74
0
 49
0.318
 74
0
 49
-0.318
 74
0
  0
LTYPE
  5
38
330
2
100
AcDbSymbolTableRecord
100
AcDbLinetypeTableRecord
  2
DASHDOT
 70
0
  3
Dash dot __ . __ . __ . __ . __ . __ . __ . __
 72
65
 73
4
 40
3.556
 49
2.54
 74
0
 49
-0.508
 74
0
 49
0.0
 74
0
 49
-0.508
 74
0
  0
LTYPE
  5
39
330
2
100
AcDbSymbolTableRecord
100
AcDbLinetypeTableRecord
  2
DASHDOTX2
 70
0
  3
Dash dot (2x) ____  .  ____  .  ____  .  ____
 72
65
 73
4
 40
6.096
 49
5.08
 74
0
 49
-0.508
 74
0
 49
0.0
 74
0
 49
-0.508
 74
0
  0
LTYPE
  5
3A
330
2
100
AcDbSymbolTableRecord
100
AcDbLinetypeTableRecord
  2
DASHDOT2
 70
0
  3
Dash dot (.5x) _ . _ . _ . _ . _ . _ . _ . _
 72
65
 73
4
 40
1.778
 49
1.27
 74
0
 49
-0.254
 74
0
 49
0.0
 74
0
 49
-0.254
 74
0
  0
LTYPE
  5
3B
330
2
100
AcDbSymbolTableRecord
100
AcDbLinetypeTableRecord
  2
DOT
 70
0
  3
Dot .  .  .  .  .  .  .  .  .  .  .  .  .  .  .  .
 72
65
 73
2
 40
0.508
 49
0.0
 74
0
 49
-0.508
 74
0
  0
LTYPE
  5
3C
330
2
100
AcDbSymbolTableRecord
100
AcDbLinetypeTableRecord
  2
DOTX2
 70
0
  3
Dot (2x) .    .    .    .    .    .    .    . 
 72
65
 73
2
 40
1.016
 49
0.0
 74
0
 49
-1.016
 74
0
  0
LTYPE
  5
3D
330
2
100
AcDbSymbolTableRecord
100
AcDbLinetypeTableRecord
  2
DOT2
 70
0
  3
Dot (.5) . . . . . . . . . . . . . . . . . . . 
 72
65
 73
2
 40
0.254
 49
0.0
 74
0
 49
-0.254
 74
0
  0
LTYPE
  5
3E
330
2
100
AcDbSymbolTableRecord
100
AcDbLinetypeTableRecord
  2
DIVIDE
 70
0
  3
Divide __ . . __ . . __ . . __ . . __ . . __
 72
65
 73
6
 40
4.064
 49
2.54
 74
0
 49
-0.508
 74
0
 49
0.0
 74
0
 49
-0.508
 74
0
 49
0.0
 74
0
 49
-0.508
 74
0
  0
LTYPE
  5
3F
330
2
100
AcDbSymbolTableRecord
100
AcDbLinetypeTableRecord
  2
DIVIDEX2
 70
0
  3
Divide (2x) ____  . .  ____  . .  ____  . .  ____
 72
65
 73
6
 40
6.604
 49
5.08
 74
0
 49
-0.508
 74
0
 49
0.0
 74
0
 49
-0.508
 74
0
 49
0.0
 74
0
 49
-0.508
 74
0
  0
LTYPE
  5
40
330
2
100
AcDbSymbolTableRecord
100
AcDbLinetypeTableRecord
  2
DIVIDE2
 70
0
  3
Divide(.5x) _ . _ . _ . _ . _ . _ . _ . _
 72
65
 73
6
 40
2.032
 49
1.27
 74
0
 49
-0.254
 74
0
 49
0.0
 74
0
 49
-0.254
 74
0
 49
0.0
 74
0
 49
-0.254
 74
0
  0
ENDTAB
  0
TABLE
  2
LAYER
  5
1
330
0
100
AcDbSymbolTable
 70
4
  0
LAYER
  5
27
330
1
100
AcDbSymbolTableRecord
100
AcDbLayerTableRecord
  2
0
 70
0
 62
7
  6
Continuous
370
-3
390
13
347
21
  0
LAYER
  5
28
330
1
100
AcDbSymbolTableRecord
100
AcDbLayerTableRecord
  2
Defpoints
 70
0
 62
7
  6
Continuous
290
0
370
-3
390
13
347
21
  0
LAYER
  5
8A
330
1
100
AcDbSymbolTableRecord
100
AcDbLayerTableRecord
  2
OUTLINE
 70
0
 62
1
  6
Continuous
370
-3
390
13
347
21
  0
LAYER
  5
8C
330
1
100
AcDbSymbolTableRecord
100
AcDbLayerTableRecord
  2
CUTOUTS
 70
0
 62
2
  6
Continuous
370
-3
390
13
347
21
  0
ENDTAB
  0
TABLE
  2
STYLE
  5
5
330
0
100
AcDbSymbolTable
 70
26
  0
STYLE
  5
29
330
5
100
AcDbSymbolTableRecord
100
AcDbTextStyleTableRecord
  2
Standard
 70
0
 40
0.0
 41
1.0
 50
0.0
 71
0
 42
2.5
  3
txt
  4

  0
STYLE
  5
41
330
5
100
AcDbSymbolTableRecord
100
AcDbTextStyleTableRecord
  2
OpenSans-Light
 70
0
 40
0.0
 41
1.0
 50
0.0
 71
0
 42
2.5
  3
OpenSans-Light.ttf
  4

  0
STYLE
  5
42
330
5
100
AcDbSymbolTableRecord
100
AcDbTextStyleTableRecord
  2
OpenSans-Light-Italic
 70
0
 40
0.0
 41
1.0
 50
0.0
 71
0
 42
2.5
  3
OpenSans-LightItalic.ttf
  4

  0
STYLE
  5
43
330
5
100
AcDbSymbolTableRecord
100
AcDbTextStyleTableRecord
  2
OpenSans
 70
0
 40
0.0
 41
1.0
 50
0.0
 71
0
 42
2.5
  3
OpenSans-Regular.ttf
  4

  0
STYLE
  5
44
330
5
100
AcDbSymbolTableRecord
100
AcDbTextStyleTableRecord
  2
OpenSans-Italic
 70
0
 40
0.0
 41
1.0
 50
0.0
 71
0
 42
2.5
  3
OpenSans-Italic.ttf
  4

  0
STYLE
  5
45
330
5
100
AcDbSymbolTableRecord
100
AcDbTextStyleTableRecord
  2
OpenSans-SemiBold
 70
0
 40
0.0
 41
1.0
 50
0.0
 71
0
 42
2.5
  3
OpenSans-SemiBold.ttf
  4

  0
STYLE
  5
46
330
5
100
AcDbSymbolTableRecord
100
AcDbTextStyleTableRecord
  2
OpenSans-SemiBoldItalic
 70
0
 40
0.0
 41
1.0
 50
0.0
 71
0
 42
2.5
  3
OpenSans-SemiBoldItalic.ttf
  4

  0
STYLE
  5
47
330
5
100
AcDbSymbolTableRecord
100
AcDbTextStyleTableRecord
  2
OpenSans-Bold
 70
0
 40
0.0
 41
1.0
 50
0.0
 71
0
 42
2.5
  3
OpenSans-Bold.ttf
  4

  0
STYLE
  5
48
330
5
100
AcDbSymbolTableRecord
100
AcDbTextStyleTableRecord
  2
OpenSans-BoldItalic
 70
0
 40
0.0
 41
1.0
 50
0.0
 71
0
 42
2.5
  3
OpenSans-BoldItalic.ttf
  4

  0
STYLE
  5
49
330
5
100
AcDbSymbolTableRecord
100
AcDbTextStyleTableRecord
  2
OpenSans-ExtraBold
 70
0
 40
0.0
 41
1.0
 50
0.0
 71
0
 42
2.5
  3
OpenSans-ExtraBold.ttf
  4

  0
STYLE
  5
4A
330
5
100
AcDbSymbolTableRecord
100
AcDbTextStyleTableRecord
  2
OpenSans-ExtraBoldItalic
 70
0
 40
0.0
 41
1.0
 50
0.0
 71
0
 42
2.5
  3
OpenSans-ExtraBoldItalic.ttf
  4

  0
STYLE
  5
4B
330
5
100
AcDbSymbolTableRecord
100
AcDbTextStyleTableRecord
  2
OpenSansCondensed-Bold
 70
0
 40
0.0
 41
1.0
 50
0.0
 71
0
 42
2.5
  3
OpenSansCondensed-Bold.ttf
  4

  0
STYLE
  5
4C
330
5
100
AcDbSymbolTableRecord
100
AcDbTextStyleTableRecord
  2
OpenSansCondensed-Light
 70
0
 40
0.0
 41
1.0
 50
0.0
 71
0
 42
2.5
  3
OpenSansCondensed-Light.ttf
  4

  0
STYLE
  5
4D
330
5
100
AcDbSymbolTableRecord
100
AcDbTextStyleTableRecord
  2
OpenSansCondensed-Italic
 70
0
 40
0.0
 41
1.0
 50
0.0
 71
0
 42
2.5
  3
OpenSansCondensed-LightItalic.ttf
  4

  0
STYLE
  5
4E
330
5
100
AcDbSymbolTableRecord
100
AcDbTextStyleTableRecord
  2
LiberationSans
 70
0
 40
0.0
 41
1.0
 50
0.0
 71
0
 42
2.5
  3
LiberationSans-Regular.ttf
  4

  0
STYLE
  5
4F
330
5
100
AcDbSymbolTableRecord
100
AcDbTextStyleTableRecord
  2
LiberationSans-Bold
 70
0
 40
0.0
 41
1.0
 50
0.0
 71
0
 42
2.5
  3
LiberationSans-Bold.ttf
  4

  0
STYLE
  5
50
330
5
100
AcDbSymbolTableRecord
100
AcDbTextStyleTableRecord
  2
LiberationSans-BoldItalic
 70
0
 40
0.0
 41
1.0
 50
0.0
 71
0
 42
2.5
  3
LiberationSans-BoldItalic.ttf
  4

  0
STYLE
  5
51
330
5
100
AcDbSymbolTableRecord
100
AcDbTextStyleTableRecord
  2
LiberationSans-Italic
 70
0
 40
0.0
 41
1.0
 50
0.0
 71
0
 42
2.5
  3
LiberationSans-Italic.ttf
  4

  0
STYLE
  5
52
330
5
100
AcDbSymbolTableRecord
100
AcDbTextStyleTableRecord
  2
LiberationSerif
 70
0
 40
0.0
 41
1.0
 50
0.0
 71
0
 42
2.5
  3
LiberationSerif-Regular.ttf
  4

  0
STYLE
  5
53
330
5
100
AcDbSymbolTableRecord
100
AcDbTextStyleTableRecord
  2
LiberationSerif-Bold
 70
0
 40
0.0
 41
1.0
 50
0.0
 71
0
 42
2.5
  3
LiberationSerif-Bold.ttf
  4

  0
STYLE
  5
54
330
5
100
AcDbSymbolTableRecord
100
AcDbTextStyleTableRecord
  2
LiberationSerif-BoldItalic
 70
0
 40
0.0
 41
1.0
 50
0.0
 71
0
 42
2.5
  3
LiberationSerif-BoldItalic.ttf
  4

  0
STYLE
  5
55
330
5
100
AcDbSymbolTableRecord
100
AcDbTextStyleTableRecord
  2
LiberationSerif-Italic
 70
0
 40
0.0
 41
1.0
 50
0.0
 71
0
 42
2.5
  3
LiberationSerif-Italic.ttf
  4

  0
STYLE
  5
56
330
5
100
AcDbSymbolTableRecord
100
AcDbTextStyleTableRecord
  2
LiberationMono
 70
0
 40
0.0
 41
1.0
 50
0.0
 71
0
 42
2.5
  3
LiberationMono-Regular.ttf
  4

  0
STYLE
  5
57
330
5
100
AcDbSymbolTableRecord
100
AcDbTextStyleTableRecord
  2
LiberationMono-Bold
 70
0
 40
0.0
 41
1.0
 50
0.0
 71
0
 42
2.5
  3
LiberationMono-Bold.ttf
  4

  0
STYLE
  5
58
330
5
100
AcDbSymbolTableRecord
100
AcDbTextStyleTableRecord
  2
LiberationMono-BoldItalic
 70
0
 40
0.0
 41
1.0
 50
0.0
 71
0
 42
2.5
  3
LiberationMono-BoldItalic.ttf
  4

  0
STYLE
  5
59
330
5
100
AcDbSymbolTableRecord
100
AcDbTextStyleTableRecord
  2
LiberationMono-Italic
 70
0
 40
0.0
 41
1.0
 50
0.0
 71
0
 42
2.5
  3
LiberationMono-Italic.ttf
  4

  0
ENDTAB
  0
TABLE
  2
VIEW
  5
7
330
0
100
AcDbSymbolTable
 70
0
  0
ENDTAB
  0
TABLE
  2
UCS
  5
6
330
0
100
AcDbSymbolTable
 70
0
  0
ENDTAB
  0
TABLE
  2
APPID
  5
3
330
0
100
AcDbSymbolTable
 70
3
  0
APPID
  5
2A
330
3
100
AcDbSymbolTableRecord
100
AcDbRegAppTableRecord
  2
ACAD
 70
0
  0
APPID
  5
AD
330
3
100
AcDbSymbolTableRecord
100
AcDbRegAppTableRecord
  2
HATCHBACKGROUNDCOLOR
 70
0
  0
APPID
  5
AE
330
3
100
AcDbSymbolTableRecord
100
AcDbRegAppTableRecord
  2
EZDXF
 70
0
  0
ENDTAB
  0
TABLE
  2
DIMSTYLE
  5
4
330
0
100
AcDbSymbolTable
 70
12
100
AcDbDimStyleTable
  0
DIMSTYLE
105
2B
330
4
100
AcDbSymbolTableRecord
100
AcDbDimStyleTableRecord
  2
Standard
 70
0
 40
1.0
 41
2.5
 42
0.625
 43
3.75
 44
1.25
 45
0.0
 46
0.0
 47
0.0
 48
0.0
 49
2.5
140
2.5
141
2.5
142
0.0
143
0.03937007874
144
1.0
145
0.0
146
1.0
147
0.625
148
0.0
 69
0
 70
0
 71
0
 72
0
 73
0
 74
0
 75
0
 76
0
 77
1
 78
8
 79
3
170
0
171
3
172
1
173
0
174
0
175
0
176
0
177
0
178
0
179
2
271
2
272
2
273
2
274
3
275
0
276
0
277
2
278
44
279
0
280
0
281
0
282
0
283
0
284
8
285
0
286
0
288
0
289
3
290
0
371
-2
372
-2
  0
DIMSTYLE
105
73
330
4
100
AcDbSymbolTableRecord
100
AcDbDimStyleTableRecord
  2
EZDXF
 70
0
 40
1.0
 41
0.175
 42
0.125
 43
3.75
 44
0.375
 45
0.0
 46
0.0
 47
0.0
 48
0.0
 49
2.5
140
0.25
141
2.5
142
0.0
143
0.03937007874
144
100.0
145
0.0
146
0.5
147
0.1
148
0.0
 69
0
 70
0
 71
0
 72
0
 73
0
 74
0
 75
0
 76
0
 77
1
 78
12
 79
3
170
0
171
3
172
1
173
0
174
0
175
0
176
0
177
0
178
0
179
2
271
2
272
2
273
2
274
3
275
0
276
0
277
2
278
46
279
2
280
0
281
0
282
0
283
0
284
8
285
0
286
0
288
1
289
3
290
0
340
4C
342
74
371
-2
372
-2
  0
DIMSTYLE
105
7C
330
4
100
AcDbSymbolTableRecord
100
AcDbDimStyleTableRecord
  2
EZ_M_100_H25_CM
 70
0
 40
1.0
 41
0.25
 42
0.125
 43
3.75
 44
0.375
 45
0.0
 46
0.0
 47
0.0
 48
0.0
 49
2.5
140
0.25
141
2.5
142
0.125
143
0.03937007874
144
100.0
145
0.0
146
0.5
147
0.1
148
0.0
 69
0
 70
0
 71
0
 72
0
 73
0
 74
0
 75
0
 76
0
 77
1
 78
12
 79
3
170
0
171
3
172
1
173
0
174
0
175
0
176
0
177
0
178
0
179
2
271
2
272
2
273
2
274
3
275
0
276
0
277
2
278
46
279
2
280
0
281
0
282
0
283
0
284
8
285
0
286
0
288
1
289
3
290
0
340
4C
371
-2
372
-2
  0
DIMSTYLE
105
7D
330
4
100
AcDbSymbolTableRecord
100
AcDbDimStyleTableRecord
  2
EZ_M_50_H25_CM
 70
0
 40
1.0
 41
0.125
 42
0.0625
 43
3.75
 44
0.1875
 45
0.0
 46
0.0
 47
0.0
 48
0.0
 49
2.5
140
0.125
141
2.5
142
0.0625
143
0.03937007874
144
100.0
145
0.0
146
0.5
147
0.05
148
0.0
 69
0
 70
0
 71
0
 72
0
 73
0
 74
0
 75
0
 76
0
 77
1
 78
12
 79
3
170
0
171
3
172
1
173
0
174
0
175
0
176
0
177
0
178
0
179
2
271
2
272
2
273
2
274
3
275
0
276
0
277
2
278
46
279
2
280
0
281
0
282
0
283
0
284
8
285
0
286
0
288
1
289
3
290
0
340
4C
371
-2
372
-2
  0
DIMSTYLE
105
7E
330
4
100
AcDbSymbolTableRecord
100
AcDbDimStyleTableRecord
  2
EZ_M_25_H25_CM
 70
0
 40
1.0
 41
0.0625
 42
0.03125
 43
3.75
 44
0.09375
 45
0.0
 46
0.0
 47
0.0
 48
0.0
 49
2.5
140
0.0625
141
2.5
142
0.03125
143
0.03937007874
144
100.0
145
0.0
146
0.5
147
0.025
148
0.0
 69
0
 70
0
 71
0
 72
0
 73
0
 74
0
 75
0
 76
0
 77
1
 78
12
 79
3
170
0
171
3
172
1
173
0
174
0
175
0
176
0
177
0
178
0
179
2
271
2
272
2
273
2
274
3
275
0
276
0
277
2
278
46
279
2
280
0
281
0
282
0
283
0
284
8
285
0
286
0
288
1
289
3
290
0
340
4C
371
-2
372
-2
  0
DIMSTYLE
105
7F
330
4
100
AcDbSymbolTableRecord
100
AcDbDimStyleTableRecord
  2
EZ_M_20_H25_CM
 70
0
 40
1.0
 41
0.05
 42
0.025
 43
3.75
 44
0.07500000000000001
 45
0.0
 46
0.0
 47
0.0
 48
0.0
 49
2.5
140
0.05
141
2.5
142
0.025
143
0.03937007874
144
100.0
145
0.0
146
0.5
147
0.020000000000000004
148
0.0
 69
0
 70
0
 71
0
 72
0
 73
0
 74
0
 75
0
 76
0
 77
1
 78
12
 79
3
170
0
171
3
172
1
173
0
174
0
175
0
176
0
177
0
178
0
179
2
271
2
272
2
273
2
274
3
275
0
276
0
277
2
278
46
279
2
280
0
281
0
282
0
283
0
284
8
285
0
286
0
288
1
289
3
290
0
340
4C
371
-2
372
-2
  0
DIMSTYLE
105
80
330
4
100
AcDbSymbolTableRecord
100
AcDbDimStyleTableRecord
  2
EZ_M_10_H25_CM
 70
0
 40
1.0
 41
0.025
 42
0.0125
 43
3.75
 44
0.037500000000000006
 45
0.0
 46
0.0
 47
0.0
 48
0.0
 49
2.5
140
0.025
141
2.5
142
0.0125
143
0.03937007874
144
100.0
145
0.0
146
0.5
147
0.010000000000000002
148
0.0
 69
0
 70
0
 71
0
 72
0
 73
0
 74
0
 75
0
 76
0
 77
1
 78
12
 79
3
170
0
171
3
172
1
173
0
174
0
175
0
176
0
177
0
178
0
179
2
271
2
272
2
273
2
274
3
275
0
276
0
277
2
278
46
279
2
280
0
281
0
282
0
283
0
284
8
285
0
286
0
288
1
289
3
290
0
340
4C
371
-2
372
-2
  0
DIMSTYLE
105
81
330
4
100
AcDbSymbolTableRecord
100
AcDbDimStyleTableRecord
  2
EZ_M_5_H25_CM
 70
0
 40
1.0
 41
0.0125
 42
0.00625
 43
3.75
 44
0.018750000000000003
 45
0.0
 46
0.0
 47
0.0
 48
0.0
 49
2.5
140
0.0125
141
2.5
142
0.00625
143
0.03937007874
144
100.0
145
0.0
146
0.5
147
0.005000000000000001
148
0.0
 69
0
 70
0
 71
0
 72
0
 73
0
 74
0
 75
0
 76
0
 77
1
 78
12
 79
3
170
0
171
3
172
1
173
0
174
0
175
0
176
0
177
0
178
0
179
2
271
2
272
2
273
2
274
3
275
0
276
0
277
2
278
46
279
2
280
0
281
0
282
0
283
0
284
8
285
0
286
0
288
1
289
3
290
0
340
4C
371
-2
372
-2
  0
DIMSTYLE
105
82
330
4
100
AcDbSymbolTableRecord
100
AcDbDimStyleTableRecord
  2
EZ_M_1_H25_CM
 70
0
 40
1.0
 41
0.0025
 42
0.00125
 43
3.75
 44
0.00375
 45
0.0
 46
0.0
 47
0.0
 48
0.0
 49
2.5
140
0.0025
141
2.5
142
0.00125
143
0.03937007874
144
100.0
145
0.0
146
0.5
147
0.001
148
0.0
 69
0
 70
0
 71
0
 72
0
 73
0
 74
0
 75
0
 76
0
 77
1
 78
12
 79
3
170
0
171
3
172
1
173
0
174
0
175
0
176
0
177
0
178
0
179
2
271
2
272
2
273
2
274
3
275
0
276
0
277
2
278
46
279
2
280
0
281
0
282
0
283
0
284
8
285
0
286
0
288
1
289
3
290
0
340
4C
371
-2
372
-2
  0
DIMSTYLE
105
83
330
4
100
AcDbSymbolTableRecord
100
AcDbDimStyleTableRecord
  2
EZ_RADIUS
 70
0
 40
1.0
 41
0.25
 42
0.125
 43
3.75
 44
0.375
 45
0.0
 46
0.0
 47
0.0
 48
0.0
 49
2.5
140
0.25
141
0.0
142
0.0
143
0.03937007874
144
100.0
145
0.0
146
0.5
147
0.1
148
0.0
 69
0
 70
0
 71
0
 72
0
 73
0
 74
0
 75
0
 76
0
 77
1
 78
12
 79
3
170
0
171
3
172
0
173
0
174
0
175
0
176
0
177
0
178
0
179
2
271
2
272
2
273
2
274
3
275
0
276
0
277
2
278
46
279
1
280
0
281
0
282
0
283
0
284
8
285
0
286
0
288
1
289
3
290
0
340
4C
342
84
371
-2
372
-2
  0
DIMSTYLE
105
88
330
4
100
AcDbSymbolTableRecord
100
AcDbDimStyleTableRecord
  2
EZ_RADIUS_INSIDE
 70
0
 40
1.0
 41
0.25
 42
0.125
 43
3.75
 44
0.375
 45
0.0
 46
0.0
 47
0.0
 48
0.0
 49
2.5
140
0.25
141
0.0
142
0.0
143
0.03937007874
144
100.0
145
0.0
146
0.5
147
0.1
148
0.0
 69
0
 70
0
 71
0
 72
0
 73
0
 74
0
 75
0
 76
0
 77
0
 78
12
 79
3
170
0
171
3
172
0
173
0
174
1
175
0
176
0
177
0
178
0
179
2
271
2
272
2
273
2
274
3
275
0
276
0
277
2
278
46
279
0
280
0
281
0
282
0
283
0
284
8
285
0
286
0
288
1
289
0
290
0
340
4C
342
84
371
-2
372
-2
  0
DIMSTYLE
105
89
330
4
100
AcDbSymbolTableRecord
100
AcDbDimStyleTableRecord
  2
EZ_CURVED
 70
0
 40
1.0
 41
0.25
 42
0.125
 43
3.75
 44
0.375
 45
0.0
 46
0.0
 47
0.0
 48
0.0
 49
2.5
140
0.25
141
2.5
142
0.0
143
0.03937007874
144
100.0
145
0.0
146
0.5
147
0.1
148
0.0
 69
0
 70
0
 71
0
 72
0
 73
0
 74
0
 75
0
 76
0
 77
1
 78
12
 79
2
 90
2
170
0
171
3
172
1
173
0
174
0
175
0
176
0
177
0
178
0
179
2
271
2
272
2
273
2
274
3
275
0
276
0
277
2
278
46
279
2
280
0
281
0
282
0
283
0
284
8
285
0
286
0
288
1
289
3
290
0
340
4C
371
-2
372
-2
  0
ENDTAB
  0
TABLE
  2
BLOCK_RECORD
  5
9
330
0
100
AcDbSymbolTable
 70
5
  0
BLOCK_RECORD
  5
17
330
9
100
AcDbSymbolTableRecord
100
AcDbBlockTableRecord
  2
*Model_Space
340
1A
 70
0
280
1
281
0
  0
BLOCK_RECORD
  5
1B
330
9
100
AcDbSymbolTableRecord
100
AcDbBlockTableRecord
  2
*Paper_Space
340
1E
 70
0
280
1
281
0
  0
BLOCK_RECORD
  5
74
330
9
100
AcDbSymbolTableRecord
100
AcDbBlockTableRecord
  2
_ARCHTICK
340
0
 70
0
280
1
281
0
  0
BLOCK_RECORD
  5
78
330
9
100
AcDbSymbolTableRecord
100
AcDbBlockTableRecord
  2
_CLOSEDFILLED
340
0
 70
0
280
1
281
0
  0
BLOCK_RECORD
  5
84
330
9
100
AcDbSymbolTableRecord
100
AcDbBlockTableRecord
  2
_CLOSEDBLANK
340
0
 70
0
280
1
281
0
  0
ENDTAB
  0
ENDSEC
  0
SECTION
  2
BLOCKS
  0
BLOCK
  5
18
330
17
100
AcDbEntity
  8
0
100
AcDbBlockBegin
  2
*Model_Space
 70
0
 10
0.0
 20
0.0
 30
0.0
  3
*Model_Space
  1

  0
ENDBLK
  5
19
330
17
100
AcDbEntity
  8
0
100
AcDbBlockEnd
  0
BLOCK
  5
1C
330
1B
100
AcDbEntity
  8
0
100
AcDbBlockBegin
  2
*Paper_Space
 70
0
 10
0.0
 20
0.0
 30
0.0
  3
*Paper_Space
  1

  0
ENDBLK
  5
1D
330
1B
100
AcDbEntity
  8
0
100
AcDbBlockEnd
  0
BLOCK
  5
75
330
74
100
AcDbEntity
  8
0
100
AcDbBlockBegin
  2
_ARCHTICK
 70
0
 10
0.0
 20
0.0
 30
0.0
  3
_ARCHTICK
  1

  0
LWPOLYLINE
  5
77
330
74
100
AcDbEntity
  8
0
  6
BYBLOCK
 62
0
100
AcDbPolyline
 90
2
 70
0
 43
0.15
 10
-0.5
 20
-0.5
 10
0.5
 20
0.5
  0
ENDBLK
  5
76
330
74
100
AcDbEntity
  8
0
100
AcDbBlockEnd
  0
BLOCK
  5
79
330
78
100
AcDbEntity
  8
0
100
AcDbBlockBegin
  2
_CLOSEDFILLED
 70
0
 10
0.0
 20
0.0
 30
0.0
  3
_CLOSEDFILLED
  1

  0
SOLID
  5
7B
330
78
100
AcDbEntity
  8
0
  6
BYBLOCK
 62
0
100
AcDbTrace
 10
-1.0
 20
0.16439898372402537
 30
0.0
 11
0.0
 21
0.0
 31
0.0
 12
-1.0
 22
-0.16439898372402537
 32
0.0
 13
-1.0
 23
-0.16439898372402537
 33
0.0
  0
ENDBLK
  5
7A
330
78
100
AcDbEntity
  8
0
100
AcDbBlockEnd
  0
BLOCK
  5
85
330
84
100
AcDbEntity
  8
0
100
AcDbBlockBegin
  2
_CLOSEDBLANK
 70
0
 10
0.0
 20
0.0
 30
0.0
  3
_CLOSEDBLANK
  1

  0
LWPOLYLINE
  5
87
330
84
100
AcDbEntity
  8
0
  6
BYBLOCK
 62
0
100
AcDbPolyline
 90
3
 70
1
 10
-1.0
 20
0.16439898372402537
 10
0.0
 20
0.0
 10
-1.0
 20
-0.16439898372402537
  0
ENDBLK
  5
86
330
84
100
AcDbEntity
  8
0
100
AcDbBlockEnd
  0
ENDSEC
  0
SECTION
  2
ENTITIES
  0
LWPOLYLINE
  5
8B
330
17
100
AcDbEntity
  8
OUTLINE
100
AcDbPolyline
 90
1082
 70
1
 10
12.345891464718107
 20
-43.33389709449712
 10
12.331280300453361
 20
-43.33533616857024
 10
12.29734271165644
 20
-43.3403703343191
 10
12.2829429580664
 20
-43.343234623395375
 10
12.249662222566226
 20
-43.35157101366375
 10
12.235612557150032
 20
-43.35583293307354
 10
12.203309186622564
 20
-43.36739126386601
 10
12.189744915338538
 20
-43.373009768995566
 10
12.15873000890076
 20
-43.387678727268195
 10
12.145781763095993
 20
-43.394599708841874
 10
12.11635401125158
 20
-43.41223802450752
 10
12.104146489611617
 20
-43.420394829689286
 10
12.076589297697515
 20
-43.44083263612611
 10
12.065240065329128
 20
-43.45014671042303
 10
12.03981882416774
 20
-43.47318718038261
 10
12.029437180382622
 20
-43.483568824167726
 10
12.006396710423072
 20
-43.50899006532909
 10
11.99708263612603
 20
-43.52033929769762
 10
11.976644829689269
 20
-43.547896489611645
 10
11.968488024507554
 20
-43.56010401125154
 10
11.950849708841828
 20
-43.58953176309607
 10
11.94392872726819
 20
-43.60248000890076
 10
11.929259768995621
 20
-43.6334949153384
 10
11.923641263865967
 20
-43.64705918662268
 10
11.912082933073533
 20
-43.679362557150036
 10
11.907821013663725
 20
-43.69341222256627
 10
11.899484623395361
 20
-43.72669295806642
 10
11.89662033431911
 20
-43.741092711656336
 10
11.891586168570234
 20
-43.77503030045335
 10
11.890147094497111
 20
-43.789641464718166
 10
11.887680563645983
 20
-43.83984885360429
 10
11.887499999999994
 20
-43.84720420109338
 10
11.887499999999994
 20
-99.96529579890662
 10
11.887680563645985
 20
-99.97265114639573
 10
11.890147094497111
 20
-100.02285853528187
 10
11.89158616857023
 20
-100.03746969954663
 10
11.896620334319104
 20
-100.07140728834364
 10
11.899484623395368
 20
-100.0858070419336
 10
11.907821013663717
 20
-100.1190877774337
 10
11.91208293307353
 20
-100.13313744284996
 10
11.923641263865964
 20
-100.16544081337732
 10
11.929259768995669
 20
-100.17900508466171
 10
11.94392872726815
 20
-100.21001999109916
 10
11.950849708841895
 20
-100.22296823690407
 10
11.968488024507497
 20
-100.25239598874839
 10
11.976644829689242
 20
-100.26460351038833
 10
11.997082636126123
 20
-100.29216070230252
 10
12.0063967104231
 20
-100.30350993467097
 10
12.02943718038266
 20
-100.32893117583234
 10
12.0398188241677
 20
-100.33931281961738
 10
12.065240065328945
 20
-100.36235328957682
 10
12.07658929769755
 20
-100.37166736387393
 10
12.1041464896118
 20
-100.39210517031084
 10
12.116354011251447
 20
-100.4002619754924
 10
12.145781763095803
 20
-100.41790029115802
 10
12.15873000890091
 20
-100.42482127273188
 10
12.189744915338514
 20
-100.43949023100444
 10
12.203309186622565
 20
-100.445108736134
 10
12.235612557150095
 20
-100.45666706692649
 10
12.24966222256614
 20
-100.46092898633624
 10
12.282942958066451
 20
-100.46926537660464
 10
12.297342711656375
 20
-100.4721296656809
 10
12.331280300453262
 20
-100.47716383142975
 10
12.345891464718095
 20
-100.47860290550288
 10
12.39609885360436
 20
-100.481069436354
 10
12.403454201093664
 20
-100.48125
 10
49.59380487105932
 20
-100.48125
 10
49.60118479361371
 20
-100.48106822623943
 10
49.65155956674177
 20
-100.47858517292885
 10
49.666218879846234
 20
-100.4771364910422
 10
49.70026725661226
 20
-100.47206873272523
 10
49.71471303846529
 20
-100.4691854140572
 10
49.748097979194426
 20
-100.46079375943548
 10
49.76219017660303
 20
-100.45650375802762
 10
49.794588011201725
 20
-100.44486956497019
 10
49.80818999900679
 20
-100.4392144727835
 10
49.83928662746688
 20
-100.42445053587
 10
49.852266533136074
 20
-100.41748517954733
 10
49.881760470764036
 20
-100.39973463651376
 10
49.89399245290979
 20
-100.3915265458297
 10
49.921597753247205
 20
-100.37096148983568
 10
49.93296322166915
 20
-100.36159024299
 10
49.95841224877214
 20
-100.33841005415842
 10
49.96880101420113
 20
-100.3279665062573
 10
49.991847037394194
 20
-100.3023959186664
 10
50.001158379786304
 20
-100.29098132087496
 10
50.02157796573961
 20
-100.26326824374026
 10
50.02972161076828
 20
-100.25099326164091
 10
50.04731678970397
 20
-100.22140637581303
 10
50.05421378397591
 20
-100.20839001649486
 10
50.068813969004204
 20
-100.17721616957279
 10
50.074397445521015
 20
-100.16358462784524
 10
50.08586108649531
 20
-100.13112605316323
 10
50.09007691293498
 20
-100.11701148808599
 10
50.10211461858652
 20
-100.06803315650805
 10
50.10369948785356
 20
-100.06082312960085
 10
50.11931880726069
 20
-99.9803662020638
 10
50.12172294949655
 20
-99.96872376529431
 10
50.129857985665225
 20
-99.93156468435465
 10
50.13253824103479
 20
-99.91998269553685
 10
50.134780177789956
 20
-99.91079352523522
 10
50.13773503113156
 20
-99.8992785317248
 10
50.147627245951
 20
-99.86254816015501
 10
50.15085502687155
 20
-99.85110667143432
 10
50.26112745578747
 20
-99.47728951024133
 10
50.264626339606515
 20
-99.46592799424027
 10
50.27625336776688
 20
-99.42970937574245
 10
50.28002137654805
 20
-99.41843425518236
 10
50.283125817173875
 20
-99.40949951513872
 10
50.28716082084321
 20
-99.39831716390091
 10
50.30049637479422
 20
-99.3626921851568
 10
50.30479609234427
 20
-99.35160892467954
 10
50.45006915743261
 20
-98.98995298992736
 10
50.45463115821182
 20
-98.97897508563243
 10
50.4696450875975
 20
-98.94402429116191
 10
50.47446679268434
 20
-98.93315794891276
 10
50.478405677728325
 20
-98.92455839567685
 10
50.48348436138908
 20
-98.91380975827049
 10
50.50014272121384
 20
-98.87961216833101
 10
50.50547551244356
 20
-98.86898731202521
 10
50.68443616470107
 20
-98.52276142690813
 10
50.6900200488465
 20
-98.51226635798668
 10
50.70828517622157
 20
-98.47889928991549
 10
50.71411699668556
 20
-98.46853994129245
 10
50.71885472457839
 20
-98.46035330183193
 10
50.72493118460413
 20
-98.45013552969809
 10
50.74476178390036
 20
-98.41767442310436
 10
50.751079448434766
 20
-98.40760400361711
 10
50.962110153971715
 20
-98.07993752699473
 10
50.96866545160787
 20
-98.07002015301187
 10
50.99001668781923
 20
-98.0385383992181
 10
50.99680591281517
 20
-98.02877967707985
 10
51.002299661655535
 20
-98.02107994624521
 10
51.00931897602895
 20
-98.01148539260528
 10
51.03214257614272
 20
-97.98105416871276
 10
51.03938801184041
 20
-97.97162920741987
 10
51.280581371942624
 20
-97.66548374914225
 10
51.288048833083906
 20
-97.65623370817369
 10
51.31229319521781
 20
-97.6269218161429
 10
51.31997846041022
 20
-97.61785192459222
 10
51.32617857500955
 20
-97.61070869631611
 10
51.334077299734744
 20
-97.60182408143783
 10
51.359687609806855
 20
-97.57369779252977
 10
51.36779532887673
 20
-97.56500347684053
 10
51.63697132000835
 20
-97.28314612926941
 10
51.645283450089316
 20
-97.27464702770878
 10
51.672201805744926
 20
-97.2477699326552
 10
51.68071364794872
 20
-97.23947084980733
 10
51.6875640886391
 20
-97.23294868808031
 10
51.696270831179405
 20
-97.22485431545762
 10
51.72443637270357
 20
-97.19928718068732
 10
51.73333309361587
 20
-97.19140209407858
 10
52.028058771537324
 20
-96.93638042175441
 10
52.03714044146125
 20
-96.9287090786381
 10
52.06648948937623
 20
-96.9045097088905
 10
52.07575097439917
 20
-96.89705644591457
 10
52.08318982354828
 20
-96.89121430122323
 10
52.09262588810713
 20
-96.88398333175397
 10
52.123092087146084
 20
-96.86120643938784
 10
52.132697396986586
 20
-96.85420185112827
 10
52.450308886895286
 20
-96.62832086463511
 10
52.46007801208855
 20
-96.62154661731341
 10
52.49159248121598
 20
-96.60024369860923
 10
52.501519899227354
 20
-96.59370362174083
 10
52.509479920877915
 20
-96.58859429824655
 10
52.51956001968909
 20
-96.58229208896911
 10
52.55205150783708
 20
-96.56251130769893
 10
52.5622785891184
 20
-96.5564505286825
 10
52.89990516305191
 20
-96.36175185083538
 10
52.910273445383645
 20
-96.35593592826837
 10
52.94366849254054
 20
-96.33772200680427
 10
52.95417211468187
 20
-96.33215422845622
 10
52.96258136226643
 20
-96.32782390672274
 10
52.973214386467724
 20
-96.32250742008634
 10
53.00743748976602
 20
-96.30590153828632
 10
53.01819390512616
 20
-96.30083934879771
 10
53.37278392900358
 20
-96.13908276145828
 10
53.38365765486815
 20
-96.13427773079806
 10
53.418631439288035
 20
-96.11931743290302
 10
53.42961632868589
 20
-96.11477227737883
 10
53.43839879531225
 20
-96.11126009697178
 10
53.449488638430914
 20
-96.1069773859826
 10
53.48513403173579
 20
-96.09369649573316
 10
53.49632255943267
 20
-96.08967865031643
 10
53.86467107521854
 20
-95.96232618862236
 10
53.875951962563846
 20
-95.95857548008593
 10
53.912188374079484
 20
-95.94700402424851
 10
53.92355524393145
 20
-95.94352257288656
 10
53.93263154937143
 20
-95.94086027860997
 10
53.944077975982616
 20
-95.93765005250407
 10
53.98082347879916
 20
-95.92781419298545
 10
53.99234299144831
 20
-95.92487700689222
 10
54.37112068512862
 20
-95.83307974466975
 10
54.38270677177795
 20
-95.83041725899508
 10
54.41987828798115
 20
-95.82233923369185
 10
54.43152439895883
 20
-95.81995295355199
 10
54.440812507125116
 20
-95.81816460852349
 10
54.452512058827885
 20
-95.81605588289425
 10
54.49002554733305
 20
-95.80975395541466
 10
54.501771925946
 20
-95.80792397636917
 10
54.887555219496804
 20
-95.75251162216459
 10
54.89934178473401
 20
-95.75096142419905
 10
54.93711243128671
 20
-95.74644984257247
 10
54.948932520144936
 20
-95.74518030202141
 10
54.958348480574045
 20
-95.74428207017786
 10
54.97019541109806
 20
-95.74329390471888
 10
55.008137820035394
 20
-95.74058286918108
 10
55.02000489509721
 20
-95.73987663742894
 10
55.43068878260099
 20
-95.72033248631368
 10
55.436627778263315
 20
-95.72008522657153
 10
55.45563659599708
 20
-95.71940698847708
 10
55.461578111418355
 20
-95.7192303494102
 10
55.46632561277037
 20
-95.71911744820795
 10
55.47226880822902
 20
-95.71901145478098
 10
55.491288377820815
 20
-95.71878533280686
 10
55.49723241335704
 20
-95.71875
 10
69.13618614620027
 20
-95.71875
 10
69.1435524160042
 20
-95.718568899023
 10
69.1938341987775
 20
-95.71609503163843
 10
69.20846676347817
 20
-95.71465169131693
 10
69.24245359487159
 20
-95.7096026091134
 10
69.25687380814809
 20
-95.70672986999375
 10
69.29020086593904
 20
-95.69836893952629
 10
69.30426943996396
 20
-95.6940945499908
 10
69.33661481119506
 20
-95.68250253121937
 10
69.35019585469654
 20
-95.67686777848228
 10
69.38124710872462
 20
-95.66215664111829
 10
69.39420943958935
 20
-95.65521595242386
 10
69.42366664591756
 20
-95.63752779439145
 10
69.43588505830623
 20
-95.62934821128964
 10
69.4762921203164
 20
-95.59932077319952
 10
69.48209657427299
 20
-95.5947817157345
 10
69.72478650559172
 20
-95.3951955416593
 10
69.73415815553543
 20
-95.38767531040499
 10
69.76443224393351
 20
-95.36397436688247
 10
69.77398189923862
 20
-95.35668150843522
 10
69.78164831983851
 20
-95.35097136144375
 10
69.79137046532341
 20
-95.34391008762455
 10
69.82274833148321
 20
-95.32169107172798
 10
69.83263735234819
 20
-95.31486546061183
 10
70.15950444168126
 20
-95.09500633442845
 10
70.16955462675173
 20
-95.08842032798867
 10
70.20196379490433
 20
-95.06773456061578
 10
70.21216933992925
 20
-95.06139196244749
 10
70.22034843393261
 20
-95.05644401289668
 10
70.23070344493611
 20
-95.05034848602038
 10
70.26406905723866
 20
-95.03124374661178
 10
70.27456755392424
 20
-95.0253988113577
 10
70.62102794101081
 20
-94.8379279345939
 10
70.63166386021501
 20
-94.83233696656892
 10
70.66590884965329
 20
-94.81485738274945
 10
70.67667604884801
 20
-94.80952361088727
 10
70.68529229246735
 20
-94.80538354695364
 10
70.69618455330672
 20
-94.80031005165037
 10
70.73122982170733
 20
-94.78449599730176
 10
70.74224085361834
 20
-94.77968570863715
 10
71.10509540651752
 20
-94.62633414230935
 10
71.11621885033446
 20
-94.62178983835385
 10
71.15198345105854
 20
-94.60767784036285
 10
71.16321288269415
 20
-94.60340214557398
 10
71.17218671560602
 20
-94.60010819561323
 10
71.18351564976204
 20
-94.59610357931945
 10
71.21991697467391
 20
-94.58372623320837
 10
71.2313388685878
 20
-94.57999500818272
 10
71.60723707557152
 20
-94.46217876379583
 10
71.61874533279368
 20
-94.45872308492069
 10
71.65569930307431
 20
-94.44810897955665
 10
71.66728727727754
 20
-94.44493084257927
 10
71.67653583726617
 20
-94.44251342213339
 10
71.68819683608454
 20
-94.43961466251312
 10
71.72561809642487
 20
-94.43078831407773
 10
71.7373453853192
 20
-94.42817060592589
 10
72.12281629269245
 20
-94.34697757036311
 10
72.13460309883924
 20
-94.3446424254763
 10
72.172405214598
 20
-94.33762422083666
 10
72.18424473080044
 20
-94.3355729878237
 10
72.19368261888562
 20
-94.33405441877211
 10
72.20556800750575
 20
-94.33228828227504
 10
72.24366366434982
 20
-94.3270944318957
 10
72.25558806125724
 20
-94.32561441190568
 10
72.64707232331102
 20
-94.28179430214237
 10
72.65902884184672
 20
-94.28060125341061
 10
72.69733004743081
 20
-94.27724375391033
 10
72.70931178238517
 20
-94.27633836545442
 10
72.71885185137627
 20
-94.27573266989874
 10
72.73085188297678
 20
-94.27511546460475
 10
72.76927017018738
 20
-94.27360207104735
 10
72.7812815680935
 20
-94.27327340536796
 10
73.17516431324594
 20
-94.26723084576547
 10
73.1871801405528
 20
-94.2671909095139
 10
73.2256267718375
 20
-94.26752511749615
 10
73.23764008908358
 20
-94.26777393373663
 10
73.24719424827748
 20
-94.26808670452398
 10
73.25919811745031
 20
-94.26862412955849
 10
73.29758428979547
 20
-94.2708051671356
 10
73.30957177833835
 20
-94.27163089058679
 10
73.70221598799164
 20
-94.30342167668807
 10
73.71418017280851
 20
-94.30453522167846
 10
73.75241722284119
 20
-94.30855805114713
 10
73.76435119429475
 20
-94.30995877457465
 10
73.77383122288175
 20
-94.3111871236548
 10
73.78572808878397
 20
-94.31287421656418
 10
73.82372769757465
 20
-94.31872954609898
 10
73.83558058716662
 20
-94.32070203414885
 10
74.22336067906237
 20
-94.39003261747607
 10
74.23516274698243
 20
-94.3922893615017
 10
74.27283714403426
 20
-94.39996366661659
 10
74.28458157427158
 20
-94.40250336328775
 10
74.29389993594616
 20
-94.40463594838057
 10
74.30557994577742
 20
-94.40745713095434
 10
74.34284211175863
 20
-94.41693268574103
 10
74.35445095566561
 20
-94.42003372490896
 10
74.733786261639
 20
-94.52626392351935
 10
74.74531723520329
 20
-94.52964302834825
 10
74.78208110294618
 20
-94.54089794642037
 10
74.79352754672121
 20
-94.54455316538655
 10
74.80259819797135
 20
-94.54757029471389
 10
74.81395350132868
 20
-94.55149951683033
 10
74.85013415461675
 20
-94.56450780187362
 10
74.86139175956446
 20
-94.56870875790922
 10
75.22877958857546
 20
-94.71085766768184
 10
75.23993299354551
 20
-94.71532793147213
 10
75.27544686326067
 20
-94.73005953729304
 10
75.2864896268626
 20
-94.73479652714083
 10
75.29522881147435
 20
-94.73867034125549
 10
75.30615455621566
 20
-94.74367132142193
 10
75.34091961335456
 20
-94.76009222134438
 10
75.35172202932505
 20
-94.76535430362946
 10
75.70377001046319
 20
-94.94210935569733
 10
75.71444285897849
 20
-94.9476295011077
 10
75.74837880412912
 20
-94.96570176657015
 10
75.75891592133297
 20
-94.97147678707381
 10
75.76724294377676
 20
-94.97617151610763
 10
75.77763824420114
 20
-94.98219807647521
 10
75.81066669300894
 20
-95.0018799646337
 10
75.82091417308942
 20
-95.00815458436516
 10
76.15437157991279
 20
-95.21788366506115
 10
76.1644653214553
 20
-95.22440272039562
 10
76.19650998568008
 20
-95.24564877054378
 10
76.20644415927808
 20
-95.25240849655194
 10
76.21428212982958
 20
-95.25788079050513
 10
76.22405099823149
 20
-95.26487728326394
 10
76.25503786195078
 20
-95.28763842183407
 10
76.26463578337344
 20
-95.29486764068159
 10
76.57642355033498
 20
-95.53563416208362
 10
76.58584498172144
 20
-95.54309193195216
 10
76.6157024722933
 20
-95.5673155858657
 10
76.62494197251425
 20
-95.57499759969312
 10
76.63221851723719
 20
-95.58119692871848
 10
76.64127075023379
 20
-95.58909874993604
 10
76.66992990361243
 20
-95.6147289680348
 10
76.67878964147748
 20
-95.62284603312897
 10
76.96602879527663
 20
-95.89242681504771
 10
76.97469092127409
 20
-95.90075443619584
 10
77.00208554130184
 20
-95.92773201847713
 10
77.01054505282171
 20
-95.9362653862548
 10
77.01719298185147
 20
-95.94313450723848
 10
77.02544499329885
 20
-95.95186869339676
 10
77.05151180460253
 20
-95.98013132775019
 10
77.05955155021995
 20
-95.9890612880628
 10
77.3195897935492
 20
-96.28496708635255
 10
77.32741263016821
 20
-96.29408766352826
 10
77.3520914243144
 20
-96.32357006966622
 10
77.35969283403675
 20
-96.33287599632673
 10
77.36565076199429
 20
-96.34035148145635
 10
77.37302635480226
 20
-96.34983738317973
 10
77.39626012936108
 20
-96.38047146341563
 10
77.40340564565237
 20
-96.39013186183969
 10
77.63384184787395
 20
-96.7096303534811
 10
77.64075316092129
 20
-96.71945966946674
 10
77.66248825113276
 20
-96.75117466600972
 10
77.66916136946757
 20
-96.76116722286343
 10
77.67437428227791
 20
-96.76918004530566
 10
77.6808053519952
 20
-96.77933007205756
 10
77.70099155471888
 20
-96.81205273044162
 10
77.70717686170389
 20
-96.82235436517976
 10
77.90588323031245
 20
-97.16249537789338
 10
77.91181920238472
 20
-97.17294267114782
 10
77.93040989206227
 20
-97.2065974094402
 10
77.93609310103848
 20
-97.2171843276185
 10
77.9405128639183
 20
-97.22566049889777
 10
77.945940027593
 20
-97.23638092777092
 10
77.96289226393768
 20
-97.270890011141
 10
77.96806024797841
 20
-97.28173775937415
 10
78.13320197612593
 20
-97.63938051280255
 10
78.13810779588354
 20
-97.65034931553055
 10
78.15338242306703
 20
-97.68563303580785
 10
78.15802324529909
 20
-97.69671655825316
 10
78.16160904721984
 20
-97.70557781144038
 10
78.16598219172693
 20
-97.7167696525712
 10
78.17954392881674
 20
-97.75274651234591
 10
78.1836468699908
 20
-97.76404020857429
 10
78.31369907865208
 20
-98.13588231549333
 10
78.31752944693466
 20
-98.14727134440714
 10
78.3293469693879
 20
-98.18385824527661
 10
78.33290255263859
 20
-98.1953360294062
 10
78.33562128316727
 20
-98.20450054181931
 10
78.33890002794148
 20
-98.21606045243682
 10
78.34894603995582
 20
-98.25317288694048
 10
78.35194605269058
 20
-98.26480824788776
 10
78.44570787102911
 20
-98.6474162076551
 10
78.44842741913658
 20
-98.65912029919909
 10
78.45667871669785
 20
-98.69667254601248
 10
78.45911622956618
 20
-98.70843860872687
 10
78.46094278459871
 20
-98.71782175746156
 10
78.46309685449883
 20
-98.72964299612951
 10
78.46953437897712
 20
-98.76754831806136
 10
78.47140376187593
 20
-98.77941790560081
 10
78.52800941579729
 20
-99.16925880827758
 10
78.5295930320761
 20
-99.1811698896836
 10
78.53420191424684
 20
-99.21934073401907
 10
78.53549884932475
 20
-99.23128643032271
 10
78.53641636289088
 20
-99.2408015736383
 10
78.53742586775317
 20
-99.2527749858802
 10
78.54019546214175
 20
-99.29112318660877
 10
78.54091695377231
 20
-99.30311739982223
 10
78.56088330851904
 20
-99.71820297857249
 10
78.56113591265496
 20
-99.72420572122236
 10
78.56182881140383
 20
-99.74341866075102
 10
78.56200926898595
 20
-99.74942400530657
 10
78.56212460757799
 20
-99.75422238379157
 10
78.5622328925506
 20
-99.76022946315956
 10
78.56246390327183
 20
-99.77945350508708
 10
78.5625
 20
-99.78546145192378
 10
78.5625
 20
-116.63404579890687
 10
78.56268056364598
 20
-116.6414011463958
 10
78.56514709449712
 20
-116.69160853528193
 10
78.5665861685702
 20
-116.70621969954634
 10
78.57162033431914
 20
-116.74015728834374
 10
78.57448462339538
 20
-116.75455704193361
 10
78.58282101366378
 20
-116.7878377774339
 10
78.5870829330735
 20
-116.8018874428499
 10
78.59864126386594
 20
-116.83419081337725
 10
78.60425976899569
 20
-116.84775508466176
 10
78.61892872726813
 20
-116.87876999109912
 10
78.62584970884191
 20
-116.89171823690407
 10
78.6434880245075
 20
-116.9211459887484
 10
78.65164482968923
 20
-116.9333535103883
 10
78.67208263612608
 20
-116.96091070230244
 10
78.68139671042306
 20
-116.9722599346709
 10
78.70443718038273
 20
-116.9976811758324
 10
78.71481882416761
 20
-117.00806281961728
 10
78.7402400653291
 20
-117.03110328957695
 10
78.75158929769756
 20
-117.04041736387393
 10
78.7791464896117
 20
-117.06085517031077
 10
78.7913540112516
 20
-117.0690119754925
 10
78.82078176309594
 20
-117.0866502911581
 10
78.83373000890089
 20
-117.09357127273188
 10
78.86474491533825
 20
-117.10824023100432
 10
78.87830918662276
 20
-117.11385873613406
 10
78.9106125571501
 20
-117.1254170669265
 10
78.92466222256611
 20
-117.12967898633623
 10
78.9579429580664
 20
-117.13801537660463
 10
78.97234271165627
 20
-117.14087966568087
 10
79.00628030045367
 20
-117.14591383142981
 10
79.02089146471808
 20
-117.14735290550288
 10
79.07109885360421
 20
-117.14981943635402
 10
79.07845420109314
 20
-117.15
 10
97.01389084753181
 20
-117.15
 10
97.02040292318317
 20
-117.15004240892782
 10
97.04123979777926
 20
-117.15031381455528
 10
97.04775076875045
 20
-117.15044103414463
 10
97.05295026879719
 20
-117.15057650676772
 10
97.05945903059518
 20
-117.15078851543767
 10
97.08028176708036
 20
-117.15160254816763
 10
97.08678721558562
 20
-117.1518993099539
 10
97.53657691166389
 20
-117.17535371259798
 10
97.54957345532137
 20
-117.17620127978529
 10
97.59112001905294
 20
-117.17945464941646
 10
97.60409007772769
 20
-117.18064043824863
 10
97.61438520797732
 20
-117.18171705027379
 10
97.62731998130197
 20
-117.1832402561764
 10
97.66864075709947
 20
-117.1886527287509
 10
97.68153146864827
 20
-117.19051231820734
 10
98.12644228691
 20
-117.26062111576562
 10
98.13286838489805
 20
-117.2616766689206
 10
98.1534090300888
 20
-117.26518820692493
 10
98.15982083534496
 20
-117.26632736502265
 10
98.16493587067048
 20
-117.26727053371306
 10
98.17133229552327
 20
-117.26849310351155
 10
98.19177451030814
 20
-117.27253845376164
 10
98.1981544696959
 20
-117.27384422786946
 10
115.6646937449302
 20
-120.96735870171885
 10
115.67105615658375
 20
-120.96874745863006
 10
115.69138607063292
 20
-120.97332387629889
 10
115.6977298552601
 20
-120.9747953804307
 10
115.7027888354654
 20
-120.97600363240973
 10
115.70911291693464
 20
-120.97755763414271
 10
115.72931673611873
 20
-120.98266201406732
 10
115.73562004163954
 20
-120.98429824978722
 10
116.17082602555406
 20
-121.10030097073253
 10
116.18336603539112
 20
-121.10381901997364
 10
116.22334064970934
 20
-121.11559745713329
 10
116.23578477382118
 20
-121.11944093111696
 10
116.24563442943959
 20
-121.12262418173562
 10
116.25797422431339
 20
-121.1267904726108
 10
116.29728124476918
 20
-121.14063458741853
 10
116.30950833768026
 20
-121.14512086829819
 10
116.7302887992486
 20
-121.30575922879986
 10
116.73635748674707
 20
-121.30812142266555
 10
116.75572723825668
 20
-121.3158065856725
 10
116.76176464545172
 20
-121.31824761868616
 10
116.76657388631901
 20
-121.32022861738257
 10
116.77257898905081
 20
-121.32274807545782
 10
116.79174200076343
 20
-121.33093513757304
 10
116.79771378035203
 20
-121.33353259331979
 10
133.19779389219892
 20
-128.59419993111428
 10
133.20459268373995
 20
-128.5970124341861
 10
133.2515005922034
 20
-128.615082126953
 10
133.2654435418958
 20
-128.6196811713376
 10
133.29851385748287
 20
-128.62881665080607
 10
133.31284045323892
 20
-128.63202690147796
 10
133.3466469597906
 20
-128.63787693335223
 10
133.3612192286645
 20
-128.63966747384322
 10
133.3954363510421
 20
-128.64217571911828
 10
133.41011395411502
 20
-128.64252930554423
 10
133.44441216272534
 20
-128.64167160844693
 10
133.4590537466588
 20
-128.64058483557744
 10
133.49310273100238
 20
-128.63636945619982
 10
133.5075672893394
 20
-128.63385279025152
 10
133.54103913908511
 20
-128.62632032500125
 10
133.5551873702199
 20
-128.62239800284325
 10
133.58775973315622
 20
-128.61162099347857
 10
133.60145538189062
 20
-128.6063307892169
 10
133.63281456835787
 20
-128.5924130242289
 10
133.64592573810526
 20
-128.58580588542355
 10
133.67576974199423
 20
-128.56888140049762
 10
133.68817016502592
 20
-128.56102095750543
 10
133.7162115722642
 20
-128.54125274468367
 10
133.72778182572532
 20
-128.5322146978689
 10
133.75375058223395
 20
-128.50979313584605
 10
133.76437923825807
 20
-128.49966452654095
 10
133.7880252507153
 20
-128.47480554721636
 10
133.7976099495368
 20
-128.46368391946353
 10
133.8187054939152
 20
-128.43662692839882
 10
133.8271539296437
 20
-128.4246193895544
 10
133.84549584432065
 20
-128.39562496036217
 10
133.8527266539016
 20
-128.38284714958965
 10
133.87530711520589
 20
-128.33793625513732
 10
133.8784498313835
 20
-128.33128365602366
 10
145.25954769151633
 20
-102.62415399655556
 10
145.26236525662637
 20
-102.61734206114272
 10
145.28046509672137
 20
-102.57034271000985
 10
145.2850702738278
 20
-102.55637233146493
 10
145.294213857115
 20
-102.5232362425549
 10
145.29742482136314
 20
-102.50888114445394
 10
145.3032700972379
 20
-102.47500728648714
 10
145.30505580672906
 20
-102.46040624630201
 10
145.3075462661661
 20
-102.42612209376108
 10
145.3078894576086
 20
-102.41141626659963
 10
145.30700102416765
 20
-102.37705326048012
 10
145.30589837976873
 20
-102.36238481447403
 10
145.30163964235282
 20
-102.32827515808151
 10
145.2991018218935
 20
-102.31378589998468
 10
145.29151395171596
 20
-102.2802593473767
 10
145.28756548949755
 20
-102.26608935164637
 10
145.27167781734693
 20
-102.2182968303493
 10
145.2691810882238
 20
-102.2113608746908
 10
145.2345529620223
 20
-102.1221131123014
 10
145.230382364547
 20
-102.11097297796347
 10
145.21746235726602
 20
-102.07517085076056
 10
145.21355795019068
 20
-102.06393465559671
 10
145.21055800431924
 20
-102.05495835079185
 10
145.20692199748333
 20
-102.0436324543305
 10
145.19571950867717
 20
-102.00725632005421
 10
145.19235396000923
 20
-101.99584713259287
 10
145.08647385462837
 20
-101.6205186287758
 10
145.08338066898133
 20
-101.60903260775314
 10
145.07392105686398
 20
-101.5721648082661
 10
145.07110198493766
 20
-101.56060845460937
 10
145.06896854589033
 20
-101.55138770838033
 10
145.0664251832396
 20
-101.53976756282258
 10
145.05872986080988
 20
-101.50249155293675
 10
145.05646364694203
 20
-101.49081419231585
 10
144.9867265196059
 20
-101.1071231505078
 10
144.98473873716603
 20
-101.09539518404524
 10
144.9788251237344
 20
-101.05779534260158
 10
144.97711689777947
 20
-101.04602340816184
 10
144.97586927183386
 20
-101.0366416624455
 10
144.9744415691957
 20
-101.02483242277751
 10
144.97032305095556
 20
-100.98699386165491
 10
144.96917667969365
 20
-100.97515400062129
 10
144.9362136074099
 20
-100.58657258269339
 10
144.93534921635427
 20
-100.57470880148925
 10
144.93303511607922
 20
-100.53671717293503
 10
144.93245319446297
 20
-100.52483618629277
 10
144.9321026718468
 20
-100.5153783399702
 10
144.93180354902935
 20
-100.50348687236041
 10
144.93129910497063
 20
-100.46542817510687
 10
144.93128295025136
 20
-100.45353295693319
 10
144.93539222802912
 20
-100.06357757957596
 10
144.93565905055132
 20
-100.0516853433652
 10
144.93696540458023
 20
-100.01364572797058
 10
144.9375150533261
 20
-100.00176320455972
 10
144.93806480604783
 20
-99.99231484517159
 10
144.93889696992406
 20
-99.98044875990017
 10
144.94201116494753
 20
-99.94251433371672
 10
144.94312537296096
 20
-99.93067140262347
 10
144.98426981442864
 20
-99.54287091599518
 10
144.9856654359533
 20
-99.53105784201183
 10
144.99058042260677
 20
-99.4933144742946
 10
144.99225666774052
 20
-99.4815379434547
 10
144.99370172088487
 20
-99.47218457269395
 10
144.99565764089644
 20
-99.46045125034854
 10
145.0023622935013
 20
-99.42298437786447
 10
145.00459678136778
 20
-99.41130090490732
 10
145.08240405528682
 20
-99.02916465876095
 10
145.08491584631943
 20
-99.01753764787371
 10
145.09339498806827
 20
-98.98043208150557
 10
145.09618266062867
 20
-98.96886811341271
 10
145.09850993737632
 20
-98.95969437338364
 10
145.10157191368137
 20
-98.94819999312718
 10
145.11180635099197
 20
-98.91153972589724
 10
145.11514089800605
 20
-98.900121439135
 10
145.21107310827338
 20
-98.58558063326925
 10
145.21305531188972
 20
-98.5784561301047
 10
145.22539320716538
 20
-98.52946133780657
 10
145.22828656984794
 20
-98.51499132995924
 10
145.2333720594616
 20
-98.48088463267767
 10
145.2348258127046
 20
-98.46619997142035
 10
145.23731758747178
 20
-98.41573707028925
 10
145.2375
 20
-98.40834420871947
 10
145.2375
 20
-41.465954201092906
 10
145.23731943635406
 20
-41.458598853605004
 10
145.2348529055029
 20
-41.40839146471808
 10
145.23341383142974
 20
-41.39378030045308
 10
145.22837966568096
 20
-41.35984271165663
 10
145.22551537660468
 20
-41.345442958066506
 10
145.21717898633617
 20
-41.312162222565796
 10
145.21291706692662
 20
-41.2981125571504
 10
145.2013587361341
 20
-41.265809186622874
 10
145.19574023100424
 20
-41.252244915338046
 10
145.181071272732
 20
-41.22123000890113
 10
145.17415029115796
 20
-41.2082817630957
 10
145.15651197549258
 20
-41.17885401125173
 10
145.14835517031065
 20
-41.16664648961151
 10
145.12791736387413
 20
-41.13908929769782
 10
145.11860328957675
 20
-41.12774006532888
 10
145.0955628196176
 20
-41.102318824167966
 10
145.08518117583202
 20
-41.09193718038238
 10
145.059759934671
 20
-41.068896710423125
 10
145.0484107023024
 20
-41.059582636126024
 10
145.0208535103885
 20
-41.03914482968934
 10
145.00864598874836
 20
-41.03098802450747
 10
144.97921823690425
 20
-41.013349708842
 10
144.9662699910992
 20
-41.00642872726819
 10
144.93525508466126
 20
-40.991759768995465
 10
144.92169081337775
 20
-40.98614126386612
 10
144.88938744284994
 20
-40.974582933073535
 10
144.87533777743357
 20
-40.970321013663686
 10
144.8420570419338
 20
-40.961984623395416
 10
144.82765728834354
 20
-40.959120334319095
 10
144.79371969954656
 20
-40.95408616857022
 10
144.77910853528198
 20
-40.952647094497124
 10
144.72890114639594
 20
-40.950180563646
 10
144.72154579890645
 20
-40.95
 10
111.91340470324921
 20
-40.95
 10
111.9069621622244
 20
-40.949958491942226
 10
111.88634774241591
 20
-40.94969285139914
 10
111.8799062710604
 20
-40.94956833411749
 10
111.8747620767485
 20
-40.949435734361245
 10
111.86832274455428
 20
-40.9492282285296
 10
111.8477220148095
 20
-40.94843148331256
 10
111.84128589091324
 20
-40.94814102338356
 10
111.39628118990737
 20
-40.92518436822431
 10
111.38342284071511
 20
-40.92435479274219
 10
111.3423171571321
 20
-40.9211704571206
 10
111.32948445408498
 20
-40.92000982283922
 10
111.31929665177991
 20
-40.918955892687606
 10
111.30649811709327
 20
-40.917464970385744
 10
111.26561107471191
 20
-40.912167142384654
 10
111.2528552079102
 20
-40.91034692218584
 10
110.8355009870314
 20
-40.84529413919516
 10
110.82279625930308
 20
-40.8431458299101
 10
110.78223645265308
 20
-40.83574858037213
 10
110.76959130122515
 20
-40.83327360869597
 10
110.75956603037736
 20
-40.83117693776195
 10
110.74698885291211
 20
-40.82837694732673
 10
110.70686400739615
 20
-40.81889992308339
 10
110.69436315641391
 20
-40.81577677336652
 10
110.2859184185192
 20
-40.708123132711705
 10
110.27350219585239
 20
-40.7046788978012
 10
110.23391888163142
 20
-40.69314726949144
 10
110.22159553291016
 20
-40.68938423670834
 10
110.21183922985018
 20
-40.68626708493521
 10
110.19961693902711
 20
-40.6821877533147
 10
110.1606802879743
 20
-40.66863214853269
 10
110.14856717188937
 20
-40.66423922716444
 10
109.75336829448263
 20
-40.51512766638935
 10
109.74137239747279
 20
-40.51042407261845
 10
109.70318582394795
 20
-40.49488049456818
 10
109.69131511250475
 20
-40.48986935205766
 10
109.68193135798474
 20
-40.485764813633196
 10
109.67019371546344
 20
-40.48044945028948
 10
109.63285864164534
 20
-40.462959182160475
 10
109.62126186303034
 20
-40.457343127923565
 10
109.24350459491879
 20
-40.26835673516189
 10
109.23205638164686
 20
-40.26244371966123
 10
109.19567196816362
 20
-40.243053214983526
 10
109.18437992300854
 20
-40.236847165060624
 10
109.17546834250541
 20
-40.23179881706234
 10
109.16433996452942
 20
-40.225303854163236
 10
109.12900284708687
 20
-40.20406461342637
 10
109.11804552666125
 20
-40.197285050864934
 10
108.76174044251366
 20
-39.97043025750405
 10
108.75096145640984
 20
-39.96337059759702
 10
108.71676548913487
 20
-39.94033903146886
 10
108.70617199569185
 20
-39.93300396254578
 10
108.69782720170453
 20
-39.92706540229225
 10
108.68742623607581
 20
-39.91945979558243
 10
108.65446224223943
 20
-39.89469707508221
 10
108.6442607117204
 20
-39.88682598147939
 10
108.31319063258513
 20
-39.62451126027321
 10
108.30319531202613
 20
-39.616379906981365
 10
108.27155084282306
 20
-39.589951801013626
 10
108.26176837013014
 20
-39.581565588075634
 10
108.25407895769622
 20
-39.57479986409383
 10
108.24451582942257
 20
-39.566164360804905
 10
108.2142749314359
 20
-39.53814106147782
 10
108.20493749846788
 20
-39.529262002687325
 10
107.90261733030468
 20
-39.234272297474085
 10
107.8935117936444
 20
-39.22515557977715
 10
107.86475478562289
 20
-39.195611515976296
 10
107.85588719226973
 20
-39.1862631937977
 10
107.84893479836974
 20
-39.17874213644939
 10
107.8403110373044
 20
-39.16916841802248
 10
107.81311429683791
 20
-39.138182057729914
 10
107.8047400951117
 20
-39.128389300973964
 10
107.50508099361807
 20
-38.76868738558751
 10
107.47765960099763
 20
-38.735835714791165
 10
107.4672924555986
 20
-38.72463144480357
 10
107.44128822037605
 20
-38.69925774337571
 10
107.42971812291921
 20
-38.68907750054074
 10
107.40148679929759
 20
-38.666709149391544
 10
107.38893056297647
 20
-38.65777352245289
 10
107.3585473759334
 20
-38.63842894409868
 10
107.34513830784142
 20
-38.63083280085144
 10
107.31292582970255
 20
-38.61471737287883
 10
107.29880629127958
 20
-38.60854136008254
 10
107.26510651559398
 20
-38.595826176822854
 10
107.2504264112048
 20
-38.59113586399173
 10
107.21559712186735
 20
-38.5819559200465
 10
107.20051230729452
 20
-38.57880110330987
 10
107.16492328002471
 20
-38.573253860339726
 10
107.14959390778
 20
-38.5716680337669
 10
107.0968876763185
 20
-38.56894905399506
 10
107.08916539644267
 20
-38.56875
 10
92.86340470324922
 20
-38.56875
 10
92.8569621622244
 20
-38.568708491942225
 10
92.83634774241591
 20
-38.56844285139914
 10
92.82990627106041
 20
-38.568318334117485
 10
92.8247620767485
 20
-38.56818573436124
 10
92.81832274455428
 20
-38.5679782285296
 10
92.79772201480951
 20
-38.56718148331256
 10
92.79128589091324
 20
-38.56689102338356
 10
92.34628118990737
 20
-38.543934368224306
 10
92.33342284071512
 20
-38.54310479274219
 10
92.2923171571321
 20
-38.5399204571206
 10
92.27948445408498
 20
-38.53875982283922
 10
92.26929665177991
 20
-38.537705892687605
 10
92.25649811709327
 20
-38.53621497038574
 10
92.21561107471192
 20
-38.53091714238465
 10
92.2028552079102
 20
-38.529096922185836
 10
91.7855009870314
 20
-38.46404413919516
 10
91.77279625930308
 20
-38.4618958299101
 10
91.73223645265308
 20
-38.45449858037213
 10
91.71959130122515
 20
-38.45202360869597
 10
91.70956603037736
 20
-38.44992693776195
 10
91.69698885291203
 20
-38.447126947326716
 10
91.65686400739607
 20
-38.43764992308337
 10
91.64436315641395
 20
-38.434526773366514
 10
91.23591841851923
 20
-38.32687313271171
 10
91.2235021958523
 20
-38.32342889780118
 10
91.18391888163134
 20
-38.31189726949141
 10
91.17159553291016
 20
-38.30813423670834
 10
91.16183922985019
 20
-38.30501708493521
 10
91.14961693902714
 20
-38.30093775331471
 10
91.11068028797435
 20
-38.28738214853271
 10
91.0985671718894
 20
-38.28298922716445
 10
90.70336829448277
 20
-38.13387766638941
 10
90.69137239747285
 20
-38.12917407261847
 10
90.6531858239474
 20
-38.11363049456794
 10
90.64131511250392
 20
-38.1086193520573
 10
90.63193135798365
 20
-38.10451481363272
 10
90.6201937154624
 20
-38.09919945028901
 10
90.5828586416449
 20
-38.08170918216025
 10
90.5712618630302
 20
-38.07609312792349
 10
90.19350459491879
 20
-37.887106735161886
 10
90.18205638164686
 20
-37.881193719661226
 10
90.14567196816363
 20
-37.861803214983524
 10
90.13437992300854
 20
-37.85559716506062
 10
90.12546834250541
 20
-37.85054881706234
 10
90.11433996452942
 20
-37.844053854163235
 10
90.07900284708687
 20
-37.82281461342637
 10
90.06804552666125
 20
-37.81603505086493
 10
89.71174044251366
 20
-37.58918025750405
 10
89.70096145640984
 20
-37.58212059759702
 10
89.66676548913487
 20
-37.55908903146886
 10
89.65617199569185
 20
-37.55175396254578
 10
89.64782720170453
 20
-37.54581540229225
 10
89.63742623607575
 20
-37.5382097955824
 10
89.60446224223938
 20
-37.51344707508217
 10
89.59426071172041
 20
-37.50557598147938
 10
89.26319063258514
 20
-37.2432612602732
 10
89.2531953120262
 20
-37.2351299069814
 10
89.22155084282312
 20
-37.20870180101367
 10
89.21176837013014
 20
-37.20031558807563
 10
89.20407895769623
 20
-37.19354986409383
 10
89.19451582942257
 20
-37.1849143608049
 10
89.1642749314359
 20
-37.15689106147782
 10
89.15493749846789
 20
-37.148012002687324
 10
88.85261733030468
 20
-36.853022297474084
 10
88.8435117936444
 20
-36.84390557977715
 10
88.8147547856229
 20
-36.814361515976294
 10
88.80588719226974
 20
-36.8050131937977
 10
88.79893479836974
 20
-36.797492136449385
 10
88.7903110373044
 20
-36.78791841802248
 10
88.76311429683791
 20
-36.75693205772991
 10
88.7547400951117
 20
-36.74713930097396
 10
88.45508099361807
 20
-36.38743738558751
 10
88.42765960099763
 20
-36.35458571479116
 10
88.4172924555986
 20
-36.34338144480357
 10
88.39128822037605
 20
-36.31800774337571
 10
88.37971812291921
 20
-36.30782750054074
 10
88.35148679929759
 20
-36.28545914939154
 10
88.33893056297647
 20
-36.27652352245289
 10
88.3085473759334
 20
-36.257178944098676
 10
88.29513830784143
 20
-36.249582800851435
 10
88.26292582970255
 20
-36.23346737287883
 10
88.24880629127958
 20
-36.22729136008254
 10
88.21510651559399
 20
-36.21457617682285
 10
88.2004264112048
 20
-36.20988586399173
 10
88.16559712186735
 20
-36.200705920046495
 10
88.15051230729452
 20
-36.19755110330987
 10
88.11492328002471
 20
-36.192003860339724
 10
88.09959390778
 20
-36.190418033766896
 10
88.0468876763185
 20
-36.18769905399506
 10
88.03916539644267
 20
-36.1875
 10
69.08583460355766
 20
-36.1875
 10
69.07811232368108
 20
-36.18769905399508
 10
69.02540609221994
 20
-36.1904180337669
 10
69.01007671997527
 20
-36.192003860339724
 10
68.97448769270544
 20
-36.19755110330987
 10
68.95940287813256
 20
-36.20070592004651
 10
68.92457358879535
 20
-36.20988586399168
 10
68.90989348440596
 20
-36.214576176822874
 10
68.8761937087203
 20
-36.22729136008258
 10
68.86207417029759
 20
-36.233467372878756
 10
68.82986169215867
 20
-36.24958280085139
 10
68.81645262406633
 20
-36.25717894409883
 10
68.78606943702364
 20
-36.27652352245282
 10
68.77351320070247
 20
-36.28545914939152
 10
68.74528187708067
 20
-36.30782750054084
 10
68.73371177962387
 20
-36.31800774337577
 10
68.70793204583731
 20
-36.34316238693257
 10
68.6974709246954
 20
-36.354479164026586
 10
68.67132753111505
 20
-36.38586091982401
 10
68.37013047088496
 20
-36.747294645152586
 10
68.36178039456614
 20
-36.75705688405973
 10
68.33466330984658
 20
-36.78794764307165
 10
68.32606520163021
 20
-36.79749213644945
 10
68.3191128077302
 20
-36.80501319379778
 10
68.31024521437696
 20
-36.814361515976465
 10
68.28148820635548
 20
-36.843905579777285
 10
68.27238266969529
 20
-36.85302229747411
 10
67.97006250153217
 20
-37.14801200268725
 10
67.96072506856427
 20
-37.156891061477644
 10
67.93048417057759
 20
-37.184914360804754
 10
67.9209210423038
 20
-37.193549864093804
 10
67.91323162986966
 20
-37.2003155880758
 10
67.90344915717667
 20
-37.20870180101385
 10
67.87180468797364
 20
-37.23512990698154
 10
67.86180936741474
 20
-37.2432612602733
 10
67.53073928827959
 20
-37.50557598147938
 10
67.52053775776062
 20
-37.51344707508217
 10
67.48757376392425
 20
-37.5382097955824
 10
67.47717279829547
 20
-37.54581540229225
 10
67.46882800430815
 20
-37.55175396254578
 10
67.45823451086513
 20
-37.55908903146886
 10
67.42403854359016
 20
-37.58212059759702
 10
67.41325955748634
 20
-37.58918025750405
 10
67.05695447333875
 20
-37.81603505086493
 10
67.04599715291313
 20
-37.82281461342637
 10
67.01066003547058
 20
-37.844053854163235
 10
66.99953165749459
 20
-37.85054881706234
 10
66.99062007699146
 20
-37.85559716506062
 10
66.97932803183637
 20
-37.861803214983524
 10
66.94294361835314
 20
-37.881193719661226
 10
66.93149540508121
 20
-37.887106735161886
 10
66.5537381369698
 20
-38.07609312792349
 10
66.5421413583551
 20
-38.08170918216025
 10
66.5048062845376
 20
-38.09919945028901
 10
66.49306864201635
 20
-38.10451481363272
 10
66.48368488749608
 20
-38.1086193520573
 10
66.4718141760526
 20
-38.11363049456794
 10
66.43362760252715
 20
-38.12917407261847
 10
66.42163170551723
 20
-38.13387766638941
 10
66.0264328281106
 20
-38.28298922716445
 10
66.01431971202565
 20
-38.28738214853271
 10
65.97538306097286
 20
-38.30093775331471
 10
65.96316077014981
 20
-38.30501708493521
 10
65.95340446708984
 20
-38.30813423670834
 10
65.94108111836866
 20
-38.31189726949141
 10
65.9014978041477
 20
-38.32342889780118
 10
65.88908158148077
 20
-38.32687313271171
 10
65.48063684358605
 20
-38.434526773366514
 10
65.46813599260399
 20
-38.437649923083356
 10
65.42801114708817
 20
-38.44712694732667
 10
65.41543396962287
 20
-38.4499269377619
 10
65.40540869877512
 20
-38.45202360869591
 10
65.39276354734714
 20
-38.454498580372096
 10
65.35220374069701
 20
-38.46189582991009
 10
65.33949901296864
 20
-38.46404413919515
 10
64.92214479208977
 20
-38.529096922185836
 10
64.90938892528814
 20
-38.53091714238464
 10
64.86850188290701
 20
-38.53621497038571
 10
64.85570334822043
 20
-38.53770589268757
 10
64.84551554591539
 20
-38.53875982283918
 10
64.83268284286817
 20
-38.53992045712057
 10
64.79157715928491
 20
-38.543104792742184
 10
64.7787188100926
 20
-38.543934368224306
 10
64.33371410908687
 20
-38.56689102338355
 10
64.3272779851907
 20
-38.56718148331254
 10
64.30667725544622
 20
-38.56797822852957
 10
64.30023792325208
 20
-38.56818573436122
 10
64.29509372893969
 20
-38.56831833411748
 10
64.28865225758412
 20
-38.56844285139913
 10
64.26803783777535
 20
-38.568708491942225
 10
64.26159529675044
 20
-38.56875
 10
50.3811951289402
 20
-38.56875
 10
50.37381520638677
 20
-38.56893177376056
 10
50.323440433258
 20
-38.57141482707118
 10
50.30878112015397
 20
-38.57286350895777
 10
50.27473274338773
 20
-38.57793126727477
 10
50.26028696153486
 20
-38.58081458594278
 10
50.22690202080557
 20
-38.589206240564536
 10
50.21280982339685
 20
-38.59349624197243
 10
50.18041198879823
 20
-38.605130435029835
 10
50.16681000099321
 20
-38.61078552721649
 10
50.135713372533196
 20
-38.62554946412997
 10
50.12273346686366
 20
-38.632514820452826
 10
50.093239529236214
 20
-38.65026536348609
 10
50.08100754709018
 20
-38.65847345417033
 10
50.05340224675277
 20
-38.67903851016435
 10
50.042036778330825
 20
-38.68840975701003
 10
50.01658775122767
 20
-38.71158994584176
 10
50.00619898579908
 20
-38.72203349374248
 10
49.983152962605786
 20
-38.74760408133363
 10
49.97384162021367
 20
-38.759018679125084
 10
49.95342203426035
 20
-38.78673175625981
 10
49.94527838923178
 20
-38.799006738359
 10
49.927683210296
 20
-38.82859362418702
 10
49.92078621602407
 20
-38.841609983505194
 10
49.90618603099583
 20
-38.872783830427124
 10
49.900602554479
 20
-38.886415372154744
 10
49.889138913504674
 20
-38.918873946836804
 10
49.88492308706499
 20
-38.93298851191409
 10
49.872885381413525
 20
-38.98196684349179
 10
49.87130051214638
 20
-38.98917687039947
 10
49.85568119273931
 20
-39.069633797936184
 10
49.8532770505035
 20
-39.081276234705456
 10
49.845142014334954
 20
-39.118435315644604
 10
49.84246175896543
 20
-39.13001730446229
 10
49.84021982221024
 20
-39.13920647476403
 10
49.83726496886858
 20
-39.15072146827467
 10
49.827372754049016
 20
-39.18745183984496
 10
49.82414497312844
 20
-39.19889332856575
 10
49.713872544212535
 20
-39.5727104897587
 10
49.7103736603935
 20
-39.58407200575973
 10
49.69874663223316
 20
-39.6202906242575
 10
49.69497862345199
 20
-39.63156574481758
 10
49.69187418282614
 20
-39.640500484861285
 10
49.68783917915679
 20
-39.65168283609911
 10
49.67450362520575
 20
-39.6873078148433
 10
49.670203907655704
 20
-39.69839107532059
 10
49.524930842567485
 20
-40.06004701007245
 10
49.52036884178826
 20
-40.0710249143674
 10
49.50535491240258
 20
-40.10597570883791
 10
49.500533207315755
 20
-40.116842051087026
 10
49.49659432227169
 20
-40.12544160432311
 10
49.491515638610956
 20
-40.13619024172942
 10
49.47485727878622
 20
-40.17038783166887
 10
49.469524487556484
 20
-40.18101268797471
 10
49.290563835298975
 20
-40.527238573091815
 10
49.284979951153446
 20
-40.53773364201344
 10
49.26671482377814
 20
-40.57110071008503
 10
49.2608830033141
 20
-40.58146005870814
 10
49.25614527542133
 20
-40.589646698168536
 10
49.25006881539575
 20
-40.59986447030213
 10
49.23023821609975
 20
-40.63232557689549
 10
49.223920551565335
 20
-40.642395996382746
 10
49.01288984602826
 20
-40.970062473005335
 10
49.00633454839197
 20
-40.979979846988385
 10
48.9849833121804
 20
-41.01146160078244
 10
48.978194087184455
 20
-41.02122032292067
 10
48.972700338344126
 20
-41.02892005375526
 10
48.965681023970774
 20
-41.0385146073951
 10
48.94285742385722
 20
-41.06894583128732
 10
48.9356119881596
 20
-41.078370792580124
 10
48.69441862805739
 20
-41.38451625085774
 10
48.68695116691606
 20
-41.393766291826374
 10
48.66270680478208
 20
-41.42307818385724
 10
48.655021539589676
 20
-41.4321480754079
 10
48.64882142499038
 20
-41.439291303683966
 10
48.640922700265236
 20
-41.44817591856221
 10
48.6153123901932
 20
-41.47630220747018
 10
48.60720467112333
 20
-41.48499652315942
 10
48.33802867999168
 20
-41.76685387073058
 10
48.32971654991071
 20
-41.775352972291216
 10
48.3027981942549
 20
-41.80223006734499
 10
48.29428635205099
 20
-41.81052915019296
 10
48.287435911360696
 20
-41.8170513119199
 10
48.278729168820426
 20
-41.82514568454256
 10
48.25056362729645
 20
-41.850712819312676
 10
48.24166690638424
 20
-41.858597905921336
 10
47.946941228462485
 20
-42.113619578245775
 10
47.937859558538406
 20
-42.12129092136221
 10
47.908510510623
 20
-42.14549029111013
 10
47.89924902559996
 20
-42.15294355408614
 10
47.89181017645138
 20
-42.15878569877706
 10
47.882374111892766
 20
-42.16601666824614
 10
47.851907912854244
 20
-42.188793560611934
 10
47.84230260301378
 20
-42.19579814887148
 10
47.5246911131047
 20
-42.42167913536492
 10
47.51492198791131
 20
-42.428453382686705
 10
47.48340751878359
 20
-42.44975630139107
 10
47.47348010077216
 20
-42.45629637825951
 10
47.46552007912149
 20
-42.461405701753854
 10
47.45543998031039
 20
-42.46770791103125
 10
47.42294849216266
 20
-42.48748869230126
 10
47.41272141088143
 20
-42.49354947131763
 10
47.07509483694801
 20
-42.6882481491647
 10
47.06472655461614
 20
-42.69406407173178
 10
47.03133150745909
 20
-42.71227799319595
 10
47.02082788531781
 20
-42.71784577154397
 10
47.01241863773356
 20
-42.722176093277284
 10
47.001785613532384
 20
-42.72749257991364
 10
46.967562510234224
 20
-42.74409846171359
 10
46.95680609487405
 20
-42.74916065120221
 10
46.60221607099608
 20
-42.91091723854187
 10
46.59134234513161
 20
-42.91572226920205
 10
46.55636856071216
 20
-42.930682567096916
 10
46.545383671314475
 20
-42.93522772262103
 10
46.53660120468862
 20
-42.93873990302789
 10
46.52551136156981
 20
-42.94302261401713
 10
46.4898659682645
 20
-42.95630350426675
 10
46.478677440567495
 20
-42.96032134968352
 10
46.110328924781314
 20
-43.087673811377684
 10
46.0990480374362
 20
-43.09142451991406
 10
46.06281162592074
 20
-43.102995975751426
 10
46.05144475606869
 20
-43.106477427113404
 10
46.04236845062896
 20
-43.10913972138992
 10
46.0309220240176
 20
-43.11234994749587
 10
45.99417652120095
 20
-43.12218580701451
 10
45.982657008551904
 20
-43.125122993107716
 10
45.6038793148713
 20
-43.21692025533028
 10
45.592293228221834
 20
-43.21958274100498
 10
45.555121712017836
 20
-43.227660766308375
 10
45.54347560103981
 20
-43.2300470464483
 10
45.534187492873805
 20
-43.231835391476736
 10
45.5224879411712
 20
-43.23394411710594
 10
45.48497445266674
 20
-43.24024604458538
 10
45.47322807405406
 20
-43.24207602363083
 10
45.087444780503006
 20
-43.29748837783542
 10
45.07565821526605
 20
-43.29903857580093
 10
45.03788756871446
 20
-43.30355015742739
 10
45.026067479856664
 20
-43.30481969797842
 10
45.01665151942776
 20
-43.30571792982196
 10
45.0048045889036
 20
-43.30670609528097
 10
44.96686217996523
 20
-43.309417130818886
 10
44.954995104902906
 20
-43.31012336257107
 10
44.54431121739833
 20
-43.32966751368637
 10
44.53837222173539
 20
-43.32991477342854
 10
44.519363404000785
 20
-43.330593011523
 10
44.51342188857959
 20
-43.330769650589865
 10
44.50867438722857
 20
-43.33088255179208
 10
44.50273119177032
 20
-43.330988545219036
 10
44.48371162217936
 20
-43.331214667193144
 10
44.477767586643246
 20
-43.331250000000004
 10
12.403454201093572
 20
-43.331250000000004
 10
12.39609885360405
 20
-43.331430563646
 10
12.345891464718107
 20
-43.33389709449712
  0
LWPOLYLINE
  5
8D
330
17
100
AcDbEntity
  8
CUTOUTS
100
AcDbPolyline
 90
5
 70
1
 10
28.912499999999994
 20
-45.35625
 10
28.912499999999994
 20
-60.35625
 10
13.912499999999994
 20
-60.35625
 10
13.912499999999994
 20
-45.35625
 10
28.912499999999994
 20
-45.35625
  0
LWPOLYLINE
  5
8E
330
17
100
AcDbEntity
  8
CUTOUTS
100
AcDbPolyline
 90
5
 70
1
 10
28.912499999999994
 20
-64.40625
 10
28.912499999999994
 20
-79.40625
 10
13.912499999999994
 20
-79.40625
 10
13.912499999999994
 20
-64.40625
 10
28.912499999999994
 20
-64.40625
  0
LWPOLYLINE
  5
8F
330
17
100
AcDbEntity
  8
CUTOUTS
100
AcDbPolyline
 90
5
 70
1
 10
28.912499999999994
 20
-83.45625
 10
28.912499999999994
 20
-98.45625
 10
13.912499999999994
 20
-98.45625
 10
13.912499999999994
 20
-83.45625
 10
28.912499999999994
 20
-83.45625
  0
LWPOLYLINE
  5
90
330
17
100
AcDbEntity
  8
CUTOUTS
100
AcDbPolyline
 90
5
 70
1
 10
47.962500000000006
 20
-45.35625
 10
47.962500000000006
 20
-60.35625
 10
32.962500000000006
 20
-60.35625
 10
32.962500000000006
 20
-45.35625
 10
47.962500000000006
 20
-45.35625
  0
LWPOLYLINE
  5
91
330
17
100
AcDbEntity
  8
CUTOUTS
100
AcDbPolyline
 90
5
 70
1
 10
47.962500000000006
 20
-64.40625
 10
47.962500000000006
 20
-79.40625
 10
32.962500000000006
 20
-79.40625
 10
32.962500000000006
 20
-64.40625
 10
47.962500000000006
 20
-64.40625
  0
LWPOLYLINE
  5
92
330
17
100
AcDbEntity
  8
CUTOUTS
100
AcDbPolyline
 90
5
 70
1
 10
47.962500000000006
 20
-83.45625
 10
47.962500000000006
 20
-98.45625
 10
32.962500000000006
 20
-98.45625
 10
32.962500000000006
 20
-83.45625
 10
47.962500000000006
 20
-83.45625
  0
LWPOLYLINE
  5
93
330
17
100
AcDbEntity
  8
CUTOUTS
100
AcDbPolyline
 90
5
 70
1
 10
67.0125
 20
-40.59375
 10
67.0125
 20
-55.59375
 10
52.0125
 20
-55.59375
 10
52.0125
 20
-40.59375
 10
67.0125
 20
-40.59375
  0
LWPOLYLINE
  5
94
330
17
100
AcDbEntity
  8
CUTOUTS
100
AcDbPolyline
 90
5
 70
1
 10
67.0125
 20
-59.64375
 10
67.0125
 20
-74.64375
 10
52.0125
 20
-74.64375
 10
52.0125
 20
-59.64375
 10
67.0125
 20
-59.64375
  0
LWPOLYLINE
  5
95
330
17
100
AcDbEntity
  8
CUTOUTS
100
AcDbPolyline
 90
5
 70
1
 10
67.0125
 20
-78.69375
 10
67.0125
 20
-93.69375
 10
52.0125
 20
-93.69375
 10
52.0125
 20
-78.69375
 10
67.0125
 20
-78.69375
  0
LWPOLYLINE
  5
96
330
17
100
AcDbEntity
  8
CUTOUTS
100
AcDbPolyline
 90
5
 70
1
 10
86.0625
 20
-38.2125
 10
86.0625
 20
-53.2125
 10
71.0625
 20
-53.2125
 10
71.0625
 20
-38.2125
 10
86.0625
 20
-38.2125
  0
LWPOLYLINE
  5
97
330
17
100
AcDbEntity
  8
CUTOUTS
100
AcDbPolyline
 90
5
 70
1
 10
86.0625
 20
-57.2625
 10
86.0625
 20
-72.2625
 10
71.0625
 20
-72.2625
 10
71.0625
 20
-57.2625
 10
86.0625
 20
-57.2625
  0
LWPOLYLINE
  5
98
330
17
100
AcDbEntity
  8
CUTOUTS
100
AcDbPolyline
 90
5
 70
1
 10
86.0625
 20
-76.3125
 10
86.0625
 20
-91.3125
 10
71.0625
 20
-91.3125
 10
71.0625
 20
-76.3125
 10
86.0625
 20
-76.3125
  0
LWPOLYLINE
  5
99
330
17
100
AcDbEntity
  8
CUTOUTS
100
AcDbPolyline
 90
5
 70
1
 10
105.1125
 20
-40.59375
 10
105.1125
 20
-55.59375
 10
90.1125
 20
-55.59375
 10
90.1125
 20
-40.59375
 10
105.1125
 20
-40.59375
  0
LWPOLYLINE
  5
9A
330
17
100
AcDbEntity
  8
CUTOUTS
100
AcDbPolyline
 90
5
 70
1
 10
105.1125
 20
-59.64375
 10
105.1125
 20
-74.64375
 10
90.1125
 20
-74.64375
 10
90.1125
 20
-59.64375
 10
105.1125
 20
-59.64375
  0
LWPOLYLINE
  5
9B
330
17
100
AcDbEntity
  8
CUTOUTS
100
AcDbPolyline
 90
5
 70
1
 10
105.1125
 20
-78.69375
 10
105.1125
 20
-93.69375
 10
90.1125
 20
-93.69375
 10
90.1125
 20
-78.69375
 10
105.1125
 20
-78.69375
  0
LWPOLYLINE
  5
9C
330
17
100
AcDbEntity
  8
CUTOUTS
100
AcDbPolyline
 90
5
 70
1
 10
124.1625
 20
-42.975
 10
124.1625
 20
-57.975
 10
109.1625
 20
-57.975
 10
109.1625
 20
-42.975
 10
124.1625
 20
-42.975
  0
LWPOLYLINE
  5
9D
330
17
100
AcDbEntity
  8
CUTOUTS
100
AcDbPolyline
 90
5
 70
1
 10
124.1625
 20
-62.025000000000006
 10
124.1625
 20
-77.025
 10
109.1625
 20
-77.025
 10
109.1625
 20
-62.025000000000006
 10
124.1625
 20
-62.025000000000006
  0
LWPOLYLINE
  5
9E
330
17
100
AcDbEntity
  8
CUTOUTS
100
AcDbPolyline
 90
5
 70
1
 10
124.1625
 20
-81.075
 10
124.1625
 20
-96.075
 10
109.1625
 20
-96.075
 10
109.1625
 20
-81.075
 10
124.1625
 20
-81.075
  0
LWPOLYLINE
  5
9F
330
17
100
AcDbEntity
  8
CUTOUTS
100
AcDbPolyline
 90
5
 70
1
 10
95.5875
 20
-100.125
 10
95.5875
 20
-115.125
 10
80.5875
 20
-115.125
 10
80.5875
 20
-100.125
 10
95.5875
 20
-100.125
  0
LWPOLYLINE
  5
A0
330
17
100
AcDbEntity
  8
CUTOUTS
100
AcDbPolyline
 90
5
 70
1
 10
117.7914163915792
 20
-104.01559555690748
 10
114.68810744309252
 20
-118.6910673915792
 10
100.01263560842081
 20
-115.5877584430925
 10
103.1159445569075
 20
-100.9122866084208
 10
117.7914163915792
 20
-104.01559555690748
  0
LWPOLYLINE
  5
A1
330
17
100
AcDbEntity
  8
CUTOUTS
100
AcDbPolyline
 90
5
 70
1
 10
126.92206829983724
 20
-101.98857989079708
 10
140.6379981092029
 20
-108.06091629983722
 10
134.56566170016276
 20
-121.77684610920288
 10
120.8497318907971
 20
-115.70450970016275
 10
126.92206829983724
 20
-101.98857989079708
  0
LWPOLYLINE
  5
A2
330
17
100
AcDbEntity
  8
CUTOUTS
100
AcDbPolyline
 90
5
 70
1
 10
143.2125
 20
-62.025000000000006
 10
143.2125
 20
-77.025
 10
128.2125
 20
-77.025
 10
128.2125
 20
-62.025000000000006
 10
143.2125
 20
-62.025000000000006
  0
LWPOLYLINE
  5
A3
330
17
100
AcDbEntity
  8
CUTOUTS
100
AcDbPolyline
 90
5
 70
1
 10
143.2125
 20
-42.975
 10
143.2125
 20
-57.975
 10
128.2125
 20
-57.975
 10
128.2125
 20
-42.975
 10
143.2125
 20
-42.975
  0
LWPOLYLINE
  5
A4
330
17
100
AcDbEntity
  8
CUTOUTS
100
AcDbPolyline
 90
129
 70
1
 10
33.6875
 20
-62.38125
 10
33.68418750456422
 20
-62.2463138955996
 10
33.674257998348544
 20
-62.11170286409371
 10
33.65773540240315
 20
-61.97774119524776
 10
33.63465952110889
 20
-61.844751614455646
 10
33.605085946284994
 20
-61.71305450526602
 10
33.56908592326357
 20
-61.58296713755023
 10
33.52674617925331
 20
-61.4548029031714
 10
33.47816871440604
 20
-61.328870560996
 10
33.42347055608947
 20
-61.20547349306673
 10
33.36278347695798
 20
-61.08490897372851
 10
33.29625367750075
 20
-60.96746745346864
 10
33.224041433832
 20
-60.85343185919609
 10
33.146320711571775
 20
-60.74307691264581
 10
33.06327874674753
 20
-60.63666846854998
 10
32.975115594726134
 20
-60.5344628741707
 10
32.88204364826301
 20
-60.436706351736994
 10
32.7842871258293
 20
-60.34363440527386
 10
32.682081531450024
 20
-60.25547125325247
 10
32.57567308735419
 20
-60.172429288428226
 10
32.46531814080391
 20
-60.094708566168
 10
32.35128254653136
 20
-60.02249632249925
 10
32.23384102627149
 20
-59.95596652304202
 10
32.113276506933275
 20
-59.89527944391053
 10
31.989879439003996
 20
-59.84058128559396
 10
31.863947096828603
 20
-59.79200382074669
 10
31.73578286244977
 20
-59.74966407673643
 10
31.605695494733975
 20
-59.71366405371501
 10
31.473998385544352
 20
-59.684090478891115
 10
31.341008804752246
 20
-59.66101459759685
 10
31.207047135906294
 20
-59.64449200165146
 10
31.0724361044004
 20
-59.63456249543578
 10
30.9375
 20
-59.63125
 10
30.8025638955996
 20
-59.63456249543578
 10
30.667952864093706
 20
-59.64449200165146
 10
30.533991195247754
 20
-59.66101459759685
 10
30.401001614455648
 20
-59.684090478891115
 10
30.269304505266025
 20
-59.71366405371501
 10
30.13921713755023
 20
-59.74966407673643
 10
30.011052903171397
 20
-59.79200382074669
 10
29.885120560996004
 20
-59.84058128559396
 10
29.761723493066725
 20
-59.89527944391053
 10
29.641158973728505
 20
-59.95596652304202
 10
29.52371745346864
 20
-60.02249632249925
 10
29.409681859196095
 20
-60.094708566168
 10
29.299326912645807
 20
-60.172429288428226
 10
29.192918468549976
 20
-60.25547125325247
 10
29.0907128741707
 20
-60.34363440527386
 10
28.992956351736993
 20
-60.436706351736994
 10
28.899884405273863
 20
-60.5344628741707
 10
28.811721253252472
 20
-60.63666846854998
 10
28.728679288428225
 20
-60.74307691264581
 10
28.650958566168
 20
-60.85343185919609
 10
28.578746322499253
 20
-60.96746745346864
 10
28.512216523042024
 20
-61.08490897372851
 10
28.45152944391053
 20
-61.20547349306673
 10
28.39683128559396
 20
-61.328870560996
 10
28.34825382074669
 20
-61.4548029031714
 10
28.305914076736425
 20
-61.58296713755023
 10
28.269914053715006
 20
-61.71305450526602
 10
28.240340478891117
 20
-61.844751614455646
 10
28.217264597596852
 20
-61.97774119524776
 10
28.20074200165146
 20
-62.11170286409371
 10
28.190812495435775
 20
-62.2463138955996
 10
28.1875
 20
-62.38125
 10
28.190812495435775
 20
-62.5161861044004
 10
28.20074200165146
 20
-62.650797135906295
 10
28.217264597596852
 20
-62.784758804752244
 10
28.240340478891117
 20
-62.91774838554436
 10
28.269914053715006
 20
-63.04944549473397
 10
28.305914076736425
 20
-63.179532862449776
 10
28.34825382074669
 20
-63.307697096828605
 10
28.39683128559396
 20
-63.433629439004
 10
28.45152944391053
 20
-63.557026506933276
 10
28.512216523042024
 20
-63.67759102627149
 10
28.578746322499253
 20
-63.79503254653136
 10
28.650958566168
 20
-63.90906814080391
 10
28.728679288428225
 20
-64.0194230873542
 10
28.811721253252472
 20
-64.12583153145003
 10
28.899884405273863
 20
-64.2280371258293
 10
28.992956351736993
 20
-64.325793648263
 10
29.0907128741707
 20
-64.41886559472614
 10
29.192918468549973
 20
-64.50702874674752
 10
29.29932691264581
 20
-64.59007071157177
 10
29.409681859196095
 20
-64.66779143383201
 10
29.52371745346864
 20
-64.74000367750075
 10
29.641158973728505
 20
-64.80653347695798
 10
29.76172349306672
 20
-64.86722055608946
 10
29.885120560996
 20
-64.92191871440603
 10
30.011052903171397
 20
-64.9704961792533
 10
30.13921713755023
 20
-65.01283592326358
 10
30.269304505266025
 20
-65.048835946285
 10
30.401001614455645
 20
-65.07840952110888
 10
30.533991195247754
 20
-65.10148540240314
 10
30.66795286409371
 20
-65.11800799834855
 10
30.8025638955996
 20
-65.12793750456423
 10
30.9375
 20
-65.13125
 10
31.0724361044004
 20
-65.12793750456423
 10
31.20704713590629
 20
-65.11800799834855
 10
31.341008804752246
 20
-65.10148540240314
 10
31.473998385544352
 20
-65.07840952110888
 10
31.605695494733975
 20
-65.048835946285
 10
31.73578286244977
 20
-65.01283592326358
 10
31.863947096828603
 20
-64.9704961792533
 10
31.989879439003996
 20
-64.92191871440603
 10
32.113276506933275
 20
-64.86722055608946
 10
32.23384102627149
 20
-64.80653347695798
 10
32.35128254653136
 20
-64.74000367750075
 10
32.4653181408039
 20
-64.66779143383201
 10
32.57567308735419
 20
-64.59007071157177
 10
32.682081531450024
 20
-64.50702874674752
 10
32.7842871258293
 20
-64.41886559472614
 10
32.88204364826301
 20
-64.325793648263
 10
32.975115594726134
 20
-64.2280371258293
 10
33.06327874674753
 20
-64.12583153145003
 10
33.146320711571775
 20
-64.0194230873542
 10
33.224041433832
 20
-63.90906814080391
 10
33.29625367750075
 20
-63.79503254653136
 10
33.36278347695797
 20
-63.67759102627149
 10
33.42347055608947
 20
-63.557026506933276
 10
33.47816871440604
 20
-63.433629439004
 10
33.52674617925331
 20
-63.307697096828605
 10
33.56908592326357
 20
-63.179532862449776
 10
33.605085946284994
 20
-63.04944549473398
 10
33.63465952110889
 20
-62.91774838554436
 10
33.65773540240315
 20
-62.78475880475225
 10
33.674257998348544
 20
-62.650797135906295
 10
33.68418750456422
 20
-62.516186104400404
 10
33.6875
 20
-62.38125
  0
LWPOLYLINE
  5
A5
330
17
100
AcDbEntity
  8
CUTOUTS
100
AcDbPolyline
 90
129
 70
1
 10
33.6875
 20
-81.43125
 10
33.68418750456422
 20
-81.29631389559961
 10
33.674257998348544
 20
-81.16170286409371
 10
33.65773540240315
 20
-81.02774119524776
 10
33.63465952110889
 20
-80.89475161445566
 10
33.605085946284994
 20
-80.76305450526603
 10
33.56908592326357
 20
-80.63296713755024
 10
33.52674617925331
 20
-80.5048029031714
 10
33.47816871440604
 20
-80.378870560996
 10
33.42347055608947
 20
-80.25547349306673
 10
33.36278347695798
 20
-80.13490897372851
 10
33.29625367750075
 20
-80.01746745346864
 10
33.224041433832
 20
-79.9034318591961
 10
33.146320711571775
 20
-79.79307691264582
 10
33.06327874674753
 20
-79.68666846854998
 10
32.975115594726134
 20
-79.58446287417071
 10
32.88204364826301
 20
-79.486706351737
 10
32.7842871258293
 20
-79.39363440527387
 10
32.682081531450024
 20
-79.30547125325248
 10
32.57567308735419
 20
-79.22242928842823
 10
32.46531814080391
 20
-79.144708566168
 10
32.35128254653136
 20
-79.07249632249926
 10
32.23384102627149
 20
-79.00596652304203
 10
32.113276506933275
 20
-78.94527944391054
 10
31.989879439003996
 20
-78.89058128559397
 10
31.863947096828603
 20
-78.8420038207467
 10
31.73578286244977
 20
-78.79966407673643
 10
31.605695494733975
 20
-78.763664053715
 10
31.473998385544352
 20
-78.73409047889112
 10
31.341008804752246
 20
-78.71101459759686
 10
31.207047135906294
 20
-78.69449200165147
 10
31.0724361044004
 20
-78.68456249543578
 10
30.9375
 20
-78.68125
 10
30.8025638955996
 20
-78.68456249543578
 10
30.667952864093706
 20
-78.69449200165147
 10
30.533991195247754
 20
-78.71101459759686
 10
30.401001614455648
 20
-78.73409047889112
 10
30.269304505266025
 20
-78.763664053715
 10
30.13921713755023
 20
-78.79966407673643
 10
30.011052903171397
 20
-78.8420038207467
 10
29.885120560996004
 20
-78.89058128559397
 10
29.761723493066725
 20
-78.94527944391054
 10
29.641158973728505
 20
-79.00596652304203
 10
29.52371745346864
 20
-79.07249632249926
 10
29.409681859196095
 20
-79.144708566168
 10
29.299326912645807
 20
-79.22242928842823
 10
29.192918468549976
 20
-79.30547125325248
 10
29.0907128741707
 20
-79.39363440527387
 10
28.992956351736993
 20
-79.486706351737
 10
28.899884405273863
 20
-79.58446287417071
 10
28.811721253252472
 20
-79.68666846854998
 10
28.728679288428225
 20
-79.79307691264582
 10
28.650958566168
 20
-79.9034318591961
 10
28.578746322499253
 20
-80.01746745346864
 10
28.512216523042024
 20
-80.13490897372851
 10
28.45152944391053
 20
-80.25547349306673
 10
28.39683128559396
 20
-80.378870560996
 10
28.34825382074669
 20
-80.5048029031714
 10
28.305914076736425
 20
-80.63296713755024
 10
28.269914053715006
 20
-80.76305450526603
 10
28.240340478891117
 20
-80.89475161445566
 10
28.217264597596852
 20
-81.02774119524776
 10
28.20074200165146
 20
-81.16170286409371
 10
28.190812495435775
 20
-81.29631389559961
 10
28.1875
 20
-81.43125
 10
28.190812495435775
 20
-81.5661861044004
 10
28.20074200165146
 20
-81.7007971359063
 10
28.217264597596852
 20
-81.83475880475225
 10
28.240340478891117
 20
-81.96774838554435
 10
28.269914053715006
 20
-82.09944549473398
 10
28.305914076736425
 20
-82.22953286244977
 10
28.34825382074669
 20
-82.35769709682862
 10
28.39683128559396
 20
-82.483629439004
 10
28.45152944391053
 20
-82.60702650693328
 10
28.512216523042024
 20
-82.7275910262715
 10
28.578746322499253
 20
-82.84503254653137
 10
28.650958566168
 20
-82.95906814080391
 10
28.728679288428225
 20
-83.0694230873542
 10
28.811721253252472
 20
-83.17583153145003
 10
28.899884405273863
 20
-83.2780371258293
 10
28.992956351736993
 20
-83.37579364826301
 10
29.0907128741707
 20
-83.46886559472614
 10
29.192918468549973
 20
-83.55702874674753
 10
29.29932691264581
 20
-83.64007071157178
 10
29.409681859196095
 20
-83.717791433832
 10
29.52371745346864
 20
-83.79000367750075
 10
29.641158973728505
 20
-83.85653347695798
 10
29.76172349306672
 20
-83.91722055608948
 10
29.885120560996
 20
-83.97191871440604
 10
30.011052903171397
 20
-84.02049617925331
 10
30.13921713755023
 20
-84.06283592326358
 10
30.269304505266025
 20
-84.098835946285
 10
30.401001614455645
 20
-84.12840952110889
 10
30.533991195247754
 20
-84.15148540240315
 10
30.66795286409371
 20
-84.16800799834854
 10
30.8025638955996
 20
-84.17793750456423
 10
30.9375
 20
-84.18125
 10
31.0724361044004
 20
-84.17793750456423
 10
31.20704713590629
 20
-84.16800799834854
 10
31.341008804752246
 20
-84.15148540240315
 10
31.473998385544352
 20
-84.12840952110889
 10
31.605695494733975
 20
-84.098835946285
 10
31.73578286244977
 20
-84.06283592326358
 10
31.863947096828603
 20
-84.02049617925331
 10
31.989879439003996
 20
-83.97191871440604
 10
32.113276506933275
 20
-83.91722055608948
 10
32.23384102627149
 20
-83.85653347695798
 10
32.35128254653136
 20
-83.79000367750075
 10
32.4653181408039
 20
-83.717791433832
 10
32.57567308735419
 20
-83.64007071157178
 10
32.682081531450024
 20
-83.55702874674753
 10
32.7842871258293
 20
-83.46886559472614
 10
32.88204364826301
 20
-83.37579364826301
 10
32.975115594726134
 20
-83.2780371258293
 10
33.06327874674753
 20
-83.17583153145003
 10
33.146320711571775
 20
-83.0694230873542
 10
33.224041433832
 20
-82.95906814080391
 10
33.29625367750075
 20
-82.84503254653137
 10
33.36278347695797
 20
-82.7275910262715
 10
33.42347055608947
 20
-82.60702650693328
 10
33.47816871440604
 20
-82.483629439004
 10
33.52674617925331
 20
-82.35769709682862
 10
33.56908592326357
 20
-82.22953286244977
 10
33.605085946284994
 20
-82.09944549473398
 10
33.63465952110889
 20
-81.96774838554435
 10
33.65773540240315
 20
-81.83475880475225
 10
33.674257998348544
 20
-81.7007971359063
 10
33.68418750456422
 20
-81.5661861044004
 10
33.6875
 20
-81.43125
  0
LWPOLYLINE
  5
A6
330
17
100
AcDbEntity
  8
CUTOUTS
100
AcDbPolyline
 90
129
 70
1
 10
71.7875
 20
-56.428125
 10
71.78418750456422
 20
-56.2931888955996
 10
71.77425799834853
 20
-56.15857786409371
 10
71.75773540240314
 20
-56.02461619524776
 10
71.73465952110888
 20
-55.891626614455646
 10
71.705085946285
 20
-55.75992950526602
 10
71.66908592326357
 20
-55.62984213755023
 10
71.6267461792533
 20
-55.5016779031714
 10
71.57816871440603
 20
-55.375745560996
 10
71.52347055608946
 20
-55.25234849306673
 10
71.46278347695797
 20
-55.13178397372851
 10
71.39625367750074
 20
-55.01434245346864
 10
71.324041433832
 20
-54.90030685919609
 10
71.24632071157177
 20
-54.78995191264581
 10
71.16327874674752
 20
-54.68354346854998
 10
71.07511559472613
 20
-54.5813378741707
 10
70.982043648263
 20
-54.483581351736994
 10
70.88428712582929
 20
-54.39050940527386
 10
70.78208153145002
 20
-54.30234625325247
 10
70.67567308735418
 20
-54.219304288428226
 10
70.5653181408039
 20
-54.141583566168
 10
70.45128254653136
 20
-54.06937132249925
 10
70.33384102627149
 20
-54.00284152304202
 10
70.21327650693327
 20
-53.94215444391053
 10
70.089879439004
 20
-53.88745628559396
 10
69.9639470968286
 20
-53.83887882074669
 10
69.83578286244976
 20
-53.79653907673643
 10
69.70569549473397
 20
-53.76053905371501
 10
69.57399838554434
 20
-53.730965478891115
 10
69.44100880475224
 20
-53.70788959759685
 10
69.30704713590629
 20
-53.69136700165146
 10
69.17243610440039
 20
-53.68143749543578
 10
69.0375
 20
-53.678125
 10
68.9025638955996
 20
-53.68143749543578
 10
68.7679528640937
 20
-53.69136700165146
 10
68.63399119524775
 20
-53.70788959759685
 10
68.50100161445565
 20
-53.730965478891115
 10
68.36930450526602
 20
-53.76053905371501
 10
68.23921713755023
 20
-53.79653907673643
 10
68.11105290317138
 20
-53.83887882074669
 10
67.985120560996
 20
-53.88745628559396
 10
67.86172349306672
 20
-53.94215444391053
 10
67.7411589737285
 20
-54.00284152304202
 10
67.62371745346863
 20
-54.06937132249925
 10
67.50968185919609
 20
-54.141583566168
 10
67.3993269126458
 20
-54.219304288428226
 10
67.29291846854997
 20
-54.30234625325247
 10
67.1907128741707
 20
-54.39050940527386
 10
67.09295635173699
 20
-54.483581351736994
 10
66.99988440527386
 20
-54.5813378741707
 10
66.91172125325247
 20
-54.68354346854998
 10
66.82867928842822
 20
-54.78995191264581
 10
66.750958566168
 20
-54.90030685919609
 10
66.67874632249925
 20
-55.01434245346864
 10
66.61221652304202
 20
-55.13178397372851
 10
66.55152944391052
 20
-55.25234849306673
 10
66.49683128559396
 20
-55.375745560996
 10
66.44825382074669
 20
-55.5016779031714
 10
66.40591407673642
 20
-55.62984213755023
 10
66.369914053715
 20
-55.75992950526602
 10
66.34034047889111
 20
-55.891626614455646
 10
66.31726459759685
 20
-56.02461619524776
 10
66.30074200165146
 20
-56.15857786409371
 10
66.29081249543577
 20
-56.2931888955996
 10
66.2875
 20
-56.428125
 10
66.29081249543577
 20
-56.5630611044004
 10
66.30074200165146
 20
-56.697672135906295
 10
66.31726459759685
 20
-56.831633804752244
 10
66.34034047889111
 20
-56.96462338554436
 10
66.369914053715
 20
-57.09632049473397
 10
66.40591407673642
 20
-57.226407862449776
 10
66.44825382074669
 20
-57.354572096828605
 10
66.49683128559396
 20
-57.480504439004
 10
66.55152944391052
 20
-57.603901506933276
 10
66.61221652304202
 20
-57.72446602627149
 10
66.67874632249925
 20
-57.84190754653136
 10
66.750958566168
 20
-57.95594314080391
 10
66.82867928842822
 20
-58.06629808735419
 10
66.91172125325247
 20
-58.172706531450025
 10
66.99988440527386
 20
-58.2749121258293
 10
67.09295635173699
 20
-58.37266864826301
 10
67.1907128741707
 20
-58.465740594726135
 10
67.29291846854997
 20
-58.55390374674753
 10
67.3993269126458
 20
-58.63694571157178
 10
67.50968185919609
 20
-58.714666433832
 10
67.62371745346863
 20
-58.78687867750075
 10
67.7411589737285
 20
-58.85340847695798
 10
67.86172349306672
 20
-58.91409555608947
 10
67.985120560996
 20
-58.96879371440604
 10
68.11105290317138
 20
-59.01737117925331
 10
68.23921713755023
 20
-59.05971092326357
 10
68.36930450526602
 20
-59.095710946284996
 10
68.50100161445565
 20
-59.12528452110888
 10
68.63399119524775
 20
-59.14836040240315
 10
68.7679528640937
 20
-59.164882998348546
 10
68.9025638955996
 20
-59.17481250456422
 10
69.0375
 20
-59.178125
 10
69.17243610440039
 20
-59.17481250456422
 10
69.30704713590629
 20
-59.164882998348546
 10
69.44100880475224
 20
-59.14836040240315
 10
69.57399838554434
 20
-59.12528452110889
 10
69.70569549473397
 20
-59.095710946284996
 10
69.83578286244976
 20
-59.05971092326357
 10
69.9639470968286
 20
-59.01737117925331
 10
70.089879439004
 20
-58.96879371440604
 10
70.21327650693327
 20
-58.91409555608947
 10
70.33384102627149
 20
-58.85340847695798
 10
70.45128254653136
 20
-58.78687867750075
 10
70.5653181408039
 20
-58.714666433832
 10
70.67567308735418
 20
-58.63694571157178
 10
70.78208153145002
 20
-58.55390374674753
 10
70.88428712582929
 20
-58.46574059472614
 10
70.982043648263
 20
-58.37266864826301
 10
71.07511559472613
 20
-58.2749121258293
 10
71.16327874674752
 20
-58.172706531450025
 10
71.24632071157177
 20
-58.06629808735419
 10
71.324041433832
 20
-57.95594314080391
 10
71.39625367750074
 20
-57.84190754653136
 10
71.46278347695797
 20
-57.72446602627149
 10
71.52347055608946
 20
-57.603901506933276
 10
71.57816871440603
 20
-57.480504439004
 10
71.6267461792533
 20
-57.354572096828605
 10
71.66908592326357
 20
-57.226407862449776
 10
71.705085946285
 20
-57.09632049473398
 10
71.73465952110888
 20
-56.96462338554436
 10
71.75773540240314
 20
-56.83163380475225
 10
71.77425799834853
 20
-56.697672135906295
 10
71.78418750456422
 20
-56.563061104400404
 10
71.7875
 20
-56.428125
  0
LWPOLYLINE
  5
A7
330
17
100
AcDbEntity
  8
CUTOUTS
100
AcDbPolyline
 90
129
 70
1
 10
71.7875
 20
-75.478125
 10
71.78418750456422
 20
-75.34318889559961
 10
71.77425799834853
 20
-75.20857786409371
 10
71.75773540240314
 20
-75.07461619524776
 10
71.73465952110888
 20
-74.94162661445566
 10
71.705085946285
 20
-74.80992950526603
 10
71.66908592326357
 20
-74.67984213755024
 10
71.6267461792533
 20
-74.5516779031714
 10
71.57816871440603
 20
-74.425745560996
 10
71.52347055608946
 20
-74.30234849306673
 10
71.46278347695797
 20
-74.18178397372851
 10
71.39625367750074
 20
-74.06434245346864
 10
71.324041433832
 20
-73.9503068591961
 10
71.24632071157177
 20
-73.83995191264582
 10
71.16327874674752
 20
-73.73354346854998
 10
71.07511559472613
 20
-73.63133787417071
 10
70.982043648263
 20
-73.533581351737
 10
70.88428712582929
 20
-73.44050940527387
 10
70.78208153145002
 20
-73.35234625325248
 10
70.67567308735418
 20
-73.26930428842823
 10
70.5653181408039
 20
-73.191583566168
 10
70.45128254653136
 20
-73.11937132249926
 10
70.33384102627149
 20
-73.05284152304203
 10
70.21327650693327
 20
-72.99215444391054
 10
70.089879439004
 20
-72.93745628559397
 10
69.9639470968286
 20
-72.8888788207467
 10
69.83578286244976
 20
-72.84653907673643
 10
69.70569549473397
 20
-72.810539053715
 10
69.57399838554434
 20
-72.78096547889112
 10
69.44100880475224
 20
-72.75788959759686
 10
69.30704713590629
 20
-72.74136700165147
 10
69.17243610440039
 20
-72.73143749543578
 10
69.0375
 20
-72.728125
 10
68.9025638955996
 20
-72.73143749543578
 10
68.7679528640937
 20
-72.74136700165147
 10
68.63399119524775
 20
-72.75788959759686
 10
68.50100161445565
 20
-72.78096547889112
 10
68.36930450526602
 20
-72.810539053715
 10
68.23921713755023
 20
-72.84653907673643
 10
68.11105290317138
 20
-72.8888788207467
 10
67.985120560996
 20
-72.93745628559397
 10
67.86172349306672
 20
-72.99215444391054
 10
67.7411589737285
 20
-73.05284152304203
 10
67.62371745346863
 20
-73.11937132249926
 10
67.50968185919609
 20
-73.191583566168
 10
67.3993269126458
 20
-73.26930428842823
 10
67.29291846854997
 20
-73.35234625325248
 10
67.1907128741707
 20
-73.44050940527387
 10
67.09295635173699
 20
-73.533581351737
 10
66.99988440527386
 20
-73.63133787417071
 10
66.91172125325247
 20
-73.73354346854998
 10
66.82867928842822
 20
-73.83995191264582
 10
66.750958566168
 20
-73.9503068591961
 10
66.67874632249925
 20
-74.06434245346864
 10
66.61221652304202
 20
-74.18178397372851
 10
66.55152944391052
 20
-74.30234849306673
 10
66.49683128559396
 20
-74.425745560996
 10
66.44825382074669
 20
-74.5516779031714
 10
66.40591407673642
 20
-74.67984213755024
 10
66.369914053715
 20
-74.80992950526603
 10
66.34034047889111
 20
-74.94162661445566
 10
66.31726459759685
 20
-75.07461619524776
 10
66.30074200165146
 20
-75.20857786409371
 10
66.29081249543577
 20
-75.34318889559961
 10
66.2875
 20
-75.478125
 10
66.29081249543577
 20
-75.6130611044004
 10
66.30074200165146
 20
-75.7476721359063
 10
66.31726459759685
 20
-75.88163380475225
 10
66.34034047889111
 20
-76.01462338554435
 10
66.369914053715
 20
-76.14632049473398
 10
66.40591407673642
 20
-76.27640786244977
 10
66.44825382074669
 20
-76.40457209682862
 10
66.49683128559396
 20
-76.530504439004
 10
66.55152944391052
 20
-76.65390150693328
 10
66.61221652304202
 20
-76.7744660262715
 10
66.67874632249925
 20
-76.89190754653137
 10
66.750958566168
 20
-77.00594314080391
 10
66.82867928842822
 20
-77.1162980873542
 10
66.91172125325247
 20
-77.22270653145003
 10
66.99988440527386
 20
-77.3249121258293
 10
67.09295635173699
 20
-77.42266864826301
 10
67.1907128741707
 20
-77.51574059472614
 10
67.29291846854997
 20
-77.60390374674753
 10
67.3993269126458
 20
-77.68694571157178
 10
67.50968185919609
 20
-77.764666433832
 10
67.62371745346863
 20
-77.83687867750075
 10
67.7411589737285
 20
-77.90340847695798
 10
67.86172349306672
 20
-77.96409555608948
 10
67.985120560996
 20
-78.01879371440604
 10
68.11105290317138
 20
-78.06737117925331
 10
68.23921713755023
 20
-78.10971092326358
 10
68.36930450526602
 20
-78.145710946285
 10
68.50100161445565
 20
-78.17528452110889
 10
68.63399119524775
 20
-78.19836040240315
 10
68.7679528640937
 20
-78.21488299834854
 10
68.9025638955996
 20
-78.22481250456423
 10
69.0375
 20
-78.228125
 10
69.17243610440039
 20
-78.22481250456423
 10
69.30704713590629
 20
-78.21488299834854
 10
69.44100880475224
 20
-78.19836040240315
 10
69.57399838554434
 20
-78.17528452110889
 10
69.70569549473397
 20
-78.145710946285
 10
69.83578286244976
 20
-78.10971092326358
 10
69.9639470968286
 20
-78.06737117925331
 10
70.089879439004
 20
-78.01879371440604
 10
70.21327650693327
 20
-77.96409555608948
 10
70.33384102627149
 20
-77.90340847695798
 10
70.45128254653136
 20
-77.83687867750075
 10
70.5653181408039
 20
-77.764666433832
 10
70.67567308735418
 20
-77.68694571157178
 10
70.78208153145002
 20
-77.60390374674753
 10
70.88428712582929
 20
-77.51574059472614
 10
70.982043648263
 20
-77.42266864826301
 10
71.07511559472613
 20
-77.3249121258293
 10
71.16327874674752
 20
-77.22270653145003
 10
71.24632071157177
 20
-77.1162980873542
 10
71.324041433832
 20
-77.00594314080391
 10
71.39625367750074
 20
-76.89190754653137
 10
71.46278347695797
 20
-76.7744660262715
 10
71.52347055608946
 20
-76.65390150693328
 10
71.57816871440603
 20
-76.530504439004
 10
71.6267461792533
 20
-76.40457209682862
 10
71.66908592326357
 20
-76.27640786244977
 10
71.705085946285
 20
-76.14632049473398
 10
71.73465952110888
 20
-76.01462338554435
 10
71.75773540240314
 20
-75.88163380475225
 10
71.77425799834853
 20
-75.7476721359063
 10
71.78418750456422
 20
-75.6130611044004
 10
71.7875
 20
-75.478125
  0
LWPOLYLINE
  5
A8
330
17
100
AcDbEntity
  8
CUTOUTS
100
AcDbPolyline
 90
129
 70
1
 10
109.8875
 20
-77.859375
 10
109.88418750456422
 20
-77.7244388955996
 10
109.87425799834854
 20
-77.5898278640937
 10
109.85773540240315
 20
-77.45586619524775
 10
109.83465952110889
 20
-77.32287661445565
 10
109.805085946285
 20
-77.19117950526602
 10
109.76908592326357
 20
-77.06109213755023
 10
109.72674617925331
 20
-76.93292790317139
 10
109.67816871440604
 20
-76.806995560996
 10
109.62347055608947
 20
-76.68359849306673
 10
109.56278347695797
 20
-76.56303397372851
 10
109.49625367750075
 20
-76.44559245346863
 10
109.424041433832
 20
-76.3315568591961
 10
109.34632071157178
 20
-76.22120191264581
 10
109.26327874674753
 20
-76.11479346854998
 10
109.17511559472614
 20
-76.0125878741707
 10
109.08204364826301
 20
-75.91483135173699
 10
108.9842871258293
 20
-75.82175940527387
 10
108.88208153145003
 20
-75.73359625325247
 10
108.77567308735419
 20
-75.65055428842822
 10
108.6653181408039
 20
-75.572833566168
 10
108.55128254653137
 20
-75.50062132249926
 10
108.4338410262715
 20
-75.43409152304203
 10
108.31327650693328
 20
-75.37340444391053
 10
108.189879439004
 20
-75.31870628559396
 10
108.06394709682861
 20
-75.27012882074669
 10
107.93578286244977
 20
-75.22778907673643
 10
107.80569549473398
 20
-75.191789053715
 10
107.67399838554435
 20
-75.16221547889111
 10
107.54100880475225
 20
-75.13913959759685
 10
107.4070471359063
 20
-75.12261700165146
 10
107.2724361044004
 20
-75.11268749543578
 10
107.1375
 20
-75.109375
 10
107.00256389559961
 20
-75.11268749543578
 10
106.86795286409371
 20
-75.12261700165146
 10
106.73399119524775
 20
-75.13913959759685
 10
106.60100161445565
 20
-75.16221547889111
 10
106.46930450526602
 20
-75.191789053715
 10
106.33921713755024
 20
-75.22778907673643
 10
106.21105290317139
 20
-75.27012882074669
 10
106.085120560996
 20
-75.31870628559396
 10
105.96172349306673
 20
-75.37340444391053
 10
105.84115897372851
 20
-75.43409152304203
 10
105.72371745346864
 20
-75.50062132249926
 10
105.6096818591961
 20
-75.572833566168
 10
105.49932691264581
 20
-75.65055428842822
 10
105.39291846854998
 20
-75.73359625325247
 10
105.29071287417071
 20
-75.82175940527387
 10
105.192956351737
 20
-75.91483135173699
 10
105.09988440527387
 20
-76.0125878741707
 10
105.01172125325247
 20
-76.11479346854998
 10
104.92867928842823
 20
-76.22120191264581
 10
104.850958566168
 20
-76.3315568591961
 10
104.77874632249926
 20
-76.44559245346863
 10
104.71221652304203
 20
-76.56303397372851
 10
104.65152944391053
 20
-76.68359849306673
 10
104.59683128559396
 20
-76.806995560996
 10
104.5482538207467
 20
-76.93292790317139
 10
104.50591407673643
 20
-77.06109213755023
 10
104.469914053715
 20
-77.19117950526602
 10
104.44034047889112
 20
-77.32287661445565
 10
104.41726459759685
 20
-77.45586619524775
 10
104.40074200165147
 20
-77.5898278640937
 10
104.39081249543578
 20
-77.7244388955996
 10
104.3875
 20
-77.859375
 10
104.39081249543578
 20
-77.9943111044004
 10
104.40074200165147
 20
-78.1289221359063
 10
104.41726459759685
 20
-78.26288380475225
 10
104.44034047889112
 20
-78.39587338554435
 10
104.469914053715
 20
-78.52757049473398
 10
104.50591407673643
 20
-78.65765786244977
 10
104.5482538207467
 20
-78.78582209682861
 10
104.59683128559396
 20
-78.911754439004
 10
104.65152944391053
 20
-79.03515150693327
 10
104.71221652304203
 20
-79.15571602627149
 10
104.77874632249926
 20
-79.27315754653137
 10
104.850958566168
 20
-79.3871931408039
 10
104.92867928842823
 20
-79.49754808735419
 10
105.01172125325247
 20
-79.60395653145002
 10
105.09988440527387
 20
-79.7061621258293
 10
105.192956351737
 20
-79.80391864826301
 10
105.29071287417071
 20
-79.89699059472613
 10
105.39291846854998
 20
-79.98515374674753
 10
105.49932691264581
 20
-80.06819571157178
 10
105.6096818591961
 20
-80.145916433832
 10
105.72371745346864
 20
-80.21812867750074
 10
105.84115897372851
 20
-80.28465847695797
 10
105.96172349306673
 20
-80.34534555608947
 10
106.085120560996
 20
-80.40004371440604
 10
106.21105290317139
 20
-80.44862117925331
 10
106.33921713755024
 20
-80.49096092326357
 10
106.46930450526602
 20
-80.526960946285
 10
106.60100161445565
 20
-80.55653452110889
 10
106.73399119524775
 20
-80.57961040240315
 10
106.86795286409371
 20
-80.59613299834854
 10
107.00256389559961
 20
-80.60606250456422
 10
107.1375
 20
-80.609375
 10
107.2724361044004
 20
-80.60606250456422
 10
107.4070471359063
 20
-80.59613299834854
 10
107.54100880475225
 20
-80.57961040240315
 10
107.67399838554435
 20
-80.55653452110889
 10
107.80569549473398
 20
-80.526960946285
 10
107.93578286244977
 20
-80.49096092326357
 10
108.06394709682861
 20
-80.44862117925331
 10
108.189879439004
 20
-80.40004371440604
 10
108.31327650693328
 20
-80.34534555608947
 10
108.4338410262715
 20
-80.28465847695797
 10
108.55128254653137
 20
-80.21812867750074
 10
108.6653181408039
 20
-80.145916433832
 10
108.77567308735419
 20
-80.06819571157178
 10
108.88208153145003
 20
-79.98515374674753
 10
108.9842871258293
 20
-79.89699059472613
 10
109.08204364826301
 20
-79.80391864826301
 10
109.17511559472614
 20
-79.7061621258293
 10
109.26327874674753
 20
-79.60395653145002
 10
109.34632071157178
 20
-79.49754808735419
 10
109.424041433832
 20
-79.3871931408039
 10
109.49625367750075
 20
-79.27315754653137
 10
109.56278347695797
 20
-79.15571602627149
 10
109.62347055608947
 20
-79.03515150693327
 10
109.67816871440604
 20
-78.911754439004
 10
109.72674617925331
 20
-78.78582209682861
 10
109.76908592326357
 20
-78.65765786244977
 10
109.805085946285
 20
-78.52757049473398
 10
109.83465952110889
 20
-78.39587338554435
 10
109.85773540240315
 20
-78.26288380475225
 10
109.87425799834854
 20
-78.1289221359063
 10
109.88418750456422
 20
-77.9943111044004
 10
109.8875
 20
-77.859375
  0
LWPOLYLINE
  5
A9
330
17
100
AcDbEntity
  8
CUTOUTS
100
AcDbPolyline
 90
129
 70
1
 10
101.25
 20
-108.7
 10
101.24668750456422
 20
-108.56506389559961
 10
101.23675799834854
 20
-108.43045286409371
 10
101.22023540240315
 20
-108.29649119524775
 10
101.19715952110889
 20
-108.16350161445565
 10
101.167585946285
 20
-108.03180450526602
 10
101.13158592326357
 20
-107.90171713755024
 10
101.08924617925331
 20
-107.77355290317139
 10
101.04066871440604
 20
-107.647620560996
 10
100.98597055608947
 20
-107.52422349306673
 10
100.92528347695797
 20
-107.40365897372851
 10
100.85875367750074
 20
-107.28621745346864
 10
100.786541433832
 20
-107.1721818591961
 10
100.70882071157178
 20
-107.06182691264581
 10
100.62577874674753
 20
-106.95541846854998
 10
100.53761559472613
 20
-106.85321287417071
 10
100.44454364826301
 20
-106.755456351737
 10
100.3467871258293
 20
-106.66238440527387
 10
100.24458153145002
 20
-106.57422125325247
 10
100.13817308735419
 20
-106.49117928842823
 10
100.0278181408039
 20
-106.413458566168
 10
99.91378254653137
 20
-106.34124632249926
 10
99.79634102627149
 20
-106.27471652304203
 10
99.67577650693327
 20
-106.21402944391053
 10
99.552379439004
 20
-106.15933128559396
 10
99.42644709682861
 20
-106.1107538207467
 10
99.29828286244977
 20
-106.06841407673643
 10
99.16819549473398
 20
-106.032414053715
 10
99.03649838554435
 20
-106.00284047889112
 10
98.90350880475225
 20
-105.97976459759685
 10
98.7695471359063
 20
-105.96324200165147
 10
98.6349361044004
 20
-105.95331249543578
 10
98.5
 20
-105.95
 10
98.3650638955996
 20
-105.95331249543578
 10
98.2304528640937
 20
-105.96324200165147
 10
98.09649119524775
 20
-105.97976459759685
 10
97.96350161445565
 20
-106.00284047889112
 10
97.83180450526602
 20
-106.032414053715
 10
97.70171713755023
 20
-106.06841407673643
 10
97.57355290317139
 20
-106.1107538207467
 10
97.447620560996
 20
-106.15933128559396
 10
97.32422349306673
 20
-106.21402944391053
 10
97.20365897372851
 20
-106.27471652304203
 10
97.08621745346863
 20
-106.34124632249926
 10
96.9721818591961
 20
-106.413458566168
 10
96.86182691264581
 20
-106.49117928842823
 10
96.75541846854998
 20
-106.57422125325247
 10
96.6532128741707
 20
-106.66238440527387
 10
96.55545635173699
 20
-106.755456351737
 10
96.46238440527387
 20
-106.85321287417071
 10
96.37422125325247
 20
-106.95541846854998
 10
96.29117928842822
 20
-107.06182691264581
 10
96.213458566168
 20
-107.1721818591961
 10
96.14124632249926
 20
-107.28621745346864
 10
96.07471652304203
 20
-107.40365897372851
 10
96.01402944391053
 20
-107.52422349306673
 10
95.95933128559396
 20
-107.647620560996
 10
95.91075382074669
 20
-107.77355290317139
 10
95.86841407673643
 20
-107.90171713755024
 10
95.832414053715
 20
-108.03180450526602
 10
95.80284047889111
 20
-108.16350161445565
 10
95.77976459759685
 20
-108.29649119524775
 10
95.76324200165146
 20
-108.43045286409371
 10
95.75331249543578
 20
-108.56506389559961
 10
95.75
 20
-108.7
 10
95.75331249543578
 20
-108.8349361044004
 10
95.76324200165146
 20
-108.9695471359063
 10
95.77976459759685
 20
-109.10350880475225
 10
95.80284047889111
 20
-109.23649838554435
 10
95.832414053715
 20
-109.36819549473398
 10
95.86841407673643
 20
-109.49828286244977
 10
95.91075382074669
 20
-109.62644709682861
 10
95.95933128559396
 20
-109.752379439004
 10
96.01402944391053
 20
-109.87577650693328
 10
96.07471652304203
 20
-109.9963410262715
 10
96.14124632249926
 20
-110.11378254653137
 10
96.213458566168
 20
-110.2278181408039
 10
96.29117928842822
 20
-110.33817308735419
 10
96.37422125325247
 20
-110.44458153145003
 10
96.46238440527387
 20
-110.5467871258293
 10
96.55545635173699
 20
-110.64454364826301
 10
96.6532128741707
 20
-110.73761559472614
 10
96.75541846854998
 20
-110.82577874674753
 10
96.86182691264581
 20
-110.90882071157178
 10
96.9721818591961
 20
-110.986541433832
 10
97.08621745346863
 20
-111.05875367750075
 10
97.20365897372851
 20
-111.12528347695797
 10
97.32422349306673
 20
-111.18597055608947
 10
97.447620560996
 20
-111.24066871440604
 10
97.57355290317139
 20
-111.28924617925331
 10
97.70171713755023
 20
-111.33158592326357
 10
97.83180450526602
 20
-111.367585946285
 10
97.96350161445565
 20
-111.39715952110889
 10
98.09649119524775
 20
-111.42023540240315
 10
98.2304528640937
 20
-111.43675799834854
 10
98.3650638955996
 20
-111.44668750456422
 10
98.5
 20
-111.45
 10
98.6349361044004
 20
-111.44668750456422
 10
98.7695471359063
 20
-111.43675799834854
 10
98.90350880475225
 20
-111.42023540240315
 10
99.03649838554435
 20
-111.39715952110889
 10
99.16819549473398
 20
-111.367585946285
 10
99.29828286244977
 20
-111.33158592326357
 10
99.42644709682861
 20
-111.28924617925331
 10
99.552379439004
 20
-111.24066871440604
 10
99.67577650693327
 20
-111.18597055608947
 10
99.79634102627149
 20
-111.12528347695797
 10
99.91378254653137
 20
-111.05875367750075
 10
100.0278181408039
 20
-110.986541433832
 10
100.13817308735419
 20
-110.90882071157178
 10
100.24458153145002
 20
-110.82577874674753
 10
100.3467871258293
 20
-110.73761559472614
 10
100.44454364826301
 20
-110.64454364826301
 10
100.53761559472613
 20
-110.5467871258293
 10
100.62577874674753
 20
-110.44458153145003
 10
100.70882071157178
 20
-110.33817308735419
 10
100.786541433832
 20
-110.2278181408039
 10
100.85875367750074
 20
-110.11378254653137
 10
100.92528347695797
 20
-109.9963410262715
 10
100.98597055608947
 20
-109.87577650693328
 10
101.04066871440604
 20
-109.752379439004
 10
101.08924617925331
 20
-109.62644709682861
 10
101.13158592326357
 20
-109.49828286244977
 10
101.167585946285
 20
-109.36819549473398
 10
101.19715952110889
 20
-109.23649838554435
 10
101.22023540240315
 20
-109.10350880475225
 10
101.23675799834854
 20
-108.9695471359063
 10
101.24668750456422
 20
-108.8349361044004
 10
101.25
 20
-108.7
  0
LWPOLYLINE
  5
AA
330
17
100
AcDbEntity
  8
CUTOUTS
100
AcDbPolyline
 90
129
 70
1
 10
52.7375
 20
-88.0
 10
52.73418750456422
 20
-87.8650638955996
 10
52.72425799834854
 20
-87.7304528640937
 10
52.707735402403145
 20
-87.59649119524775
 10
52.684659521108884
 20
-87.46350161445565
 10
52.65508594628499
 20
-87.33180450526602
 10
52.61908592326357
 20
-87.20171713755023
 10
52.576746179253306
 20
-87.07355290317139
 10
52.528168714406036
 20
-86.947620560996
 10
52.47347055608947
 20
-86.82422349306673
 10
52.412783476957976
 20
-86.70365897372851
 10
52.34625367750075
 20
-86.58621745346863
 10
52.274041433832
 20
-86.4721818591961
 10
52.19632071157177
 20
-86.36182691264581
 10
52.113278746747525
 20
-86.25541846854998
 10
52.02511559472613
 20
-86.1532128741707
 10
51.932043648263004
 20
-86.05545635173699
 10
51.8342871258293
 20
-85.96238440527387
 10
51.73208153145002
 20
-85.87422125325247
 10
51.62567308735419
 20
-85.79117928842822
 10
51.515318140803906
 20
-85.713458566168
 10
51.401282546531355
 20
-85.64124632249926
 10
51.28384102627149
 20
-85.57471652304203
 10
51.16327650693327
 20
-85.51402944391053
 10
51.039879439004
 20
-85.45933128559396
 10
50.9139470968286
 20
-85.41075382074669
 10
50.78578286244977
 20
-85.36841407673643
 10
50.655695494733976
 20
-85.332414053715
 10
50.52399838554435
 20
-85.30284047889111
 10
50.39100880475224
 20
-85.27976459759685
 10
50.25704713590629
 20
-85.26324200165146
 10
50.1224361044004
 20
-85.25331249543578
 10
49.9875
 20
-85.25
 10
49.852563895599594
 20
-85.25331249543578
 10
49.717952864093704
 20
-85.26324200165146
 10
49.583991195247755
 20
-85.27976459759685
 10
49.45100161445564
 20
-85.30284047889111
 10
49.31930450526602
 20
-85.332414053715
 10
49.18921713755022
 20
-85.36841407673643
 10
49.061052903171394
 20
-85.41075382074669
 10
48.935120560996
 20
-85.45933128559396
 10
48.81172349306672
 20
-85.51402944391053
 10
48.691158973728506
 20
-85.57471652304203
 10
48.57371745346864
 20
-85.64124632249926
 10
48.459681859196095
 20
-85.713458566168
 10
48.34932691264581
 20
-85.79117928842822
 10
48.24291846854997
 20
-85.87422125325247
 10
48.140712874170696
 20
-85.96238440527387
 10
48.04295635173699
 20
-86.05545635173699
 10
47.94988440527386
 20
-86.1532128741707
 10
47.86172125325247
 20
-86.25541846854998
 10
47.77867928842822
 20
-86.36182691264581
 10
47.700958566168
 20
-86.4721818591961
 10
47.628746322499246
 20
-86.58621745346863
 10
47.56221652304202
 20
-86.70365897372851
 10
47.50152944391053
 20
-86.82422349306673
 10
47.44683128559396
 20
-86.947620560996
 10
47.39825382074669
 20
-87.07355290317139
 10
47.355914076736425
 20
-87.20171713755023
 10
47.319914053715
 20
-87.33180450526602
 10
47.29034047889111
 20
-87.46350161445565
 10
47.26726459759685
 20
-87.59649119524775
 10
47.25074200165145
 20
-87.7304528640937
 10
47.240812495435776
 20
-87.8650638955996
 10
47.2375
 20
-88.0
 10
47.240812495435776
 20
-88.1349361044004
 10
47.25074200165145
 20
-88.2695471359063
 10
47.26726459759685
 20
-88.40350880475225
 10
47.29034047889111
 20
-88.53649838554435
 10
47.319914053715
 20
-88.66819549473398
 10
47.355914076736425
 20
-88.79828286244977
 10
47.39825382074669
 20
-88.92644709682861
 10
47.44683128559396
 20
-89.052379439004
 10
47.50152944391053
 20
-89.17577650693327
 10
47.56221652304202
 20
-89.29634102627149
 10
47.628746322499246
 20
-89.41378254653137
 10
47.700958566168
 20
-89.5278181408039
 10
47.77867928842822
 20
-89.63817308735419
 10
47.86172125325247
 20
-89.74458153145002
 10
47.94988440527386
 20
-89.8467871258293
 10
48.04295635173699
 20
-89.94454364826301
 10
48.140712874170696
 20
-90.03761559472613
 10
48.24291846854997
 20
-90.12577874674753
 10
48.34932691264581
 20
-90.20882071157178
 10
48.45968185919609
 20
-90.286541433832
 10
48.57371745346864
 20
-90.35875367750074
 10
48.691158973728506
 20
-90.42528347695797
 10
48.81172349306672
 20
-90.48597055608947
 10
48.935120560996
 20
-90.54066871440604
 10
49.061052903171394
 20
-90.58924617925331
 10
49.18921713755022
 20
-90.63158592326357
 10
49.31930450526602
 20
-90.667585946285
 10
49.45100161445564
 20
-90.69715952110889
 10
49.58399119524775
 20
-90.72023540240315
 10
49.717952864093704
 20
-90.73675799834854
 10
49.852563895599594
 20
-90.74668750456422
 10
49.9875
 20
-90.75
 10
50.12243610440039
 20
-90.74668750456422
 10
50.25704713590629
 20
-90.73675799834854
 10
50.39100880475224
 20
-90.72023540240315
 10
50.52399838554435
 20
-90.69715952110889
 10
50.65569549473397
 20
-90.667585946285
 10
50.785782862449764
 20
-90.63158592326357
 10
50.9139470968286
 20
-90.58924617925331
 10
51.039879439004
 20
-90.54066871440604
 10
51.16327650693327
 20
-90.48597055608947
 10
51.28384102627149
 20
-90.42528347695797
 10
51.401282546531355
 20
-90.35875367750074
 10
51.5153181408039
 20
-90.286541433832
 10
51.62567308735419
 20
-90.20882071157178
 10
51.73208153145002
 20
-90.12577874674753
 10
51.8342871258293
 20
-90.03761559472613
 10
51.932043648263004
 20
-89.94454364826301
 10
52.02511559472613
 20
-89.8467871258293
 10
52.113278746747525
 20
-89.74458153145002
 10
52.19632071157177
 20
-89.63817308735419
 10
52.274041433832
 20
-89.5278181408039
 10
52.34625367750075
 20
-89.41378254653137
 10
52.41278347695797
 20
-89.29634102627149
 10
52.47347055608947
 20
-89.17577650693327
 10
52.528168714406036
 20
-89.052379439004
 10
52.576746179253306
 20
-88.92644709682861
 10
52.61908592326357
 20
-88.79828286244977
 10
52.65508594628499
 20
-88.66819549473398
 10
52.684659521108884
 20
-88.53649838554435
 10
52.707735402403145
 20
-88.40350880475225
 10
52.72425799834854
 20
-88.2695471359063
 10
52.73418750456422
 20
-88.1349361044004
 10
52.7375
 20
-88.0
  0
LWPOLYLINE
  5
AB
330
17
100
AcDbEntity
  8
CUTOUTS
100
AcDbPolyline
 90
129
 70
1
 10
128.9375
 20
-79.05
 10
128.93418750456422
 20
-78.9150638955996
 10
128.92425799834854
 20
-78.7804528640937
 10
128.90773540240315
 20
-78.64649119524775
 10
128.8846595211089
 20
-78.51350161445565
 10
128.855085946285
 20
-78.38180450526602
 10
128.81908592326357
 20
-78.25171713755023
 10
128.7767461792533
 20
-78.12355290317139
 10
128.72816871440602
 20
-77.997620560996
 10
128.67347055608946
 20
-77.87422349306672
 10
128.612783476958
 20
-77.7536589737285
 10
128.54625367750074
 20
-77.63621745346863
 10
128.47404143383199
 20
-77.5221818591961
 10
128.39632071157178
 20
-77.41182691264581
 10
128.31327874674753
 20
-77.30541846854997
 10
128.22511559472613
 20
-77.2032128741707
 10
128.132043648263
 20
-77.10545635173699
 10
128.0342871258293
 20
-77.01238440527386
 10
127.93208153145002
 20
-76.92422125325247
 10
127.82567308735419
 20
-76.84117928842822
 10
127.7153181408039
 20
-76.763458566168
 10
127.60128254653137
 20
-76.69124632249925
 10
127.48384102627149
 20
-76.62471652304203
 10
127.36327650693327
 20
-76.56402944391053
 10
127.239879439004
 20
-76.50933128559396
 10
127.11394709682861
 20
-76.46075382074669
 10
126.98578286244977
 20
-76.41841407673643
 10
126.85569549473398
 20
-76.382414053715
 10
126.72399838554435
 20
-76.35284047889111
 10
126.59100880475225
 20
-76.32976459759685
 10
126.4570471359063
 20
-76.31324200165146
 10
126.3224361044004
 20
-76.30331249543578
 10
126.1875
 20
-76.3
 10
126.0525638955996
 20
-76.30331249543578
 10
125.9179528640937
 20
-76.31324200165146
 10
125.78399119524775
 20
-76.32976459759685
 10
125.65100161445565
 20
-76.35284047889111
 10
125.51930450526602
 20
-76.382414053715
 10
125.38921713755023
 20
-76.41841407673643
 10
125.26105290317139
 20
-76.46075382074669
 10
125.135120560996
 20
-76.50933128559396
 10
125.01172349306673
 20
-76.56402944391053
 10
124.89115897372851
 20
-76.62471652304203
 10
124.77371745346863
 20
-76.69124632249925
 10
124.6596818591961
 20
-76.763458566168
 10
124.54932691264581
 20
-76.84117928842822
 10
124.44291846854998
 20
-76.92422125325247
 10
124.3407128741707
 20
-77.01238440527386
 10
124.24295635173699
 20
-77.10545635173699
 10
124.14988440527387
 20
-77.2032128741707
 10
124.06172125325247
 20
-77.30541846854997
 10
123.97867928842822
 20
-77.41182691264581
 10
123.900958566168
 20
-77.5221818591961
 10
123.82874632249926
 20
-77.63621745346863
 10
123.76221652304203
 20
-77.7536589737285
 10
123.70152944391053
 20
-77.87422349306672
 10
123.64683128559396
 20
-77.997620560996
 10
123.59825382074669
 20
-78.12355290317139
 10
123.55591407673643
 20
-78.25171713755023
 10
123.519914053715
 20
-78.38180450526602
 10
123.49034047889111
 20
-78.51350161445565
 10
123.46726459759685
 20
-78.64649119524775
 10
123.45074200165146
 20
-78.7804528640937
 10
123.44081249543578
 20
-78.9150638955996
 10
123.4375
 20
-79.05
 10
123.44081249543578
 20
-79.18493610440039
 10
123.45074200165146
 20
-79.31954713590629
 10
123.46726459759685
 20
-79.45350880475225
 10
123.49034047889111
 20
-79.58649838554435
 10
123.519914053715
 20
-79.71819549473398
 10
123.55591407673643
 20
-79.84828286244976
 10
123.59825382074669
 20
-79.97644709682861
 10
123.64683128559396
 20
-80.102379439004
 10
123.70152944391053
 20
-80.22577650693327
 10
123.76221652304203
 20
-80.34634102627149
 10
123.82874632249926
 20
-80.46378254653136
 10
123.900958566168
 20
-80.5778181408039
 10
123.97867928842822
 20
-80.68817308735419
 10
124.06172125325247
 20
-80.79458153145002
 10
124.14988440527387
 20
-80.89678712582929
 10
124.24295635173699
 20
-80.994543648263
 10
124.3407128741707
 20
-81.08761559472613
 10
124.44291846854998
 20
-81.17577874674753
 10
124.54932691264581
 20
-81.25882071157177
 10
124.6596818591961
 20
-81.336541433832
 10
124.77371745346863
 20
-81.40875367750074
 10
124.89115897372851
 20
-81.47528347695797
 10
125.01172349306673
 20
-81.53597055608947
 10
125.135120560996
 20
-81.59066871440604
 10
125.26105290317139
 20
-81.6392461792533
 10
125.38921713755023
 20
-81.68158592326357
 10
125.51930450526602
 20
-81.717585946285
 10
125.65100161445565
 20
-81.74715952110888
 10
125.78399119524775
 20
-81.77023540240315
 10
125.9179528640937
 20
-81.78675799834853
 10
126.0525638955996
 20
-81.79668750456422
 10
126.1875
 20
-81.8
 10
126.3224361044004
 20
-81.79668750456422
 10
126.4570471359063
 20
-81.78675799834853
 10
126.59100880475225
 20
-81.77023540240315
 10
126.72399838554435
 20
-81.74715952110888
 10
126.85569549473398
 20
-81.717585946285
 10
126.98578286244977
 20
-81.68158592326357
 10
127.11394709682861
 20
-81.6392461792533
 10
127.239879439004
 20
-81.59066871440604
 10
127.36327650693327
 20
-81.53597055608947
 10
127.48384102627149
 20
-81.47528347695797
 10
127.60128254653137
 20
-81.40875367750074
 10
127.7153181408039
 20
-81.336541433832
 10
127.82567308735419
 20
-81.25882071157177
 10
127.93208153145002
 20
-81.17577874674753
 10
128.0342871258293
 20
-81.08761559472613
 10
128.132043648263
 20
-80.994543648263
 10
128.22511559472613
 20
-80.89678712582929
 10
128.31327874674753
 20
-80.79458153145002
 10
128.39632071157178
 20
-80.68817308735419
 10
128.47404143383199
 20
-80.5778181408039
 10
128.54625367750074
 20
-80.46378254653136
 10
128.612783476958
 20
-80.34634102627149
 10
128.67347055608946
 20
-80.22577650693327
 10
128.72816871440602
 20
-80.102379439004
 10
128.7767461792533
 20
-79.97644709682861
 10
128.81908592326357
 20
-79.84828286244976
 10
128.855085946285
 20
-79.71819549473398
 10
128.8846595211089
 20
-79.58649838554435
 10
128.90773540240315
 20
-79.45350880475225
 10
128.92425799834854
 20
-79.31954713590629
 10
128.93418750456422
 20
-79.18493610440039
 10
128.9375
 20
-79.05
  0
LWPOLYLINE
  5
AC
330
17
100
AcDbEntity
  8
CUTOUTS
100
AcDbPolyline
 90
5
 70
1
 10
143.2125
 20
-81.075
 10
143.2125
 20
-96.075
 10
128.2125
 20
-96.075
 10
128.2125
 20
-81.075
 10
143.2125
 20
-81.075
  0
ENDSEC
  0
SECTION
  2
OBJECTS
  0
DICTIONARY
  5
A
330
0
100
AcDbDictionary
281
1
  3
ACAD_COLOR
350
B
  3
ACAD_GROUP
350
C
  3
ACAD_LAYOUT
350
D
  3
ACAD_MATERIAL
350
E
  3
ACAD_MLEADERSTYLE
350
F
  3
ACAD_MLINESTYLE
350
10
  3
ACAD_PLOTSETTINGS
350
11
  3
ACAD_PLOTSTYLENAME
350
12
  3
ACAD_SCALELIST
350
14
  3
ACAD_TABLESTYLE
350
15
  3
ACAD_VISUALSTYLE
350
16
  3
EZDXF_META
350
2D
  0
DICTIONARY
  5
B
330
A
100
AcDbDictionary
281
1
  0
DICTIONARY
  5
C
330
A
100
AcDbDictionary
281
1
  0
DICTIONARY
  5
D
330
A
100
AcDbDictionary
281
1
  3
Model
350
1A
  3
Layout1
350
1E
  0
DICTIONARY
  5
E
330
A
100
AcDbDictionary
281
1
  3
ByBlock
350
1F
  3
ByLayer
350
20
  3
Global
350
21
  0
DICTIONARY
  5
F
330
A
100
AcDbDictionary
281
1
  3
Standard
350
2C
  0
DICTIONARY
  5
10
330
A
100
AcDbDictionary
281
1
  3
Standard
350
22
  0
DICTIONARY
  5
11
330
A
100
AcDbDictionary
281
1
  0
ACDBDICTIONARYWDFLT
  5
12
330
A
100
AcDbDictionary
281
1
  3
Normal
350
13
100
AcDbDictionaryWithDefault
340
13
  0
ACDBPLACEHOLDER
  5
13
330
12
  0
DICTIONARY
  5
14
330
A
100
AcDbDictionary
281
1
  0
DICTIONARY
  5
15
330
A
100
AcDbDictionary
281
1
  0
DICTIONARY
  5
16
330
A
100
AcDbDictionary
281
1
  3
2dWireframe
350
5A
  3
Basic
350
5B
  3
Brighten
350
5C
  3
ColorChange
350
5D
  3
Conceptual
350
5E
  3
Dim
350
5F
  3
EdgeColorOff
350
60
  3
Facepattern
350
61
  3
Flat
350
62
  3
FlatWithEdges
350
63
  3
Gouraud
350
64
  3
GouraudWithEdges
350
65
  3
Hidden
350
66
  3
JitterOff
350
67
  3
Linepattern
350
68
  3
Modeling
350
69
  3
OverhangOff
350
6A
  3
Realistic
350
6B
  3
Shaded
350
6C
  3
Shaded with edges
350
6D
  3
Shades of Gray
350
6E
  3
Sketchy
350
6F
  3
Thicken
350
70
  3
Wireframe
350
71
  3
X-Ray
350
72
  0
LAYOUT
  5
1A
330
D
100
AcDbPlotSettings
  1

  4
A3
  6

 40
7.5
 41
20.0
 42
7.5
 43
20.0
 44
420.0
 45
297.0
 46
0.0
 47
0.0
 48
0.0
 49
0.0
140
0.0
141
0.0
142
1.0
143
1.0
 70
1024
 72
1
 73
0
 74
5
  7

 75
16
 76
0
 77
2
 78
300
147
1.0
148
0.0
149
0.0
100
AcDbLayout
  1
Model
 70
1
 71
0
 10
0.0
 20
0.0
 11
420.0
 21
297.0
 12
0.0
 22
0.0
 32
0.0
 14
1e+20
 24
1e+20
 34
1e+20
 15
-1e+20
 25
-1e+20
 35
-1e+20
146
0.0
 13
0.0
 23
0.0
 33
0.0
 16
1.0
 26
0.0
 36
0.0
 17
0.0
 27
1.0
 37
0.0
 76
1
330
17
  0
LAYOUT
  5
1E
330
D
100
AcDbPlotSettings
  1

  4
A3
  6

 40
7.5
 41
20.0
 42
7.5
 43
20.0
 44
420.0
 45
297.0
 46
0.0
 47
0.0
 48
0.0
 49
0.0
140
0.0
141
0.0
142
1.0
143
1.0
 70
0
 72
1
 73
0
 74
5
  7

 75
16
 76
0
 77
2
 78
300
147
1.0
148
0.0
149
0.0
100
AcDbLayout
  1
Layout1
 70
1
 71
1
 10
0.0
 20
0.0
 11
420.0
 21
297.0
 12
0.0
 22
0.0
 32
0.0
 14
1e+20
 24
1e+20
 34
1e+20
 15
-1e+20
 25
-1e+20
 35
-1e+20
146
0.0
 13
0.0
 23
0.0
 33
0.0
 16
1.0
 26
0.0
 36
0.0
 17
0.0
 27
1.0
 37
0.0
 76
1
330
1B
  0
MATERIAL
  5
1F
102
{ACAD_REACTORS
330
E
102
}
330
E
100
AcDbMaterial
  1
ByBlock
  2

 70
0
 40
1.0
 71
1
 41
1.0
 91
-1023410177
 42
1.0
 72
1
  3

 73
1
 74
1
 75
1
 44
0.5
 73
0
 45
1.0
 46
1.0
 77
1
  4

 78
1
 79
1
170
1
 48
1.0
171
1
  6

172
1
173
1
174
1
140
1.0
141
1.0
175
1
  7

176
1
177
1
178
1
143
1.0
179
1
  8

270
1
271
1
272
1
145
1.0
146
1.0
273
1
  9

274
1
275
1
276
1
 42
1.0
 72
1
  3

 73
1
 74
1
 75
1
 94
63
  0
MATERIAL
  5
20
102
{ACAD_REACTORS
330
E
102
}
330
E
100
AcDbMaterial
  1
ByLayer
  2

 70
0
 40
1.0
 71
1
 41
1.0
 91
-1023410177
 42
1.0
 72
1
  3

 73
1
 74
1
 75
1
 44
0.5
 73
0
 45
1.0
 46
1.0
 77
1
  4

 78
1
 79
1
170
1
 48
1.0
171
1
  6

172
1
173
1
174
1
140
1.0
141
1.0
175
1
  7

176
1
177
1
178
1
143
1.0
179
1
  8

270
1
271
1
272
1
145
1.0
146
1.0
273
1
  9

274
1
275
1
276
1
 42
1.0
 72
1
  3

 73
1
 74
1
 75
1
 94
63
  0
MATERIAL
  5
21
102
{ACAD_REACTORS
330
E
102
}
330
E
100
AcDbMaterial
  1
Global
  2

 70
0
 40
1.0
 71
1
 41
1.0
 91
-1023410177
 42
1.0
 72
1
  3

 73
1
 74
1
 75
1
 44
0.5
 73
0
 45
1.0
 46
1.0
 77
1
  4

 78
1
 79
1
170
1
 48
1.0
171
1
  6

172
1
173
1
174
1
140
1.0
141
1.0
175
1
  7

176
1
177
1
178
1
143
1.0
179
1
  8

270
1
271
1
272
1
145
1.0
146
1.0
273
1
  9

274
1
275
1
276
1
 42
1.0
 72
1
  3

 73
1
 74
1
 75
1
 94
63
  0
MLINESTYLE
  5
22
102
{ACAD_REACTORS
330
10
102
}
330
10
100
AcDbMlineStyle
  2
Standard
 70
0
  3

 62
256
 51
90.0
 52
90.0
 71
2
 49
0.5
 62
256
  6
BYLAYER
 49
-0.5
 62
256
  6
BYLAYER
  0
MLEADERSTYLE
  5
2C
102
{ACAD_REACTORS
330
F
102
}
330
F
100
AcDbMLeaderStyle
179
2
170
2
171
1
172
0
 90
2
 40
0.0
 41
0.0
173
1
 91
-1056964608
 92
-2
290
1
 42
2.0
291
1
 43
8.0
  3
Standard
 44
4.0
300

342
29
174
1
175
1
176
0
178
1
 93
-1056964608
 45
4.0
292
0
297
0
 46
4.0
 94
-1056964608
 47
1.0
 49
1.0
140
1.0
294
1
141
0.0
177
0
142
1.0
295
0
296
0
143
3.75
271
0
272
9
273
9
  0
DICTIONARY
  5
2D
330
A
100
AcDbDictionary
280
1
281
1
  3
CREATED_BY_EZDXF
350
2E
  3
WRITTEN_BY_EZDXF
350
AF
  0
DICTIONARYVAR
  5
2E
330
2D
100
DictionaryVariables
280
0
  1
1.4.4 @ 2026-09-28T21:42:19.913123+00:00
  0
VISUALSTYLE
  5
5A
102
{ACAD_REACTORS
330
16
102
}
330
16
100
AcDbVisualStyle
  2
2dWireframe
 70
4
 90
0
 40
0.6
 62
7
290
0
291
0
  0
VISUALSTYLE
  5
5B
102
{ACAD_REACTORS
330
16
102
}
330
16
100
AcDbVisualStyle
  2
Basic
 70
7
 90
1
 40
0.6
 62
7
290
0
291
1
  0
VISUALSTYLE
  5
5C
102
{ACAD_REACTORS
330
16
102
}
330
16
100
AcDbVisualStyle
  2
Brighten
 70
12
 90
2
 40
0.6
 62
7
290
0
291
1
  0
VISUALSTYLE
  5
5D
102
{ACAD_REACTORS
330
16
102
}
330
16
100
AcDbVisualStyle
  2
ColorChange
 70
16
 90
2
 40
0.6
 62
8
290
0
291
1
  0
VISUALSTYLE
  5
5E
102
{ACAD_REACTORS
330
16
102
}
330
16
100
AcDbVisualStyle
  2
Conceptual
 70
9
 90
3
 40
0.6
 62
7
290
0
291
0
  0
VISUALSTYLE
  5
5F
102
{ACAD_REACTORS
330
16
102
}
330
16
100
AcDbVisualStyle
  2
Dim
 70
11
 90
2
 40
0.6
 62
7
290
0
291
1
  0
VISUALSTYLE
  5
60
102
{ACAD_REACTORS
330
16
102
}
330
16
100
AcDbVisualStyle
  2
EdgeColorOff
 70
22
 90
2
 40
0.6
 62
7
290
0
291
1
  0
VISUALSTYLE
  5
61
102
{ACAD_REACTORS
330
16
102
}
330
16
100
AcDbVisualStyle
  2
Facepattern
 70
15
 90
2
 40
0.6
 62
7
290
0
291
1
  0
VISUALSTYLE
  5
62
102
{ACAD_REACTORS
330
16
102
}
330
16
100
AcDbVisualStyle
  2
Flat
 70
0
 90
2
 40
0.6
 62
7
290
0
291
1
  0
VISUALSTYLE
  5
63
102
{ACAD_REACTORS
330
16
102
}
330
16
100
AcDbVisualStyle
  2
FlatWithEdges
 70
1
 90
2
 40
0.6
 62
7
290
0
291
1
  0
VISUALSTYLE
  5
64
102
{ACAD_REACTORS
330
16
102
}
330
16
100
AcDbVisualStyle
  2
Gouraud
 70
2
 90
2
 40
0.6
 62
7
290
0
291
1
  0
VISUALSTYLE
  5
65
102
{ACAD_REACTORS
330
16
102
}
330
16
100
AcDbVisualStyle
  2
GouraudWithEdges
 70
3
 90
2
 40
0.6
 62
7
290
0
291
1
  0
VISUALSTYLE
  5
66
102
{ACAD_REACTORS
330
16
102
}
330
16
100
AcDbVisualStyle
  2
Hidden
 70
6
 90
1
 40
0.6
 62
7
290
0
291
0
  0
VISUALSTYLE
  5
67
102
{ACAD_REACTORS
330
16
102
}
330
16
100
AcDbVisualStyle
  2
JitterOff
 70
20
 90
2
 40
0.6
 62
7
290
0
291
1
  0
VISUALSTYLE
  5
68
102
{ACAD_REACTORS
330
16
102
}
330
16
100
AcDbVisualStyle
  2
Linepattern
 70
14
 90
2
 40
0.6
 62
7
290
0
291
1
  0
VISUALSTYLE
  5
69
102
{ACAD_REACTORS
330
16
102
}
330
16
100
AcDbVisualStyle
  2
Modeling
 70
10
 90
2
 40
0.6
 62
7
290
0
291
0
  0
VISUALSTYLE
  5
6A
102
{ACAD_REACTORS
330
16
102
}
330
16
100
AcDbVisualStyle
  2
OverhangOff
 70
21
 90
2
 40
0.6
 62
7
290
0
291
1
  0
VISUALSTYLE
  5
6B
102
{ACAD_REACTORS
330
16
102
}
330
16
100
AcDbVisualStyle
  2
Realistic
 70
8
 90
2
 40
0.6
 62
7
290
0
291
0
  0
VISUALSTYLE
  5
6C
102
{ACAD_REACTORS
330
16
102
}
330
16
100
AcDbVisualStyle
  2
Shaded
 70
27
 90
2
 40
0.6
 62
7
290
0
291
0
  0
VISUALSTYLE
  5
6D
102
{ACAD_REACTORS
330
16
102
}
330
16
100
AcDbVisualStyle
  2
Shaded with edges
 70
26
 90
2
 40
0.6
 62
7
290
0
291
0
  0
VISUALSTYLE
  5
6E
102
{ACAD_REACTORS
330
16
102
}
330
16
100
AcDbVisualStyle
  2
Shades of Gray
 70
23
 90
2
 40
0.6
 62
7
290
0
291
0
  0
VISUALSTYLE
  5
6F
102
{ACAD_REACTORS
330
16
102
}
330
16
100
AcDbVisualStyle
  2
Sketchy
 70
24
 90
1
 40
0.6
 62
7
290
0
291
0
  0
VISUALSTYLE
  5
70
102
{ACAD_REACTORS
330
16
102
}
330
16
100
AcDbVisualStyle
  2
Thicken
 70
13
 90
2
 40
0.6
 62
7
290
0
291
1
  0
VISUALSTYLE
  5
71
102
{ACAD_REACTORS
330
16
102
}
330
16
100
AcDbVisualStyle
  2
Wireframe
 70
5
 90
0
 40
0.6
 62
7
290
0
291
0
  0
VISUALSTYLE
  5
72
102
{ACAD_REACTORS
330
16
102
}
330
16
100
AcDbVisualStyle
  2
X-Ray
 70
25
 90
2
 40
0.5
 62
7
290
0
291
0
  0
DICTIONARYVAR
  5
AF
330
2D
100
DictionaryVariables
280
0
  1
1.4.4 @ 2026-09-28T21:42:19.921829+00:00
  0
ENDSEC
  0
EOF
