  0
SECTION
  2
HEADER
  9
$ACADVER
  1
AC1024
  9
$ACADMAINTVER
 70
6
  9
$DWGCODEPAGE
  3
ANSI_1252
  9
$LASTSAVEDBY
  1
ezdxf
  9
$INSBASE
 10
0.0
 20
0.0
 30
0.0
  9
$EXTMIN
 10
1e+20
 20
1e+20
 30
1e+20
  9
$EXTMAX
 10
-1e+20
 20
-1e+20
 30
-1e+20
  9
$LIMMIN
 10
0.0
 20
0.0
  9
$LIMMAX
 10
420.0
 20
297.0
  9
$ORTHOMODE
 70
0
  9
$REGENMODE
 70
1
  9
$FILLMODE
 70
1
  9
$QTEXTMODE
 70
0
  9
$MIRRTEXT
 70
1
  9
$LTSCALE
 40
1.0
  9
$ATTMODE
 70
1
  9
$TEXTSIZE
 40
2.5
  9
$TRACEWID
 40
1.0
  9
$TEXTSTYLE
  7
OpenSans
  9
$CLAYER
  8
0
  9
$CELTYPE
  6
ByLayer
  9
$CECOLOR
 62
256
  9
$CELTSCALE
 40
1.0
  9
$DISPSILH
 70
0
  9
$DIMSCALE
 40
1.0
  9
$DIMASZ
 40
0.175
  9
$DIMEXO
 40
0.125
  9
$DIMDLI
 40
3.75
  9
$DIMRND
 40
0.0
  9
$DIMDLE
 40
0.0
  9
$DIMEXE
 40
0.375
  9
$DIMTP
 40
0.0
  9
$DIMTM
 40
0.0
  9
$DIMTXT
 40
0.25
  9
$DIMCEN
 40
2.5
  9
$DIMTSZ
 40
0.0
  9
$DIMTOL
 70
0
  9
$DIMLIM
 70
0
  9
$DIMTIH
 70
0
  9
$DIMTOH
 70
0
  9
$DIMSE1
 70
0
  9
$DIMSE2
 70
0
  9
$DIMTAD
 70
1
  9
$DIMZIN
 70
12
  9
$DIMBLK
  1
ARCHTICK
  9
$DIMASO
 70
1
  9
$DIMSHO
 70
1
  9
$DIMPOST
  1

  9
$DIMAPOST
  1

  9
$DIMALT
 70
0
  9
$DIMALTD
 70
3
  9
$DIMALTF
 40
0.03937007874
  9
$DIMLFAC
 40
100.0
  9
$DIMTOFL
 70
1
  9
$DIMTVP
 40
0.0
  9
$DIMTIX
 70
0
  9
$DIMSOXD
 70
0
  9
$DIMSAH
 70
0
  9
$DIMBLK1
  1

  9
$DIMBLK2
  1

  9
$DIMSTYLE
  2
EZDXF
  9
$DIMCLRD
 70
0
  9
$DIMCLRE
 70
0
  9
$DIMCLRT
 70
0
  9
$DIMTFAC
 40
0.5
  9
$DIMGAP
 40
0.1
  9
$DIMJUST
 70
0
  9
$DIMSD1
 70
0
  9
$DIMSD2
 70
0
  9
$DIMTOLJ
 70
0
  9
$DIMTZIN
 70
8
  9
$DIMALTZ
 70
0
  9
$DIMALTTZ
 70
0
  9
$DIMUPT
 70
1
  9
$DIMDEC
 70
2
  9
$DIMTDEC
 70
2
  9
$DIMALTU
 70
2
  9
$DIMALTTD
 70
3
  9
$DIMTXSTY
  7
OpenSansCondensed-Light
  9
$DIMAUNIT
 70
0
  9
$DIMADEC
 70
2
  9
$DIMALTRND
 40
0.0
  9
$DIMAZIN
 70
3
  9
$DIMDSEP
 70
46
  9
$DIMATFIT
 70
3
  9
$DIMFRAC
 70
0
  9
$DIMLDRBLK
  1

  9
$DIMLUNIT
 70
2
  9
$DIMLWD
 70
-2
  9
$DIMLWE
 70
-2
  9
$DIMTMOVE
 70
2
  9
$DIMFXL
 40
1.0
  9
$DIMFXLON
 70
0
  9
$DIMJOGANG
 40
0.785398163397
  9
$DIMTFILL
 70
0
  9
$DIMTFILLCLR
 70
0
  9
$DIMARCSYM
 70
0
  9
$DIMLTYPE
  6

  9
$DIMLTEX1
  6

  9
$DIMLTEX2
  6

  9
$DIMTXTDIRECTION
 70
0
  9
$LUNITS
 70
2
  9
$LUPREC
 70
4
  9
$SKETCHINC
 40
1.0
  9
$FILLETRAD
 40
10.0
  9
$AUNITS
 70
0
  9
$AUPREC
 70
2
  9
$MENU
  1
.
  9
$ELEVATION
 40
0.0
  9
$PELEVATION
 40
0.0
  9
$THICKNESS
 40
0.0
  9
$LIMCHECK
 70
0
  9
$CHAMFERA
 40
0.0
  9
$CHAMFERB
 40
0.0
  9
$CHAMFERC
 40
0.0
  9
$CHAMFERD
 40
0.0
  9
$SKPOLY
 70
0
  9
$TDCREATE
 40
2461316.5775694447
  9
$TDUCREATE
 40
2458532.153996898
  9
$TDUPDATE
 40
2461316.5775694447
  9
$TDUUPDATE
 40
2458532.1544311
  9
$TDINDWG
 40
0.0
  9
$TDUSRTIMER
 40
0.0
  9
$USRTIMER
 70
1
  9
$ANGBASE
 50
0.0
  9
$ANGDIR
 70
0
  9
$PDMODE
 70
0
  9
$PDSIZE
 40
0.0
  9
$PLINEWID
 40
0.0
  9
$SPLFRAME
 70
0
  9
$SPLINETYPE
 70
6
  9
$SPLINESEGS
 70
8
  9
$HANDSEED
  5
9E
  9
$SURFTAB1
 70
6
  9
$SURFTAB2
 70
6
  9
$SURFTYPE
 70
6
  9
$SURFU
 70
6
  9
$SURFV
 70
6
  9
$UCSBASE
  2

  9
$UCSNAME
  2

  9
$UCSORG
 10
0.0
 20
0.0
 30
0.0
  9
$UCSXDIR
 10
1.0
 20
0.0
 30
0.0
  9
$UCSYDIR
 10
0.0
 20
1.0
 30
0.0
  9
$UCSORTHOREF
  2

  9
$UCSORTHOVIEW
 70
0
  9
$UCSORGTOP
 10
0.0
 20
0.0
 30
0.0
  9
$UCSORGBOTTOM
 10
0.0
 20
0.0
 30
0.0
  9
$UCSORGLEFT
 10
0.0
 20
0.0
 30
0.0
  9
$UCSORGRIGHT
 10
0.0
 20
0.0
 30
0.0
  9
$UCSORGFRONT
 10
0.0
 20
0.0
 30
0.0
  9
$UCSORGBACK
 10
0.0
 20
0.0
 30
0.0
  9
$PUCSBASE
  2

  9
$PUCSNAME
  2

  9
$PUCSORG
 10
0.0
 20
0.0
 30
0.0
  9
$PUCSXDIR
 10
1.0
 20
0.0
 30
0.0
  9
$PUCSYDIR
 10
0.0
 20
1.0
 30
0.0
  9
$PUCSORTHOREF
  2

  9
$PUCSORTHOVIEW
 70
0
  9
$PUCSORGTOP
 10
0.0
 20
0.0
 30
0.0
  9
$PUCSORGBOTTOM
 10
0.0
 20
0.0
 30
0.0
  9
$PUCSORGLEFT
 10
0.0
 20
0.0
 30
0.0
  9
$PUCSORGRIGHT
 10
0.0
 20
0.0
 30
0.0
  9
$PUCSORGFRONT
 10
0.0
 20
0.0
 30
0.0
  9
$PUCSORGBACK
 10
0.0
 20
0.0
 30
0.0
  9
$USERI1
 70
0
  9
$USERI2
 70
0
  9
$USERI3
 70
0
  9
$USERI4
 70
0
  9
$USERI5
 70
0
  9
$USERR1
 40
0.0
  9
$USERR2
 40
0.0
  9
$USERR3
 40
0.0
  9
$USERR4
 40
0.0
  9
$USERR5
 40
0.0
  9
$WORLDVIEW
 70
1
  9
$SHADEDGE
 70
3
  9
$SHADEDIF
 70
70
  9
$TILEMODE
 70
1
  9
$MAXACTVP
 70
64
  9
$PINSBASE
 10
0.0
 20
0.0
 30
0.0
  9
$PLIMCHECK
 70
0
  9
$PEXTMIN
 10
1e+20
 20
1e+20
 30
1e+20
  9
$PEXTMAX
 10
-1e+20
 20
-1e+20
 30
-1e+20
  9
$PLIMMIN
 10
0.0
 20
0.0
  9
$PLIMMAX
 10
420.0
 20
297.0
  9
$UNITMODE
 70
0
  9
$VISRETAIN
 70
1
  9
$PLINEGEN
 70
0
  9
$PSLTSCALE
 70
1
  9
$TREEDEPTH
 70
3020
  9
$CMLSTYLE
  2
Standard
  9
$CMLJUST
 70
0
  9
$CMLSCALE
 40
20.0
  9
$PROXYGRAPHICS
 70
1
  9
$MEASUREMENT
 70
1
  9
$CELWEIGHT
370
-1
  9
$ENDCAPS
280
0
  9
$JOINSTYLE
280
0
  9
$LWDISPLAY
290
0
  9
$INSUNITS
 70
4
  9
$HYPERLINKBASE
  1

  9
$STYLESHEET
  1

  9
$XEDIT
290
1
  9
$CEPSNTYPE
380
0
  9
$PSTYLEMODE
290
1
  9
$FINGERPRINTGUID
  2
{D38DCD11-5004-4F2F-87FD-6B993813E33B}
  9
$VERSIONGUID
  2
{06585F75-50B8-455D-B995-4BA4E4A81D28}
  9
$EXTNAMES
290
1
  9
$PSVPSCALE
 40
0.0
  9
$OLESTARTUP
290
0
  9
$SORTENTS
280
127
  9
$INDEXCTL
280
0
  9
$HIDETEXT
280
1
  9
$XCLIPFRAME
280
1
  9
$HALOGAP
280
0
  9
$OBSCOLOR
 70
257
  9
$OBSLTYPE
280
0
  9
$INTERSECTIONDISPLAY
280
0
  9
$INTERSECTIONCOLOR
 70
257
  9
$DIMASSOC
280
2
  9
$PROJECTNAME
  1

  9
$CAMERADISPLAY
290
0
  9
$LENSLENGTH
 40
50.0
  9
$CAMERAHEIGHT
 40
0.0
  9
$STEPSPERSEC
 40
24.0
  9
$STEPSIZE
 40
100.0
  9
$3DDWFPREC
 40
2.0
  9
$PSOLWIDTH
 40
0.005
  9
$PSOLHEIGHT
 40
0.08
  9
$LOFTANG1
 40
1.570796326795
  9
$LOFTANG2
 40
1.570796326795
  9
$LOFTMAG1
 40
0.0
  9
$LOFTMAG2
 40
0.0
  9
$LOFTPARAM
 70
7
  9
$LOFTNORMALS
280
1
  9
$LATITUDE
 40
37.795
  9
$LONGITUDE
 40
-122.394
  9
$NORTHDIRECTION
 40
0.0
  9
$TIMEZONE
 70
-8000
  9
$LIGHTGLYPHDISPLAY
280
1
  9
$TILEMODELIGHTSYNCH
280
1
  9
$CMATERIAL
347
20
  9
$SOLIDHIST
280
0
  9
$SHOWHIST
280
1
  9
$DWFFRAME
280
2
  9
$DGNFRAME
280
2
  9
$REALWORLDSCALE
290
1
  9
$INTERFERECOLOR
 62
256
  9
$CSHADOW
280
0
  9
$SHADOWPLANELOCATION
 40
0.0
  0
ENDSEC
  0
SECTION
  2
CLASSES
  0
CLASS
  1
ACDBDICTIONARYWDFLT
  2
AcDbDictionaryWithDefault
  3
ObjectDBX Classes
 90
0
 91
0
280
0
281
0
  0
CLASS
  1
SUN
  2
AcDbSun
  3
SCENEOE
 90
1153
 91
0
280
0
281
0
  0
CLASS
  1
VISUALSTYLE
  2
AcDbVisualStyle
  3
ObjectDBX Classes
 90
4095
 91
0
280
0
281
0
  0
CLASS
  1
MATERIAL
  2
AcDbMaterial
  3
ObjectDBX Classes
 90
1153
 91
0
280
0
281
0
  0
CLASS
  1
SCALE
  2
AcDbScale
  3
ObjectDBX Classes
 90
1153
 91
0
280
0
281
0
  0
CLASS
  1
TABLESTYLE
  2
AcDbTableStyle
  3
ObjectDBX Classes
 90
4095
 91
0
280
0
281
0
  0
CLASS
  1
MLEADERSTYLE
  2
AcDbMLeaderStyle
  3
ACDB_MLEADERSTYLE_CLASS
 90
4095
 91
0
280
0
281
0
  0
CLASS
  1
DICTIONARYVAR
  2
AcDbDictionaryVar
  3
ObjectDBX Classes
 90
0
 91
0
280
0
281
0
  0
CLASS
  1
CELLSTYLEMAP
  2
AcDbCellStyleMap
  3
ObjectDBX Classes
 90
1152
 91
0
280
0
281
0
  0
CLASS
  1
MENTALRAYRENDERSETTINGS
  2
AcDbMentalRayRenderSettings
  3
SCENEOE
 90
1024
 91
0
280
0
281
0
  0
CLASS
  1
ACDBDETAILVIEWSTYLE
  2
AcDbDetailViewStyle
  3
ObjectDBX Classes
 90
1025
 91
0
280
0
281
0
  0
CLASS
  1
ACDBSECTIONVIEWSTYLE
  2
AcDbSectionViewStyle
  3
ObjectDBX Classes
 90
1025
 91
0
280
0
281
0
  0
CLASS
  1
RASTERVARIABLES
  2
AcDbRasterVariables
  3
ISM
 90
0
 91
0
280
0
281
0
  0
CLASS
  1
ACDBPLACEHOLDER
  2
AcDbPlaceHolder
  3
ObjectDBX Classes
 90
0
 91
0
280
0
281
0
  0
CLASS
  1
LAYOUT
  2
AcDbLayout
  3
ObjectDBX Classes
 90
0
 91
0
280
0
281
0
  0
ENDSEC
  0
SECTION
  2
TABLES
  0
TABLE
  2
VPORT
  5
8
330
0
100
AcDbSymbolTable
 70
1
  0
VPORT
  5
23
330
8
100
AcDbSymbolTableRecord
100
AcDbViewportTableRecord
  2
*Active
 70
0
 10
0.0
 20
0.0
 11
1.0
 21
1.0
 12
0.0
 22
0.0
 13
0.0
 23
0.0
 14
0.5
 24
0.5
 15
0.5
 25
0.5
 16
0.0
 26
0.0
 36
1.0
 17
0.0
 27
0.0
 37
0.0
 40
1000.0
 41
1.34
 42
50.0
 43
0.0
 44
0.0
 50
0.0
 51
0.0
 71
0
 72
1000
 73
1
 74
3
 75
0
 76
0
 77
0
 78
0
281
0
 65
0
146
0.0
  0
ENDTAB
  0
TABLE
  2
LTYPE
  5
2
330
0
100
AcDbSymbolTable
 70
21
  0
LTYPE
  5
24
330
2
100
AcDbSymbolTableRecord
100
AcDbLinetypeTableRecord
  2
ByBlock
 70
0
  3

 72
65
 73
0
 40
0.0
  0
LTYPE
  5
25
330
2
100
AcDbSymbolTableRecord
100
AcDbLinetypeTableRecord
  2
ByLayer
 70
0
  3

 72
65
 73
0
 40
0.0
  0
LTYPE
  5
26
330
2
100
AcDbSymbolTableRecord
100
AcDbLinetypeTableRecord
  2
Continuous
 70
0
  3

 72
65
 73
0
 40
0.0
  0
LTYPE
  5
2F
330
2
100
AcDbSymbolTableRecord
100
AcDbLinetypeTableRecord
  2
CENTER
 70
0
  3
Center ____ _ ____ _ ____ _ ____ _ ____ _ ____
 72
65
 73
4
 40
5.08
 49
3.175
 74
0
 49
-0.635
 74
0
 49
0.635
 74
0
 49
-0.635
 74
0
  0
LTYPE
  5
30
330
2
100
AcDbSymbolTableRecord
100
AcDbLinetypeTableRecord
  2
CENTERX2
 70
0
  3
Center (2x) ________  __  ________  __  ________
 72
65
 73
4
 40
8.89
 49
6.35
 74
0
 49
-0.635
 74
0
 49
1.27
 74
0
 49
-0.635
 74
0
  0
LTYPE
  5
31
330
2
100
AcDbSymbolTableRecord
100
AcDbLinetypeTableRecord
  2
CENTER2
 70
0
  3
Center (.5x) ____ _ ____ _ ____ _ ____ _ ____
 72
65
 73
4
 40
2.54
 49
1.587
 74
0
 49
-0.318
 74
0
 49
0.318
 74
0
 49
-0.318
 74
0
  0
LTYPE
  5
32
330
2
100
AcDbSymbolTableRecord
100
AcDbLinetypeTableRecord
  2
DASHED
 70
0
  3
Dashed __ __ __ __ __ __ __ __ __ __ __ __ __ _
 72
65
 73
2
 40
1.524
 49
1.27
 74
0
 49
-0.254
 74
0
  0
LTYPE
  5
33
330
2
100
AcDbSymbolTableRecord
100
AcDbLinetypeTableRecord
  2
DASHEDX2
 70
0
  3
Dashed (2x) ____  ____  ____  ____  ____  ____
 72
65
 73
2
 40
3.048
 49
2.54
 74
0
 49
-0.508
 74
0
  0
LTYPE
  5
34
330
2
100
AcDbSymbolTableRecord
100
AcDbLinetypeTableRecord
  2
DASHED2
 70
0
  3
Dashed (.5x) _ _ _ _ _ _ _ _ _ _ _ _ _ _
 72
65
 73
2
 40
0.762
 49
0.635
 74
0
 49
-0.127
 74
0
  0
LTYPE
  5
35
330
2
100
AcDbSymbolTableRecord
100
AcDbLinetypeTableRecord
  2
PHANTOM
 70
0
  3
Phantom ______  __  __  ______  __  __  ______
 72
65
 73
6
 40
6.35
 49
3.175
 74
0
 49
-0.635
 74
0
 49
0.635
 74
0
 49
-0.635
 74
0
 49
0.635
 74
0
 49
-0.635
 74
0
  0
LTYPE
  5
36
330
2
100
AcDbSymbolTableRecord
100
AcDbLinetypeTableRecord
  2
PHANTOMX2
 70
0
  3
Phantom (2x)____________    ____    ____    ____________
 72
65
 73
6
 40
10.795
 49
6.35
 74
0
 49
-0.635
 74
0
 49
1.27
 74
0
 49
-0.635
 74
0
 49
1.27
 74
0
 49
-0.635
 74
0
  0
LTYPE
  5
37
330
2
100
AcDbSymbolTableRecord
100
AcDbLinetypeTableRecord
  2
PHANTOM2
 70
0
  3
Phantom (.5x) ___ _ _ ___ _ _ ___ _ _ ___ _ _ ___
 72
65
 73
6
 40
3.175
 49
1.587
 74
0
 49
-0.318
 74
0
 49
0.318
 74
0
 49
-0.318
 74
0
 49
0.318
 74
0
 49
-0.318
 74
0
  0
LTYPE
  5
38
330
2
100
AcDbSymbolTableRecord
100
AcDbLinetypeTableRecord
  2
DASHDOT
 70
0
  3
Dash dot __ . __ . __ . __ . __ . __ . __ . __
 72
65
 73
4
 40
3.556
 49
2.54
 74
0
 49
-0.508
 74
0
 49
0.0
 74
0
 49
-0.508
 74
0
  0
LTYPE
  5
39
330
2
100
AcDbSymbolTableRecord
100
AcDbLinetypeTableRecord
  2
DASHDOTX2
 70
0
  3
Dash dot (2x) ____  .  ____  .  ____  .  ____
 72
65
 73
4
 40
6.096
 49
5.08
 74
0
 49
-0.508
 74
0
 49
0.0
 74
0
 49
-0.508
 74
0
  0
LTYPE
  5
3A
330
2
100
AcDbSymbolTableRecord
100
AcDbLinetypeTableRecord
  2
DASHDOT2
 70
0
  3
Dash dot (.5x) _ . _ . _ . _ . _ . _ . _ . _
 72
65
 73
4
 40
1.778
 49
1.27
 74
0
 49
-0.254
 74
0
 49
0.0
 74
0
 49
-0.254
 74
0
  0
LTYPE
  5
3B
330
2
100
AcDbSymbolTableRecord
100
AcDbLinetypeTableRecord
  2
DOT
 70
0
  3
Dot .  .  .  .  .  .  .  .  .  .  .  .  .  .  .  .
 72
65
 73
2
 40
0.508
 49
0.0
 74
0
 49
-0.508
 74
0
  0
LTYPE
  5
3C
330
2
100
AcDbSymbolTableRecord
100
AcDbLinetypeTableRecord
  2
DOTX2
 70
0
  3
Dot (2x) .    .    .    .    .    .    .    . 
 72
65
 73
2
 40
1.016
 49
0.0
 74
0
 49
-1.016
 74
0
  0
LTYPE
  5
3D
330
2
100
AcDbSymbolTableRecord
100
AcDbLinetypeTableRecord
  2
DOT2
 70
0
  3
Dot (.5) . . . . . . . . . . . . . . . . . . . 
 72
65
 73
2
 40
0.254
 49
0.0
 74
0
 49
-0.254
 74
0
  0
LTYPE
  5
3E
330
2
100
AcDbSymbolTableRecord
100
AcDbLinetypeTableRecord
  2
DIVIDE
 70
0
  3
Divide __ . . __ . . __ . . __ . . __ . . __
 72
65
 73
6
 40
4.064
 49
2.54
 74
0
 49
-0.508
 74
0
 49
0.0
 74
0
 49
-0.508
 74
0
 49
0.0
 74
0
 49
-0.508
 74
0
  0
LTYPE
  5
3F
330
2
100
AcDbSymbolTableRecord
100
AcDbLinetypeTableRecord
  2
DIVIDEX2
 70
0
  3
Divide (2x) ____  . .  ____  . .  ____  . .  ____
 72
65
 73
6
 40
6.604
 49
5.08
 74
0
 49
-0.508
 74
0
 49
0.0
 74
0
 49
-0.508
 74
0
 49
0.0
 74
0
 49
-0.508
 74
0
  0
LTYPE
  5
40
330
2
100
AcDbSymbolTableRecord
100
AcDbLinetypeTableRecord
  2
DIVIDE2
 70
0
  3
Divide(.5x) _ . _ . _ . _ . _ . _ . _ . _
 72
65
 73
6
 40
2.032
 49
1.27
 74
0
 49
-0.254
 74
0
 49
0.0
 74
0
 49
-0.254
 74
0
 49
0.0
 74
0
 49
-0.254
 74
0
  0
ENDTAB
  0
TABLE
  2
LAYER
  5
1
330
0
100
AcDbSymbolTable
 70
4
  0
LAYER
  5
27
330
1
100
AcDbSymbolTableRecord
100
AcDbLayerTableRecord
  2
0
 70
0
 62
7
  6
Continuous
370
-3
390
13
347
21
  0
LAYER
  5
28
330
1
100
AcDbSymbolTableRecord
100
AcDbLayerTableRecord
  2
Defpoints
 70
0
 62
7
  6
Continuous
290
0
370
-3
390
13
347
21
  0
LAYER
  5
8A
330
1
100
AcDbSymbolTableRecord
100
AcDbLayerTableRecord
  2
OUTLINE
 70
0
 62
1
  6
Continuous
370
-3
390
13
347
21
  0
LAYER
  5
8C
330
1
100
AcDbSymbolTableRecord
100
AcDbLayerTableRecord
  2
CUTOUTS
 70
0
 62
2
  6
Continuous
370
-3
390
13
347
21
  0
ENDTAB
  0
TABLE
  2
STYLE
  5
5
330
0
100
AcDbSymbolTable
 70
26
  0
STYLE
  5
29
330
5
100
AcDbSymbolTableRecord
100
AcDbTextStyleTableRecord
  2
Standard
 70
0
 40
0.0
 41
1.0
 50
0.0
 71
0
 42
2.5
  3
txt
  4

  0
STYLE
  5
41
330
5
100
AcDbSymbolTableRecord
100
AcDbTextStyleTableRecord
  2
OpenSans-Light
 70
0
 40
0.0
 41
1.0
 50
0.0
 71
0
 42
2.5
  3
OpenSans-Light.ttf
  4

  0
STYLE
  5
42
330
5
100
AcDbSymbolTableRecord
100
AcDbTextStyleTableRecord
  2
OpenSans-Light-Italic
 70
0
 40
0.0
 41
1.0
 50
0.0
 71
0
 42
2.5
  3
OpenSans-LightItalic.ttf
  4

  0
STYLE
  5
43
330
5
100
AcDbSymbolTableRecord
100
AcDbTextStyleTableRecord
  2
OpenSans
 70
0
 40
0.0
 41
1.0
 50
0.0
 71
0
 42
2.5
  3
OpenSans-Regular.ttf
  4

  0
STYLE
  5
44
330
5
100
AcDbSymbolTableRecord
100
AcDbTextStyleTableRecord
  2
OpenSans-Italic
 70
0
 40
0.0
 41
1.0
 50
0.0
 71
0
 42
2.5
  3
OpenSans-Italic.ttf
  4

  0
STYLE
  5
45
330
5
100
AcDbSymbolTableRecord
100
AcDbTextStyleTableRecord
  2
OpenSans-SemiBold
 70
0
 40
0.0
 41
1.0
 50
0.0
 71
0
 42
2.5
  3
OpenSans-SemiBold.ttf
  4

  0
STYLE
  5
46
330
5
100
AcDbSymbolTableRecord
100
AcDbTextStyleTableRecord
  2
OpenSans-SemiBoldItalic
 70
0
 40
0.0
 41
1.0
 50
0.0
 71
0
 42
2.5
  3
OpenSans-SemiBoldItalic.ttf
  4

  0
STYLE
  5
47
330
5
100
AcDbSymbolTableRecord
100
AcDbTextStyleTableRecord
  2
OpenSans-Bold
 70
0
 40
0.0
 41
1.0
 50
0.0
 71
0
 42
2.5
  3
OpenSans-Bold.ttf
  4

  0
STYLE
  5
48
330
5
100
AcDbSymbolTableRecord
100
AcDbTextStyleTableRecord
  2
OpenSans-BoldItalic
 70
0
 40
0.0
 41
1.0
 50
0.0
 71
0
 42
2.5
  3
OpenSans-BoldItalic.ttf
  4

  0
STYLE
  5
49
330
5
100
AcDbSymbolTableRecord
100
AcDbTextStyleTableRecord
  2
OpenSans-ExtraBold
 70
0
 40
0.0
 41
1.0
 50
0.0
 71
0
 42
2.5
  3
OpenSans-ExtraBold.ttf
  4

  0
STYLE
  5
4A
330
5
100
AcDbSymbolTableRecord
100
AcDbTextStyleTableRecord
  2
OpenSans-ExtraBoldItalic
 70
0
 40
0.0
 41
1.0
 50
0.0
 71
0
 42
2.5
  3
OpenSans-ExtraBoldItalic.ttf
  4

  0
STYLE
  5
4B
330
5
100
AcDbSymbolTableRecord
100
AcDbTextStyleTableRecord
  2
OpenSansCondensed-Bold
 70
0
 40
0.0
 41
1.0
 50
0.0
 71
0
 42
2.5
  3
OpenSansCondensed-Bold.ttf
  4

  0
STYLE
  5
4C
330
5
100
AcDbSymbolTableRecord
100
AcDbTextStyleTableRecord
  2
OpenSansCondensed-Light
 70
0
 40
0.0
 41
1.0
 50
0.0
 71
0
 42
2.5
  3
OpenSansCondensed-Light.ttf
  4

  0
STYLE
  5
4D
330
5
100
AcDbSymbolTableRecord
100
AcDbTextStyleTableRecord
  2
OpenSansCondensed-Italic
 70
0
 40
0.0
 41
1.0
 50
0.0
 71
0
 42
2.5
  3
OpenSansCondensed-LightItalic.ttf
  4

  0
STYLE
  5
4E
330
5
100
AcDbSymbolTableRecord
100
AcDbTextStyleTableRecord
  2
LiberationSans
 70
0
 40
0.0
 41
1.0
 50
0.0
 71
0
 42
2.5
  3
LiberationSans-Regular.ttf
  4

  0
STYLE
  5
4F
330
5
100
AcDbSymbolTableRecord
100
AcDbTextStyleTableRecord
  2
LiberationSans-Bold
 70
0
 40
0.0
 41
1.0
 50
0.0
 71
0
 42
2.5
  3
LiberationSans-Bold.ttf
  4

  0
STYLE
  5
50
330
5
100
AcDbSymbolTableRecord
100
AcDbTextStyleTableRecord
  2
LiberationSans-BoldItalic
 70
0
 40
0.0
 41
1.0
 50
0.0
 71
0
 42
2.5
  3
LiberationSans-BoldItalic.ttf
  4

  0
STYLE
  5
51
330
5
100
AcDbSymbolTableRecord
100
AcDbTextStyleTableRecord
  2
LiberationSans-Italic
 70
0
 40
0.0
 41
1.0
 50
0.0
 71
0
 42
2.5
  3
LiberationSans-Italic.ttf
  4

  0
STYLE
  5
52
330
5
100
AcDbSymbolTableRecord
100
AcDbTextStyleTableRecord
  2
LiberationSerif
 70
0
 40
0.0
 41
1.0
 50
0.0
 71
0
 42
2.5
  3
LiberationSerif-Regular.ttf
  4

  0
STYLE
  5
53
330
5
100
AcDbSymbolTableRecord
100
AcDbTextStyleTableRecord
  2
LiberationSerif-Bold
 70
0
 40
0.0
 41
1.0
 50
0.0
 71
0
 42
2.5
  3
LiberationSerif-Bold.ttf
  4

  0
STYLE
  5
54
330
5
100
AcDbSymbolTableRecord
100
AcDbTextStyleTableRecord
  2
LiberationSerif-BoldItalic
 70
0
 40
0.0
 41
1.0
 50
0.0
 71
0
 42
2.5
  3
LiberationSerif-BoldItalic.ttf
  4

  0
STYLE
  5
55
330
5
100
AcDbSymbolTableRecord
100
AcDbTextStyleTableRecord
  2
LiberationSerif-Italic
 70
0
 40
0.0
 41
1.0
 50
0.0
 71
0
 42
2.5
  3
LiberationSerif-Italic.ttf
  4

  0
STYLE
  5
56
330
5
100
AcDbSymbolTableRecord
100
AcDbTextStyleTableRecord
  2
LiberationMono
 70
0
 40
0.0
 41
1.0
 50
0.0
 71
0
 42
2.5
  3
LiberationMono-Regular.ttf
  4

  0
STYLE
  5
57
330
5
100
AcDbSymbolTableRecord
100
AcDbTextStyleTableRecord
  2
LiberationMono-Bold
 70
0
 40
0.0
 41
1.0
 50
0.0
 71
0
 42
2.5
  3
LiberationMono-Bold.ttf
  4

  0
STYLE
  5
58
330
5
100
AcDbSymbolTableRecord
100
AcDbTextStyleTableRecord
  2
LiberationMono-BoldItalic
 70
0
 40
0.0
 41
1.0
 50
0.0
 71
0
 42
2.5
  3
LiberationMono-BoldItalic.ttf
  4

  0
STYLE
  5
59
330
5
100
AcDbSymbolTableRecord
100
AcDbTextStyleTableRecord
  2
LiberationMono-Italic
 70
0
 40
0.0
 41
1.0
 50
0.0
 71
0
 42
2.5
  3
LiberationMono-Italic.ttf
  4

  0
ENDTAB
  0
TABLE
  2
VIEW
  5
7
330
0
100
AcDbSymbolTable
 70
0
  0
ENDTAB
  0
TABLE
  2
UCS
  5
6
330
0
100
AcDbSymbolTable
 70
0
  0
ENDTAB
  0
TABLE
  2
APPID
  5
3
330
0
100
AcDbSymbolTable
 70
3
  0
APPID
  5
2A
330
3
100
AcDbSymbolTableRecord
100
AcDbRegAppTableRecord
  2
ACAD
 70
0
  0
APPID
  5
9B
330
3
100
AcDbSymbolTableRecord
100
AcDbRegAppTableRecord
  2
HATCHBACKGROUNDCOLOR
 70
0
  0
APPID
  5
9C
330
3
100
AcDbSymbolTableRecord
100
AcDbRegAppTableRecord
  2
EZDXF
 70
0
  0
ENDTAB
  0
TABLE
  2
DIMSTYLE
  5
4
330
0
100
AcDbSymbolTable
 70
12
100
AcDbDimStyleTable
  0
DIMSTYLE
105
2B
330
4
100
AcDbSymbolTableRecord
100
AcDbDimStyleTableRecord
  2
Standard
 70
0
 40
1.0
 41
2.5
 42
0.625
 43
3.75
 44
1.25
 45
0.0
 46
0.0
 47
0.0
 48
0.0
 49
2.5
140
2.5
141
2.5
142
0.0
143
0.03937007874
144
1.0
145
0.0
146
1.0
147
0.625
148
0.0
 69
0
 70
0
 71
0
 72
0
 73
0
 74
0
 75
0
 76
0
 77
1
 78
8
 79
3
170
0
171
3
172
1
173
0
174
0
175
0
176
0
177
0
178
0
179
2
271
2
272
2
273
2
274
3
275
0
276
0
277
2
278
44
279
0
280
0
281
0
282
0
283
0
284
8
285
0
286
0
288
0
289
3
290
0
371
-2
372
-2
  0
DIMSTYLE
105
73
330
4
100
AcDbSymbolTableRecord
100
AcDbDimStyleTableRecord
  2
EZDXF
 70
0
 40
1.0
 41
0.175
 42
0.125
 43
3.75
 44
0.375
 45
0.0
 46
0.0
 47
0.0
 48
0.0
 49
2.5
140
0.25
141
2.5
142
0.0
143
0.03937007874
144
100.0
145
0.0
146
0.5
147
0.1
148
0.0
 69
0
 70
0
 71
0
 72
0
 73
0
 74
0
 75
0
 76
0
 77
1
 78
12
 79
3
170
0
171
3
172
1
173
0
174
0
175
0
176
0
177
0
178
0
179
2
271
2
272
2
273
2
274
3
275
0
276
0
277
2
278
46
279
2
280
0
281
0
282
0
283
0
284
8
285
0
286
0
288
1
289
3
290
0
340
4C
342
74
371
-2
372
-2
  0
DIMSTYLE
105
7C
330
4
100
AcDbSymbolTableRecord
100
AcDbDimStyleTableRecord
  2
EZ_M_100_H25_CM
 70
0
 40
1.0
 41
0.25
 42
0.125
 43
3.75
 44
0.375
 45
0.0
 46
0.0
 47
0.0
 48
0.0
 49
2.5
140
0.25
141
2.5
142
0.125
143
0.03937007874
144
100.0
145
0.0
146
0.5
147
0.1
148
0.0
 69
0
 70
0
 71
0
 72
0
 73
0
 74
0
 75
0
 76
0
 77
1
 78
12
 79
3
170
0
171
3
172
1
173
0
174
0
175
0
176
0
177
0
178
0
179
2
271
2
272
2
273
2
274
3
275
0
276
0
277
2
278
46
279
2
280
0
281
0
282
0
283
0
284
8
285
0
286
0
288
1
289
3
290
0
340
4C
371
-2
372
-2
  0
DIMSTYLE
105
7D
330
4
100
AcDbSymbolTableRecord
100
AcDbDimStyleTableRecord
  2
EZ_M_50_H25_CM
 70
0
 40
1.0
 41
0.125
 42
0.0625
 43
3.75
 44
0.1875
 45
0.0
 46
0.0
 47
0.0
 48
0.0
 49
2.5
140
0.125
141
2.5
142
0.0625
143
0.03937007874
144
100.0
145
0.0
146
0.5
147
0.05
148
0.0
 69
0
 70
0
 71
0
 72
0
 73
0
 74
0
 75
0
 76
0
 77
1
 78
12
 79
3
170
0
171
3
172
1
173
0
174
0
175
0
176
0
177
0
178
0
179
2
271
2
272
2
273
2
274
3
275
0
276
0
277
2
278
46
279
2
280
0
281
0
282
0
283
0
284
8
285
0
286
0
288
1
289
3
290
0
340
4C
371
-2
372
-2
  0
DIMSTYLE
105
7E
330
4
100
AcDbSymbolTableRecord
100
AcDbDimStyleTableRecord
  2
EZ_M_25_H25_CM
 70
0
 40
1.0
 41
0.0625
 42
0.03125
 43
3.75
 44
0.09375
 45
0.0
 46
0.0
 47
0.0
 48
0.0
 49
2.5
140
0.0625
141
2.5
142
0.03125
143
0.03937007874
144
100.0
145
0.0
146
0.5
147
0.025
148
0.0
 69
0
 70
0
 71
0
 72
0
 73
0
 74
0
 75
0
 76
0
 77
1
 78
12
 79
3
170
0
171
3
172
1
173
0
174
0
175
0
176
0
177
0
178
0
179
2
271
2
272
2
273
2
274
3
275
0
276
0
277
2
278
46
279
2
280
0
281
0
282
0
283
0
284
8
285
0
286
0
288
1
289
3
290
0
340
4C
371
-2
372
-2
  0
DIMSTYLE
105
7F
330
4
100
AcDbSymbolTableRecord
100
AcDbDimStyleTableRecord
  2
EZ_M_20_H25_CM
 70
0
 40
1.0
 41
0.05
 42
0.025
 43
3.75
 44
0.07500000000000001
 45
0.0
 46
0.0
 47
0.0
 48
0.0
 49
2.5
140
0.05
141
2.5
142
0.025
143
0.03937007874
144
100.0
145
0.0
146
0.5
147
0.020000000000000004
148
0.0
 69
0
 70
0
 71
0
 72
0
 73
0
 74
0
 75
0
 76
0
 77
1
 78
12
 79
3
170
0
171
3
172
1
173
0
174
0
175
0
176
0
177
0
178
0
179
2
271
2
272
2
273
2
274
3
275
0
276
0
277
2
278
46
279
2
280
0
281
0
282
0
283
0
284
8
285
0
286
0
288
1
289
3
290
0
340
4C
371
-2
372
-2
  0
DIMSTYLE
105
80
330
4
100
AcDbSymbolTableRecord
100
AcDbDimStyleTableRecord
  2
EZ_M_10_H25_CM
 70
0
 40
1.0
 41
0.025
 42
0.0125
 43
3.75
 44
0.037500000000000006
 45
0.0
 46
0.0
 47
0.0
 48
0.0
 49
2.5
140
0.025
141
2.5
142
0.0125
143
0.03937007874
144
100.0
145
0.0
146
0.5
147
0.010000000000000002
148
0.0
 69
0
 70
0
 71
0
 72
0
 73
0
 74
0
 75
0
 76
0
 77
1
 78
12
 79
3
170
0
171
3
172
1
173
0
174
0
175
0
176
0
177
0
178
0
179
2
271
2
272
2
273
2
274
3
275
0
276
0
277
2
278
46
279
2
280
0
281
0
282
0
283
0
284
8
285
0
286
0
288
1
289
3
290
0
340
4C
371
-2
372
-2
  0
DIMSTYLE
105
81
330
4
100
AcDbSymbolTableRecord
100
AcDbDimStyleTableRecord
  2
EZ_M_5_H25_CM
 70
0
 40
1.0
 41
0.0125
 42
0.00625
 43
3.75
 44
0.018750000000000003
 45
0.0
 46
0.0
 47
0.0
 48
0.0
 49
2.5
140
0.0125
141
2.5
142
0.00625
143
0.03937007874
144
100.0
145
0.0
146
0.5
147
0.005000000000000001
148
0.0
 69
0
 70
0
 71
0
 72
0
 73
0
 74
0
 75
0
 76
0
 77
1
 78
12
 79
3
170
0
171
3
172
1
173
0
174
0
175
0
176
0
177
0
178
0
179
2
271
2
272
2
273
2
274
3
275
0
276
0
277
2
278
46
279
2
280
0
281
0
282
0
283
0
284
8
285
0
286
0
288
1
289
3
290
0
340
4C
371
-2
372
-2
  0
DIMSTYLE
105
82
330
4
100
AcDbSymbolTableRecord
100
AcDbDimStyleTableRecord
  2
EZ_M_1_H25_CM
 70
0
 40
1.0
 41
0.0025
 42
0.00125
 43
3.75
 44
0.00375
 45
0.0
 46
0.0
 47
0.0
 48
0.0
 49
2.5
140
0.0025
141
2.5
142
0.00125
143
0.03937007874
144
100.0
145
0.0
146
0.5
147
0.001
148
0.0
 69
0
 70
0
 71
0
 72
0
 73
0
 74
0
 75
0
 76
0
 77
1
 78
12
 79
3
170
0
171
3
172
1
173
0
174
0
175
0
176
0
177
0
178
0
179
2
271
2
272
2
273
2
274
3
275
0
276
0
277
2
278
46
279
2
280
0
281
0
282
0
283
0
284
8
285
0
286
0
288
1
289
3
290
0
340
4C
371
-2
372
-2
  0
DIMSTYLE
105
83
330
4
100
AcDbSymbolTableRecord
100
AcDbDimStyleTableRecord
  2
EZ_RADIUS
 70
0
 40
1.0
 41
0.25
 42
0.125
 43
3.75
 44
0.375
 45
0.0
 46
0.0
 47
0.0
 48
0.0
 49
2.5
140
0.25
141
0.0
142
0.0
143
0.03937007874
144
100.0
145
0.0
146
0.5
147
0.1
148
0.0
 69
0
 70
0
 71
0
 72
0
 73
0
 74
0
 75
0
 76
0
 77
1
 78
12
 79
3
170
0
171
3
172
0
173
0
174
0
175
0
176
0
177
0
178
0
179
2
271
2
272
2
273
2
274
3
275
0
276
0
277
2
278
46
279
1
280
0
281
0
282
0
283
0
284
8
285
0
286
0
288
1
289
3
290
0
340
4C
342
84
371
-2
372
-2
  0
DIMSTYLE
105
88
330
4
100
AcDbSymbolTableRecord
100
AcDbDimStyleTableRecord
  2
EZ_RADIUS_INSIDE
 70
0
 40
1.0
 41
0.25
 42
0.125
 43
3.75
 44
0.375
 45
0.0
 46
0.0
 47
0.0
 48
0.0
 49
2.5
140
0.25
141
0.0
142
0.0
143
0.03937007874
144
100.0
145
0.0
146
0.5
147
0.1
148
0.0
 69
0
 70
0
 71
0
 72
0
 73
0
 74
0
 75
0
 76
0
 77
0
 78
12
 79
3
170
0
171
3
172
0
173
0
174
1
175
0
176
0
177
0
178
0
179
2
271
2
272
2
273
2
274
3
275
0
276
0
277
2
278
46
279
0
280
0
281
0
282
0
283
0
284
8
285
0
286
0
288
1
289
0
290
0
340
4C
342
84
371
-2
372
-2
  0
DIMSTYLE
105
89
330
4
100
AcDbSymbolTableRecord
100
AcDbDimStyleTableRecord
  2
EZ_CURVED
 70
0
 40
1.0
 41
0.25
 42
0.125
 43
3.75
 44
0.375
 45
0.0
 46
0.0
 47
0.0
 48
0.0
 49
2.5
140
0.25
141
2.5
142
0.0
143
0.03937007874
144
100.0
145
0.0
146
0.5
147
0.1
148
0.0
 69
0
 70
0
 71
0
 72
0
 73
0
 74
0
 75
0
 76
0
 77
1
 78
12
 79
2
 90
2
170
0
171
3
172
1
173
0
174
0
175
0
176
0
177
0
178
0
179
2
271
2
272
2
273
2
274
3
275
0
276
0
277
2
278
46
279
2
280
0
281
0
282
0
283
0
284
8
285
0
286
0
288
1
289
3
290
0
340
4C
371
-2
372
-2
  0
ENDTAB
  0
TABLE
  2
BLOCK_RECORD
  5
9
330
0
100
AcDbSymbolTable
 70
5
  0
BLOCK_RECORD
  5
17
330
9
100
AcDbSymbolTableRecord
100
AcDbBlockTableRecord
  2
*Model_Space
340
1A
 70
0
280
1
281
0
  0
BLOCK_RECORD
  5
1B
330
9
100
AcDbSymbolTableRecord
100
AcDbBlockTableRecord
  2
*Paper_Space
340
1E
 70
0
280
1
281
0
  0
BLOCK_RECORD
  5
74
330
9
100
AcDbSymbolTableRecord
100
AcDbBlockTableRecord
  2
_ARCHTICK
340
0
 70
0
280
1
281
0
  0
BLOCK_RECORD
  5
78
330
9
100
AcDbSymbolTableRecord
100
AcDbBlockTableRecord
  2
_CLOSEDFILLED
340
0
 70
0
280
1
281
0
  0
BLOCK_RECORD
  5
84
330
9
100
AcDbSymbolTableRecord
100
AcDbBlockTableRecord
  2
_CLOSEDBLANK
340
0
 70
0
280
1
281
0
  0
ENDTAB
  0
ENDSEC
  0
SECTION
  2
BLOCKS
  0
BLOCK
  5
18
330
17
100
AcDbEntity
  8
0
100
AcDbBlockBegin
  2
*Model_Space
 70
0
 10
0.0
 20
0.0
 30
0.0
  3
*Model_Space
  1

  0
ENDBLK
  5
19
330
17
100
AcDbEntity
  8
0
100
AcDbBlockEnd
  0
BLOCK
  5
1C
330
1B
100
AcDbEntity
  8
0
100
AcDbBlockBegin
  2
*Paper_Space
 70
0
 10
0.0
 20
0.0
 30
0.0
  3
*Paper_Space
  1

  0
ENDBLK
  5
1D
330
1B
100
AcDbEntity
  8
0
100
AcDbBlockEnd
  0
BLOCK
  5
75
330
74
100
AcDbEntity
  8
0
100
AcDbBlockBegin
  2
_ARCHTICK
 70
0
 10
0.0
 20
0.0
 30
0.0
  3
_ARCHTICK
  1

  0
LWPOLYLINE
  5
77
330
74
100
AcDbEntity
  8
0
  6
BYBLOCK
 62
0
100
AcDbPolyline
 90
2
 70
0
 43
0.15
 10
-0.5
 20
-0.5
 10
0.5
 20
0.5
  0
ENDBLK
  5
76
330
74
100
AcDbEntity
  8
0
100
AcDbBlockEnd
  0
BLOCK
  5
79
330
78
100
AcDbEntity
  8
0
100
AcDbBlockBegin
  2
_CLOSEDFILLED
 70
0
 10
0.0
 20
0.0
 30
0.0
  3
_CLOSEDFILLED
  1

  0
SOLID
  5
7B
330
78
100
AcDbEntity
  8
0
  6
BYBLOCK
 62
0
100
AcDbTrace
 10
-1.0
 20
0.16439898372402537
 30
0.0
 11
0.0
 21
0.0
 31
0.0
 12
-1.0
 22
-0.16439898372402537
 32
0.0
 13
-1.0
 23
-0.16439898372402537
 33
0.0
  0
ENDBLK
  5
7A
330
78
100
AcDbEntity
  8
0
100
AcDbBlockEnd
  0
BLOCK
  5
85
330
84
100
AcDbEntity
  8
0
100
AcDbBlockBegin
  2
_CLOSEDBLANK
 70
0
 10
0.0
 20
0.0
 30
0.0
  3
_CLOSEDBLANK
  1

  0
LWPOLYLINE
  5
87
330
84
100
AcDbEntity
  8
0
  6
BYBLOCK
 62
0
100
AcDbPolyline
 90
3
 70
1
 10
-1.0
 20
0.16439898372402537
 10
0.0
 20
0.0
 10
-1.0
 20
-0.16439898372402537
  0
ENDBLK
  5
86
330
84
100
AcDbEntity
  8
0
100
AcDbBlockEnd
  0
ENDSEC
  0
SECTION
  2
ENTITIES
  0
LWPOLYLINE
  5
8B
330
17
100
AcDbEntity
  8
OUTLINE
100
AcDbPolyline
 90
2010
 70
1
 10
287.65410853528186
 20
-43.33389709449712
 10
287.6039011463959
 20
-43.331430563646
 10
287.59654579890645
 20
-43.331250000000004
 10
255.52223241335676
 20
-43.331250000000004
 10
255.51628837782064
 20
-43.331214667193144
 10
255.49726880822968
 20
-43.330988545219036
 10
255.49132561277145
 20
-43.33088255179208
 10
255.4865781114204
 20
-43.330769650589865
 10
255.48063659599921
 20
-43.330593011523
 10
255.4616277782646
 20
-43.32991477342854
 10
255.45568878260167
 20
-43.32966751368637
 10
255.0450048950971
 20
-43.31012336257107
 10
255.03313782003477
 20
-43.309417130818886
 10
254.9951954110964
 20
-43.30670609528097
 10
254.98334848057237
 20
-43.305717929821974
 10
254.97393252014345
 20
-43.30481969797843
 10
254.96211243128553
 20
-43.30355015742739
 10
254.92434178473394
 20
-43.29903857580093
 10
254.912555219497
 20
-43.29748837783542
 10
254.52677192594595
 20
-43.24207602363083
 10
254.51502554733327
 20
-43.24024604458538
 10
254.4775120588288
 20
-43.23394411710594
 10
254.4658125071262
 20
-43.231835391476736
 10
254.4565243989602
 20
-43.2300470464483
 10
254.44487828798222
 20
-43.22766076630838
 10
254.4077067717782
 20
-43.219582741004984
 10
254.3961206851287
 20
-43.21692025533028
 10
254.0173429914481
 20
-43.125122993107716
 10
254.00582347879902
 20
-43.1221858070145
 10
253.96907797598237
 20
-43.112349947495865
 10
253.95763154937094
 20
-43.109139721389894
 10
253.94855524393122
 20
-43.106477427113376
 10
253.93718837407928
 20
-43.102995975751426
 10
253.90095196256382
 20
-43.09142451991406
 10
253.8896710752187
 20
-43.087673811377684
 10
253.52132255943252
 20
-42.96032134968352
 10
253.51013403173553
 20
-42.956303504266764
 10
253.47448863843022
 20
-42.943022614017146
 10
253.4633987953115
 20
-42.93873990302794
 10
253.45461632868563
 20
-42.93522772262108
 10
253.44363143928777
 20
-42.93068256709689
 10
253.40865765486834
 20
-42.91572226920202
 10
253.39778392900394
 20
-42.91091723854187
 10
253.04319390512597
 20
-42.74916065120221
 10
253.03243748976595
 20
-42.74409846171366
 10
252.99821438646777
 20
-42.72749257991371
 10
252.98758136226627
 20
-42.722176093277206
 10
252.97917211468203
 20
-42.71784577154389
 10
252.9686684925408
 20
-42.71227799319588
 10
252.93527344538376
 20
-42.69406407173172
 10
252.92490516305202
 20
-42.688248149164714
 10
252.58727858911857
 20
-42.49354947131764
 10
252.57705150783724
 20
-42.48748869230121
 10
252.54456001968953
 20
-42.4677079110312
 10
252.53447992087834
 20
-42.46140570175375
 10
252.52651989922768
 20
-42.4562963782594
 10
252.51659248121646
 20
-42.4497563013911
 10
252.48507801208874
 20
-42.42845338268673
 10
252.4753088868953
 20
-42.42167913536491
 10
252.15769739698624
 20
-42.195798148871475
 10
252.1480920871458
 20
-42.18879356061197
 10
252.11762588810728
 20
-42.16601666824617
 10
252.10818982354843
 20
-42.15878569877692
 10
252.10075097439986
 20
-42.152943554086
 10
252.0914894893771
 20
-42.14549029111021
 10
252.06214044146168
 20
-42.12129092136229
 10
252.0530587715375
 20
-42.113619578245775
 10
251.75833309361576
 20
-41.858597905921336
 10
251.74943637270354
 20
-41.850712819312676
 10
251.72127083117957
 20
-41.82514568454256
 10
251.71256408863948
 20
-41.81705131192008
 10
251.70571364794918
 20
-41.81052915019315
 10
251.697201805745
 20
-41.8022300673449
 10
251.67028345008922
 20
-41.775352972291124
 10
251.66197132000832
 20
-41.76685387073058
 10
251.39279532887667
 20
-41.48499652315942
 10
251.38468760980686
 20
-41.476302207470226
 10
251.35907729973482
 20
-41.44817591856226
 10
251.3511785750096
 20
-41.439291303683966
 10
251.34497846041032
 20
-41.4321480754079
 10
251.33729319521788
 20
-41.423078183857186
 10
251.3130488330839
 20
-41.39376629182632
 10
251.30558137194262
 20
-41.38451625085775
 10
251.0643880118404
 20
-41.07837079258013
 10
251.05714257614278
 20
-41.06894583128732
 10
251.03431897602923
 20
-41.0385146073951
 10
251.02729966165606
 20
-41.02892005375551
 10
251.02180591281572
 20
-41.021220322920925
 10
251.0150166878195
 20
-41.01146160078231
 10
250.99366545160794
 20
-40.97997984698826
 10
250.98711015397177
 20
-40.970062473005356
 10
250.77607944843467
 20
-40.64239599638277
 10
250.76976178390007
 20
-40.63232557689522
 10
250.7499311846041
 20
-40.59986447030186
 10
250.74385472457885
 20
-40.58964669816882
 10
250.73911699668608
 20
-40.58146005870842
 10
250.7332851762219
 20
-40.5711007100851
 10
250.71502004884658
 20
-40.537733642013514
 10
250.70943616470103
 20
-40.52723857309181
 10
250.53047551244353
 20
-40.1810126879747
 10
250.5251427212139
 20
-40.170387831669096
 10
250.50848436138915
 20
-40.13619024172965
 10
250.503405677728
 20
-40.12544160432249
 10
250.49946679268396
 20
-40.11684205108641
 10
250.49464508759738
 20
-40.10597570883783
 10
250.4796311582117
 20
-40.07102491436732
 10
250.47506915743253
 20
-40.06004701007245
 10
250.3297960923443
 20
-39.69839107532059
 10
250.32549637479426
 20
-39.6873078148433
 10
250.31216082084322
 20
-39.65168283609911
 10
250.3081258171741
 20
-39.64050048486195
 10
250.30502137654824
 20
-39.631565744818246
 10
250.30125336776686
 20
-39.620290624257585
 10
250.2896263396065
 20
-39.584072005759815
 10
250.28612745578744
 20
-39.572710489758684
 10
250.17585502687155
 20
-39.19889332856574
 10
250.17262724595096
 20
-39.187451839844876
 10
250.1627350311314
 20
-39.15072146827458
 10
250.15978017778968
 20
-39.139206474763675
 10
250.1575382410345
 20
-39.13001730446194
 10
250.15485798566513
 20
-39.118435315644874
 10
250.14672294949656
 20
-39.081276234705726
 10
250.14431880726067
 20
-39.069633797936106
 10
250.12869948785362
 20
-38.98917687039947
 10
250.12711461858652
 20
-38.981966843491904
 10
250.115076912935
 20
-38.9329885119141
 10
250.11086108649533
 20
-38.91887394683683
 10
250.09939744552096
 20
-38.886415372154694
 10
250.09381396900412
 20
-38.872783830427004
 10
250.07921378397606
 20
-38.841609983505485
 10
250.07231678970376
 20
-38.82859362418659
 10
250.05472161076838
 20
-38.79900673835926
 10
250.04657796573954
 20
-38.78673175625966
 10
250.02615837978638
 20
-38.75901867912514
 10
250.01684703739429
 20
-38.7476040813337
 10
249.99380101420107
 20
-38.722033493742636
 10
249.98341224877205
 20
-38.71158994584149
 10
249.9579632216693
 20
-38.68840975701012
 10
249.94659775324715
 20
-38.67903851016428
 10
249.91899245290986
 20
-38.65847345417035
 10
249.90676047076388
 20
-38.65026536348614
 10
249.87726653313635
 20
-38.632514820452826
 10
249.86428662746687
 20
-38.625549464129996
 10
249.83318999900678
 20
-38.61078552721649
 10
249.8195880112018
 20
-38.60513043502986
 10
249.78719017660305
 20
-38.5934962419724
 10
249.77309797919443
 20
-38.589206240564536
 10
249.73971303846508
 20
-38.58081458594277
 10
249.72526725661223
 20
-38.57793126727476
 10
249.691218879846
 20
-38.57286350895775
 10
249.67655956674216
 20
-38.57141482707119
 10
249.6261847936132
 20
-38.56893177376055
 10
249.6188048710598
 20
-38.56875
 10
235.73840470324956
 20
-38.56875
 10
235.73196216222465
 20
-38.568708491942225
 10
235.71134774241588
 20
-38.56844285139913
 10
235.70490627106034
 20
-38.56831833411748
 10
235.69976207674793
 20
-38.56818573436122
 10
235.69332274455374
 20
-38.56797822852957
 10
235.67272201480927
 20
-38.56718148331254
 10
235.66628589091312
 20
-38.56689102338355
 10
235.2212811899074
 20
-38.543934368224306
 10
235.2084228407151
 20
-38.543104792742184
 10
235.16731715713183
 20
-38.53992045712057
 10
235.1544844540846
 20
-38.53875982283918
 10
235.14429665177957
 20
-38.53770589268757
 10
235.13149811709297
 20
-38.5362149703857
 10
235.09061107471186
 20
-38.53091714238464
 10
235.07785520791026
 20
-38.529096922185836
 10
234.66050098703136
 20
-38.46404413919515
 10
234.64779625930296
 20
-38.461895829910084
 10
234.60723645265284
 20
-38.45449858037209
 10
234.59459130122502
 20
-38.45202360869594
 10
234.58456603037726
 20
-38.44992693776193
 10
234.57198885291177
 20
-38.44712694732666
 10
234.53186400739597
 20
-38.43764992308334
 10
234.51936315641393
 20
-38.434526773366514
 10
234.11091841851922
 20
-38.32687313271171
 10
234.09850219585235
 20
-38.32342889780119
 10
234.05891888163137
 20
-38.311897269491425
 10
234.04659553290995
 20
-38.30813423670828
 10
234.03683922985
 20
-38.305017084935145
 10
234.0246169390272
 20
-38.30093775331473
 10
233.9856802879744
 20
-38.28738214853272
 10
233.97356717188939
 20
-38.28298922716444
 10
233.57836829448277
 20
-38.1338776663894
 10
233.56637239747286
 20
-38.12917407261847
 10
233.5281858239474
 20
-38.11363049456794
 10
233.51631511250417
 20
-38.10861935205741
 10
233.5069313579839
 20
-38.104514813632825
 10
233.49519371546225
 20
-38.09919945028895
 10
233.45785864164478
 20
-38.081709182160196
 10
233.44626186303023
 20
-38.0760931279235
 10
233.0685045949188
 20
-37.88710673516189
 10
233.05705638164685
 20
-37.881193719661226
 10
233.0206719681636
 20
-37.861803214983524
 10
233.00937992300823
 20
-37.85559716506045
 10
233.00046834250512
 20
-37.85054881706217
 10
232.9893399645295
 20
-37.84405385416328
 10
232.95400284708694
 20
-37.82281461342641
 10
232.94304552666125
 20
-37.81603505086493
 10
232.58674044251364
 20
-37.58918025750405
 10
232.57596145640983
 20
-37.58212059759702
 10
232.54176548913486
 20
-37.55908903146886
 10
232.5311719956915
 20
-37.55175396254555
 10
232.5228272017042
 20
-37.545815402292014
 10
232.51242623607575
 20
-37.5382097955824
 10
232.47946224223938
 20
-37.51344707508217
 10
232.4692607117204
 20
-37.50557598147938
 10
232.13819063258526
 20
-37.2432612602733
 10
232.12819531202638
 20
-37.23512990698154
 10
232.09655084282335
 20
-37.20870180101385
 10
232.0867683701307
 20
-37.20031558807611
 10
232.07907895769654
 20
-37.19354986409411
 10
232.0695158294224
 20
-37.184914360804754
 10
232.0392749314357
 20
-37.156891061477644
 10
232.0299374984678
 20
-37.14801200268724
 10
231.7276173303047
 20
-36.8530222974741
 10
231.71851179364444
 20
-36.8439055797772
 10
231.68975478562297
 20
-36.81436151597638
 10
231.6808871922698
 20
-36.80501319379778
 10
231.6739347983698
 20
-36.79749213644945
 10
231.6653366901535
 20
-36.787947643071746
 10
231.63821960543393
 20
-36.75705688405983
 10
231.62986952911504
 20
-36.747294645152586
 10
231.32867246888495
 20
-36.38586091982401
 10
231.3025290753046
 20
-36.354479164026586
 10
231.29206795416266
 20
-36.343162386932526
 10
231.26628822037605
 20
-36.31800774337571
 10
231.25471812291948
 20
-36.30782750054096
 10
231.2264867992976
 20
-36.28545914939156
 10
231.21393056297637
 20
-36.27652352245285
 10
231.1835473759336
 20
-36.257178944098804
 10
231.17013830784126
 20
-36.249582800851364
 10
231.13792582970248
 20
-36.233467372878785
 10
231.12380629127952
 20
-36.2272913600825
 10
231.0901065155942
 20
-36.214576176822916
 10
231.07542641120457
 20
-36.20988586399165
 10
231.04059712186753
 20
-36.20070592004653
 10
231.02551230729452
 20
-36.19755110330986
 10
230.98992328002484
 20
-36.19200386033974
 10
230.97459390777996
 20
-36.190418033766896
 10
230.92188767631893
 20
-36.18769905399508
 10
230.91416539644234
 20
-36.1875
 10
213.90959043228335
 20
-36.1875
 10
213.9034546631404
 20
-36.187462350919574
 10
213.8838216803216
 20
-36.18722140587653
 10
213.8776868352028
 20
-36.18710846430505
 10
213.8727867189913
 20
-36.18698817320388
 10
213.86665372178226
 20
-36.186799956149954
 10
213.84703256513913
 20
-36.18607726615714
 10
213.84090233944622
 20
-36.18581380196556
 10
213.41701475518184
 20
-36.164989540294265
 10
213.4047663105457
 20
-36.16423704053102
 10
213.36560673774403
 20
-36.16134845690464
 10
213.3533804493791
 20
-36.160295591901395
 10
213.34366713887212
 20
-36.15933891431832
 10
213.3314703714373
 20
-36.15798631828158
 10
213.29249970413665
 20
-36.15317974491565
 10
213.28033980450857
 20
-36.15152823259868
 10
212.88239240930764
 20
-36.09249831274324
 10
212.87027670215514
 20
-36.09054887895532
 10
212.83158882410643
 20
-36.08383589530606
 10
212.81952460747848
 20
-36.081589714313196
 10
212.8099518400175
 20
-36.07968557247516
 10
212.79794638094717
 20
-36.07714399729281
 10
212.75963449463754
 20
-36.068540775525875
 10
212.74769502476437
 20
-36.06570533710389
 10
212.3574497989794
 20
-35.96795399676784
 10
212.34558351019356
 20
-35.96482640306828
 10
212.3077399123124
 20
-35.95435366909835
 10
212.2959539524223
 20
-35.950935804066646
 10
212.28661391899092
 20
-35.948102535900446
 10
212.27491538741904
 20
-35.94439645833096
 10
212.23763124650904
 20
-35.93207944189167
 10
212.2260271900124
 20
-35.928087384186675
 10
211.8472424084977
 20
-35.79255602221386
 10
211.8357398169262
 20
-35.78828038903968
 10
211.7991049537476
 20
-35.77414876290216
 10
211.78771075583217
 20
-35.76959212974028
 10
211.77869340605798
 20
-35.76585702116714
 10
211.76741446523823
 20
-35.761022132763344
 10
211.7315171363864
 20
-35.74510994125319
 10
211.720360246674
 20
-35.73999970996326
 10
211.35668381394024
 20
-35.56799356745839
 10
211.34565569582801
 20
-35.56261107149438
 10
211.31058238111132
 20
-35.54495664847424
 10
211.29968967752558
 20
-35.53930513005065
 10
211.29108185341659
 20
-35.534704152208086
 10
211.28033112571472
 20
-35.528787015588264
 10
211.2461663198211
 20
-35.50943289210988
 10
211.23556404383945
 20
-35.5032537015557
 10
210.89049836273938
 20
-35.29642929169908
 10
210.8800509248925
 20
-35.28999176932382
 10
210.8468769338313
 20
-35.268984571165596
 10
210.83659062726565
 20
-35.26229259469242
 10
210.8284752268736
 20
-35.2568700575123
 10
210.8183562476738
 20
-35.24992765793637
 10
210.78625299049557
 20
-35.227317993278874
 10
210.7763074339583
 20
-35.22012935244342
 10
210.45317567563316
 20
-34.98047850736373
 10
210.4434095325892
 20
-34.97304795543679
 10
210.4124543488521
 20
-34.94889029294238
 10
210.40287350205972
 20
-34.94122230580973
 10
210.39532868112622
 20
-34.93503043128898
 10
210.38593890173198
 20
-34.92712962786155
 10
210.3562063651854
 20
-34.90148216545543
 10
210.34701330923872
 20
-34.893353304879625
 10
210.04892740916335
 20
-34.62318399322181
 10
210.0399366142185
 20
-34.61483197202023
 10
210.01149835314715
 20
-34.58775649668578
 10
210.00271523492242
 20
-34.57918634580332
 10
209.99581365419763
 20
-34.57228476507854
 10
209.98724350331491
 20
-34.56350164685357
 10
209.96016802797993
 20
-34.53506338578167
 10
209.95181600677824
 20
-34.5260725908367
 10
209.68164669512038
 20
-34.22798669076129
 10
209.6735178345448
 20
-34.2187936348149
 10
209.64787037213844
 20
-34.18906109826807
 10
209.63996956871006
 20
-34.1796713188727
 10
209.63377769418946
 20
-34.17212649793935
 10
209.62610970705742
 20
-34.16254565114772
 10
209.6019520445632
 20
-34.13159046741085
 10
209.59452149263637
 20
-34.12182432436696
 10
209.35487064755674
 20
-33.79869256604189
 10
209.34768200672116
 20
-33.78874700950447
 10
209.32507234206358
 20
-33.7566437523261
 10
209.31812994248847
 20
-33.74652477312753
 10
209.31270740530803
 20
-33.73840937273504
 10
209.30601542883414
 20
-33.72812306616833
 10
209.28500823067606
 20
-33.69494907510737
 10
209.2785707083008
 20
-33.68450163726046
 10
209.07174629844445
 20
-33.33943595616085
 10
209.06556710789002
 20
-33.32883368017876
 10
209.04621298441123
 20
-33.29466887428434
 10
209.04029584779173
 20
-33.28391814658299
 10
209.03569486994914
 20
-33.27531032247396
 10
209.0300433515254
 20
-33.264417618888004
 10
209.01238892850566
 20
-33.22934430417208
 10
209.00700643254177
 20
-33.21831618606003
 10
208.83500029003667
 20
-32.85463975332585
 10
208.82989005874657
 20
-32.84348286361308
 10
208.81397786723622
 20
-32.80758553476073
 10
208.80914297883209
 20
-32.79630659394016
 10
208.8054078702592
 20
-32.787289244166494
 10
208.80085123709776
 20
-32.77589504625219
 10
208.78671961096043
 20
-32.73926018307405
 10
208.7824439777863
 20
-32.72775759150265
 10
208.64691261581322
 20
-32.34897280998729
 10
208.64292055810813
 20
-32.33736875349043
 10
208.63060354166876
 20
-32.30008461258012
 10
208.62689746409941
 20
-32.28838608100864
 10
208.62406419593333
 20
-32.279046047577644
 10
208.62064633090145
 20
-32.26726008768696
 10
208.61017359693165
 20
-32.22941648980611
 10
208.6070460032322
 20
-32.21755020102066
 10
208.5092946628962
 20
-31.82730497523587
 10
208.50645922447418
 20
-31.81536550536263
 10
208.4978560027072
 20
-31.777053619052793
 10
208.495314427525
 20
-31.76504815998308
 10
208.4934102856869
 20
-31.755475392521944
 10
208.49116410469398
 20
-31.743411175893634
 10
208.48445112104474
 20
-31.704723297845145
 10
208.48250168725676
 20
-31.69260759069245
 10
208.4234717674013
 20
-31.29466019549148
 10
208.42182025508436
 20
-31.28250029586333
 10
208.41701368171846
 20
-31.243529628562925
 10
208.41566108568173
 20
-31.231332861128326
 10
208.41470440809866
 20
-31.221619550621377
 10
208.4136515430954
 20
-31.20939326225633
 10
208.410762959469
 20
-31.170233689454392
 10
208.41001045970575
 20
-31.157985244818242
 10
208.38918619803442
 20
-30.73409766055379
 10
208.38892273384283
 20
-30.72796743486087
 10
208.38820004385002
 20
-30.70834627821775
 10
208.38801182679606
 20
-30.702213281007253
 10
208.3878915356949
 20
-30.69731316479576
 10
208.3877785941235
 20
-30.691178319678755
 10
208.38753764908043
 20
-30.67154533685993
 10
208.3875
 20
-30.665409567716615
 10
208.3875
 20
-24.21595420109371
 10
208.38731943635398
 20
-24.208598853603966
 10
208.38485290550287
 20
-24.15839146471799
 10
208.38341383142978
 20
-24.143780300453383
 10
208.37837966568085
 20
-24.109842711656057
 10
208.37551537660468
 20
-24.09544295806656
 10
208.36717898633623
 20
-24.06216222256608
 10
208.36291706692657
 20
-24.048112557150322
 10
208.35135873613393
 20
-24.015809186622388
 10
208.34574023100456
 20
-24.002244915338803
 10
208.33107127273175
 20
-23.971230008900644
 10
208.3241502911581
 20
-23.958281763095922
 10
208.30651197549255
 20
-23.928854011251726
 10
208.2983551703106
 20
-23.91664648961146
 10
208.27791736387414
 20
-23.889089297697844
 10
208.26860328957665
 20
-23.877740065328748
 10
208.2455628196174
 20
-23.852318824167707
 10
208.2351811758323
 20
-23.841937180382626
 10
208.2097599346711
 20
-23.8188967104232
 10
208.1984107023024
 20
-23.80958263612603
 10
208.17085351038835
 20
-23.789144829689253
 10
208.1586459887485
 20
-23.78098802450757
 10
208.129218236904
 20
-23.763349708841854
 10
208.1162699910994
 20
-23.75642872726827
 10
208.08525508466155
 20
-23.7417597689956
 10
208.07169081337742
 20
-23.736141263866013
 10
208.03938744284997
 20
-23.72458293307355
 10
208.02533777743366
 20
-23.720321013663717
 10
207.99205704193366
 20
-23.711984623395388
 10
207.97765728834366
 20
-23.709120334319117
 10
207.94371969954668
 20
-23.704086168570246
 10
207.9291085352818
 20
-23.702647094497117
 10
207.87890114639563
 20
-23.70018056364599
 10
207.87154579890668
 20
-23.700000000000003
 10
196.9034542010933
 20
-23.700000000000003
 10
196.8960988536044
 20
-23.700180563645986
 10
196.84589146471816
 20
-23.70264709449712
 10
196.83128030045336
 20
-23.704086168570246
 10
196.79734271165628
 20
-23.709120334319124
 10
196.78294295806646
 20
-23.71198462339536
 10
196.7496622225662
 20
-23.720321013663753
 10
196.73561255715015
 20
-23.72458293307351
 10
196.7033091866226
 20
-23.736141263866013
 10
196.68974491533845
 20
-23.741759768995603
 10
196.6587300089008
 20
-23.756428727268187
 10
196.64578176309595
 20
-23.763349708841897
 10
196.61635401125162
 20
-23.78098802450751
 10
196.6041464896117
 20
-23.789144829689228
 10
196.57658929769758
 20
-23.80958263612607
 10
196.5652400653291
 20
-23.818896710423065
 10
196.53981882416772
 20
-23.841937180382626
 10
196.52943718038264
 20
-23.852318824167714
 10
196.50639671042325
 20
-23.877740065328883
 10
196.49708263612587
 20
-23.889089297697844
 10
196.4766448296894
 20
-23.91664648961146
 10
196.46848802450745
 20
-23.928854011251726
 10
196.4508497088419
 20
-23.958281763095922
 10
196.44392872726826
 20
-23.971230008900644
 10
196.42925976899545
 20
-24.002244915338803
 10
196.42364126386607
 20
-24.015809186622388
 10
196.41208293307358
 20
-24.048112557149913
 10
196.40782101366378
 20
-24.06216222256617
 10
196.39948462339538
 20
-24.095442958066492
 10
196.3966203343191
 20
-24.109842711656487
 10
196.39158616857029
 20
-24.143780300453177
 10
196.3901470944971
 20
-24.15839146471831
 10
196.38768056364597
 20
-24.208598853604762
 10
196.3875
 20
-24.215954201093638
 10
196.3875
 20
-33.26947320338384
 10
196.38745914817682
 20
-33.27586461592695
 10
196.3871977071893
 20
-33.296315465020925
 10
196.38707515839528
 20
-33.30270583316155
 10
196.3869446514996
 20
-33.30780935704059
 10
196.38674042576008
 20
-33.31419763654355
 10
196.38595627367607
 20
-33.334635118910064
 10
196.38567040436305
 20
-33.34102026588619
 10
196.3630763442159
 20
-33.782506217505556
 10
196.36225987505534
 20
-33.795262941038864
 10
196.3591258290028
 20
-33.836044391109525
 10
196.35798351938053
 20
-33.84877607387036
 10
196.356946116865
 20
-33.85888490517611
 10
196.3554787133974
 20
-33.87158322570495
 10
196.3502644067061
 20
-33.91215119238052
 10
196.34847286849163
 20
-33.924807851023914
 10
196.28444393572494
 20
-34.3389324780805
 10
196.28232943371742
 20
-34.35153920241541
 10
196.27504849649452
 20
-34.391787641735306
 10
196.27261241273786
 20
-34.40433619197466
 10
196.27054844762714
 20
-34.41428630365112
 10
196.2677923743513
 20
-34.42676847803322
 10
196.2584638388409
 20
-34.46659218127249
 10
196.25538957742256
 20
-34.47899982141562
 10
196.14941833217378
 20
-34.88442429791636
 10
196.14602789195754
 20
-34.89674929415743
 10
196.1346761427893
 20
-34.9360441628479
 10
196.1309717397754
 20
-34.94827845953836
 10
196.12790277864264
 20
-34.957965881895596
 10
196.12388683403816
 20
-34.97010148266842
 10
196.1105415444888
 20
-35.00876480070056
 10
196.1062166831249
 20
-35.02079377369785
 10
195.9594104293006
 20
-35.413281779633884
 10
195.95477947791744
 20
-35.425196262688814
 10
195.93947553234216
 20
-35.463126964821036
 10
195.93454151774077
 20
-35.474919170598724
 10
195.93049962846123
 20
-35.484242678812414
 10
195.92526577552573
 20
-35.49590489989788
 10
195.9080431781723
 20
-35.53300383593352
 10
195.9025129077619
 20
-35.54452844987034
 10
195.71640563826745
 20
-35.919978839678215
 10
195.71058256498074
 20
-35.93135831394975
 10
195.69148633542147
 20
-35.96752850790992
 10
195.68537426523366
 20
-35.97875540486348
 10
195.68040168190365
 20
-35.98761757668456
 10
195.67400460967872
 20
-35.99868455839298
 10
195.65308466512664
 20
-36.033831462018014
 10
195.6464067720065
 20
-36.04473129507525
 10
195.4229431399041
 20
-36.39922095090895
 10
195.41598879057665
 20
-36.409946511156406
 10
195.39329981540436
 20
-36.44397825104903
 10
195.38607355524954
 20
-36.45452252823399
 10
195.38022223687884
 20
-36.46283076196202
 10
195.372728788997
 20
-36.47318686432044
 10
195.3483300917925
 20
-36.50601448210225
 10
195.3405743539212
 20
-36.51617564085793
 10
195.08208935255934
 20
-36.846000465631455
 10
195.07407639386741
 20
-36.855960039426854
 10
195.04803175240323
 20
-36.88749772427283
 10
195.03976681018003
 20
-36.89724920350617
 10
195.0330978977665
 20
-36.904916685594465
 10
195.02458637399866
 20
-36.91445369667486
 10
194.9969638685151
 20
-36.944619009624596
 10
194.98821132635575
 20
-36.953935319137784
 10
194.69740589079655
 20
-37.25564894099626
 10
194.688418050929
 20
-37.264738459779224
 10
194.65928988617833
 20
-37.293452549225634
 10
194.6500726230767
 20
-37.302309336346674
 10
194.6426558007385
 20
-37.30925594852492
 10
194.63321513882872
 20
-37.317874215166135
 10
194.60265745532823
 20
-37.345062022977636
 10
194.5929995650502
 20
-37.35343613621862
 10
194.27291234973336
 20
-37.62388592001677
 10
194.2630435435082
 20
-37.63201040651634
 10
194.23113621851363
 20
-37.65760086423388
 10
194.22106294661754
 20
-37.6654704138075
 10
194.21297571345636
 20
-37.6716235702459
 10
194.20270455980392
 20
-37.679233039337184
 10
194.1695309985102
 20
-37.70315925394751
 10
194.15906867635374
 20
-37.71050366898793
 10
193.8130443039002
 20
-37.94686365848193
 10
193.80239765143887
 20
-37.95393821914403
 10
193.7680445689602
 20
-37.97613764793688
 10
193.75722054487173
 20
-37.9829377302707
 10
193.74854740517796
 20
-37.988233136035625
 10
193.7375530840734
 20
-37.99475429548922
 10
193.7021102787731
 20
-38.015168909541785
 10
193.69095284656555
 20
-38.02140688387067
 10
193.32260695948742
 20
-38.22120733041212
 10
193.311293708703
 20
-38.22715804246033
 10
193.27485382745962
 20
-38.24573447832543
 10
193.26339215246693
 20
-38.2513940386929
 10
193.25422373272593
 20
-38.25577636157139
 10
193.2426211249041
 20
-38.261141071155485
 10
193.2052794209359
 20
-38.2778307703516
 10
193.1935434637776
 20
-38.28289712276508
 10
192.83460053111776
 20
-38.43243699285128
 10
192.8279309886937
 20
-38.43540823537794
 10
192.78287148604926
 20
-38.45681196663148
 10
192.7700304675533
 20
-38.46369703490736
 10
192.7408429571701
 20
-38.48122789030614
 10
192.7287325473166
 20
-38.489329365131844
 10
192.70138868538004
 20
-38.509616180253865
 10
192.69012374040116
 20
-38.51885722650274
 10
192.66488285859222
 20
-38.54170759934295
 10
192.6545702162528
 20
-38.55200057409016
 10
192.631671701398
 20
-38.577197789627135
 10
192.622409167739
 20
-38.588445073361065
 10
192.59260966295153
 20
-38.628450922990716
 10
192.58839191047645
 20
-38.63441092654449
 10
192.55208268117394
 20
-38.68846386302349
 10
192.54476061794318
 20
-38.699066349971275
 10
192.52089677744414
 20
-38.73268679513338
 10
192.5133039403633
 20
-38.74309708641145
 10
192.50716237719686
 20
-38.751293627538566
 10
192.499303808679
 20
-38.76150480965889
 10
192.473739569342
 20
-38.793851167773234
 10
192.4656204882739
 20
-38.80385645947483
 10
192.1952599048883
 20
-39.12838930097396
 10
192.186885703162
 20
-39.13818205773
 10
192.15968896269524
 20
-39.169168418022856
 10
192.15106520163016
 20
-39.178742136449465
 10
192.14411280773018
 20
-39.18626319379777
 10
192.13524521437677
 20
-39.19561151597666
 10
192.10648820635552
 20
-39.22515557977724
 10
192.09738266969532
 20
-39.23427229747408
 10
191.79506250153213
 20
-39.52926200268732
 10
191.78572506856403
 20
-39.5381410614779
 10
191.75548417057735
 20
-39.56616436080498
 10
191.74592104230342
 20
-39.57479986409414
 10
191.7382316298695
 20
-39.58156558807594
 10
191.728449157177
 20
-39.589951801013555
 10
191.69680468797395
 20
-39.616379906981294
 10
191.68680936741487
 20
-39.6245112602732
 10
191.3557392882796
 20
-39.88682598147938
 10
191.3455377577604
 20
-39.89469707508234
 10
191.312573763924
 20
-39.91945979558256
 10
191.3021727982958
 20
-39.927065402292016
 10
191.2938280043085
 20
-39.93300396254555
 10
191.28323451086513
 20
-39.94033903146886
 10
191.24903854359016
 20
-39.96337059759702
 10
191.23825955748634
 20
-39.97043025750405
 10
190.88195447333874
 20
-40.197285050864934
 10
190.8709971529132
 20
-40.20406461342632
 10
190.83566003547065
 20
-40.22530385416319
 10
190.8245316574949
 20
-40.23179881706217
 10
190.8156200769918
 20
-40.23684716506045
 10
190.8043280318364
 20
-40.243053214983526
 10
190.76794361835317
 20
-40.26244371966123
 10
190.7564954050812
 20
-40.268356735161895
 10
190.37873813696964
 20
-40.45734312792357
 10
190.36714135835464
 20
-40.462959182160475
 10
190.32980628453655
 20
-40.48044945028948
 10
190.3180686420155
 20
-40.48576481363308
 10
190.3086848874955
 20
-40.489869352057546
 10
190.296814176052
 20
-40.4948804945682
 10
190.25862760252716
 20
-40.51042407261847
 10
190.24663170551736
 20
-40.51512766638935
 10
189.8514328281106
 20
-40.66423922716444
 10
189.8393197120258
 20
-40.66863214853265
 10
189.80038306097302
 20
-40.682187753314665
 10
189.78816077014963
 20
-40.686267084935274
 10
189.77840446708964
 20
-40.689384236708406
 10
189.76608111836853
 20
-40.693147269491455
 10
189.72649780414756
 20
-40.704678897801216
 10
189.7140815814808
 20
-40.7081231327117
 10
189.30563684358611
 20
-40.815776773366515
 10
189.29313599260382
 20
-40.81889992308341
 10
189.25301114708785
 20
-40.828376947326745
 10
189.24043396962264
 20
-40.83117693776195
 10
189.23040869877485
 20
-40.83327360869597
 10
189.2177635473469
 20
-40.83574858037214
 10
189.17720374069688
 20
-40.84314582991011
 10
189.1644990129686
 20
-40.84529413919516
 10
188.7471447920898
 20
-40.91034692218584
 10
188.73438892528804
 20
-40.912167142384654
 10
188.69350188290667
 20
-40.917464970385744
 10
188.68070334822022
 20
-40.91895589268759
 10
188.67051554591518
 20
-40.920009822839205
 10
188.6576828428679
 20
-40.9211704571206
 10
188.61657715928487
 20
-40.92435479274219
 10
188.60371881009263
 20
-40.92518436822431
 10
188.15871410908676
 20
-40.94814102338356
 10
188.1522779851905
 20
-40.948431483312554
 10
188.13167725544574
 20
-40.94922822852959
 10
188.1252379232515
 20
-40.94943573436125
 10
188.12009372893957
 20
-40.949568334117494
 10
188.1136522575841
 20
-40.94969285139914
 10
188.0930378377756
 20
-40.949958491942226
 10
188.08659529675077
 20
-40.95
 10
179.83390004017699
 20
-40.95
 10
179.8279560046409
 20
-40.94996466719314
 10
179.80893643504984
 20
-40.949738545219034
 10
179.80299323959153
 20
-40.94963255179208
 10
179.79824573824052
 20
-40.94951965058986
 10
179.7923042228193
 20
-40.94934301152299
 10
179.77329540508478
 20
-40.94866477342853
 10
179.76735640942192
 20
-40.948417513686366
 10
179.35667252191743
 20
-40.928873362571075
 10
179.34480544685516
 20
-40.92816713081889
 10
179.30686303791666
 20
-40.92545609528097
 10
179.29501610739237
 20
-40.92446792982195
 10
179.28560014696333
 20
-40.923569697978394
 10
179.2737800581056
 20
-40.92230015742737
 10
179.23600941155408
 20
-40.91778857580092
 10
179.22422284631716
 20
-40.91623837783541
 10
178.8384395527662
 20
-40.86082602363083
 10
178.8266931741534
 20
-40.85899604458536
 10
178.78917968564875
 20
-40.85269411710588
 10
178.7774801339461
 20
-40.85058539147666
 10
178.76819202577994
 20
-40.84879704644819
 10
178.75654591480202
 20
-40.84641076630829
 10
178.71937439859826
 20
-40.83833274100494
 10
178.70778831194886
 20
-40.83567025533025
 10
178.32901061826823
 20
-40.74387299310769
 10
178.31749110561913
 20
-40.74093580701448
 10
178.28074560280248
 20
-40.73109994749584
 10
178.26929917619097
 20
-40.72788972138984
 10
178.26022287075162
 20
-40.72522742711343
 10
178.2488560008998
 20
-40.721745975751524
 10
178.21261958938427
 20
-40.71017451991414
 10
178.2013387020391
 20
-40.706423811377746
 10
177.8329901862527
 20
-40.57907134968349
 10
177.8218016585558
 20
-40.575053504266776
 10
177.78615626525084
 20
-40.56177261401729
 10
177.7750664221321
 20
-40.55748990302808
 10
177.7662839555062
 20
-40.5539777226212
 10
177.75529906610836
 20
-40.54943256709703
 10
177.7203252816886
 20
-40.53447226920203
 10
177.70945155582405
 20
-40.52966723854182
 10
177.35486153194634
 20
-40.367910651202266
 10
177.34410511658632
 20
-40.36284846171371
 10
177.30988201328847
 20
-40.34624257991392
 10
177.29924898908766
 20
-40.340926093277766
 10
177.29083974150333
 20
-40.336595771544424
 10
177.28033611936164
 20
-40.331027993196194
 10
177.2469410722043
 20
-40.31281407173188
 10
177.23657278987235
 20
-40.306998149164755
 10
176.89894621593868
 20
-40.11229947131754
 10
176.8887191346574
 20
-40.10623869230114
 10
176.85622764650972
 20
-40.08645791103115
 10
176.84614754769868
 20
-40.080155701753796
 10
176.83818752604813
 20
-40.07504637825953
 10
176.8282601080368
 20
-40.06850630139117
 10
176.79674563890902
 20
-40.047203382686774
 10
176.78697651371547
 20
-40.04042913536489
 10
176.46936502380646
 20
-39.81454814887149
 10
176.45975971396575
 20
-39.80754356061175
 10
176.42929351492668
 20
-39.78476666824551
 10
176.419857450368
 20
-39.777535698776354
 10
176.41241860121937
 20
-39.77169355408539
 10
176.40315711619658
 20
-39.764240291109594
 10
176.37380806828173
 20
-39.74004092136212
 10
176.36472639835776
 20
-39.73236957824576
 10
176.07000072043616
 20
-39.47734790592147
 10
176.06110399952377
 20
-39.469462819312646
 10
176.0329384579997
 20
-39.44389568454243
 10
176.02423171545914
 20
-39.435801311919505
 10
176.01738127476867
 20
-39.429279150192386
 10
176.0088694325652
 20
-39.420980067344836
 10
175.9819510769095
 20
-39.39410297229116
 10
175.97363894682854
 20
-39.38560387073053
 10
175.70446295569687
 20
-39.10374652315936
 10
175.69635523662686
 20
-39.095052207469976
 10
175.67074492655445
 20
-39.06692591856157
 10
175.66284620182918
 20
-39.0580413036832
 10
175.65664608723
 20
-39.050898075407254
 10
175.64896082203774
 20
-39.04182818385676
 10
175.6247164599041
 20
-39.012516291826294
 10
175.61724899876285
 20
-39.00326625085775
 10
175.37605563866052
 20
-38.69712079257995
 10
175.36881020296298
 20
-38.68769583128726
 10
175.34598660284976
 20
-38.657264607395504
 10
175.33896728847657
 20
-38.64767005375585
 10
175.33347353963632
 20
-38.639970322921386
 10
175.32668431464026
 20
-38.630211600783035
 10
175.30533307842836
 20
-38.598729846988526
 10
175.298777780792
 20
-38.58881247300532
 10
175.0877470752549
 20
-38.261145996382716
 10
175.08142941072032
 20
-38.2510755768952
 10
175.06159881142406
 20
-38.218614470301375
 10
175.05552235139876
 20
-38.20839669816831
 10
175.05078462350596
 20
-38.20021005870786
 10
175.0449528030415
 20
-38.189850710083945
 10
175.0266876756665
 20
-38.15648364201282
 10
175.02110379152126
 20
-38.145988573091735
 10
174.8421431392638
 20
-37.79976268797477
 10
174.83681034803402
 20
-37.78913783166884
 10
174.8201519882092
 20
-37.754940241729216
 10
174.81507330454875
 20
-37.74419160432349
 10
174.81113441950458
 20
-37.73559205108722
 10
174.8063127144175
 20
-37.72472570883752
 10
174.7912987850319
 20
-37.689774914367206
 10
174.78673678425272
 20
-37.67879701007232
 10
174.64146371916462
 20
-37.31714107532073
 10
174.63716400161445
 20
-37.30605781484316
 10
174.62382844766302
 20
-37.27043283609784
 10
174.61979344399379
 20
-37.259250484860274
 10
174.61668900336787
 20
-37.25031574481636
 10
174.6129209945865
 20
-37.23904062425569
 10
174.60129396642657
 20
-37.20282200575907
 10
174.59779508260775
 20
-37.19146048975869
 10
174.48752265369183
 20
-36.817643328565794
 10
174.48429487277127
 20
-36.806201839845116
 10
174.47440265795169
 20
-36.76947146827479
 10
174.47144780461
 20
-36.75795647476399
 10
174.4692058678548
 20
-36.748767304462284
 10
174.46652561248527
 20
-36.73718531564453
 10
174.45839057631673
 20
-36.70002623470539
 10
174.45598643408093
 20
-36.688383797936154
 10
174.39426060187566
 20
-36.37042687039948
 10
174.39267573260852
 20
-36.36321684349188
 10
174.3806380269571
 20
-36.31423851191437
 10
174.37642220051725
 20
-36.300123946836564
 10
174.36495855954308
 20
-36.26766537215491
 10
174.35937508302612
 20
-36.25403383042702
 10
174.34477489799804
 20
-36.22285998350537
 10
174.33787790372602
 20
-36.20984362418707
 10
174.3202827247902
 20
-36.18025673835893
 10
174.31213907976144
 20
-36.16798175625948
 10
174.29171949380864
 20
-36.140268679125455
 10
174.28240815141618
 20
-36.12885408133356
 10
174.2593621282227
 20
-36.103283493742225
 10
174.24897336279454
 20
-36.09283994584194
 10
174.2235243356911
 20
-36.06965975700993
 10
174.21215886726944
 20
-36.060288510164476
 10
174.18455356693173
 20
-36.03972345417024
 10
174.17232158478592
 20
-36.031515363486164
 10
174.14282764715833
 20
-36.0137648204528
 10
174.1298477414889
 20
-36.006799464130005
 10
174.09875111302864
 20
-35.992035527216416
 10
174.08514912522384
 20
-35.986380435029844
 10
174.05275129062517
 20
-35.974746241972426
 10
174.03865909321647
 20
-35.970456240564545
 10
174.00527415248703
 20
-35.962064585942755
 10
173.99082837063432
 20
-35.959181267274765
 10
173.95677999386814
 20
-35.954113508957775
 10
173.94212068076402
 20
-35.95266482707118
 10
173.89174590763528
 20
-35.95018177376056
 10
173.8843659850818
 20
-35.95
 10
155.27845420109355
 20
-35.95
 10
155.27109885360406
 20
-35.950180563646
 10
155.22089146471802
 20
-35.952647094497124
 10
155.20628030045344
 20
-35.95408616857022
 10
155.17234271165646
 20
-35.959120334319095
 10
155.1579429580662
 20
-35.961984623395416
 10
155.12466222256643
 20
-35.970321013663686
 10
155.11061255715006
 20
-35.974582933073535
 10
155.07830918662225
 20
-35.98614126386612
 10
155.06474491533874
 20
-35.991759768995465
 10
155.0337300089008
 20
-36.00642872726819
 10
155.02078176309575
 20
-36.013349708842
 10
154.99135401125164
 20
-36.03098802450747
 10
154.9791464896115
 20
-36.03914482968934
 10
154.9515892976976
 20
-36.059582636126024
 10
154.940240065329
 20
-36.068896710423125
 10
154.91481882416798
 20
-36.09193718038238
 10
154.9044371803824
 20
-36.102318824167966
 10
154.88139671042325
 20
-36.12774006532888
 10
154.87208263612587
 20
-36.13908929769782
 10
154.85164482968935
 20
-36.16664648961151
 10
154.84348802450742
 20
-36.17885401125173
 10
154.82584970884204
 20
-36.2082817630957
 10
154.818928727268
 20
-36.22123000890113
 10
154.80425976899576
 20
-36.252244915338046
 10
154.7986412638659
 20
-36.265809186622874
 10
154.78708293307338
 20
-36.2981125571504
 10
154.78282101366383
 20
-36.312162222565796
 10
154.77448462339532
 20
-36.345442958066506
 10
154.77162033431904
 20
-36.35984271165663
 10
154.76658616857026
 20
-36.39378030045308
 10
154.7651470944971
 20
-36.40839146471808
 10
154.76268056364594
 20
-36.458598853605004
 10
154.7625
 20
-36.465954201092906
 10
154.7625
 20
-38.477909567717816
 10
154.76246235091955
 20
-38.48404533686061
 10
154.76222140587652
 20
-38.50367831967877
 10
154.76210846430507
 20
-38.50981316479732
 10
154.76198817320395
 20
-38.514713281007246
 10
154.76179995614999
 20
-38.52084627821682
 10
154.76107726615714
 20
-38.540467434860595
 10
154.76081380196558
 20
-38.54659766055338
 10
154.73998954029426
 20
-38.97048524481825
 10
154.739237040531
 20
-38.98273368945449
 10
154.73634845690455
 20
-39.02189326225713
 10
154.73529559190126
 20
-39.034119550622535
 10
154.73433891431816
 20
-39.04383286112969
 10
154.7329863182814
 20
-39.05602962856444
 10
154.72817974491554
 20
-39.09500029586424
 10
154.7265282325986
 20
-39.107160195491865
 10
154.66749831274322
 20
-39.50510759069216
 10
154.66554887895535
 20
-39.51722329784432
 10
154.6588358953063
 20
-39.555911175891886
 10
154.65658971431355
 20
-39.56797539251946
 10
154.65468557247536
 20
-39.57754815998129
 10
154.65214399729297
 20
-39.5895536190518
 10
154.64354077552585
 20
-39.62786550536243
 10
154.64070533710378
 20
-39.63980497523607
 10
154.5429539967679
 20
-40.030050201020494
 10
154.53982640306813
 20
-40.041916489807015
 10
154.52935366909773
 20
-40.0797600876897
 10
154.525935804066
 20
-40.091546047579854
 10
154.5231025358999
 20
-40.10088608101081
 10
154.51939645833048
 20
-40.11258461258241
 10
154.50707944189165
 20
-40.14986875349092
 10
154.5030873841868
 20
-40.161472809987146
 10
154.36755602221373
 20
-40.54025759150255
 10
154.36328038903957
 20
-40.551760183073945
 10
154.34914876290213
 20
-40.58839504625238
 10
154.34459212974036
 20
-40.59978924416751
 10
154.34085702116724
 20
-40.60880659394168
 10
154.3360221327633
 20
-40.62008553476175
 10
154.32010994125307
 20
-40.65598286361378
 10
154.31499970996313
 20
-40.667139753326225
 10
154.14299356745852
 20
-41.03081618605942
 10
154.1376110714945
 20
-41.04184430417171
 10
154.11995664847427
 20
-41.07691761888855
 10
154.11430513005067
 20
-41.08781032247428
 10
154.10970415220797
 20
-41.096418146583524
 10
154.10378701558827
 20
-41.107168874285186
 10
154.08443289211
 20
-41.14133368017865
 10
154.07825370155575
 20
-41.1519359561604
 10
153.87142929169903
 20
-41.49700163726069
 10
153.8649917693236
 20
-41.50744907510785
 10
153.84398457116475
 20
-41.540623066169985
 10
153.83729259469087
 20
-41.550909372736655
 10
153.83187005751063
 20
-41.55902477312884
 10
153.82492765793532
 20
-41.569143752327705
 10
153.80231799327848
 20
-41.601247009504945
 10
153.79512935244327
 20
-41.61119256604186
 10
153.55547850736394
 20
-41.93432432436656
 10
153.5480479554368
 20
-41.94409046741083
 10
153.5238902929421
 20
-41.97504565114826
 10
153.51622230581006
 20
-41.98462649793987
 10
153.5100304312892
 20
-41.99217131887352
 10
153.5021296278612
 20
-42.001561098268446
 10
153.47648216545534
 20
-42.0312936348147
 10
153.46835330487968
 20
-42.040486690761185
 10
153.19818399322162
 20
-42.33857259083683
 10
153.18983197201987
 20
-42.347563385781875
 10
153.16275649668512
 20
-42.376001646853524
 10
153.15418634580266
 20
-42.384784765078265
 10
153.14728476507824
 20
-42.39168634580268
 10
153.13850164685354
 20
-42.40025649668509
 10
153.1100633857819
 20
-42.42733197201984
 10
153.10107259083682
 20
-42.43568399322166
 10
152.8029866907613
 20
-42.70585330487962
 10
152.7937936348146
 20
-42.71398216545544
 10
152.76406109826777
 20
-42.73962962786175
 10
152.7546713188727
 20
-42.747530431289874
 10
152.7471264979392
 20
-42.7537223058106
 10
152.73754565114777
 20
-42.76139029294247
 10
152.70659046741096
 20
-42.78554795543667
 10
152.6968243243669
 20
-42.792978507363664
 10
152.3736925660417
 20
-43.0326293524434
 10
152.36374700950452
 20
-43.03981799327879
 10
152.3316437523267
 20
-43.06242765793601
 10
152.32152477312775
 20
-43.06937005751139
 10
152.3134093727358
 20
-43.07479259469146
 10
152.3031230661695
 20
-43.081484571165085
 10
152.26994907510795
 20
-43.10249176932357
 10
152.25950163726077
 20
-43.108929291699
 10
151.9144359561606
 20
-43.3157537015557
 10
151.90383368017848
 20
-43.32193289211014
 10
151.86966887428372
 20
-43.341287015589124
 10
151.85891814658163
 20
-43.347204152209045
 10
151.85031032247255
 20
-43.35180513005164
 10
151.83941761888718
 20
-43.35745664847503
 10
151.80434430417156
 20
-43.375111071494594
 10
151.79331618605966
 20
-43.38049356745843
 10
151.42963975332586
 20
-43.55249970996332
 10
151.41848286361315
 20
-43.557609941253396
 10
151.38258553476084
 20
-43.573522132763735
 10
151.37130659394086
 20
-43.57835702116762
 10
151.3622892441669
 20
-43.58209212974065
 10
151.35089504625188
 20
-43.586648762902364
 10
151.31426018307374
 20
-43.600780389039684
 10
151.30275759150243
 20
-43.6050560222138
 10
150.9239728099874
 20
-43.74058738418675
 10
150.91236875349077
 20
-43.74457944189175
 10
150.87508461258062
 20
-43.756896458331084
 10
150.8633860810084
 20
-43.76060253590067
 10
150.8540460475773
 20
-43.76343580406677
 10
150.84226008768746
 20
-43.7668536690984
 10
150.80441648980644
 20
-43.77732640306829
 10
150.79255020102065
 20
-43.78045399676784
 10
150.40230497523578
 20
-43.878205337103864
 10
150.3903655053624
 20
-43.88104077552589
 10
150.35205361905224
 20
-43.88964399729293
 10
150.34004815998176
 20
-43.8921855724753
 10
150.33047539252064
 20
-43.89408971431336
 10
150.31841117589292
 20
-43.89633589530617
 10
150.27972329784478
 20
-43.903048878955325
 10
150.2676075906924
 20
-43.90499831274323
 10
149.86966019549124
 20
-43.96402823259871
 10
149.85750029586316
 20
-43.965679744915676
 10
149.81852962856257
 20
-43.9704863182816
 10
149.80633286112777
 20
-43.97183891431834
 10
149.79661955062116
 20
-43.97279559190138
 10
149.7843932622562
 20
-43.973848456904626
 10
149.7452336894544
 20
-43.97673704053101
 10
149.73298524481828
 20
-43.97748954029426
 10
149.3090976605538
 20
-43.99831380196556
 10
149.30296743486088
 20
-43.99857726615714
 10
149.28334627821775
 20
-43.999299956149954
 10
149.2772132810087
 20
-43.99948817320388
 10
149.2723131647972
 20
-43.99960846430505
 10
149.2661783196784
 20
-43.99972140587653
 10
149.2465453368596
 20
-43.999962350919574
 10
149.24040956771665
 20
-44.0
 10
134.77845420109355
 20
-44.0
 10
134.77109885360406
 20
-44.000180563646
 10
134.72089146471802
 20
-44.00264709449712
 10
134.70628030045344
 20
-44.00408616857022
 10
134.67234271165646
 20
-44.00912033431909
 10
134.6579429580662
 20
-44.01198462339541
 10
134.62466222256643
 20
-44.02032101366368
 10
134.61061255715006
 20
-44.02458293307353
 10
134.57830918662225
 20
-44.03614126386612
 10
134.56474491533874
 20
-44.04175976899546
 10
134.5337300089008
 20
-44.056428727268184
 10
134.52078176309575
 20
-44.063349708842
 10
134.49135401125164
 20
-44.08098802450747
 10
134.4791464896115
 20
-44.08914482968934
 10
134.4515892976976
 20
-44.10958263612602
 10
134.440240065329
 20
-44.11889671042312
 10
134.41481882416798
 20
-44.14193718038238
 10
134.4044371803824
 20
-44.15231882416796
 10
134.38139671042325
 20
-44.17774006532888
 10
134.37208263612587
 20
-44.18908929769782
 10
134.35164482968935
 20
-44.216646489611506
 10
134.34348802450742
 20
-44.22885401125173
 10
134.32584970884204
 20
-44.258281763095695
 10
134.318928727268
 20
-44.27123000890113
 10
134.30425976899576
 20
-44.30224491533804
 10
134.2986412638659
 20
-44.31580918662287
 10
134.28708293307338
 20
-44.348112557150394
 10
134.28282101366383
 20
-44.36216222256579
 10
134.27448462339532
 20
-44.3954429580665
 10
134.27162033431904
 20
-44.40984271165663
 10
134.26658616857026
 20
-44.44378030045308
 10
134.2651470944971
 20
-44.458391464718076
 10
134.26268056364594
 20
-44.508598853605
 10
134.2625
 20
-44.5159542010929
 10
134.2625
 20
-50.9840457989071
 10
134.26268056364594
 20
-50.991401146395
 10
134.2651470944971
 20
-51.041608535281924
 10
134.26658616857026
 20
-51.05621969954692
 10
134.27162033431904
 20
-51.09015728834337
 10
134.27448462339532
 20
-51.1045570419335
 10
134.28282101366383
 20
-51.13783777743421
 10
134.28708293307338
 20
-51.151887442849606
 10
134.2986412638659
 20
-51.18419081337713
 10
134.30425976899576
 20
-51.19775508466196
 10
134.318928727268
 20
-51.22876999109887
 10
134.32584970884204
 20
-51.241718236904305
 10
134.34348802450742
 20
-51.27114598874827
 10
134.35164482968935
 20
-51.283353510388494
 10
134.37208263612587
 20
-51.31091070230218
 10
134.38139671042325
 20
-51.32225993467112
 10
134.4044371803824
 20
-51.34768117583204
 10
134.41481882416798
 20
-51.35806281961762
 10
134.440240065329
 20
-51.38110328957688
 10
134.4515892976976
 20
-51.39041736387398
 10
134.4791464896115
 20
-51.41085517031066
 10
134.49135401125164
 20
-51.41901197549253
 10
134.52078176309575
 20
-51.436650291158
 10
134.5337300089008
 20
-51.443571272731816
 10
134.56474491533874
 20
-51.45824023100454
 10
134.57830918662225
 20
-51.46385873613388
 10
134.61061255715006
 20
-51.47541706692647
 10
134.62466222256643
 20
-51.47967898633632
 10
134.6579429580662
 20
-51.48801537660459
 10
134.67234271165646
 20
-51.49087966568091
 10
134.70628030045344
 20
-51.49591383142978
 10
134.72089146471802
 20
-51.49735290550288
 10
134.77109885360406
 20
-51.499819436354
 10
134.77845420109355
 20
-51.5
 10
149.24040956771665
 20
-51.5
 10
149.2465453368596
 20
-51.500037649080426
 10
149.2661783196784
 20
-51.50027859412347
 10
149.2723131647972
 20
-51.50039153569495
 10
149.2772132810087
 20
-51.50051182679612
 10
149.28334627821775
 20
-51.500700043850046
 10
149.30296743486088
 20
-51.50142273384286
 10
149.3090976605538
 20
-51.50168619803444
 10
149.73298524481828
 20
-51.52251045970574
 10
149.7452336894544
 20
-51.52326295946899
 10
149.7843932622562
 20
-51.526151543095374
 10
149.79661955062116
 20
-51.52720440809862
 10
149.80633286112777
 20
-51.52816108568166
 10
149.81852962856257
 20
-51.5295136817184
 10
149.85750029586316
 20
-51.534320255084324
 10
149.86966019549124
 20
-51.53597176740129
 10
150.2676075906924
 20
-51.59500168725677
 10
150.27972329784478
 20
-51.596951121044675
 10
150.31841117589292
 20
-51.60366410469383
 10
150.33047539252064
 20
-51.60591028568664
 10
150.34004815998176
 20
-51.6078144275247
 10
150.35205361905224
 20
-51.61035600270707
 10
150.3903655053624
 20
-51.61895922447411
 10
150.40230497523578
 20
-51.621794662896136
 10
150.79255020102065
 20
-51.71954600323216
 10
150.80441648980644
 20
-51.72267359693171
 10
150.84226008768746
 20
-51.7331463309016
 10
150.8540460475773
 20
-51.73656419593323
 10
150.8633860810084
 20
-51.73939746409933
 10
150.87508461258062
 20
-51.743103541668916
 10
150.91236875349077
 20
-51.75542055810825
 10
150.9239728099874
 20
-51.75941261581325
 10
151.30275759150243
 20
-51.8949439777862
 10
151.31426018307374
 20
-51.899219610960316
 10
151.35089504625188
 20
-51.913351237097636
 10
151.3622892441669
 20
-51.91790787025935
 10
151.37130659394086
 20
-51.92164297883238
 10
151.38258553476084
 20
-51.926477867236265
 10
151.41848286361315
 20
-51.942390058746604
 10
151.42963975332586
 20
-51.94750029003668
 10
151.79331618605966
 20
-52.11950643254157
 10
151.80434430417156
 20
-52.124888928505406
 10
151.83941761888718
 20
-52.14254335152497
 10
151.85031032247255
 20
-52.14819486994836
 10
151.85891814658163
 20
-52.152795847790955
 10
151.86966887428372
 20
-52.158712984410876
 10
151.90383368017848
 20
-52.17806710788986
 10
151.9144359561606
 20
-52.1842462984443
 10
152.25950163726077
 20
-52.391070708301
 10
152.26994907510795
 20
-52.39750823067643
 10
152.3031230661695
 20
-52.418515428834915
 10
152.3134093727358
 20
-52.42520740530854
 10
152.32152477312775
 20
-52.43062994248861
 10
152.3316437523267
 20
-52.43757234206399
 10
152.36374700950452
 20
-52.46018200672121
 10
152.3736925660417
 20
-52.4673706475566
 10
152.6968243243669
 20
-52.707021492636336
 10
152.70659046741096
 20
-52.71445204456333
 10
152.73754565114777
 20
-52.73860970705753
 10
152.7471264979392
 20
-52.7462776941894
 10
152.7546713188727
 20
-52.752469568710126
 10
152.76406109826777
 20
-52.76037037213825
 10
152.7937936348146
 20
-52.78601783454456
 10
152.8029866907613
 20
-52.79414669512038
 10
153.10107259083682
 20
-53.06431600677834
 10
153.1100633857819
 20
-53.07266802798016
 10
153.13850164685354
 20
-53.09974350331491
 10
153.14728476507824
 20
-53.10831365419732
 10
153.15418634580266
 20
-53.115215234921735
 10
153.16275649668512
 20
-53.123998353146476
 10
153.18983197201987
 20
-53.152436614218125
 10
153.19818399322162
 20
-53.16142740916317
 10
153.46835330487968
 20
-53.459513309238815
 10
153.47648216545534
 20
-53.4687063651853
 10
153.5021296278612
 20
-53.498438901731554
 10
153.5100304312892
 20
-53.50782868112648
 10
153.51622230581006
 20
-53.51537350206013
 10
153.5238902929421
 20
-53.52495434885174
 10
153.5480479554368
 20
-53.55590953258917
 10
153.55547850736394
 20
-53.56567567563344
 10
153.79512935244327
 20
-53.88880743395814
 10
153.80231799327848
 20
-53.898752990495055
 10
153.82492765793532
 20
-53.930856247672295
 10
153.83187005751063
 20
-53.94097522687116
 10
153.83729259469087
 20
-53.949090627263345
 10
153.84398457116475
 20
-53.959376933830015
 10
153.8649917693236
 20
-53.99255092489215
 10
153.87142929169903
 20
-54.00299836273931
 10
154.07825370155575
 20
-54.3480640438396
 10
154.08443289211
 20
-54.35866631982135
 10
154.10378701558827
 20
-54.392831125714814
 10
154.10970415220797
 20
-54.403581853416476
 10
154.11430513005067
 20
-54.41218967752572
 10
154.11995664847427
 20
-54.42308238111145
 10
154.1376110714945
 20
-54.45815569582829
 10
154.14299356745852
 20
-54.46918381394058
 10
154.31499970996313
 20
-54.832860246673775
 10
154.32010994125307
 20
-54.84401713638622
 10
154.3360221327633
 20
-54.87991446523825
 10
154.34085702116724
 20
-54.89119340605832
 10
154.34459212974036
 20
-54.90021075583249
 10
154.34914876290213
 20
-54.91160495374762
 10
154.36328038903957
 20
-54.948239816926055
 10
154.36755602221373
 20
-54.95974240849745
 10
154.5030873841868
 20
-55.338527190012854
 10
154.50707944189165
 20
-55.35013124650908
 10
154.51939645833048
 20
-55.38741538741759
 10
154.5231025358999
 20
-55.39911391898919
 10
154.525935804066
 20
-55.408453952420146
 10
154.52935366909773
 20
-55.4202399123103
 10
154.53982640306813
 20
-55.458083510192985
 10
154.5429539967679
 20
-55.469949798979506
 10
154.64070533710378
 20
-55.86019502476393
 10
154.64354077552585
 20
-55.87213449463757
 10
154.65214399729297
 20
-55.9104463809482
 10
154.65468557247536
 20
-55.92245184001871
 10
154.65658971431355
 20
-55.93202460748054
 10
154.6588358953063
 20
-55.944088824108114
 10
154.66554887895535
 20
-55.98277670215568
 10
154.66749831274322
 20
-55.99489240930784
 10
154.7265282325986
 20
-56.392839804508135
 10
154.72817974491554
 20
-56.40499970413576
 10
154.7329863182814
 20
-56.44397037143556
 10
154.73433891431816
 20
-56.45616713887031
 10
154.73529559190126
 20
-56.465880449377465
 10
154.73634845690455
 20
-56.47810673774287
 10
154.739237040531
 20
-56.51726631054551
 10
154.73998954029426
 20
-56.52951475518175
 10
154.76081380196558
 20
-56.95340233944662
 10
154.76107726615714
 20
-56.959532565139405
 10
154.76179995614999
 20
-56.97915372178318
 10
154.76198817320395
 20
-56.985286718992754
 10
154.76210846430507
 20
-56.99018683520268
 10
154.76222140587652
 20
-56.99632168032123
 10
154.76246235091955
 20
-57.01595466313939
 10
154.7625
 20
-57.022090432282184
 10
154.7625
 20
-72.98404579890702
 10
154.76268056364594
 20
-72.99140114639528
 10
154.7651470944971
 20
-73.0416085352821
 10
154.76658616857023
 20
-73.05621969954667
 10
154.77162033431904
 20
-73.0901572883432
 10
154.77448462339547
 20
-73.10455704193406
 10
154.78282101366358
 20
-73.13783777743315
 10
154.78708293307366
 20
-73.15188744285028
 10
154.79864126386585
 20
-73.18419081337699
 10
154.8042597689958
 20
-73.19775508466194
 10
154.81892872726826
 20
-73.22876999109938
 10
154.82584970884187
 20
-73.24171823690402
 10
154.84348802450762
 20
-73.2711459887486
 10
154.85164482968918
 20
-73.28335351038828
 10
154.872082636126
 20
-73.31091070230238
 10
154.88139671042313
 20
-73.32225993467101
 10
154.90443718038242
 20
-73.34768117583208
 10
154.9148188241679
 20
-73.35806281961754
 10
154.94024006532877
 20
-73.38110328957666
 10
154.95158929769784
 20
-73.39041736387415
 10
154.97914648961154
 20
-73.41085517031067
 10
154.9913540112515
 20
-73.41901197549242
 10
155.02078176309595
 20
-73.4366502911581
 10
155.03373000890085
 20
-73.44357127273184
 10
155.0647449153385
 20
-73.45824023100444
 10
155.07830918662268
 20
-73.46385873613406
 10
155.11061255715
 20
-73.47541706692648
 10
155.12466222256603
 20
-73.47967898633622
 10
155.15794295806649
 20
-73.48801537660465
 10
155.1723427116562
 20
-73.49087966568086
 10
155.20628030045344
 20
-73.49591383142977
 10
155.22089146471825
 20
-73.4973529055029
 10
155.27109885360423
 20
-73.49981943635402
 10
155.27845420109313
 20
-73.5
 10
168.29040956771667
 20
-73.5
 10
168.29654533685965
 20
-73.50003764908043
 10
168.31617831967833
 20
-73.50027859412347
 10
168.322313164797
 20
-73.50039153569494
 10
168.32721328100854
 20
-73.50051182679611
 10
168.33334627821756
 20
-73.50070004385005
 10
168.3529674348608
 20
-73.50142273384286
 10
168.3590976605538
 20
-73.50168619803443
 10
168.7829852448184
 20
-73.52251045970573
 10
168.79523368945442
 20
-73.52326295946897
 10
168.8343932622556
 20
-73.5261515430953
 10
168.84661955062032
 20
-73.52720440809851
 10
168.85633286112665
 20
-73.52816108568152
 10
168.8685296285615
 20
-73.52951368171827
 10
168.90750029586275
 20
-73.53432025508425
 10
168.91966019549116
 20
-73.53597176740125
 10
169.3176075906926
 20
-73.59500168725678
 10
169.3297232978451
 20
-73.59695112104471
 10
169.36841117589375
 20
-73.60366410469396
 10
169.38047539252165
 20
-73.60591028568682
 10
169.39004815998234
 20
-73.6078144275248
 10
169.40205361905288
 20
-73.61035600270718
 10
169.4403655053625
 20
-73.61895922447412
 10
169.4523049752355
 20
-73.62179466289608
 10
169.84255020102063
 20
-73.71954600323217
 10
169.8544164898061
 20
-73.72267359693163
 10
169.89226008768628
 20
-73.73314633090125
 10
169.90404604757592
 20
-73.73656419593281
 10
169.91338608100736
 20
-73.73939746409901
 10
169.92508461257975
 20
-73.74310354166865
 10
169.96236875349078
 20
-73.75542055810824
 10
169.97397280998774
 20
-73.75941261581335
 10
170.35275759150235
 20
-73.89494397778616
 10
170.36426018307375
 20
-73.8992196109603
 10
170.4008950462519
 20
-73.91335123709763
 10
170.41228924416683
 20
-73.91790787025931
 10
170.42130659394087
 20
-73.92164297883238
 10
170.43258553476082
 20
-73.92647786723626
 10
170.4684828636131
 20
-73.94239005874658
 10
170.47963975332584
 20
-73.94750029003666
 10
170.84331618605995
 20
-74.1195064325417
 10
170.8543443041724
 20
-74.12488892850581
 10
170.88941761888947
 20
-74.14254335152616
 10
170.9003103224752
 20
-74.14819486994976
 10
170.90891814658383
 20
-74.15279584779213
 10
170.9196688742855
 20
-74.15871298441184
 10
170.95383368017878
 20
-74.17806710789003
 10
170.9644359561604
 20
-74.18424629844421
 10
171.30950163726078
 20
-74.39107070830102
 10
171.31994907510796
 20
-74.39750823067645
 10
171.35312306616981
 20
-74.41851542883514
 10
171.3634093727363
 20
-74.42520740530887
 10
171.37152477312813
 20
-74.43062994248886
 10
171.38164375232702
 20
-74.4375723420642
 10
171.4137470095045
 20
-74.4601820067212
 10
171.42369256604155
 20
-74.46737064755649
 10
171.74682432436654
 20
-74.70702149263604
 10
171.75659046741077
 20
-74.71445204456317
 10
171.78754565114835
 20
-74.73860970705799
 10
171.79712649794007
 20
-74.74627769419011
 10
171.80467131887397
 20
-74.75246956871118
 10
171.81406109826892
 20
-74.76037037213922
 10
171.84379363481503
 20
-74.78601783454496
 10
171.8529866907614
 20
-74.79414669512052
 10
172.15107259083666
 20
-75.06431600677823
 10
172.16006338578137
 20
-75.07266802797967
 10
172.18850164685244
 20
-75.09974350331383
 10
172.19728476507714
 20
-75.10831365419624
 10
172.20418634580196
 20
-75.11521523492104
 10
172.21275649668465
 20
-75.12399835314599
 10
172.23983197201997
 20
-75.15243661421822
 10
172.24818399322186
 20
-75.1614274091634
 10
172.51835330487953
 20
-75.4595133092386
 10
172.52648216545523
 20
-75.46870636518516
 10
172.55212962786072
 20
-75.49843890173099
 10
172.56003043128774
 20
-75.50782868112472
 10
172.56622230580874
 20
-75.5153735020585
 10
172.57389029294166
 20
-75.52495434885118
 10
172.59804795543667
 20
-75.555909532589
 10
172.60547850736387
 20
-75.56567567563332
 10
172.84512935244325
 20
-75.88880743395805
 10
172.8523179932789
 20
-75.89875299049558
 10
172.87492765793644
 20
-75.93085624767393
 10
172.8818700575111
 20
-75.94097522687186
 10
172.8872925946913
 20
-75.94909062726398
 10
172.89398457116565
 20
-75.9593769338314
 10
172.91499176932373
 20
-75.99255092489238
 10
172.9214292916989
 20
-76.0029983627391
 10
173.12825370155574
 20
-76.3480640438395
 10
173.13443289210977
 20
-76.3586663198209
 10
173.1537870155882
 20
-76.39283112571454
 10
173.15970415220875
 20
-76.40358185341779
 10
173.16430513005128
 20
-76.41218967752677
 10
173.1699566484742
 20
-76.42308238111123
 10
173.1876110714944
 20
-76.458155695828
 10
173.19299356745847
 20
-76.46918381394038
 10
173.36499970996329
 20
-76.832860246674
 10
173.37010994125347
 20
-76.84401713638698
 10
173.38602213276383
 20
-76.87991446523938
 10
173.39085702116762
 20
-76.89119340605917
 10
173.39459212974074
 20
-76.90021075583336
 10
173.39914876290248
 20
-76.91160495374841
 10
173.41328038903976
 20
-76.94823981692645
 10
173.4175560222138
 20
-76.95974240849765
 10
173.55308738418665
 20
-77.33852719001239
 10
173.5570794418916
 20
-77.35013124650884
 10
173.5693964583309
 20
-77.38741538741887
 10
173.57310253590074
 20
-77.39911391899187
 10
173.57593580406697
 20
-77.40845395242341
 10
173.57935366909845
 20
-77.42023991231278
 10
173.58982640306834
 20
-77.45808351019387
 10
173.59295399676785
 20
-77.46994979897948
 10
173.69070533710385
 20
-77.86019502476412
 10
173.69354077552592
 20
-77.87213449463759
 10
173.70214399729278
 20
-77.910446380947
 10
173.7046855724749
 20
-77.92245184001624
 10
173.706589714313
 20
-77.93202460747749
 10
173.70883589530598
 20
-77.94408882410606
 10
173.7155488789553
 20
-77.98277670215504
 10
173.7174983127433
 20
-77.99489240930778
 10
173.77652823259868
 20
-78.39283980450857
 10
173.77817974491566
 20
-78.40499970413686
 10
173.78298631828162
 20
-78.44397037143783
 10
173.78433891431834
 20
-78.45616713887263
 10
173.78529559190142
 20
-78.46588044937965
 10
173.78634845690462
 20
-78.47810673774413
 10
173.789237040531
 20
-78.51726631054547
 10
173.78998954029427
 20
-78.52951475518185
 10
173.81081380196557
 20
-78.95340233944624
 10
173.81107726615713
 20
-78.95953256513906
 10
173.81179995614994
 20
-78.9791537217821
 10
173.8119881732039
 20
-78.98528671899261
 10
173.81210846430506
 20
-78.99018683520409
 10
173.8122214058765
 20
-78.99632168032117
 10
173.81246235091956
 20
-79.01595466314008
 10
173.8125
 20
-79.02209043228336
 10
173.8125
 20
-90.63885781707464
 10
173.8124638745939
 20
-90.64486814993184
 10
173.81223268034717
 20
-90.66409982546944
 10
173.8121243093491
 20
-90.67010928982175
 10
173.81200887925942
 20
-90.67490956761293
 10
173.81182827832905
 20
-90.68091729508873
 10
173.8111348292158
 20
-90.70013785499428
 10
173.8108820244504
 20
-90.7061429774609
 10
173.79089982029473
 20
-91.12139287719101
 10
173.79017775580962
 20
-91.13339183660798
 10
173.7874059631431
 20
-91.17175518554082
 10
173.7863956572117
 20
-91.18373331920615
 10
173.7854774199157
 20
-91.19325216407758
 10
173.78417945648002
 20
-91.2052025488054
 10
173.7795669218062
 20
-91.24338833018783
 10
173.77798205107072
 20
-91.25530405882473
 10
173.7213316040919
 20
-91.64529638963928
 10
173.71946074208896
 20
-91.65717057506667
 10
173.71301812778182
 20
-91.69509051832563
 10
173.71086235584292
 20
-91.70691629743439
 10
173.70903436676463
 20
-91.7163029913856
 10
173.70659493089443
 20
-91.7280735290481
 10
173.69833712975498
 20
-91.76563997812573
 10
173.6956154399129
 20
-91.77734847113744
 10
173.60177988788342
 20
-92.16009927833782
 10
173.5987775171667
 20
-92.17173895935986
 10
173.58872361799752
 20
-92.20886507533602
 10
173.5854423017333
 20
-92.2204292167998
 10
173.58272145348414
 20
-92.22959701654784
 10
173.57916308822664
 20
-92.24107893454403
 10
173.56733633170612
 20
-92.2776788963754
 10
173.56350297413852
 20
-92.28907195452311
 10
173.43334945984637
 20
-92.66104420342629
 10
173.4292433255943
 20
-92.67234181670122
 10
173.41567105055154
 20
-92.70833101961065
 10
173.41129451290212
 20
-92.71952665815351
 10
173.40770594908594
 20
-92.72839084323479
 10
173.40306153761384
 20
-92.73947803613025
 10
173.3877751178337
 20
-92.77477328717409
 10
173.38286551694296
 20
-92.78574562618167
 10
173.21759680073575
 20
-93.14350188773446
 10
173.21242484810458
 20
-93.15435303100116
 10
173.1954596198033
 20
-93.1888727413807
 10
173.1900283047465
 20
-93.19959641710062
 10
173.18560518760492
 20
-93.20807507278192
 10
173.17991764934365
 20
-93.21866508282636
 10
173.1613128294869
 20
-93.25232945648649
 10
173.15537235533736
 20
-93.26277967998023
 10
172.95651570030674
 20
-93.60301389634772
 10
172.9503257237771
 20
-93.6133182932129
 10
172.9301243194214
 20
-93.64604951130737
 10
172.92368841822804
 20
-93.65620212575226
 10
172.91847162218488
 20
-93.664216900013
 10
172.91179351618868
 20
-93.67421186396858
 10
172.89004222506995
 20
-93.70593426473856
 10
172.88312577411762
 20
-93.71576580126317
 10
172.65251883252296
 20
-94.03533383740827
 10
172.64536803422473
 20
-94.04499626401365
 10
172.62211713681052
 20
-94.07563651769051
 10
172.61473612422486
 20
-94.08512424963318
 10
172.60877385816187
 20
-94.09260107722312
 10
172.601166897408
 20
-94.10190863073035
 10
172.57647014066868
 20
-94.13139590904565
 10
172.56864162846045
 20
-94.14051790448549
 10
172.30841545981937
 20
-94.43646660340336
 10
172.30036992092394
 20
-94.44539776839397
 10
172.27428439408868
 20
-94.47366390830882
 10
172.26602647871206
 20
-94.48239908076498
 10
172.25937384046713
 20
-94.48926886764657
 10
172.25090832156587
 20
-94.49780299876407
 10
172.22349432415902
 20
-94.52478266003052
 10
172.214826094681
 20
-94.53311081720456
 10
171.92738547245483
 20
-94.80270529031431
 10
171.9185195425121
 20
-94.8108226599898
 10
171.8898404449596
 20
-94.83645347619706
 10
171.88078193893202
 20
-94.84435536665111
 10
171.87350040613515
 20
-94.85055462850438
 10
171.86425455970874
 20
-94.85823647255819
 10
171.8343766568526
 20
-94.88245919529683
 10
171.82494881399396
 20
-94.88991655295469
 10
171.51295000286134
 20
-95.13066545344893
 10
171.50334561272763
 20
-95.13789401446566
 10
171.47233797057913
 20
-95.16065265028612
 10
171.46256258437003
 20
-95.16764823665719
 10
171.45471944632033
 20
-95.1731196855461
 10
171.44477871406917
 20
-95.17987825392272
 10
171.41271301015723
 20
-95.20112019376934
 10
171.40261267746342
 20
-95.20763783779685
 10
171.0689388865387
 20
-95.41731638340262
 10
171.05868479124925
 20
-95.42358933597647
 10
171.0256351489215
 20
-95.4432654768047
 10
171.0152332177561
 20
-95.44929011224848
 10
171.0069009535997
 20
-95.45398318602037
 10
170.9963571987247
 20
-95.4597560221816
 10
170.96240001581188
 20
-95.4778208804589
 10
170.9517205313664
 20
-95.48333858072101
 10
170.58010721055166
 20
-95.66971268702895
 10
170.57471849570672
 20
-95.67237485877668
 10
170.55742402942167
 20
-95.68078985911575
 10
170.55200370283845
 20
-95.68338706257992
 10
170.54766107997744
 20
-95.68543587142084
 10
170.54220992490326
 20
-95.68796773130074
 10
170.52471816340093
 20
-95.69596454780927
 10
170.51923696753616
 20
-95.6984306982472
 10
155.23440524857756
 20
-102.46535364427359
 10
155.2277526494668
 20
-102.46849636044986
 10
155.1828417550138
 20
-102.49107682175445
 10
155.17006394424098
 20
-102.49830763133558
 10
155.14106951504897
 20
-102.51664954601239
 10
155.12906197620495
 20
-102.52509798174063
 10
155.10200498513933
 20
-102.54619352611977
 10
155.09088335738676
 20
-102.55577822494104
 10
155.06602437806302
 20
-102.57942423739743
 10
155.0558957687571
 20
-102.59005289342245
 10
155.0334742067341
 20
-102.61602164993121
 10
155.0244361599198
 20
-102.62759190339173
 10
155.0046679470977
 20
-102.65563331063052
 10
154.99680750410596
 20
-102.6680337336615
 10
154.97988301918016
 20
-102.6978777375502
 10
154.97327588037405
 20
-102.71098890729911
 10
154.95935811538635
 20
-102.74234809376563
 10
154.95406791112495
 20
-102.75604374249939
 10
154.94329090176015
 20
-102.7886161054361
 10
154.93936857960193
 20
-102.80276433657171
 10
154.93183611435174
 20
-102.83623618631707
 10
154.92931944840353
 20
-102.85070074465338
 10
154.9251040690259
 20
-102.88474972899712
 10
154.9240172961564
 20
-102.89939131293092
 10
154.9231595990591
 20
-102.93368952154111
 10
154.92351318548506
 20
-102.9483671246145
 10
154.9260214307601
 20
-102.9825842469916
 10
154.92781197125112
 20
-102.9971565158657
 10
154.93366200312522
 20
-103.03096302241651
 10
154.9368722537974
 20
-103.04528961817381
 10
154.94600773326584
 20
-103.0783599337608
 10
154.95060677765008
 20
-103.09230288345215
 10
154.96867647041782
 20
-103.13921079191763
 10
154.9714889734887
 20
-103.14600958345645
 10
166.1215501686165
 20
-128.33128365602366
 10
166.12469288479411
 20
-128.33793625513732
 10
166.1472733460984
 20
-128.38284714958965
 10
166.15450415567935
 20
-128.39562496036217
 10
166.1728460703563
 20
-128.4246193895544
 10
166.1812945060848
 20
-128.43662692839882
 10
166.2023900504632
 20
-128.46368391946353
 10
166.2119747492847
 20
-128.47480554721636
 10
166.23562076174193
 20
-128.49966452654095
 10
166.24624941776605
 20
-128.50979313584605
 10
166.27221817427468
 20
-128.5322146978689
 10
166.2837884277358
 20
-128.54125274468367
 10
166.31182983497408
 20
-128.56102095750543
 10
166.32423025800577
 20
-128.56888140049762
 10
166.35407426189474
 20
-128.58580588542355
 10
166.36718543164213
 20
-128.5924130242289
 10
166.39854461810938
 20
-128.6063307892169
 10
166.41224026684378
 20
-128.61162099347857
 10
166.4448126297801
 20
-128.62239800284325
 10
166.45896086091489
 20
-128.62632032500125
 10
166.4924327106606
 20
-128.63385279025152
 10
166.50689726899762
 20
-128.63636945619982
 10
166.5409462533412
 20
-128.64058483557744
 10
166.55558783727466
 20
-128.64167160844693
 10
166.58988604588498
 20
-128.64252930554423
 10
166.6045636489579
 20
-128.64217571911828
 10
166.6387807713355
 20
-128.63966747384322
 10
166.6533530402094
 20
-128.63787693335223
 10
166.68715954676108
 20
-128.63202690147796
 10
166.70148614251713
 20
-128.62881665080607
 10
166.7345564581042
 20
-128.6196811713376
 10
166.7484994077966
 20
-128.615082126953
 10
166.79540731626005
 20
-128.5970124341861
 10
166.80220610780108
 20
-128.59419993111428
 10
183.202286219648
 20
-121.33353259331979
 10
183.20825799923668
 20
-121.33093513757298
 10
183.2274210109493
 20
-121.32274807545777
 10
183.2334261136805
 20
-121.32022861738277
 10
183.23823535454778
 20
-121.31824761868636
 10
183.24427276174342
 20
-121.31580658567246
 10
183.26364251325305
 20
-121.30812142266551
 10
183.2697112007514
 20
-121.30575922879987
 10
183.69049166231972
 20
-121.1451208682982
 10
183.7027187552308
 20
-121.14063458741853
 10
183.74202577568659
 20
-121.1267904726108
 10
183.7543655705608
 20
-121.12262418173549
 10
183.76421522617923
 20
-121.11944093111683
 10
183.77665935029069
 20
-121.11559745713329
 10
183.8166339646089
 20
-121.10381901997364
 10
183.82917397444592
 20
-121.10030097073253
 10
184.26437995836042
 20
-120.98429824978722
 10
184.27068326388132
 20
-120.9826620140673
 10
184.29088708306543
 20
-120.9775576341427
 10
184.29721116453462
 20
-120.97600363240973
 10
184.3022701447399
 20
-120.9747953804307
 10
184.30861392936708
 20
-120.97332387629889
 10
184.32894384341625
 20
-120.96874745863006
 10
184.3353062550698
 20
-120.96735870171885
 10
201.80184553030412
 20
-117.27384422786946
 10
201.8082254896918
 20
-117.27253845376165
 10
201.82866770447666
 20
-117.26849310351156
 10
201.83506412932974
 20
-117.26727053371302
 10
201.84017916465527
 20
-117.2663273650226
 10
201.8465909699112
 20
-117.26518820692493
 10
201.86713161510195
 20
-117.2616766689206
 10
201.87355771309
 20
-117.26062111576562
 10
202.31846853135173
 20
-117.19051231820734
 10
202.33135924290053
 20
-117.1886527287509
 10
202.37268001869805
 20
-117.1832402561764
 10
202.38561479202266
 20
-117.18171705027379
 10
202.3959099222723
 20
-117.18064043824863
 10
202.40887998094706
 20
-117.17945464941646
 10
202.45042654467863
 20
-117.17620127978529
 10
202.4634230883361
 20
-117.17535371259798
 10
202.91321278441438
 20
-117.1518993099539
 10
202.91971823291962
 20
-117.15160254816763
 10
202.9405409694048
 20
-117.15078851543767
 10
202.94704973120278
 20
-117.15057650676772
 10
202.9522492312495
 20
-117.15044103414463
 10
202.95876020222073
 20
-117.15031381455528
 10
202.97959707681684
 20
-117.15004240892782
 10
202.9861091524682
 20
-117.15
 10
220.92154579890686
 20
-117.15
 10
220.92890114639573
 20
-117.14981943635402
 10
220.97910853528168
 20
-117.1473529055029
 10
220.99371969954655
 20
-117.14591383142977
 10
221.02765728834365
 20
-117.14087966568088
 10
221.04205704193356
 20
-117.13801537660463
 10
221.07533777743404
 20
-117.12967898633619
 10
221.08938744284993
 20
-117.12541706692649
 10
221.12169081337746
 20
-117.11385873613399
 10
221.1352550846615
 20
-117.10824023100443
 10
221.16626999109914
 20
-117.09357127273185
 10
221.17921823690406
 20
-117.0866502911581
 10
221.2086459887484
 20
-117.06901197549249
 10
221.22085351038842
 20
-117.06085517031067
 10
221.24841070230238
 20
-117.04041736387397
 10
221.25975993467094
 20
-117.03110328957692
 10
221.28518117583232
 20
-117.00806281961736
 10
221.29556281961743
 20
-116.99768117583226
 10
221.31860328957706
 20
-116.97225993467082
 10
221.3279173638736
 20
-116.96091070230284
 10
221.3483551703109
 20
-116.9333535103881
 10
221.3565119754926
 20
-116.92114598874826
 10
221.37415029115792
 20
-116.89171823690437
 10
221.38107127273176
 20
-116.87876999109929
 10
221.39574023100457
 20
-116.84775508466115
 10
221.40135873613406
 20
-116.83419081337732
 10
221.4129170669264
 20
-116.80188744285016
 10
221.41717898633613
 20
-116.7878377774342
 10
221.42551537660472
 20
-116.75455704193313
 10
221.4283796656808
 20
-116.74015728834402
 10
221.43341383142976
 20
-116.70621969954655
 10
221.4348529055029
 20
-116.69160853528155
 10
221.437319436354
 20
-116.64140114639669
 10
221.4375
 20
-116.6340457989063
 10
221.4375
 20
-99.78546145192378
 10
221.43753609672817
 20
-99.77945350508745
 10
221.4377671074494
 20
-99.76022946315993
 10
221.43787539242203
 20
-99.7542223837901
 10
221.43799073101408
 20
-99.74942400530509
 10
221.43817118859616
 20
-99.74341866075102
 10
221.43886408734502
 20
-99.72420572122236
 10
221.43911669148096
 20
-99.71820297857248
 10
221.4590830462277
 20
-99.30311739982221
 10
221.45980453785822
 20
-99.29112318660914
 10
221.46257413224677
 20
-99.25277498588056
 10
221.46358363710925
 20
-99.24080157363682
 10
221.4645011506754
 20
-99.23128643032123
 10
221.46579808575314
 20
-99.21934073401943
 10
221.47040696792385
 20
-99.18116988968396
 10
221.4719905842027
 20
-99.16925880827755
 10
221.52859623812407
 20
-98.77941790560078
 10
221.5304656210229
 20
-98.76754831806136
 10
221.53690314550119
 20
-98.72964299612951
 10
221.5390572154014
 20
-98.71782175746084
 10
221.54088377043396
 20
-98.70843860872614
 10
221.5433212833021
 20
-98.69667254601265
 10
221.55157258086336
 20
-98.65912029919926
 10
221.5542921289709
 20
-98.64741620765508
 10
221.64805394730945
 20
-98.26480824788774
 10
221.65105396004415
 20
-98.25317288694065
 10
221.66109997205848
 20
-98.21606045243699
 10
221.6643787168329
 20
-98.20450054181863
 10
221.6670974473616
 20
-98.19533602940552
 10
221.67065303061202
 20
-98.18385824527694
 10
221.68247055306523
 20
-98.14727134440747
 10
221.68630092134794
 20
-98.13588231549329
 10
221.81635313000925
 20
-97.76404020857424
 10
221.82045607118314
 20
-97.75274651234623
 10
221.83401780827293
 20
-97.71676965257153
 10
221.8383909527804
 20
-97.70557781143974
 10
221.84197675470116
 20
-97.69671655825252
 10
221.84661757693297
 20
-97.68563303580785
 10
221.86189220411646
 20
-97.65034931553055
 10
221.86679802387408
 20
-97.63938051280255
 10
222.0319397520216
 20
-97.28173775937415
 10
222.03710773606232
 20
-97.270890011141
 10
222.054059972407
 20
-97.23638092777092
 10
222.05948713608169
 20
-97.22566049889777
 10
222.0639068989615
 20
-97.2171843276185
 10
222.06959010793773
 20
-97.2065974094402
 10
222.08818079761528
 20
-97.17294267114782
 10
222.09411676968753
 20
-97.16249537789339
 10
222.2928231382961
 20
-96.82235436517978
 10
222.29900844528117
 20
-96.8120527304415
 10
222.31919464800487
 20
-96.77933007205743
 10
222.32562571772175
 20
-96.76918004530619
 10
222.33083863053207
 20
-96.76116722286396
 10
222.3375117488673
 20
-96.75117466600959
 10
222.3592468390788
 20
-96.71945966946662
 10
222.36615815212605
 20
-96.70963035348112
 10
222.59659435434762
 20
-96.3901318618397
 10
222.603739870639
 20
-96.38047146341552
 10
222.62697364519784
 20
-96.34983738317962
 10
222.63434923800534
 20
-96.3403514814568
 10
222.64030716596287
 20
-96.33287599632719
 10
222.64790857568576
 20
-96.323570069666
 10
222.67258736983197
 20
-96.29408766352805
 10
222.6804102064508
 20
-96.28496708635257
 10
222.94044844978004
 20
-95.98906128806281
 10
222.94848819539746
 20
-95.98013132775019
 10
222.97455500670114
 20
-95.95186869339676
 10
222.98280701814852
 20
-95.94313450723848
 10
222.98945494717827
 20
-95.9362653862548
 10
222.99791445869826
 20
-95.92773201847704
 10
223.02530907872602
 20
-95.90075443619575
 10
223.03397120472337
 20
-95.89242681504771
 10
223.3212103585225
 20
-95.62284603312897
 10
223.33007009638757
 20
-95.6147289680348
 10
223.3587292497662
 20
-95.58909874993604
 10
223.3677814827628
 20
-95.58119692871848
 10
223.37505802748575
 20
-95.57499759969312
 10
223.3842975277067
 20
-95.5673155858657
 10
223.41415501827856
 20
-95.54309193195216
 10
223.42357644966503
 20
-95.53563416208362
 10
223.73536421662658
 20
-95.29486764068159
 10
223.74496213804932
 20
-95.287638421834
 10
223.77594900176862
 20
-95.26487728326387
 10
223.7857178701701
 20
-95.25788079050537
 10
223.79355584072158
 20
-95.25240849655218
 10
223.80349001432
 20
-95.24564877054372
 10
223.8355346785448
 20
-95.22440272039556
 10
223.8456284200872
 20
-95.21788366506117
 10
224.17908582691055
 20
-95.00815458436517
 10
224.189333306991
 20
-95.00187996463374
 10
224.22236175579877
 20
-94.98219807647526
 10
224.23275705622353
 20
-94.97617151610746
 10
224.24108407866734
 20
-94.97147678707364
 10
224.25162119587088
 20
-94.96570176657015
 10
224.2855571410215
 20
-94.9476295011077
 10
224.2962299895368
 20
-94.94210935569733
 10
224.64827797067497
 20
-94.76535430362946
 10
224.6590803866454
 20
-94.76009222134441
 10
224.69384544378428
 20
-94.74367132142196
 10
224.70477118852537
 20
-94.73867034125561
 10
224.7135103731371
 20
-94.73479652714096
 10
224.7245531367394
 20
-94.73005953729302
 10
224.76006700645456
 20
-94.7153279314721
 10
224.77122041142454
 20
-94.71085766768185
 10
225.13860824043553
 20
-94.56870875790923
 10
225.1498658453833
 20
-94.5645078018736
 10
225.18604649867137
 20
-94.55149951683032
 10
225.19740180202865
 20
-94.54757029471389
 10
225.2064724532788
 20
-94.54455316538655
 10
225.21791889705378
 20
-94.54089794642039
 10
225.25468276479666
 20
-94.52964302834826
 10
225.266213738361
 20
-94.52626392351934
 10
225.6455490443344
 20
-94.42003372490895
 10
225.65715788824141
 20
-94.41693268574102
 10
225.69442005422263
 20
-94.40745713095433
 10
225.7061000640537
 20
-94.40463594838062
 10
225.71541842572825
 20
-94.40250336328779
 10
225.72716285596573
 20
-94.39996366661659
 10
225.76483725301756
 20
-94.3922893615017
 10
225.77663932093765
 20
-94.39003261747607
 10
226.1644194128334
 20
-94.32070203414885
 10
226.17627230242533
 20
-94.31872954609898
 10
226.214271911216
 20
-94.31287421656418
 10
226.22616877711826
 20
-94.3111871236548
 10
226.23564880570527
 20
-94.30995877457465
 10
226.2475827771588
 20
-94.30855805114713
 10
226.2858198271915
 20
-94.30453522167846
 10
226.29778401200835
 20
-94.30342167668807
 10
226.69042822166162
 20
-94.27163089058679
 10
226.70241571020452
 20
-94.2708051671356
 10
226.74080188254968
 20
-94.26862412955849
 10
226.75280575172252
 20
-94.26808670452398
 10
226.76235991091642
 20
-94.26777393373663
 10
226.7743732281625
 20
-94.26752511749615
 10
226.81281985944722
 20
-94.2671909095139
 10
226.82483568675406
 20
-94.26723084576547
 10
227.2187184319065
 20
-94.27327340536796
 10
227.23072982981265
 20
-94.27360207104735
 10
227.26914811702324
 20
-94.27511546460475
 10
227.28114814862374
 20
-94.27573266989874
 10
227.29068821761484
 20
-94.27633836545442
 10
227.3026699525692
 20
-94.27724375391033
 10
227.34097115815328
 20
-94.28060125341061
 10
227.35292767668895
 20
-94.28179430214237
 10
227.74441193874273
 20
-94.32561441190568
 10
227.75633633565013
 20
-94.3270944318957
 10
227.79443199249422
 20
-94.33228828227504
 10
227.8063173811145
 20
-94.33405441877213
 10
227.81575526919966
 20
-94.33557298782371
 10
227.82759478540194
 20
-94.33762422083664
 10
227.86539690116072
 20
-94.34464242547628
 10
227.87718370730755
 20
-94.34697757036311
 10
228.2626546146808
 20
-94.42817060592589
 10
228.27438190357512
 20
-94.43078831407773
 10
228.31180316391544
 20
-94.43961466251312
 10
228.3234641627338
 20
-94.44251342213339
 10
228.33271272272245
 20
-94.44493084257927
 10
228.34430069692573
 20
-94.44810897955666
 10
228.38125466720635
 20
-94.4587230849207
 10
228.39276292442847
 20
-94.46217876379583
 10
228.7686611314122
 20
-94.57999500818272
 10
228.78008302532604
 20
-94.58372623320835
 10
228.81648435023791
 20
-94.59610357931943
 10
228.82781328439398
 20
-94.60010819561323
 10
228.83678711730585
 20
-94.60340214557398
 10
228.8480165489415
 20
-94.60767784036288
 10
228.88378114966557
 20
-94.62178983835388
 10
228.89490459348247
 20
-94.62633414230935
 10
229.25775914638166
 20
-94.77968570863715
 10
229.26877017829267
 20
-94.78449599730176
 10
229.30381544669328
 20
-94.80031005165037
 10
229.31470770753265
 20
-94.80538354695364
 10
229.323323951152
 20
-94.80952361088727
 10
229.33409115034664
 20
-94.81485738274941
 10
229.36833613978493
 20
-94.83233696656887
 10
229.3789720589892
 20
-94.8379279345939
 10
229.72543244607576
 20
-95.0253988113577
 10
229.73593094276143
 20
-95.03124374661184
 10
229.76929655506396
 20
-95.05034848602044
 10
229.77965156606737
 20
-95.05644401289668
 10
229.78783066007074
 20
-95.06139196244749
 10
229.79803620509557
 20
-95.06773456061572
 10
229.83044537324818
 20
-95.08842032798862
 10
229.84049555831874
 20
-95.09500633442843
 10
230.16736264765183
 20
-95.31486546061181
 10
230.17725166851682
 20
-95.32169107172798
 10
230.20862953467662
 20
-95.34391008762455
 10
230.2183516801615
 20
-95.35097136144375
 10
230.2260181007614
 20
-95.35668150843522
 10
230.2355677560666
 20
-95.36397436688254
 10
230.26584184446466
 20
-95.38767531040506
 10
230.27521349440826
 20
-95.39519554165929
 10
230.51790342572738
 20
-95.5947817157348
 10
230.52370787968314
 20
-95.59932077319918
 10
230.56411494169396
 20
-95.62934821128974
 10
230.57633335408264
 20
-95.63752779439157
 10
230.60579056041055
 20
-95.6552159524238
 10
230.61875289127516
 20
-95.66215664111819
 10
230.6498041453036
 20
-95.67686777848232
 10
230.66338518880485
 20
-95.68250253121933
 10
230.69573056003617
 20
-95.69409454999082
 10
230.70979913406106
 20
-95.69836893952632
 10
230.74312619185176
 20
-95.70672986999371
 10
230.75754640512866
 20
-95.70960260911345
 10
230.79153323652167
 20
-95.71465169131692
 10
230.80616580122242
 20
-95.71609503163842
 10
230.85644758399582
 20
-95.718568899023
 10
230.86381385379974
 20
-95.71875
 10
244.50276758664296
 20
-95.71875
 10
244.5087116221792
 20
-95.71878533280686
 10
244.52773119177098
 20
-95.71901145478098
 10
244.53367438722958
 20
-95.71911744820795
 10
244.5384218885816
 20
-95.7192303494102
 10
244.54436340400295
 20
-95.71940698847708
 10
244.5633722217367
 20
-95.72008522657153
 10
244.56931121739902
 20
-95.72033248631368
 10
244.9799951049028
 20
-95.73987663742894
 10
244.99186217996458
 20
-95.74058286918108
 10
245.02980458890192
 20
-95.74329390471888
 10
245.041651519426
 20
-95.74428207017786
 10
245.0510674798551
 20
-95.74518030202141
 10
245.06288756871328
 20
-95.74644984257247
 10
245.10065821526598
 20
-95.75096142419905
 10
245.11244478050318
 20
-95.75251162216459
 10
245.498228074054
 20
-95.80792397636917
 10
245.509974452667
 20
-95.80975395541466
 10
245.54748794117214
 20
-95.81605588289425
 10
245.55918749287488
 20
-95.81816460852349
 10
245.56847560104117
 20
-95.81995295355199
 10
245.5801217120188
 20
-95.82233923369184
 10
245.61729322822202
 20
-95.83041725899507
 10
245.62887931487137
 20
-95.83307974466975
 10
246.0076570085517
 20
-95.92487700689222
 10
246.0191765212009
 20
-95.92781419298547
 10
246.05592202401743
 20
-95.93765005250408
 10
246.06736845062858
 20
-95.94086027860997
 10
246.07644475606855
 20
-95.94352257288656
 10
246.08781162592052
 20
-95.94700402424851
 10
246.12404803743615
 20
-95.95857548008593
 10
246.13532892478145
 20
-95.96232618862236
 10
246.50367744056734
 20
-96.08967865031643
 10
246.51486596826427
 20
-96.09369649573317
 10
246.55051136156914
 20
-96.10697738598262
 10
246.5616012046876
 20
-96.11126009697173
 10
246.57038367131398
 20
-96.11477227737879
 10
246.58136856071206
 20
-96.11931743290306
 10
246.61634234513193
 20
-96.1342777307981
 10
246.62721607099638
 20
-96.13908276145828
 10
246.98180609487383
 20
-96.30083934879771
 10
246.9925625102341
 20
-96.30590153828636
 10
247.02678561353238
 20
-96.32250742008638
 10
247.0374186377331
 20
-96.32782390672251
 10
247.0458278853177
 20
-96.33215422845599
 10
247.0563315074595
 20
-96.3377220068043
 10
247.0897265546164
 20
-96.3559359282684
 10
247.1000948369481
 20
-96.36175185083538
 10
247.4377214108816
 20
-96.5564505286825
 10
247.44794849216288
 20
-96.5625113076989
 10
247.48043998031088
 20
-96.58229208896908
 10
247.49052007912243
 20
-96.58859429824676
 10
247.49848010077298
 20
-96.59370362174104
 10
247.5084075187839
 20
-96.60024369860918
 10
247.53992198791136
 20
-96.62154661731336
 10
247.54969111310473
 20
-96.62832086463511
 10
247.86730260301343
 20
-96.85420185112827
 10
247.87690791285394
 20
-96.86120643938784
 10
247.9073741118929
 20
-96.88398333175397
 10
247.91681017645172
 20
-96.89121430122323
 10
247.92424902560083
 20
-96.89705644591457
 10
247.9335105106239
 20
-96.90450970889061
 10
247.96285955853887
 20
-96.9287090786382
 10
247.97194122846267
 20
-96.93638042175441
 10
248.26666690638413
 20
-97.19140209407858
 10
248.27556362729638
 20
-97.19928718068728
 10
248.30372916882055
 20
-97.22485431545758
 10
248.31243591136072
 20
-97.23294868808014
 10
248.3192863520511
 20
-97.23947084980716
 10
248.32779819425517
 20
-97.24776993265529
 10
248.35471654991076
 20
-97.27464702770887
 10
248.36302867999163
 20
-97.28314612926941
 10
248.63220467112325
 20
-97.56500347684053
 10
248.64031239019306
 20
-97.57369779252967
 10
248.66592270026518
 20
-97.60182408143773
 10
248.67382142499065
 20
-97.61070869631634
 10
248.68002153958997
 20
-97.61785192459244
 10
248.68770680478215
 20
-97.62692181614284
 10
248.71195116691607
 20
-97.65623370817363
 10
248.71941862805738
 20
-97.66548374914225
 10
248.9606119881596
 20
-97.97162920741987
 10
248.96785742385737
 20
-97.98105416871289
 10
248.99068102397112
 20
-98.01148539260541
 10
248.99770033834446
 20
-98.02107994624521
 10
249.00319408718482
 20
-98.02877967707985
 10
249.00998331218076
 20
-98.0385383992181
 10
249.03133454839212
 20
-98.07002015301187
 10
249.03788984602826
 20
-98.07993752699473
 10
249.24892055156522
 20
-98.40760400361711
 10
249.25523821609966
 20
-98.41767442310436
 10
249.27506881539588
 20
-98.45013552969809
 10
249.2811452754216
 20
-98.46035330183193
 10
249.28588300331444
 20
-98.46853994129245
 10
249.29171482377834
 20
-98.47889928991535
 10
249.30997995115342
 20
-98.51226635798653
 10
249.31556383529895
 20
-98.52276142690813
 10
249.49452448755645
 20
-98.86898731202521
 10
249.49985727878618
 20
-98.87961216833101
 10
249.51651563861094
 20
-98.91380975827049
 10
249.5215943222721
 20
-98.92455839567779
 10
249.52553320731607
 20
-98.9331579489137
 10
249.5303549124024
 20
-98.94402429116168
 10
249.5453688417881
 20
-98.9789750856322
 10
249.5499308425674
 20
-98.98995298992736
 10
249.69520390765572
 20
-99.35160892467954
 10
249.69950362520578
 20
-99.3626921851568
 10
249.7128391791568
 20
-99.39831716390091
 10
249.71687418282602
 20
-99.40949951513838
 10
249.71997862345185
 20
-99.41843425518202
 10
249.7237466322332
 20
-99.4297093757426
 10
249.73537366039355
 20
-99.46592799424043
 10
249.73887254421254
 20
-99.47728951024133
 10
249.84914497312846
 20
-99.85110667143432
 10
249.85237275404896
 20
-99.86254816015493
 10
249.8622649688684
 20
-99.89927853172472
 10
249.8652198222102
 20
-99.91079352523593
 10
249.86746175896536
 20
-99.91998269553756
 10
249.87014201433473
 20
-99.93156468435457
 10
249.8782770505034
 20
-99.96872376529423
 10
249.88068119273927
 20
-99.98036620206372
 10
249.89630051214638
 20
-100.06082312960064
 10
249.89788538141332
 20
-100.06803315650727
 10
249.90992308706507
 20
-100.11701148808618
 10
249.91413891350467
 20
-100.13112605316321
 10
249.92560255447904
 20
-100.16358462784534
 10
249.93118603099586
 20
-100.17721616957296
 10
249.94578621602403
 20
-100.20839001649473
 10
249.952683210296
 20
-100.22140637581298
 10
249.9702783892317
 20
-100.25099326164084
 10
249.97842203426046
 20
-100.26326824374034
 10
249.99884162021382
 20
-100.29098132087512
 10
250.0081529626058
 20
-100.30239591866642
 10
250.0311989857987
 20
-100.32796650625713
 10
250.04158775122784
 20
-100.33841005415839
 10
250.0670367783308
 20
-100.36159024298995
 10
250.0784022467528
 20
-100.37096148983568
 10
250.10600754709043
 20
-100.39152654582986
 10
250.11823952923598
 20
-100.39973463651377
 10
250.14773346686388
 20
-100.41748517954733
 10
250.1607133725329
 20
-100.4244505358699
 10
250.19181000099329
 20
-100.43921447278353
 10
250.2054119887984
 20
-100.44486956497023
 10
250.23780982339693
 20
-100.45650375802761
 10
250.25190202080543
 20
-100.46079375943543
 10
250.28528696153498
 20
-100.46918541405725
 10
250.29973274338766
 20
-100.47206873272523
 10
250.33378112015376
 20
-100.4771364910422
 10
250.34844043325822
 20
-100.47858517292885
 10
250.39881520638625
 20
-100.48106822623942
 10
250.4061951289407
 20
-100.48125
 10
287.59654579890633
 20
-100.48125
 10
287.6039011463956
 20
-100.481069436354
 10
287.6541085352821
 20
-100.47860290550287
 10
287.66871969954633
 20
-100.47716383142979
 10
287.7026572883439
 20
-100.47212966568084
 10
287.71705704193334
 20
-100.46926537660468
 10
287.75033777743386
 20
-100.46092898633624
 10
287.7643874428501
 20
-100.45666706692643
 10
287.7966908133775
 20
-100.44510873613399
 10
287.81025508466143
 20
-100.43949023100446
 10
287.8412699910992
 20
-100.42482127273185
 10
287.85421823690405
 20
-100.41790029115812
 10
287.8836459887485
 20
-100.40026197549243
 10
287.89585351038806
 20
-100.39210517031094
 10
287.92341070230265
 20
-100.37166736387375
 10
287.9347599346709
 20
-100.36235328957696
 10
287.96018117583253
 20
-100.33931281961713
 10
287.97056281961676
 20
-100.32893117583292
 10
287.9936032895772
 20
-100.30350993467057
 10
288.0029173638738
 20
-100.29216070230258
 10
288.0233551703106
 20
-100.2646035103885
 10
288.03151197549255
 20
-100.25239598874825
 10
288.0491502911585
 20
-100.22296823690327
 10
288.05607127273163
 20
-100.2100199910996
 10
288.0707402310044
 20
-100.1790050846616
 10
288.07635873613424
 20
-100.16544081337686
 10
288.0879170669263
 20
-100.13313744285055
 10
288.0921789863362
 20
-100.11908777743399
 10
288.10051537660485
 20
-100.08580704193277
 10
288.1033796656809
 20
-100.07140728834386
 10
288.1084138314298
 20
-100.03746969954653
 10
288.1098529055029
 20
-100.02285853528178
 10
288.11231943635397
 20
-99.97265114639632
 10
288.1125
 20
-99.96529579890638
 10
288.1125
 20
-43.84720420109362
 10
288.11231943635397
 20
-43.83984885360369
 10
288.1098529055029
 20
-43.78964146471819
 10
288.1084138314298
 20
-43.77503030045347
 10
288.1033796656809
 20
-43.741092711656215
 10
288.1005153766048
 20
-43.72669295806711
 10
288.0921789863363
 20
-43.69341222256639
 10
288.08791706692637
 20
-43.6793625571497
 10
288.076358736134
 20
-43.64705918662257
 10
288.07074023100455
 20
-43.63349491533889
 10
288.05607127273146
 20
-43.602480008900145
 10
288.0491502911585
 20
-43.58953176309673
 10
288.03151197549215
 20
-43.560104011251134
 10
288.02335517031065
 20
-43.54789648961148
 10
288.00291736387425
 20
-43.520339297698
 10
287.99360328957647
 20
-43.50899006532853
 10
287.9705628196179
 20
-43.483568824168294
 10
287.9601811758321
 20
-43.47318718038247
 10
287.93475993467075
 20
-43.45014671042293
 10
287.92341070230236
 20
-43.440832636126004
 10
287.8958535103887
 20
-43.42039482968953
 10
287.8836459887481
 20
-43.41223802450736
 10
287.85421823690393
 20
-43.39459970884183
 10
287.84126999109964
 20
-43.38767872726841
 10
287.81025508466115
 20
-43.373009768995445
 10
287.79669081337755
 20
-43.36739126386606
 10
287.76438744284985
 20
-43.35583293307349
 10
287.75033777743386
 20
-43.35157101366377
 10
287.71705704193374
 20
-43.343234623395404
 10
287.7026572883436
 20
-43.340370334319104
 10
287.66871969954656
 20
-43.33533616857023
 10
287.65410853528186
 20
-43.33389709449712
  0
LWPOLYLINE
  5
8D
330
17
100
AcDbEntity
  8
CUTOUTS
100
AcDbPolyline
 90
129
 70
1
 10
272.0625
 20
-62.38125
 10
272.0588863686155
 20
-62.23404697701775
 10
272.0480541800166
 20
-62.08719857901132
 10
272.03002952989436
 20
-61.941058576633914
 10
272.0048558412097
 20
-61.79597903395162
 10
271.9725937595836
 20
-61.65230946029021
 10
271.93332100719664
 20
-61.510395968236615
 10
271.88713219554904
 20
-61.37058043982334
 10
271.83413859753387
 20
-61.233199702904734
 10
271.7744678793703
 20
-61.09858471970915
 10
271.7082637930451
 20
-60.96705978952201
 10
271.6356858300008
 20
-60.83894176742034
 10
271.5569088369076
 20
-60.7145393009412
 10
271.47212259444194
 20
-60.5941520865227
 10
271.3815313600882
 20
-60.478070147509065
 10
271.2853533760649
 20
-60.36657313545895
 10
271.18382034355966
 20
-60.259929656440356
 10
271.07717686454106
 20
-60.158396623935126
 10
270.96567985249095
 20
-60.06221863991179
 10
270.8495979134773
 20
-59.97162740555807
 10
270.7292106990588
 20
-59.88684116309236
 10
270.60480823257967
 20
-59.808064169999184
 10
270.476690210478
 20
-59.73548620695494
 10
270.34516528029087
 20
-59.669282120629674
 10
270.21055029709527
 20
-59.60961140246614
 10
270.07316956017667
 20
-59.55661780445094
 10
269.9333540317634
 20
-59.51042899280338
 10
269.7914405397098
 20
-59.47115624041637
 10
269.64777096604837
 20
-59.43889415879031
 10
269.50269142336606
 20
-59.41372047010566
 10
269.3565514209887
 20
-59.39569581998341
 10
269.20970302298224
 20
-59.38486363138448
 10
269.0625
 20
-59.38125
 10
268.91529697701776
 20
-59.38486363138448
 10
268.7684485790113
 20
-59.39569581998341
 10
268.62230857663394
 20
-59.41372047010566
 10
268.47722903395163
 20
-59.43889415879031
 10
268.3335594602902
 20
-59.47115624041637
 10
268.1916459682366
 20
-59.51042899280338
 10
268.05183043982333
 20
-59.55661780445094
 10
267.91444970290473
 20
-59.60961140246614
 10
267.77983471970913
 20
-59.669282120629674
 10
267.648309789522
 20
-59.73548620695494
 10
267.52019176742033
 20
-59.808064169999184
 10
267.3957893009412
 20
-59.88684116309236
 10
267.2754020865227
 20
-59.97162740555807
 10
267.15932014750905
 20
-60.06221863991179
 10
267.04782313545894
 20
-60.158396623935126
 10
266.94117965644034
 20
-60.259929656440356
 10
266.8396466239351
 20
-60.36657313545894
 10
266.7434686399118
 20
-60.478070147509065
 10
266.65287740555806
 20
-60.5941520865227
 10
266.5680911630924
 20
-60.7145393009412
 10
266.4893141699992
 20
-60.83894176742034
 10
266.4167362069549
 20
-60.96705978952201
 10
266.3505321206297
 20
-61.09858471970916
 10
266.29086140246613
 20
-61.233199702904734
 10
266.23786780445096
 20
-61.37058043982334
 10
266.19167899280336
 20
-61.510395968236615
 10
266.1524062404164
 20
-61.65230946029021
 10
266.1201441587903
 20
-61.79597903395162
 10
266.09497047010564
 20
-61.941058576633914
 10
266.0769458199834
 20
-62.08719857901132
 10
266.0661136313845
 20
-62.23404697701775
 10
266.0625
 20
-62.38125
 10
266.0661136313845
 20
-62.528453022982255
 10
266.0769458199834
 20
-62.67530142098868
 10
266.09497047010564
 20
-62.82144142336609
 10
266.1201441587903
 20
-62.966520966048385
 10
266.1524062404164
 20
-63.11019053970979
 10
266.19167899280336
 20
-63.25210403176339
 10
266.23786780445096
 20
-63.39191956017666
 10
266.29086140246613
 20
-63.52930029709527
 10
266.3505321206297
 20
-63.663915280290844
 10
266.4167362069549
 20
-63.79544021047799
 10
266.4893141699992
 20
-63.923558232579666
 10
266.5680911630924
 20
-64.0479606990588
 10
266.65287740555806
 20
-64.1683479134773
 10
266.7434686399118
 20
-64.28442985249093
 10
266.8396466239351
 20
-64.39592686454105
 10
266.94117965644034
 20
-64.50257034355964
 10
267.04782313545894
 20
-64.60410337606488
 10
267.15932014750905
 20
-64.70028136008821
 10
267.2754020865227
 20
-64.79087259444194
 10
267.3957893009412
 20
-64.87565883690763
 10
267.52019176742033
 20
-64.95443583000082
 10
267.648309789522
 20
-65.02701379304507
 10
267.77983471970913
 20
-65.09321787937033
 10
267.91444970290473
 20
-65.15288859753386
 10
268.05183043982333
 20
-65.20588219554907
 10
268.1916459682366
 20
-65.25207100719663
 10
268.3335594602902
 20
-65.29134375958364
 10
268.47722903395163
 20
-65.3236058412097
 10
268.62230857663394
 20
-65.34877952989434
 10
268.7684485790113
 20
-65.36680418001659
 10
268.91529697701776
 20
-65.37763636861551
 10
269.0625
 20
-65.38125
 10
269.20970302298224
 20
-65.37763636861551
 10
269.3565514209887
 20
-65.36680418001659
 10
269.50269142336606
 20
-65.34877952989434
 10
269.64777096604837
 20
-65.3236058412097
 10
269.7914405397098
 20
-65.29134375958364
 10
269.9333540317634
 20
-65.25207100719663
 10
270.07316956017667
 20
-65.20588219554907
 10
270.21055029709527
 20
-65.15288859753386
 10
270.34516528029087
 20
-65.09321787937033
 10
270.476690210478
 20
-65.02701379304507
 10
270.60480823257967
 20
-64.95443583000082
 10
270.7292106990588
 20
-64.87565883690763
 10
270.8495979134773
 20
-64.79087259444194
 10
270.96567985249095
 20
-64.70028136008821
 10
271.07717686454106
 20
-64.60410337606488
 10
271.18382034355966
 20
-64.50257034355964
 10
271.2853533760649
 20
-64.39592686454105
 10
271.3815313600882
 20
-64.28442985249094
 10
271.47212259444194
 20
-64.1683479134773
 10
271.5569088369076
 20
-64.0479606990588
 10
271.6356858300008
 20
-63.923558232579666
 10
271.7082637930451
 20
-63.79544021047799
 10
271.7744678793703
 20
-63.66391528029085
 10
271.83413859753387
 20
-63.529300297095276
 10
271.88713219554904
 20
-63.39191956017666
 10
271.93332100719664
 20
-63.25210403176339
 10
271.9725937595836
 20
-63.11019053970979
 10
272.0048558412097
 20
-62.966520966048385
 10
272.03002952989436
 20
-62.82144142336609
 10
272.0480541800166
 20
-62.67530142098868
 10
272.0588863686155
 20
-62.528453022982255
 10
272.0625
 20
-62.38125
  0
LWPOLYLINE
  5
8E
330
17
100
AcDbEntity
  8
CUTOUTS
100
AcDbPolyline
 90
129
 70
1
 10
272.0625
 20
-81.43125
 10
272.0588863686155
 20
-81.28404697701775
 10
272.0480541800166
 20
-81.13719857901133
 10
272.03002952989436
 20
-80.99105857663392
 10
272.0048558412097
 20
-80.84597903395162
 10
271.9725937595836
 20
-80.70230946029021
 10
271.93332100719664
 20
-80.56039596823662
 10
271.88713219554904
 20
-80.42058043982334
 10
271.83413859753387
 20
-80.28319970290474
 10
271.7744678793703
 20
-80.14858471970916
 10
271.7082637930451
 20
-80.01705978952201
 10
271.6356858300008
 20
-79.88894176742033
 10
271.5569088369076
 20
-79.7645393009412
 10
271.47212259444194
 20
-79.64415208652271
 10
271.3815313600882
 20
-79.52807014750907
 10
271.2853533760649
 20
-79.41657313545895
 10
271.18382034355966
 20
-79.30992965644036
 10
271.07717686454106
 20
-79.20839662393513
 10
270.96567985249095
 20
-79.11221863991179
 10
270.8495979134773
 20
-79.02162740555806
 10
270.7292106990588
 20
-78.93684116309237
 10
270.60480823257967
 20
-78.8580641699992
 10
270.476690210478
 20
-78.78548620695494
 10
270.34516528029087
 20
-78.71928212062967
 10
270.21055029709527
 20
-78.65961140246614
 10
270.07316956017667
 20
-78.60661780445095
 10
269.9333540317634
 20
-78.56042899280338
 10
269.7914405397098
 20
-78.52115624041637
 10
269.64777096604837
 20
-78.48889415879032
 10
269.50269142336606
 20
-78.46372047010566
 10
269.3565514209887
 20
-78.44569581998341
 10
269.20970302298224
 20
-78.43486363138449
 10
269.0625
 20
-78.43125
 10
268.91529697701776
 20
-78.43486363138449
 10
268.7684485790113
 20
-78.44569581998341
 10
268.62230857663394
 20
-78.46372047010566
 10
268.47722903395163
 20
-78.48889415879032
 10
268.3335594602902
 20
-78.52115624041637
 10
268.1916459682366
 20
-78.56042899280338
 10
268.05183043982333
 20
-78.60661780445095
 10
267.91444970290473
 20
-78.65961140246614
 10
267.77983471970913
 20
-78.71928212062967
 10
267.648309789522
 20
-78.78548620695494
 10
267.52019176742033
 20
-78.8580641699992
 10
267.3957893009412
 20
-78.93684116309237
 10
267.2754020865227
 20
-79.02162740555806
 10
267.15932014750905
 20
-79.11221863991179
 10
267.04782313545894
 20
-79.20839662393513
 10
266.94117965644034
 20
-79.30992965644036
 10
266.8396466239351
 20
-79.41657313545895
 10
266.7434686399118
 20
-79.52807014750907
 10
266.65287740555806
 20
-79.64415208652271
 10
266.5680911630924
 20
-79.7645393009412
 10
266.4893141699992
 20
-79.88894176742033
 10
266.4167362069549
 20
-80.01705978952201
 10
266.3505321206297
 20
-80.14858471970916
 10
266.29086140246613
 20
-80.28319970290474
 10
266.23786780445096
 20
-80.42058043982334
 10
266.19167899280336
 20
-80.56039596823662
 10
266.1524062404164
 20
-80.70230946029021
 10
266.1201441587903
 20
-80.84597903395162
 10
266.09497047010564
 20
-80.99105857663392
 10
266.0769458199834
 20
-81.13719857901133
 10
266.0661136313845
 20
-81.28404697701775
 10
266.0625
 20
-81.43125
 10
266.0661136313845
 20
-81.57845302298226
 10
266.0769458199834
 20
-81.72530142098869
 10
266.09497047010564
 20
-81.8714414233661
 10
266.1201441587903
 20
-82.01652096604839
 10
266.1524062404164
 20
-82.1601905397098
 10
266.19167899280336
 20
-82.30210403176339
 10
266.23786780445096
 20
-82.44191956017667
 10
266.29086140246613
 20
-82.57930029709527
 10
266.3505321206297
 20
-82.71391528029085
 10
266.4167362069549
 20
-82.845440210478
 10
266.4893141699992
 20
-82.97355823257968
 10
266.5680911630924
 20
-83.09796069905882
 10
266.65287740555806
 20
-83.2183479134773
 10
266.7434686399118
 20
-83.33442985249094
 10
266.8396466239351
 20
-83.44592686454106
 10
266.94117965644034
 20
-83.55257034355965
 10
267.04782313545894
 20
-83.65410337606488
 10
267.15932014750905
 20
-83.75028136008821
 10
267.2754020865227
 20
-83.84087259444195
 10
267.3957893009412
 20
-83.92565883690764
 10
267.52019176742033
 20
-84.00443583000082
 10
267.648309789522
 20
-84.07701379304507
 10
267.77983471970913
 20
-84.14321787937034
 10
267.91444970290473
 20
-84.20288859753387
 10
268.05183043982333
 20
-84.25588219554906
 10
268.1916459682366
 20
-84.30207100719663
 10
268.3335594602902
 20
-84.34134375958364
 10
268.47722903395163
 20
-84.3736058412097
 10
268.62230857663394
 20
-84.39877952989434
 10
268.7684485790113
 20
-84.4168041800166
 10
268.91529697701776
 20
-84.42763636861552
 10
269.0625
 20
-84.43125
 10
269.20970302298224
 20
-84.42763636861552
 10
269.3565514209887
 20
-84.4168041800166
 10
269.50269142336606
 20
-84.39877952989434
 10
269.64777096604837
 20
-84.3736058412097
 10
269.7914405397098
 20
-84.34134375958364
 10
269.9333540317634
 20
-84.30207100719663
 10
270.07316956017667
 20
-84.25588219554906
 10
270.21055029709527
 20
-84.20288859753387
 10
270.34516528029087
 20
-84.14321787937034
 10
270.476690210478
 20
-84.07701379304507
 10
270.60480823257967
 20
-84.00443583000082
 10
270.7292106990588
 20
-83.92565883690764
 10
270.8495979134773
 20
-83.84087259444195
 10
270.96567985249095
 20
-83.75028136008822
 10
271.07717686454106
 20
-83.65410337606488
 10
271.18382034355966
 20
-83.55257034355965
 10
271.2853533760649
 20
-83.44592686454106
 10
271.3815313600882
 20
-83.33442985249094
 10
271.47212259444194
 20
-83.2183479134773
 10
271.5569088369076
 20
-83.09796069905882
 10
271.6356858300008
 20
-82.97355823257968
 10
271.7082637930451
 20
-82.845440210478
 10
271.7744678793703
 20
-82.71391528029085
 10
271.83413859753387
 20
-82.57930029709527
 10
271.88713219554904
 20
-82.44191956017667
 10
271.93332100719664
 20
-82.30210403176339
 10
271.9725937595836
 20
-82.1601905397098
 10
272.0048558412097
 20
-82.01652096604839
 10
272.03002952989436
 20
-81.8714414233661
 10
272.0480541800166
 20
-81.72530142098869
 10
272.0588863686155
 20
-81.57845302298226
 10
272.0625
 20
-81.43125
  0
LWPOLYLINE
  5
8F
330
17
100
AcDbEntity
  8
CUTOUTS
100
AcDbPolyline
 90
129
 70
1
 10
233.9625
 20
-56.428125
 10
233.9588863686155
 20
-56.28092197701775
 10
233.94805418001658
 20
-56.13407357901132
 10
233.93002952989434
 20
-55.987933576633914
 10
233.9048558412097
 20
-55.84285403395162
 10
233.87259375958365
 20
-55.69918446029021
 10
233.83332100719664
 20
-55.557270968236615
 10
233.78713219554908
 20
-55.41745543982334
 10
233.73413859753387
 20
-55.280074702904734
 10
233.67446787937033
 20
-55.14545971970915
 10
233.60826379304507
 20
-55.01393478952201
 10
233.53568583000083
 20
-54.88581676742034
 10
233.45690883690764
 20
-54.7614143009412
 10
233.37212259444195
 20
-54.6410270865227
 10
233.28153136008822
 20
-54.524945147509065
 10
233.18535337606488
 20
-54.41344813545895
 10
233.08382034355964
 20
-54.306804656440356
 10
232.97717686454106
 20
-54.205271623935126
 10
232.86567985249096
 20
-54.10909363991179
 10
232.74959791347732
 20
-54.01850240555807
 10
232.6292106990588
 20
-53.93371616309236
 10
232.50480823257968
 20
-53.854939169999184
 10
232.376690210478
 20
-53.78236120695494
 10
232.24516528029085
 20
-53.716157120629674
 10
232.11055029709527
 20
-53.65648640246614
 10
231.97316956017667
 20
-53.60349280445094
 10
231.8333540317634
 20
-53.55730399280338
 10
231.6914405397098
 20
-53.51803124041637
 10
231.5477709660484
 20
-53.48576915879031
 10
231.4026914233661
 20
-53.46059547010566
 10
231.2565514209887
 20
-53.44257081998341
 10
231.10970302298227
 20
-53.43173863138448
 10
230.9625
 20
-53.428125
 10
230.81529697701774
 20
-53.43173863138448
 10
230.6684485790113
 20
-53.44257081998341
 10
230.52230857663392
 20
-53.46059547010566
 10
230.3772290339516
 20
-53.48576915879031
 10
230.23355946029022
 20
-53.51803124041637
 10
230.0916459682366
 20
-53.55730399280338
 10
229.95183043982334
 20
-53.60349280445094
 10
229.81444970290474
 20
-53.65648640246614
 10
229.67983471970916
 20
-53.716157120629674
 10
229.54830978952202
 20
-53.78236120695494
 10
229.42019176742033
 20
-53.854939169999184
 10
229.2957893009412
 20
-53.93371616309236
 10
229.1754020865227
 20
-54.01850240555807
 10
229.05932014750908
 20
-54.10909363991179
 10
228.94782313545895
 20
-54.205271623935126
 10
228.84117965644037
 20
-54.306804656440356
 10
228.73964662393513
 20
-54.41344813545894
 10
228.6434686399118
 20
-54.524945147509065
 10
228.55287740555806
 20
-54.6410270865227
 10
228.46809116309237
 20
-54.7614143009412
 10
228.38931416999918
 20
-54.88581676742034
 10
228.31673620695494
 20
-55.01393478952201
 10
228.25053212062969
 20
-55.14545971970916
 10
228.19086140246614
 20
-55.280074702904734
 10
228.13786780445093
 20
-55.41745543982334
 10
228.09167899280337
 20
-55.557270968236615
 10
228.05240624041636
 20
-55.69918446029021
 10
228.02014415879032
 20
-55.84285403395162
 10
227.99497047010567
 20
-55.987933576633914
 10
227.97694581998343
 20
-56.13407357901132
 10
227.9661136313845
 20
-56.28092197701775
 10
227.9625
 20
-56.428125
 10
227.9661136313845
 20
-56.575328022982255
 10
227.97694581998343
 20
-56.72217642098868
 10
227.99497047010567
 20
-56.86831642336609
 10
228.02014415879032
 20
-57.013395966048385
 10
228.05240624041636
 20
-57.15706553970979
 10
228.09167899280337
 20
-57.29897903176339
 10
228.13786780445093
 20
-57.43879456017666
 10
228.19086140246614
 20
-57.57617529709527
 10
228.25053212062969
 20
-57.710790280290844
 10
228.31673620695494
 20
-57.84231521047799
 10
228.38931416999918
 20
-57.970433232579666
 10
228.46809116309237
 20
-58.094835699058805
 10
228.55287740555806
 20
-58.2152229134773
 10
228.6434686399118
 20
-58.33130485249094
 10
228.73964662393513
 20
-58.44280186454105
 10
228.84117965644037
 20
-58.54944534355965
 10
228.94782313545895
 20
-58.65097837606488
 10
229.05932014750906
 20
-58.74715636008821
 10
229.1754020865227
 20
-58.837747594441936
 10
229.2957893009412
 20
-58.92253383690764
 10
229.42019176742033
 20
-59.00131083000082
 10
229.54830978952202
 20
-59.073888793045064
 10
229.67983471970916
 20
-59.14009287937033
 10
229.81444970290474
 20
-59.19976359753386
 10
229.95183043982334
 20
-59.252757195549066
 10
230.0916459682366
 20
-59.298946007196626
 10
230.23355946029022
 20
-59.33821875958363
 10
230.3772290339516
 20
-59.37048084120969
 10
230.52230857663392
 20
-59.395654529894344
 10
230.6684485790113
 20
-59.413679180016594
 10
230.81529697701774
 20
-59.42451136861552
 10
230.9625
 20
-59.428125
 10
231.10970302298225
 20
-59.42451136861552
 10
231.2565514209887
 20
-59.413679180016594
 10
231.4026914233661
 20
-59.395654529894344
 10
231.5477709660484
 20
-59.37048084120969
 10
231.6914405397098
 20
-59.33821875958363
 10
231.8333540317634
 20
-59.298946007196626
 10
231.97316956017667
 20
-59.252757195549066
 10
232.11055029709527
 20
-59.19976359753386
 10
232.24516528029085
 20
-59.14009287937033
 10
232.376690210478
 20
-59.073888793045064
 10
232.50480823257968
 20
-59.00131083000082
 10
232.6292106990588
 20
-58.92253383690764
 10
232.74959791347732
 20
-58.837747594441936
 10
232.86567985249096
 20
-58.74715636008821
 10
232.97717686454106
 20
-58.65097837606488
 10
233.08382034355964
 20
-58.54944534355965
 10
233.18535337606488
 20
-58.44280186454106
 10
233.28153136008822
 20
-58.33130485249094
 10
233.37212259444195
 20
-58.2152229134773
 10
233.45690883690764
 20
-58.094835699058805
 10
233.53568583000083
 20
-57.970433232579666
 10
233.60826379304507
 20
-57.84231521047799
 10
233.67446787937033
 20
-57.71079028029085
 10
233.73413859753387
 20
-57.576175297095276
 10
233.78713219554908
 20
-57.43879456017666
 10
233.83332100719664
 20
-57.29897903176339
 10
233.87259375958365
 20
-57.15706553970979
 10
233.9048558412097
 20
-57.013395966048385
 10
233.93002952989434
 20
-56.86831642336609
 10
233.94805418001658
 20
-56.72217642098868
 10
233.9588863686155
 20
-56.575328022982255
 10
233.9625
 20
-56.428125
  0
LWPOLYLINE
  5
90
330
17
100
AcDbEntity
  8
CUTOUTS
100
AcDbPolyline
 90
129
 70
1
 10
233.9625
 20
-75.478125
 10
233.9588863686155
 20
-75.33092197701775
 10
233.94805418001658
 20
-75.18407357901133
 10
233.93002952989434
 20
-75.03793357663392
 10
233.9048558412097
 20
-74.89285403395162
 10
233.87259375958365
 20
-74.74918446029021
 10
233.83332100719664
 20
-74.60727096823662
 10
233.78713219554908
 20
-74.46745543982334
 10
233.73413859753387
 20
-74.33007470290474
 10
233.67446787937033
 20
-74.19545971970916
 10
233.60826379304507
 20
-74.06393478952201
 10
233.53568583000083
 20
-73.93581676742033
 10
233.45690883690764
 20
-73.8114143009412
 10
233.37212259444195
 20
-73.69102708652271
 10
233.28153136008822
 20
-73.57494514750907
 10
233.18535337606488
 20
-73.46344813545895
 10
233.08382034355964
 20
-73.35680465644036
 10
232.97717686454106
 20
-73.25527162393513
 10
232.86567985249096
 20
-73.15909363991179
 10
232.74959791347732
 20
-73.06850240555806
 10
232.6292106990588
 20
-72.98371616309237
 10
232.50480823257968
 20
-72.9049391699992
 10
232.376690210478
 20
-72.83236120695494
 10
232.24516528029085
 20
-72.76615712062967
 10
232.11055029709527
 20
-72.70648640246614
 10
231.97316956017667
 20
-72.65349280445095
 10
231.8333540317634
 20
-72.60730399280338
 10
231.6914405397098
 20
-72.56803124041637
 10
231.5477709660484
 20
-72.53576915879032
 10
231.4026914233661
 20
-72.51059547010566
 10
231.2565514209887
 20
-72.49257081998341
 10
231.10970302298227
 20
-72.48173863138449
 10
230.9625
 20
-72.478125
 10
230.81529697701774
 20
-72.48173863138449
 10
230.6684485790113
 20
-72.49257081998341
 10
230.52230857663392
 20
-72.51059547010566
 10
230.3772290339516
 20
-72.53576915879032
 10
230.23355946029022
 20
-72.56803124041637
 10
230.0916459682366
 20
-72.60730399280338
 10
229.95183043982334
 20
-72.65349280445095
 10
229.81444970290474
 20
-72.70648640246614
 10
229.67983471970916
 20
-72.76615712062967
 10
229.54830978952202
 20
-72.83236120695494
 10
229.42019176742033
 20
-72.9049391699992
 10
229.2957893009412
 20
-72.98371616309237
 10
229.1754020865227
 20
-73.06850240555806
 10
229.05932014750908
 20
-73.15909363991179
 10
228.94782313545895
 20
-73.25527162393513
 10
228.84117965644037
 20
-73.35680465644036
 10
228.73964662393513
 20
-73.46344813545895
 10
228.6434686399118
 20
-73.57494514750907
 10
228.55287740555806
 20
-73.69102708652271
 10
228.46809116309237
 20
-73.8114143009412
 10
228.38931416999918
 20
-73.93581676742033
 10
228.31673620695494
 20
-74.06393478952201
 10
228.25053212062969
 20
-74.19545971970916
 10
228.19086140246614
 20
-74.33007470290474
 10
228.13786780445093
 20
-74.46745543982334
 10
228.09167899280337
 20
-74.60727096823662
 10
228.05240624041636
 20
-74.74918446029021
 10
228.02014415879032
 20
-74.89285403395162
 10
227.99497047010567
 20
-75.03793357663392
 10
227.97694581998343
 20
-75.18407357901133
 10
227.9661136313845
 20
-75.33092197701775
 10
227.9625
 20
-75.478125
 10
227.9661136313845
 20
-75.62532802298226
 10
227.97694581998343
 20
-75.77217642098869
 10
227.99497047010567
 20
-75.9183164233661
 10
228.02014415879032
 20
-76.06339596604839
 10
228.05240624041636
 20
-76.2070655397098
 10
228.09167899280337
 20
-76.34897903176339
 10
228.13786780445093
 20
-76.48879456017667
 10
228.19086140246614
 20
-76.62617529709527
 10
228.25053212062969
 20
-76.76079028029085
 10
228.31673620695494
 20
-76.892315210478
 10
228.38931416999918
 20
-77.02043323257968
 10
228.46809116309237
 20
-77.14483569905882
 10
228.55287740555806
 20
-77.2652229134773
 10
228.6434686399118
 20
-77.38130485249094
 10
228.73964662393513
 20
-77.49280186454106
 10
228.84117965644037
 20
-77.59944534355965
 10
228.94782313545895
 20
-77.70097837606488
 10
229.05932014750906
 20
-77.79715636008821
 10
229.1754020865227
 20
-77.88774759444195
 10
229.2957893009412
 20
-77.97253383690764
 10
229.42019176742033
 20
-78.05131083000082
 10
229.54830978952202
 20
-78.12388879304507
 10
229.67983471970916
 20
-78.19009287937034
 10
229.81444970290474
 20
-78.24976359753387
 10
229.95183043982334
 20
-78.30275719554906
 10
230.0916459682366
 20
-78.34894600719663
 10
230.23355946029022
 20
-78.38821875958364
 10
230.3772290339516
 20
-78.4204808412097
 10
230.52230857663392
 20
-78.44565452989434
 10
230.6684485790113
 20
-78.4636791800166
 10
230.81529697701774
 20
-78.47451136861552
 10
230.9625
 20
-78.478125
 10
231.10970302298225
 20
-78.47451136861552
 10
231.2565514209887
 20
-78.4636791800166
 10
231.4026914233661
 20
-78.44565452989434
 10
231.5477709660484
 20
-78.4204808412097
 10
231.6914405397098
 20
-78.38821875958364
 10
231.8333540317634
 20
-78.34894600719663
 10
231.97316956017667
 20
-78.30275719554906
 10
232.11055029709527
 20
-78.24976359753387
 10
232.24516528029085
 20
-78.19009287937034
 10
232.376690210478
 20
-78.12388879304507
 10
232.50480823257968
 20
-78.05131083000082
 10
232.6292106990588
 20
-77.97253383690764
 10
232.74959791347732
 20
-77.88774759444195
 10
232.86567985249096
 20
-77.79715636008822
 10
232.97717686454106
 20
-77.70097837606488
 10
233.08382034355964
 20
-77.59944534355965
 10
233.18535337606488
 20
-77.49280186454106
 10
233.28153136008822
 20
-77.38130485249094
 10
233.37212259444195
 20
-77.2652229134773
 10
233.45690883690764
 20
-77.14483569905882
 10
233.53568583000083
 20
-77.02043323257968
 10
233.60826379304507
 20
-76.892315210478
 10
233.67446787937033
 20
-76.76079028029085
 10
233.73413859753387
 20
-76.62617529709527
 10
233.78713219554908
 20
-76.48879456017667
 10
233.83332100719664
 20
-76.34897903176339
 10
233.87259375958365
 20
-76.2070655397098
 10
233.9048558412097
 20
-76.06339596604839
 10
233.93002952989434
 20
-75.9183164233661
 10
233.94805418001658
 20
-75.77217642098869
 10
233.9588863686155
 20
-75.62532802298226
 10
233.9625
 20
-75.478125
  0
LWPOLYLINE
  5
91
330
17
100
AcDbEntity
  8
CUTOUTS
100
AcDbPolyline
 90
129
 70
1
 10
195.8625
 20
-77.859375
 10
195.85888636861552
 20
-77.71217197701775
 10
195.8480541800166
 20
-77.56532357901132
 10
195.83002952989435
 20
-77.41918357663391
 10
195.8048558412097
 20
-77.27410403395162
 10
195.77259375958366
 20
-77.1304344602902
 10
195.73332100719665
 20
-76.98852096823661
 10
195.68713219554908
 20
-76.84870543982333
 10
195.63413859753388
 20
-76.71132470290473
 10
195.57446787937033
 20
-76.57670971970916
 10
195.50826379304507
 20
-76.445184789522
 10
195.43568583000084
 20
-76.31706676742033
 10
195.35690883690765
 20
-76.19266430094119
 10
195.27212259444195
 20
-76.0722770865227
 10
195.18153136008823
 20
-75.95619514750906
 10
195.0853533760649
 20
-75.84469813545894
 10
194.98382034355964
 20
-75.73805465644035
 10
194.87717686454107
 20
-75.63652162393512
 10
194.76567985249096
 20
-75.54034363991178
 10
194.64959791347732
 20
-75.44975240555806
 10
194.5292106990588
 20
-75.36496616309236
 10
194.40480823257968
 20
-75.28618916999919
 10
194.276690210478
 20
-75.21361120695494
 10
194.14516528029085
 20
-75.14740712062967
 10
194.01055029709528
 20
-75.08773640246613
 10
193.87316956017668
 20
-75.03474280445094
 10
193.7333540317634
 20
-74.98855399280338
 10
193.5914405397098
 20
-74.94928124041637
 10
193.4477709660484
 20
-74.91701915879031
 10
193.3026914233661
 20
-74.89184547010565
 10
193.1565514209887
 20
-74.87382081998341
 10
193.00970302298228
 20
-74.86298863138448
 10
192.8625
 20
-74.859375
 10
192.71529697701774
 20
-74.86298863138448
 10
192.56844857901132
 20
-74.87382081998341
 10
192.42230857663392
 20
-74.89184547010565
 10
192.2772290339516
 20
-74.91701915879031
 10
192.13355946029023
 20
-74.94928124041637
 10
191.9916459682366
 20
-74.98855399280338
 10
191.85183043982335
 20
-75.03474280445094
 10
191.71444970290474
 20
-75.08773640246613
 10
191.57983471970917
 20
-75.14740712062967
 10
191.44830978952203
 20
-75.21361120695494
 10
191.32019176742034
 20
-75.28618916999919
 10
191.19578930094121
 20
-75.36496616309236
 10
191.0754020865227
 20
-75.44975240555806
 10
190.95932014750906
 20
-75.54034363991178
 10
190.84782313545895
 20
-75.63652162393512
 10
190.74117965644038
 20
-75.73805465644035
 10
190.63964662393514
 20
-75.84469813545894
 10
190.5434686399118
 20
-75.95619514750906
 10
190.45287740555807
 20
-76.0722770865227
 10
190.36809116309237
 20
-76.19266430094119
 10
190.2893141699992
 20
-76.31706676742033
 10
190.21673620695495
 20
-76.445184789522
 10
190.1505321206297
 20
-76.57670971970916
 10
190.09086140246615
 20
-76.71132470290473
 10
190.03786780445094
 20
-76.84870543982333
 10
189.99167899280337
 20
-76.98852096823661
 10
189.95240624041637
 20
-77.1304344602902
 10
189.92014415879032
 20
-77.27410403395162
 10
189.89497047010568
 20
-77.41918357663391
 10
189.87694581998343
 20
-77.56532357901132
 10
189.8661136313845
 20
-77.71217197701775
 10
189.8625
 20
-77.859375
 10
189.8661136313845
 20
-78.00657802298225
 10
189.87694581998343
 20
-78.15342642098868
 10
189.89497047010568
 20
-78.29956642336609
 10
189.92014415879032
 20
-78.44464596604838
 10
189.95240624041637
 20
-78.5883155397098
 10
189.99167899280337
 20
-78.73022903176339
 10
190.03786780445094
 20
-78.87004456017667
 10
190.09086140246615
 20
-79.00742529709527
 10
190.1505321206297
 20
-79.14204028029084
 10
190.21673620695495
 20
-79.273565210478
 10
190.2893141699992
 20
-79.40168323257967
 10
190.36809116309237
 20
-79.52608569905881
 10
190.45287740555807
 20
-79.6464729134773
 10
190.5434686399118
 20
-79.76255485249094
 10
190.63964662393514
 20
-79.87405186454106
 10
190.74117965644038
 20
-79.98069534355965
 10
190.84782313545895
 20
-80.08222837606488
 10
190.95932014750906
 20
-80.1784063600882
 10
191.0754020865227
 20
-80.26899759444194
 10
191.19578930094121
 20
-80.35378383690764
 10
191.32019176742034
 20
-80.43256083000081
 10
191.44830978952203
 20
-80.50513879304506
 10
191.57983471970917
 20
-80.57134287937033
 10
191.71444970290474
 20
-80.63101359753387
 10
191.85183043982335
 20
-80.68400719554906
 10
191.9916459682366
 20
-80.73019600719662
 10
192.13355946029023
 20
-80.76946875958363
 10
192.2772290339516
 20
-80.80173084120969
 10
192.42230857663392
 20
-80.82690452989434
 10
192.56844857901132
 20
-80.84492918001659
 10
192.71529697701774
 20
-80.85576136861552
 10
192.8625
 20
-80.859375
 10
193.00970302298225
 20
-80.85576136861552
 10
193.1565514209887
 20
-80.84492918001659
 10
193.3026914233661
 20
-80.82690452989434
 10
193.4477709660484
 20
-80.80173084120969
 10
193.5914405397098
 20
-80.76946875958363
 10
193.73335403176338
 20
-80.73019600719662
 10
193.87316956017668
 20
-80.68400719554906
 10
194.01055029709528
 20
-80.63101359753387
 10
194.14516528029085
 20
-80.57134287937033
 10
194.276690210478
 20
-80.50513879304506
 10
194.40480823257968
 20
-80.43256083000081
 10
194.5292106990588
 20
-80.35378383690764
 10
194.64959791347732
 20
-80.26899759444194
 10
194.76567985249096
 20
-80.17840636008822
 10
194.87717686454107
 20
-80.08222837606488
 10
194.98382034355964
 20
-79.98069534355965
 10
195.0853533760649
 20
-79.87405186454106
 10
195.18153136008823
 20
-79.76255485249094
 10
195.27212259444195
 20
-79.6464729134773
 10
195.35690883690765
 20
-79.52608569905881
 10
195.43568583000084
 20
-79.40168323257967
 10
195.50826379304507
 20
-79.273565210478
 10
195.57446787937033
 20
-79.14204028029084
 10
195.63413859753388
 20
-79.00742529709527
 10
195.68713219554908
 20
-78.87004456017667
 10
195.73332100719665
 20
-78.73022903176339
 10
195.77259375958366
 20
-78.5883155397098
 10
195.8048558412097
 20
-78.44464596604838
 10
195.83002952989435
 20
-78.29956642336609
 10
195.8480541800166
 20
-78.15342642098868
 10
195.85888636861552
 20
-78.00657802298225
 10
195.8625
 20
-77.859375
  0
LWPOLYLINE
  5
92
330
17
100
AcDbEntity
  8
CUTOUTS
100
AcDbPolyline
 90
129
 70
1
 10
204.5
 20
-108.7
 10
204.4963863686155
 20
-108.55279697701775
 10
204.48555418001658
 20
-108.40594857901132
 10
204.46752952989434
 20
-108.25980857663392
 10
204.4423558412097
 20
-108.11472903395162
 10
204.41009375958365
 20
-107.9710594602902
 10
204.37082100719664
 20
-107.82914596823662
 10
204.32463219554907
 20
-107.68933043982334
 10
204.27163859753387
 20
-107.55194970290474
 10
204.21196787937032
 20
-107.41733471970916
 10
204.14576379304506
 20
-107.285809789522
 10
204.07318583000082
 20
-107.15769176742033
 10
203.99440883690764
 20
-107.03328930094119
 10
203.90962259444194
 20
-106.9129020865227
 10
203.81903136008822
 20
-106.79682014750907
 10
203.72285337606488
 20
-106.68532313545894
 10
203.62132034355963
 20
-106.57867965644036
 10
203.51467686454106
 20
-106.47714662393513
 10
203.40317985249095
 20
-106.38096863991179
 10
203.2870979134773
 20
-106.29037740555808
 10
203.1667106990588
 20
-106.20559116309236
 10
203.04230823257967
 20
-106.1268141699992
 10
202.91419021047798
 20
-106.05423620695494
 10
202.78266528029084
 20
-105.98803212062967
 10
202.64805029709527
 20
-105.92836140246614
 10
202.51066956017667
 20
-105.87536780445095
 10
202.3708540317634
 20
-105.82917899280338
 10
202.22894053970978
 20
-105.78990624041637
 10
202.0852709660484
 20
-105.75764415879031
 10
201.9401914233661
 20
-105.73247047010565
 10
201.7940514209887
 20
-105.71444581998341
 10
201.64720302298227
 20
-105.70361363138448
 10
201.5
 20
-105.7
 10
201.35279697701773
 20
-105.70361363138448
 10
201.2059485790113
 20
-105.71444581998341
 10
201.0598085766339
 20
-105.73247047010565
 10
200.9147290339516
 20
-105.75764415879031
 10
200.77105946029022
 20
-105.78990624041637
 10
200.6291459682366
 20
-105.82917899280338
 10
200.48933043982333
 20
-105.87536780445095
 10
200.35194970290473
 20
-105.92836140246614
 10
200.21733471970916
 20
-105.98803212062967
 10
200.08580978952202
 20
-106.05423620695494
 10
199.95769176742033
 20
-106.1268141699992
 10
199.8332893009412
 20
-106.20559116309236
 10
199.7129020865227
 20
-106.29037740555806
 10
199.59682014750905
 20
-106.38096863991179
 10
199.48532313545894
 20
-106.47714662393513
 10
199.37867965644037
 20
-106.57867965644036
 10
199.27714662393512
 20
-106.68532313545894
 10
199.18096863991178
 20
-106.79682014750907
 10
199.09037740555806
 20
-106.9129020865227
 10
199.00559116309236
 20
-107.03328930094119
 10
198.92681416999918
 20
-107.15769176742033
 10
198.85423620695494
 20
-107.285809789522
 10
198.78803212062968
 20
-107.41733471970916
 10
198.72836140246613
 20
-107.55194970290474
 10
198.67536780445093
 20
-107.68933043982334
 10
198.62917899280336
 20
-107.82914596823662
 10
198.58990624041635
 20
-107.9710594602902
 10
198.5576441587903
 20
-108.11472903395162
 10
198.53247047010566
 20
-108.25980857663392
 10
198.51444581998342
 20
-108.40594857901132
 10
198.5036136313845
 20
-108.55279697701775
 10
198.5
 20
-108.7
 10
198.5036136313845
 20
-108.84720302298226
 10
198.51444581998342
 20
-108.99405142098868
 10
198.53247047010566
 20
-109.14019142336609
 10
198.5576441587903
 20
-109.28527096604839
 10
198.58990624041635
 20
-109.4289405397098
 10
198.62917899280336
 20
-109.57085403176339
 10
198.67536780445093
 20
-109.71066956017667
 10
198.72836140246613
 20
-109.84805029709527
 10
198.78803212062968
 20
-109.98266528029085
 10
198.85423620695494
 20
-110.114190210478
 10
198.92681416999918
 20
-110.24230823257967
 10
199.00559116309236
 20
-110.36671069905881
 10
199.09037740555806
 20
-110.4870979134773
 10
199.18096863991178
 20
-110.60317985249094
 10
199.27714662393512
 20
-110.71467686454106
 10
199.37867965644037
 20
-110.82132034355965
 10
199.48532313545894
 20
-110.92285337606488
 10
199.59682014750905
 20
-111.0190313600882
 10
199.7129020865227
 20
-111.10962259444194
 10
199.8332893009412
 20
-111.19440883690764
 10
199.95769176742033
 20
-111.27318583000081
 10
200.08580978952202
 20
-111.34576379304507
 10
200.21733471970916
 20
-111.41196787937034
 10
200.35194970290473
 20
-111.47163859753387
 10
200.48933043982333
 20
-111.52463219554906
 10
200.6291459682366
 20
-111.57082100719663
 10
200.77105946029022
 20
-111.61009375958363
 10
200.9147290339516
 20
-111.64235584120969
 10
201.0598085766339
 20
-111.66752952989435
 10
201.2059485790113
 20
-111.6855541800166
 10
201.35279697701773
 20
-111.69638636861552
 10
201.5
 20
-111.7
 10
201.64720302298224
 20
-111.69638636861552
 10
201.7940514209887
 20
-111.6855541800166
 10
201.9401914233661
 20
-111.66752952989435
 10
202.0852709660484
 20
-111.64235584120969
 10
202.22894053970978
 20
-111.61009375958363
 10
202.37085403176337
 20
-111.57082100719663
 10
202.51066956017667
 20
-111.52463219554906
 10
202.64805029709527
 20
-111.47163859753387
 10
202.78266528029084
 20
-111.41196787937034
 10
202.91419021047798
 20
-111.34576379304507
 10
203.04230823257967
 20
-111.27318583000081
 10
203.1667106990588
 20
-111.19440883690764
 10
203.2870979134773
 20
-111.10962259444194
 10
203.40317985249095
 20
-111.0190313600882
 10
203.51467686454106
 20
-110.92285337606488
 10
203.62132034355963
 20
-110.82132034355965
 10
203.72285337606488
 20
-110.71467686454106
 10
203.81903136008822
 20
-110.60317985249094
 10
203.90962259444194
 20
-110.4870979134773
 10
203.99440883690764
 20
-110.36671069905881
 10
204.07318583000082
 20
-110.24230823257967
 10
204.14576379304506
 20
-110.114190210478
 10
204.21196787937032
 20
-109.98266528029085
 10
204.27163859753387
 20
-109.84805029709527
 10
204.32463219554907
 20
-109.71066956017667
 10
204.37082100719664
 20
-109.57085403176339
 10
204.41009375958365
 20
-109.4289405397098
 10
204.4423558412097
 20
-109.28527096604839
 10
204.46752952989434
 20
-109.14019142336609
 10
204.48555418001658
 20
-108.99405142098868
 10
204.4963863686155
 20
-108.84720302298226
 10
204.5
 20
-108.7
  0
LWPOLYLINE
  5
93
330
17
100
AcDbEntity
  8
CUTOUTS
100
AcDbPolyline
 90
129
 70
1
 10
253.0125
 20
-88.0
 10
253.0088863686155
 20
-87.85279697701775
 10
252.99805418001657
 20
-87.70594857901132
 10
252.98002952989432
 20
-87.55980857663391
 10
252.95485584120968
 20
-87.41472903395162
 10
252.92259375958363
 20
-87.2710594602902
 10
252.88332100719663
 20
-87.12914596823661
 10
252.83713219554906
 20
-86.98933043982333
 10
252.78413859753385
 20
-86.85194970290473
 10
252.7244678793703
 20
-86.71733471970916
 10
252.65826379304505
 20
-86.585809789522
 10
252.5856858300008
 20
-86.45769176742033
 10
252.50690883690763
 20
-86.33328930094119
 10
252.42212259444193
 20
-86.2129020865227
 10
252.3315313600882
 20
-86.09682014750906
 10
252.23535337606486
 20
-85.98532313545894
 10
252.13382034355962
 20
-85.87867965644035
 10
252.02717686454105
 20
-85.77714662393512
 10
251.91567985249094
 20
-85.68096863991178
 10
251.7995979134773
 20
-85.59037740555806
 10
251.67921069905879
 20
-85.50559116309236
 10
251.55480823257966
 20
-85.42681416999919
 10
251.42669021047797
 20
-85.35423620695494
 10
251.29516528029083
 20
-85.28803212062967
 10
251.16055029709526
 20
-85.22836140246613
 10
251.02316956017665
 20
-85.17536780445094
 10
250.8833540317634
 20
-85.12917899280338
 10
250.74144053970977
 20
-85.08990624041637
 10
250.5977709660484
 20
-85.05764415879031
 10
250.45269142336608
 20
-85.03247047010565
 10
250.30655142098868
 20
-85.01444581998341
 10
250.15970302298226
 20
-85.00361363138448
 10
250.0125
 20
-85.0
 10
249.86529697701772
 20
-85.00361363138448
 10
249.7184485790113
 20
-85.01444581998341
 10
249.5723085766339
 20
-85.03247047010565
 10
249.4272290339516
 20
-85.05764415879031
 10
249.2835594602902
 20
-85.08990624041637
 10
249.1416459682366
 20
-85.12917899280338
 10
249.00183043982332
 20
-85.17536780445094
 10
248.86444970290472
 20
-85.22836140246613
 10
248.72983471970915
 20
-85.28803212062967
 10
248.598309789522
 20
-85.35423620695494
 10
248.47019176742032
 20
-85.42681416999919
 10
248.3457893009412
 20
-85.50559116309236
 10
248.22540208652268
 20
-85.59037740555806
 10
248.10932014750904
 20
-85.68096863991178
 10
247.99782313545893
 20
-85.77714662393512
 10
247.89117965644036
 20
-85.87867965644035
 10
247.7896466239351
 20
-85.98532313545894
 10
247.69346863991177
 20
-86.09682014750906
 10
247.60287740555805
 20
-86.2129020865227
 10
247.51809116309235
 20
-86.33328930094119
 10
247.43931416999916
 20
-86.45769176742033
 10
247.36673620695493
 20
-86.585809789522
 10
247.30053212062967
 20
-86.71733471970916
 10
247.24086140246612
 20
-86.85194970290473
 10
247.18786780445092
 20
-86.98933043982333
 10
247.14167899280335
 20
-87.12914596823661
 10
247.10240624041634
 20
-87.2710594602902
 10
247.0701441587903
 20
-87.41472903395162
 10
247.04497047010565
 20
-87.55980857663391
 10
247.0269458199834
 20
-87.70594857901132
 10
247.01611363138448
 20
-87.85279697701775
 10
247.0125
 20
-88.0
 10
247.01611363138448
 20
-88.14720302298225
 10
247.0269458199834
 20
-88.29405142098868
 10
247.04497047010565
 20
-88.44019142336609
 10
247.0701441587903
 20
-88.58527096604838
 10
247.10240624041634
 20
-88.7289405397098
 10
247.14167899280335
 20
-88.87085403176339
 10
247.18786780445092
 20
-89.01066956017667
 10
247.24086140246612
 20
-89.14805029709527
 10
247.30053212062967
 20
-89.28266528029084
 10
247.36673620695493
 20
-89.414190210478
 10
247.43931416999916
 20
-89.54230823257967
 10
247.51809116309235
 20
-89.66671069905881
 10
247.60287740555805
 20
-89.7870979134773
 10
247.69346863991177
 20
-89.90317985249094
 10
247.7896466239351
 20
-90.01467686454106
 10
247.89117965644036
 20
-90.12132034355965
 10
247.99782313545893
 20
-90.22285337606488
 10
248.10932014750904
 20
-90.3190313600882
 10
248.22540208652268
 20
-90.40962259444194
 10
248.3457893009412
 20
-90.49440883690764
 10
248.47019176742032
 20
-90.57318583000081
 10
248.598309789522
 20
-90.64576379304506
 10
248.72983471970915
 20
-90.71196787937033
 10
248.86444970290472
 20
-90.77163859753387
 10
249.00183043982332
 20
-90.82463219554906
 10
249.1416459682366
 20
-90.87082100719662
 10
249.2835594602902
 20
-90.91009375958363
 10
249.4272290339516
 20
-90.94235584120969
 10
249.5723085766339
 20
-90.96752952989434
 10
249.7184485790113
 20
-90.98555418001659
 10
249.86529697701772
 20
-90.99638636861552
 10
250.0125
 20
-91.0
 10
250.15970302298223
 20
-90.99638636861552
 10
250.30655142098868
 20
-90.98555418001659
 10
250.45269142336608
 20
-90.96752952989434
 10
250.5977709660484
 20
-90.94235584120969
 10
250.74144053970977
 20
-90.91009375958363
 10
250.88335403176336
 20
-90.87082100719662
 10
251.02316956017665
 20
-90.82463219554906
 10
251.16055029709526
 20
-90.77163859753387
 10
251.29516528029083
 20
-90.71196787937033
 10
251.42669021047797
 20
-90.64576379304506
 10
251.55480823257966
 20
-90.57318583000081
 10
251.67921069905879
 20
-90.49440883690764
 10
251.7995979134773
 20
-90.40962259444194
 10
251.91567985249094
 20
-90.31903136008822
 10
252.02717686454105
 20
-90.22285337606488
 10
252.13382034355962
 20
-90.12132034355965
 10
252.23535337606486
 20
-90.01467686454106
 10
252.3315313600882
 20
-89.90317985249094
 10
252.42212259444193
 20
-89.7870979134773
 10
252.50690883690763
 20
-89.66671069905881
 10
252.5856858300008
 20
-89.54230823257967
 10
252.65826379304505
 20
-89.414190210478
 10
252.7244678793703
 20
-89.28266528029084
 10
252.78413859753385
 20
-89.14805029709527
 10
252.83713219554906
 20
-89.01066956017667
 10
252.88332100719663
 20
-88.87085403176339
 10
252.92259375958363
 20
-88.7289405397098
 10
252.95485584120968
 20
-88.58527096604838
 10
252.98002952989432
 20
-88.44019142336609
 10
252.99805418001657
 20
-88.29405142098868
 10
253.0088863686155
 20
-88.14720302298225
 10
253.0125
 20
-88.0
  0
LWPOLYLINE
  5
94
330
17
100
AcDbEntity
  8
CUTOUTS
100
AcDbPolyline
 90
129
 70
1
 10
201.0625
 20
-58.8
 10
201.0526227408824
 20
-58.39764507051517
 10
201.02301475871204
 20
-57.9962594492976
 10
200.9737473817112
 20
-57.596810109466034
 10
200.9049392993065
 20
-57.20025935946774
 10
200.81675627619526
 20
-56.807562524793234
 10
200.70941075300414
 20
-56.41966564651341
 10
200.58316133450077
 20
-56.03750320218379
 10
200.43831216659257
 20
-55.66199585460626
 10
200.27521220361226
 20
-55.294048233871685
 10
200.09425436765653
 20
-54.93454675802682
 10
199.89587460200224
 20
-54.58435749761558
 10
199.68055082088088
 20
-54.24432408923926
 10
199.4488017581413
 20
-53.91526570316204
 10
199.20118571757445
 20
-53.59797506985811
 10
198.93829922791068
 20
-53.293216570254444
 10
198.6607756057297
 20
-53.00172439427031
 10
198.36928342974556
 20
-52.72420077208933
 10
198.0645249301419
 20
-52.461314282425555
 10
197.74723429683797
 20
-52.21369824185871
 10
197.41817591076074
 20
-51.98194917911913
 10
197.07814250238442
 20
-51.766625397997764
 10
196.72795324197318
 20
-51.56824563234349
 10
196.36845176612832
 20
-51.38728779638776
 10
196.00050414539373
 20
-51.22418783340745
 10
195.6249967978162
 20
-51.07933866549923
 10
195.24283435348661
 20
-50.95308924699589
 10
194.85493747520678
 20
-50.84574372380474
 10
194.46224064053226
 20
-50.75756070069351
 10
194.06568989053397
 20
-50.688752618288795
 10
193.6662405507024
 20
-50.639485241287986
 10
193.26485492948484
 20
-50.60987725911758
 10
192.8625
 20
-50.599999999999994
 10
192.46014507051518
 20
-50.60987725911758
 10
192.0587594492976
 20
-50.639485241287986
 10
191.65931010946605
 20
-50.688752618288795
 10
191.26275935946776
 20
-50.75756070069351
 10
190.87006252479324
 20
-50.84574372380474
 10
190.4821656465134
 20
-50.95308924699589
 10
190.1000032021838
 20
-51.07933866549923
 10
189.7244958546063
 20
-51.22418783340745
 10
189.3565482338717
 20
-51.38728779638776
 10
188.99704675802684
 20
-51.56824563234348
 10
188.6468574976156
 20
-51.766625397997764
 10
188.30682408923929
 20
-51.98194917911913
 10
187.97776570316205
 20
-52.21369824185871
 10
187.6604750698581
 20
-52.461314282425555
 10
187.35571657025446
 20
-52.72420077208933
 10
187.06422439427033
 20
-53.001724394270305
 10
186.78670077208935
 20
-53.293216570254444
 10
186.52381428242558
 20
-53.59797506985811
 10
186.27619824185874
 20
-53.91526570316204
 10
186.04444917911914
 20
-54.24432408923926
 10
185.82912539799779
 20
-54.58435749761558
 10
185.6307456323435
 20
-54.93454675802681
 10
185.44978779638777
 20
-55.294048233871685
 10
185.28668783340746
 20
-55.66199585460626
 10
185.14183866549925
 20
-56.03750320218379
 10
185.0155892469959
 20
-56.41966564651341
 10
184.90824372380476
 20
-56.807562524793234
 10
184.82006070069352
 20
-57.20025935946774
 10
184.75125261828882
 20
-57.596810109466034
 10
184.70198524128799
 20
-57.9962594492976
 10
184.6723772591176
 20
-58.39764507051517
 10
184.66250000000002
 20
-58.8
 10
184.6723772591176
 20
-59.20235492948482
 10
184.70198524128799
 20
-59.60374055070239
 10
184.75125261828882
 20
-60.00318989053396
 10
184.82006070069352
 20
-60.39974064053225
 10
184.90824372380476
 20
-60.79243747520676
 10
185.0155892469959
 20
-61.180334353486586
 10
185.14183866549925
 20
-61.5624967978162
 10
185.28668783340746
 20
-61.938004145393734
 10
185.44978779638777
 20
-62.30595176612831
 10
185.6307456323435
 20
-62.665453241973175
 10
185.82912539799779
 20
-63.015642502384416
 10
186.04444917911914
 20
-63.35567591076073
 10
186.27619824185874
 20
-63.68473429683795
 10
186.52381428242558
 20
-64.00202493014189
 10
186.78670077208935
 20
-64.30678342974555
 10
187.06422439427033
 20
-64.59827560572968
 10
187.35571657025446
 20
-64.87579922791066
 10
187.6604750698581
 20
-65.13868571757443
 10
187.97776570316205
 20
-65.38630175814129
 10
188.30682408923929
 20
-65.61805082088087
 10
188.6468574976156
 20
-65.83337460200222
 10
188.99704675802684
 20
-66.0317543676565
 10
189.3565482338717
 20
-66.21271220361223
 10
189.72449585460626
 20
-66.37581216659254
 10
190.1000032021838
 20
-66.52066133450077
 10
190.4821656465134
 20
-66.64691075300411
 10
190.87006252479324
 20
-66.75425627619526
 10
191.26275935946776
 20
-66.84243929930648
 10
191.65931010946605
 20
-66.9112473817112
 10
192.0587594492976
 20
-66.96051475871201
 10
192.46014507051518
 20
-66.99012274088241
 10
192.8625
 20
-67.0
 10
193.26485492948484
 20
-66.99012274088241
 10
193.6662405507024
 20
-66.96051475871201
 10
194.06568989053397
 20
-66.9112473817112
 10
194.46224064053226
 20
-66.84243929930649
 10
194.85493747520678
 20
-66.75425627619526
 10
195.24283435348661
 20
-66.64691075300411
 10
195.6249967978162
 20
-66.52066133450077
 10
196.00050414539376
 20
-66.37581216659255
 10
196.36845176612832
 20
-66.21271220361223
 10
196.72795324197318
 20
-66.0317543676565
 10
197.07814250238442
 20
-65.83337460200222
 10
197.41817591076074
 20
-65.61805082088087
 10
197.74723429683797
 20
-65.38630175814129
 10
198.0645249301419
 20
-65.13868571757443
 10
198.36928342974556
 20
-64.87579922791066
 10
198.6607756057297
 20
-64.59827560572968
 10
198.93829922791068
 20
-64.30678342974555
 10
199.20118571757445
 20
-64.0020249301419
 10
199.44880175814131
 20
-63.68473429683795
 10
199.68055082088088
 20
-63.35567591076074
 10
199.89587460200224
 20
-63.015642502384416
 10
200.09425436765653
 20
-62.66545324197318
 10
200.27521220361226
 20
-62.30595176612832
 10
200.43831216659257
 20
-61.93800414539374
 10
200.58316133450077
 20
-61.5624967978162
 10
200.70941075300414
 20
-61.180334353486586
 10
200.81675627619526
 20
-60.79243747520676
 10
200.9049392993065
 20
-60.39974064053225
 10
200.9737473817112
 20
-60.00318989053397
 10
201.02301475871204
 20
-59.60374055070239
 10
201.0526227408824
 20
-59.20235492948483
 10
201.0625
 20
-58.8
  0
LWPOLYLINE
  5
95
330
17
100
AcDbEntity
  8
CUTOUTS
100
AcDbPolyline
 90
129
 70
1
 10
201.0625
 20
-97.0
 10
201.0526227408824
 20
-96.59764507051517
 10
201.02301475871204
 20
-96.1962594492976
 10
200.9737473817112
 20
-95.79681010946604
 10
200.9049392993065
 20
-95.40025935946775
 10
200.81675627619526
 20
-95.00756252479323
 10
200.70941075300414
 20
-94.61966564651341
 10
200.58316133450077
 20
-94.2375032021838
 10
200.43831216659257
 20
-93.86199585460626
 10
200.27521220361226
 20
-93.49404823387168
 10
200.09425436765653
 20
-93.13454675802681
 10
199.89587460200224
 20
-92.78435749761559
 10
199.68055082088088
 20
-92.44432408923926
 10
199.4488017581413
 20
-92.11526570316205
 10
199.20118571757445
 20
-91.79797506985811
 10
198.93829922791068
 20
-91.49321657025445
 10
198.6607756057297
 20
-91.20172439427031
 10
198.36928342974556
 20
-90.92420077208934
 10
198.0645249301419
 20
-90.66131428242556
 10
197.74723429683797
 20
-90.41369824185871
 10
197.41817591076074
 20
-90.18194917911913
 10
197.07814250238442
 20
-89.96662539799777
 10
196.72795324197318
 20
-89.7682456323435
 10
196.36845176612832
 20
-89.58728779638777
 10
196.00050414539373
 20
-89.42418783340744
 10
195.6249967978162
 20
-89.27933866549922
 10
195.24283435348661
 20
-89.15308924699589
 10
194.85493747520678
 20
-89.04574372380475
 10
194.46224064053226
 20
-88.9575607006935
 10
194.06568989053397
 20
-88.88875261828879
 10
193.6662405507024
 20
-88.83948524128799
 10
193.26485492948484
 20
-88.80987725911758
 10
192.8625
 20
-88.8
 10
192.46014507051518
 20
-88.80987725911758
 10
192.0587594492976
 20
-88.83948524128799
 10
191.65931010946605
 20
-88.88875261828879
 10
191.26275935946776
 20
-88.9575607006935
 10
190.87006252479324
 20
-89.04574372380475
 10
190.4821656465134
 20
-89.15308924699589
 10
190.1000032021838
 20
-89.27933866549922
 10
189.7244958546063
 20
-89.42418783340744
 10
189.3565482338717
 20
-89.58728779638777
 10
188.99704675802684
 20
-89.7682456323435
 10
188.6468574976156
 20
-89.96662539799777
 10
188.30682408923929
 20
-90.18194917911913
 10
187.97776570316205
 20
-90.41369824185871
 10
187.6604750698581
 20
-90.66131428242555
 10
187.35571657025446
 20
-90.92420077208934
 10
187.06422439427033
 20
-91.20172439427031
 10
186.78670077208935
 20
-91.49321657025445
 10
186.52381428242558
 20
-91.79797506985811
 10
186.27619824185874
 20
-92.11526570316205
 10
186.04444917911914
 20
-92.44432408923926
 10
185.82912539799779
 20
-92.78435749761559
 10
185.6307456323435
 20
-93.13454675802681
 10
185.44978779638777
 20
-93.4940482338717
 10
185.28668783340746
 20
-93.86199585460626
 10
185.14183866549925
 20
-94.23750320218379
 10
185.0155892469959
 20
-94.61966564651341
 10
184.90824372380476
 20
-95.00756252479323
 10
184.82006070069352
 20
-95.40025935946774
 10
184.75125261828882
 20
-95.79681010946604
 10
184.70198524128799
 20
-96.1962594492976
 10
184.6723772591176
 20
-96.59764507051517
 10
184.66250000000002
 20
-97.0
 10
184.6723772591176
 20
-97.40235492948483
 10
184.70198524128799
 20
-97.8037405507024
 10
184.75125261828882
 20
-98.20318989053396
 10
184.82006070069352
 20
-98.59974064053225
 10
184.90824372380476
 20
-98.99243747520676
 10
185.0155892469959
 20
-99.38033435348659
 10
185.14183866549925
 20
-99.7624967978162
 10
185.28668783340746
 20
-100.13800414539374
 10
185.44978779638777
 20
-100.5059517661283
 10
185.6307456323435
 20
-100.86545324197319
 10
185.82912539799779
 20
-101.21564250238441
 10
186.04444917911914
 20
-101.55567591076074
 10
186.27619824185874
 20
-101.88473429683795
 10
186.52381428242558
 20
-102.20202493014189
 10
186.78670077208935
 20
-102.50678342974555
 10
187.06422439427033
 20
-102.79827560572969
 10
187.35571657025446
 20
-103.07579922791066
 10
187.6604750698581
 20
-103.33868571757444
 10
187.97776570316205
 20
-103.58630175814129
 10
188.30682408923929
 20
-103.81805082088087
 10
188.6468574976156
 20
-104.03337460200223
 10
188.99704675802684
 20
-104.2317543676565
 10
189.3565482338717
 20
-104.41271220361223
 10
189.72449585460626
 20
-104.57581216659256
 10
190.1000032021838
 20
-104.72066133450078
 10
190.4821656465134
 20
-104.84691075300411
 10
190.87006252479324
 20
-104.95425627619525
 10
191.26275935946776
 20
-105.0424392993065
 10
191.65931010946605
 20
-105.1112473817112
 10
192.0587594492976
 20
-105.16051475871201
 10
192.46014507051518
 20
-105.19012274088242
 10
192.8625
 20
-105.2
 10
193.26485492948484
 20
-105.19012274088242
 10
193.6662405507024
 20
-105.16051475871201
 10
194.06568989053397
 20
-105.1112473817112
 10
194.46224064053226
 20
-105.0424392993065
 10
194.85493747520678
 20
-104.95425627619525
 10
195.24283435348661
 20
-104.84691075300411
 10
195.6249967978162
 20
-104.72066133450078
 10
196.00050414539376
 20
-104.57581216659256
 10
196.36845176612832
 20
-104.41271220361223
 10
196.72795324197318
 20
-104.2317543676565
 10
197.07814250238442
 20
-104.03337460200223
 10
197.41817591076074
 20
-103.81805082088087
 10
197.74723429683797
 20
-103.58630175814129
 10
198.0645249301419
 20
-103.33868571757444
 10
198.36928342974556
 20
-103.07579922791066
 10
198.6607756057297
 20
-102.79827560572969
 10
198.93829922791068
 20
-102.50678342974555
 10
199.20118571757445
 20
-102.2020249301419
 10
199.44880175814131
 20
-101.88473429683795
 10
199.68055082088088
 20
-101.55567591076074
 10
199.89587460200224
 20
-101.21564250238441
 10
200.09425436765653
 20
-100.86545324197319
 10
200.27521220361226
 20
-100.50595176612832
 10
200.43831216659257
 20
-100.13800414539374
 10
200.58316133450077
 20
-99.7624967978162
 10
200.70941075300414
 20
-99.38033435348659
 10
200.81675627619526
 20
-98.99243747520677
 10
200.9049392993065
 20
-98.59974064053226
 10
200.9737473817112
 20
-98.20318989053398
 10
201.02301475871204
 20
-97.8037405507024
 10
201.0526227408824
 20
-97.40235492948483
 10
201.0625
 20
-97.0
  0
LWPOLYLINE
  5
96
330
17
100
AcDbEntity
  8
CUTOUTS
100
AcDbPolyline
 90
69
 70
1
 10
181.1651
 20
-59.4965
 10
173.5751
 20
-59.4965
 10
173.52609142983522
 20
-59.4989076366639
 10
173.47755483899192
 20
-59.506107359798385
 10
173.42995766137275
 20
-59.51802983213389
 10
173.38375828381746
 20
-59.53456023374435
 10
173.33940163158698
 20
-59.55553936782582
 10
173.2973148834902
 20
-59.58076519384873
 10
173.25790335791817
 20
-59.609994773318626
 10
173.22154660940672
 20
-59.64294660940672
 10
173.1885947733186
 20
-59.67930335791817
 10
173.1593651938487
 20
-59.71871488349019
 10
173.1341393678258
 20
-59.760801631587
 10
173.11316023374434
 20
-59.805158283817455
 10
173.09662983213389
 20
-59.85135766137277
 10
173.0847073597984
 20
-59.89895483899193
 10
173.07750763666388
 20
-59.94749142983522
 10
173.0751
 20
-59.9965
 10
173.0751
 20
-65.6865
 10
173.07750763666388
 20
-65.73550857016478
 10
173.0847073597984
 20
-65.78404516100807
 10
173.09662983213389
 20
-65.83164233862723
 10
173.11316023374434
 20
-65.87784171618254
 10
173.1341393678258
 20
-65.92219836841299
 10
173.1593651938487
 20
-65.9642851165098
 10
173.1885947733186
 20
-66.00369664208182
 10
173.22154660940672
 20
-66.04005339059327
 10
173.25790335791817
 20
-66.07300522668136
 10
173.2973148834902
 20
-66.10223480615127
 10
173.33940163158698
 20
-66.12746063217418
 10
173.38375828381746
 20
-66.14843976625563
 10
173.42995766137275
 20
-66.1649701678661
 10
173.47755483899192
 20
-66.17689264020161
 10
173.52609142983522
 20
-66.18409236333609
 10
173.5751
 20
-66.1865
 10
181.1651
 20
-66.1865
 10
181.21410857016477
 20
-66.18409236333609
 10
181.26264516100807
 20
-66.17689264020161
 10
181.31024233862723
 20
-66.1649701678661
 10
181.35644171618253
 20
-66.14843976625563
 10
181.400798368413
 20
-66.12746063217418
 10
181.44288511650979
 20
-66.10223480615127
 10
181.48229664208182
 20
-66.07300522668136
 10
181.51865339059327
 20
-66.04005339059327
 10
181.55160522668137
 20
-66.00369664208182
 10
181.58083480615127
 20
-65.9642851165098
 10
181.60606063217418
 20
-65.92219836841299
 10
181.62703976625565
 20
-65.87784171618254
 10
181.6435701678661
 20
-65.83164233862723
 10
181.6554926402016
 20
-65.78404516100807
 10
181.6626923633361
 20
-65.73550857016478
 10
181.6651
 20
-65.6865
 10
181.6651
 20
-59.9965
 10
181.6626923633361
 20
-59.94749142983522
 10
181.6554926402016
 20
-59.89895483899193
 10
181.6435701678661
 20
-59.85135766137277
 10
181.62703976625565
 20
-59.805158283817455
 10
181.60606063217418
 20
-59.760801631587
 10
181.58083480615127
 20
-59.71871488349019
 10
181.55160522668137
 20
-59.67930335791817
 10
181.51865339059327
 20
-59.64294660940672
 10
181.48229664208182
 20
-59.609994773318626
 10
181.44288511650979
 20
-59.58076519384873
 10
181.400798368413
 20
-59.55553936782582
 10
181.35644171618253
 20
-59.53456023374435
 10
181.31024233862723
 20
-59.51802983213389
 10
181.26264516100807
 20
-59.506107359798385
 10
181.21410857016477
 20
-59.4989076366639
 10
181.1651
 20
-59.4965
  0
LWPOLYLINE
  5
97
330
17
100
AcDbEntity
  8
CUTOUTS
100
AcDbPolyline
 90
69
 70
1
 10
172.1662
 20
-63.8494
 10
165.0762
 20
-63.8494
 10
165.02719142983523
 20
-63.85180763666391
 10
164.97865483899193
 20
-63.85900735979839
 10
164.93105766137276
 20
-63.870929832133896
 10
164.88485828381747
 20
-63.887460233744356
 10
164.840501631587
 20
-63.90843936782583
 10
164.7984148834902
 20
-63.93366519384873
 10
164.75900335791817
 20
-63.96289477331863
 10
164.72264660940672
 20
-63.995846609406726
 10
164.68969477331862
 20
-64.03220335791818
 10
164.66046519384872
 20
-64.0716148834902
 10
164.63523936782582
 20
-64.113701631587
 10
164.61426023374435
 20
-64.15805828381745
 10
164.5977298321339
 20
-64.20425766137276
 10
164.5858073597984
 20
-64.25185483899193
 10
164.5786076366639
 20
-64.30039142983522
 10
164.5762
 20
-64.3494
 10
164.5762
 20
-68.4394
 10
164.5786076366639
 20
-68.4884085701648
 10
164.5858073597984
 20
-68.53694516100808
 10
164.5977298321339
 20
-68.58454233862724
 10
164.61426023374435
 20
-68.63074171618256
 10
164.63523936782582
 20
-68.675098368413
 10
164.66046519384872
 20
-68.71718511650981
 10
164.68969477331862
 20
-68.75659664208183
 10
164.72264660940672
 20
-68.79295339059328
 10
164.75900335791817
 20
-68.82590522668137
 10
164.7984148834902
 20
-68.85513480615128
 10
164.840501631587
 20
-68.88036063217419
 10
164.88485828381747
 20
-68.90133976625565
 10
164.93105766137276
 20
-68.91787016786611
 10
164.97865483899193
 20
-68.92979264020163
 10
165.02719142983523
 20
-68.9369923633361
 10
165.0762
 20
-68.9394
 10
172.1662
 20
-68.9394
 10
172.21520857016478
 20
-68.9369923633361
 10
172.26374516100807
 20
-68.92979264020163
 10
172.31134233862724
 20
-68.91787016786611
 10
172.35754171618254
 20
-68.90133976625565
 10
172.40189836841301
 20
-68.88036063217419
 10
172.4439851165098
 20
-68.85513480615128
 10
172.48339664208183
 20
-68.82590522668137
 10
172.51975339059328
 20
-68.79295339059328
 10
172.55270522668138
 20
-68.75659664208183
 10
172.58193480615128
 20
-68.71718511650981
 10
172.60716063217419
 20
-68.675098368413
 10
172.62813976625566
 20
-68.63074171618256
 10
172.6446701678661
 20
-68.58454233862724
 10
172.6565926402016
 20
-68.53694516100808
 10
172.6637923633361
 20
-68.4884085701648
 10
172.6662
 20
-68.4394
 10
172.6662
 20
-64.3494
 10
172.6637923633361
 20
-64.30039142983522
 10
172.6565926402016
 20
-64.25185483899193
 10
172.6446701678661
 20
-64.20425766137276
 10
172.62813976625566
 20
-64.15805828381745
 10
172.60716063217419
 20
-64.113701631587
 10
172.58193480615128
 20
-64.0716148834902
 10
172.55270522668138
 20
-64.03220335791818
 10
172.51975339059328
 20
-63.995846609406726
 10
172.48339664208183
 20
-63.96289477331863
 10
172.4439851165098
 20
-63.93366519384873
 10
172.40189836841301
 20
-63.90843936782583
 10
172.35754171618254
 20
-63.887460233744356
 10
172.31134233862724
 20
-63.870929832133896
 10
172.26374516100807
 20
-63.85900735979839
 10
172.21520857016478
 20
-63.85180763666391
 10
172.1662
 20
-63.8494
  0
LWPOLYLINE
  5
98
330
17
100
AcDbEntity
  8
CUTOUTS
100
AcDbPolyline
 90
69
 70
1
 10
207.7525
 20
-21.695
 10
197.0225
 20
-21.695
 10
196.97349142983524
 20
-21.6974076366639
 10
196.92495483899194
 20
-21.704607359798384
 10
196.87735766137277
 20
-21.716529832133897
 10
196.83115828381747
 20
-21.733060233744357
 10
196.786801631587
 20
-21.754039367825822
 10
196.74471488349022
 20
-21.779265193848726
 10
196.70530335791818
 20
-21.808494773318632
 10
196.66894660940673
 20
-21.841446609406727
 10
196.63599477331863
 20
-21.87780335791818
 10
196.60676519384873
 20
-21.9172148834902
 10
196.58153936782583
 20
-21.959301631587003
 10
196.56056023374435
 20
-22.003658283817455
 10
196.5440298321339
 20
-22.04985766137277
 10
196.5321073597984
 20
-22.097454838991936
 10
196.5249076366639
 20
-22.14599142983522
 10
196.5225
 20
-22.195
 10
196.5225
 20
-31.705
 10
196.5249076366639
 20
-31.75400857016478
 10
196.5321073597984
 20
-31.802545161008062
 10
196.5440298321339
 20
-31.85014233862723
 10
196.56056023374435
 20
-31.896341716182544
 10
196.58153936782583
 20
-31.940698368412995
 10
196.60676519384873
 20
-31.9827851165098
 10
196.63599477331863
 20
-32.02219664208182
 10
196.66894660940673
 20
-32.058553390593275
 10
196.70530335791818
 20
-32.09150522668137
 10
196.74471488349022
 20
-32.12073480615127
 10
196.786801631587
 20
-32.14596063217417
 10
196.83115828381747
 20
-32.166939766255645
 10
196.87735766137277
 20
-32.183470167866105
 10
196.92495483899194
 20
-32.19539264020161
 10
196.97349142983524
 20
-32.202592363336095
 10
197.0225
 20
-32.205
 10
207.7525
 20
-32.205
 10
207.80150857016477
 20
-32.202592363336095
 10
207.85004516100807
 20
-32.19539264020161
 10
207.89764233862724
 20
-32.183470167866105
 10
207.94384171618253
 20
-32.166939766255645
 10
207.988198368413
 20
-32.14596063217417
 10
208.0302851165098
 20
-32.12073480615127
 10
208.06969664208182
 20
-32.09150522668137
 10
208.10605339059327
 20
-32.058553390593275
 10
208.13900522668138
 20
-32.02219664208182
 10
208.16823480615128
 20
-31.9827851165098
 10
208.19346063217418
 20
-31.940698368412995
 10
208.21443976625565
 20
-31.896341716182544
 10
208.2309701678661
 20
-31.85014233862723
 10
208.2428926402016
 20
-31.802545161008062
 10
208.2500923633361
 20
-31.75400857016478
 10
208.2525
 20
-31.705
 10
208.2525
 20
-22.195
 10
208.2500923633361
 20
-22.14599142983522
 10
208.2428926402016
 20
-22.097454838991936
 10
208.2309701678661
 20
-22.04985766137277
 10
208.21443976625565
 20
-22.003658283817455
 10
208.19346063217418
 20
-21.959301631587003
 10
208.16823480615128
 20
-21.9172148834902
 10
208.13900522668138
 20
-21.87780335791818
 10
208.10605339059327
 20
-21.841446609406727
 10
208.06969664208182
 20
-21.808494773318632
 10
208.0302851165098
 20
-21.779265193848726
 10
207.988198368413
 20
-21.754039367825822
 10
207.94384171618253
 20
-21.733060233744357
 10
207.89764233862724
 20
-21.716529832133897
 10
207.85004516100807
 20
-21.704607359798384
 10
207.80150857016477
 20
-21.6974076366639
 10
207.7525
 20
-21.695
  0
LWPOLYLINE
  5
99
330
17
100
AcDbEntity
  8
CUTOUTS
100
AcDbPolyline
 90
69
 70
1
 10
179.795
 20
-53.655
 10
172.205
 20
-53.655
 10
172.15599142983524
 20
-53.657407636663905
 10
172.10745483899194
 20
-53.66460735979839
 10
172.05985766137277
 20
-53.676529832133895
 10
172.01365828381748
 20
-53.693060233744355
 10
171.969301631587
 20
-53.714039367825826
 10
171.92721488349022
 20
-53.73926519384873
 10
171.8878033579182
 20
-53.76849477331863
 10
171.85144660940674
 20
-53.801446609406725
 10
171.81849477331863
 20
-53.837803357918176
 10
171.78926519384873
 20
-53.8772148834902
 10
171.76403936782583
 20
-53.919301631587004
 10
171.74306023374436
 20
-53.96365828381746
 10
171.7265298321339
 20
-54.00985766137277
 10
171.7146073597984
 20
-54.05745483899194
 10
171.7074076366639
 20
-54.10599142983522
 10
171.705
 20
-54.155
 10
171.705
 20
-59.845
 10
171.7074076366639
 20
-59.89400857016478
 10
171.7146073597984
 20
-59.94254516100806
 10
171.7265298321339
 20
-59.99014233862723
 10
171.74306023374436
 20
-60.03634171618254
 10
171.76403936782583
 20
-60.080698368412996
 10
171.78926519384873
 20
-60.1227851165098
 10
171.81849477331863
 20
-60.162196642081824
 10
171.85144660940674
 20
-60.198553390593275
 10
171.8878033579182
 20
-60.23150522668137
 10
171.92721488349022
 20
-60.26073480615127
 10
171.969301631587
 20
-60.285960632174174
 10
172.01365828381748
 20
-60.306939766255645
 10
172.05985766137277
 20
-60.323470167866105
 10
172.10745483899194
 20
-60.33539264020161
 10
172.15599142983524
 20
-60.342592363336095
 10
172.205
 20
-60.345
 10
179.795
 20
-60.345
 10
179.84400857016476
 20
-60.342592363336095
 10
179.89254516100806
 20
-60.33539264020161
 10
179.94014233862723
 20
-60.323470167866105
 10
179.98634171618252
 20
-60.306939766255645
 10
180.030698368413
 20
-60.285960632174174
 10
180.07278511650978
 20
-60.26073480615127
 10
180.1121966420818
 20
-60.23150522668137
 10
180.14855339059326
 20
-60.198553390593275
 10
180.18150522668137
 20
-60.162196642081824
 10
180.21073480615127
 20
-60.1227851165098
 10
180.23596063217417
 20
-60.080698368412996
 10
180.25693976625564
 20
-60.03634171618254
 10
180.2734701678661
 20
-59.99014233862723
 10
180.2853926402016
 20
-59.94254516100806
 10
180.2925923633361
 20
-59.89400857016478
 10
180.295
 20
-59.845
 10
180.295
 20
-54.155
 10
180.2925923633361
 20
-54.10599142983522
 10
180.2853926402016
 20
-54.05745483899194
 10
180.2734701678661
 20
-54.00985766137277
 10
180.25693976625564
 20
-53.96365828381746
 10
180.23596063217417
 20
-53.919301631587004
 10
180.21073480615127
 20
-53.8772148834902
 10
180.18150522668137
 20
-53.837803357918176
 10
180.14855339059326
 20
-53.801446609406725
 10
180.1121966420818
 20
-53.76849477331863
 10
180.07278511650978
 20
-53.73926519384873
 10
180.030698368413
 20
-53.714039367825826
 10
179.98634171618252
 20
-53.693060233744355
 10
179.94014233862723
 20
-53.676529832133895
 10
179.89254516100806
 20
-53.66460735979839
 10
179.84400857016476
 20
-53.657407636663905
 10
179.795
 20
-53.655
  0
LWPOLYLINE
  5
9A
330
17
100
AcDbEntity
  8
CUTOUTS
100
AcDbPolyline
 90
69
 70
1
 10
170.945
 20
-34.725
 10
157.055
 20
-34.725
 10
157.00599142983523
 20
-34.727407636663905
 10
156.95745483899194
 20
-34.73460735979839
 10
156.90985766137277
 20
-34.746529832133895
 10
156.86365828381747
 20
-34.763060233744355
 10
156.819301631587
 20
-34.78403936782583
 10
156.77721488349022
 20
-34.80926519384873
 10
156.73780335791818
 20
-34.83849477331863
 10
156.70144660940673
 20
-34.871446609406725
 10
156.66849477331863
 20
-34.907803357918176
 10
156.63926519384873
 20
-34.9472148834902
 10
156.61403936782582
 20
-34.989301631587004
 10
156.59306023374435
 20
-35.03365828381746
 10
156.5765298321339
 20
-35.07985766137277
 10
156.5646073597984
 20
-35.12745483899194
 10
156.5574076366639
 20
-35.17599142983522
 10
156.555
 20
-35.225
 10
156.555
 20
-41.875
 10
156.5574076366639
 20
-41.92400857016478
 10
156.5646073597984
 20
-41.972545161008064
 10
156.5765298321339
 20
-42.02014233862723
 10
156.59306023374435
 20
-42.06634171618254
 10
156.61403936782582
 20
-42.110698368413
 10
156.63926519384873
 20
-42.152785116509804
 10
156.66849477331863
 20
-42.192196642081825
 10
156.70144660940673
 20
-42.22855339059328
 10
156.73780335791818
 20
-42.26150522668137
 10
156.77721488349022
 20
-42.29073480615127
 10
156.819301631587
 20
-42.315960632174175
 10
156.86365828381747
 20
-42.33693976625565
 10
156.90985766137277
 20
-42.35347016786611
 10
156.95745483899194
 20
-42.36539264020161
 10
157.00599142983523
 20
-42.372592363336096
 10
157.055
 20
-42.375
 10
170.945
 20
-42.375
 10
170.99400857016477
 20
-42.372592363336096
 10
171.04254516100806
 20
-42.36539264020161
 10
171.09014233862723
 20
-42.35347016786611
 10
171.13634171618253
 20
-42.33693976625565
 10
171.180698368413
 20
-42.315960632174175
 10
171.22278511650978
 20
-42.29073480615127
 10
171.26219664208182
 20
-42.26150522668137
 10
171.29855339059327
 20
-42.22855339059328
 10
171.33150522668137
 20
-42.192196642081825
 10
171.36073480615127
 20
-42.152785116509804
 10
171.38596063217418
 20
-42.110698368413
 10
171.40693976625565
 20
-42.06634171618254
 10
171.4234701678661
 20
-42.02014233862723
 10
171.4353926402016
 20
-41.972545161008064
 10
171.4425923633361
 20
-41.92400857016478
 10
171.445
 20
-41.875
 10
171.445
 20
-35.225
 10
171.4425923633361
 20
-35.17599142983522
 10
171.4353926402016
 20
-35.12745483899194
 10
171.4234701678661
 20
-35.07985766137277
 10
171.40693976625565
 20
-35.03365828381746
 10
171.38596063217418
 20
-34.989301631587004
 10
171.36073480615127
 20
-34.9472148834902
 10
171.33150522668137
 20
-34.907803357918176
 10
171.29855339059327
 20
-34.871446609406725
 10
171.26219664208182
 20
-34.83849477331863
 10
171.22278511650978
 20
-34.80926519384873
 10
171.180698368413
 20
-34.78403936782583
 10
171.13634171618253
 20
-34.763060233744355
 10
171.09014233862723
 20
-34.746529832133895
 10
171.04254516100806
 20
-34.73460735979839
 10
170.99400857016477
 20
-34.727407636663905
 10
170.945
 20
-34.725
  0
ENDSEC
  0
SECTION
  2
OBJECTS
  0
DICTIONARY
  5
A
330
0
100
AcDbDictionary
281
1
  3
ACAD_COLOR
350
B
  3
ACAD_GROUP
350
C
  3
ACAD_LAYOUT
350
D
  3
ACAD_MATERIAL
350
E
  3
ACAD_MLEADERSTYLE
350
F
  3
ACAD_MLINESTYLE
350
10
  3
ACAD_PLOTSETTINGS
350
11
  3
ACAD_PLOTSTYLENAME
350
12
  3
ACAD_SCALELIST
350
14
  3
ACAD_TABLESTYLE
350
15
  3
ACAD_VISUALSTYLE
350
16
  3
EZDXF_META
350
2D
  0
DICTIONARY
  5
B
330
A
100
AcDbDictionary
281
1
  0
DICTIONARY
  5
C
330
A
100
AcDbDictionary
281
1
  0
DICTIONARY
  5
D
330
A
100
AcDbDictionary
281
1
  3
Model
350
1A
  3
Layout1
350
1E
  0
DICTIONARY
  5
E
330
A
100
AcDbDictionary
281
1
  3
ByBlock
350
1F
  3
ByLayer
350
20
  3
Global
350
21
  0
DICTIONARY
  5
F
330
A
100
AcDbDictionary
281
1
  3
Standard
350
2C
  0
DICTIONARY
  5
10
330
A
100
AcDbDictionary
281
1
  3
Standard
350
22
  0
DICTIONARY
  5
11
330
A
100
AcDbDictionary
281
1
  0
ACDBDICTIONARYWDFLT
  5
12
330
A
100
AcDbDictionary
281
1
  3
Normal
350
13
100
AcDbDictionaryWithDefault
340
13
  0
ACDBPLACEHOLDER
  5
13
330
12
  0
DICTIONARY
  5
14
330
A
100
AcDbDictionary
281
1
  0
DICTIONARY
  5
15
330
A
100
AcDbDictionary
281
1
  0
DICTIONARY
  5
16
330
A
100
AcDbDictionary
281
1
  3
2dWireframe
350
5A
  3
Basic
350
5B
  3
Brighten
350
5C
  3
ColorChange
350
5D
  3
Conceptual
350
5E
  3
Dim
350
5F
  3
EdgeColorOff
350
60
  3
Facepattern
350
61
  3
Flat
350
62
  3
FlatWithEdges
350
63
  3
Gouraud
350
64
  3
GouraudWithEdges
350
65
  3
Hidden
350
66
  3
JitterOff
350
67
  3
Linepattern
350
68
  3
Modeling
350
69
  3
OverhangOff
350
6A
  3
Realistic
350
6B
  3
Shaded
350
6C
  3
Shaded with edges
350
6D
  3
Shades of Gray
350
6E
  3
Sketchy
350
6F
  3
Thicken
350
70
  3
Wireframe
350
71
  3
X-Ray
350
72
  0
LAYOUT
  5
1A
330
D
100
AcDbPlotSettings
  1

  4
A3
  6

 40
7.5
 41
20.0
 42
7.5
 43
20.0
 44
420.0
 45
297.0
 46
0.0
 47
0.0
 48
0.0
 49
0.0
140
0.0
141
0.0
142
1.0
143
1.0
 70
1024
 72
1
 73
0
 74
5
  7

 75
16
 76
0
 77
2
 78
300
147
1.0
148
0.0
149
0.0
100
AcDbLayout
  1
Model
 70
1
 71
0
 10
0.0
 20
0.0
 11
420.0
 21
297.0
 12
0.0
 22
0.0
 32
0.0
 14
1e+20
 24
1e+20
 34
1e+20
 15
-1e+20
 25
-1e+20
 35
-1e+20
146
0.0
 13
0.0
 23
0.0
 33
0.0
 16
1.0
 26
0.0
 36
0.0
 17
0.0
 27
1.0
 37
0.0
 76
1
330
17
  0
LAYOUT
  5
1E
330
D
100
AcDbPlotSettings
  1

  4
A3
  6

 40
7.5
 41
20.0
 42
7.5
 43
20.0
 44
420.0
 45
297.0
 46
0.0
 47
0.0
 48
0.0
 49
0.0
140
0.0
141
0.0
142
1.0
143
1.0
 70
0
 72
1
 73
0
 74
5
  7

 75
16
 76
0
 77
2
 78
300
147
1.0
148
0.0
149
0.0
100
AcDbLayout
  1
Layout1
 70
1
 71
1
 10
0.0
 20
0.0
 11
420.0
 21
297.0
 12
0.0
 22
0.0
 32
0.0
 14
1e+20
 24
1e+20
 34
1e+20
 15
-1e+20
 25
-1e+20
 35
-1e+20
146
0.0
 13
0.0
 23
0.0
 33
0.0
 16
1.0
 26
0.0
 36
0.0
 17
0.0
 27
1.0
 37
0.0
 76
1
330
1B
  0
MATERIAL
  5
1F
102
{ACAD_REACTORS
330
E
102
}
330
E
100
AcDbMaterial
  1
ByBlock
  2

 70
0
 40
1.0
 71
1
 41
1.0
 91
-1023410177
 42
1.0
 72
1
  3

 73
1
 74
1
 75
1
 44
0.5
 73
0
 45
1.0
 46
1.0
 77
1
  4

 78
1
 79
1
170
1
 48
1.0
171
1
  6

172
1
173
1
174
1
140
1.0
141
1.0
175
1
  7

176
1
177
1
178
1
143
1.0
179
1
  8

270
1
271
1
272
1
145
1.0
146
1.0
273
1
  9

274
1
275
1
276
1
 42
1.0
 72
1
  3

 73
1
 74
1
 75
1
 94
63
  0
MATERIAL
  5
20
102
{ACAD_REACTORS
330
E
102
}
330
E
100
AcDbMaterial
  1
ByLayer
  2

 70
0
 40
1.0
 71
1
 41
1.0
 91
-1023410177
 42
1.0
 72
1
  3

 73
1
 74
1
 75
1
 44
0.5
 73
0
 45
1.0
 46
1.0
 77
1
  4

 78
1
 79
1
170
1
 48
1.0
171
1
  6

172
1
173
1
174
1
140
1.0
141
1.0
175
1
  7

176
1
177
1
178
1
143
1.0
179
1
  8

270
1
271
1
272
1
145
1.0
146
1.0
273
1
  9

274
1
275
1
276
1
 42
1.0
 72
1
  3

 73
1
 74
1
 75
1
 94
63
  0
MATERIAL
  5
21
102
{ACAD_REACTORS
330
E
102
}
330
E
100
AcDbMaterial
  1
Global
  2

 70
0
 40
1.0
 71
1
 41
1.0
 91
-1023410177
 42
1.0
 72
1
  3

 73
1
 74
1
 75
1
 44
0.5
 73
0
 45
1.0
 46
1.0
 77
1
  4

 78
1
 79
1
170
1
 48
1.0
171
1
  6

172
1
173
1
174
1
140
1.0
141
1.0
175
1
  7

176
1
177
1
178
1
143
1.0
179
1
  8

270
1
271
1
272
1
145
1.0
146
1.0
273
1
  9

274
1
275
1
276
1
 42
1.0
 72
1
  3

 73
1
 74
1
 75
1
 94
63
  0
MLINESTYLE
  5
22
102
{ACAD_REACTORS
330
10
102
}
330
10
100
AcDbMlineStyle
  2
Standard
 70
0
  3

 62
256
 51
90.0
 52
90.0
 71
2
 49
0.5
 62
256
  6
BYLAYER
 49
-0.5
 62
256
  6
BYLAYER
  0
MLEADERSTYLE
  5
2C
102
{ACAD_REACTORS
330
F
102
}
330
F
100
AcDbMLeaderStyle
179
2
170
2
171
1
172
0
 90
2
 40
0.0
 41
0.0
173
1
 91
-1056964608
 92
-2
290
1
 42
2.0
291
1
 43
8.0
  3
Standard
 44
4.0
300

342
29
174
1
175
1
176
0
178
1
 93
-1056964608
 45
4.0
292
0
297
0
 46
4.0
 94
-1056964608
 47
1.0
 49
1.0
140
1.0
294
1
141
0.0
177
0
142
1.0
295
0
296
0
143
3.75
271
0
272
9
273
9
  0
DICTIONARY
  5
2D
330
A
100
AcDbDictionary
280
1
281
1
  3
CREATED_BY_EZDXF
350
2E
  3
WRITTEN_BY_EZDXF
350
9D
  0
DICTIONARYVAR
  5
2E
330
2D
100
DictionaryVariables
280
0
  1
1.4.4 @ 2026-10-02T12:51:42.123709+00:00
  0
VISUALSTYLE
  5
5A
102
{ACAD_REACTORS
330
16
102
}
330
16
100
AcDbVisualStyle
  2
2dWireframe
 70
4
 90
0
 40
0.6
 62
7
290
0
291
0
  0
VISUALSTYLE
  5
5B
102
{ACAD_REACTORS
330
16
102
}
330
16
100
AcDbVisualStyle
  2
Basic
 70
7
 90
1
 40
0.6
 62
7
290
0
291
1
  0
VISUALSTYLE
  5
5C
102
{ACAD_REACTORS
330
16
102
}
330
16
100
AcDbVisualStyle
  2
Brighten
 70
12
 90
2
 40
0.6
 62
7
290
0
291
1
  0
VISUALSTYLE
  5
5D
102
{ACAD_REACTORS
330
16
102
}
330
16
100
AcDbVisualStyle
  2
ColorChange
 70
16
 90
2
 40
0.6
 62
8
290
0
291
1
  0
VISUALSTYLE
  5
5E
102
{ACAD_REACTORS
330
16
102
}
330
16
100
AcDbVisualStyle
  2
Conceptual
 70
9
 90
3
 40
0.6
 62
7
290
0
291
0
  0
VISUALSTYLE
  5
5F
102
{ACAD_REACTORS
330
16
102
}
330
16
100
AcDbVisualStyle
  2
Dim
 70
11
 90
2
 40
0.6
 62
7
290
0
291
1
  0
VISUALSTYLE
  5
60
102
{ACAD_REACTORS
330
16
102
}
330
16
100
AcDbVisualStyle
  2
EdgeColorOff
 70
22
 90
2
 40
0.6
 62
7
290
0
291
1
  0
VISUALSTYLE
  5
61
102
{ACAD_REACTORS
330
16
102
}
330
16
100
AcDbVisualStyle
  2
Facepattern
 70
15
 90
2
 40
0.6
 62
7
290
0
291
1
  0
VISUALSTYLE
  5
62
102
{ACAD_REACTORS
330
16
102
}
330
16
100
AcDbVisualStyle
  2
Flat
 70
0
 90
2
 40
0.6
 62
7
290
0
291
1
  0
VISUALSTYLE
  5
63
102
{ACAD_REACTORS
330
16
102
}
330
16
100
AcDbVisualStyle
  2
FlatWithEdges
 70
1
 90
2
 40
0.6
 62
7
290
0
291
1
  0
VISUALSTYLE
  5
64
102
{ACAD_REACTORS
330
16
102
}
330
16
100
AcDbVisualStyle
  2
Gouraud
 70
2
 90
2
 40
0.6
 62
7
290
0
291
1
  0
VISUALSTYLE
  5
65
102
{ACAD_REACTORS
330
16
102
}
330
16
100
AcDbVisualStyle
  2
GouraudWithEdges
 70
3
 90
2
 40
0.6
 62
7
290
0
291
1
  0
VISUALSTYLE
  5
66
102
{ACAD_REACTORS
330
16
102
}
330
16
100
AcDbVisualStyle
  2
Hidden
 70
6
 90
1
 40
0.6
 62
7
290
0
291
0
  0
VISUALSTYLE
  5
67
102
{ACAD_REACTORS
330
16
102
}
330
16
100
AcDbVisualStyle
  2
JitterOff
 70
20
 90
2
 40
0.6
 62
7
290
0
291
1
  0
VISUALSTYLE
  5
68
102
{ACAD_REACTORS
330
16
102
}
330
16
100
AcDbVisualStyle
  2
Linepattern
 70
14
 90
2
 40
0.6
 62
7
290
0
291
1
  0
VISUALSTYLE
  5
69
102
{ACAD_REACTORS
330
16
102
}
330
16
100
AcDbVisualStyle
  2
Modeling
 70
10
 90
2
 40
0.6
 62
7
290
0
291
0
  0
VISUALSTYLE
  5
6A
102
{ACAD_REACTORS
330
16
102
}
330
16
100
AcDbVisualStyle
  2
OverhangOff
 70
21
 90
2
 40
0.6
 62
7
290
0
291
1
  0
VISUALSTYLE
  5
6B
102
{ACAD_REACTORS
330
16
102
}
330
16
100
AcDbVisualStyle
  2
Realistic
 70
8
 90
2
 40
0.6
 62
7
290
0
291
0
  0
VISUALSTYLE
  5
6C
102
{ACAD_REACTORS
330
16
102
}
330
16
100
AcDbVisualStyle
  2
Shaded
 70
27
 90
2
 40
0.6
 62
7
290
0
291
0
  0
VISUALSTYLE
  5
6D
102
{ACAD_REACTORS
330
16
102
}
330
16
100
AcDbVisualStyle
  2
Shaded with edges
 70
26
 90
2
 40
0.6
 62
7
290
0
291
0
  0
VISUALSTYLE
  5
6E
102
{ACAD_REACTORS
330
16
102
}
330
16
100
AcDbVisualStyle
  2
Shades of Gray
 70
23
 90
2
 40
0.6
 62
7
290
0
291
0
  0
VISUALSTYLE
  5
6F
102
{ACAD_REACTORS
330
16
102
}
330
16
100
AcDbVisualStyle
  2
Sketchy
 70
24
 90
1
 40
0.6
 62
7
290
0
291
0
  0
VISUALSTYLE
  5
70
102
{ACAD_REACTORS
330
16
102
}
330
16
100
AcDbVisualStyle
  2
Thicken
 70
13
 90
2
 40
0.6
 62
7
290
0
291
1
  0
VISUALSTYLE
  5
71
102
{ACAD_REACTORS
330
16
102
}
330
16
100
AcDbVisualStyle
  2
Wireframe
 70
5
 90
0
 40
0.6
 62
7
290
0
291
0
  0
VISUALSTYLE
  5
72
102
{ACAD_REACTORS
330
16
102
}
330
16
100
AcDbVisualStyle
  2
X-Ray
 70
25
 90
2
 40
0.5
 62
7
290
0
291
0
  0
DICTIONARYVAR
  5
9D
330
2D
100
DictionaryVariables
280
0
  1
1.4.4 @ 2026-10-02T12:51:42.136817+00:00
  0
ENDSEC
  0
EOF
