  0
SECTION
  2
HEADER
  9
$ACADVER
  1
AC1024
  9
$ACADMAINTVER
 70
6
  9
$DWGCODEPAGE
  3
ANSI_1252
  9
$LASTSAVEDBY
  1
ezdxf
  9
$INSBASE
 10
0.0
 20
0.0
 30
0.0
  9
$EXTMIN
 10
1e+20
 20
1e+20
 30
1e+20
  9
$EXTMAX
 10
-1e+20
 20
-1e+20
 30
-1e+20
  9
$LIMMIN
 10
0.0
 20
0.0
  9
$LIMMAX
 10
420.0
 20
297.0
  9
$ORTHOMODE
 70
0
  9
$REGENMODE
 70
1
  9
$FILLMODE
 70
1
  9
$QTEXTMODE
 70
0
  9
$MIRRTEXT
 70
1
  9
$LTSCALE
 40
1.0
  9
$ATTMODE
 70
1
  9
$TEXTSIZE
 40
2.5
  9
$TRACEWID
 40
1.0
  9
$TEXTSTYLE
  7
OpenSans
  9
$CLAYER
  8
0
  9
$CELTYPE
  6
ByLayer
  9
$CECOLOR
 62
256
  9
$CELTSCALE
 40
1.0
  9
$DISPSILH
 70
0
  9
$DIMSCALE
 40
1.0
  9
$DIMASZ
 40
0.175
  9
$DIMEXO
 40
0.125
  9
$DIMDLI
 40
3.75
  9
$DIMRND
 40
0.0
  9
$DIMDLE
 40
0.0
  9
$DIMEXE
 40
0.375
  9
$DIMTP
 40
0.0
  9
$DIMTM
 40
0.0
  9
$DIMTXT
 40
0.25
  9
$DIMCEN
 40
2.5
  9
$DIMTSZ
 40
0.0
  9
$DIMTOL
 70
0
  9
$DIMLIM
 70
0
  9
$DIMTIH
 70
0
  9
$DIMTOH
 70
0
  9
$DIMSE1
 70
0
  9
$DIMSE2
 70
0
  9
$DIMTAD
 70
1
  9
$DIMZIN
 70
12
  9
$DIMBLK
  1
ARCHTICK
  9
$DIMASO
 70
1
  9
$DIMSHO
 70
1
  9
$DIMPOST
  1

  9
$DIMAPOST
  1

  9
$DIMALT
 70
0
  9
$DIMALTD
 70
3
  9
$DIMALTF
 40
0.03937007874
  9
$DIMLFAC
 40
100.0
  9
$DIMTOFL
 70
1
  9
$DIMTVP
 40
0.0
  9
$DIMTIX
 70
0
  9
$DIMSOXD
 70
0
  9
$DIMSAH
 70
0
  9
$DIMBLK1
  1

  9
$DIMBLK2
  1

  9
$DIMSTYLE
  2
EZDXF
  9
$DIMCLRD
 70
0
  9
$DIMCLRE
 70
0
  9
$DIMCLRT
 70
0
  9
$DIMTFAC
 40
0.5
  9
$DIMGAP
 40
0.1
  9
$DIMJUST
 70
0
  9
$DIMSD1
 70
0
  9
$DIMSD2
 70
0
  9
$DIMTOLJ
 70
0
  9
$DIMTZIN
 70
8
  9
$DIMALTZ
 70
0
  9
$DIMALTTZ
 70
0
  9
$DIMUPT
 70
1
  9
$DIMDEC
 70
2
  9
$DIMTDEC
 70
2
  9
$DIMALTU
 70
2
  9
$DIMALTTD
 70
3
  9
$DIMTXSTY
  7
OpenSansCondensed-Light
  9
$DIMAUNIT
 70
0
  9
$DIMADEC
 70
2
  9
$DIMALTRND
 40
0.0
  9
$DIMAZIN
 70
3
  9
$DIMDSEP
 70
46
  9
$DIMATFIT
 70
3
  9
$DIMFRAC
 70
0
  9
$DIMLDRBLK
  1

  9
$DIMLUNIT
 70
2
  9
$DIMLWD
 70
-2
  9
$DIMLWE
 70
-2
  9
$DIMTMOVE
 70
2
  9
$DIMFXL
 40
1.0
  9
$DIMFXLON
 70
0
  9
$DIMJOGANG
 40
0.785398163397
  9
$DIMTFILL
 70
0
  9
$DIMTFILLCLR
 70
0
  9
$DIMARCSYM
 70
0
  9
$DIMLTYPE
  6

  9
$DIMLTEX1
  6

  9
$DIMLTEX2
  6

  9
$DIMTXTDIRECTION
 70
0
  9
$LUNITS
 70
2
  9
$LUPREC
 70
4
  9
$SKETCHINC
 40
1.0
  9
$FILLETRAD
 40
10.0
  9
$AUNITS
 70
0
  9
$AUPREC
 70
2
  9
$MENU
  1
.
  9
$ELEVATION
 40
0.0
  9
$PELEVATION
 40
0.0
  9
$THICKNESS
 40
0.0
  9
$LIMCHECK
 70
0
  9
$CHAMFERA
 40
0.0
  9
$CHAMFERB
 40
0.0
  9
$CHAMFERC
 40
0.0
  9
$CHAMFERD
 40
0.0
  9
$SKPOLY
 70
0
  9
$TDCREATE
 40
2461313.0992939817
  9
$TDUCREATE
 40
2458532.153996898
  9
$TDUPDATE
 40
2461313.0992939817
  9
$TDUUPDATE
 40
2458532.1544311
  9
$TDINDWG
 40
0.0
  9
$TDUSRTIMER
 40
0.0
  9
$USRTIMER
 70
1
  9
$ANGBASE
 50
0.0
  9
$ANGDIR
 70
0
  9
$PDMODE
 70
0
  9
$PDSIZE
 40
0.0
  9
$PLINEWID
 40
0.0
  9
$SPLFRAME
 70
0
  9
$SPLINETYPE
 70
6
  9
$SPLINESEGS
 70
8
  9
$HANDSEED
  5
AC
  9
$SURFTAB1
 70
6
  9
$SURFTAB2
 70
6
  9
$SURFTYPE
 70
6
  9
$SURFU
 70
6
  9
$SURFV
 70
6
  9
$UCSBASE
  2

  9
$UCSNAME
  2

  9
$UCSORG
 10
0.0
 20
0.0
 30
0.0
  9
$UCSXDIR
 10
1.0
 20
0.0
 30
0.0
  9
$UCSYDIR
 10
0.0
 20
1.0
 30
0.0
  9
$UCSORTHOREF
  2

  9
$UCSORTHOVIEW
 70
0
  9
$UCSORGTOP
 10
0.0
 20
0.0
 30
0.0
  9
$UCSORGBOTTOM
 10
0.0
 20
0.0
 30
0.0
  9
$UCSORGLEFT
 10
0.0
 20
0.0
 30
0.0
  9
$UCSORGRIGHT
 10
0.0
 20
0.0
 30
0.0
  9
$UCSORGFRONT
 10
0.0
 20
0.0
 30
0.0
  9
$UCSORGBACK
 10
0.0
 20
0.0
 30
0.0
  9
$PUCSBASE
  2

  9
$PUCSNAME
  2

  9
$PUCSORG
 10
0.0
 20
0.0
 30
0.0
  9
$PUCSXDIR
 10
1.0
 20
0.0
 30
0.0
  9
$PUCSYDIR
 10
0.0
 20
1.0
 30
0.0
  9
$PUCSORTHOREF
  2

  9
$PUCSORTHOVIEW
 70
0
  9
$PUCSORGTOP
 10
0.0
 20
0.0
 30
0.0
  9
$PUCSORGBOTTOM
 10
0.0
 20
0.0
 30
0.0
  9
$PUCSORGLEFT
 10
0.0
 20
0.0
 30
0.0
  9
$PUCSORGRIGHT
 10
0.0
 20
0.0
 30
0.0
  9
$PUCSORGFRONT
 10
0.0
 20
0.0
 30
0.0
  9
$PUCSORGBACK
 10
0.0
 20
0.0
 30
0.0
  9
$USERI1
 70
0
  9
$USERI2
 70
0
  9
$USERI3
 70
0
  9
$USERI4
 70
0
  9
$USERI5
 70
0
  9
$USERR1
 40
0.0
  9
$USERR2
 40
0.0
  9
$USERR3
 40
0.0
  9
$USERR4
 40
0.0
  9
$USERR5
 40
0.0
  9
$WORLDVIEW
 70
1
  9
$SHADEDGE
 70
3
  9
$SHADEDIF
 70
70
  9
$TILEMODE
 70
1
  9
$MAXACTVP
 70
64
  9
$PINSBASE
 10
0.0
 20
0.0
 30
0.0
  9
$PLIMCHECK
 70
0
  9
$PEXTMIN
 10
1e+20
 20
1e+20
 30
1e+20
  9
$PEXTMAX
 10
-1e+20
 20
-1e+20
 30
-1e+20
  9
$PLIMMIN
 10
0.0
 20
0.0
  9
$PLIMMAX
 10
420.0
 20
297.0
  9
$UNITMODE
 70
0
  9
$VISRETAIN
 70
1
  9
$PLINEGEN
 70
0
  9
$PSLTSCALE
 70
1
  9
$TREEDEPTH
 70
3020
  9
$CMLSTYLE
  2
Standard
  9
$CMLJUST
 70
0
  9
$CMLSCALE
 40
20.0
  9
$PROXYGRAPHICS
 70
1
  9
$MEASUREMENT
 70
1
  9
$CELWEIGHT
370
-1
  9
$ENDCAPS
280
0
  9
$JOINSTYLE
280
0
  9
$LWDISPLAY
290
0
  9
$INSUNITS
 70
4
  9
$HYPERLINKBASE
  1

  9
$STYLESHEET
  1

  9
$XEDIT
290
1
  9
$CEPSNTYPE
380
0
  9
$PSTYLEMODE
290
1
  9
$FINGERPRINTGUID
  2
{21670C54-AAF5-49A7-A10B-1A6AE5FA8595}
  9
$VERSIONGUID
  2
{CB4FB522-5259-4A02-A268-FD106700D6FD}
  9
$EXTNAMES
290
1
  9
$PSVPSCALE
 40
0.0
  9
$OLESTARTUP
290
0
  9
$SORTENTS
280
127
  9
$INDEXCTL
280
0
  9
$HIDETEXT
280
1
  9
$XCLIPFRAME
280
1
  9
$HALOGAP
280
0
  9
$OBSCOLOR
 70
257
  9
$OBSLTYPE
280
0
  9
$INTERSECTIONDISPLAY
280
0
  9
$INTERSECTIONCOLOR
 70
257
  9
$DIMASSOC
280
2
  9
$PROJECTNAME
  1

  9
$CAMERADISPLAY
290
0
  9
$LENSLENGTH
 40
50.0
  9
$CAMERAHEIGHT
 40
0.0
  9
$STEPSPERSEC
 40
24.0
  9
$STEPSIZE
 40
100.0
  9
$3DDWFPREC
 40
2.0
  9
$PSOLWIDTH
 40
0.005
  9
$PSOLHEIGHT
 40
0.08
  9
$LOFTANG1
 40
1.570796326795
  9
$LOFTANG2
 40
1.570796326795
  9
$LOFTMAG1
 40
0.0
  9
$LOFTMAG2
 40
0.0
  9
$LOFTPARAM
 70
7
  9
$LOFTNORMALS
280
1
  9
$LATITUDE
 40
37.795
  9
$LONGITUDE
 40
-122.394
  9
$NORTHDIRECTION
 40
0.0
  9
$TIMEZONE
 70
-8000
  9
$LIGHTGLYPHDISPLAY
280
1
  9
$TILEMODELIGHTSYNCH
280
1
  9
$CMATERIAL
347
20
  9
$SOLIDHIST
280
0
  9
$SHOWHIST
280
1
  9
$DWFFRAME
280
2
  9
$DGNFRAME
280
2
  9
$REALWORLDSCALE
290
1
  9
$INTERFERECOLOR
 62
256
  9
$CSHADOW
280
0
  9
$SHADOWPLANELOCATION
 40
0.0
  0
ENDSEC
  0
SECTION
  2
CLASSES
  0
CLASS
  1
ACDBDICTIONARYWDFLT
  2
AcDbDictionaryWithDefault
  3
ObjectDBX Classes
 90
0
 91
0
280
0
281
0
  0
CLASS
  1
SUN
  2
AcDbSun
  3
SCENEOE
 90
1153
 91
0
280
0
281
0
  0
CLASS
  1
VISUALSTYLE
  2
AcDbVisualStyle
  3
ObjectDBX Classes
 90
4095
 91
0
280
0
281
0
  0
CLASS
  1
MATERIAL
  2
AcDbMaterial
  3
ObjectDBX Classes
 90
1153
 91
0
280
0
281
0
  0
CLASS
  1
SCALE
  2
AcDbScale
  3
ObjectDBX Classes
 90
1153
 91
0
280
0
281
0
  0
CLASS
  1
TABLESTYLE
  2
AcDbTableStyle
  3
ObjectDBX Classes
 90
4095
 91
0
280
0
281
0
  0
CLASS
  1
MLEADERSTYLE
  2
AcDbMLeaderStyle
  3
ACDB_MLEADERSTYLE_CLASS
 90
4095
 91
0
280
0
281
0
  0
CLASS
  1
DICTIONARYVAR
  2
AcDbDictionaryVar
  3
ObjectDBX Classes
 90
0
 91
0
280
0
281
0
  0
CLASS
  1
CELLSTYLEMAP
  2
AcDbCellStyleMap
  3
ObjectDBX Classes
 90
1152
 91
0
280
0
281
0
  0
CLASS
  1
MENTALRAYRENDERSETTINGS
  2
AcDbMentalRayRenderSettings
  3
SCENEOE
 90
1024
 91
0
280
0
281
0
  0
CLASS
  1
ACDBDETAILVIEWSTYLE
  2
AcDbDetailViewStyle
  3
ObjectDBX Classes
 90
1025
 91
0
280
0
281
0
  0
CLASS
  1
ACDBSECTIONVIEWSTYLE
  2
AcDbSectionViewStyle
  3
ObjectDBX Classes
 90
1025
 91
0
280
0
281
0
  0
CLASS
  1
RASTERVARIABLES
  2
AcDbRasterVariables
  3
ISM
 90
0
 91
0
280
0
281
0
  0
CLASS
  1
ACDBPLACEHOLDER
  2
AcDbPlaceHolder
  3
ObjectDBX Classes
 90
0
 91
0
280
0
281
0
  0
CLASS
  1
LAYOUT
  2
AcDbLayout
  3
ObjectDBX Classes
 90
0
 91
0
280
0
281
0
  0
ENDSEC
  0
SECTION
  2
TABLES
  0
TABLE
  2
VPORT
  5
8
330
0
100
AcDbSymbolTable
 70
1
  0
VPORT
  5
23
330
8
100
AcDbSymbolTableRecord
100
AcDbViewportTableRecord
  2
*Active
 70
0
 10
0.0
 20
0.0
 11
1.0
 21
1.0
 12
0.0
 22
0.0
 13
0.0
 23
0.0
 14
0.5
 24
0.5
 15
0.5
 25
0.5
 16
0.0
 26
0.0
 36
1.0
 17
0.0
 27
0.0
 37
0.0
 40
1000.0
 41
1.34
 42
50.0
 43
0.0
 44
0.0
 50
0.0
 51
0.0
 71
0
 72
1000
 73
1
 74
3
 75
0
 76
0
 77
0
 78
0
281
0
 65
0
146
0.0
  0
ENDTAB
  0
TABLE
  2
LTYPE
  5
2
330
0
100
AcDbSymbolTable
 70
21
  0
LTYPE
  5
24
330
2
100
AcDbSymbolTableRecord
100
AcDbLinetypeTableRecord
  2
ByBlock
 70
0
  3

 72
65
 73
0
 40
0.0
  0
LTYPE
  5
25
330
2
100
AcDbSymbolTableRecord
100
AcDbLinetypeTableRecord
  2
ByLayer
 70
0
  3

 72
65
 73
0
 40
0.0
  0
LTYPE
  5
26
330
2
100
AcDbSymbolTableRecord
100
AcDbLinetypeTableRecord
  2
Continuous
 70
0
  3

 72
65
 73
0
 40
0.0
  0
LTYPE
  5
2F
330
2
100
AcDbSymbolTableRecord
100
AcDbLinetypeTableRecord
  2
CENTER
 70
0
  3
Center ____ _ ____ _ ____ _ ____ _ ____ _ ____
 72
65
 73
4
 40
5.08
 49
3.175
 74
0
 49
-0.635
 74
0
 49
0.635
 74
0
 49
-0.635
 74
0
  0
LTYPE
  5
30
330
2
100
AcDbSymbolTableRecord
100
AcDbLinetypeTableRecord
  2
CENTERX2
 70
0
  3
Center (2x) ________  __  ________  __  ________
 72
65
 73
4
 40
8.89
 49
6.35
 74
0
 49
-0.635
 74
0
 49
1.27
 74
0
 49
-0.635
 74
0
  0
LTYPE
  5
31
330
2
100
AcDbSymbolTableRecord
100
AcDbLinetypeTableRecord
  2
CENTER2
 70
0
  3
Center (.5x) ____ _ ____ _ ____ _ ____ _ ____
 72
65
 73
4
 40
2.54
 49
1.587
 74
0
 49
-0.318
 74
0
 49
0.318
 74
0
 49
-0.318
 74
0
  0
LTYPE
  5
32
330
2
100
AcDbSymbolTableRecord
100
AcDbLinetypeTableRecord
  2
DASHED
 70
0
  3
Dashed __ __ __ __ __ __ __ __ __ __ __ __ __ _
 72
65
 73
2
 40
1.524
 49
1.27
 74
0
 49
-0.254
 74
0
  0
LTYPE
  5
33
330
2
100
AcDbSymbolTableRecord
100
AcDbLinetypeTableRecord
  2
DASHEDX2
 70
0
  3
Dashed (2x) ____  ____  ____  ____  ____  ____
 72
65
 73
2
 40
3.048
 49
2.54
 74
0
 49
-0.508
 74
0
  0
LTYPE
  5
34
330
2
100
AcDbSymbolTableRecord
100
AcDbLinetypeTableRecord
  2
DASHED2
 70
0
  3
Dashed (.5x) _ _ _ _ _ _ _ _ _ _ _ _ _ _
 72
65
 73
2
 40
0.762
 49
0.635
 74
0
 49
-0.127
 74
0
  0
LTYPE
  5
35
330
2
100
AcDbSymbolTableRecord
100
AcDbLinetypeTableRecord
  2
PHANTOM
 70
0
  3
Phantom ______  __  __  ______  __  __  ______
 72
65
 73
6
 40
6.35
 49
3.175
 74
0
 49
-0.635
 74
0
 49
0.635
 74
0
 49
-0.635
 74
0
 49
0.635
 74
0
 49
-0.635
 74
0
  0
LTYPE
  5
36
330
2
100
AcDbSymbolTableRecord
100
AcDbLinetypeTableRecord
  2
PHANTOMX2
 70
0
  3
Phantom (2x)____________    ____    ____    ____________
 72
65
 73
6
 40
10.795
 49
6.35
 74
0
 49
-0.635
 74
0
 49
1.27
 74
0
 49
-0.635
 74
0
 49
1.27
 74
0
 49
-0.635
 74
0
  0
LTYPE
  5
37
330
2
100
AcDbSymbolTableRecord
100
AcDbLinetypeTableRecord
  2
PHANTOM2
 70
0
  3
Phantom (.5x) ___ _ _ ___ _ _ ___ _ _ ___ _ _ ___
 72
65
 73
6
 40
3.175
 49
1.587
 74
0
 49
-0.318
 74
0
 49
0.318
 74
0
 49
-0.318
 74
0
 49
0.318
 74
0
 49
-0.318
 74
0
  0
LTYPE
  5
38
330
2
100
AcDbSymbolTableRecord
100
AcDbLinetypeTableRecord
  2
DASHDOT
 70
0
  3
Dash dot __ . __ . __ . __ . __ . __ . __ . __
 72
65
 73
4
 40
3.556
 49
2.54
 74
0
 49
-0.508
 74
0
 49
0.0
 74
0
 49
-0.508
 74
0
  0
LTYPE
  5
39
330
2
100
AcDbSymbolTableRecord
100
AcDbLinetypeTableRecord
  2
DASHDOTX2
 70
0
  3
Dash dot (2x) ____  .  ____  .  ____  .  ____
 72
65
 73
4
 40
6.096
 49
5.08
 74
0
 49
-0.508
 74
0
 49
0.0
 74
0
 49
-0.508
 74
0
  0
LTYPE
  5
3A
330
2
100
AcDbSymbolTableRecord
100
AcDbLinetypeTableRecord
  2
DASHDOT2
 70
0
  3
Dash dot (.5x) _ . _ . _ . _ . _ . _ . _ . _
 72
65
 73
4
 40
1.778
 49
1.27
 74
0
 49
-0.254
 74
0
 49
0.0
 74
0
 49
-0.254
 74
0
  0
LTYPE
  5
3B
330
2
100
AcDbSymbolTableRecord
100
AcDbLinetypeTableRecord
  2
DOT
 70
0
  3
Dot .  .  .  .  .  .  .  .  .  .  .  .  .  .  .  .
 72
65
 73
2
 40
0.508
 49
0.0
 74
0
 49
-0.508
 74
0
  0
LTYPE
  5
3C
330
2
100
AcDbSymbolTableRecord
100
AcDbLinetypeTableRecord
  2
DOTX2
 70
0
  3
Dot (2x) .    .    .    .    .    .    .    . 
 72
65
 73
2
 40
1.016
 49
0.0
 74
0
 49
-1.016
 74
0
  0
LTYPE
  5
3D
330
2
100
AcDbSymbolTableRecord
100
AcDbLinetypeTableRecord
  2
DOT2
 70
0
  3
Dot (.5) . . . . . . . . . . . . . . . . . . . 
 72
65
 73
2
 40
0.254
 49
0.0
 74
0
 49
-0.254
 74
0
  0
LTYPE
  5
3E
330
2
100
AcDbSymbolTableRecord
100
AcDbLinetypeTableRecord
  2
DIVIDE
 70
0
  3
Divide __ . . __ . . __ . . __ . . __ . . __
 72
65
 73
6
 40
4.064
 49
2.54
 74
0
 49
-0.508
 74
0
 49
0.0
 74
0
 49
-0.508
 74
0
 49
0.0
 74
0
 49
-0.508
 74
0
  0
LTYPE
  5
3F
330
2
100
AcDbSymbolTableRecord
100
AcDbLinetypeTableRecord
  2
DIVIDEX2
 70
0
  3
Divide (2x) ____  . .  ____  . .  ____  . .  ____
 72
65
 73
6
 40
6.604
 49
5.08
 74
0
 49
-0.508
 74
0
 49
0.0
 74
0
 49
-0.508
 74
0
 49
0.0
 74
0
 49
-0.508
 74
0
  0
LTYPE
  5
40
330
2
100
AcDbSymbolTableRecord
100
AcDbLinetypeTableRecord
  2
DIVIDE2
 70
0
  3
Divide(.5x) _ . _ . _ . _ . _ . _ . _ . _
 72
65
 73
6
 40
2.032
 49
1.27
 74
0
 49
-0.254
 74
0
 49
0.0
 74
0
 49
-0.254
 74
0
 49
0.0
 74
0
 49
-0.254
 74
0
  0
ENDTAB
  0
TABLE
  2
LAYER
  5
1
330
0
100
AcDbSymbolTable
 70
4
  0
LAYER
  5
27
330
1
100
AcDbSymbolTableRecord
100
AcDbLayerTableRecord
  2
0
 70
0
 62
7
  6
Continuous
370
-3
390
13
347
21
  0
LAYER
  5
28
330
1
100
AcDbSymbolTableRecord
100
AcDbLayerTableRecord
  2
Defpoints
 70
0
 62
7
  6
Continuous
290
0
370
-3
390
13
347
21
  0
LAYER
  5
8A
330
1
100
AcDbSymbolTableRecord
100
AcDbLayerTableRecord
  2
OUTLINE
 70
0
 62
1
  6
Continuous
370
-3
390
13
347
21
  0
LAYER
  5
8C
330
1
100
AcDbSymbolTableRecord
100
AcDbLayerTableRecord
  2
CUTOUTS
 70
0
 62
2
  6
Continuous
370
-3
390
13
347
21
  0
ENDTAB
  0
TABLE
  2
STYLE
  5
5
330
0
100
AcDbSymbolTable
 70
26
  0
STYLE
  5
29
330
5
100
AcDbSymbolTableRecord
100
AcDbTextStyleTableRecord
  2
Standard
 70
0
 40
0.0
 41
1.0
 50
0.0
 71
0
 42
2.5
  3
txt
  4

  0
STYLE
  5
41
330
5
100
AcDbSymbolTableRecord
100
AcDbTextStyleTableRecord
  2
OpenSans-Light
 70
0
 40
0.0
 41
1.0
 50
0.0
 71
0
 42
2.5
  3
OpenSans-Light.ttf
  4

  0
STYLE
  5
42
330
5
100
AcDbSymbolTableRecord
100
AcDbTextStyleTableRecord
  2
OpenSans-Light-Italic
 70
0
 40
0.0
 41
1.0
 50
0.0
 71
0
 42
2.5
  3
OpenSans-LightItalic.ttf
  4

  0
STYLE
  5
43
330
5
100
AcDbSymbolTableRecord
100
AcDbTextStyleTableRecord
  2
OpenSans
 70
0
 40
0.0
 41
1.0
 50
0.0
 71
0
 42
2.5
  3
OpenSans-Regular.ttf
  4

  0
STYLE
  5
44
330
5
100
AcDbSymbolTableRecord
100
AcDbTextStyleTableRecord
  2
OpenSans-Italic
 70
0
 40
0.0
 41
1.0
 50
0.0
 71
0
 42
2.5
  3
OpenSans-Italic.ttf
  4

  0
STYLE
  5
45
330
5
100
AcDbSymbolTableRecord
100
AcDbTextStyleTableRecord
  2
OpenSans-SemiBold
 70
0
 40
0.0
 41
1.0
 50
0.0
 71
0
 42
2.5
  3
OpenSans-SemiBold.ttf
  4

  0
STYLE
  5
46
330
5
100
AcDbSymbolTableRecord
100
AcDbTextStyleTableRecord
  2
OpenSans-SemiBoldItalic
 70
0
 40
0.0
 41
1.0
 50
0.0
 71
0
 42
2.5
  3
OpenSans-SemiBoldItalic.ttf
  4

  0
STYLE
  5
47
330
5
100
AcDbSymbolTableRecord
100
AcDbTextStyleTableRecord
  2
OpenSans-Bold
 70
0
 40
0.0
 41
1.0
 50
0.0
 71
0
 42
2.5
  3
OpenSans-Bold.ttf
  4

  0
STYLE
  5
48
330
5
100
AcDbSymbolTableRecord
100
AcDbTextStyleTableRecord
  2
OpenSans-BoldItalic
 70
0
 40
0.0
 41
1.0
 50
0.0
 71
0
 42
2.5
  3
OpenSans-BoldItalic.ttf
  4

  0
STYLE
  5
49
330
5
100
AcDbSymbolTableRecord
100
AcDbTextStyleTableRecord
  2
OpenSans-ExtraBold
 70
0
 40
0.0
 41
1.0
 50
0.0
 71
0
 42
2.5
  3
OpenSans-ExtraBold.ttf
  4

  0
STYLE
  5
4A
330
5
100
AcDbSymbolTableRecord
100
AcDbTextStyleTableRecord
  2
OpenSans-ExtraBoldItalic
 70
0
 40
0.0
 41
1.0
 50
0.0
 71
0
 42
2.5
  3
OpenSans-ExtraBoldItalic.ttf
  4

  0
STYLE
  5
4B
330
5
100
AcDbSymbolTableRecord
100
AcDbTextStyleTableRecord
  2
OpenSansCondensed-Bold
 70
0
 40
0.0
 41
1.0
 50
0.0
 71
0
 42
2.5
  3
OpenSansCondensed-Bold.ttf
  4

  0
STYLE
  5
4C
330
5
100
AcDbSymbolTableRecord
100
AcDbTextStyleTableRecord
  2
OpenSansCondensed-Light
 70
0
 40
0.0
 41
1.0
 50
0.0
 71
0
 42
2.5
  3
OpenSansCondensed-Light.ttf
  4

  0
STYLE
  5
4D
330
5
100
AcDbSymbolTableRecord
100
AcDbTextStyleTableRecord
  2
OpenSansCondensed-Italic
 70
0
 40
0.0
 41
1.0
 50
0.0
 71
0
 42
2.5
  3
OpenSansCondensed-LightItalic.ttf
  4

  0
STYLE
  5
4E
330
5
100
AcDbSymbolTableRecord
100
AcDbTextStyleTableRecord
  2
LiberationSans
 70
0
 40
0.0
 41
1.0
 50
0.0
 71
0
 42
2.5
  3
LiberationSans-Regular.ttf
  4

  0
STYLE
  5
4F
330
5
100
AcDbSymbolTableRecord
100
AcDbTextStyleTableRecord
  2
LiberationSans-Bold
 70
0
 40
0.0
 41
1.0
 50
0.0
 71
0
 42
2.5
  3
LiberationSans-Bold.ttf
  4

  0
STYLE
  5
50
330
5
100
AcDbSymbolTableRecord
100
AcDbTextStyleTableRecord
  2
LiberationSans-BoldItalic
 70
0
 40
0.0
 41
1.0
 50
0.0
 71
0
 42
2.5
  3
LiberationSans-BoldItalic.ttf
  4

  0
STYLE
  5
51
330
5
100
AcDbSymbolTableRecord
100
AcDbTextStyleTableRecord
  2
LiberationSans-Italic
 70
0
 40
0.0
 41
1.0
 50
0.0
 71
0
 42
2.5
  3
LiberationSans-Italic.ttf
  4

  0
STYLE
  5
52
330
5
100
AcDbSymbolTableRecord
100
AcDbTextStyleTableRecord
  2
LiberationSerif
 70
0
 40
0.0
 41
1.0
 50
0.0
 71
0
 42
2.5
  3
LiberationSerif-Regular.ttf
  4

  0
STYLE
  5
53
330
5
100
AcDbSymbolTableRecord
100
AcDbTextStyleTableRecord
  2
LiberationSerif-Bold
 70
0
 40
0.0
 41
1.0
 50
0.0
 71
0
 42
2.5
  3
LiberationSerif-Bold.ttf
  4

  0
STYLE
  5
54
330
5
100
AcDbSymbolTableRecord
100
AcDbTextStyleTableRecord
  2
LiberationSerif-BoldItalic
 70
0
 40
0.0
 41
1.0
 50
0.0
 71
0
 42
2.5
  3
LiberationSerif-BoldItalic.ttf
  4

  0
STYLE
  5
55
330
5
100
AcDbSymbolTableRecord
100
AcDbTextStyleTableRecord
  2
LiberationSerif-Italic
 70
0
 40
0.0
 41
1.0
 50
0.0
 71
0
 42
2.5
  3
LiberationSerif-Italic.ttf
  4

  0
STYLE
  5
56
330
5
100
AcDbSymbolTableRecord
100
AcDbTextStyleTableRecord
  2
LiberationMono
 70
0
 40
0.0
 41
1.0
 50
0.0
 71
0
 42
2.5
  3
LiberationMono-Regular.ttf
  4

  0
STYLE
  5
57
330
5
100
AcDbSymbolTableRecord
100
AcDbTextStyleTableRecord
  2
LiberationMono-Bold
 70
0
 40
0.0
 41
1.0
 50
0.0
 71
0
 42
2.5
  3
LiberationMono-Bold.ttf
  4

  0
STYLE
  5
58
330
5
100
AcDbSymbolTableRecord
100
AcDbTextStyleTableRecord
  2
LiberationMono-BoldItalic
 70
0
 40
0.0
 41
1.0
 50
0.0
 71
0
 42
2.5
  3
LiberationMono-BoldItalic.ttf
  4

  0
STYLE
  5
59
330
5
100
AcDbSymbolTableRecord
100
AcDbTextStyleTableRecord
  2
LiberationMono-Italic
 70
0
 40
0.0
 41
1.0
 50
0.0
 71
0
 42
2.5
  3
LiberationMono-Italic.ttf
  4

  0
ENDTAB
  0
TABLE
  2
VIEW
  5
7
330
0
100
AcDbSymbolTable
 70
0
  0
ENDTAB
  0
TABLE
  2
UCS
  5
6
330
0
100
AcDbSymbolTable
 70
0
  0
ENDTAB
  0
TABLE
  2
APPID
  5
3
330
0
100
AcDbSymbolTable
 70
3
  0
APPID
  5
2A
330
3
100
AcDbSymbolTableRecord
100
AcDbRegAppTableRecord
  2
ACAD
 70
0
  0
APPID
  5
A9
330
3
100
AcDbSymbolTableRecord
100
AcDbRegAppTableRecord
  2
HATCHBACKGROUNDCOLOR
 70
0
  0
APPID
  5
AA
330
3
100
AcDbSymbolTableRecord
100
AcDbRegAppTableRecord
  2
EZDXF
 70
0
  0
ENDTAB
  0
TABLE
  2
DIMSTYLE
  5
4
330
0
100
AcDbSymbolTable
 70
12
100
AcDbDimStyleTable
  0
DIMSTYLE
105
2B
330
4
100
AcDbSymbolTableRecord
100
AcDbDimStyleTableRecord
  2
Standard
 70
0
 40
1.0
 41
2.5
 42
0.625
 43
3.75
 44
1.25
 45
0.0
 46
0.0
 47
0.0
 48
0.0
 49
2.5
140
2.5
141
2.5
142
0.0
143
0.03937007874
144
1.0
145
0.0
146
1.0
147
0.625
148
0.0
 69
0
 70
0
 71
0
 72
0
 73
0
 74
0
 75
0
 76
0
 77
1
 78
8
 79
3
170
0
171
3
172
1
173
0
174
0
175
0
176
0
177
0
178
0
179
2
271
2
272
2
273
2
274
3
275
0
276
0
277
2
278
44
279
0
280
0
281
0
282
0
283
0
284
8
285
0
286
0
288
0
289
3
290
0
371
-2
372
-2
  0
DIMSTYLE
105
73
330
4
100
AcDbSymbolTableRecord
100
AcDbDimStyleTableRecord
  2
EZDXF
 70
0
 40
1.0
 41
0.175
 42
0.125
 43
3.75
 44
0.375
 45
0.0
 46
0.0
 47
0.0
 48
0.0
 49
2.5
140
0.25
141
2.5
142
0.0
143
0.03937007874
144
100.0
145
0.0
146
0.5
147
0.1
148
0.0
 69
0
 70
0
 71
0
 72
0
 73
0
 74
0
 75
0
 76
0
 77
1
 78
12
 79
3
170
0
171
3
172
1
173
0
174
0
175
0
176
0
177
0
178
0
179
2
271
2
272
2
273
2
274
3
275
0
276
0
277
2
278
46
279
2
280
0
281
0
282
0
283
0
284
8
285
0
286
0
288
1
289
3
290
0
340
4C
342
74
371
-2
372
-2
  0
DIMSTYLE
105
7C
330
4
100
AcDbSymbolTableRecord
100
AcDbDimStyleTableRecord
  2
EZ_M_100_H25_CM
 70
0
 40
1.0
 41
0.25
 42
0.125
 43
3.75
 44
0.375
 45
0.0
 46
0.0
 47
0.0
 48
0.0
 49
2.5
140
0.25
141
2.5
142
0.125
143
0.03937007874
144
100.0
145
0.0
146
0.5
147
0.1
148
0.0
 69
0
 70
0
 71
0
 72
0
 73
0
 74
0
 75
0
 76
0
 77
1
 78
12
 79
3
170
0
171
3
172
1
173
0
174
0
175
0
176
0
177
0
178
0
179
2
271
2
272
2
273
2
274
3
275
0
276
0
277
2
278
46
279
2
280
0
281
0
282
0
283
0
284
8
285
0
286
0
288
1
289
3
290
0
340
4C
371
-2
372
-2
  0
DIMSTYLE
105
7D
330
4
100
AcDbSymbolTableRecord
100
AcDbDimStyleTableRecord
  2
EZ_M_50_H25_CM
 70
0
 40
1.0
 41
0.125
 42
0.0625
 43
3.75
 44
0.1875
 45
0.0
 46
0.0
 47
0.0
 48
0.0
 49
2.5
140
0.125
141
2.5
142
0.0625
143
0.03937007874
144
100.0
145
0.0
146
0.5
147
0.05
148
0.0
 69
0
 70
0
 71
0
 72
0
 73
0
 74
0
 75
0
 76
0
 77
1
 78
12
 79
3
170
0
171
3
172
1
173
0
174
0
175
0
176
0
177
0
178
0
179
2
271
2
272
2
273
2
274
3
275
0
276
0
277
2
278
46
279
2
280
0
281
0
282
0
283
0
284
8
285
0
286
0
288
1
289
3
290
0
340
4C
371
-2
372
-2
  0
DIMSTYLE
105
7E
330
4
100
AcDbSymbolTableRecord
100
AcDbDimStyleTableRecord
  2
EZ_M_25_H25_CM
 70
0
 40
1.0
 41
0.0625
 42
0.03125
 43
3.75
 44
0.09375
 45
0.0
 46
0.0
 47
0.0
 48
0.0
 49
2.5
140
0.0625
141
2.5
142
0.03125
143
0.03937007874
144
100.0
145
0.0
146
0.5
147
0.025
148
0.0
 69
0
 70
0
 71
0
 72
0
 73
0
 74
0
 75
0
 76
0
 77
1
 78
12
 79
3
170
0
171
3
172
1
173
0
174
0
175
0
176
0
177
0
178
0
179
2
271
2
272
2
273
2
274
3
275
0
276
0
277
2
278
46
279
2
280
0
281
0
282
0
283
0
284
8
285
0
286
0
288
1
289
3
290
0
340
4C
371
-2
372
-2
  0
DIMSTYLE
105
7F
330
4
100
AcDbSymbolTableRecord
100
AcDbDimStyleTableRecord
  2
EZ_M_20_H25_CM
 70
0
 40
1.0
 41
0.05
 42
0.025
 43
3.75
 44
0.07500000000000001
 45
0.0
 46
0.0
 47
0.0
 48
0.0
 49
2.5
140
0.05
141
2.5
142
0.025
143
0.03937007874
144
100.0
145
0.0
146
0.5
147
0.020000000000000004
148
0.0
 69
0
 70
0
 71
0
 72
0
 73
0
 74
0
 75
0
 76
0
 77
1
 78
12
 79
3
170
0
171
3
172
1
173
0
174
0
175
0
176
0
177
0
178
0
179
2
271
2
272
2
273
2
274
3
275
0
276
0
277
2
278
46
279
2
280
0
281
0
282
0
283
0
284
8
285
0
286
0
288
1
289
3
290
0
340
4C
371
-2
372
-2
  0
DIMSTYLE
105
80
330
4
100
AcDbSymbolTableRecord
100
AcDbDimStyleTableRecord
  2
EZ_M_10_H25_CM
 70
0
 40
1.0
 41
0.025
 42
0.0125
 43
3.75
 44
0.037500000000000006
 45
0.0
 46
0.0
 47
0.0
 48
0.0
 49
2.5
140
0.025
141
2.5
142
0.0125
143
0.03937007874
144
100.0
145
0.0
146
0.5
147
0.010000000000000002
148
0.0
 69
0
 70
0
 71
0
 72
0
 73
0
 74
0
 75
0
 76
0
 77
1
 78
12
 79
3
170
0
171
3
172
1
173
0
174
0
175
0
176
0
177
0
178
0
179
2
271
2
272
2
273
2
274
3
275
0
276
0
277
2
278
46
279
2
280
0
281
0
282
0
283
0
284
8
285
0
286
0
288
1
289
3
290
0
340
4C
371
-2
372
-2
  0
DIMSTYLE
105
81
330
4
100
AcDbSymbolTableRecord
100
AcDbDimStyleTableRecord
  2
EZ_M_5_H25_CM
 70
0
 40
1.0
 41
0.0125
 42
0.00625
 43
3.75
 44
0.018750000000000003
 45
0.0
 46
0.0
 47
0.0
 48
0.0
 49
2.5
140
0.0125
141
2.5
142
0.00625
143
0.03937007874
144
100.0
145
0.0
146
0.5
147
0.005000000000000001
148
0.0
 69
0
 70
0
 71
0
 72
0
 73
0
 74
0
 75
0
 76
0
 77
1
 78
12
 79
3
170
0
171
3
172
1
173
0
174
0
175
0
176
0
177
0
178
0
179
2
271
2
272
2
273
2
274
3
275
0
276
0
277
2
278
46
279
2
280
0
281
0
282
0
283
0
284
8
285
0
286
0
288
1
289
3
290
0
340
4C
371
-2
372
-2
  0
DIMSTYLE
105
82
330
4
100
AcDbSymbolTableRecord
100
AcDbDimStyleTableRecord
  2
EZ_M_1_H25_CM
 70
0
 40
1.0
 41
0.0025
 42
0.00125
 43
3.75
 44
0.00375
 45
0.0
 46
0.0
 47
0.0
 48
0.0
 49
2.5
140
0.0025
141
2.5
142
0.00125
143
0.03937007874
144
100.0
145
0.0
146
0.5
147
0.001
148
0.0
 69
0
 70
0
 71
0
 72
0
 73
0
 74
0
 75
0
 76
0
 77
1
 78
12
 79
3
170
0
171
3
172
1
173
0
174
0
175
0
176
0
177
0
178
0
179
2
271
2
272
2
273
2
274
3
275
0
276
0
277
2
278
46
279
2
280
0
281
0
282
0
283
0
284
8
285
0
286
0
288
1
289
3
290
0
340
4C
371
-2
372
-2
  0
DIMSTYLE
105
83
330
4
100
AcDbSymbolTableRecord
100
AcDbDimStyleTableRecord
  2
EZ_RADIUS
 70
0
 40
1.0
 41
0.25
 42
0.125
 43
3.75
 44
0.375
 45
0.0
 46
0.0
 47
0.0
 48
0.0
 49
2.5
140
0.25
141
0.0
142
0.0
143
0.03937007874
144
100.0
145
0.0
146
0.5
147
0.1
148
0.0
 69
0
 70
0
 71
0
 72
0
 73
0
 74
0
 75
0
 76
0
 77
1
 78
12
 79
3
170
0
171
3
172
0
173
0
174
0
175
0
176
0
177
0
178
0
179
2
271
2
272
2
273
2
274
3
275
0
276
0
277
2
278
46
279
1
280
0
281
0
282
0
283
0
284
8
285
0
286
0
288
1
289
3
290
0
340
4C
342
84
371
-2
372
-2
  0
DIMSTYLE
105
88
330
4
100
AcDbSymbolTableRecord
100
AcDbDimStyleTableRecord
  2
EZ_RADIUS_INSIDE
 70
0
 40
1.0
 41
0.25
 42
0.125
 43
3.75
 44
0.375
 45
0.0
 46
0.0
 47
0.0
 48
0.0
 49
2.5
140
0.25
141
0.0
142
0.0
143
0.03937007874
144
100.0
145
0.0
146
0.5
147
0.1
148
0.0
 69
0
 70
0
 71
0
 72
0
 73
0
 74
0
 75
0
 76
0
 77
0
 78
12
 79
3
170
0
171
3
172
0
173
0
174
1
175
0
176
0
177
0
178
0
179
2
271
2
272
2
273
2
274
3
275
0
276
0
277
2
278
46
279
0
280
0
281
0
282
0
283
0
284
8
285
0
286
0
288
1
289
0
290
0
340
4C
342
84
371
-2
372
-2
  0
DIMSTYLE
105
89
330
4
100
AcDbSymbolTableRecord
100
AcDbDimStyleTableRecord
  2
EZ_CURVED
 70
0
 40
1.0
 41
0.25
 42
0.125
 43
3.75
 44
0.375
 45
0.0
 46
0.0
 47
0.0
 48
0.0
 49
2.5
140
0.25
141
2.5
142
0.0
143
0.03937007874
144
100.0
145
0.0
146
0.5
147
0.1
148
0.0
 69
0
 70
0
 71
0
 72
0
 73
0
 74
0
 75
0
 76
0
 77
1
 78
12
 79
2
 90
2
170
0
171
3
172
1
173
0
174
0
175
0
176
0
177
0
178
0
179
2
271
2
272
2
273
2
274
3
275
0
276
0
277
2
278
46
279
2
280
0
281
0
282
0
283
0
284
8
285
0
286
0
288
1
289
3
290
0
340
4C
371
-2
372
-2
  0
ENDTAB
  0
TABLE
  2
BLOCK_RECORD
  5
9
330
0
100
AcDbSymbolTable
 70
5
  0
BLOCK_RECORD
  5
17
330
9
100
AcDbSymbolTableRecord
100
AcDbBlockTableRecord
  2
*Model_Space
340
1A
 70
0
280
1
281
0
  0
BLOCK_RECORD
  5
1B
330
9
100
AcDbSymbolTableRecord
100
AcDbBlockTableRecord
  2
*Paper_Space
340
1E
 70
0
280
1
281
0
  0
BLOCK_RECORD
  5
74
330
9
100
AcDbSymbolTableRecord
100
AcDbBlockTableRecord
  2
_ARCHTICK
340
0
 70
0
280
1
281
0
  0
BLOCK_RECORD
  5
78
330
9
100
AcDbSymbolTableRecord
100
AcDbBlockTableRecord
  2
_CLOSEDFILLED
340
0
 70
0
280
1
281
0
  0
BLOCK_RECORD
  5
84
330
9
100
AcDbSymbolTableRecord
100
AcDbBlockTableRecord
  2
_CLOSEDBLANK
340
0
 70
0
280
1
281
0
  0
ENDTAB
  0
ENDSEC
  0
SECTION
  2
BLOCKS
  0
BLOCK
  5
18
330
17
100
AcDbEntity
  8
0
100
AcDbBlockBegin
  2
*Model_Space
 70
0
 10
0.0
 20
0.0
 30
0.0
  3
*Model_Space
  1

  0
ENDBLK
  5
19
330
17
100
AcDbEntity
  8
0
100
AcDbBlockEnd
  0
BLOCK
  5
1C
330
1B
100
AcDbEntity
  8
0
100
AcDbBlockBegin
  2
*Paper_Space
 70
0
 10
0.0
 20
0.0
 30
0.0
  3
*Paper_Space
  1

  0
ENDBLK
  5
1D
330
1B
100
AcDbEntity
  8
0
100
AcDbBlockEnd
  0
BLOCK
  5
75
330
74
100
AcDbEntity
  8
0
100
AcDbBlockBegin
  2
_ARCHTICK
 70
0
 10
0.0
 20
0.0
 30
0.0
  3
_ARCHTICK
  1

  0
LWPOLYLINE
  5
77
330
74
100
AcDbEntity
  8
0
  6
BYBLOCK
 62
0
100
AcDbPolyline
 90
2
 70
0
 43
0.15
 10
-0.5
 20
-0.5
 10
0.5
 20
0.5
  0
ENDBLK
  5
76
330
74
100
AcDbEntity
  8
0
100
AcDbBlockEnd
  0
BLOCK
  5
79
330
78
100
AcDbEntity
  8
0
100
AcDbBlockBegin
  2
_CLOSEDFILLED
 70
0
 10
0.0
 20
0.0
 30
0.0
  3
_CLOSEDFILLED
  1

  0
SOLID
  5
7B
330
78
100
AcDbEntity
  8
0
  6
BYBLOCK
 62
0
100
AcDbTrace
 10
-1.0
 20
0.16439898372402537
 30
0.0
 11
0.0
 21
0.0
 31
0.0
 12
-1.0
 22
-0.16439898372402537
 32
0.0
 13
-1.0
 23
-0.16439898372402537
 33
0.0
  0
ENDBLK
  5
7A
330
78
100
AcDbEntity
  8
0
100
AcDbBlockEnd
  0
BLOCK
  5
85
330
84
100
AcDbEntity
  8
0
100
AcDbBlockBegin
  2
_CLOSEDBLANK
 70
0
 10
0.0
 20
0.0
 30
0.0
  3
_CLOSEDBLANK
  1

  0
LWPOLYLINE
  5
87
330
84
100
AcDbEntity
  8
0
  6
BYBLOCK
 62
0
100
AcDbPolyline
 90
3
 70
1
 10
-1.0
 20
0.16439898372402537
 10
0.0
 20
0.0
 10
-1.0
 20
-0.16439898372402537
  0
ENDBLK
  5
86
330
84
100
AcDbEntity
  8
0
100
AcDbBlockEnd
  0
ENDSEC
  0
SECTION
  2
ENTITIES
  0
LWPOLYLINE
  5
8B
330
17
100
AcDbEntity
  8
OUTLINE
100
AcDbPolyline
 90
1138
 70
1
 10
287.65410853528186
 20
-43.33389709449712
 10
287.6039011463959
 20
-43.331430563646
 10
287.59654579890645
 20
-43.331250000000004
 10
255.52223241335676
 20
-43.331250000000004
 10
255.51628837782064
 20
-43.331214667193144
 10
255.49726880822968
 20
-43.330988545219036
 10
255.49132561277145
 20
-43.33088255179208
 10
255.4865781114204
 20
-43.330769650589865
 10
255.48063659599921
 20
-43.330593011523
 10
255.4616277782646
 20
-43.32991477342854
 10
255.45568878260167
 20
-43.32966751368637
 10
255.0450048950971
 20
-43.31012336257107
 10
255.03313782003477
 20
-43.309417130818886
 10
254.9951954110964
 20
-43.30670609528097
 10
254.98334848057237
 20
-43.305717929821974
 10
254.97393252014345
 20
-43.30481969797843
 10
254.96211243128553
 20
-43.30355015742739
 10
254.92434178473394
 20
-43.29903857580093
 10
254.912555219497
 20
-43.29748837783542
 10
254.52677192594595
 20
-43.24207602363083
 10
254.51502554733327
 20
-43.24024604458538
 10
254.4775120588288
 20
-43.23394411710594
 10
254.4658125071262
 20
-43.231835391476736
 10
254.4565243989602
 20
-43.2300470464483
 10
254.44487828798222
 20
-43.22766076630838
 10
254.4077067717782
 20
-43.219582741004984
 10
254.3961206851287
 20
-43.21692025533028
 10
254.0173429914481
 20
-43.125122993107716
 10
254.00582347879902
 20
-43.1221858070145
 10
253.96907797598237
 20
-43.112349947495865
 10
253.95763154937094
 20
-43.109139721389894
 10
253.94855524393122
 20
-43.106477427113376
 10
253.93718837407928
 20
-43.102995975751426
 10
253.90095196256382
 20
-43.09142451991406
 10
253.8896710752187
 20
-43.087673811377684
 10
253.52132255943252
 20
-42.96032134968352
 10
253.51013403173553
 20
-42.956303504266764
 10
253.47448863843022
 20
-42.943022614017146
 10
253.4633987953115
 20
-42.93873990302794
 10
253.45461632868563
 20
-42.93522772262108
 10
253.44363143928777
 20
-42.93068256709689
 10
253.40865765486834
 20
-42.91572226920202
 10
253.39778392900394
 20
-42.91091723854187
 10
253.04319390512597
 20
-42.74916065120221
 10
253.03243748976595
 20
-42.74409846171366
 10
252.99821438646777
 20
-42.72749257991371
 10
252.98758136226627
 20
-42.722176093277206
 10
252.97917211468203
 20
-42.71784577154389
 10
252.9686684925408
 20
-42.71227799319588
 10
252.93527344538376
 20
-42.69406407173172
 10
252.92490516305202
 20
-42.688248149164714
 10
252.58727858911857
 20
-42.49354947131764
 10
252.57705150783724
 20
-42.48748869230121
 10
252.54456001968953
 20
-42.4677079110312
 10
252.53447992087834
 20
-42.46140570175375
 10
252.52651989922768
 20
-42.4562963782594
 10
252.51659248121646
 20
-42.4497563013911
 10
252.48507801208874
 20
-42.42845338268673
 10
252.4753088868953
 20
-42.42167913536491
 10
252.15769739698624
 20
-42.195798148871475
 10
252.1480920871458
 20
-42.18879356061197
 10
252.11762588810728
 20
-42.16601666824617
 10
252.10818982354843
 20
-42.15878569877692
 10
252.10075097439986
 20
-42.152943554086
 10
252.0914894893771
 20
-42.14549029111021
 10
252.06214044146168
 20
-42.12129092136229
 10
252.0530587715375
 20
-42.113619578245775
 10
251.75833309361576
 20
-41.858597905921336
 10
251.74943637270354
 20
-41.850712819312676
 10
251.72127083117957
 20
-41.82514568454256
 10
251.71256408863948
 20
-41.81705131192008
 10
251.70571364794918
 20
-41.81052915019315
 10
251.697201805745
 20
-41.8022300673449
 10
251.67028345008922
 20
-41.775352972291124
 10
251.66197132000832
 20
-41.76685387073058
 10
251.39279532887667
 20
-41.48499652315942
 10
251.38468760980686
 20
-41.476302207470226
 10
251.35907729973482
 20
-41.44817591856226
 10
251.3511785750096
 20
-41.439291303683966
 10
251.34497846041032
 20
-41.4321480754079
 10
251.33729319521788
 20
-41.423078183857186
 10
251.3130488330839
 20
-41.39376629182632
 10
251.30558137194262
 20
-41.38451625085775
 10
251.0643880118404
 20
-41.07837079258013
 10
251.05714257614278
 20
-41.06894583128732
 10
251.03431897602923
 20
-41.0385146073951
 10
251.02729966165606
 20
-41.02892005375551
 10
251.02180591281572
 20
-41.021220322920925
 10
251.0150166878195
 20
-41.01146160078231
 10
250.99366545160794
 20
-40.97997984698826
 10
250.98711015397177
 20
-40.970062473005356
 10
250.77607944843467
 20
-40.64239599638277
 10
250.76976178390007
 20
-40.63232557689522
 10
250.7499311846041
 20
-40.59986447030186
 10
250.74385472457885
 20
-40.58964669816882
 10
250.73911699668608
 20
-40.58146005870842
 10
250.7332851762219
 20
-40.5711007100851
 10
250.71502004884658
 20
-40.537733642013514
 10
250.70943616470103
 20
-40.52723857309181
 10
250.53047551244353
 20
-40.1810126879747
 10
250.5251427212139
 20
-40.170387831669096
 10
250.50848436138915
 20
-40.13619024172965
 10
250.503405677728
 20
-40.12544160432249
 10
250.49946679268396
 20
-40.11684205108641
 10
250.49464508759738
 20
-40.10597570883783
 10
250.4796311582117
 20
-40.07102491436732
 10
250.47506915743253
 20
-40.06004701007245
 10
250.3297960923443
 20
-39.69839107532059
 10
250.32549637479426
 20
-39.6873078148433
 10
250.31216082084322
 20
-39.65168283609911
 10
250.3081258171741
 20
-39.64050048486195
 10
250.30502137654824
 20
-39.631565744818246
 10
250.30125336776686
 20
-39.620290624257585
 10
250.2896263396065
 20
-39.584072005759815
 10
250.28612745578744
 20
-39.572710489758684
 10
250.17585502687155
 20
-39.19889332856574
 10
250.17262724595096
 20
-39.187451839844876
 10
250.1627350311314
 20
-39.15072146827458
 10
250.15978017778968
 20
-39.139206474763675
 10
250.1575382410345
 20
-39.13001730446194
 10
250.15485798566513
 20
-39.118435315644874
 10
250.14672294949656
 20
-39.081276234705726
 10
250.14431880726067
 20
-39.069633797936106
 10
250.12869948785362
 20
-38.98917687039947
 10
250.12711461858652
 20
-38.981966843491904
 10
250.115076912935
 20
-38.9329885119141
 10
250.11086108649533
 20
-38.91887394683683
 10
250.09939744552096
 20
-38.886415372154694
 10
250.09381396900412
 20
-38.872783830427004
 10
250.07921378397606
 20
-38.841609983505485
 10
250.07231678970376
 20
-38.82859362418659
 10
250.05472161076838
 20
-38.79900673835926
 10
250.04657796573954
 20
-38.78673175625966
 10
250.02615837978638
 20
-38.75901867912514
 10
250.01684703739429
 20
-38.7476040813337
 10
249.99380101420107
 20
-38.722033493742636
 10
249.98341224877205
 20
-38.71158994584149
 10
249.9579632216693
 20
-38.68840975701012
 10
249.94659775324715
 20
-38.67903851016428
 10
249.91899245290986
 20
-38.65847345417035
 10
249.90676047076388
 20
-38.65026536348614
 10
249.87726653313635
 20
-38.632514820452826
 10
249.86428662746687
 20
-38.625549464129996
 10
249.83318999900678
 20
-38.61078552721649
 10
249.8195880112018
 20
-38.60513043502986
 10
249.78719017660305
 20
-38.5934962419724
 10
249.77309797919443
 20
-38.589206240564536
 10
249.73971303846508
 20
-38.58081458594277
 10
249.72526725661223
 20
-38.57793126727476
 10
249.691218879846
 20
-38.57286350895775
 10
249.67655956674216
 20
-38.57141482707119
 10
249.6261847936132
 20
-38.56893177376055
 10
249.6188048710598
 20
-38.56875
 10
235.73840470324956
 20
-38.56875
 10
235.73196216222465
 20
-38.568708491942225
 10
235.71134774241588
 20
-38.56844285139913
 10
235.70490627106034
 20
-38.56831833411748
 10
235.69976207674793
 20
-38.56818573436122
 10
235.69332274455374
 20
-38.56797822852957
 10
235.67272201480927
 20
-38.56718148331254
 10
235.66628589091312
 20
-38.56689102338355
 10
235.2212811899074
 20
-38.543934368224306
 10
235.2084228407151
 20
-38.543104792742184
 10
235.16731715713183
 20
-38.53992045712057
 10
235.1544844540846
 20
-38.53875982283918
 10
235.14429665177957
 20
-38.53770589268757
 10
235.13149811709297
 20
-38.5362149703857
 10
235.09061107471186
 20
-38.53091714238464
 10
235.07785520791026
 20
-38.529096922185836
 10
234.66050098703136
 20
-38.46404413919515
 10
234.64779625930296
 20
-38.461895829910084
 10
234.60723645265284
 20
-38.45449858037209
 10
234.59459130122502
 20
-38.45202360869594
 10
234.58456603037726
 20
-38.44992693776193
 10
234.57198885291177
 20
-38.44712694732666
 10
234.53186400739597
 20
-38.43764992308334
 10
234.51936315641393
 20
-38.434526773366514
 10
234.11091841851922
 20
-38.32687313271171
 10
234.09850219585235
 20
-38.32342889780119
 10
234.05891888163137
 20
-38.311897269491425
 10
234.04659553290995
 20
-38.30813423670828
 10
234.03683922985
 20
-38.305017084935145
 10
234.0246169390272
 20
-38.30093775331473
 10
233.9856802879744
 20
-38.28738214853272
 10
233.97356717188939
 20
-38.28298922716444
 10
233.57836829448277
 20
-38.1338776663894
 10
233.56637239747286
 20
-38.12917407261847
 10
233.5281858239474
 20
-38.11363049456794
 10
233.51631511250417
 20
-38.10861935205741
 10
233.5069313579839
 20
-38.104514813632825
 10
233.49519371546225
 20
-38.09919945028895
 10
233.45785864164478
 20
-38.081709182160196
 10
233.44626186303023
 20
-38.0760931279235
 10
233.0685045949188
 20
-37.88710673516189
 10
233.05705638164685
 20
-37.881193719661226
 10
233.0206719681636
 20
-37.861803214983524
 10
233.00937992300823
 20
-37.85559716506045
 10
233.00046834250512
 20
-37.85054881706217
 10
232.9893399645295
 20
-37.84405385416328
 10
232.95400284708694
 20
-37.82281461342641
 10
232.94304552666125
 20
-37.81603505086493
 10
232.58674044251364
 20
-37.58918025750405
 10
232.57596145640983
 20
-37.58212059759702
 10
232.54176548913486
 20
-37.55908903146886
 10
232.5311719956915
 20
-37.55175396254555
 10
232.5228272017042
 20
-37.545815402292014
 10
232.51242623607575
 20
-37.5382097955824
 10
232.47946224223938
 20
-37.51344707508217
 10
232.4692607117204
 20
-37.50557598147938
 10
232.13819063258526
 20
-37.2432612602733
 10
232.12819531202638
 20
-37.23512990698154
 10
232.09655084282335
 20
-37.20870180101385
 10
232.0867683701307
 20
-37.20031558807611
 10
232.07907895769654
 20
-37.19354986409411
 10
232.0695158294224
 20
-37.184914360804754
 10
232.0392749314357
 20
-37.156891061477644
 10
232.0299374984678
 20
-37.14801200268724
 10
231.7276173303047
 20
-36.8530222974741
 10
231.71851179364444
 20
-36.8439055797772
 10
231.68975478562297
 20
-36.81436151597638
 10
231.6808871922698
 20
-36.80501319379778
 10
231.6739347983698
 20
-36.79749213644945
 10
231.6653366901535
 20
-36.787947643071746
 10
231.63821960543393
 20
-36.75705688405983
 10
231.62986952911504
 20
-36.747294645152586
 10
231.32867246888495
 20
-36.38586091982401
 10
231.3025290753046
 20
-36.354479164026586
 10
231.29206795416266
 20
-36.343162386932526
 10
231.26628822037605
 20
-36.31800774337571
 10
231.25471812291948
 20
-36.30782750054096
 10
231.2264867992976
 20
-36.28545914939156
 10
231.21393056297637
 20
-36.27652352245285
 10
231.1835473759336
 20
-36.257178944098804
 10
231.17013830784126
 20
-36.249582800851364
 10
231.13792582970248
 20
-36.233467372878785
 10
231.12380629127952
 20
-36.2272913600825
 10
231.0901065155942
 20
-36.214576176822916
 10
231.07542641120457
 20
-36.20988586399165
 10
231.04059712186753
 20
-36.20070592004653
 10
231.02551230729452
 20
-36.19755110330986
 10
230.98992328002484
 20
-36.19200386033974
 10
230.97459390777996
 20
-36.190418033766896
 10
230.92188767631893
 20
-36.18769905399508
 10
230.91416539644234
 20
-36.1875
 10
211.96083460355732
 20
-36.1875
 10
211.95311232368152
 20
-36.18769905399506
 10
211.90040609222
 20
-36.190418033766896
 10
211.88507671997522
 20
-36.19200386033973
 10
211.84948769270545
 20
-36.19755110330987
 10
211.83440287813252
 20
-36.20070592004652
 10
211.79957358879543
 20
-36.20988586399166
 10
211.78489348440587
 20
-36.214576176822895
 10
211.75119370872054
 20
-36.227291360082496
 10
211.7370741702973
 20
-36.2334673728789
 10
211.70486169215886
 20
-36.24958280085129
 10
211.69145262406641
 20
-36.25717894409879
 10
211.6610694370234
 20
-36.276523522452976
 10
211.64851320070255
 20
-36.28545914939144
 10
211.62028187708094
 20
-36.30782750054062
 10
211.6087117796239
 20
-36.31800774337578
 10
211.58270754440133
 20
-36.34338144480363
 10
211.57234039900268
 20
-36.35458571479082
 10
211.54491900636424
 20
-36.38743738560871
 10
211.24525990488831
 20
-36.74713930097395
 10
211.23688570316202
 20
-36.756932057730005
 10
211.2096889626955
 20
-36.78791841802257
 10
211.2010652016306
 20
-36.79749213644901
 10
211.19411280773062
 20
-36.80501319379732
 10
211.18524521437712
 20
-36.814361515976294
 10
211.15648820635562
 20
-36.84390557977715
 10
211.14738266969533
 20
-36.85302229747409
 10
210.8450625015321
 20
-37.14801200268733
 10
210.8357250685642
 20
-37.156891061477744
 10
210.80548417057753
 20
-37.184914360804825
 10
210.79592104230343
 20
-37.19354986409414
 10
210.7882316298695
 20
-37.20031558807594
 10
210.77844915717696
 20
-37.208701801013596
 10
210.7468046879739
 20
-37.23512990698133
 10
210.73680936741485
 20
-37.24326126027321
 10
210.40573928827956
 20
-37.50557598147939
 10
210.39553775776062
 20
-37.51344707508217
 10
210.36257376392425
 20
-37.5382097955824
 10
210.3521727982958
 20
-37.545815402292014
 10
210.3438280043085
 20
-37.55175396254555
 10
210.33323451086514
 20
-37.55908903146886
 10
210.29903854359017
 20
-37.58212059759702
 10
210.28825955748636
 20
-37.58918025750405
 10
209.93195447333875
 20
-37.81603505086493
 10
209.92099715291306
 20
-37.82281461342641
 10
209.8856600354705
 20
-37.84405385416328
 10
209.87453165749488
 20
-37.85054881706217
 10
209.86562007699177
 20
-37.85559716506045
 10
209.8543280318364
 20
-37.861803214983524
 10
209.81794361835315
 20
-37.881193719661226
 10
209.8064954050812
 20
-37.88710673516189
 10
209.42873813696977
 20
-38.0760931279235
 10
209.41714135835522
 20
-38.081709182160196
 10
209.37980628453775
 20
-38.09919945028895
 10
209.3680686420161
 20
-38.104514813632825
 10
209.35868488749583
 20
-38.10861935205741
 10
209.3468141760526
 20
-38.11363049456794
 10
209.30862760252714
 20
-38.12917407261847
 10
209.29663170551723
 20
-38.1338776663894
 10
208.90143282811061
 20
-38.28298922716444
 10
208.8893197120256
 20
-38.28738214853272
 10
208.8503830609728
 20
-38.30093775331473
 10
208.83816077015
 20
-38.305017084935145
 10
208.82840446709005
 20
-38.30813423670828
 10
208.81608111836863
 20
-38.311897269491425
 10
208.77649780414765
 20
-38.32342889780119
 10
208.76408158148078
 20
-38.32687313271171
 10
208.35563684358607
 20
-38.434526773366514
 10
208.3431359926039
 20
-38.43764992308338
 10
208.30301114708791
 20
-38.44712694732672
 10
208.29043396962263
 20
-38.44992693776195
 10
208.28040869877483
 20
-38.45202360869597
 10
208.26776354734693
 20
-38.454498580372125
 10
208.22720374069695
 20
-38.46189582991009
 10
208.21449901296862
 20
-38.46404413919516
 10
207.79714479208982
 20
-38.529096922185836
 10
207.78438892528806
 20
-38.53091714238465
 10
207.74350188290668
 20
-38.53621497038574
 10
207.7307033482201
 20
-38.537705892687605
 10
207.72051554591502
 20
-38.53875982283922
 10
207.70768284286788
 20
-38.5399204571206
 10
207.66657715928486
 20
-38.54310479274219
 10
207.6537188100926
 20
-38.543934368224306
 10
207.20871410908674
 20
-38.56689102338356
 10
207.20227798519048
 20
-38.56718148331255
 10
207.18167725544572
 20
-38.56797822852959
 10
207.17523792325153
 20
-38.56818573436124
 10
207.17009372893963
 20
-38.568318334117485
 10
207.16365225758412
 20
-38.56844285139914
 10
207.1430378377756
 20
-38.568708491942225
 10
207.13659529675078
 20
-38.56875
 10
192.9108346035573
 20
-38.56875
 10
192.9031123236815
 20
-38.56894905399506
 10
192.85040609222008
 20
-38.57166803376689
 10
192.83507671997518
 20
-38.57325386033974
 10
192.79948769270547
 20
-38.57880110330987
 10
192.78440287813262
 20
-38.581955920046504
 10
192.74957358879533
 20
-38.59113586399169
 10
192.73489348440603
 20
-38.595826176822854
 10
192.7011937087203
 20
-38.60854136008258
 10
192.68707417029754
 20
-38.61471737287878
 10
192.65486169215882
 20
-38.63083280085132
 10
192.6414526240664
 20
-38.63842894409881
 10
192.61106943702353
 20
-38.657773522452885
 10
192.59851320070254
 20
-38.66670914939146
 10
192.57028187708084
 20
-38.6890775005407
 10
192.5587117796239
 20
-38.69925774337576
 10
192.53270754440135
 20
-38.72463144480364
 10
192.52234039900247
 20
-38.73583571479105
 10
192.494919006379
 20
-38.76868738559106
 10
192.1952599048883
 20
-39.12838930097397
 10
192.18688570316218
 20
-39.138182057729814
 10
192.1596889626957
 20
-39.16916841802238
 10
192.15106520162993
 20
-39.178742136449756
 10
192.14411280772993
 20
-39.18626319379807
 10
192.1352452143771
 20
-39.195611515976296
 10
192.1064882063556
 20
-39.22515557977715
 10
192.09738266969532
 20
-39.23427229747408
 10
191.79506250153213
 20
-39.52926200268732
 10
191.78572506856403
 20
-39.5381410614779
 10
191.75548417057735
 20
-39.56616436080498
 10
191.74592104230342
 20
-39.57479986409414
 10
191.7382316298695
 20
-39.58156558807594
 10
191.728449157177
 20
-39.589951801013555
 10
191.69680468797395
 20
-39.616379906981294
 10
191.68680936741487
 20
-39.6245112602732
 10
191.3557392882796
 20
-39.88682598147938
 10
191.3455377577604
 20
-39.89469707508234
 10
191.312573763924
 20
-39.91945979558256
 10
191.3021727982958
 20
-39.927065402292016
 10
191.2938280043085
 20
-39.93300396254555
 10
191.28323451086513
 20
-39.94033903146886
 10
191.24903854359016
 20
-39.96337059759702
 10
191.23825955748634
 20
-39.97043025750405
 10
190.88195447333874
 20
-40.197285050864934
 10
190.8709971529132
 20
-40.20406461342632
 10
190.83566003547065
 20
-40.22530385416319
 10
190.8245316574949
 20
-40.23179881706217
 10
190.8156200769918
 20
-40.23684716506045
 10
190.8043280318364
 20
-40.243053214983526
 10
190.76794361835317
 20
-40.26244371966123
 10
190.7564954050812
 20
-40.268356735161895
 10
190.37873813696964
 20
-40.45734312792357
 10
190.36714135835464
 20
-40.462959182160475
 10
190.32980628453655
 20
-40.48044945028948
 10
190.3180686420155
 20
-40.48576481363308
 10
190.3086848874955
 20
-40.489869352057546
 10
190.296814176052
 20
-40.4948804945682
 10
190.25862760252716
 20
-40.51042407261847
 10
190.24663170551736
 20
-40.51512766638935
 10
189.8514328281106
 20
-40.66423922716444
 10
189.8393197120258
 20
-40.66863214853265
 10
189.80038306097302
 20
-40.682187753314665
 10
189.78816077014963
 20
-40.686267084935274
 10
189.77840446708964
 20
-40.689384236708406
 10
189.76608111836853
 20
-40.693147269491455
 10
189.72649780414756
 20
-40.704678897801216
 10
189.7140815814808
 20
-40.7081231327117
 10
189.30563684358611
 20
-40.815776773366515
 10
189.29313599260382
 20
-40.81889992308341
 10
189.25301114708785
 20
-40.828376947326745
 10
189.24043396962264
 20
-40.83117693776195
 10
189.23040869877485
 20
-40.83327360869597
 10
189.2177635473469
 20
-40.83574858037214
 10
189.17720374069688
 20
-40.84314582991011
 10
189.1644990129686
 20
-40.84529413919516
 10
188.7471447920898
 20
-40.91034692218584
 10
188.73438892528804
 20
-40.912167142384654
 10
188.69350188290667
 20
-40.917464970385744
 10
188.68070334822022
 20
-40.91895589268759
 10
188.67051554591518
 20
-40.920009822839205
 10
188.6576828428679
 20
-40.9211704571206
 10
188.61657715928487
 20
-40.92435479274219
 10
188.60371881009263
 20
-40.92518436822431
 10
188.15871410908676
 20
-40.94814102338356
 10
188.1522779851905
 20
-40.948431483312554
 10
188.13167725544574
 20
-40.94922822852959
 10
188.1252379232515
 20
-40.94943573436125
 10
188.12009372893957
 20
-40.949568334117494
 10
188.1136522575841
 20
-40.94969285139914
 10
188.0930378377756
 20
-40.949958491942226
 10
188.08659529675077
 20
-40.95
 10
174.32845420109356
 20
-40.95
 10
174.321098853604
 20
-40.95018056364601
 10
174.27089146471818
 20
-40.95264709449711
 10
174.25628030045337
 20
-40.954086168570235
 10
174.22234271165635
 20
-40.95912033431911
 10
174.2079429580664
 20
-40.961984623395374
 10
174.17466222256627
 20
-40.97032101366373
 10
174.16061255715
 20
-40.974582933073556
 10
174.12830918662272
 20
-40.98614126386596
 10
174.11474491533852
 20
-40.991759768995585
 10
174.08373000890052
 20
-41.006428727268315
 10
174.07078176309625
 20
-41.013349708841716
 10
174.04135401125149
 20
-41.03098802450759
 10
174.0291464896117
 20
-41.03914482968924
 10
174.00158929769725
 20
-41.059582636126315
 10
173.99024006532935
 20
-41.06889671042282
 10
173.96481882416765
 20
-41.091937180382715
 10
173.95443718038266
 20
-41.1023188241677
 10
173.93139671042317
 20
-41.12774006532897
 10
173.92208263612596
 20
-41.13908929769772
 10
173.90164482968925
 20
-41.16664648961167
 10
173.89348802450763
 20
-41.17885401125141
 10
173.87584970884183
 20
-41.208281763096124
 10
173.8689287272682
 20
-41.22123000890077
 10
173.85425976899543
 20
-41.252244915338835
 10
173.8486412638661
 20
-41.26580918662228
 10
173.83708293307353
 20
-41.29811255715005
 10
173.83282101366373
 20
-41.31216222256631
 10
173.82448462339536
 20
-41.345442958066414
 10
173.82162033431914
 20
-41.359842711656235
 10
173.81658616857027
 20
-41.39378030045321
 10
173.81514709449715
 20
-41.40839146471798
 10
173.81268056364598
 20
-41.45859885360476
 10
173.8125
 20
-41.46595420109363
 10
173.8125
 20
-90.63885781707464
 10
173.8124638745939
 20
-90.64486814993184
 10
173.81223268034717
 20
-90.66409982546944
 10
173.8121243093491
 20
-90.67010928982175
 10
173.81200887925942
 20
-90.67490956761293
 10
173.81182827832905
 20
-90.68091729508873
 10
173.8111348292158
 20
-90.70013785499428
 10
173.8108820244504
 20
-90.7061429774609
 10
173.79089982029473
 20
-91.12139287719101
 10
173.79017775580962
 20
-91.13339183660798
 10
173.7874059631431
 20
-91.17175518554082
 10
173.7863956572117
 20
-91.18373331920615
 10
173.7854774199157
 20
-91.19325216407758
 10
173.78417945648002
 20
-91.2052025488054
 10
173.7795669218062
 20
-91.24338833018783
 10
173.77798205107072
 20
-91.25530405882473
 10
173.7213316040919
 20
-91.64529638963928
 10
173.71946074208896
 20
-91.65717057506667
 10
173.71301812778182
 20
-91.69509051832563
 10
173.71086235584292
 20
-91.70691629743439
 10
173.70903436676463
 20
-91.7163029913856
 10
173.70659493089443
 20
-91.7280735290481
 10
173.69833712975498
 20
-91.76563997812573
 10
173.6956154399129
 20
-91.77734847113744
 10
173.60177988788342
 20
-92.16009927833782
 10
173.5987775171667
 20
-92.17173895935986
 10
173.58872361799752
 20
-92.20886507533602
 10
173.5854423017333
 20
-92.2204292167998
 10
173.58272145348414
 20
-92.22959701654784
 10
173.57916308822664
 20
-92.24107893454403
 10
173.56733633170612
 20
-92.2776788963754
 10
173.56350297413852
 20
-92.28907195452311
 10
173.43334945984637
 20
-92.66104420342629
 10
173.4292433255943
 20
-92.67234181670122
 10
173.41567105055154
 20
-92.70833101961065
 10
173.41129451290212
 20
-92.71952665815351
 10
173.40770594908594
 20
-92.72839084323479
 10
173.40306153761384
 20
-92.73947803613025
 10
173.3877751178337
 20
-92.77477328717409
 10
173.38286551694296
 20
-92.78574562618167
 10
173.21759680073575
 20
-93.14350188773446
 10
173.21242484810458
 20
-93.15435303100116
 10
173.1954596198033
 20
-93.1888727413807
 10
173.1900283047465
 20
-93.19959641710062
 10
173.18560518760492
 20
-93.20807507278192
 10
173.17991764934365
 20
-93.21866508282636
 10
173.1613128294869
 20
-93.25232945648649
 10
173.15537235533736
 20
-93.26277967998023
 10
172.95651570030674
 20
-93.60301389634772
 10
172.9503257237771
 20
-93.6133182932129
 10
172.9301243194214
 20
-93.64604951130737
 10
172.92368841822804
 20
-93.65620212575226
 10
172.91847162218488
 20
-93.664216900013
 10
172.91179351618868
 20
-93.67421186396858
 10
172.89004222506995
 20
-93.70593426473856
 10
172.88312577411762
 20
-93.71576580126317
 10
172.65251883252296
 20
-94.03533383740827
 10
172.64536803422473
 20
-94.04499626401365
 10
172.62211713681052
 20
-94.07563651769051
 10
172.61473612422486
 20
-94.08512424963318
 10
172.60877385816187
 20
-94.09260107722312
 10
172.601166897408
 20
-94.10190863073035
 10
172.57647014066868
 20
-94.13139590904565
 10
172.56864162846045
 20
-94.14051790448549
 10
172.30841545981937
 20
-94.43646660340336
 10
172.30036992092394
 20
-94.44539776839397
 10
172.27428439408868
 20
-94.47366390830882
 10
172.26602647871206
 20
-94.48239908076498
 10
172.25937384046713
 20
-94.48926886764657
 10
172.25090832156587
 20
-94.49780299876407
 10
172.22349432415902
 20
-94.52478266003052
 10
172.214826094681
 20
-94.53311081720456
 10
171.92738547245483
 20
-94.80270529031431
 10
171.9185195425121
 20
-94.8108226599898
 10
171.8898404449596
 20
-94.83645347619706
 10
171.88078193893202
 20
-94.84435536665111
 10
171.87350040613515
 20
-94.85055462850438
 10
171.86425455970874
 20
-94.85823647255819
 10
171.8343766568526
 20
-94.88245919529683
 10
171.82494881399396
 20
-94.88991655295469
 10
171.51295000286134
 20
-95.13066545344893
 10
171.50334561272763
 20
-95.13789401446566
 10
171.47233797057913
 20
-95.16065265028612
 10
171.46256258437003
 20
-95.16764823665719
 10
171.45471944632033
 20
-95.1731196855461
 10
171.44477871406917
 20
-95.17987825392272
 10
171.41271301015723
 20
-95.20112019376934
 10
171.40261267746342
 20
-95.20763783779685
 10
171.0689388865387
 20
-95.41731638340262
 10
171.05868479124925
 20
-95.42358933597647
 10
171.0256351489215
 20
-95.4432654768047
 10
171.0152332177561
 20
-95.44929011224848
 10
171.0069009535997
 20
-95.45398318602037
 10
170.9963571987247
 20
-95.4597560221816
 10
170.96240001581188
 20
-95.4778208804589
 10
170.9517205313664
 20
-95.48333858072101
 10
170.58010721055166
 20
-95.66971268702895
 10
170.57471849570672
 20
-95.67237485877668
 10
170.55742402942167
 20
-95.68078985911575
 10
170.55200370283845
 20
-95.68338706257992
 10
170.54766107997744
 20
-95.68543587142084
 10
170.54220992490326
 20
-95.68796773130074
 10
170.52471816340093
 20
-95.69596454780927
 10
170.51923696753616
 20
-95.6984306982472
 10
155.23440524857756
 20
-102.46535364427359
 10
155.2277526494668
 20
-102.46849636044986
 10
155.1828417550138
 20
-102.49107682175445
 10
155.17006394424098
 20
-102.49830763133558
 10
155.14106951504897
 20
-102.51664954601239
 10
155.12906197620495
 20
-102.52509798174063
 10
155.10200498513933
 20
-102.54619352611977
 10
155.09088335738676
 20
-102.55577822494104
 10
155.06602437806302
 20
-102.57942423739743
 10
155.0558957687571
 20
-102.59005289342245
 10
155.0334742067341
 20
-102.61602164993121
 10
155.0244361599198
 20
-102.62759190339173
 10
155.0046679470977
 20
-102.65563331063052
 10
154.99680750410596
 20
-102.6680337336615
 10
154.97988301918016
 20
-102.6978777375502
 10
154.97327588037405
 20
-102.71098890729911
 10
154.95935811538635
 20
-102.74234809376563
 10
154.95406791112495
 20
-102.75604374249939
 10
154.94329090176015
 20
-102.7886161054361
 10
154.93936857960193
 20
-102.80276433657171
 10
154.93183611435174
 20
-102.83623618631707
 10
154.92931944840353
 20
-102.85070074465338
 10
154.9251040690259
 20
-102.88474972899712
 10
154.9240172961564
 20
-102.89939131293092
 10
154.9231595990591
 20
-102.93368952154111
 10
154.92351318548506
 20
-102.9483671246145
 10
154.9260214307601
 20
-102.9825842469916
 10
154.92781197125112
 20
-102.9971565158657
 10
154.93366200312522
 20
-103.03096302241651
 10
154.9368722537974
 20
-103.04528961817381
 10
154.94600773326584
 20
-103.0783599337608
 10
154.95060677765008
 20
-103.09230288345215
 10
154.96867647041782
 20
-103.13921079191763
 10
154.9714889734887
 20
-103.14600958345645
 10
166.1215501686165
 20
-128.33128365602366
 10
166.12469288479411
 20
-128.33793625513732
 10
166.1472733460984
 20
-128.38284714958965
 10
166.15450415567935
 20
-128.39562496036217
 10
166.1728460703563
 20
-128.4246193895544
 10
166.1812945060848
 20
-128.43662692839882
 10
166.2023900504632
 20
-128.46368391946353
 10
166.2119747492847
 20
-128.47480554721636
 10
166.23562076174193
 20
-128.49966452654095
 10
166.24624941776605
 20
-128.50979313584605
 10
166.27221817427468
 20
-128.5322146978689
 10
166.2837884277358
 20
-128.54125274468367
 10
166.31182983497408
 20
-128.56102095750543
 10
166.32423025800577
 20
-128.56888140049762
 10
166.35407426189474
 20
-128.58580588542355
 10
166.36718543164213
 20
-128.5924130242289
 10
166.39854461810938
 20
-128.6063307892169
 10
166.41224026684378
 20
-128.61162099347857
 10
166.4448126297801
 20
-128.62239800284325
 10
166.45896086091489
 20
-128.62632032500125
 10
166.4924327106606
 20
-128.63385279025152
 10
166.50689726899762
 20
-128.63636945619982
 10
166.5409462533412
 20
-128.64058483557744
 10
166.55558783727466
 20
-128.64167160844693
 10
166.58988604588498
 20
-128.64252930554423
 10
166.6045636489579
 20
-128.64217571911828
 10
166.6387807713355
 20
-128.63966747384322
 10
166.6533530402094
 20
-128.63787693335223
 10
166.68715954676108
 20
-128.63202690147796
 10
166.70148614251713
 20
-128.62881665080607
 10
166.7345564581042
 20
-128.6196811713376
 10
166.7484994077966
 20
-128.615082126953
 10
166.79540731626005
 20
-128.5970124341861
 10
166.80220610780108
 20
-128.59419993111428
 10
183.202286219648
 20
-121.33353259331979
 10
183.20825799923668
 20
-121.33093513757298
 10
183.2274210109493
 20
-121.32274807545777
 10
183.2334261136805
 20
-121.32022861738277
 10
183.23823535454778
 20
-121.31824761868636
 10
183.24427276174342
 20
-121.31580658567246
 10
183.26364251325305
 20
-121.30812142266551
 10
183.2697112007514
 20
-121.30575922879987
 10
183.69049166231972
 20
-121.1451208682982
 10
183.7027187552308
 20
-121.14063458741853
 10
183.74202577568659
 20
-121.1267904726108
 10
183.7543655705608
 20
-121.12262418173549
 10
183.76421522617923
 20
-121.11944093111683
 10
183.77665935029069
 20
-121.11559745713329
 10
183.8166339646089
 20
-121.10381901997364
 10
183.82917397444592
 20
-121.10030097073253
 10
184.26437995836042
 20
-120.98429824978722
 10
184.27068326388132
 20
-120.9826620140673
 10
184.29088708306543
 20
-120.9775576341427
 10
184.29721116453462
 20
-120.97600363240973
 10
184.3022701447399
 20
-120.9747953804307
 10
184.30861392936708
 20
-120.97332387629889
 10
184.32894384341625
 20
-120.96874745863006
 10
184.3353062550698
 20
-120.96735870171885
 10
201.80184553030412
 20
-117.27384422786946
 10
201.8082254896918
 20
-117.27253845376165
 10
201.82866770447666
 20
-117.26849310351156
 10
201.83506412932974
 20
-117.26727053371302
 10
201.84017916465527
 20
-117.2663273650226
 10
201.8465909699112
 20
-117.26518820692493
 10
201.86713161510195
 20
-117.2616766689206
 10
201.87355771309
 20
-117.26062111576562
 10
202.31846853135173
 20
-117.19051231820734
 10
202.33135924290053
 20
-117.1886527287509
 10
202.37268001869805
 20
-117.1832402561764
 10
202.38561479202266
 20
-117.18171705027379
 10
202.3959099222723
 20
-117.18064043824863
 10
202.40887998094706
 20
-117.17945464941646
 10
202.45042654467863
 20
-117.17620127978529
 10
202.4634230883361
 20
-117.17535371259798
 10
202.91321278441438
 20
-117.1518993099539
 10
202.91971823291962
 20
-117.15160254816763
 10
202.9405409694048
 20
-117.15078851543767
 10
202.94704973120278
 20
-117.15057650676772
 10
202.9522492312495
 20
-117.15044103414463
 10
202.95876020222073
 20
-117.15031381455528
 10
202.97959707681684
 20
-117.15004240892782
 10
202.9861091524682
 20
-117.15
 10
220.92154579890686
 20
-117.15
 10
220.92890114639573
 20
-117.14981943635402
 10
220.97910853528168
 20
-117.1473529055029
 10
220.99371969954655
 20
-117.14591383142977
 10
221.02765728834365
 20
-117.14087966568088
 10
221.04205704193356
 20
-117.13801537660463
 10
221.07533777743404
 20
-117.12967898633619
 10
221.08938744284993
 20
-117.12541706692649
 10
221.12169081337746
 20
-117.11385873613399
 10
221.1352550846615
 20
-117.10824023100443
 10
221.16626999109914
 20
-117.09357127273185
 10
221.17921823690406
 20
-117.0866502911581
 10
221.2086459887484
 20
-117.06901197549249
 10
221.22085351038842
 20
-117.06085517031067
 10
221.24841070230238
 20
-117.04041736387397
 10
221.25975993467094
 20
-117.03110328957692
 10
221.28518117583232
 20
-117.00806281961736
 10
221.29556281961743
 20
-116.99768117583226
 10
221.31860328957706
 20
-116.97225993467082
 10
221.3279173638736
 20
-116.96091070230284
 10
221.3483551703109
 20
-116.9333535103881
 10
221.3565119754926
 20
-116.92114598874826
 10
221.37415029115792
 20
-116.89171823690437
 10
221.38107127273176
 20
-116.87876999109929
 10
221.39574023100457
 20
-116.84775508466115
 10
221.40135873613406
 20
-116.83419081337732
 10
221.4129170669264
 20
-116.80188744285016
 10
221.41717898633613
 20
-116.7878377774342
 10
221.42551537660472
 20
-116.75455704193313
 10
221.4283796656808
 20
-116.74015728834402
 10
221.43341383142976
 20
-116.70621969954655
 10
221.4348529055029
 20
-116.69160853528155
 10
221.437319436354
 20
-116.64140114639669
 10
221.4375
 20
-116.6340457989063
 10
221.4375
 20
-99.78546145192378
 10
221.43753609672817
 20
-99.77945350508745
 10
221.4377671074494
 20
-99.76022946315993
 10
221.43787539242203
 20
-99.7542223837901
 10
221.43799073101408
 20
-99.74942400530509
 10
221.43817118859616
 20
-99.74341866075102
 10
221.43886408734502
 20
-99.72420572122236
 10
221.43911669148096
 20
-99.71820297857248
 10
221.4590830462277
 20
-99.30311739982221
 10
221.45980453785822
 20
-99.29112318660914
 10
221.46257413224677
 20
-99.25277498588056
 10
221.46358363710925
 20
-99.24080157363682
 10
221.4645011506754
 20
-99.23128643032123
 10
221.46579808575314
 20
-99.21934073401943
 10
221.47040696792385
 20
-99.18116988968396
 10
221.4719905842027
 20
-99.16925880827755
 10
221.52859623812407
 20
-98.77941790560078
 10
221.5304656210229
 20
-98.76754831806136
 10
221.53690314550119
 20
-98.72964299612951
 10
221.5390572154014
 20
-98.71782175746084
 10
221.54088377043396
 20
-98.70843860872614
 10
221.5433212833021
 20
-98.69667254601265
 10
221.55157258086336
 20
-98.65912029919926
 10
221.5542921289709
 20
-98.64741620765508
 10
221.64805394730945
 20
-98.26480824788774
 10
221.65105396004415
 20
-98.25317288694065
 10
221.66109997205848
 20
-98.21606045243699
 10
221.6643787168329
 20
-98.20450054181863
 10
221.6670974473616
 20
-98.19533602940552
 10
221.67065303061202
 20
-98.18385824527694
 10
221.68247055306523
 20
-98.14727134440747
 10
221.68630092134794
 20
-98.13588231549329
 10
221.81635313000925
 20
-97.76404020857424
 10
221.82045607118314
 20
-97.75274651234623
 10
221.83401780827293
 20
-97.71676965257153
 10
221.8383909527804
 20
-97.70557781143974
 10
221.84197675470116
 20
-97.69671655825252
 10
221.84661757693297
 20
-97.68563303580785
 10
221.86189220411646
 20
-97.65034931553055
 10
221.86679802387408
 20
-97.63938051280255
 10
222.0319397520216
 20
-97.28173775937415
 10
222.03710773606232
 20
-97.270890011141
 10
222.054059972407
 20
-97.23638092777092
 10
222.05948713608169
 20
-97.22566049889777
 10
222.0639068989615
 20
-97.2171843276185
 10
222.06959010793773
 20
-97.2065974094402
 10
222.08818079761528
 20
-97.17294267114782
 10
222.09411676968753
 20
-97.16249537789339
 10
222.2928231382961
 20
-96.82235436517978
 10
222.29900844528117
 20
-96.8120527304415
 10
222.31919464800487
 20
-96.77933007205743
 10
222.32562571772175
 20
-96.76918004530619
 10
222.33083863053207
 20
-96.76116722286396
 10
222.3375117488673
 20
-96.75117466600959
 10
222.3592468390788
 20
-96.71945966946662
 10
222.36615815212605
 20
-96.70963035348112
 10
222.59659435434762
 20
-96.3901318618397
 10
222.603739870639
 20
-96.38047146341552
 10
222.62697364519784
 20
-96.34983738317962
 10
222.63434923800534
 20
-96.3403514814568
 10
222.64030716596287
 20
-96.33287599632719
 10
222.64790857568576
 20
-96.323570069666
 10
222.67258736983197
 20
-96.29408766352805
 10
222.6804102064508
 20
-96.28496708635257
 10
222.94044844978004
 20
-95.98906128806281
 10
222.94848819539746
 20
-95.98013132775019
 10
222.97455500670114
 20
-95.95186869339676
 10
222.98280701814852
 20
-95.94313450723848
 10
222.98945494717827
 20
-95.9362653862548
 10
222.99791445869826
 20
-95.92773201847704
 10
223.02530907872602
 20
-95.90075443619575
 10
223.03397120472337
 20
-95.89242681504771
 10
223.3212103585225
 20
-95.62284603312897
 10
223.33007009638757
 20
-95.6147289680348
 10
223.3587292497662
 20
-95.58909874993604
 10
223.3677814827628
 20
-95.58119692871848
 10
223.37505802748575
 20
-95.57499759969312
 10
223.3842975277067
 20
-95.5673155858657
 10
223.41415501827856
 20
-95.54309193195216
 10
223.42357644966503
 20
-95.53563416208362
 10
223.73536421662658
 20
-95.29486764068159
 10
223.74496213804932
 20
-95.287638421834
 10
223.77594900176862
 20
-95.26487728326387
 10
223.7857178701701
 20
-95.25788079050537
 10
223.79355584072158
 20
-95.25240849655218
 10
223.80349001432
 20
-95.24564877054372
 10
223.8355346785448
 20
-95.22440272039556
 10
223.8456284200872
 20
-95.21788366506117
 10
224.17908582691055
 20
-95.00815458436517
 10
224.189333306991
 20
-95.00187996463374
 10
224.22236175579877
 20
-94.98219807647526
 10
224.23275705622353
 20
-94.97617151610746
 10
224.24108407866734
 20
-94.97147678707364
 10
224.25162119587088
 20
-94.96570176657015
 10
224.2855571410215
 20
-94.9476295011077
 10
224.2962299895368
 20
-94.94210935569733
 10
224.64827797067497
 20
-94.76535430362946
 10
224.6590803866454
 20
-94.76009222134441
 10
224.69384544378428
 20
-94.74367132142196
 10
224.70477118852537
 20
-94.73867034125561
 10
224.7135103731371
 20
-94.73479652714096
 10
224.7245531367394
 20
-94.73005953729302
 10
224.76006700645456
 20
-94.7153279314721
 10
224.77122041142454
 20
-94.71085766768185
 10
225.13860824043553
 20
-94.56870875790923
 10
225.1498658453833
 20
-94.5645078018736
 10
225.18604649867137
 20
-94.55149951683032
 10
225.19740180202865
 20
-94.54757029471389
 10
225.2064724532788
 20
-94.54455316538655
 10
225.21791889705378
 20
-94.54089794642039
 10
225.25468276479666
 20
-94.52964302834826
 10
225.266213738361
 20
-94.52626392351934
 10
225.6455490443344
 20
-94.42003372490895
 10
225.65715788824141
 20
-94.41693268574102
 10
225.69442005422263
 20
-94.40745713095433
 10
225.7061000640537
 20
-94.40463594838062
 10
225.71541842572825
 20
-94.40250336328779
 10
225.72716285596573
 20
-94.39996366661659
 10
225.76483725301756
 20
-94.3922893615017
 10
225.77663932093765
 20
-94.39003261747607
 10
226.1644194128334
 20
-94.32070203414885
 10
226.17627230242533
 20
-94.31872954609898
 10
226.214271911216
 20
-94.31287421656418
 10
226.22616877711826
 20
-94.3111871236548
 10
226.23564880570527
 20
-94.30995877457465
 10
226.2475827771588
 20
-94.30855805114713
 10
226.2858198271915
 20
-94.30453522167846
 10
226.29778401200835
 20
-94.30342167668807
 10
226.69042822166162
 20
-94.27163089058679
 10
226.70241571020452
 20
-94.2708051671356
 10
226.74080188254968
 20
-94.26862412955849
 10
226.75280575172252
 20
-94.26808670452398
 10
226.76235991091642
 20
-94.26777393373663
 10
226.7743732281625
 20
-94.26752511749615
 10
226.81281985944722
 20
-94.2671909095139
 10
226.82483568675406
 20
-94.26723084576547
 10
227.2187184319065
 20
-94.27327340536796
 10
227.23072982981265
 20
-94.27360207104735
 10
227.26914811702324
 20
-94.27511546460475
 10
227.28114814862374
 20
-94.27573266989874
 10
227.29068821761484
 20
-94.27633836545442
 10
227.3026699525692
 20
-94.27724375391033
 10
227.34097115815328
 20
-94.28060125341061
 10
227.35292767668895
 20
-94.28179430214237
 10
227.74441193874273
 20
-94.32561441190568
 10
227.75633633565013
 20
-94.3270944318957
 10
227.79443199249422
 20
-94.33228828227504
 10
227.8063173811145
 20
-94.33405441877213
 10
227.81575526919966
 20
-94.33557298782371
 10
227.82759478540194
 20
-94.33762422083664
 10
227.86539690116072
 20
-94.34464242547628
 10
227.87718370730755
 20
-94.34697757036311
 10
228.2626546146808
 20
-94.42817060592589
 10
228.27438190357512
 20
-94.43078831407773
 10
228.31180316391544
 20
-94.43961466251312
 10
228.3234641627338
 20
-94.44251342213339
 10
228.33271272272245
 20
-94.44493084257927
 10
228.34430069692573
 20
-94.44810897955666
 10
228.38125466720635
 20
-94.4587230849207
 10
228.39276292442847
 20
-94.46217876379583
 10
228.7686611314122
 20
-94.57999500818272
 10
228.78008302532604
 20
-94.58372623320835
 10
228.81648435023791
 20
-94.59610357931943
 10
228.82781328439398
 20
-94.60010819561323
 10
228.83678711730585
 20
-94.60340214557398
 10
228.8480165489415
 20
-94.60767784036288
 10
228.88378114966557
 20
-94.62178983835388
 10
228.89490459348247
 20
-94.62633414230935
 10
229.25775914638166
 20
-94.77968570863715
 10
229.26877017829267
 20
-94.78449599730176
 10
229.30381544669328
 20
-94.80031005165037
 10
229.31470770753265
 20
-94.80538354695364
 10
229.323323951152
 20
-94.80952361088727
 10
229.33409115034664
 20
-94.81485738274941
 10
229.36833613978493
 20
-94.83233696656887
 10
229.3789720589892
 20
-94.8379279345939
 10
229.72543244607576
 20
-95.0253988113577
 10
229.73593094276143
 20
-95.03124374661184
 10
229.76929655506396
 20
-95.05034848602044
 10
229.77965156606737
 20
-95.05644401289668
 10
229.78783066007074
 20
-95.06139196244749
 10
229.79803620509557
 20
-95.06773456061572
 10
229.83044537324818
 20
-95.08842032798862
 10
229.84049555831874
 20
-95.09500633442843
 10
230.16736264765183
 20
-95.31486546061181
 10
230.17725166851682
 20
-95.32169107172798
 10
230.20862953467662
 20
-95.34391008762455
 10
230.2183516801615
 20
-95.35097136144375
 10
230.2260181007614
 20
-95.35668150843522
 10
230.2355677560666
 20
-95.36397436688254
 10
230.26584184446466
 20
-95.38767531040506
 10
230.27521349440826
 20
-95.39519554165929
 10
230.51790342572738
 20
-95.5947817157348
 10
230.52370787968314
 20
-95.59932077319918
 10
230.56411494169396
 20
-95.62934821128974
 10
230.57633335408264
 20
-95.63752779439157
 10
230.60579056041055
 20
-95.6552159524238
 10
230.61875289127516
 20
-95.66215664111819
 10
230.6498041453036
 20
-95.67686777848232
 10
230.66338518880485
 20
-95.68250253121933
 10
230.69573056003617
 20
-95.69409454999082
 10
230.70979913406106
 20
-95.69836893952632
 10
230.74312619185176
 20
-95.70672986999371
 10
230.75754640512866
 20
-95.70960260911345
 10
230.79153323652167
 20
-95.71465169131692
 10
230.80616580122242
 20
-95.71609503163842
 10
230.85644758399582
 20
-95.718568899023
 10
230.86381385379974
 20
-95.71875
 10
244.50276758664296
 20
-95.71875
 10
244.5087116221792
 20
-95.71878533280686
 10
244.52773119177098
 20
-95.71901145478098
 10
244.53367438722958
 20
-95.71911744820795
 10
244.5384218885816
 20
-95.7192303494102
 10
244.54436340400295
 20
-95.71940698847708
 10
244.5633722217367
 20
-95.72008522657153
 10
244.56931121739902
 20
-95.72033248631368
 10
244.9799951049028
 20
-95.73987663742894
 10
244.99186217996458
 20
-95.74058286918108
 10
245.02980458890192
 20
-95.74329390471888
 10
245.041651519426
 20
-95.74428207017786
 10
245.0510674798551
 20
-95.74518030202141
 10
245.06288756871328
 20
-95.74644984257247
 10
245.10065821526598
 20
-95.75096142419905
 10
245.11244478050318
 20
-95.75251162216459
 10
245.498228074054
 20
-95.80792397636917
 10
245.509974452667
 20
-95.80975395541466
 10
245.54748794117214
 20
-95.81605588289425
 10
245.55918749287488
 20
-95.81816460852349
 10
245.56847560104117
 20
-95.81995295355199
 10
245.5801217120188
 20
-95.82233923369184
 10
245.61729322822202
 20
-95.83041725899507
 10
245.62887931487137
 20
-95.83307974466975
 10
246.0076570085517
 20
-95.92487700689222
 10
246.0191765212009
 20
-95.92781419298547
 10
246.05592202401743
 20
-95.93765005250408
 10
246.06736845062858
 20
-95.94086027860997
 10
246.07644475606855
 20
-95.94352257288656
 10
246.08781162592052
 20
-95.94700402424851
 10
246.12404803743615
 20
-95.95857548008593
 10
246.13532892478145
 20
-95.96232618862236
 10
246.50367744056734
 20
-96.08967865031643
 10
246.51486596826427
 20
-96.09369649573317
 10
246.55051136156914
 20
-96.10697738598262
 10
246.5616012046876
 20
-96.11126009697173
 10
246.57038367131398
 20
-96.11477227737879
 10
246.58136856071206
 20
-96.11931743290306
 10
246.61634234513193
 20
-96.1342777307981
 10
246.62721607099638
 20
-96.13908276145828
 10
246.98180609487383
 20
-96.30083934879771
 10
246.9925625102341
 20
-96.30590153828636
 10
247.02678561353238
 20
-96.32250742008638
 10
247.0374186377331
 20
-96.32782390672251
 10
247.0458278853177
 20
-96.33215422845599
 10
247.0563315074595
 20
-96.3377220068043
 10
247.0897265546164
 20
-96.3559359282684
 10
247.1000948369481
 20
-96.36175185083538
 10
247.4377214108816
 20
-96.5564505286825
 10
247.44794849216288
 20
-96.5625113076989
 10
247.48043998031088
 20
-96.58229208896908
 10
247.49052007912243
 20
-96.58859429824676
 10
247.49848010077298
 20
-96.59370362174104
 10
247.5084075187839
 20
-96.60024369860918
 10
247.53992198791136
 20
-96.62154661731336
 10
247.54969111310473
 20
-96.62832086463511
 10
247.86730260301343
 20
-96.85420185112827
 10
247.87690791285394
 20
-96.86120643938784
 10
247.9073741118929
 20
-96.88398333175397
 10
247.91681017645172
 20
-96.89121430122323
 10
247.92424902560083
 20
-96.89705644591457
 10
247.9335105106239
 20
-96.90450970889061
 10
247.96285955853887
 20
-96.9287090786382
 10
247.97194122846267
 20
-96.93638042175441
 10
248.26666690638413
 20
-97.19140209407858
 10
248.27556362729638
 20
-97.19928718068728
 10
248.30372916882055
 20
-97.22485431545758
 10
248.31243591136072
 20
-97.23294868808014
 10
248.3192863520511
 20
-97.23947084980716
 10
248.32779819425517
 20
-97.24776993265529
 10
248.35471654991076
 20
-97.27464702770887
 10
248.36302867999163
 20
-97.28314612926941
 10
248.63220467112325
 20
-97.56500347684053
 10
248.64031239019306
 20
-97.57369779252967
 10
248.66592270026518
 20
-97.60182408143773
 10
248.67382142499065
 20
-97.61070869631634
 10
248.68002153958997
 20
-97.61785192459244
 10
248.68770680478215
 20
-97.62692181614284
 10
248.71195116691607
 20
-97.65623370817363
 10
248.71941862805738
 20
-97.66548374914225
 10
248.9606119881596
 20
-97.97162920741987
 10
248.96785742385737
 20
-97.98105416871289
 10
248.99068102397112
 20
-98.01148539260541
 10
248.99770033834446
 20
-98.02107994624521
 10
249.00319408718482
 20
-98.02877967707985
 10
249.00998331218076
 20
-98.0385383992181
 10
249.03133454839212
 20
-98.07002015301187
 10
249.03788984602826
 20
-98.07993752699473
 10
249.24892055156522
 20
-98.40760400361711
 10
249.25523821609966
 20
-98.41767442310436
 10
249.27506881539588
 20
-98.45013552969809
 10
249.2811452754216
 20
-98.46035330183193
 10
249.28588300331444
 20
-98.46853994129245
 10
249.29171482377834
 20
-98.47889928991535
 10
249.30997995115342
 20
-98.51226635798653
 10
249.31556383529895
 20
-98.52276142690813
 10
249.49452448755645
 20
-98.86898731202521
 10
249.49985727878618
 20
-98.87961216833101
 10
249.51651563861094
 20
-98.91380975827049
 10
249.5215943222721
 20
-98.92455839567779
 10
249.52553320731607
 20
-98.9331579489137
 10
249.5303549124024
 20
-98.94402429116168
 10
249.5453688417881
 20
-98.9789750856322
 10
249.5499308425674
 20
-98.98995298992736
 10
249.69520390765572
 20
-99.35160892467954
 10
249.69950362520578
 20
-99.3626921851568
 10
249.7128391791568
 20
-99.39831716390091
 10
249.71687418282602
 20
-99.40949951513838
 10
249.71997862345185
 20
-99.41843425518202
 10
249.7237466322332
 20
-99.4297093757426
 10
249.73537366039355
 20
-99.46592799424043
 10
249.73887254421254
 20
-99.47728951024133
 10
249.84914497312846
 20
-99.85110667143432
 10
249.85237275404896
 20
-99.86254816015493
 10
249.8622649688684
 20
-99.89927853172472
 10
249.8652198222102
 20
-99.91079352523593
 10
249.86746175896536
 20
-99.91998269553756
 10
249.87014201433473
 20
-99.93156468435457
 10
249.8782770505034
 20
-99.96872376529423
 10
249.88068119273927
 20
-99.98036620206372
 10
249.89630051214638
 20
-100.06082312960064
 10
249.89788538141332
 20
-100.06803315650727
 10
249.90992308706507
 20
-100.11701148808618
 10
249.91413891350467
 20
-100.13112605316321
 10
249.92560255447904
 20
-100.16358462784534
 10
249.93118603099586
 20
-100.17721616957296
 10
249.94578621602403
 20
-100.20839001649473
 10
249.952683210296
 20
-100.22140637581298
 10
249.9702783892317
 20
-100.25099326164084
 10
249.97842203426046
 20
-100.26326824374034
 10
249.99884162021382
 20
-100.29098132087512
 10
250.0081529626058
 20
-100.30239591866642
 10
250.0311989857987
 20
-100.32796650625713
 10
250.04158775122784
 20
-100.33841005415839
 10
250.0670367783308
 20
-100.36159024298995
 10
250.0784022467528
 20
-100.37096148983568
 10
250.10600754709043
 20
-100.39152654582986
 10
250.11823952923598
 20
-100.39973463651377
 10
250.14773346686388
 20
-100.41748517954733
 10
250.1607133725329
 20
-100.4244505358699
 10
250.19181000099329
 20
-100.43921447278353
 10
250.2054119887984
 20
-100.44486956497023
 10
250.23780982339693
 20
-100.45650375802761
 10
250.25190202080543
 20
-100.46079375943543
 10
250.28528696153498
 20
-100.46918541405725
 10
250.29973274338766
 20
-100.47206873272523
 10
250.33378112015376
 20
-100.4771364910422
 10
250.34844043325822
 20
-100.47858517292885
 10
250.39881520638625
 20
-100.48106822623942
 10
250.4061951289407
 20
-100.48125
 10
287.59654579890633
 20
-100.48125
 10
287.6039011463956
 20
-100.481069436354
 10
287.6541085352821
 20
-100.47860290550287
 10
287.66871969954633
 20
-100.47716383142979
 10
287.7026572883439
 20
-100.47212966568084
 10
287.71705704193334
 20
-100.46926537660468
 10
287.75033777743386
 20
-100.46092898633624
 10
287.7643874428501
 20
-100.45666706692643
 10
287.7966908133775
 20
-100.44510873613399
 10
287.81025508466143
 20
-100.43949023100446
 10
287.8412699910992
 20
-100.42482127273185
 10
287.85421823690405
 20
-100.41790029115812
 10
287.8836459887485
 20
-100.40026197549243
 10
287.89585351038806
 20
-100.39210517031094
 10
287.92341070230265
 20
-100.37166736387375
 10
287.9347599346709
 20
-100.36235328957696
 10
287.96018117583253
 20
-100.33931281961713
 10
287.97056281961676
 20
-100.32893117583292
 10
287.9936032895772
 20
-100.30350993467057
 10
288.0029173638738
 20
-100.29216070230258
 10
288.0233551703106
 20
-100.2646035103885
 10
288.03151197549255
 20
-100.25239598874825
 10
288.0491502911585
 20
-100.22296823690327
 10
288.05607127273163
 20
-100.2100199910996
 10
288.0707402310044
 20
-100.1790050846616
 10
288.07635873613424
 20
-100.16544081337686
 10
288.0879170669263
 20
-100.13313744285055
 10
288.0921789863362
 20
-100.11908777743399
 10
288.10051537660485
 20
-100.08580704193277
 10
288.1033796656809
 20
-100.07140728834386
 10
288.1084138314298
 20
-100.03746969954653
 10
288.1098529055029
 20
-100.02285853528178
 10
288.11231943635397
 20
-99.97265114639632
 10
288.1125
 20
-99.96529579890638
 10
288.1125
 20
-43.84720420109362
 10
288.11231943635397
 20
-43.83984885360369
 10
288.1098529055029
 20
-43.78964146471819
 10
288.1084138314298
 20
-43.77503030045347
 10
288.1033796656809
 20
-43.741092711656215
 10
288.1005153766048
 20
-43.72669295806711
 10
288.0921789863363
 20
-43.69341222256639
 10
288.08791706692637
 20
-43.6793625571497
 10
288.076358736134
 20
-43.64705918662257
 10
288.07074023100455
 20
-43.63349491533889
 10
288.05607127273146
 20
-43.602480008900145
 10
288.0491502911585
 20
-43.58953176309673
 10
288.03151197549215
 20
-43.560104011251134
 10
288.02335517031065
 20
-43.54789648961148
 10
288.00291736387425
 20
-43.520339297698
 10
287.99360328957647
 20
-43.50899006532853
 10
287.9705628196179
 20
-43.483568824168294
 10
287.9601811758321
 20
-43.47318718038247
 10
287.93475993467075
 20
-43.45014671042293
 10
287.92341070230236
 20
-43.440832636126004
 10
287.8958535103887
 20
-43.42039482968953
 10
287.8836459887481
 20
-43.41223802450736
 10
287.85421823690393
 20
-43.39459970884183
 10
287.84126999109964
 20
-43.38767872726841
 10
287.81025508466115
 20
-43.373009768995445
 10
287.79669081337755
 20
-43.36739126386606
 10
287.76438744284985
 20
-43.35583293307349
 10
287.75033777743386
 20
-43.35157101366377
 10
287.71705704193374
 20
-43.343234623395404
 10
287.7026572883436
 20
-43.340370334319104
 10
287.66871969954656
 20
-43.33533616857023
 10
287.65410853528186
 20
-43.33389709449712
  0
LWPOLYLINE
  5
8D
330
17
100
AcDbEntity
  8
CUTOUTS
100
AcDbPolyline
 90
5
 70
1
 10
286.0875
 20
-45.35625
 10
286.0875
 20
-60.35625
 10
271.0875
 20
-60.35625
 10
271.0875
 20
-45.35625
 10
286.0875
 20
-45.35625
  0
LWPOLYLINE
  5
8E
330
17
100
AcDbEntity
  8
CUTOUTS
100
AcDbPolyline
 90
5
 70
1
 10
286.0875
 20
-64.40625
 10
286.0875
 20
-79.40625
 10
271.0875
 20
-79.40625
 10
271.0875
 20
-64.40625
 10
286.0875
 20
-64.40625
  0
LWPOLYLINE
  5
8F
330
17
100
AcDbEntity
  8
CUTOUTS
100
AcDbPolyline
 90
5
 70
1
 10
286.0875
 20
-83.45625
 10
286.0875
 20
-98.45625
 10
271.0875
 20
-98.45625
 10
271.0875
 20
-83.45625
 10
286.0875
 20
-83.45625
  0
LWPOLYLINE
  5
90
330
17
100
AcDbEntity
  8
CUTOUTS
100
AcDbPolyline
 90
5
 70
1
 10
267.0375
 20
-45.35625
 10
267.0375
 20
-60.35625
 10
252.03750000000002
 20
-60.35625
 10
252.03750000000002
 20
-45.35625
 10
267.0375
 20
-45.35625
  0
LWPOLYLINE
  5
91
330
17
100
AcDbEntity
  8
CUTOUTS
100
AcDbPolyline
 90
5
 70
1
 10
267.0375
 20
-64.40625
 10
267.0375
 20
-79.40625
 10
252.03750000000002
 20
-79.40625
 10
252.03750000000002
 20
-64.40625
 10
267.0375
 20
-64.40625
  0
LWPOLYLINE
  5
92
330
17
100
AcDbEntity
  8
CUTOUTS
100
AcDbPolyline
 90
5
 70
1
 10
267.0375
 20
-83.45625
 10
267.0375
 20
-98.45625
 10
252.03750000000002
 20
-98.45625
 10
252.03750000000002
 20
-83.45625
 10
267.0375
 20
-83.45625
  0
LWPOLYLINE
  5
93
330
17
100
AcDbEntity
  8
CUTOUTS
100
AcDbPolyline
 90
5
 70
1
 10
247.9875
 20
-40.59375
 10
247.9875
 20
-55.59375
 10
232.9875
 20
-55.59375
 10
232.9875
 20
-40.59375
 10
247.9875
 20
-40.59375
  0
LWPOLYLINE
  5
94
330
17
100
AcDbEntity
  8
CUTOUTS
100
AcDbPolyline
 90
5
 70
1
 10
247.9875
 20
-59.64375
 10
247.9875
 20
-74.64375
 10
232.9875
 20
-74.64375
 10
232.9875
 20
-59.64375
 10
247.9875
 20
-59.64375
  0
LWPOLYLINE
  5
95
330
17
100
AcDbEntity
  8
CUTOUTS
100
AcDbPolyline
 90
5
 70
1
 10
247.9875
 20
-78.69375
 10
247.9875
 20
-93.69375
 10
232.9875
 20
-93.69375
 10
232.9875
 20
-78.69375
 10
247.9875
 20
-78.69375
  0
LWPOLYLINE
  5
96
330
17
100
AcDbEntity
  8
CUTOUTS
100
AcDbPolyline
 90
5
 70
1
 10
228.9375
 20
-38.2125
 10
228.9375
 20
-53.2125
 10
213.9375
 20
-53.2125
 10
213.9375
 20
-38.2125
 10
228.9375
 20
-38.2125
  0
LWPOLYLINE
  5
97
330
17
100
AcDbEntity
  8
CUTOUTS
100
AcDbPolyline
 90
5
 70
1
 10
228.9375
 20
-57.2625
 10
228.9375
 20
-72.2625
 10
213.9375
 20
-72.2625
 10
213.9375
 20
-57.2625
 10
228.9375
 20
-57.2625
  0
LWPOLYLINE
  5
98
330
17
100
AcDbEntity
  8
CUTOUTS
100
AcDbPolyline
 90
5
 70
1
 10
228.9375
 20
-76.3125
 10
228.9375
 20
-91.3125
 10
213.9375
 20
-91.3125
 10
213.9375
 20
-76.3125
 10
228.9375
 20
-76.3125
  0
LWPOLYLINE
  5
99
330
17
100
AcDbEntity
  8
CUTOUTS
100
AcDbPolyline
 90
5
 70
1
 10
209.8875
 20
-40.59375
 10
209.8875
 20
-55.59375
 10
194.8875
 20
-55.59375
 10
194.8875
 20
-40.59375
 10
209.8875
 20
-40.59375
  0
LWPOLYLINE
  5
9A
330
17
100
AcDbEntity
  8
CUTOUTS
100
AcDbPolyline
 90
5
 70
1
 10
209.8875
 20
-59.64375
 10
209.8875
 20
-74.64375
 10
194.8875
 20
-74.64375
 10
194.8875
 20
-59.64375
 10
209.8875
 20
-59.64375
  0
LWPOLYLINE
  5
9B
330
17
100
AcDbEntity
  8
CUTOUTS
100
AcDbPolyline
 90
5
 70
1
 10
209.8875
 20
-78.69375
 10
209.8875
 20
-93.69375
 10
194.8875
 20
-93.69375
 10
194.8875
 20
-78.69375
 10
209.8875
 20
-78.69375
  0
LWPOLYLINE
  5
9C
330
17
100
AcDbEntity
  8
CUTOUTS
100
AcDbPolyline
 90
5
 70
1
 10
190.8375
 20
-42.975
 10
190.8375
 20
-57.975
 10
175.8375
 20
-57.975
 10
175.8375
 20
-42.975
 10
190.8375
 20
-42.975
  0
LWPOLYLINE
  5
9D
330
17
100
AcDbEntity
  8
CUTOUTS
100
AcDbPolyline
 90
5
 70
1
 10
190.8375
 20
-62.025000000000006
 10
190.8375
 20
-77.025
 10
175.8375
 20
-77.025
 10
175.8375
 20
-62.025000000000006
 10
190.8375
 20
-62.025000000000006
  0
LWPOLYLINE
  5
9E
330
17
100
AcDbEntity
  8
CUTOUTS
100
AcDbPolyline
 90
5
 70
1
 10
190.8375
 20
-81.075
 10
190.8375
 20
-96.075
 10
175.8375
 20
-96.075
 10
175.8375
 20
-81.075
 10
190.8375
 20
-81.075
  0
LWPOLYLINE
  5
9F
330
17
100
AcDbEntity
  8
CUTOUTS
100
AcDbPolyline
 90
5
 70
1
 10
219.4125
 20
-100.125
 10
219.4125
 20
-115.125
 10
204.4125
 20
-115.125
 10
204.4125
 20
-100.125
 10
219.4125
 20
-100.125
  0
LWPOLYLINE
  5
A0
330
17
100
AcDbEntity
  8
CUTOUTS
100
AcDbPolyline
 90
5
 70
1
 10
196.88405544309248
 20
-100.91228660842083
 10
199.98736439157915
 20
-115.58775844309253
 10
185.31189255690745
 20
-118.6910673915792
 10
182.20858360842078
 20
-104.0155955569075
 10
196.88405544309248
 20
-100.91228660842083
  0
LWPOLYLINE
  5
A1
330
17
100
AcDbEntity
  8
CUTOUTS
100
AcDbPolyline
 90
5
 70
1
 10
179.1502681092029
 20
-115.70450970016277
 10
165.43433829983724
 20
-121.7768461092029
 10
159.3620018907971
 20
-108.06091629983725
 10
173.07793170016276
 20
-101.98857989079711
 10
179.1502681092029
 20
-115.70450970016277
  0
LWPOLYLINE
  5
A2
330
17
100
AcDbEntity
  8
CUTOUTS
100
AcDbPolyline
 90
129
 70
1
 10
271.8125
 20
-62.38125
 10
271.80918750456425
 20
-62.2463138955996
 10
271.79925799834854
 20
-62.11170286409371
 10
271.78273540240315
 20
-61.97774119524776
 10
271.75965952110886
 20
-61.844751614455646
 10
271.730085946285
 20
-61.71305450526602
 10
271.6940859232636
 20
-61.58296713755023
 10
271.6517461792533
 20
-61.4548029031714
 10
271.603168714406
 20
-61.328870560996
 10
271.54847055608946
 20
-61.20547349306673
 10
271.487783476958
 20
-61.08490897372851
 10
271.4212536775008
 20
-60.96746745346864
 10
271.349041433832
 20
-60.85343185919609
 10
271.2713207115718
 20
-60.74307691264581
 10
271.1882787467475
 20
-60.63666846854998
 10
271.10011559472616
 20
-60.5344628741707
 10
271.007043648263
 20
-60.436706351736994
 10
270.9092871258293
 20
-60.34363440527386
 10
270.80708153145
 20
-60.25547125325247
 10
270.7006730873542
 20
-60.172429288428226
 10
270.5903181408039
 20
-60.094708566168
 10
270.47628254653137
 20
-60.02249632249925
 10
270.3588410262715
 20
-59.95596652304202
 10
270.2382765069333
 20
-59.89527944391053
 10
270.11487943900397
 20
-59.84058128559396
 10
269.9889470968286
 20
-59.79200382074669
 10
269.86078286244975
 20
-59.74966407673643
 10
269.730695494734
 20
-59.71366405371501
 10
269.59899838554435
 20
-59.684090478891115
 10
269.4660088047522
 20
-59.66101459759685
 10
269.3320471359063
 20
-59.64449200165146
 10
269.1974361044004
 20
-59.63456249543578
 10
269.0625
 20
-59.63125
 10
268.9275638955996
 20
-59.63456249543578
 10
268.7929528640937
 20
-59.64449200165146
 10
268.6589911952478
 20
-59.66101459759685
 10
268.52600161445565
 20
-59.684090478891115
 10
268.394304505266
 20
-59.71366405371501
 10
268.26421713755025
 20
-59.74966407673643
 10
268.1360529031714
 20
-59.79200382074669
 10
268.01012056099603
 20
-59.84058128559396
 10
267.8867234930667
 20
-59.89527944391053
 10
267.7661589737285
 20
-59.95596652304202
 10
267.64871745346863
 20
-60.02249632249925
 10
267.5346818591961
 20
-60.094708566168
 10
267.4243269126458
 20
-60.172429288428226
 10
267.31791846855
 20
-60.25547125325247
 10
267.2157128741707
 20
-60.34363440527386
 10
267.117956351737
 20
-60.436706351736994
 10
267.02488440527384
 20
-60.5344628741707
 10
266.9367212532525
 20
-60.63666846854998
 10
266.8536792884282
 20
-60.74307691264581
 10
266.775958566168
 20
-60.85343185919609
 10
266.7037463224992
 20
-60.96746745346864
 10
266.637216523042
 20
-61.08490897372851
 10
266.57652944391054
 20
-61.20547349306673
 10
266.521831285594
 20
-61.328870560996
 10
266.4732538207467
 20
-61.4548029031714
 10
266.4309140767364
 20
-61.58296713755023
 10
266.394914053715
 20
-61.71305450526602
 10
266.36534047889114
 20
-61.844751614455646
 10
266.34226459759685
 20
-61.97774119524776
 10
266.32574200165146
 20
-62.11170286409371
 10
266.31581249543575
 20
-62.2463138955996
 10
266.3125
 20
-62.38125
 10
266.31581249543575
 20
-62.5161861044004
 10
266.32574200165146
 20
-62.650797135906295
 10
266.34226459759685
 20
-62.784758804752244
 10
266.36534047889114
 20
-62.91774838554436
 10
266.394914053715
 20
-63.04944549473397
 10
266.4309140767364
 20
-63.179532862449776
 10
266.4732538207467
 20
-63.307697096828605
 10
266.521831285594
 20
-63.433629439004
 10
266.57652944391054
 20
-63.557026506933276
 10
266.637216523042
 20
-63.67759102627149
 10
266.7037463224992
 20
-63.79503254653136
 10
266.775958566168
 20
-63.90906814080391
 10
266.8536792884282
 20
-64.0194230873542
 10
266.9367212532525
 20
-64.12583153145003
 10
267.02488440527384
 20
-64.2280371258293
 10
267.117956351737
 20
-64.325793648263
 10
267.2157128741707
 20
-64.41886559472614
 10
267.31791846855
 20
-64.50702874674752
 10
267.4243269126458
 20
-64.59007071157177
 10
267.5346818591961
 20
-64.66779143383201
 10
267.64871745346863
 20
-64.74000367750075
 10
267.7661589737285
 20
-64.80653347695798
 10
267.8867234930667
 20
-64.86722055608946
 10
268.01012056099603
 20
-64.92191871440603
 10
268.1360529031714
 20
-64.9704961792533
 10
268.26421713755025
 20
-65.01283592326358
 10
268.394304505266
 20
-65.048835946285
 10
268.52600161445565
 20
-65.07840952110888
 10
268.6589911952478
 20
-65.10148540240314
 10
268.7929528640937
 20
-65.11800799834855
 10
268.9275638955996
 20
-65.12793750456423
 10
269.0625
 20
-65.13125
 10
269.1974361044004
 20
-65.12793750456423
 10
269.3320471359063
 20
-65.11800799834855
 10
269.4660088047522
 20
-65.10148540240314
 10
269.59899838554435
 20
-65.07840952110888
 10
269.730695494734
 20
-65.048835946285
 10
269.86078286244975
 20
-65.01283592326358
 10
269.9889470968286
 20
-64.9704961792533
 10
270.11487943900397
 20
-64.92191871440603
 10
270.2382765069333
 20
-64.86722055608946
 10
270.3588410262715
 20
-64.80653347695798
 10
270.47628254653137
 20
-64.74000367750075
 10
270.5903181408039
 20
-64.66779143383201
 10
270.7006730873542
 20
-64.59007071157177
 10
270.80708153145
 20
-64.50702874674752
 10
270.9092871258293
 20
-64.41886559472614
 10
271.007043648263
 20
-64.325793648263
 10
271.10011559472616
 20
-64.2280371258293
 10
271.1882787467475
 20
-64.12583153145003
 10
271.2713207115718
 20
-64.0194230873542
 10
271.349041433832
 20
-63.90906814080391
 10
271.4212536775008
 20
-63.79503254653136
 10
271.487783476958
 20
-63.67759102627149
 10
271.54847055608946
 20
-63.557026506933276
 10
271.603168714406
 20
-63.433629439004
 10
271.6517461792533
 20
-63.307697096828605
 10
271.6940859232636
 20
-63.179532862449776
 10
271.730085946285
 20
-63.04944549473398
 10
271.75965952110886
 20
-62.91774838554436
 10
271.78273540240315
 20
-62.78475880475225
 10
271.79925799834854
 20
-62.650797135906295
 10
271.80918750456425
 20
-62.516186104400404
 10
271.8125
 20
-62.38125
  0
LWPOLYLINE
  5
A3
330
17
100
AcDbEntity
  8
CUTOUTS
100
AcDbPolyline
 90
129
 70
1
 10
271.8125
 20
-81.43125
 10
271.80918750456425
 20
-81.29631389559961
 10
271.79925799834854
 20
-81.16170286409371
 10
271.78273540240315
 20
-81.02774119524776
 10
271.75965952110886
 20
-80.89475161445566
 10
271.730085946285
 20
-80.76305450526603
 10
271.6940859232636
 20
-80.63296713755024
 10
271.6517461792533
 20
-80.5048029031714
 10
271.603168714406
 20
-80.378870560996
 10
271.54847055608946
 20
-80.25547349306673
 10
271.487783476958
 20
-80.13490897372851
 10
271.4212536775008
 20
-80.01746745346864
 10
271.349041433832
 20
-79.9034318591961
 10
271.2713207115718
 20
-79.79307691264582
 10
271.1882787467475
 20
-79.68666846854998
 10
271.10011559472616
 20
-79.58446287417071
 10
271.007043648263
 20
-79.486706351737
 10
270.9092871258293
 20
-79.39363440527387
 10
270.80708153145
 20
-79.30547125325248
 10
270.7006730873542
 20
-79.22242928842823
 10
270.5903181408039
 20
-79.144708566168
 10
270.47628254653137
 20
-79.07249632249926
 10
270.3588410262715
 20
-79.00596652304203
 10
270.2382765069333
 20
-78.94527944391054
 10
270.11487943900397
 20
-78.89058128559397
 10
269.9889470968286
 20
-78.8420038207467
 10
269.86078286244975
 20
-78.79966407673643
 10
269.730695494734
 20
-78.763664053715
 10
269.59899838554435
 20
-78.73409047889112
 10
269.4660088047522
 20
-78.71101459759686
 10
269.3320471359063
 20
-78.69449200165147
 10
269.1974361044004
 20
-78.68456249543578
 10
269.0625
 20
-78.68125
 10
268.9275638955996
 20
-78.68456249543578
 10
268.7929528640937
 20
-78.69449200165147
 10
268.6589911952478
 20
-78.71101459759686
 10
268.52600161445565
 20
-78.73409047889112
 10
268.394304505266
 20
-78.763664053715
 10
268.26421713755025
 20
-78.79966407673643
 10
268.1360529031714
 20
-78.8420038207467
 10
268.01012056099603
 20
-78.89058128559397
 10
267.8867234930667
 20
-78.94527944391054
 10
267.7661589737285
 20
-79.00596652304203
 10
267.64871745346863
 20
-79.07249632249926
 10
267.5346818591961
 20
-79.144708566168
 10
267.4243269126458
 20
-79.22242928842823
 10
267.31791846855
 20
-79.30547125325248
 10
267.2157128741707
 20
-79.39363440527387
 10
267.117956351737
 20
-79.486706351737
 10
267.02488440527384
 20
-79.58446287417071
 10
266.9367212532525
 20
-79.68666846854998
 10
266.8536792884282
 20
-79.79307691264582
 10
266.775958566168
 20
-79.9034318591961
 10
266.7037463224992
 20
-80.01746745346864
 10
266.637216523042
 20
-80.13490897372851
 10
266.57652944391054
 20
-80.25547349306673
 10
266.521831285594
 20
-80.378870560996
 10
266.4732538207467
 20
-80.5048029031714
 10
266.4309140767364
 20
-80.63296713755024
 10
266.394914053715
 20
-80.76305450526603
 10
266.36534047889114
 20
-80.89475161445566
 10
266.34226459759685
 20
-81.02774119524776
 10
266.32574200165146
 20
-81.16170286409371
 10
266.31581249543575
 20
-81.29631389559961
 10
266.3125
 20
-81.43125
 10
266.31581249543575
 20
-81.5661861044004
 10
266.32574200165146
 20
-81.7007971359063
 10
266.34226459759685
 20
-81.83475880475225
 10
266.36534047889114
 20
-81.96774838554435
 10
266.394914053715
 20
-82.09944549473398
 10
266.4309140767364
 20
-82.22953286244977
 10
266.4732538207467
 20
-82.35769709682862
 10
266.521831285594
 20
-82.483629439004
 10
266.57652944391054
 20
-82.60702650693328
 10
266.637216523042
 20
-82.7275910262715
 10
266.7037463224992
 20
-82.84503254653137
 10
266.775958566168
 20
-82.95906814080391
 10
266.8536792884282
 20
-83.0694230873542
 10
266.9367212532525
 20
-83.17583153145003
 10
267.02488440527384
 20
-83.2780371258293
 10
267.117956351737
 20
-83.37579364826301
 10
267.2157128741707
 20
-83.46886559472614
 10
267.31791846855
 20
-83.55702874674753
 10
267.4243269126458
 20
-83.64007071157178
 10
267.5346818591961
 20
-83.717791433832
 10
267.64871745346863
 20
-83.79000367750075
 10
267.7661589737285
 20
-83.85653347695798
 10
267.8867234930667
 20
-83.91722055608948
 10
268.01012056099603
 20
-83.97191871440604
 10
268.1360529031714
 20
-84.02049617925331
 10
268.26421713755025
 20
-84.06283592326358
 10
268.394304505266
 20
-84.098835946285
 10
268.52600161445565
 20
-84.12840952110889
 10
268.6589911952478
 20
-84.15148540240315
 10
268.7929528640937
 20
-84.16800799834854
 10
268.9275638955996
 20
-84.17793750456423
 10
269.0625
 20
-84.18125
 10
269.1974361044004
 20
-84.17793750456423
 10
269.3320471359063
 20
-84.16800799834854
 10
269.4660088047522
 20
-84.15148540240315
 10
269.59899838554435
 20
-84.12840952110889
 10
269.730695494734
 20
-84.098835946285
 10
269.86078286244975
 20
-84.06283592326358
 10
269.9889470968286
 20
-84.02049617925331
 10
270.11487943900397
 20
-83.97191871440604
 10
270.2382765069333
 20
-83.91722055608948
 10
270.3588410262715
 20
-83.85653347695798
 10
270.47628254653137
 20
-83.79000367750075
 10
270.5903181408039
 20
-83.717791433832
 10
270.7006730873542
 20
-83.64007071157178
 10
270.80708153145
 20
-83.55702874674753
 10
270.9092871258293
 20
-83.46886559472614
 10
271.007043648263
 20
-83.37579364826301
 10
271.10011559472616
 20
-83.2780371258293
 10
271.1882787467475
 20
-83.17583153145003
 10
271.2713207115718
 20
-83.0694230873542
 10
271.349041433832
 20
-82.95906814080391
 10
271.4212536775008
 20
-82.84503254653137
 10
271.487783476958
 20
-82.7275910262715
 10
271.54847055608946
 20
-82.60702650693328
 10
271.603168714406
 20
-82.483629439004
 10
271.6517461792533
 20
-82.35769709682862
 10
271.6940859232636
 20
-82.22953286244977
 10
271.730085946285
 20
-82.09944549473398
 10
271.75965952110886
 20
-81.96774838554435
 10
271.78273540240315
 20
-81.83475880475225
 10
271.79925799834854
 20
-81.7007971359063
 10
271.80918750456425
 20
-81.5661861044004
 10
271.8125
 20
-81.43125
  0
LWPOLYLINE
  5
A4
330
17
100
AcDbEntity
  8
CUTOUTS
100
AcDbPolyline
 90
129
 70
1
 10
233.7125
 20
-56.428125
 10
233.70918750456423
 20
-56.2931888955996
 10
233.69925799834854
 20
-56.15857786409371
 10
233.68273540240315
 20
-56.02461619524776
 10
233.6596595211089
 20
-55.891626614455646
 10
233.630085946285
 20
-55.75992950526602
 10
233.59408592326358
 20
-55.62984213755023
 10
233.5517461792533
 20
-55.5016779031714
 10
233.50316871440606
 20
-55.375745560996
 10
233.44847055608946
 20
-55.25234849306673
 10
233.387783476958
 20
-55.13178397372851
 10
233.32125367750075
 20
-55.01434245346864
 10
233.24904143383202
 20
-54.90030685919609
 10
233.17132071157178
 20
-54.78995191264581
 10
233.08827874674753
 20
-54.68354346854998
 10
233.00011559472614
 20
-54.5813378741707
 10
232.907043648263
 20
-54.483581351736994
 10
232.80928712582931
 20
-54.39050940527386
 10
232.70708153145003
 20
-54.30234625325247
 10
232.6006730873542
 20
-54.219304288428226
 10
232.4903181408039
 20
-54.141583566168
 10
232.37628254653137
 20
-54.06937132249925
 10
232.2588410262715
 20
-54.00284152304202
 10
232.1382765069333
 20
-53.94215444391053
 10
232.014879439004
 20
-53.88745628559396
 10
231.88894709682862
 20
-53.83887882074669
 10
231.7607828624498
 20
-53.79653907673643
 10
231.63069549473397
 20
-53.76053905371501
 10
231.49899838554435
 20
-53.730965478891115
 10
231.36600880475225
 20
-53.70788959759685
 10
231.2320471359063
 20
-53.69136700165146
 10
231.0974361044004
 20
-53.68143749543578
 10
230.9625
 20
-53.678125
 10
230.8275638955996
 20
-53.68143749543578
 10
230.6929528640937
 20
-53.69136700165146
 10
230.55899119524776
 20
-53.70788959759685
 10
230.42600161445566
 20
-53.730965478891115
 10
230.29430450526604
 20
-53.76053905371501
 10
230.16421713755022
 20
-53.79653907673643
 10
230.0360529031714
 20
-53.83887882074669
 10
229.910120560996
 20
-53.88745628559396
 10
229.78672349306672
 20
-53.94215444391053
 10
229.6661589737285
 20
-54.00284152304202
 10
229.54871745346864
 20
-54.06937132249925
 10
229.4346818591961
 20
-54.141583566168
 10
229.3243269126458
 20
-54.219304288428226
 10
229.21791846854998
 20
-54.30234625325247
 10
229.1157128741707
 20
-54.39050940527386
 10
229.017956351737
 20
-54.483581351736994
 10
228.92488440527387
 20
-54.5813378741707
 10
228.83672125325248
 20
-54.68354346854998
 10
228.75367928842823
 20
-54.78995191264581
 10
228.675958566168
 20
-54.90030685919609
 10
228.60374632249926
 20
-55.01434245346864
 10
228.53721652304202
 20
-55.13178397372851
 10
228.47652944391055
 20
-55.25234849306673
 10
228.42183128559395
 20
-55.375745560996
 10
228.3732538207467
 20
-55.5016779031714
 10
228.33091407673643
 20
-55.62984213755023
 10
228.29491405371502
 20
-55.75992950526602
 10
228.26534047889112
 20
-55.891626614455646
 10
228.24226459759686
 20
-56.02461619524776
 10
228.22574200165147
 20
-56.15857786409371
 10
228.21581249543578
 20
-56.2931888955996
 10
228.2125
 20
-56.428125
 10
228.21581249543578
 20
-56.5630611044004
 10
228.22574200165147
 20
-56.697672135906295
 10
228.24226459759686
 20
-56.831633804752244
 10
228.26534047889112
 20
-56.96462338554436
 10
228.29491405371502
 20
-57.09632049473397
 10
228.33091407673643
 20
-57.226407862449776
 10
228.3732538207467
 20
-57.354572096828605
 10
228.42183128559395
 20
-57.480504439004
 10
228.47652944391052
 20
-57.603901506933276
 10
228.53721652304202
 20
-57.72446602627149
 10
228.60374632249926
 20
-57.84190754653136
 10
228.675958566168
 20
-57.95594314080391
 10
228.75367928842823
 20
-58.06629808735419
 10
228.83672125325248
 20
-58.172706531450025
 10
228.92488440527387
 20
-58.2749121258293
 10
229.017956351737
 20
-58.37266864826301
 10
229.1157128741707
 20
-58.465740594726135
 10
229.21791846854998
 20
-58.55390374674753
 10
229.3243269126458
 20
-58.63694571157178
 10
229.4346818591961
 20
-58.714666433832
 10
229.54871745346864
 20
-58.78687867750075
 10
229.6661589737285
 20
-58.85340847695798
 10
229.78672349306672
 20
-58.91409555608947
 10
229.910120560996
 20
-58.96879371440604
 10
230.0360529031714
 20
-59.01737117925331
 10
230.16421713755022
 20
-59.05971092326357
 10
230.29430450526604
 20
-59.095710946284996
 10
230.42600161445566
 20
-59.12528452110888
 10
230.55899119524776
 20
-59.14836040240315
 10
230.6929528640937
 20
-59.164882998348546
 10
230.8275638955996
 20
-59.17481250456422
 10
230.9625
 20
-59.178125
 10
231.0974361044004
 20
-59.17481250456422
 10
231.2320471359063
 20
-59.164882998348546
 10
231.36600880475225
 20
-59.14836040240315
 10
231.49899838554435
 20
-59.12528452110889
 10
231.63069549473397
 20
-59.095710946284996
 10
231.7607828624498
 20
-59.05971092326357
 10
231.88894709682862
 20
-59.01737117925331
 10
232.014879439004
 20
-58.96879371440604
 10
232.1382765069333
 20
-58.91409555608947
 10
232.2588410262715
 20
-58.85340847695798
 10
232.37628254653137
 20
-58.78687867750075
 10
232.4903181408039
 20
-58.714666433832
 10
232.6006730873542
 20
-58.63694571157178
 10
232.70708153145003
 20
-58.55390374674753
 10
232.80928712582931
 20
-58.46574059472614
 10
232.907043648263
 20
-58.37266864826301
 10
233.00011559472614
 20
-58.2749121258293
 10
233.08827874674753
 20
-58.172706531450025
 10
233.17132071157178
 20
-58.06629808735419
 10
233.24904143383202
 20
-57.95594314080391
 10
233.32125367750075
 20
-57.84190754653136
 10
233.387783476958
 20
-57.72446602627149
 10
233.44847055608946
 20
-57.603901506933276
 10
233.50316871440603
 20
-57.480504439004
 10
233.5517461792533
 20
-57.354572096828605
 10
233.59408592326358
 20
-57.226407862449776
 10
233.630085946285
 20
-57.09632049473398
 10
233.6596595211089
 20
-56.96462338554436
 10
233.68273540240315
 20
-56.83163380475225
 10
233.69925799834854
 20
-56.697672135906295
 10
233.70918750456423
 20
-56.563061104400404
 10
233.7125
 20
-56.428125
  0
LWPOLYLINE
  5
A5
330
17
100
AcDbEntity
  8
CUTOUTS
100
AcDbPolyline
 90
129
 70
1
 10
233.7125
 20
-75.478125
 10
233.70918750456423
 20
-75.34318889559961
 10
233.69925799834854
 20
-75.20857786409371
 10
233.68273540240315
 20
-75.07461619524776
 10
233.6596595211089
 20
-74.94162661445566
 10
233.630085946285
 20
-74.80992950526603
 10
233.59408592326358
 20
-74.67984213755024
 10
233.5517461792533
 20
-74.5516779031714
 10
233.50316871440606
 20
-74.425745560996
 10
233.44847055608946
 20
-74.30234849306673
 10
233.387783476958
 20
-74.18178397372851
 10
233.32125367750075
 20
-74.06434245346864
 10
233.24904143383202
 20
-73.9503068591961
 10
233.17132071157178
 20
-73.83995191264582
 10
233.08827874674753
 20
-73.73354346854998
 10
233.00011559472614
 20
-73.63133787417071
 10
232.907043648263
 20
-73.533581351737
 10
232.80928712582931
 20
-73.44050940527387
 10
232.70708153145003
 20
-73.35234625325248
 10
232.6006730873542
 20
-73.26930428842823
 10
232.4903181408039
 20
-73.191583566168
 10
232.37628254653137
 20
-73.11937132249926
 10
232.2588410262715
 20
-73.05284152304203
 10
232.1382765069333
 20
-72.99215444391054
 10
232.014879439004
 20
-72.93745628559397
 10
231.88894709682862
 20
-72.8888788207467
 10
231.7607828624498
 20
-72.84653907673643
 10
231.63069549473397
 20
-72.810539053715
 10
231.49899838554435
 20
-72.78096547889112
 10
231.36600880475225
 20
-72.75788959759686
 10
231.2320471359063
 20
-72.74136700165147
 10
231.0974361044004
 20
-72.73143749543578
 10
230.9625
 20
-72.728125
 10
230.8275638955996
 20
-72.73143749543578
 10
230.6929528640937
 20
-72.74136700165147
 10
230.55899119524776
 20
-72.75788959759686
 10
230.42600161445566
 20
-72.78096547889112
 10
230.29430450526604
 20
-72.810539053715
 10
230.16421713755022
 20
-72.84653907673643
 10
230.0360529031714
 20
-72.8888788207467
 10
229.910120560996
 20
-72.93745628559397
 10
229.78672349306672
 20
-72.99215444391054
 10
229.6661589737285
 20
-73.05284152304203
 10
229.54871745346864
 20
-73.11937132249926
 10
229.4346818591961
 20
-73.191583566168
 10
229.3243269126458
 20
-73.26930428842823
 10
229.21791846854998
 20
-73.35234625325248
 10
229.1157128741707
 20
-73.44050940527387
 10
229.017956351737
 20
-73.533581351737
 10
228.92488440527387
 20
-73.63133787417071
 10
228.83672125325248
 20
-73.73354346854998
 10
228.75367928842823
 20
-73.83995191264582
 10
228.675958566168
 20
-73.9503068591961
 10
228.60374632249926
 20
-74.06434245346864
 10
228.53721652304202
 20
-74.18178397372851
 10
228.47652944391055
 20
-74.30234849306673
 10
228.42183128559395
 20
-74.425745560996
 10
228.3732538207467
 20
-74.5516779031714
 10
228.33091407673643
 20
-74.67984213755024
 10
228.29491405371502
 20
-74.80992950526603
 10
228.26534047889112
 20
-74.94162661445566
 10
228.24226459759686
 20
-75.07461619524776
 10
228.22574200165147
 20
-75.20857786409371
 10
228.21581249543578
 20
-75.34318889559961
 10
228.2125
 20
-75.478125
 10
228.21581249543578
 20
-75.6130611044004
 10
228.22574200165147
 20
-75.7476721359063
 10
228.24226459759686
 20
-75.88163380475225
 10
228.26534047889112
 20
-76.01462338554435
 10
228.29491405371502
 20
-76.14632049473398
 10
228.33091407673643
 20
-76.27640786244977
 10
228.3732538207467
 20
-76.40457209682862
 10
228.42183128559395
 20
-76.530504439004
 10
228.47652944391052
 20
-76.65390150693328
 10
228.53721652304202
 20
-76.7744660262715
 10
228.60374632249926
 20
-76.89190754653137
 10
228.675958566168
 20
-77.00594314080391
 10
228.75367928842823
 20
-77.1162980873542
 10
228.83672125325248
 20
-77.22270653145003
 10
228.92488440527387
 20
-77.3249121258293
 10
229.017956351737
 20
-77.42266864826301
 10
229.1157128741707
 20
-77.51574059472614
 10
229.21791846854998
 20
-77.60390374674753
 10
229.3243269126458
 20
-77.68694571157178
 10
229.4346818591961
 20
-77.764666433832
 10
229.54871745346864
 20
-77.83687867750075
 10
229.6661589737285
 20
-77.90340847695798
 10
229.78672349306672
 20
-77.96409555608948
 10
229.910120560996
 20
-78.01879371440604
 10
230.0360529031714
 20
-78.06737117925331
 10
230.16421713755022
 20
-78.10971092326358
 10
230.29430450526604
 20
-78.145710946285
 10
230.42600161445566
 20
-78.17528452110889
 10
230.55899119524776
 20
-78.19836040240315
 10
230.6929528640937
 20
-78.21488299834854
 10
230.8275638955996
 20
-78.22481250456423
 10
230.9625
 20
-78.228125
 10
231.0974361044004
 20
-78.22481250456423
 10
231.2320471359063
 20
-78.21488299834854
 10
231.36600880475225
 20
-78.19836040240315
 10
231.49899838554435
 20
-78.17528452110889
 10
231.63069549473397
 20
-78.145710946285
 10
231.7607828624498
 20
-78.10971092326358
 10
231.88894709682862
 20
-78.06737117925331
 10
232.014879439004
 20
-78.01879371440604
 10
232.1382765069333
 20
-77.96409555608948
 10
232.2588410262715
 20
-77.90340847695798
 10
232.37628254653137
 20
-77.83687867750075
 10
232.4903181408039
 20
-77.764666433832
 10
232.6006730873542
 20
-77.68694571157178
 10
232.70708153145003
 20
-77.60390374674753
 10
232.80928712582931
 20
-77.51574059472614
 10
232.907043648263
 20
-77.42266864826301
 10
233.00011559472614
 20
-77.3249121258293
 10
233.08827874674753
 20
-77.22270653145003
 10
233.17132071157178
 20
-77.1162980873542
 10
233.24904143383202
 20
-77.00594314080391
 10
233.32125367750075
 20
-76.89190754653137
 10
233.387783476958
 20
-76.7744660262715
 10
233.44847055608946
 20
-76.65390150693328
 10
233.50316871440603
 20
-76.530504439004
 10
233.5517461792533
 20
-76.40457209682862
 10
233.59408592326358
 20
-76.27640786244977
 10
233.630085946285
 20
-76.14632049473398
 10
233.6596595211089
 20
-76.01462338554435
 10
233.68273540240315
 20
-75.88163380475225
 10
233.69925799834854
 20
-75.7476721359063
 10
233.70918750456423
 20
-75.6130611044004
 10
233.7125
 20
-75.478125
  0
LWPOLYLINE
  5
A6
330
17
100
AcDbEntity
  8
CUTOUTS
100
AcDbPolyline
 90
129
 70
1
 10
195.6125
 20
-77.859375
 10
195.60918750456423
 20
-77.7244388955996
 10
195.59925799834855
 20
-77.5898278640937
 10
195.58273540240316
 20
-77.45586619524775
 10
195.5596595211089
 20
-77.32287661445565
 10
195.530085946285
 20
-77.19117950526602
 10
195.49408592326358
 20
-77.06109213755023
 10
195.45174617925332
 20
-76.93292790317139
 10
195.40316871440604
 20
-76.806995560996
 10
195.34847055608947
 20
-76.68359849306673
 10
195.287783476958
 20
-76.56303397372851
 10
195.22125367750075
 20
-76.44559245346863
 10
195.149041433832
 20
-76.3315568591961
 10
195.0713207115718
 20
-76.22120191264581
 10
194.98827874674754
 20
-76.11479346854998
 10
194.90011559472615
 20
-76.0125878741707
 10
194.807043648263
 20
-75.91483135173699
 10
194.70928712582932
 20
-75.82175940527387
 10
194.60708153145004
 20
-75.73359625325247
 10
194.50067308735422
 20
-75.65055428842822
 10
194.3903181408039
 20
-75.572833566168
 10
194.27628254653138
 20
-75.50062132249926
 10
194.15884102627152
 20
-75.43409152304203
 10
194.0382765069333
 20
-75.37340444391053
 10
193.914879439004
 20
-75.31870628559396
 10
193.78894709682862
 20
-75.27012882074669
 10
193.6607828624498
 20
-75.22778907673643
 10
193.53069549473398
 20
-75.191789053715
 10
193.39899838554436
 20
-75.16221547889111
 10
193.26600880475226
 20
-75.13913959759685
 10
193.1320471359063
 20
-75.12261700165146
 10
192.9974361044004
 20
-75.11268749543578
 10
192.8625
 20
-75.109375
 10
192.72756389559962
 20
-75.11268749543578
 10
192.59295286409372
 20
-75.12261700165146
 10
192.45899119524776
 20
-75.13913959759685
 10
192.32600161445566
 20
-75.16221547889111
 10
192.19430450526605
 20
-75.191789053715
 10
192.06421713755023
 20
-75.22778907673643
 10
191.9360529031714
 20
-75.27012882074669
 10
191.810120560996
 20
-75.31870628559396
 10
191.68672349306672
 20
-75.37340444391053
 10
191.5661589737285
 20
-75.43409152304203
 10
191.44871745346865
 20
-75.50062132249926
 10
191.3346818591961
 20
-75.572833566168
 10
191.2243269126458
 20
-75.65055428842822
 10
191.11791846855
 20
-75.73359625325247
 10
191.0157128741707
 20
-75.82175940527387
 10
190.91795635173702
 20
-75.91483135173699
 10
190.82488440527388
 20
-76.0125878741707
 10
190.73672125325248
 20
-76.11479346854998
 10
190.65367928842824
 20
-76.22120191264581
 10
190.575958566168
 20
-76.3315568591961
 10
190.50374632249927
 20
-76.44559245346863
 10
190.43721652304203
 20
-76.56303397372851
 10
190.37652944391056
 20
-76.68359849306673
 10
190.321831285594
 20
-76.806995560996
 10
190.2732538207467
 20
-76.93292790317139
 10
190.23091407673644
 20
-77.06109213755023
 10
190.19491405371502
 20
-77.19117950526602
 10
190.16534047889112
 20
-77.32287661445565
 10
190.14226459759686
 20
-77.45586619524775
 10
190.12574200165147
 20
-77.5898278640937
 10
190.1158124954358
 20
-77.7244388955996
 10
190.1125
 20
-77.859375
 10
190.1158124954358
 20
-77.9943111044004
 10
190.12574200165147
 20
-78.1289221359063
 10
190.14226459759686
 20
-78.26288380475225
 10
190.16534047889112
 20
-78.39587338554435
 10
190.19491405371502
 20
-78.52757049473398
 10
190.23091407673644
 20
-78.65765786244977
 10
190.2732538207467
 20
-78.78582209682861
 10
190.32183128559396
 20
-78.911754439004
 10
190.37652944391056
 20
-79.03515150693327
 10
190.43721652304203
 20
-79.15571602627149
 10
190.50374632249927
 20
-79.27315754653137
 10
190.575958566168
 20
-79.3871931408039
 10
190.65367928842824
 20
-79.49754808735419
 10
190.73672125325248
 20
-79.60395653145002
 10
190.82488440527388
 20
-79.7061621258293
 10
190.91795635173702
 20
-79.80391864826301
 10
191.0157128741707
 20
-79.89699059472613
 10
191.11791846855
 20
-79.98515374674753
 10
191.2243269126458
 20
-80.06819571157178
 10
191.3346818591961
 20
-80.145916433832
 10
191.44871745346865
 20
-80.21812867750074
 10
191.5661589737285
 20
-80.28465847695797
 10
191.68672349306672
 20
-80.34534555608947
 10
191.810120560996
 20
-80.40004371440604
 10
191.9360529031714
 20
-80.44862117925331
 10
192.06421713755023
 20
-80.49096092326357
 10
192.19430450526605
 20
-80.526960946285
 10
192.32600161445566
 20
-80.55653452110889
 10
192.45899119524776
 20
-80.57961040240315
 10
192.59295286409372
 20
-80.59613299834854
 10
192.72756389559962
 20
-80.60606250456422
 10
192.8625
 20
-80.609375
 10
192.9974361044004
 20
-80.60606250456422
 10
193.1320471359063
 20
-80.59613299834854
 10
193.26600880475226
 20
-80.57961040240315
 10
193.39899838554436
 20
-80.55653452110889
 10
193.53069549473398
 20
-80.526960946285
 10
193.6607828624498
 20
-80.49096092326357
 10
193.78894709682862
 20
-80.44862117925331
 10
193.914879439004
 20
-80.40004371440604
 10
194.0382765069333
 20
-80.34534555608947
 10
194.15884102627152
 20
-80.28465847695797
 10
194.27628254653138
 20
-80.21812867750074
 10
194.3903181408039
 20
-80.145916433832
 10
194.50067308735422
 20
-80.06819571157178
 10
194.60708153145004
 20
-79.98515374674753
 10
194.70928712582932
 20
-79.89699059472613
 10
194.807043648263
 20
-79.80391864826301
 10
194.90011559472615
 20
-79.7061621258293
 10
194.98827874674754
 20
-79.60395653145002
 10
195.0713207115718
 20
-79.49754808735419
 10
195.149041433832
 20
-79.3871931408039
 10
195.22125367750075
 20
-79.27315754653137
 10
195.287783476958
 20
-79.15571602627149
 10
195.34847055608947
 20
-79.03515150693327
 10
195.40316871440604
 20
-78.911754439004
 10
195.45174617925332
 20
-78.78582209682861
 10
195.49408592326358
 20
-78.65765786244977
 10
195.530085946285
 20
-78.52757049473398
 10
195.5596595211089
 20
-78.39587338554435
 10
195.58273540240316
 20
-78.26288380475225
 10
195.59925799834855
 20
-78.1289221359063
 10
195.60918750456423
 20
-77.9943111044004
 10
195.6125
 20
-77.859375
  0
LWPOLYLINE
  5
A7
330
17
100
AcDbEntity
  8
CUTOUTS
100
AcDbPolyline
 90
129
 70
1
 10
204.25
 20
-108.7
 10
204.24668750456422
 20
-108.56506389559961
 10
204.23675799834854
 20
-108.43045286409371
 10
204.22023540240315
 20
-108.29649119524775
 10
204.1971595211089
 20
-108.16350161445565
 10
204.167585946285
 20
-108.03180450526602
 10
204.13158592326357
 20
-107.90171713755024
 10
204.0892461792533
 20
-107.77355290317139
 10
204.04066871440602
 20
-107.647620560996
 10
203.98597055608946
 20
-107.52422349306673
 10
203.925283476958
 20
-107.40365897372851
 10
203.85875367750074
 20
-107.28621745346864
 10
203.78654143383199
 20
-107.1721818591961
 10
203.70882071157178
 20
-107.06182691264581
 10
203.62577874674753
 20
-106.95541846854998
 10
203.53761559472613
 20
-106.85321287417071
 10
203.444543648263
 20
-106.755456351737
 10
203.3467871258293
 20
-106.66238440527387
 10
203.24458153145002
 20
-106.57422125325247
 10
203.1381730873542
 20
-106.49117928842823
 10
203.0278181408039
 20
-106.413458566168
 10
202.91378254653137
 20
-106.34124632249926
 10
202.7963410262715
 20
-106.27471652304203
 10
202.6757765069333
 20
-106.21402944391053
 10
202.552379439004
 20
-106.15933128559396
 10
202.4264470968286
 20
-106.1107538207467
 10
202.29828286244978
 20
-106.06841407673643
 10
202.16819549473396
 20
-106.032414053715
 10
202.03649838554435
 20
-106.00284047889112
 10
201.90350880475225
 20
-105.97976459759685
 10
201.7695471359063
 20
-105.96324200165147
 10
201.6349361044004
 20
-105.95331249543578
 10
201.5
 20
-105.95
 10
201.3650638955996
 20
-105.95331249543578
 10
201.2304528640937
 20
-105.96324200165147
 10
201.09649119524775
 20
-105.97976459759685
 10
200.96350161445565
 20
-106.00284047889112
 10
200.83180450526604
 20
-106.032414053715
 10
200.70171713755022
 20
-106.06841407673643
 10
200.5735529031714
 20
-106.1107538207467
 10
200.447620560996
 20
-106.15933128559396
 10
200.3242234930667
 20
-106.21402944391053
 10
200.2036589737285
 20
-106.27471652304203
 10
200.08621745346863
 20
-106.34124632249926
 10
199.9721818591961
 20
-106.413458566168
 10
199.8618269126458
 20
-106.49117928842823
 10
199.75541846854998
 20
-106.57422125325247
 10
199.6532128741707
 20
-106.66238440527387
 10
199.555456351737
 20
-106.755456351737
 10
199.46238440527387
 20
-106.85321287417071
 10
199.37422125325247
 20
-106.95541846854998
 10
199.29117928842822
 20
-107.06182691264581
 10
199.213458566168
 20
-107.1721818591961
 10
199.14124632249926
 20
-107.28621745346864
 10
199.074716523042
 20
-107.40365897372851
 10
199.01402944391054
 20
-107.52422349306673
 10
198.95933128559398
 20
-107.647620560996
 10
198.9107538207467
 20
-107.77355290317139
 10
198.86841407673643
 20
-107.90171713755024
 10
198.832414053715
 20
-108.03180450526602
 10
198.8028404788911
 20
-108.16350161445565
 10
198.77976459759685
 20
-108.29649119524775
 10
198.76324200165146
 20
-108.43045286409371
 10
198.75331249543578
 20
-108.56506389559961
 10
198.75
 20
-108.7
 10
198.75331249543578
 20
-108.8349361044004
 10
198.76324200165146
 20
-108.9695471359063
 10
198.77976459759685
 20
-109.10350880475225
 10
198.8028404788911
 20
-109.23649838554435
 10
198.832414053715
 20
-109.36819549473398
 10
198.86841407673643
 20
-109.49828286244977
 10
198.9107538207467
 20
-109.62644709682861
 10
198.95933128559395
 20
-109.752379439004
 10
199.01402944391054
 20
-109.87577650693328
 10
199.074716523042
 20
-109.9963410262715
 10
199.14124632249926
 20
-110.11378254653137
 10
199.213458566168
 20
-110.2278181408039
 10
199.29117928842822
 20
-110.33817308735419
 10
199.37422125325247
 20
-110.44458153145003
 10
199.46238440527387
 20
-110.5467871258293
 10
199.555456351737
 20
-110.64454364826301
 10
199.6532128741707
 20
-110.73761559472614
 10
199.75541846854998
 20
-110.82577874674753
 10
199.8618269126458
 20
-110.90882071157178
 10
199.9721818591961
 20
-110.986541433832
 10
200.08621745346863
 20
-111.05875367750075
 10
200.2036589737285
 20
-111.12528347695797
 10
200.3242234930667
 20
-111.18597055608947
 10
200.447620560996
 20
-111.24066871440604
 10
200.5735529031714
 20
-111.28924617925331
 10
200.70171713755022
 20
-111.33158592326357
 10
200.83180450526604
 20
-111.367585946285
 10
200.96350161445565
 20
-111.39715952110889
 10
201.09649119524775
 20
-111.42023540240315
 10
201.2304528640937
 20
-111.43675799834854
 10
201.3650638955996
 20
-111.44668750456422
 10
201.5
 20
-111.45
 10
201.6349361044004
 20
-111.44668750456422
 10
201.7695471359063
 20
-111.43675799834854
 10
201.90350880475225
 20
-111.42023540240315
 10
202.03649838554435
 20
-111.39715952110889
 10
202.16819549473396
 20
-111.367585946285
 10
202.29828286244978
 20
-111.33158592326357
 10
202.4264470968286
 20
-111.28924617925331
 10
202.552379439004
 20
-111.24066871440604
 10
202.6757765069333
 20
-111.18597055608947
 10
202.7963410262715
 20
-111.12528347695797
 10
202.91378254653137
 20
-111.05875367750075
 10
203.0278181408039
 20
-110.986541433832
 10
203.1381730873542
 20
-110.90882071157178
 10
203.24458153145002
 20
-110.82577874674753
 10
203.3467871258293
 20
-110.73761559472614
 10
203.444543648263
 20
-110.64454364826301
 10
203.53761559472613
 20
-110.5467871258293
 10
203.62577874674753
 20
-110.44458153145003
 10
203.70882071157178
 20
-110.33817308735419
 10
203.78654143383199
 20
-110.2278181408039
 10
203.85875367750074
 20
-110.11378254653137
 10
203.925283476958
 20
-109.9963410262715
 10
203.98597055608946
 20
-109.87577650693328
 10
204.04066871440602
 20
-109.752379439004
 10
204.0892461792533
 20
-109.62644709682861
 10
204.13158592326357
 20
-109.49828286244977
 10
204.167585946285
 20
-109.36819549473398
 10
204.1971595211089
 20
-109.23649838554435
 10
204.22023540240315
 20
-109.10350880475225
 10
204.23675799834854
 20
-108.9695471359063
 10
204.24668750456422
 20
-108.8349361044004
 10
204.25
 20
-108.7
  0
LWPOLYLINE
  5
A8
330
17
100
AcDbEntity
  8
CUTOUTS
100
AcDbPolyline
 90
129
 70
1
 10
252.7625
 20
-88.0
 10
252.7591875045642
 20
-87.8650638955996
 10
252.74925799834853
 20
-87.7304528640937
 10
252.73273540240314
 20
-87.59649119524775
 10
252.70965952110888
 20
-87.46350161445565
 10
252.68008594628498
 20
-87.33180450526602
 10
252.64408592326356
 20
-87.20171713755023
 10
252.6017461792533
 20
-87.07355290317139
 10
252.553168714406
 20
-86.947620560996
 10
252.49847055608944
 20
-86.82422349306673
 10
252.43778347695797
 20
-86.70365897372851
 10
252.37125367750073
 20
-86.58621745346863
 10
252.29904143383197
 20
-86.4721818591961
 10
252.22132071157176
 20
-86.36182691264581
 10
252.13827874674752
 20
-86.25541846854998
 10
252.05011559472612
 20
-86.1532128741707
 10
251.95704364826298
 20
-86.05545635173699
 10
251.8592871258293
 20
-85.96238440527387
 10
251.75708153145
 20
-85.87422125325247
 10
251.6506730873542
 20
-85.79117928842822
 10
251.5403181408039
 20
-85.713458566168
 10
251.42628254653135
 20
-85.64124632249926
 10
251.3088410262715
 20
-85.57471652304203
 10
251.18827650693328
 20
-85.51402944391053
 10
251.064879439004
 20
-85.45933128559396
 10
250.9389470968286
 20
-85.41075382074669
 10
250.81078286244977
 20
-85.36841407673643
 10
250.68069549473395
 20
-85.332414053715
 10
250.54899838554434
 20
-85.30284047889111
 10
250.41600880475224
 20
-85.27976459759685
 10
250.28204713590628
 20
-85.26324200165146
 10
250.14743610440038
 20
-85.25331249543578
 10
250.0125
 20
-85.25
 10
249.8775638955996
 20
-85.25331249543578
 10
249.7429528640937
 20
-85.26324200165146
 10
249.60899119524774
 20
-85.27976459759685
 10
249.47600161445564
 20
-85.30284047889111
 10
249.34430450526602
 20
-85.332414053715
 10
249.2142171375502
 20
-85.36841407673643
 10
249.08605290317138
 20
-85.41075382074669
 10
248.960120560996
 20
-85.45933128559396
 10
248.8367234930667
 20
-85.51402944391053
 10
248.71615897372848
 20
-85.57471652304203
 10
248.59871745346862
 20
-85.64124632249926
 10
248.4846818591961
 20
-85.713458566168
 10
248.37432691264578
 20
-85.79117928842822
 10
248.26791846854996
 20
-85.87422125325247
 10
248.16571287417068
 20
-85.96238440527387
 10
248.067956351737
 20
-86.05545635173699
 10
247.97488440527385
 20
-86.1532128741707
 10
247.88672125325246
 20
-86.25541846854998
 10
247.8036792884282
 20
-86.36182691264581
 10
247.72595856616798
 20
-86.4721818591961
 10
247.65374632249925
 20
-86.58621745346863
 10
247.587216523042
 20
-86.70365897372851
 10
247.52652944391053
 20
-86.82422349306673
 10
247.47183128559396
 20
-86.947620560996
 10
247.42325382074668
 20
-87.07355290317139
 10
247.38091407673642
 20
-87.20171713755023
 10
247.344914053715
 20
-87.33180450526602
 10
247.3153404788911
 20
-87.46350161445565
 10
247.29226459759684
 20
-87.59649119524775
 10
247.27574200165145
 20
-87.7304528640937
 10
247.26581249543577
 20
-87.8650638955996
 10
247.2625
 20
-88.0
 10
247.26581249543577
 20
-88.1349361044004
 10
247.27574200165145
 20
-88.2695471359063
 10
247.29226459759684
 20
-88.40350880475225
 10
247.3153404788911
 20
-88.53649838554435
 10
247.344914053715
 20
-88.66819549473398
 10
247.38091407673642
 20
-88.79828286244977
 10
247.42325382074668
 20
-88.92644709682861
 10
247.47183128559394
 20
-89.052379439004
 10
247.52652944391053
 20
-89.17577650693327
 10
247.587216523042
 20
-89.29634102627149
 10
247.65374632249925
 20
-89.41378254653137
 10
247.72595856616798
 20
-89.5278181408039
 10
247.8036792884282
 20
-89.63817308735419
 10
247.88672125325246
 20
-89.74458153145002
 10
247.97488440527385
 20
-89.8467871258293
 10
248.067956351737
 20
-89.94454364826301
 10
248.16571287417068
 20
-90.03761559472613
 10
248.26791846854996
 20
-90.12577874674753
 10
248.37432691264578
 20
-90.20882071157178
 10
248.4846818591961
 20
-90.286541433832
 10
248.59871745346862
 20
-90.35875367750074
 10
248.71615897372848
 20
-90.42528347695797
 10
248.8367234930667
 20
-90.48597055608947
 10
248.960120560996
 20
-90.54066871440604
 10
249.08605290317138
 20
-90.58924617925331
 10
249.2142171375502
 20
-90.63158592326357
 10
249.34430450526602
 20
-90.667585946285
 10
249.47600161445564
 20
-90.69715952110889
 10
249.60899119524774
 20
-90.72023540240315
 10
249.7429528640937
 20
-90.73675799834854
 10
249.8775638955996
 20
-90.74668750456422
 10
250.0125
 20
-90.75
 10
250.14743610440038
 20
-90.74668750456422
 10
250.28204713590628
 20
-90.73675799834854
 10
250.41600880475224
 20
-90.72023540240315
 10
250.54899838554434
 20
-90.69715952110889
 10
250.68069549473395
 20
-90.667585946285
 10
250.81078286244977
 20
-90.63158592326357
 10
250.9389470968286
 20
-90.58924617925331
 10
251.064879439004
 20
-90.54066871440604
 10
251.18827650693328
 20
-90.48597055608947
 10
251.3088410262715
 20
-90.42528347695797
 10
251.42628254653135
 20
-90.35875367750074
 10
251.5403181408039
 20
-90.286541433832
 10
251.6506730873542
 20
-90.20882071157178
 10
251.75708153145
 20
-90.12577874674753
 10
251.8592871258293
 20
-90.03761559472613
 10
251.95704364826298
 20
-89.94454364826301
 10
252.05011559472612
 20
-89.8467871258293
 10
252.13827874674752
 20
-89.74458153145002
 10
252.22132071157176
 20
-89.63817308735419
 10
252.29904143383197
 20
-89.5278181408039
 10
252.37125367750073
 20
-89.41378254653137
 10
252.43778347695797
 20
-89.29634102627149
 10
252.49847055608944
 20
-89.17577650693327
 10
252.553168714406
 20
-89.052379439004
 10
252.6017461792533
 20
-88.92644709682861
 10
252.64408592326356
 20
-88.79828286244977
 10
252.68008594628498
 20
-88.66819549473398
 10
252.70965952110888
 20
-88.53649838554435
 10
252.73273540240314
 20
-88.40350880475225
 10
252.74925799834853
 20
-88.2695471359063
 10
252.7591875045642
 20
-88.1349361044004
 10
252.7625
 20
-88.0
  0
ENDSEC
  0
SECTION
  2
OBJECTS
  0
DICTIONARY
  5
A
330
0
100
AcDbDictionary
281
1
  3
ACAD_COLOR
350
B
  3
ACAD_GROUP
350
C
  3
ACAD_LAYOUT
350
D
  3
ACAD_MATERIAL
350
E
  3
ACAD_MLEADERSTYLE
350
F
  3
ACAD_MLINESTYLE
350
10
  3
ACAD_PLOTSETTINGS
350
11
  3
ACAD_PLOTSTYLENAME
350
12
  3
ACAD_SCALELIST
350
14
  3
ACAD_TABLESTYLE
350
15
  3
ACAD_VISUALSTYLE
350
16
  3
EZDXF_META
350
2D
  0
DICTIONARY
  5
B
330
A
100
AcDbDictionary
281
1
  0
DICTIONARY
  5
C
330
A
100
AcDbDictionary
281
1
  0
DICTIONARY
  5
D
330
A
100
AcDbDictionary
281
1
  3
Model
350
1A
  3
Layout1
350
1E
  0
DICTIONARY
  5
E
330
A
100
AcDbDictionary
281
1
  3
ByBlock
350
1F
  3
ByLayer
350
20
  3
Global
350
21
  0
DICTIONARY
  5
F
330
A
100
AcDbDictionary
281
1
  3
Standard
350
2C
  0
DICTIONARY
  5
10
330
A
100
AcDbDictionary
281
1
  3
Standard
350
22
  0
DICTIONARY
  5
11
330
A
100
AcDbDictionary
281
1
  0
ACDBDICTIONARYWDFLT
  5
12
330
A
100
AcDbDictionary
281
1
  3
Normal
350
13
100
AcDbDictionaryWithDefault
340
13
  0
ACDBPLACEHOLDER
  5
13
330
12
  0
DICTIONARY
  5
14
330
A
100
AcDbDictionary
281
1
  0
DICTIONARY
  5
15
330
A
100
AcDbDictionary
281
1
  0
DICTIONARY
  5
16
330
A
100
AcDbDictionary
281
1
  3
2dWireframe
350
5A
  3
Basic
350
5B
  3
Brighten
350
5C
  3
ColorChange
350
5D
  3
Conceptual
350
5E
  3
Dim
350
5F
  3
EdgeColorOff
350
60
  3
Facepattern
350
61
  3
Flat
350
62
  3
FlatWithEdges
350
63
  3
Gouraud
350
64
  3
GouraudWithEdges
350
65
  3
Hidden
350
66
  3
JitterOff
350
67
  3
Linepattern
350
68
  3
Modeling
350
69
  3
OverhangOff
350
6A
  3
Realistic
350
6B
  3
Shaded
350
6C
  3
Shaded with edges
350
6D
  3
Shades of Gray
350
6E
  3
Sketchy
350
6F
  3
Thicken
350
70
  3
Wireframe
350
71
  3
X-Ray
350
72
  0
LAYOUT
  5
1A
330
D
100
AcDbPlotSettings
  1

  4
A3
  6

 40
7.5
 41
20.0
 42
7.5
 43
20.0
 44
420.0
 45
297.0
 46
0.0
 47
0.0
 48
0.0
 49
0.0
140
0.0
141
0.0
142
1.0
143
1.0
 70
1024
 72
1
 73
0
 74
5
  7

 75
16
 76
0
 77
2
 78
300
147
1.0
148
0.0
149
0.0
100
AcDbLayout
  1
Model
 70
1
 71
0
 10
0.0
 20
0.0
 11
420.0
 21
297.0
 12
0.0
 22
0.0
 32
0.0
 14
1e+20
 24
1e+20
 34
1e+20
 15
-1e+20
 25
-1e+20
 35
-1e+20
146
0.0
 13
0.0
 23
0.0
 33
0.0
 16
1.0
 26
0.0
 36
0.0
 17
0.0
 27
1.0
 37
0.0
 76
1
330
17
  0
LAYOUT
  5
1E
330
D
100
AcDbPlotSettings
  1

  4
A3
  6

 40
7.5
 41
20.0
 42
7.5
 43
20.0
 44
420.0
 45
297.0
 46
0.0
 47
0.0
 48
0.0
 49
0.0
140
0.0
141
0.0
142
1.0
143
1.0
 70
0
 72
1
 73
0
 74
5
  7

 75
16
 76
0
 77
2
 78
300
147
1.0
148
0.0
149
0.0
100
AcDbLayout
  1
Layout1
 70
1
 71
1
 10
0.0
 20
0.0
 11
420.0
 21
297.0
 12
0.0
 22
0.0
 32
0.0
 14
1e+20
 24
1e+20
 34
1e+20
 15
-1e+20
 25
-1e+20
 35
-1e+20
146
0.0
 13
0.0
 23
0.0
 33
0.0
 16
1.0
 26
0.0
 36
0.0
 17
0.0
 27
1.0
 37
0.0
 76
1
330
1B
  0
MATERIAL
  5
1F
102
{ACAD_REACTORS
330
E
102
}
330
E
100
AcDbMaterial
  1
ByBlock
  2

 70
0
 40
1.0
 71
1
 41
1.0
 91
-1023410177
 42
1.0
 72
1
  3

 73
1
 74
1
 75
1
 44
0.5
 73
0
 45
1.0
 46
1.0
 77
1
  4

 78
1
 79
1
170
1
 48
1.0
171
1
  6

172
1
173
1
174
1
140
1.0
141
1.0
175
1
  7

176
1
177
1
178
1
143
1.0
179
1
  8

270
1
271
1
272
1
145
1.0
146
1.0
273
1
  9

274
1
275
1
276
1
 42
1.0
 72
1
  3

 73
1
 74
1
 75
1
 94
63
  0
MATERIAL
  5
20
102
{ACAD_REACTORS
330
E
102
}
330
E
100
AcDbMaterial
  1
ByLayer
  2

 70
0
 40
1.0
 71
1
 41
1.0
 91
-1023410177
 42
1.0
 72
1
  3

 73
1
 74
1
 75
1
 44
0.5
 73
0
 45
1.0
 46
1.0
 77
1
  4

 78
1
 79
1
170
1
 48
1.0
171
1
  6

172
1
173
1
174
1
140
1.0
141
1.0
175
1
  7

176
1
177
1
178
1
143
1.0
179
1
  8

270
1
271
1
272
1
145
1.0
146
1.0
273
1
  9

274
1
275
1
276
1
 42
1.0
 72
1
  3

 73
1
 74
1
 75
1
 94
63
  0
MATERIAL
  5
21
102
{ACAD_REACTORS
330
E
102
}
330
E
100
AcDbMaterial
  1
Global
  2

 70
0
 40
1.0
 71
1
 41
1.0
 91
-1023410177
 42
1.0
 72
1
  3

 73
1
 74
1
 75
1
 44
0.5
 73
0
 45
1.0
 46
1.0
 77
1
  4

 78
1
 79
1
170
1
 48
1.0
171
1
  6

172
1
173
1
174
1
140
1.0
141
1.0
175
1
  7

176
1
177
1
178
1
143
1.0
179
1
  8

270
1
271
1
272
1
145
1.0
146
1.0
273
1
  9

274
1
275
1
276
1
 42
1.0
 72
1
  3

 73
1
 74
1
 75
1
 94
63
  0
MLINESTYLE
  5
22
102
{ACAD_REACTORS
330
10
102
}
330
10
100
AcDbMlineStyle
  2
Standard
 70
0
  3

 62
256
 51
90.0
 52
90.0
 71
2
 49
0.5
 62
256
  6
BYLAYER
 49
-0.5
 62
256
  6
BYLAYER
  0
MLEADERSTYLE
  5
2C
102
{ACAD_REACTORS
330
F
102
}
330
F
100
AcDbMLeaderStyle
179
2
170
2
171
1
172
0
 90
2
 40
0.0
 41
0.0
173
1
 91
-1056964608
 92
-2
290
1
 42
2.0
291
1
 43
8.0
  3
Standard
 44
4.0
300

342
29
174
1
175
1
176
0
178
1
 93
-1056964608
 45
4.0
292
0
297
0
 46
4.0
 94
-1056964608
 47
1.0
 49
1.0
140
1.0
294
1
141
0.0
177
0
142
1.0
295
0
296
0
143
3.75
271
0
272
9
273
9
  0
DICTIONARY
  5
2D
330
A
100
AcDbDictionary
280
1
281
1
  3
CREATED_BY_EZDXF
350
2E
  3
WRITTEN_BY_EZDXF
350
AB
  0
DICTIONARYVAR
  5
2E
330
2D
100
DictionaryVariables
280
0
  1
1.4.4 @ 2026-09-29T01:22:59.602616+00:00
  0
VISUALSTYLE
  5
5A
102
{ACAD_REACTORS
330
16
102
}
330
16
100
AcDbVisualStyle
  2
2dWireframe
 70
4
 90
0
 40
0.6
 62
7
290
0
291
0
  0
VISUALSTYLE
  5
5B
102
{ACAD_REACTORS
330
16
102
}
330
16
100
AcDbVisualStyle
  2
Basic
 70
7
 90
1
 40
0.6
 62
7
290
0
291
1
  0
VISUALSTYLE
  5
5C
102
{ACAD_REACTORS
330
16
102
}
330
16
100
AcDbVisualStyle
  2
Brighten
 70
12
 90
2
 40
0.6
 62
7
290
0
291
1
  0
VISUALSTYLE
  5
5D
102
{ACAD_REACTORS
330
16
102
}
330
16
100
AcDbVisualStyle
  2
ColorChange
 70
16
 90
2
 40
0.6
 62
8
290
0
291
1
  0
VISUALSTYLE
  5
5E
102
{ACAD_REACTORS
330
16
102
}
330
16
100
AcDbVisualStyle
  2
Conceptual
 70
9
 90
3
 40
0.6
 62
7
290
0
291
0
  0
VISUALSTYLE
  5
5F
102
{ACAD_REACTORS
330
16
102
}
330
16
100
AcDbVisualStyle
  2
Dim
 70
11
 90
2
 40
0.6
 62
7
290
0
291
1
  0
VISUALSTYLE
  5
60
102
{ACAD_REACTORS
330
16
102
}
330
16
100
AcDbVisualStyle
  2
EdgeColorOff
 70
22
 90
2
 40
0.6
 62
7
290
0
291
1
  0
VISUALSTYLE
  5
61
102
{ACAD_REACTORS
330
16
102
}
330
16
100
AcDbVisualStyle
  2
Facepattern
 70
15
 90
2
 40
0.6
 62
7
290
0
291
1
  0
VISUALSTYLE
  5
62
102
{ACAD_REACTORS
330
16
102
}
330
16
100
AcDbVisualStyle
  2
Flat
 70
0
 90
2
 40
0.6
 62
7
290
0
291
1
  0
VISUALSTYLE
  5
63
102
{ACAD_REACTORS
330
16
102
}
330
16
100
AcDbVisualStyle
  2
FlatWithEdges
 70
1
 90
2
 40
0.6
 62
7
290
0
291
1
  0
VISUALSTYLE
  5
64
102
{ACAD_REACTORS
330
16
102
}
330
16
100
AcDbVisualStyle
  2
Gouraud
 70
2
 90
2
 40
0.6
 62
7
290
0
291
1
  0
VISUALSTYLE
  5
65
102
{ACAD_REACTORS
330
16
102
}
330
16
100
AcDbVisualStyle
  2
GouraudWithEdges
 70
3
 90
2
 40
0.6
 62
7
290
0
291
1
  0
VISUALSTYLE
  5
66
102
{ACAD_REACTORS
330
16
102
}
330
16
100
AcDbVisualStyle
  2
Hidden
 70
6
 90
1
 40
0.6
 62
7
290
0
291
0
  0
VISUALSTYLE
  5
67
102
{ACAD_REACTORS
330
16
102
}
330
16
100
AcDbVisualStyle
  2
JitterOff
 70
20
 90
2
 40
0.6
 62
7
290
0
291
1
  0
VISUALSTYLE
  5
68
102
{ACAD_REACTORS
330
16
102
}
330
16
100
AcDbVisualStyle
  2
Linepattern
 70
14
 90
2
 40
0.6
 62
7
290
0
291
1
  0
VISUALSTYLE
  5
69
102
{ACAD_REACTORS
330
16
102
}
330
16
100
AcDbVisualStyle
  2
Modeling
 70
10
 90
2
 40
0.6
 62
7
290
0
291
0
  0
VISUALSTYLE
  5
6A
102
{ACAD_REACTORS
330
16
102
}
330
16
100
AcDbVisualStyle
  2
OverhangOff
 70
21
 90
2
 40
0.6
 62
7
290
0
291
1
  0
VISUALSTYLE
  5
6B
102
{ACAD_REACTORS
330
16
102
}
330
16
100
AcDbVisualStyle
  2
Realistic
 70
8
 90
2
 40
0.6
 62
7
290
0
291
0
  0
VISUALSTYLE
  5
6C
102
{ACAD_REACTORS
330
16
102
}
330
16
100
AcDbVisualStyle
  2
Shaded
 70
27
 90
2
 40
0.6
 62
7
290
0
291
0
  0
VISUALSTYLE
  5
6D
102
{ACAD_REACTORS
330
16
102
}
330
16
100
AcDbVisualStyle
  2
Shaded with edges
 70
26
 90
2
 40
0.6
 62
7
290
0
291
0
  0
VISUALSTYLE
  5
6E
102
{ACAD_REACTORS
330
16
102
}
330
16
100
AcDbVisualStyle
  2
Shades of Gray
 70
23
 90
2
 40
0.6
 62
7
290
0
291
0
  0
VISUALSTYLE
  5
6F
102
{ACAD_REACTORS
330
16
102
}
330
16
100
AcDbVisualStyle
  2
Sketchy
 70
24
 90
1
 40
0.6
 62
7
290
0
291
0
  0
VISUALSTYLE
  5
70
102
{ACAD_REACTORS
330
16
102
}
330
16
100
AcDbVisualStyle
  2
Thicken
 70
13
 90
2
 40
0.6
 62
7
290
0
291
1
  0
VISUALSTYLE
  5
71
102
{ACAD_REACTORS
330
16
102
}
330
16
100
AcDbVisualStyle
  2
Wireframe
 70
5
 90
0
 40
0.6
 62
7
290
0
291
0
  0
VISUALSTYLE
  5
72
102
{ACAD_REACTORS
330
16
102
}
330
16
100
AcDbVisualStyle
  2
X-Ray
 70
25
 90
2
 40
0.5
 62
7
290
0
291
0
  0
DICTIONARYVAR
  5
AB
330
2D
100
DictionaryVariables
280
0
  1
1.4.4 @ 2026-09-29T01:22:59.610837+00:00
  0
ENDSEC
  0
EOF
