  0
SECTION
  2
HEADER
  9
$ACADVER
  1
AC1024
  9
$ACADMAINTVER
 70
6
  9
$DWGCODEPAGE
  3
ANSI_1252
  9
$LASTSAVEDBY
  1
ezdxf
  9
$INSBASE
 10
0.0
 20
0.0
 30
0.0
  9
$EXTMIN
 10
1e+20
 20
1e+20
 30
1e+20
  9
$EXTMAX
 10
-1e+20
 20
-1e+20
 30
-1e+20
  9
$LIMMIN
 10
0.0
 20
0.0
  9
$LIMMAX
 10
420.0
 20
297.0
  9
$ORTHOMODE
 70
0
  9
$REGENMODE
 70
1
  9
$FILLMODE
 70
1
  9
$QTEXTMODE
 70
0
  9
$MIRRTEXT
 70
1
  9
$LTSCALE
 40
1.0
  9
$ATTMODE
 70
1
  9
$TEXTSIZE
 40
2.5
  9
$TRACEWID
 40
1.0
  9
$TEXTSTYLE
  7
OpenSans
  9
$CLAYER
  8
0
  9
$CELTYPE
  6
ByLayer
  9
$CECOLOR
 62
256
  9
$CELTSCALE
 40
1.0
  9
$DISPSILH
 70
0
  9
$DIMSCALE
 40
1.0
  9
$DIMASZ
 40
0.175
  9
$DIMEXO
 40
0.125
  9
$DIMDLI
 40
3.75
  9
$DIMRND
 40
0.0
  9
$DIMDLE
 40
0.0
  9
$DIMEXE
 40
0.375
  9
$DIMTP
 40
0.0
  9
$DIMTM
 40
0.0
  9
$DIMTXT
 40
0.25
  9
$DIMCEN
 40
2.5
  9
$DIMTSZ
 40
0.0
  9
$DIMTOL
 70
0
  9
$DIMLIM
 70
0
  9
$DIMTIH
 70
0
  9
$DIMTOH
 70
0
  9
$DIMSE1
 70
0
  9
$DIMSE2
 70
0
  9
$DIMTAD
 70
1
  9
$DIMZIN
 70
12
  9
$DIMBLK
  1
ARCHTICK
  9
$DIMASO
 70
1
  9
$DIMSHO
 70
1
  9
$DIMPOST
  1

  9
$DIMAPOST
  1

  9
$DIMALT
 70
0
  9
$DIMALTD
 70
3
  9
$DIMALTF
 40
0.03937007874
  9
$DIMLFAC
 40
100.0
  9
$DIMTOFL
 70
1
  9
$DIMTVP
 40
0.0
  9
$DIMTIX
 70
0
  9
$DIMSOXD
 70
0
  9
$DIMSAH
 70
0
  9
$DIMBLK1
  1

  9
$DIMBLK2
  1

  9
$DIMSTYLE
  2
EZDXF
  9
$DIMCLRD
 70
0
  9
$DIMCLRE
 70
0
  9
$DIMCLRT
 70
0
  9
$DIMTFAC
 40
0.5
  9
$DIMGAP
 40
0.1
  9
$DIMJUST
 70
0
  9
$DIMSD1
 70
0
  9
$DIMSD2
 70
0
  9
$DIMTOLJ
 70
0
  9
$DIMTZIN
 70
8
  9
$DIMALTZ
 70
0
  9
$DIMALTTZ
 70
0
  9
$DIMUPT
 70
1
  9
$DIMDEC
 70
2
  9
$DIMTDEC
 70
2
  9
$DIMALTU
 70
2
  9
$DIMALTTD
 70
3
  9
$DIMTXSTY
  7
OpenSansCondensed-Light
  9
$DIMAUNIT
 70
0
  9
$DIMADEC
 70
2
  9
$DIMALTRND
 40
0.0
  9
$DIMAZIN
 70
3
  9
$DIMDSEP
 70
46
  9
$DIMATFIT
 70
3
  9
$DIMFRAC
 70
0
  9
$DIMLDRBLK
  1

  9
$DIMLUNIT
 70
2
  9
$DIMLWD
 70
-2
  9
$DIMLWE
 70
-2
  9
$DIMTMOVE
 70
2
  9
$DIMFXL
 40
1.0
  9
$DIMFXLON
 70
0
  9
$DIMJOGANG
 40
0.785398163397
  9
$DIMTFILL
 70
0
  9
$DIMTFILLCLR
 70
0
  9
$DIMARCSYM
 70
0
  9
$DIMLTYPE
  6

  9
$DIMLTEX1
  6

  9
$DIMLTEX2
  6

  9
$DIMTXTDIRECTION
 70
0
  9
$LUNITS
 70
2
  9
$LUPREC
 70
4
  9
$SKETCHINC
 40
1.0
  9
$FILLETRAD
 40
10.0
  9
$AUNITS
 70
0
  9
$AUPREC
 70
2
  9
$MENU
  1
.
  9
$ELEVATION
 40
0.0
  9
$PELEVATION
 40
0.0
  9
$THICKNESS
 40
0.0
  9
$LIMCHECK
 70
0
  9
$CHAMFERA
 40
0.0
  9
$CHAMFERB
 40
0.0
  9
$CHAMFERC
 40
0.0
  9
$CHAMFERD
 40
0.0
  9
$SKPOLY
 70
0
  9
$TDCREATE
 40
2461311.05755787
  9
$TDUCREATE
 40
2458532.153996898
  9
$TDUPDATE
 40
2461311.05755787
  9
$TDUUPDATE
 40
2458532.1544311
  9
$TDINDWG
 40
0.0
  9
$TDUSRTIMER
 40
0.0
  9
$USRTIMER
 70
1
  9
$ANGBASE
 50
0.0
  9
$ANGDIR
 70
0
  9
$PDMODE
 70
0
  9
$PDSIZE
 40
0.0
  9
$PLINEWID
 40
0.0
  9
$SPLFRAME
 70
0
  9
$SPLINETYPE
 70
6
  9
$SPLINESEGS
 70
8
  9
$HANDSEED
  5
8F
  9
$SURFTAB1
 70
6
  9
$SURFTAB2
 70
6
  9
$SURFTYPE
 70
6
  9
$SURFU
 70
6
  9
$SURFV
 70
6
  9
$UCSBASE
  2

  9
$UCSNAME
  2

  9
$UCSORG
 10
0.0
 20
0.0
 30
0.0
  9
$UCSXDIR
 10
1.0
 20
0.0
 30
0.0
  9
$UCSYDIR
 10
0.0
 20
1.0
 30
0.0
  9
$UCSORTHOREF
  2

  9
$UCSORTHOVIEW
 70
0
  9
$UCSORGTOP
 10
0.0
 20
0.0
 30
0.0
  9
$UCSORGBOTTOM
 10
0.0
 20
0.0
 30
0.0
  9
$UCSORGLEFT
 10
0.0
 20
0.0
 30
0.0
  9
$UCSORGRIGHT
 10
0.0
 20
0.0
 30
0.0
  9
$UCSORGFRONT
 10
0.0
 20
0.0
 30
0.0
  9
$UCSORGBACK
 10
0.0
 20
0.0
 30
0.0
  9
$PUCSBASE
  2

  9
$PUCSNAME
  2

  9
$PUCSORG
 10
0.0
 20
0.0
 30
0.0
  9
$PUCSXDIR
 10
1.0
 20
0.0
 30
0.0
  9
$PUCSYDIR
 10
0.0
 20
1.0
 30
0.0
  9
$PUCSORTHOREF
  2

  9
$PUCSORTHOVIEW
 70
0
  9
$PUCSORGTOP
 10
0.0
 20
0.0
 30
0.0
  9
$PUCSORGBOTTOM
 10
0.0
 20
0.0
 30
0.0
  9
$PUCSORGLEFT
 10
0.0
 20
0.0
 30
0.0
  9
$PUCSORGRIGHT
 10
0.0
 20
0.0
 30
0.0
  9
$PUCSORGFRONT
 10
0.0
 20
0.0
 30
0.0
  9
$PUCSORGBACK
 10
0.0
 20
0.0
 30
0.0
  9
$USERI1
 70
0
  9
$USERI2
 70
0
  9
$USERI3
 70
0
  9
$USERI4
 70
0
  9
$USERI5
 70
0
  9
$USERR1
 40
0.0
  9
$USERR2
 40
0.0
  9
$USERR3
 40
0.0
  9
$USERR4
 40
0.0
  9
$USERR5
 40
0.0
  9
$WORLDVIEW
 70
1
  9
$SHADEDGE
 70
3
  9
$SHADEDIF
 70
70
  9
$TILEMODE
 70
1
  9
$MAXACTVP
 70
64
  9
$PINSBASE
 10
0.0
 20
0.0
 30
0.0
  9
$PLIMCHECK
 70
0
  9
$PEXTMIN
 10
1e+20
 20
1e+20
 30
1e+20
  9
$PEXTMAX
 10
-1e+20
 20
-1e+20
 30
-1e+20
  9
$PLIMMIN
 10
0.0
 20
0.0
  9
$PLIMMAX
 10
420.0
 20
297.0
  9
$UNITMODE
 70
0
  9
$VISRETAIN
 70
1
  9
$PLINEGEN
 70
0
  9
$PSLTSCALE
 70
1
  9
$TREEDEPTH
 70
3020
  9
$CMLSTYLE
  2
Standard
  9
$CMLJUST
 70
0
  9
$CMLSCALE
 40
20.0
  9
$PROXYGRAPHICS
 70
1
  9
$MEASUREMENT
 70
1
  9
$CELWEIGHT
370
-1
  9
$ENDCAPS
280
0
  9
$JOINSTYLE
280
0
  9
$LWDISPLAY
290
0
  9
$INSUNITS
 70
4
  9
$HYPERLINKBASE
  1

  9
$STYLESHEET
  1

  9
$XEDIT
290
1
  9
$CEPSNTYPE
380
0
  9
$PSTYLEMODE
290
1
  9
$FINGERPRINTGUID
  2
{4322FEBB-44D1-4441-AAA9-9314BC0972E6}
  9
$VERSIONGUID
  2
{1124BDBE-5B76-4318-B9D6-5F2FD18C333E}
  9
$EXTNAMES
290
1
  9
$PSVPSCALE
 40
0.0
  9
$OLESTARTUP
290
0
  9
$SORTENTS
280
127
  9
$INDEXCTL
280
0
  9
$HIDETEXT
280
1
  9
$XCLIPFRAME
280
1
  9
$HALOGAP
280
0
  9
$OBSCOLOR
 70
257
  9
$OBSLTYPE
280
0
  9
$INTERSECTIONDISPLAY
280
0
  9
$INTERSECTIONCOLOR
 70
257
  9
$DIMASSOC
280
2
  9
$PROJECTNAME
  1

  9
$CAMERADISPLAY
290
0
  9
$LENSLENGTH
 40
50.0
  9
$CAMERAHEIGHT
 40
0.0
  9
$STEPSPERSEC
 40
24.0
  9
$STEPSIZE
 40
100.0
  9
$3DDWFPREC
 40
2.0
  9
$PSOLWIDTH
 40
0.005
  9
$PSOLHEIGHT
 40
0.08
  9
$LOFTANG1
 40
1.570796326795
  9
$LOFTANG2
 40
1.570796326795
  9
$LOFTMAG1
 40
0.0
  9
$LOFTMAG2
 40
0.0
  9
$LOFTPARAM
 70
7
  9
$LOFTNORMALS
280
1
  9
$LATITUDE
 40
37.795
  9
$LONGITUDE
 40
-122.394
  9
$NORTHDIRECTION
 40
0.0
  9
$TIMEZONE
 70
-8000
  9
$LIGHTGLYPHDISPLAY
280
1
  9
$TILEMODELIGHTSYNCH
280
1
  9
$CMATERIAL
347
20
  9
$SOLIDHIST
280
0
  9
$SHOWHIST
280
1
  9
$DWFFRAME
280
2
  9
$DGNFRAME
280
2
  9
$REALWORLDSCALE
290
1
  9
$INTERFERECOLOR
 62
256
  9
$CSHADOW
280
0
  9
$SHADOWPLANELOCATION
 40
0.0
  0
ENDSEC
  0
SECTION
  2
CLASSES
  0
CLASS
  1
ACDBDICTIONARYWDFLT
  2
AcDbDictionaryWithDefault
  3
ObjectDBX Classes
 90
0
 91
0
280
0
281
0
  0
CLASS
  1
SUN
  2
AcDbSun
  3
SCENEOE
 90
1153
 91
0
280
0
281
0
  0
CLASS
  1
VISUALSTYLE
  2
AcDbVisualStyle
  3
ObjectDBX Classes
 90
4095
 91
0
280
0
281
0
  0
CLASS
  1
MATERIAL
  2
AcDbMaterial
  3
ObjectDBX Classes
 90
1153
 91
0
280
0
281
0
  0
CLASS
  1
SCALE
  2
AcDbScale
  3
ObjectDBX Classes
 90
1153
 91
0
280
0
281
0
  0
CLASS
  1
TABLESTYLE
  2
AcDbTableStyle
  3
ObjectDBX Classes
 90
4095
 91
0
280
0
281
0
  0
CLASS
  1
MLEADERSTYLE
  2
AcDbMLeaderStyle
  3
ACDB_MLEADERSTYLE_CLASS
 90
4095
 91
0
280
0
281
0
  0
CLASS
  1
DICTIONARYVAR
  2
AcDbDictionaryVar
  3
ObjectDBX Classes
 90
0
 91
0
280
0
281
0
  0
CLASS
  1
CELLSTYLEMAP
  2
AcDbCellStyleMap
  3
ObjectDBX Classes
 90
1152
 91
0
280
0
281
0
  0
CLASS
  1
MENTALRAYRENDERSETTINGS
  2
AcDbMentalRayRenderSettings
  3
SCENEOE
 90
1024
 91
0
280
0
281
0
  0
CLASS
  1
ACDBDETAILVIEWSTYLE
  2
AcDbDetailViewStyle
  3
ObjectDBX Classes
 90
1025
 91
0
280
0
281
0
  0
CLASS
  1
ACDBSECTIONVIEWSTYLE
  2
AcDbSectionViewStyle
  3
ObjectDBX Classes
 90
1025
 91
0
280
0
281
0
  0
CLASS
  1
RASTERVARIABLES
  2
AcDbRasterVariables
  3
ISM
 90
0
 91
0
280
0
281
0
  0
CLASS
  1
ACDBPLACEHOLDER
  2
AcDbPlaceHolder
  3
ObjectDBX Classes
 90
0
 91
0
280
0
281
0
  0
CLASS
  1
LAYOUT
  2
AcDbLayout
  3
ObjectDBX Classes
 90
0
 91
0
280
0
281
0
  0
ENDSEC
  0
SECTION
  2
TABLES
  0
TABLE
  2
VPORT
  5
8
330
0
100
AcDbSymbolTable
 70
1
  0
VPORT
  5
23
330
8
100
AcDbSymbolTableRecord
100
AcDbViewportTableRecord
  2
*Active
 70
0
 10
0.0
 20
0.0
 11
1.0
 21
1.0
 12
0.0
 22
0.0
 13
0.0
 23
0.0
 14
0.5
 24
0.5
 15
0.5
 25
0.5
 16
0.0
 26
0.0
 36
1.0
 17
0.0
 27
0.0
 37
0.0
 40
1000.0
 41
1.34
 42
50.0
 43
0.0
 44
0.0
 50
0.0
 51
0.0
 71
0
 72
1000
 73
1
 74
3
 75
0
 76
0
 77
0
 78
0
281
0
 65
0
146
0.0
  0
ENDTAB
  0
TABLE
  2
LTYPE
  5
2
330
0
100
AcDbSymbolTable
 70
21
  0
LTYPE
  5
24
330
2
100
AcDbSymbolTableRecord
100
AcDbLinetypeTableRecord
  2
ByBlock
 70
0
  3

 72
65
 73
0
 40
0.0
  0
LTYPE
  5
25
330
2
100
AcDbSymbolTableRecord
100
AcDbLinetypeTableRecord
  2
ByLayer
 70
0
  3

 72
65
 73
0
 40
0.0
  0
LTYPE
  5
26
330
2
100
AcDbSymbolTableRecord
100
AcDbLinetypeTableRecord
  2
Continuous
 70
0
  3

 72
65
 73
0
 40
0.0
  0
LTYPE
  5
2F
330
2
100
AcDbSymbolTableRecord
100
AcDbLinetypeTableRecord
  2
CENTER
 70
0
  3
Center ____ _ ____ _ ____ _ ____ _ ____ _ ____
 72
65
 73
4
 40
5.08
 49
3.175
 74
0
 49
-0.635
 74
0
 49
0.635
 74
0
 49
-0.635
 74
0
  0
LTYPE
  5
30
330
2
100
AcDbSymbolTableRecord
100
AcDbLinetypeTableRecord
  2
CENTERX2
 70
0
  3
Center (2x) ________  __  ________  __  ________
 72
65
 73
4
 40
8.89
 49
6.35
 74
0
 49
-0.635
 74
0
 49
1.27
 74
0
 49
-0.635
 74
0
  0
LTYPE
  5
31
330
2
100
AcDbSymbolTableRecord
100
AcDbLinetypeTableRecord
  2
CENTER2
 70
0
  3
Center (.5x) ____ _ ____ _ ____ _ ____ _ ____
 72
65
 73
4
 40
2.54
 49
1.587
 74
0
 49
-0.318
 74
0
 49
0.318
 74
0
 49
-0.318
 74
0
  0
LTYPE
  5
32
330
2
100
AcDbSymbolTableRecord
100
AcDbLinetypeTableRecord
  2
DASHED
 70
0
  3
Dashed __ __ __ __ __ __ __ __ __ __ __ __ __ _
 72
65
 73
2
 40
1.524
 49
1.27
 74
0
 49
-0.254
 74
0
  0
LTYPE
  5
33
330
2
100
AcDbSymbolTableRecord
100
AcDbLinetypeTableRecord
  2
DASHEDX2
 70
0
  3
Dashed (2x) ____  ____  ____  ____  ____  ____
 72
65
 73
2
 40
3.048
 49
2.54
 74
0
 49
-0.508
 74
0
  0
LTYPE
  5
34
330
2
100
AcDbSymbolTableRecord
100
AcDbLinetypeTableRecord
  2
DASHED2
 70
0
  3
Dashed (.5x) _ _ _ _ _ _ _ _ _ _ _ _ _ _
 72
65
 73
2
 40
0.762
 49
0.635
 74
0
 49
-0.127
 74
0
  0
LTYPE
  5
35
330
2
100
AcDbSymbolTableRecord
100
AcDbLinetypeTableRecord
  2
PHANTOM
 70
0
  3
Phantom ______  __  __  ______  __  __  ______
 72
65
 73
6
 40
6.35
 49
3.175
 74
0
 49
-0.635
 74
0
 49
0.635
 74
0
 49
-0.635
 74
0
 49
0.635
 74
0
 49
-0.635
 74
0
  0
LTYPE
  5
36
330
2
100
AcDbSymbolTableRecord
100
AcDbLinetypeTableRecord
  2
PHANTOMX2
 70
0
  3
Phantom (2x)____________    ____    ____    ____________
 72
65
 73
6
 40
10.795
 49
6.35
 74
0
 49
-0.635
 74
0
 49
1.27
 74
0
 49
-0.635
 74
0
 49
1.27
 74
0
 49
-0.635
 74
0
  0
LTYPE
  5
37
330
2
100
AcDbSymbolTableRecord
100
AcDbLinetypeTableRecord
  2
PHANTOM2
 70
0
  3
Phantom (.5x) ___ _ _ ___ _ _ ___ _ _ ___ _ _ ___
 72
65
 73
6
 40
3.175
 49
1.587
 74
0
 49
-0.318
 74
0
 49
0.318
 74
0
 49
-0.318
 74
0
 49
0.318
 74
0
 49
-0.318
 74
0
  0
LTYPE
  5
38
330
2
100
AcDbSymbolTableRecord
100
AcDbLinetypeTableRecord
  2
DASHDOT
 70
0
  3
Dash dot __ . __ . __ . __ . __ . __ . __ . __
 72
65
 73
4
 40
3.556
 49
2.54
 74
0
 49
-0.508
 74
0
 49
0.0
 74
0
 49
-0.508
 74
0
  0
LTYPE
  5
39
330
2
100
AcDbSymbolTableRecord
100
AcDbLinetypeTableRecord
  2
DASHDOTX2
 70
0
  3
Dash dot (2x) ____  .  ____  .  ____  .  ____
 72
65
 73
4
 40
6.096
 49
5.08
 74
0
 49
-0.508
 74
0
 49
0.0
 74
0
 49
-0.508
 74
0
  0
LTYPE
  5
3A
330
2
100
AcDbSymbolTableRecord
100
AcDbLinetypeTableRecord
  2
DASHDOT2
 70
0
  3
Dash dot (.5x) _ . _ . _ . _ . _ . _ . _ . _
 72
65
 73
4
 40
1.778
 49
1.27
 74
0
 49
-0.254
 74
0
 49
0.0
 74
0
 49
-0.254
 74
0
  0
LTYPE
  5
3B
330
2
100
AcDbSymbolTableRecord
100
AcDbLinetypeTableRecord
  2
DOT
 70
0
  3
Dot .  .  .  .  .  .  .  .  .  .  .  .  .  .  .  .
 72
65
 73
2
 40
0.508
 49
0.0
 74
0
 49
-0.508
 74
0
  0
LTYPE
  5
3C
330
2
100
AcDbSymbolTableRecord
100
AcDbLinetypeTableRecord
  2
DOTX2
 70
0
  3
Dot (2x) .    .    .    .    .    .    .    . 
 72
65
 73
2
 40
1.016
 49
0.0
 74
0
 49
-1.016
 74
0
  0
LTYPE
  5
3D
330
2
100
AcDbSymbolTableRecord
100
AcDbLinetypeTableRecord
  2
DOT2
 70
0
  3
Dot (.5) . . . . . . . . . . . . . . . . . . . 
 72
65
 73
2
 40
0.254
 49
0.0
 74
0
 49
-0.254
 74
0
  0
LTYPE
  5
3E
330
2
100
AcDbSymbolTableRecord
100
AcDbLinetypeTableRecord
  2
DIVIDE
 70
0
  3
Divide __ . . __ . . __ . . __ . . __ . . __
 72
65
 73
6
 40
4.064
 49
2.54
 74
0
 49
-0.508
 74
0
 49
0.0
 74
0
 49
-0.508
 74
0
 49
0.0
 74
0
 49
-0.508
 74
0
  0
LTYPE
  5
3F
330
2
100
AcDbSymbolTableRecord
100
AcDbLinetypeTableRecord
  2
DIVIDEX2
 70
0
  3
Divide (2x) ____  . .  ____  . .  ____  . .  ____
 72
65
 73
6
 40
6.604
 49
5.08
 74
0
 49
-0.508
 74
0
 49
0.0
 74
0
 49
-0.508
 74
0
 49
0.0
 74
0
 49
-0.508
 74
0
  0
LTYPE
  5
40
330
2
100
AcDbSymbolTableRecord
100
AcDbLinetypeTableRecord
  2
DIVIDE2
 70
0
  3
Divide(.5x) _ . _ . _ . _ . _ . _ . _ . _
 72
65
 73
6
 40
2.032
 49
1.27
 74
0
 49
-0.254
 74
0
 49
0.0
 74
0
 49
-0.254
 74
0
 49
0.0
 74
0
 49
-0.254
 74
0
  0
ENDTAB
  0
TABLE
  2
LAYER
  5
1
330
0
100
AcDbSymbolTable
 70
3
  0
LAYER
  5
27
330
1
100
AcDbSymbolTableRecord
100
AcDbLayerTableRecord
  2
0
 70
0
 62
7
  6
Continuous
370
-3
390
13
347
21
  0
LAYER
  5
28
330
1
100
AcDbSymbolTableRecord
100
AcDbLayerTableRecord
  2
Defpoints
 70
0
 62
7
  6
Continuous
290
0
370
-3
390
13
347
21
  0
LAYER
  5
8A
330
1
100
AcDbSymbolTableRecord
100
AcDbLayerTableRecord
  2
OUTLINE
 70
0
 62
1
  6
Continuous
370
-3
390
13
347
21
  0
ENDTAB
  0
TABLE
  2
STYLE
  5
5
330
0
100
AcDbSymbolTable
 70
26
  0
STYLE
  5
29
330
5
100
AcDbSymbolTableRecord
100
AcDbTextStyleTableRecord
  2
Standard
 70
0
 40
0.0
 41
1.0
 50
0.0
 71
0
 42
2.5
  3
txt
  4

  0
STYLE
  5
41
330
5
100
AcDbSymbolTableRecord
100
AcDbTextStyleTableRecord
  2
OpenSans-Light
 70
0
 40
0.0
 41
1.0
 50
0.0
 71
0
 42
2.5
  3
OpenSans-Light.ttf
  4

  0
STYLE
  5
42
330
5
100
AcDbSymbolTableRecord
100
AcDbTextStyleTableRecord
  2
OpenSans-Light-Italic
 70
0
 40
0.0
 41
1.0
 50
0.0
 71
0
 42
2.5
  3
OpenSans-LightItalic.ttf
  4

  0
STYLE
  5
43
330
5
100
AcDbSymbolTableRecord
100
AcDbTextStyleTableRecord
  2
OpenSans
 70
0
 40
0.0
 41
1.0
 50
0.0
 71
0
 42
2.5
  3
OpenSans-Regular.ttf
  4

  0
STYLE
  5
44
330
5
100
AcDbSymbolTableRecord
100
AcDbTextStyleTableRecord
  2
OpenSans-Italic
 70
0
 40
0.0
 41
1.0
 50
0.0
 71
0
 42
2.5
  3
OpenSans-Italic.ttf
  4

  0
STYLE
  5
45
330
5
100
AcDbSymbolTableRecord
100
AcDbTextStyleTableRecord
  2
OpenSans-SemiBold
 70
0
 40
0.0
 41
1.0
 50
0.0
 71
0
 42
2.5
  3
OpenSans-SemiBold.ttf
  4

  0
STYLE
  5
46
330
5
100
AcDbSymbolTableRecord
100
AcDbTextStyleTableRecord
  2
OpenSans-SemiBoldItalic
 70
0
 40
0.0
 41
1.0
 50
0.0
 71
0
 42
2.5
  3
OpenSans-SemiBoldItalic.ttf
  4

  0
STYLE
  5
47
330
5
100
AcDbSymbolTableRecord
100
AcDbTextStyleTableRecord
  2
OpenSans-Bold
 70
0
 40
0.0
 41
1.0
 50
0.0
 71
0
 42
2.5
  3
OpenSans-Bold.ttf
  4

  0
STYLE
  5
48
330
5
100
AcDbSymbolTableRecord
100
AcDbTextStyleTableRecord
  2
OpenSans-BoldItalic
 70
0
 40
0.0
 41
1.0
 50
0.0
 71
0
 42
2.5
  3
OpenSans-BoldItalic.ttf
  4

  0
STYLE
  5
49
330
5
100
AcDbSymbolTableRecord
100
AcDbTextStyleTableRecord
  2
OpenSans-ExtraBold
 70
0
 40
0.0
 41
1.0
 50
0.0
 71
0
 42
2.5
  3
OpenSans-ExtraBold.ttf
  4

  0
STYLE
  5
4A
330
5
100
AcDbSymbolTableRecord
100
AcDbTextStyleTableRecord
  2
OpenSans-ExtraBoldItalic
 70
0
 40
0.0
 41
1.0
 50
0.0
 71
0
 42
2.5
  3
OpenSans-ExtraBoldItalic.ttf
  4

  0
STYLE
  5
4B
330
5
100
AcDbSymbolTableRecord
100
AcDbTextStyleTableRecord
  2
OpenSansCondensed-Bold
 70
0
 40
0.0
 41
1.0
 50
0.0
 71
0
 42
2.5
  3
OpenSansCondensed-Bold.ttf
  4

  0
STYLE
  5
4C
330
5
100
AcDbSymbolTableRecord
100
AcDbTextStyleTableRecord
  2
OpenSansCondensed-Light
 70
0
 40
0.0
 41
1.0
 50
0.0
 71
0
 42
2.5
  3
OpenSansCondensed-Light.ttf
  4

  0
STYLE
  5
4D
330
5
100
AcDbSymbolTableRecord
100
AcDbTextStyleTableRecord
  2
OpenSansCondensed-Italic
 70
0
 40
0.0
 41
1.0
 50
0.0
 71
0
 42
2.5
  3
OpenSansCondensed-LightItalic.ttf
  4

  0
STYLE
  5
4E
330
5
100
AcDbSymbolTableRecord
100
AcDbTextStyleTableRecord
  2
LiberationSans
 70
0
 40
0.0
 41
1.0
 50
0.0
 71
0
 42
2.5
  3
LiberationSans-Regular.ttf
  4

  0
STYLE
  5
4F
330
5
100
AcDbSymbolTableRecord
100
AcDbTextStyleTableRecord
  2
LiberationSans-Bold
 70
0
 40
0.0
 41
1.0
 50
0.0
 71
0
 42
2.5
  3
LiberationSans-Bold.ttf
  4

  0
STYLE
  5
50
330
5
100
AcDbSymbolTableRecord
100
AcDbTextStyleTableRecord
  2
LiberationSans-BoldItalic
 70
0
 40
0.0
 41
1.0
 50
0.0
 71
0
 42
2.5
  3
LiberationSans-BoldItalic.ttf
  4

  0
STYLE
  5
51
330
5
100
AcDbSymbolTableRecord
100
AcDbTextStyleTableRecord
  2
LiberationSans-Italic
 70
0
 40
0.0
 41
1.0
 50
0.0
 71
0
 42
2.5
  3
LiberationSans-Italic.ttf
  4

  0
STYLE
  5
52
330
5
100
AcDbSymbolTableRecord
100
AcDbTextStyleTableRecord
  2
LiberationSerif
 70
0
 40
0.0
 41
1.0
 50
0.0
 71
0
 42
2.5
  3
LiberationSerif-Regular.ttf
  4

  0
STYLE
  5
53
330
5
100
AcDbSymbolTableRecord
100
AcDbTextStyleTableRecord
  2
LiberationSerif-Bold
 70
0
 40
0.0
 41
1.0
 50
0.0
 71
0
 42
2.5
  3
LiberationSerif-Bold.ttf
  4

  0
STYLE
  5
54
330
5
100
AcDbSymbolTableRecord
100
AcDbTextStyleTableRecord
  2
LiberationSerif-BoldItalic
 70
0
 40
0.0
 41
1.0
 50
0.0
 71
0
 42
2.5
  3
LiberationSerif-BoldItalic.ttf
  4

  0
STYLE
  5
55
330
5
100
AcDbSymbolTableRecord
100
AcDbTextStyleTableRecord
  2
LiberationSerif-Italic
 70
0
 40
0.0
 41
1.0
 50
0.0
 71
0
 42
2.5
  3
LiberationSerif-Italic.ttf
  4

  0
STYLE
  5
56
330
5
100
AcDbSymbolTableRecord
100
AcDbTextStyleTableRecord
  2
LiberationMono
 70
0
 40
0.0
 41
1.0
 50
0.0
 71
0
 42
2.5
  3
LiberationMono-Regular.ttf
  4

  0
STYLE
  5
57
330
5
100
AcDbSymbolTableRecord
100
AcDbTextStyleTableRecord
  2
LiberationMono-Bold
 70
0
 40
0.0
 41
1.0
 50
0.0
 71
0
 42
2.5
  3
LiberationMono-Bold.ttf
  4

  0
STYLE
  5
58
330
5
100
AcDbSymbolTableRecord
100
AcDbTextStyleTableRecord
  2
LiberationMono-BoldItalic
 70
0
 40
0.0
 41
1.0
 50
0.0
 71
0
 42
2.5
  3
LiberationMono-BoldItalic.ttf
  4

  0
STYLE
  5
59
330
5
100
AcDbSymbolTableRecord
100
AcDbTextStyleTableRecord
  2
LiberationMono-Italic
 70
0
 40
0.0
 41
1.0
 50
0.0
 71
0
 42
2.5
  3
LiberationMono-Italic.ttf
  4

  0
ENDTAB
  0
TABLE
  2
VIEW
  5
7
330
0
100
AcDbSymbolTable
 70
0
  0
ENDTAB
  0
TABLE
  2
UCS
  5
6
330
0
100
AcDbSymbolTable
 70
0
  0
ENDTAB
  0
TABLE
  2
APPID
  5
3
330
0
100
AcDbSymbolTable
 70
3
  0
APPID
  5
2A
330
3
100
AcDbSymbolTableRecord
100
AcDbRegAppTableRecord
  2
ACAD
 70
0
  0
APPID
  5
8C
330
3
100
AcDbSymbolTableRecord
100
AcDbRegAppTableRecord
  2
HATCHBACKGROUNDCOLOR
 70
0
  0
APPID
  5
8D
330
3
100
AcDbSymbolTableRecord
100
AcDbRegAppTableRecord
  2
EZDXF
 70
0
  0
ENDTAB
  0
TABLE
  2
DIMSTYLE
  5
4
330
0
100
AcDbSymbolTable
 70
12
100
AcDbDimStyleTable
  0
DIMSTYLE
105
2B
330
4
100
AcDbSymbolTableRecord
100
AcDbDimStyleTableRecord
  2
Standard
 70
0
 40
1.0
 41
2.5
 42
0.625
 43
3.75
 44
1.25
 45
0.0
 46
0.0
 47
0.0
 48
0.0
 49
2.5
140
2.5
141
2.5
142
0.0
143
0.03937007874
144
1.0
145
0.0
146
1.0
147
0.625
148
0.0
 69
0
 70
0
 71
0
 72
0
 73
0
 74
0
 75
0
 76
0
 77
1
 78
8
 79
3
170
0
171
3
172
1
173
0
174
0
175
0
176
0
177
0
178
0
179
2
271
2
272
2
273
2
274
3
275
0
276
0
277
2
278
44
279
0
280
0
281
0
282
0
283
0
284
8
285
0
286
0
288
0
289
3
290
0
371
-2
372
-2
  0
DIMSTYLE
105
73
330
4
100
AcDbSymbolTableRecord
100
AcDbDimStyleTableRecord
  2
EZDXF
 70
0
 40
1.0
 41
0.175
 42
0.125
 43
3.75
 44
0.375
 45
0.0
 46
0.0
 47
0.0
 48
0.0
 49
2.5
140
0.25
141
2.5
142
0.0
143
0.03937007874
144
100.0
145
0.0
146
0.5
147
0.1
148
0.0
 69
0
 70
0
 71
0
 72
0
 73
0
 74
0
 75
0
 76
0
 77
1
 78
12
 79
3
170
0
171
3
172
1
173
0
174
0
175
0
176
0
177
0
178
0
179
2
271
2
272
2
273
2
274
3
275
0
276
0
277
2
278
46
279
2
280
0
281
0
282
0
283
0
284
8
285
0
286
0
288
1
289
3
290
0
340
4C
342
74
371
-2
372
-2
  0
DIMSTYLE
105
7C
330
4
100
AcDbSymbolTableRecord
100
AcDbDimStyleTableRecord
  2
EZ_M_100_H25_CM
 70
0
 40
1.0
 41
0.25
 42
0.125
 43
3.75
 44
0.375
 45
0.0
 46
0.0
 47
0.0
 48
0.0
 49
2.5
140
0.25
141
2.5
142
0.125
143
0.03937007874
144
100.0
145
0.0
146
0.5
147
0.1
148
0.0
 69
0
 70
0
 71
0
 72
0
 73
0
 74
0
 75
0
 76
0
 77
1
 78
12
 79
3
170
0
171
3
172
1
173
0
174
0
175
0
176
0
177
0
178
0
179
2
271
2
272
2
273
2
274
3
275
0
276
0
277
2
278
46
279
2
280
0
281
0
282
0
283
0
284
8
285
0
286
0
288
1
289
3
290
0
340
4C
371
-2
372
-2
  0
DIMSTYLE
105
7D
330
4
100
AcDbSymbolTableRecord
100
AcDbDimStyleTableRecord
  2
EZ_M_50_H25_CM
 70
0
 40
1.0
 41
0.125
 42
0.0625
 43
3.75
 44
0.1875
 45
0.0
 46
0.0
 47
0.0
 48
0.0
 49
2.5
140
0.125
141
2.5
142
0.0625
143
0.03937007874
144
100.0
145
0.0
146
0.5
147
0.05
148
0.0
 69
0
 70
0
 71
0
 72
0
 73
0
 74
0
 75
0
 76
0
 77
1
 78
12
 79
3
170
0
171
3
172
1
173
0
174
0
175
0
176
0
177
0
178
0
179
2
271
2
272
2
273
2
274
3
275
0
276
0
277
2
278
46
279
2
280
0
281
0
282
0
283
0
284
8
285
0
286
0
288
1
289
3
290
0
340
4C
371
-2
372
-2
  0
DIMSTYLE
105
7E
330
4
100
AcDbSymbolTableRecord
100
AcDbDimStyleTableRecord
  2
EZ_M_25_H25_CM
 70
0
 40
1.0
 41
0.0625
 42
0.03125
 43
3.75
 44
0.09375
 45
0.0
 46
0.0
 47
0.0
 48
0.0
 49
2.5
140
0.0625
141
2.5
142
0.03125
143
0.03937007874
144
100.0
145
0.0
146
0.5
147
0.025
148
0.0
 69
0
 70
0
 71
0
 72
0
 73
0
 74
0
 75
0
 76
0
 77
1
 78
12
 79
3
170
0
171
3
172
1
173
0
174
0
175
0
176
0
177
0
178
0
179
2
271
2
272
2
273
2
274
3
275
0
276
0
277
2
278
46
279
2
280
0
281
0
282
0
283
0
284
8
285
0
286
0
288
1
289
3
290
0
340
4C
371
-2
372
-2
  0
DIMSTYLE
105
7F
330
4
100
AcDbSymbolTableRecord
100
AcDbDimStyleTableRecord
  2
EZ_M_20_H25_CM
 70
0
 40
1.0
 41
0.05
 42
0.025
 43
3.75
 44
0.07500000000000001
 45
0.0
 46
0.0
 47
0.0
 48
0.0
 49
2.5
140
0.05
141
2.5
142
0.025
143
0.03937007874
144
100.0
145
0.0
146
0.5
147
0.020000000000000004
148
0.0
 69
0
 70
0
 71
0
 72
0
 73
0
 74
0
 75
0
 76
0
 77
1
 78
12
 79
3
170
0
171
3
172
1
173
0
174
0
175
0
176
0
177
0
178
0
179
2
271
2
272
2
273
2
274
3
275
0
276
0
277
2
278
46
279
2
280
0
281
0
282
0
283
0
284
8
285
0
286
0
288
1
289
3
290
0
340
4C
371
-2
372
-2
  0
DIMSTYLE
105
80
330
4
100
AcDbSymbolTableRecord
100
AcDbDimStyleTableRecord
  2
EZ_M_10_H25_CM
 70
0
 40
1.0
 41
0.025
 42
0.0125
 43
3.75
 44
0.037500000000000006
 45
0.0
 46
0.0
 47
0.0
 48
0.0
 49
2.5
140
0.025
141
2.5
142
0.0125
143
0.03937007874
144
100.0
145
0.0
146
0.5
147
0.010000000000000002
148
0.0
 69
0
 70
0
 71
0
 72
0
 73
0
 74
0
 75
0
 76
0
 77
1
 78
12
 79
3
170
0
171
3
172
1
173
0
174
0
175
0
176
0
177
0
178
0
179
2
271
2
272
2
273
2
274
3
275
0
276
0
277
2
278
46
279
2
280
0
281
0
282
0
283
0
284
8
285
0
286
0
288
1
289
3
290
0
340
4C
371
-2
372
-2
  0
DIMSTYLE
105
81
330
4
100
AcDbSymbolTableRecord
100
AcDbDimStyleTableRecord
  2
EZ_M_5_H25_CM
 70
0
 40
1.0
 41
0.0125
 42
0.00625
 43
3.75
 44
0.018750000000000003
 45
0.0
 46
0.0
 47
0.0
 48
0.0
 49
2.5
140
0.0125
141
2.5
142
0.00625
143
0.03937007874
144
100.0
145
0.0
146
0.5
147
0.005000000000000001
148
0.0
 69
0
 70
0
 71
0
 72
0
 73
0
 74
0
 75
0
 76
0
 77
1
 78
12
 79
3
170
0
171
3
172
1
173
0
174
0
175
0
176
0
177
0
178
0
179
2
271
2
272
2
273
2
274
3
275
0
276
0
277
2
278
46
279
2
280
0
281
0
282
0
283
0
284
8
285
0
286
0
288
1
289
3
290
0
340
4C
371
-2
372
-2
  0
DIMSTYLE
105
82
330
4
100
AcDbSymbolTableRecord
100
AcDbDimStyleTableRecord
  2
EZ_M_1_H25_CM
 70
0
 40
1.0
 41
0.0025
 42
0.00125
 43
3.75
 44
0.00375
 45
0.0
 46
0.0
 47
0.0
 48
0.0
 49
2.5
140
0.0025
141
2.5
142
0.00125
143
0.03937007874
144
100.0
145
0.0
146
0.5
147
0.001
148
0.0
 69
0
 70
0
 71
0
 72
0
 73
0
 74
0
 75
0
 76
0
 77
1
 78
12
 79
3
170
0
171
3
172
1
173
0
174
0
175
0
176
0
177
0
178
0
179
2
271
2
272
2
273
2
274
3
275
0
276
0
277
2
278
46
279
2
280
0
281
0
282
0
283
0
284
8
285
0
286
0
288
1
289
3
290
0
340
4C
371
-2
372
-2
  0
DIMSTYLE
105
83
330
4
100
AcDbSymbolTableRecord
100
AcDbDimStyleTableRecord
  2
EZ_RADIUS
 70
0
 40
1.0
 41
0.25
 42
0.125
 43
3.75
 44
0.375
 45
0.0
 46
0.0
 47
0.0
 48
0.0
 49
2.5
140
0.25
141
0.0
142
0.0
143
0.03937007874
144
100.0
145
0.0
146
0.5
147
0.1
148
0.0
 69
0
 70
0
 71
0
 72
0
 73
0
 74
0
 75
0
 76
0
 77
1
 78
12
 79
3
170
0
171
3
172
0
173
0
174
0
175
0
176
0
177
0
178
0
179
2
271
2
272
2
273
2
274
3
275
0
276
0
277
2
278
46
279
1
280
0
281
0
282
0
283
0
284
8
285
0
286
0
288
1
289
3
290
0
340
4C
342
84
371
-2
372
-2
  0
DIMSTYLE
105
88
330
4
100
AcDbSymbolTableRecord
100
AcDbDimStyleTableRecord
  2
EZ_RADIUS_INSIDE
 70
0
 40
1.0
 41
0.25
 42
0.125
 43
3.75
 44
0.375
 45
0.0
 46
0.0
 47
0.0
 48
0.0
 49
2.5
140
0.25
141
0.0
142
0.0
143
0.03937007874
144
100.0
145
0.0
146
0.5
147
0.1
148
0.0
 69
0
 70
0
 71
0
 72
0
 73
0
 74
0
 75
0
 76
0
 77
0
 78
12
 79
3
170
0
171
3
172
0
173
0
174
1
175
0
176
0
177
0
178
0
179
2
271
2
272
2
273
2
274
3
275
0
276
0
277
2
278
46
279
0
280
0
281
0
282
0
283
0
284
8
285
0
286
0
288
1
289
0
290
0
340
4C
342
84
371
-2
372
-2
  0
DIMSTYLE
105
89
330
4
100
AcDbSymbolTableRecord
100
AcDbDimStyleTableRecord
  2
EZ_CURVED
 70
0
 40
1.0
 41
0.25
 42
0.125
 43
3.75
 44
0.375
 45
0.0
 46
0.0
 47
0.0
 48
0.0
 49
2.5
140
0.25
141
2.5
142
0.0
143
0.03937007874
144
100.0
145
0.0
146
0.5
147
0.1
148
0.0
 69
0
 70
0
 71
0
 72
0
 73
0
 74
0
 75
0
 76
0
 77
1
 78
12
 79
2
 90
2
170
0
171
3
172
1
173
0
174
0
175
0
176
0
177
0
178
0
179
2
271
2
272
2
273
2
274
3
275
0
276
0
277
2
278
46
279
2
280
0
281
0
282
0
283
0
284
8
285
0
286
0
288
1
289
3
290
0
340
4C
371
-2
372
-2
  0
ENDTAB
  0
TABLE
  2
BLOCK_RECORD
  5
9
330
0
100
AcDbSymbolTable
 70
5
  0
BLOCK_RECORD
  5
17
330
9
100
AcDbSymbolTableRecord
100
AcDbBlockTableRecord
  2
*Model_Space
340
1A
 70
0
280
1
281
0
  0
BLOCK_RECORD
  5
1B
330
9
100
AcDbSymbolTableRecord
100
AcDbBlockTableRecord
  2
*Paper_Space
340
1E
 70
0
280
1
281
0
  0
BLOCK_RECORD
  5
74
330
9
100
AcDbSymbolTableRecord
100
AcDbBlockTableRecord
  2
_ARCHTICK
340
0
 70
0
280
1
281
0
  0
BLOCK_RECORD
  5
78
330
9
100
AcDbSymbolTableRecord
100
AcDbBlockTableRecord
  2
_CLOSEDFILLED
340
0
 70
0
280
1
281
0
  0
BLOCK_RECORD
  5
84
330
9
100
AcDbSymbolTableRecord
100
AcDbBlockTableRecord
  2
_CLOSEDBLANK
340
0
 70
0
280
1
281
0
  0
ENDTAB
  0
ENDSEC
  0
SECTION
  2
BLOCKS
  0
BLOCK
  5
18
330
17
100
AcDbEntity
  8
0
100
AcDbBlockBegin
  2
*Model_Space
 70
0
 10
0.0
 20
0.0
 30
0.0
  3
*Model_Space
  1

  0
ENDBLK
  5
19
330
17
100
AcDbEntity
  8
0
100
AcDbBlockEnd
  0
BLOCK
  5
1C
330
1B
100
AcDbEntity
  8
0
100
AcDbBlockBegin
  2
*Paper_Space
 70
0
 10
0.0
 20
0.0
 30
0.0
  3
*Paper_Space
  1

  0
ENDBLK
  5
1D
330
1B
100
AcDbEntity
  8
0
100
AcDbBlockEnd
  0
BLOCK
  5
75
330
74
100
AcDbEntity
  8
0
100
AcDbBlockBegin
  2
_ARCHTICK
 70
0
 10
0.0
 20
0.0
 30
0.0
  3
_ARCHTICK
  1

  0
LWPOLYLINE
  5
77
330
74
100
AcDbEntity
  8
0
  6
BYBLOCK
 62
0
100
AcDbPolyline
 90
2
 70
0
 43
0.15
 10
-0.5
 20
-0.5
 10
0.5
 20
0.5
  0
ENDBLK
  5
76
330
74
100
AcDbEntity
  8
0
100
AcDbBlockEnd
  0
BLOCK
  5
79
330
78
100
AcDbEntity
  8
0
100
AcDbBlockBegin
  2
_CLOSEDFILLED
 70
0
 10
0.0
 20
0.0
 30
0.0
  3
_CLOSEDFILLED
  1

  0
SOLID
  5
7B
330
78
100
AcDbEntity
  8
0
  6
BYBLOCK
 62
0
100
AcDbTrace
 10
-1.0
 20
0.16439898372402537
 30
0.0
 11
0.0
 21
0.0
 31
0.0
 12
-1.0
 22
-0.16439898372402537
 32
0.0
 13
-1.0
 23
-0.16439898372402537
 33
0.0
  0
ENDBLK
  5
7A
330
78
100
AcDbEntity
  8
0
100
AcDbBlockEnd
  0
BLOCK
  5
85
330
84
100
AcDbEntity
  8
0
100
AcDbBlockBegin
  2
_CLOSEDBLANK
 70
0
 10
0.0
 20
0.0
 30
0.0
  3
_CLOSEDBLANK
  1

  0
LWPOLYLINE
  5
87
330
84
100
AcDbEntity
  8
0
  6
BYBLOCK
 62
0
100
AcDbPolyline
 90
3
 70
1
 10
-1.0
 20
0.16439898372402537
 10
0.0
 20
0.0
 10
-1.0
 20
-0.16439898372402537
  0
ENDBLK
  5
86
330
84
100
AcDbEntity
  8
0
100
AcDbBlockEnd
  0
ENDSEC
  0
SECTION
  2
ENTITIES
  0
LWPOLYLINE
  5
8B
330
17
100
AcDbEntity
  8
OUTLINE
100
AcDbPolyline
 90
829
 70
1
 10
287.69090189855484
 20
-42.835101638291945
 10
287.7299434766032
 20
-42.83894689810321
 10
287.78816398574236
 20
-42.84758309482135
 10
287.826640666551
 20
-42.8552365824899
 10
287.8837343327197
 20
-42.8695378013747
 10
287.9212755648185
 20
-42.88092580963038
 10
287.97669254480104
 20
-42.900754322126126
 10
288.01293678560296
 20
-42.91576717822419
 10
288.0661433835881
 20
-42.940932024916165
 10
288.10074158124115
 20
-42.95942514684554
 10
288.1512253886044
 20
-42.98968397650354
 10
288.1838443435519
 20
-43.0114792653907
 10
288.23111917363144
 20
-43.04654066894409
 10
288.26144474750566
 20
-43.071428224242375
 10
288.3050553178445
 20
-43.1109545412083
 10
288.3327954587917
 20
-43.13869468215549
 10
288.3723217757576
 20
-43.18230525249434
 10
288.397209331056
 20
-43.21263082636868
 10
288.43227073460935
 20
-43.25990565644812
 10
288.4540660234964
 20
-43.29252461139551
 10
288.4843248531545
 20
-43.34300841875891
 10
288.5028179750838
 20
-43.3776066164119
 10
288.52798282177577
 20
-43.43081321439698
 10
288.54299567787393
 20
-43.467057455199
 10
288.5628241903696
 20
-43.522474435181465
 10
288.57421219862533
 20
-43.56001566728038
 10
288.5885134175101
 20
-43.61710933344906
 10
288.5961669051787
 20
-43.65558601425761
 10
288.6048031018968
 20
-43.713806523396734
 10
288.60864836170805
 20
-43.752848101445224
 10
288.6120182550502
 20
-43.82144385627109
 10
288.6125
 20
-43.841067969903634
 10
288.6125
 20
-99.97143203009637
 10
288.6120182550502
 20
-99.99105614372891
 10
288.60864836170805
 20
-100.05965189855479
 10
288.6048031018968
 20
-100.09869347660327
 10
288.5961669051787
 20
-100.15691398574239
 10
288.5885134175101
 20
-100.19539066655095
 10
288.57421219862533
 20
-100.25248433271962
 10
288.5628241903696
 20
-100.29002556481855
 10
288.54299567787393
 20
-100.34544254480099
 10
288.52798282177577
 20
-100.38168678560307
 10
288.5028179750839
 20
-100.43489338358806
 10
288.4843248531545
 20
-100.46949158124112
 10
288.45406602349647
 20
-100.51997538860445
 10
288.4322707346093
 20
-100.55259434355192
 10
288.39720933105593
 20
-100.5998691736314
 10
288.3723217757576
 20
-100.63019474750567
 10
288.3327954587916
 20
-100.6738053178446
 10
288.30505531784456
 20
-100.70154545879164
 10
288.2614447475057
 20
-100.74107177575756
 10
288.2311191736313
 20
-100.76595933105598
 10
288.18384434355175
 20
-100.80102073460942
 10
288.1512253886046
 20
-100.82281602349637
 10
288.1007415812412
 20
-100.85307485315442
 10
288.06614338358804
 20
-100.87156797508388
 10
288.012936785603
 20
-100.89673282177581
 10
287.9766925448011
 20
-100.91174567787388
 10
287.9212755648185
 20
-100.93157419036963
 10
287.8837343327197
 20
-100.94296219862532
 10
287.8266406665508
 20
-100.95726341751013
 10
287.78816398574253
 20
-100.96491690517863
 10
287.7299434766031
 20
-100.9735531018968
 10
287.6909018985549
 20
-100.97739836170805
 10
287.6223061437289
 20
-100.98076825505021
 10
287.6026820300963
 20
-100.98125
 10
250.4000383502606
 20
-100.98125
 10
250.38034860383436
 20
-100.98076502482223
 10
250.31152402715284
 20
-100.97737255112227
 10
250.27235326389138
 20
-100.97350156652578
 10
250.21394241448428
 20
-100.96480769926984
 10
250.17534222243756
 20
-100.95710325963128
 10
250.11806951429088
 20
-100.9427071644003
 10
250.0804141258964
 20
-100.9312439649757
 10
250.02483482322185
 20
-100.91128521324669
 10
249.98848931095873
 20
-100.89617439081648
 10
249.93514226024521
 20
-100.87084648453666
 10
249.90045899722207
 20
-100.85223453992427
 10
249.8498614030684
 20
-100.82178303549139
 10
249.81717664673354
 20
-100.79985041322415
 10
249.76981905750299
 20
-100.76457054079515
 10
249.7394496895969
 20
-100.73952987967769
 10
249.69579124150454
 20
-100.69976368088432
 10
249.66803169586294
 20
-100.67185775244626
 10
249.6284956616074
 20
-100.62799076426965
 10
249.6036150695974
 20
-100.5974901190729
 10
249.56858475469383
 20
-100.54994763602768
 10
249.54682433595963
 20
-100.51714798065267
 10
249.51663936255656
 20
-100.4663909315168
 10
249.498210086374
 20
-100.43161026166149
 10
249.47316310058488
 20
-100.37813074072832
 10
249.45824364049398
 20
-100.34170625820931
 10
249.4385774751667
 20
-100.28602275438934
 10
249.4273124767151
 20
-100.2483075979388
 10
249.41086595111835
 20
-100.18139091071447
 10
249.40663749563538
 20
-100.16215444847612
 10
249.3898448496408
 20
-100.07565357947392
 10
249.38170981347213
 20
-100.03849449853426
 10
249.37946787671697
 20
-100.02930532823264
 10
249.36957566189753
 20
-99.99257495666285
 10
249.2593032329816
 20
-99.61875779546986
 10
249.24767620482126
 20
-99.58253917697203
 10
249.24457176419543
 20
-99.57360443692839
 10
249.23123621024442
 20
-99.53797945818428
 10
249.0859631451561
 20
-99.1763235234321
 10
249.07094921577038
 20
-99.14137272896158
 10
249.06701033072642
 20
-99.13277317572567
 10
249.05035197090166
 20
-99.0985755857862
 10
248.87139131864416
 20
-98.75234970066911
 10
248.85312619126907
 20
-98.71898263259793
 10
248.84838846337624
 20
-98.71079599313741
 10
248.82855786408
 20
-98.67833488654368
 10
248.61752715854306
 20
-98.3506684099213
 10
248.5961759223317
 20
-98.31918665612753
 10
248.59068217349133
 20
-98.31148692529288
 10
248.56785857337758
 20
-98.28105570140036
 10
248.32666521327536
 20
-97.97491024312275
 10
248.30242085114145
 20
-97.94559835109196
 10
248.29622073654212
 20
-97.93845512281585
 10
248.27061042647
 20
-97.9103288339078
 10
248.00143443533838
 20
-97.62847148633668
 10
247.9745160796828
 20
-97.6015943912831
 10
247.9676656389924
 20
-97.59507222955608
 10
247.93950009746823
 20
-97.56950509478578
 10
247.64477441954676
 20
-97.3144834224616
 10
247.6154253716318
 20
-97.29028405271401
 10
247.6079865224827
 20
-97.28444190802267
 10
247.57752032344374
 20
-97.26166501565655
 10
247.25990883353504
 20
-97.0357840291634
 10
247.2283943644076
 20
-97.01448111045922
 10
247.22043434275704
 20
-97.00937178696493
 10
247.18794285460905
 20
-96.98959100569475
 10
246.85031628067554
 20
-96.79489232784762
 10
246.81692123351866
 20
-96.77667840638352
 10
246.80851198593408
 20
-96.77234808465005
 10
246.7742888826358
 20
-96.75574220285003
 10
246.41969885875835
 20
-96.5939856155106
 10
246.3847250743385
 20
-96.57902531761556
 10
246.37594260771212
 20
-96.5755131372085
 10
246.34029721440726
 20
-96.56223224695906
 10
245.97194869862136
 20
-96.43487978526498
 10
245.93571228710573
 20
-96.42330832942757
 10
245.92663598166575
 20
-96.42064603515098
 10
245.88989047884922
 20
-96.41081017563236
 10
245.5111127851689
 20
-96.31901291340989
 10
245.4739412689657
 20
-96.31093488810666
 10
245.4646531607994
 20
-96.30914654307816
 10
245.42713967229426
 20
-96.30284461559857
 10
245.04135637874344
 20
-96.247432261394
 10
245.00358573219074
 20
-96.24292067976742
 10
244.99416977176165
 20
-96.24202244792387
 10
244.9562273628243
 20
-96.23931141238607
 10
244.54554347532053
 20
-96.21976726127082
 10
244.52653465758678
 20
-96.21908902317637
 10
244.52178715623475
 20
-96.21897612197412
 10
244.50276758664296
 20
-96.21875
 10
230.8576684903946
 20
-96.21875
 10
230.83801520654237
 20
-96.2182668207245
 10
230.76931775206188
 20
-96.21488690094702
 10
230.73021875647072
 20
-96.21103021840223
 10
230.6719136459975
 20
-96.20236841370918
 10
230.63338206476953
 20
-96.19469230111548
 10
230.576208809524
 20
-96.1803489523955
 10
230.53861682718656
 20
-96.16892755491504
 10
230.48312767548836
 20
-96.1490412075456
 10
230.44683840078827
 20
-96.1339848468233
 10
230.39356933385196
 20
-96.1087475871544
 10
230.3589332924126
 20
-96.09020169569808
 10
230.30839884719387
 20
-96.05985729565046
 10
230.27575059571683
 20
-96.0380010120687
 10
230.22054447234436
 20
-95.99697604342971
 10
230.2050581292914
 20
-95.98486579127396
 10
229.95762175719932
 20
-95.78137618391963
 10
229.92734766880125
 20
-95.75767524039712
 10
229.91968124820136
 20
-95.75196509340566
 10
229.88830338204156
 20
-95.72974607750909
 10
229.56143629270846
 20
-95.50988695132571
 10
229.52902712455585
 20
-95.48920118395282
 10
229.5208480305525
 20
-95.484253234402
 10
229.48748241824995
 20
-95.4651484949934
 10
229.1410220311634
 20
-95.2776776182296
 10
229.1067770417251
 20
-95.26019803441014
 10
229.09816079810577
 20
-95.2560579704765
 10
229.06311552970516
 20
-95.2402439161279
 10
228.70026097680596
 20
-95.0868923498001
 10
228.6644963760819
 20
-95.0727803518091
 10
228.65552254317004
 20
-95.06948640184835
 10
228.61912121825816
 20
-95.05710905573727
 10
228.24322301127444
 20
-94.93929281135038
 10
228.20626904099382
 20
-94.92867870598634
 10
228.19702048100518
 20
-94.92626128554046
 10
228.15959922066486
 20
-94.91743493710507
 10
227.7741283132916
 20
-94.8362419015423
 10
227.73632619753283
 20
-94.82922369690266
 10
227.72688830944767
 20
-94.82770512785108
 10
227.68879265260358
 20
-94.82251127747173
 10
227.2973083905498
 20
-94.77869116770843
 10
227.25900718496572
 20
-94.77533366820815
 10
227.24946711597462
 20
-94.77472797265247
 10
227.21104882876404
 20
-94.77321457909507
 10
226.8171660836116
 20
-94.76717201949258
 10
226.77871945232687
 20
-94.76750622747483
 10
226.76916529313297
 20
-94.76781899826217
 10
226.73077912078782
 20
-94.77000003583929
 10
226.33813491113455
 20
-94.80179082194057
 10
226.29989786110187
 20
-94.80581365140924
 10
226.29041783251486
 20
-94.80704200048939
 10
226.2524182237242
 20
-94.81289733002419
 10
225.86463813182843
 20
-94.8822279133514
 10
225.8269637347766
 20
-94.88990221846629
 10
225.81764537310204
 20
-94.89203480355911
 10
225.78038320712082
 20
-94.9015103583458
 10
225.40104790114742
 20
-95.0077405569562
 10
225.36428403340454
 20
-95.01899547502832
 10
225.3552133821544
 20
-95.02201260435567
 10
225.31903272886632
 20
-95.03502088939895
 10
224.95164489985532
 20
-95.17716979917157
 10
224.91613103014015
 20
-95.19190140499248
 10
224.90739184552842
 20
-95.19577521910713
 10
224.87262678838954
 20
-95.21219611902958
 10
224.52057880725138
 20
-95.38895117109745
 10
224.48664286210075
 20
-95.4070234365599
 10
224.47831583965694
 20
-95.41171816559371
 10
224.44528739084916
 20
-95.4314000537522
 10
224.1118299840258
 20
-95.64112913444819
 10
224.079785319801
 20
-95.66237518459636
 10
224.0719473492495
 20
-95.66784747854955
 10
224.0409604855302
 20
-95.69060861711968
 10
223.72917271856866
 20
-95.93137513852172
 10
223.6993152279968
 20
-95.95559879243525
 10
223.69203868327386
 20
-95.96179812146062
 10
223.66337952989522
 20
-95.98742833955937
 10
223.3761403760961
 20
-96.25700912147812
 10
223.34874575606833
 20
-96.28398670375941
 10
223.34209782703857
 20
-96.29085582474309
 10
223.3160310157349
 20
-96.31911845909652
 10
223.05599277240566
 20
-96.61502425738627
 10
223.03131397825945
 20
-96.64450666352423
 10
223.02535605030192
 20
-96.65198214865384
 10
223.0021222757431
 20
-96.68261622888974
 10
222.77168607352152
 20
-97.00211472053115
 10
222.74995098331004
 20
-97.03382971707413
 10
222.74473807049972
 20
-97.04184253951635
 10
222.72455186777603
 20
-97.07456519790041
 10
222.52584549916747
 20
-97.41470621061403
 10
222.50725480948992
 20
-97.44836094890641
 10
222.5028350466101
 20
-97.45683712018568
 10
222.48588281026542
 20
-97.49134620355576
 10
222.3207410821179
 20
-97.84898895698416
 10
222.30546645493442
 20
-97.88427267726146
 10
222.30188065301365
 20
-97.89313393044868
 10
222.28831891592387
 20
-97.92911079022339
 10
222.15826670726256
 20
-98.30095289714244
 10
222.14644918480934
 20
-98.3375397980119
 10
222.14373045428064
 20
-98.34670431042501
 10
222.13368444226631
 20
-98.38381674492867
 10
222.03992262392777
 20
-98.766424704696
 10
222.0316713263665
 20
-98.8039769515094
 10
222.02984477133396
 20
-98.8133601002441
 10
222.02340724685567
 20
-98.85126542217594
 10
221.9668015929343
 20
-99.24110632485271
 10
221.9621927107636
 20
-99.27927716918818
 10
221.96127519719744
 20
-99.28879231250376
 10
221.95850560280888
 20
-99.32714051323234
 10
221.93853924806214
 20
-99.7422260919826
 10
221.93784634931328
 20
-99.76143903151126
 10
221.93773101072122
 20
-99.76623740999626
 10
221.9375
 20
-99.78546145192378
 10
221.9375
 20
-116.64018203009628
 10
221.93701825505022
 20
-116.6598061437289
 10
221.93364836170804
 20
-116.7284018985549
 10
221.9298031018968
 20
-116.76744347660315
 10
221.9211669051786
 20
-116.8256639857425
 10
221.9135134175101
 20
-116.86414066655088
 10
221.89921219862532
 20
-116.92123433271968
 10
221.88782419036966
 20
-116.95877556481845
 10
221.8679956778739
 20
-117.01419254480103
 10
221.85298282177575
 20
-117.05043678560311
 10
221.82781797508386
 20
-117.10364338358801
 10
221.80932485315446
 20
-117.13824158124113
 10
221.77906602349645
 20
-117.18872538860447
 10
221.75727073460928
 20
-117.22134434355193
 10
221.72220933105598
 20
-117.26861917363136
 10
221.69732177575764
 20
-117.29894474750564
 10
221.6577954587916
 20
-117.34255531784461
 10
221.6300553178446
 20
-117.37029545879162
 10
221.58644474750565
 20
-117.40982177575765
 10
221.55611917363137
 20
-117.43470933105597
 10
221.5088443435519
 20
-117.4697707346093
 10
221.47622538860446
 20
-117.49156602349645
 10
221.42574158124114
 20
-117.52182485315447
 10
221.391143383588
 20
-117.54031797508388
 10
221.33793678560312
 20
-117.56548282177576
 10
221.30169254480103
 20
-117.5804956778739
 10
221.24627556481846
 20
-117.60032419036965
 10
221.20873433271967
 20
-117.61171219862533
 10
221.15164066655086
 20
-117.62601341751012
 10
221.1131639857425
 20
-117.63366690517863
 10
221.05494347660314
 20
-117.6423031018968
 10
221.0159018985549
 20
-117.64614836170806
 10
220.9473061437289
 20
-117.64951825505022
 10
220.92768203009626
 20
-117.65
 10
202.9861091524682
 20
-117.65
 10
202.9652722778721
 20
-117.65027140562746
 10
202.96007277782536
 20
-117.65040687825055
 10
202.9392500413402
 20
-117.65122091098051
 10
202.4894603452619
 20
-117.67467531362459
 10
202.44791378153033
 20
-117.67792868325576
 10
202.4376186512807
 20
-117.67900529528092
 10
202.39629787548319
 20
-117.68441776785541
 10
201.95138705722147
 20
-117.75452656541368
 10
201.93084641203072
 20
-117.75803810341802
 10
201.9257313767052
 20
-117.75898127210843
 10
201.90528916192034
 20
-117.76302662235852
 10
184.43874988668603
 20
-121.45654109620791
 10
184.41841997263685
 20
-121.46111751387674
 10
184.41336099243156
 20
-121.46232576585577
 10
184.39315717324746
 20
-121.46743014578037
 10
183.95795118933296
 20
-121.58343286672569
 10
183.91797657501473
 20
-121.59521130388534
 10
183.9081269193963
 20
-121.598394554504
 10
183.8688198989405
 20
-121.61223866931174
 10
183.4480394373722
 20
-121.7728770298134
 10
183.42866968586256
 20
-121.78056219282035
 10
183.42386044499528
 20
-121.78254319151677
 10
183.40469743328265
 20
-121.79073025363198
 10
166.99900638034862
 20
-129.0538816754314
 10
166.9808671615111
 20
-129.06138545141758
 10
166.91677931588143
 20
-129.08607313668338
 10
166.87952323219415
 20
-129.09836195549528
 10
166.8227905449545
 20
-129.11403402545497
 10
166.78450934461577
 20
-129.1226119354624
 10
166.72651370929157
 20
-129.13264776435514
 10
166.68757606118604
 20
-129.1374321555958
 10
166.628876007449
 20
-129.14173509290328
 10
166.58965690241462
 20
-129.14267988907395
 10
166.53081774387067
 20
-129.14120849515763
 10
166.49169488332794
 20
-129.13830459735476
 10
166.43328327323897
 20
-129.1310730425425
 10
166.3946334317207
 20
-129.1243484168892
 10
166.33721190582315
 20
-129.11142634500712
 10
166.29940730243226
 20
-129.10094575332457
 10
166.2435288614097
 20
-129.08245761098863
 10
166.2069335751431
 20
-129.0683219871041
 10
166.1531363589284
 20
-129.0444458252315
 10
166.11810282239819
 20
-129.0267913029305
 10
166.06690492759319
 20
-128.99775706201262
 10
166.03377053290555
 20
-128.97675366399486
 10
165.9856650232244
 20
-128.94284095964323
 10
165.95474887271558
 20
-128.91869096011465
 10
165.91019903051284
 20
-128.8802263902102
 10
165.88179886361166
 20
-128.85316236686725
 10
165.8412337282222
 20
-128.81051636624576
 10
165.81562305406106
 20
-128.78079896042803
 10
165.7794332899134
 20
-128.73438223338783
 10
165.75685875328472
 20
-128.7022976399585
 10
165.72539288759097
 20
-128.65255720495492
 10
165.70607189362303
 20
-128.61841441608797
 10
165.6752213789513
 20
-128.55705498726357
 10
165.6668365923092
 20
-128.53930581074536
 10
154.51180722917184
 20
-103.34280985600458
 10
154.5043034531859
 20
-103.32467063716764
 10
154.47961576791988
 20
-103.26058279153749
 10
154.467326949108
 20
-103.22332670785023
 10
154.45165487914844
 20
-103.16659402061102
 10
154.44307696914086
 20
-103.12831282027163
 10
154.43304114024818
 20
-103.07031718494771
 10
154.42825674900752
 20
-103.03137953684217
 10
154.42395381170004
 20
-102.97267948310517
 10
154.42300901552937
 20
-102.93346037807076
 10
154.4244804094457
 20
-102.87462121952677
 10
154.42738430724856
 20
-102.83549835898413
 10
154.43461586206087
 20
-102.77708674889465
 10
154.44134048771403
 20
-102.73843690737726
 10
154.45426255959623
 20
-102.6810153814793
 10
154.46474315127875
 20
-102.64321077808852
 10
154.48323129361472
 20
-102.58733233706573
 10
154.4973669174992
 20
-102.55073705079927
 10
154.52124307937163
 20
-102.49693983458502
 10
154.53889760167306
 20
-102.4619062980539
 10
154.56793184259075
 20
-102.41070840324927
 10
154.58893524060844
 20
-102.37757400856177
 10
154.62284794496009
 20
-102.32946849888056
 10
154.64699794448867
 20
-102.29855234837174
 10
154.68546251439307
 20
-102.25400250616909
 10
154.71252653773598
 20
-102.2256023392679
 10
154.75517253835756
 20
-102.18503720387834
 10
154.7848899441753
 20
-102.15942652971722
 10
154.83130667121554
 20
-102.12323676556952
 10
154.86339126464475
 20
-102.10066222894093
 10
154.9131316996484
 20
-102.06919636324714
 10
154.9472744885152
 20
-102.04987536927925
 10
155.00863391734083
 20
-102.01902485460691
 10
155.02638309385708
 20
-102.01064006796577
 10
170.3168257539015
 20
-95.241233037935
 10
170.33431751540382
 20
-95.23323622142648
 10
170.33866013826483
 20
-95.23118741258557
 10
170.35595460454988
 20
-95.2227724122465
 10
170.7275679253646
 20
-95.03639830593856
 10
170.76152510827743
 20
-95.01833344766125
 10
170.76985737243382
 20
-95.01364037388936
 10
170.80290701476156
 20
-94.99396423306113
 10
171.1365808056863
 20
-94.78428568745537
 10
171.16864650959843
 20
-94.76304374760862
 10
171.17648964764834
 20
-94.75757229871957
 10
171.20749728979663
 20
-94.73481366289923
 10
171.49693557684415
 20
-94.51147323056018
 10
171.51210040329158
 20
-94.50086836366529
 10
171.5305850214262
 20
-94.5
 10
173.0125
 20
-94.5
 10
173.09091371226367
 20
-94.49614778133775
 10
173.1685722576129
 20
-94.48462822432259
 10
173.24472774180356
 20
-94.46555226858577
 10
173.31864674589207
 20
-94.43910362600903
 10
173.3896173894608
 20
-94.40553701147869
 10
173.45695618641568
 20
-94.36517568984203
 10
173.5200146273309
 20
-94.31840836269019
 10
173.57818542494925
 20
-94.26568542494924
 10
173.6309083626902
 20
-94.20751462733092
 10
173.67767568984203
 20
-94.14445618641568
 10
173.71803701147869
 20
-94.0771173894608
 10
173.75160362600903
 20
-94.00614674589208
 10
173.77805226858578
 20
-93.93222774180357
 10
173.7971282243226
 20
-93.85607225761291
 10
173.80864778133775
 20
-93.77841371226366
 10
173.8125
 20
-93.7
 10
173.8125
 20
-61.8
 10
173.80864778133775
 20
-61.72158628773635
 10
173.7971282243226
 20
-61.64392774238709
 10
173.77805226858578
 20
-61.56777225819643
 10
173.75160362600903
 20
-61.493853254107925
 10
173.71803701147869
 20
-61.4228826105392
 10
173.67767568984203
 20
-61.35554381358432
 10
173.6309083626902
 20
-61.292485372669084
 10
173.57818542494925
 20
-61.23431457505076
 10
173.5200146273309
 20
-61.18159163730981
 10
173.45695618641568
 20
-61.13482431015796
 10
173.3896173894608
 20
-61.094462988521315
 10
173.31864674589207
 20
-61.06089637399097
 10
173.24472774180356
 20
-61.03444773141423
 10
173.1685722576129
 20
-61.015371775677416
 10
173.09091371226367
 20
-61.00385221866224
 10
173.0125
 20
-61.0
 10
155.27231796990375
 20
-61.0
 10
155.25269385627098
 20
-60.999518255050205
 10
155.1840981014452
 20
-60.99614836170806
 10
155.14505652339673
 20
-60.992303101896795
 10
155.08683601425764
 20
-60.98366690517866
 10
155.04835933344893
 20
-60.97601341751008
 10
154.99126566728046
 20
-60.961712198625364
 10
154.95372443518136
 20
-60.950324190369564
 10
154.89830745519888
 20
-60.930495677873864
 10
154.86206321439707
 20
-60.91548282177584
 10
154.808856616412
 20
-60.890317975083875
 10
154.77425841875885
 20
-60.871824853154465
 10
154.7237746113953
 20
-60.841566023496306
 10
154.69115565644825
 20
-60.819770734609435
 10
154.64388082636853
 20
-60.7847093310559
 10
154.6135552524944
 20
-60.75982177575769
 10
154.56994468215558
 20
-60.72029545879178
 10
154.54220454120818
 20
-60.692555317844366
 10
154.50267822424254
 20
-60.64894474750585
 10
154.47779066894384
 20
-60.61861917363112
 10
154.4427292653908
 20
-60.57134434355206
 10
154.42093397650342
 20
-60.53872538860428
 10
154.39067514684567
 20
-60.48824158124138
 10
154.37218202491604
 20
-60.4536433835879
 10
154.34701717822418
 20
-60.40043678560296
 10
154.33200432212615
 20
-60.36419254480114
 10
154.3121758096303
 20
-60.308775564818326
 10
154.3007878013747
 20
-60.27123433271978
 10
154.2864865824899
 20
-60.21414066655114
 10
154.2788330948213
 20
-60.1756639857422
 10
154.27019689810322
 20
-60.11744347660337
 10
154.26635163829192
 20
-60.078401898554695
 10
154.26298174494977
 20
-60.00980614372847
 10
154.2625
 20
-59.990182030097
 10
154.2625
 20
-43.841067969902994
 10
154.26298174494977
 20
-43.82144385627153
 10
154.26635163829192
 20
-43.7528481014453
 10
154.27019689810322
 20
-43.71380652339663
 10
154.2788330948213
 20
-43.6555860142578
 10
154.2864865824899
 20
-43.61710933344886
 10
154.3007878013747
 20
-43.56001566728022
 10
154.3121758096303
 20
-43.52247443518167
 10
154.33200432212615
 20
-43.467057455198855
 10
154.34701717822418
 20
-43.430813214397034
 10
154.37218202491604
 20
-43.377606616412095
 10
154.39067514684567
 20
-43.343008418758615
 10
154.42093397650342
 20
-43.29252461139572
 10
154.4427292653908
 20
-43.259905656447934
 10
154.47779066894384
 20
-43.21263082636888
 10
154.50267822424254
 20
-43.182305252494146
 10
154.54220454120818
 20
-43.13869468215563
 10
154.56994468215558
 20
-43.110954541208216
 10
154.6135552524944
 20
-43.071428224242304
 10
154.64388082636853
 20
-43.0465406689441
 10
154.69115565644825
 20
-43.01147926539056
 10
154.7237746113953
 20
-42.98968397650369
 10
154.77425841875885
 20
-42.95942514684553
 10
154.808856616412
 20
-42.94093202491612
 10
154.86206321439707
 20
-42.91576717822416
 10
154.89830745519888
 20
-42.90075432212613
 10
154.95372443518136
 20
-42.88092580963043
 10
154.99126566728046
 20
-42.86953780137463
 10
155.04835933344893
 20
-42.855236582489916
 10
155.08683601425764
 20
-42.84758309482134
 10
155.14505652339673
 20
-42.8389468981032
 10
155.1840981014452
 20
-42.83510163829194
 10
155.25269385627098
 20
-42.83173174494979
 10
155.27231796990375
 20
-42.83125
 10
169.03870414232904
 20
-42.83125
 10
169.0574448840048
 20
-42.831030460252336
 10
169.0621229986998
 20
-42.83092084099632
 10
169.08085345453262
 20
-42.83026234224753
 10
169.48553430746168
 20
-42.81128667032442
 10
169.522923252086
 20
-42.80865448221401
 10
169.53220385805983
 20
-42.807782220566104
 10
169.56942847746643
 20
-42.803401660748115
 10
169.94967405154654
 20
-42.7495962842081
 10
169.9866526341145
 20
-42.74347696843286
 10
169.99581089676226
 20
-42.74174009972715
 10
170.0324622709448
 20
-42.733895460481506
 10
170.40600456219116
 20
-42.64474462312099
 10
170.44224827469353
 20
-42.635191880143225
 10
170.4512038250723
 20
-42.632605646386494
 10
170.48696031745686
 20
-42.62136576886701
 10
170.85052128064663
 20
-42.49765181978912
 10
170.88571206397205
 20
-42.48474948034067
 10
170.8943863120532
 20
-42.48133657719947
 10
170.928934139164
 20
-42.46680009769854
 10
171.27932332088176
 20
-42.30960869689238
 10
171.31315235597097
 20
-42.29346998631114
 10
171.32146918031376
 20
-42.28926036394393
 10
171.3545051653953
 20
-42.27155484830449
 10
171.6886477020693
 20
-42.08226543936406
 10
171.72081811997452
 20
-42.063031983978334
 10
171.72870453573375
 20
-42.0580625842062
 10
171.75993876930156
 20
-42.03734340835842
 10
172.07490237087535
 20
-41.81761711308276
 10
172.10513185795514
 20
-41.79545769735915
 10
172.11251865736503
 20
-41.78977212948012
 10
172.14167704132416
 20
-41.76622111593027
 10
172.43469772376187
 20
-41.517986157039
 10
172.46272099914103
 20
-41.4930952424045
 10
172.46954335885147
 20
-41.48674340049808
 10
172.4963700118646
 20
-41.46056722273173
 10
172.76487635267648
 20
-41.186002002618466
 10
172.79044749623762
 20
-41.15859802095039
 10
172.79664554617767
 20
-41.15163564602732
 10
172.82090504916695
 20
-41.12306401483343
 10
173.05937874088087
 20
-40.82848394658143
 10
173.0721998887651
 20
-40.81342361251401
 10
173.11834542938203
 20
-40.761858447899144
 10
173.1461285006577
 20
-40.7337427759541
 10
173.1898460846894
 20
-40.69367302031877
 10
173.22026996713612
 20
-40.66843857094329
 10
173.2677310200828
 20
-40.63288212394038
 10
173.30049826252653
 20
-40.61077561175425
 10
173.35123876254772
 20
-40.580080105114476
 10
173.38602900302465
 20
-40.56131766321679
 10
173.43955286546304
 20
-40.53578320375596
 10
173.47602596336486
 20
-40.520548270614235
 10
173.53180989091467
 20
-40.500424506119955
 10
173.5696092525094
 20
-40.48886603211074
 10
173.62710785143994
 20
-40.47434971056178
 10
173.6658639162515
 20
-40.466580701698334
 10
173.72451502866642
 20
-40.457813747679545
 10
173.7638488826297
 20
-40.45391016076362
 10
173.83296236360718
 20
-40.45048906914983
 10
173.85273497867564
 20
-40.45
 10
188.08659529675077
 20
-40.45
 10
188.10720971655928
 20
-40.44973435945692
 10
188.1123539108712
 20
-40.44960175970068
 10
188.13295464061596
 20
-40.44880501448364
 10
188.57795934162183
 20
-40.425848359324384
 10
188.61906502520486
 20
-40.422664023702794
 10
188.6292528275099
 20
-40.42161009355118
 10
188.67013986989127
 20
-40.41631226555009
 10
189.08749409077006
 20
-40.35125948255941
 10
189.12805389742007
 20
-40.34386223302145
 10
189.13807916826786
 20
-40.34176556208743
 10
189.17820401378384
 20
-40.33228853784409
 10
189.58664875167852
 20
-40.224634897189276
 10
189.6262320658995
 20
-40.213103268879514
 10
189.6359883689595
 20
-40.20998611710638
 10
189.67492502001227
 20
-40.19643051232437
 10
190.07012389741902
 20
-40.04731895154928
 10
190.10831047094388
 20
-40.03177537349901
 10
190.11769422546388
 20
-40.027670835074545
 10
190.15502929928198
 20
-40.01018056694554
 10
190.53278656739354
 20
-39.821194174183866
 10
190.56917098087678
 20
-39.801803669506164
 10
190.5780825613799
 20
-39.79675532150788
 10
190.61341967882242
 20
-39.77551608077101
 10
190.96972476297003
 20
-39.54866128741013
 10
191.003920730245
 20
-39.525629721281966
 10
191.0122655242323
 20
-39.51969116102843
 10
191.0452295180687
 20
-39.49492844052821
 10
191.37629959720397
 20
-39.23261371932203
 10
191.40794406640703
 20
-39.20618561335429
 10
191.41563347884096
 20
-39.19941988937249
 10
191.44587437682765
 20
-39.17139659004541
 10
191.74819454499084
 20
-38.87640688483217
 10
191.77695155301234
 20
-38.846862821031316
 10
191.78390394691235
 20
-38.839341763683
 10
191.81110068737883
 20
-38.808355403390436
 10
192.11091334736614
 20
-38.448469160933584
 10
192.14667082578922
 20
-38.40563060324533
 10
192.17438121857157
 20
-38.375682656125356
 10
192.21874820275087
 20
-38.33239145374287
 10
192.24967032702796
 20
-38.30518384073114
 10
192.29810521033346
 20
-38.26680772729883
 10
192.3316628792661
 20
-38.242926462018026
 10
192.38378959279135
 20
-38.20973806434575
 10
192.41962653120413
 20
-38.18943668949562
 10
192.47489165587663
 20
-38.161788362278536
 10
192.51262739003806
 20
-38.1452824135657
 10
192.5704441868916
 20
-38.12346769365958
 10
192.60967808392883
 20
-38.11093241149739
 10
192.66943272339464
 20
-38.095182901495946
 10
192.70974824473407
 20
-38.08675137051136
 10
192.77080632354955
 20
-38.07723427986676
 10
192.811775447225
 20
-38.07299601596705
 10
192.88378737482458
 20
-38.069281104673934
 10
192.90439152765333
 20
-38.06875
 10
207.13659529675078
 20
-38.06875
 10
207.1572097165593
 20
-38.06848435945692
 10
207.1623539108712
 20
-38.068351759700676
 10
207.18295464061595
 20
-38.06755501448364
 10
207.62795934162182
 20
-38.04459835932438
 10
207.66906502520484
 20
-38.04141402370279
 10
207.6792528275099
 20
-38.04036009355118
 10
207.72013986989128
 20
-38.03506226555009
 10
208.13749409077008
 20
-37.97000948255941
 10
208.17805389742006
 20
-37.962612233021446
 10
208.18807916826785
 20
-37.96051556208743
 10
208.22820401378382
 20
-37.951038537844084
 10
208.63664875167854
 20
-37.84338489718928
 10
208.6762320658995
 20
-37.83185326887951
 10
208.68598836895947
 20
-37.82873611710638
 10
208.72492502001228
 20
-37.815180512324375
 10
209.1201238974189
 20
-37.666068951549335
 10
209.15831047094434
 20
-37.65052537349881
 10
209.16769422546463
 20
-37.646420835074224
 10
209.2050292992821
 20
-37.62893056694547
 10
209.58278656739353
 20
-37.439944174183864
 10
209.61917098087676
 20
-37.42055366950616
 10
209.62808256137987
 20
-37.41550532150788
 10
209.66341967882244
 20
-37.39426608077101
 10
210.01972476297004
 20
-37.167411287410125
 10
210.053920730245
 20
-37.144379721281965
 10
210.06226552423232
 20
-37.13844116102843
 10
210.0952295180687
 20
-37.113678440528204
 10
210.42629959720398
 20
-36.85136371932202
 10
210.45794406640704
 20
-36.82493561335429
 10
210.46563347884097
 20
-36.81816988937249
 10
210.49587437682763
 20
-36.79014659004541
 10
210.79819454499085
 20
-36.49515688483217
 10
210.82695155301235
 20
-36.465612821031314
 10
210.83390394691233
 20
-36.458091763683
 10
210.86110068737884
 20
-36.427105403390435
 10
211.16091334736612
 20
-36.06721916093358
 10
211.19667082578923
 20
-36.024380603245326
 10
211.22438121857155
 20
-35.994432656125355
 10
211.26874820275088
 20
-35.95114145374287
 10
211.29967032702794
 20
-35.92393384073114
 10
211.34810521033344
 20
-35.88555772729883
 10
211.38166287926612
 20
-35.861676462018025
 10
211.43378959279133
 20
-35.82848806434575
 10
211.46962653120414
 20
-35.80818668949562
 10
211.52489165587662
 20
-35.780538362278534
 10
211.56262739003807
 20
-35.7640324135657
 10
211.62044418689158
 20
-35.742217693659576
 10
211.65967808392884
 20
-35.729682411497386
 10
211.71943272339462
 20
-35.713932901495944
 10
211.75974824473406
 20
-35.70550137051136
 10
211.82080632354953
 20
-35.69598427986676
 10
211.861775447225
 20
-35.69174601596705
 10
211.9337873748246
 20
-35.68803110467393
 10
211.95439152765334
 20
-35.6875
 10
230.9206084723464
 20
-35.6875
 10
230.94121262517564
 20
-35.68803110467395
 10
231.0132245527751
 20
-35.69174601596706
 10
231.05419367645044
 20
-35.69598427986676
 10
231.11525175526592
 20
-35.70550137051135
 10
231.15556727660544
 20
-35.71393290149595
 10
231.2153219160712
 20
-35.72968241149739
 10
231.25455581310845
 20
-35.74221769365959
 10
231.31237260996204
 20
-35.76403241356574
 10
231.35010834412338
 20
-35.780538362278534
 10
231.40537346879586
 20
-35.80818668949563
 10
231.4412104072088
 20
-35.828488064345834
 10
231.49333712073383
 20
-35.861676462017996
 10
231.52689478966664
 20
-35.88555772729892
 10
231.5753296729721
 20
-35.923933840731166
 10
231.60625179724929
 20
-35.951141453743
 10
231.65048062669865
 20
-35.994297851281644
 10
231.6784389122044
 20
-36.024542954144636
 10
231.7128316863944
 20
-36.06582702224045
 10
232.01397896836812
 20
-36.42720100467112
 10
232.0410960530877
 20
-36.458091763683036
 10
232.0480484469877
 20
-36.465612821031364
 10
232.07680545500918
 20
-36.495156884832184
 10
232.37912562317229
 20
-36.790146590045325
 10
232.40936652115897
 20
-36.818169889372435
 10
232.41705593359313
 20
-36.824935613354434
 10
232.44870040279616
 20
-36.85136371932212
 10
232.7797704819313
 20
-37.113678440528204
 10
232.81273447576768
 20
-37.13844116102843
 10
232.821079269755
 20
-37.144379721281965
 10
232.85527523702996
 20
-37.167411287410125
 10
233.21158032117756
 20
-37.39426608077101
 10
233.24691743862013
 20
-37.41550532150788
 10
233.25582901912324
 20
-37.42055366950616
 10
233.29221343260647
 20
-37.439944174183864
 10
233.6699707007179
 20
-37.62893056694547
 10
233.70730577453537
 20
-37.646420835074224
 10
233.71668952905566
 20
-37.65052537349881
 10
233.7548761025811
 20
-37.666068951549335
 10
234.15007497998772
 20
-37.815180512324375
 10
234.18901163104053
 20
-37.82873611710638
 10
234.1987679341005
 20
-37.83185326887951
 10
234.23835124832146
 20
-37.84338489718928
 10
234.64679598621618
 20
-37.951038537844084
 10
234.68692083173198
 20
-37.9605155620874
 10
234.69694610257974
 20
-37.96261223302141
 10
234.73750590922987
 20
-37.970009482559405
 10
235.15486013010877
 20
-38.03506226555009
 10
235.1957471724899
 20
-38.04036009355116
 10
235.20593497479493
 20
-38.04141402370277
 10
235.24704065837818
 20
-38.04459835932438
 10
235.6920453593839
 20
-38.067555014483624
 10
235.71264608912838
 20
-38.068351759700654
 10
235.7177902834408
 20
-38.06848435945691
 10
235.73840470324956
 20
-38.06875
 10
249.62496164973973
 20
-38.06875
 10
249.64465139616527
 20
-38.06923497517776
 10
249.71347597284733
 20
-38.07262744887775
 10
249.75264673610843
 20
-38.07649843347419
 10
249.8110575855157
 20
-38.085192300730164
 10
249.84965777756244
 20
-38.09289674036872
 10
249.90693048570913
 20
-38.10729283559971
 10
249.94458587410372
 20
-38.11875603502435
 10
250.00016517677807
 20
-38.13871478675329
 10
250.03651068904122
 20
-38.1538256091835
 10
250.0898577397548
 20
-38.179153515463355
 10
250.12454100277805
 20
-38.197765460075814
 10
250.17513859693142
 20
-38.22821696450848
 10
250.20782335326663
 20
-38.25014958677597
 10
250.25518094249702
 20
-38.28542945920486
 10
250.28555031040304
 20
-38.31047012032226
 10
250.32920875849564
 20
-38.35023631911583
 10
250.356968304137
 20
-38.3781422475537
 10
250.3965043383926
 20
-38.42200923573032
 10
250.42138493040264
 20
-38.452509880927146
 10
250.45641524530618
 20
-38.50005236397235
 10
250.47817566404035
 20
-38.53285201934726
 10
250.50836063744345
 20
-38.58360906848325
 10
250.52678991362603
 20
-38.6183897383386
 10
250.5518368994151
 20
-38.671869259271624
 10
250.56675635950606
 20
-38.708293741790804
 10
250.58642252483332
 20
-38.76397724561075
 10
250.5976875232849
 20
-38.80169240206117
 10
250.61413404888165
 20
-38.868609089285535
 10
250.61836250436465
 20
-38.887845551524016
 10
250.63515515035917
 20
-38.97434642052605
 10
250.64329018652774
 20
-39.011505501465194
 10
250.64553212328292
 20
-39.02069467176693
 10
250.65542433810248
 20
-39.057425043337226
 10
250.76569676701837
 20
-39.43124220453017
 10
250.77732379517872
 20
-39.46746082302794
 10
250.78042823580458
 20
-39.47639556307165
 10
250.79376378975562
 20
-39.512020541815836
 10
250.93903685484383
 20
-39.873676476567695
 10
250.9540507842295
 20
-39.908627271038206
 10
250.95798966927356
 20
-39.91722682427429
 10
250.97464802909832
 20
-39.95142441421373
 10
251.15360868135582
 20
-40.29765029933084
 10
251.17187380873114
 20
-40.331017367402424
 10
251.1766115366239
 20
-40.33920400686282
 10
251.19644213591988
 20
-40.37166511345618
 10
251.40747284145698
 20
-40.69933159007877
 10
251.42882407766854
 20
-40.730813343872825
 10
251.43431782650887
 20
-40.73851307470741
 10
251.45714142662243
 20
-40.768944298599635
 10
251.69833478672464
 20
-41.075089756877254
 10
251.7225791488586
 20
-41.10440164890812
 10
251.7287792634579
 20
-41.11154487718419
 10
251.75438957352995
 20
-41.13967116609216
 10
252.0235655646616
 20
-41.42152851366332
 10
252.0504839203174
 20
-41.448405608717096
 10
252.0573343610077
 20
-41.45492777044403
 10
252.08549990253167
 20
-41.480494905214144
 10
252.3802255804534
 20
-41.73551657753858
 10
252.40957462836883
 20
-41.7597159472865
 10
252.4170134775174
 20
-41.76555809197742
 10
252.44747967655593
 20
-41.788334984343216
 10
252.765091166465
 20
-42.01421597083665
 10
252.79660563559273
 20
-42.03551888954102
 10
252.8045656572434
 20
-42.04062821303536
 10
252.8370571453911
 20
-42.06040899430538
 10
253.17468371932455
 20
-42.25510767215245
 10
253.20807876648158
 20
-42.273321593616615
 10
253.21648801406582
 20
-42.27765191534993
 10
253.250711117364
 20
-42.29425779714988
 10
253.60530114124197
 20
-42.45601438448954
 10
253.6402749256614
 20
-42.47097468238441
 10
253.64905739228726
 20
-42.47448686279127
 10
253.68470278559258
 20
-42.487767753040885
 10
254.05305130137876
 20
-42.61512021473505
 10
254.08928771289422
 20
-42.62669167057242
 10
254.09836401833394
 20
-42.62935396484894
 10
254.13510952115058
 20
-42.63918982436758
 10
254.5138872148312
 20
-42.73098708659014
 10
254.5510587310352
 20
-42.73906511189354
 10
254.5603468392012
 20
-42.740853456921975
 10
254.59786032770566
 20
-42.74715538440142
 10
254.9836436212567
 20
-42.80256773860601
 10
255.0214142678083
 20
-42.80707932023247
 10
255.03083022823722
 20
-42.80797755207601
 10
255.06877263717558
 20
-42.810688587613924
 10
255.47945652468016
 20
-42.83023273872922
 10
255.49846534241476
 20
-42.83091097682368
 10
255.5032128437658
 20
-42.831023878025896
 10
255.52223241335676
 20
-42.831250000000004
 10
287.6026820300962
 20
-42.831250000000004
 10
287.622306143729
 20
-42.8317317449498
 10
287.69090189855484
 20
-42.835101638291945
  0
ENDSEC
  0
SECTION
  2
OBJECTS
  0
DICTIONARY
  5
A
330
0
100
AcDbDictionary
281
1
  3
ACAD_COLOR
350
B
  3
ACAD_GROUP
350
C
  3
ACAD_LAYOUT
350
D
  3
ACAD_MATERIAL
350
E
  3
ACAD_MLEADERSTYLE
350
F
  3
ACAD_MLINESTYLE
350
10
  3
ACAD_PLOTSETTINGS
350
11
  3
ACAD_PLOTSTYLENAME
350
12
  3
ACAD_SCALELIST
350
14
  3
ACAD_TABLESTYLE
350
15
  3
ACAD_VISUALSTYLE
350
16
  3
EZDXF_META
350
2D
  0
DICTIONARY
  5
B
330
A
100
AcDbDictionary
281
1
  0
DICTIONARY
  5
C
330
A
100
AcDbDictionary
281
1
  0
DICTIONARY
  5
D
330
A
100
AcDbDictionary
281
1
  3
Model
350
1A
  3
Layout1
350
1E
  0
DICTIONARY
  5
E
330
A
100
AcDbDictionary
281
1
  3
ByBlock
350
1F
  3
ByLayer
350
20
  3
Global
350
21
  0
DICTIONARY
  5
F
330
A
100
AcDbDictionary
281
1
  3
Standard
350
2C
  0
DICTIONARY
  5
10
330
A
100
AcDbDictionary
281
1
  3
Standard
350
22
  0
DICTIONARY
  5
11
330
A
100
AcDbDictionary
281
1
  0
ACDBDICTIONARYWDFLT
  5
12
330
A
100
AcDbDictionary
281
1
  3
Normal
350
13
100
AcDbDictionaryWithDefault
340
13
  0
ACDBPLACEHOLDER
  5
13
330
12
  0
DICTIONARY
  5
14
330
A
100
AcDbDictionary
281
1
  0
DICTIONARY
  5
15
330
A
100
AcDbDictionary
281
1
  0
DICTIONARY
  5
16
330
A
100
AcDbDictionary
281
1
  3
2dWireframe
350
5A
  3
Basic
350
5B
  3
Brighten
350
5C
  3
ColorChange
350
5D
  3
Conceptual
350
5E
  3
Dim
350
5F
  3
EdgeColorOff
350
60
  3
Facepattern
350
61
  3
Flat
350
62
  3
FlatWithEdges
350
63
  3
Gouraud
350
64
  3
GouraudWithEdges
350
65
  3
Hidden
350
66
  3
JitterOff
350
67
  3
Linepattern
350
68
  3
Modeling
350
69
  3
OverhangOff
350
6A
  3
Realistic
350
6B
  3
Shaded
350
6C
  3
Shaded with edges
350
6D
  3
Shades of Gray
350
6E
  3
Sketchy
350
6F
  3
Thicken
350
70
  3
Wireframe
350
71
  3
X-Ray
350
72
  0
LAYOUT
  5
1A
330
D
100
AcDbPlotSettings
  1

  4
A3
  6

 40
7.5
 41
20.0
 42
7.5
 43
20.0
 44
420.0
 45
297.0
 46
0.0
 47
0.0
 48
0.0
 49
0.0
140
0.0
141
0.0
142
1.0
143
1.0
 70
1024
 72
1
 73
0
 74
5
  7

 75
16
 76
0
 77
2
 78
300
147
1.0
148
0.0
149
0.0
100
AcDbLayout
  1
Model
 70
1
 71
0
 10
0.0
 20
0.0
 11
420.0
 21
297.0
 12
0.0
 22
0.0
 32
0.0
 14
1e+20
 24
1e+20
 34
1e+20
 15
-1e+20
 25
-1e+20
 35
-1e+20
146
0.0
 13
0.0
 23
0.0
 33
0.0
 16
1.0
 26
0.0
 36
0.0
 17
0.0
 27
1.0
 37
0.0
 76
1
330
17
  0
LAYOUT
  5
1E
330
D
100
AcDbPlotSettings
  1

  4
A3
  6

 40
7.5
 41
20.0
 42
7.5
 43
20.0
 44
420.0
 45
297.0
 46
0.0
 47
0.0
 48
0.0
 49
0.0
140
0.0
141
0.0
142
1.0
143
1.0
 70
0
 72
1
 73
0
 74
5
  7

 75
16
 76
0
 77
2
 78
300
147
1.0
148
0.0
149
0.0
100
AcDbLayout
  1
Layout1
 70
1
 71
1
 10
0.0
 20
0.0
 11
420.0
 21
297.0
 12
0.0
 22
0.0
 32
0.0
 14
1e+20
 24
1e+20
 34
1e+20
 15
-1e+20
 25
-1e+20
 35
-1e+20
146
0.0
 13
0.0
 23
0.0
 33
0.0
 16
1.0
 26
0.0
 36
0.0
 17
0.0
 27
1.0
 37
0.0
 76
1
330
1B
  0
MATERIAL
  5
1F
102
{ACAD_REACTORS
330
E
102
}
330
E
100
AcDbMaterial
  1
ByBlock
  2

 70
0
 40
1.0
 71
1
 41
1.0
 91
-1023410177
 42
1.0
 72
1
  3

 73
1
 74
1
 75
1
 44
0.5
 73
0
 45
1.0
 46
1.0
 77
1
  4

 78
1
 79
1
170
1
 48
1.0
171
1
  6

172
1
173
1
174
1
140
1.0
141
1.0
175
1
  7

176
1
177
1
178
1
143
1.0
179
1
  8

270
1
271
1
272
1
145
1.0
146
1.0
273
1
  9

274
1
275
1
276
1
 42
1.0
 72
1
  3

 73
1
 74
1
 75
1
 94
63
  0
MATERIAL
  5
20
102
{ACAD_REACTORS
330
E
102
}
330
E
100
AcDbMaterial
  1
ByLayer
  2

 70
0
 40
1.0
 71
1
 41
1.0
 91
-1023410177
 42
1.0
 72
1
  3

 73
1
 74
1
 75
1
 44
0.5
 73
0
 45
1.0
 46
1.0
 77
1
  4

 78
1
 79
1
170
1
 48
1.0
171
1
  6

172
1
173
1
174
1
140
1.0
141
1.0
175
1
  7

176
1
177
1
178
1
143
1.0
179
1
  8

270
1
271
1
272
1
145
1.0
146
1.0
273
1
  9

274
1
275
1
276
1
 42
1.0
 72
1
  3

 73
1
 74
1
 75
1
 94
63
  0
MATERIAL
  5
21
102
{ACAD_REACTORS
330
E
102
}
330
E
100
AcDbMaterial
  1
Global
  2

 70
0
 40
1.0
 71
1
 41
1.0
 91
-1023410177
 42
1.0
 72
1
  3

 73
1
 74
1
 75
1
 44
0.5
 73
0
 45
1.0
 46
1.0
 77
1
  4

 78
1
 79
1
170
1
 48
1.0
171
1
  6

172
1
173
1
174
1
140
1.0
141
1.0
175
1
  7

176
1
177
1
178
1
143
1.0
179
1
  8

270
1
271
1
272
1
145
1.0
146
1.0
273
1
  9

274
1
275
1
276
1
 42
1.0
 72
1
  3

 73
1
 74
1
 75
1
 94
63
  0
MLINESTYLE
  5
22
102
{ACAD_REACTORS
330
10
102
}
330
10
100
AcDbMlineStyle
  2
Standard
 70
0
  3

 62
256
 51
90.0
 52
90.0
 71
2
 49
0.5
 62
256
  6
BYLAYER
 49
-0.5
 62
256
  6
BYLAYER
  0
MLEADERSTYLE
  5
2C
102
{ACAD_REACTORS
330
F
102
}
330
F
100
AcDbMLeaderStyle
179
2
170
2
171
1
172
0
 90
2
 40
0.0
 41
0.0
173
1
 91
-1056964608
 92
-2
290
1
 42
2.0
291
1
 43
8.0
  3
Standard
 44
4.0
300

342
29
174
1
175
1
176
0
178
1
 93
-1056964608
 45
4.0
292
0
297
0
 46
4.0
 94
-1056964608
 47
1.0
 49
1.0
140
1.0
294
1
141
0.0
177
0
142
1.0
295
0
296
0
143
3.75
271
0
272
9
273
9
  0
DICTIONARY
  5
2D
330
A
100
AcDbDictionary
280
1
281
1
  3
CREATED_BY_EZDXF
350
2E
  3
WRITTEN_BY_EZDXF
350
8E
  0
DICTIONARYVAR
  5
2E
330
2D
100
DictionaryVariables
280
0
  1
1.4.4 @ 2026-09-27T00:22:53.781321+00:00
  0
VISUALSTYLE
  5
5A
102
{ACAD_REACTORS
330
16
102
}
330
16
100
AcDbVisualStyle
  2
2dWireframe
 70
4
 90
0
 40
0.6
 62
7
290
0
291
0
  0
VISUALSTYLE
  5
5B
102
{ACAD_REACTORS
330
16
102
}
330
16
100
AcDbVisualStyle
  2
Basic
 70
7
 90
1
 40
0.6
 62
7
290
0
291
1
  0
VISUALSTYLE
  5
5C
102
{ACAD_REACTORS
330
16
102
}
330
16
100
AcDbVisualStyle
  2
Brighten
 70
12
 90
2
 40
0.6
 62
7
290
0
291
1
  0
VISUALSTYLE
  5
5D
102
{ACAD_REACTORS
330
16
102
}
330
16
100
AcDbVisualStyle
  2
ColorChange
 70
16
 90
2
 40
0.6
 62
8
290
0
291
1
  0
VISUALSTYLE
  5
5E
102
{ACAD_REACTORS
330
16
102
}
330
16
100
AcDbVisualStyle
  2
Conceptual
 70
9
 90
3
 40
0.6
 62
7
290
0
291
0
  0
VISUALSTYLE
  5
5F
102
{ACAD_REACTORS
330
16
102
}
330
16
100
AcDbVisualStyle
  2
Dim
 70
11
 90
2
 40
0.6
 62
7
290
0
291
1
  0
VISUALSTYLE
  5
60
102
{ACAD_REACTORS
330
16
102
}
330
16
100
AcDbVisualStyle
  2
EdgeColorOff
 70
22
 90
2
 40
0.6
 62
7
290
0
291
1
  0
VISUALSTYLE
  5
61
102
{ACAD_REACTORS
330
16
102
}
330
16
100
AcDbVisualStyle
  2
Facepattern
 70
15
 90
2
 40
0.6
 62
7
290
0
291
1
  0
VISUALSTYLE
  5
62
102
{ACAD_REACTORS
330
16
102
}
330
16
100
AcDbVisualStyle
  2
Flat
 70
0
 90
2
 40
0.6
 62
7
290
0
291
1
  0
VISUALSTYLE
  5
63
102
{ACAD_REACTORS
330
16
102
}
330
16
100
AcDbVisualStyle
  2
FlatWithEdges
 70
1
 90
2
 40
0.6
 62
7
290
0
291
1
  0
VISUALSTYLE
  5
64
102
{ACAD_REACTORS
330
16
102
}
330
16
100
AcDbVisualStyle
  2
Gouraud
 70
2
 90
2
 40
0.6
 62
7
290
0
291
1
  0
VISUALSTYLE
  5
65
102
{ACAD_REACTORS
330
16
102
}
330
16
100
AcDbVisualStyle
  2
GouraudWithEdges
 70
3
 90
2
 40
0.6
 62
7
290
0
291
1
  0
VISUALSTYLE
  5
66
102
{ACAD_REACTORS
330
16
102
}
330
16
100
AcDbVisualStyle
  2
Hidden
 70
6
 90
1
 40
0.6
 62
7
290
0
291
0
  0
VISUALSTYLE
  5
67
102
{ACAD_REACTORS
330
16
102
}
330
16
100
AcDbVisualStyle
  2
JitterOff
 70
20
 90
2
 40
0.6
 62
7
290
0
291
1
  0
VISUALSTYLE
  5
68
102
{ACAD_REACTORS
330
16
102
}
330
16
100
AcDbVisualStyle
  2
Linepattern
 70
14
 90
2
 40
0.6
 62
7
290
0
291
1
  0
VISUALSTYLE
  5
69
102
{ACAD_REACTORS
330
16
102
}
330
16
100
AcDbVisualStyle
  2
Modeling
 70
10
 90
2
 40
0.6
 62
7
290
0
291
0
  0
VISUALSTYLE
  5
6A
102
{ACAD_REACTORS
330
16
102
}
330
16
100
AcDbVisualStyle
  2
OverhangOff
 70
21
 90
2
 40
0.6
 62
7
290
0
291
1
  0
VISUALSTYLE
  5
6B
102
{ACAD_REACTORS
330
16
102
}
330
16
100
AcDbVisualStyle
  2
Realistic
 70
8
 90
2
 40
0.6
 62
7
290
0
291
0
  0
VISUALSTYLE
  5
6C
102
{ACAD_REACTORS
330
16
102
}
330
16
100
AcDbVisualStyle
  2
Shaded
 70
27
 90
2
 40
0.6
 62
7
290
0
291
0
  0
VISUALSTYLE
  5
6D
102
{ACAD_REACTORS
330
16
102
}
330
16
100
AcDbVisualStyle
  2
Shaded with edges
 70
26
 90
2
 40
0.6
 62
7
290
0
291
0
  0
VISUALSTYLE
  5
6E
102
{ACAD_REACTORS
330
16
102
}
330
16
100
AcDbVisualStyle
  2
Shades of Gray
 70
23
 90
2
 40
0.6
 62
7
290
0
291
0
  0
VISUALSTYLE
  5
6F
102
{ACAD_REACTORS
330
16
102
}
330
16
100
AcDbVisualStyle
  2
Sketchy
 70
24
 90
1
 40
0.6
 62
7
290
0
291
0
  0
VISUALSTYLE
  5
70
102
{ACAD_REACTORS
330
16
102
}
330
16
100
AcDbVisualStyle
  2
Thicken
 70
13
 90
2
 40
0.6
 62
7
290
0
291
1
  0
VISUALSTYLE
  5
71
102
{ACAD_REACTORS
330
16
102
}
330
16
100
AcDbVisualStyle
  2
Wireframe
 70
5
 90
0
 40
0.6
 62
7
290
0
291
0
  0
VISUALSTYLE
  5
72
102
{ACAD_REACTORS
330
16
102
}
330
16
100
AcDbVisualStyle
  2
X-Ray
 70
25
 90
2
 40
0.5
 62
7
290
0
291
0
  0
DICTIONARYVAR
  5
8E
330
2D
100
DictionaryVariables
280
0
  1
1.4.4 @ 2026-09-27T00:22:53.785221+00:00
  0
ENDSEC
  0
EOF
