  0
SECTION
  2
HEADER
  9
$ACADVER
  1
AC1024
  9
$ACADMAINTVER
 70
6
  9
$DWGCODEPAGE
  3
ANSI_1252
  9
$LASTSAVEDBY
  1
ezdxf
  9
$INSBASE
 10
0.0
 20
0.0
 30
0.0
  9
$EXTMIN
 10
1e+20
 20
1e+20
 30
1e+20
  9
$EXTMAX
 10
-1e+20
 20
-1e+20
 30
-1e+20
  9
$LIMMIN
 10
0.0
 20
0.0
  9
$LIMMAX
 10
420.0
 20
297.0
  9
$ORTHOMODE
 70
0
  9
$REGENMODE
 70
1
  9
$FILLMODE
 70
1
  9
$QTEXTMODE
 70
0
  9
$MIRRTEXT
 70
1
  9
$LTSCALE
 40
1.0
  9
$ATTMODE
 70
1
  9
$TEXTSIZE
 40
2.5
  9
$TRACEWID
 40
1.0
  9
$TEXTSTYLE
  7
OpenSans
  9
$CLAYER
  8
0
  9
$CELTYPE
  6
ByLayer
  9
$CECOLOR
 62
256
  9
$CELTSCALE
 40
1.0
  9
$DISPSILH
 70
0
  9
$DIMSCALE
 40
1.0
  9
$DIMASZ
 40
0.175
  9
$DIMEXO
 40
0.125
  9
$DIMDLI
 40
3.75
  9
$DIMRND
 40
0.0
  9
$DIMDLE
 40
0.0
  9
$DIMEXE
 40
0.375
  9
$DIMTP
 40
0.0
  9
$DIMTM
 40
0.0
  9
$DIMTXT
 40
0.25
  9
$DIMCEN
 40
2.5
  9
$DIMTSZ
 40
0.0
  9
$DIMTOL
 70
0
  9
$DIMLIM
 70
0
  9
$DIMTIH
 70
0
  9
$DIMTOH
 70
0
  9
$DIMSE1
 70
0
  9
$DIMSE2
 70
0
  9
$DIMTAD
 70
1
  9
$DIMZIN
 70
12
  9
$DIMBLK
  1
ARCHTICK
  9
$DIMASO
 70
1
  9
$DIMSHO
 70
1
  9
$DIMPOST
  1

  9
$DIMAPOST
  1

  9
$DIMALT
 70
0
  9
$DIMALTD
 70
3
  9
$DIMALTF
 40
0.03937007874
  9
$DIMLFAC
 40
100.0
  9
$DIMTOFL
 70
1
  9
$DIMTVP
 40
0.0
  9
$DIMTIX
 70
0
  9
$DIMSOXD
 70
0
  9
$DIMSAH
 70
0
  9
$DIMBLK1
  1

  9
$DIMBLK2
  1

  9
$DIMSTYLE
  2
EZDXF
  9
$DIMCLRD
 70
0
  9
$DIMCLRE
 70
0
  9
$DIMCLRT
 70
0
  9
$DIMTFAC
 40
0.5
  9
$DIMGAP
 40
0.1
  9
$DIMJUST
 70
0
  9
$DIMSD1
 70
0
  9
$DIMSD2
 70
0
  9
$DIMTOLJ
 70
0
  9
$DIMTZIN
 70
8
  9
$DIMALTZ
 70
0
  9
$DIMALTTZ
 70
0
  9
$DIMUPT
 70
1
  9
$DIMDEC
 70
2
  9
$DIMTDEC
 70
2
  9
$DIMALTU
 70
2
  9
$DIMALTTD
 70
3
  9
$DIMTXSTY
  7
OpenSansCondensed-Light
  9
$DIMAUNIT
 70
0
  9
$DIMADEC
 70
2
  9
$DIMALTRND
 40
0.0
  9
$DIMAZIN
 70
3
  9
$DIMDSEP
 70
46
  9
$DIMATFIT
 70
3
  9
$DIMFRAC
 70
0
  9
$DIMLDRBLK
  1

  9
$DIMLUNIT
 70
2
  9
$DIMLWD
 70
-2
  9
$DIMLWE
 70
-2
  9
$DIMTMOVE
 70
2
  9
$DIMFXL
 40
1.0
  9
$DIMFXLON
 70
0
  9
$DIMJOGANG
 40
0.785398163397
  9
$DIMTFILL
 70
0
  9
$DIMTFILLCLR
 70
0
  9
$DIMARCSYM
 70
0
  9
$DIMLTYPE
  6

  9
$DIMLTEX1
  6

  9
$DIMLTEX2
  6

  9
$DIMTXTDIRECTION
 70
0
  9
$LUNITS
 70
2
  9
$LUPREC
 70
4
  9
$SKETCHINC
 40
1.0
  9
$FILLETRAD
 40
10.0
  9
$AUNITS
 70
0
  9
$AUPREC
 70
2
  9
$MENU
  1
.
  9
$ELEVATION
 40
0.0
  9
$PELEVATION
 40
0.0
  9
$THICKNESS
 40
0.0
  9
$LIMCHECK
 70
0
  9
$CHAMFERA
 40
0.0
  9
$CHAMFERB
 40
0.0
  9
$CHAMFERC
 40
0.0
  9
$CHAMFERD
 40
0.0
  9
$SKPOLY
 70
0
  9
$TDCREATE
 40
2461313.6010532407
  9
$TDUCREATE
 40
2458532.153996898
  9
$TDUPDATE
 40
2461313.6010532407
  9
$TDUUPDATE
 40
2458532.1544311
  9
$TDINDWG
 40
0.0
  9
$TDUSRTIMER
 40
0.0
  9
$USRTIMER
 70
1
  9
$ANGBASE
 50
0.0
  9
$ANGDIR
 70
0
  9
$PDMODE
 70
0
  9
$PDSIZE
 40
0.0
  9
$PLINEWID
 40
0.0
  9
$SPLFRAME
 70
0
  9
$SPLINETYPE
 70
6
  9
$SPLINESEGS
 70
8
  9
$HANDSEED
  5
8F
  9
$SURFTAB1
 70
6
  9
$SURFTAB2
 70
6
  9
$SURFTYPE
 70
6
  9
$SURFU
 70
6
  9
$SURFV
 70
6
  9
$UCSBASE
  2

  9
$UCSNAME
  2

  9
$UCSORG
 10
0.0
 20
0.0
 30
0.0
  9
$UCSXDIR
 10
1.0
 20
0.0
 30
0.0
  9
$UCSYDIR
 10
0.0
 20
1.0
 30
0.0
  9
$UCSORTHOREF
  2

  9
$UCSORTHOVIEW
 70
0
  9
$UCSORGTOP
 10
0.0
 20
0.0
 30
0.0
  9
$UCSORGBOTTOM
 10
0.0
 20
0.0
 30
0.0
  9
$UCSORGLEFT
 10
0.0
 20
0.0
 30
0.0
  9
$UCSORGRIGHT
 10
0.0
 20
0.0
 30
0.0
  9
$UCSORGFRONT
 10
0.0
 20
0.0
 30
0.0
  9
$UCSORGBACK
 10
0.0
 20
0.0
 30
0.0
  9
$PUCSBASE
  2

  9
$PUCSNAME
  2

  9
$PUCSORG
 10
0.0
 20
0.0
 30
0.0
  9
$PUCSXDIR
 10
1.0
 20
0.0
 30
0.0
  9
$PUCSYDIR
 10
0.0
 20
1.0
 30
0.0
  9
$PUCSORTHOREF
  2

  9
$PUCSORTHOVIEW
 70
0
  9
$PUCSORGTOP
 10
0.0
 20
0.0
 30
0.0
  9
$PUCSORGBOTTOM
 10
0.0
 20
0.0
 30
0.0
  9
$PUCSORGLEFT
 10
0.0
 20
0.0
 30
0.0
  9
$PUCSORGRIGHT
 10
0.0
 20
0.0
 30
0.0
  9
$PUCSORGFRONT
 10
0.0
 20
0.0
 30
0.0
  9
$PUCSORGBACK
 10
0.0
 20
0.0
 30
0.0
  9
$USERI1
 70
0
  9
$USERI2
 70
0
  9
$USERI3
 70
0
  9
$USERI4
 70
0
  9
$USERI5
 70
0
  9
$USERR1
 40
0.0
  9
$USERR2
 40
0.0
  9
$USERR3
 40
0.0
  9
$USERR4
 40
0.0
  9
$USERR5
 40
0.0
  9
$WORLDVIEW
 70
1
  9
$SHADEDGE
 70
3
  9
$SHADEDIF
 70
70
  9
$TILEMODE
 70
1
  9
$MAXACTVP
 70
64
  9
$PINSBASE
 10
0.0
 20
0.0
 30
0.0
  9
$PLIMCHECK
 70
0
  9
$PEXTMIN
 10
1e+20
 20
1e+20
 30
1e+20
  9
$PEXTMAX
 10
-1e+20
 20
-1e+20
 30
-1e+20
  9
$PLIMMIN
 10
0.0
 20
0.0
  9
$PLIMMAX
 10
420.0
 20
297.0
  9
$UNITMODE
 70
0
  9
$VISRETAIN
 70
1
  9
$PLINEGEN
 70
0
  9
$PSLTSCALE
 70
1
  9
$TREEDEPTH
 70
3020
  9
$CMLSTYLE
  2
Standard
  9
$CMLJUST
 70
0
  9
$CMLSCALE
 40
20.0
  9
$PROXYGRAPHICS
 70
1
  9
$MEASUREMENT
 70
1
  9
$CELWEIGHT
370
-1
  9
$ENDCAPS
280
0
  9
$JOINSTYLE
280
0
  9
$LWDISPLAY
290
0
  9
$INSUNITS
 70
4
  9
$HYPERLINKBASE
  1

  9
$STYLESHEET
  1

  9
$XEDIT
290
1
  9
$CEPSNTYPE
380
0
  9
$PSTYLEMODE
290
1
  9
$FINGERPRINTGUID
  2
{95252F83-05D8-42A7-9A62-33C7E91575EC}
  9
$VERSIONGUID
  2
{68D3E72E-7B35-40D3-AEF9-028C981BCF06}
  9
$EXTNAMES
290
1
  9
$PSVPSCALE
 40
0.0
  9
$OLESTARTUP
290
0
  9
$SORTENTS
280
127
  9
$INDEXCTL
280
0
  9
$HIDETEXT
280
1
  9
$XCLIPFRAME
280
1
  9
$HALOGAP
280
0
  9
$OBSCOLOR
 70
257
  9
$OBSLTYPE
280
0
  9
$INTERSECTIONDISPLAY
280
0
  9
$INTERSECTIONCOLOR
 70
257
  9
$DIMASSOC
280
2
  9
$PROJECTNAME
  1

  9
$CAMERADISPLAY
290
0
  9
$LENSLENGTH
 40
50.0
  9
$CAMERAHEIGHT
 40
0.0
  9
$STEPSPERSEC
 40
24.0
  9
$STEPSIZE
 40
100.0
  9
$3DDWFPREC
 40
2.0
  9
$PSOLWIDTH
 40
0.005
  9
$PSOLHEIGHT
 40
0.08
  9
$LOFTANG1
 40
1.570796326795
  9
$LOFTANG2
 40
1.570796326795
  9
$LOFTMAG1
 40
0.0
  9
$LOFTMAG2
 40
0.0
  9
$LOFTPARAM
 70
7
  9
$LOFTNORMALS
280
1
  9
$LATITUDE
 40
37.795
  9
$LONGITUDE
 40
-122.394
  9
$NORTHDIRECTION
 40
0.0
  9
$TIMEZONE
 70
-8000
  9
$LIGHTGLYPHDISPLAY
280
1
  9
$TILEMODELIGHTSYNCH
280
1
  9
$CMATERIAL
347
20
  9
$SOLIDHIST
280
0
  9
$SHOWHIST
280
1
  9
$DWFFRAME
280
2
  9
$DGNFRAME
280
2
  9
$REALWORLDSCALE
290
1
  9
$INTERFERECOLOR
 62
256
  9
$CSHADOW
280
0
  9
$SHADOWPLANELOCATION
 40
0.0
  0
ENDSEC
  0
SECTION
  2
CLASSES
  0
CLASS
  1
ACDBDICTIONARYWDFLT
  2
AcDbDictionaryWithDefault
  3
ObjectDBX Classes
 90
0
 91
0
280
0
281
0
  0
CLASS
  1
SUN
  2
AcDbSun
  3
SCENEOE
 90
1153
 91
0
280
0
281
0
  0
CLASS
  1
VISUALSTYLE
  2
AcDbVisualStyle
  3
ObjectDBX Classes
 90
4095
 91
0
280
0
281
0
  0
CLASS
  1
MATERIAL
  2
AcDbMaterial
  3
ObjectDBX Classes
 90
1153
 91
0
280
0
281
0
  0
CLASS
  1
SCALE
  2
AcDbScale
  3
ObjectDBX Classes
 90
1153
 91
0
280
0
281
0
  0
CLASS
  1
TABLESTYLE
  2
AcDbTableStyle
  3
ObjectDBX Classes
 90
4095
 91
0
280
0
281
0
  0
CLASS
  1
MLEADERSTYLE
  2
AcDbMLeaderStyle
  3
ACDB_MLEADERSTYLE_CLASS
 90
4095
 91
0
280
0
281
0
  0
CLASS
  1
DICTIONARYVAR
  2
AcDbDictionaryVar
  3
ObjectDBX Classes
 90
0
 91
0
280
0
281
0
  0
CLASS
  1
CELLSTYLEMAP
  2
AcDbCellStyleMap
  3
ObjectDBX Classes
 90
1152
 91
0
280
0
281
0
  0
CLASS
  1
MENTALRAYRENDERSETTINGS
  2
AcDbMentalRayRenderSettings
  3
SCENEOE
 90
1024
 91
0
280
0
281
0
  0
CLASS
  1
ACDBDETAILVIEWSTYLE
  2
AcDbDetailViewStyle
  3
ObjectDBX Classes
 90
1025
 91
0
280
0
281
0
  0
CLASS
  1
ACDBSECTIONVIEWSTYLE
  2
AcDbSectionViewStyle
  3
ObjectDBX Classes
 90
1025
 91
0
280
0
281
0
  0
CLASS
  1
RASTERVARIABLES
  2
AcDbRasterVariables
  3
ISM
 90
0
 91
0
280
0
281
0
  0
CLASS
  1
LAYOUT
  2
AcDbLayout
  3
ObjectDBX Classes
 90
0
 91
0
280
0
281
0
  0
CLASS
  1
ACDBPLACEHOLDER
  2
AcDbPlaceHolder
  3
ObjectDBX Classes
 90
0
 91
0
280
0
281
0
  0
ENDSEC
  0
SECTION
  2
TABLES
  0
TABLE
  2
VPORT
  5
8
330
0
100
AcDbSymbolTable
 70
1
  0
VPORT
  5
23
330
8
100
AcDbSymbolTableRecord
100
AcDbViewportTableRecord
  2
*Active
 70
0
 10
0.0
 20
0.0
 11
1.0
 21
1.0
 12
0.0
 22
0.0
 13
0.0
 23
0.0
 14
0.5
 24
0.5
 15
0.5
 25
0.5
 16
0.0
 26
0.0
 36
1.0
 17
0.0
 27
0.0
 37
0.0
 40
1000.0
 41
1.34
 42
50.0
 43
0.0
 44
0.0
 50
0.0
 51
0.0
 71
0
 72
1000
 73
1
 74
3
 75
0
 76
0
 77
0
 78
0
281
0
 65
0
146
0.0
  0
ENDTAB
  0
TABLE
  2
LTYPE
  5
2
330
0
100
AcDbSymbolTable
 70
21
  0
LTYPE
  5
24
330
2
100
AcDbSymbolTableRecord
100
AcDbLinetypeTableRecord
  2
ByBlock
 70
0
  3

 72
65
 73
0
 40
0.0
  0
LTYPE
  5
25
330
2
100
AcDbSymbolTableRecord
100
AcDbLinetypeTableRecord
  2
ByLayer
 70
0
  3

 72
65
 73
0
 40
0.0
  0
LTYPE
  5
26
330
2
100
AcDbSymbolTableRecord
100
AcDbLinetypeTableRecord
  2
Continuous
 70
0
  3

 72
65
 73
0
 40
0.0
  0
LTYPE
  5
2F
330
2
100
AcDbSymbolTableRecord
100
AcDbLinetypeTableRecord
  2
CENTER
 70
0
  3
Center ____ _ ____ _ ____ _ ____ _ ____ _ ____
 72
65
 73
4
 40
5.08
 49
3.175
 74
0
 49
-0.635
 74
0
 49
0.635
 74
0
 49
-0.635
 74
0
  0
LTYPE
  5
30
330
2
100
AcDbSymbolTableRecord
100
AcDbLinetypeTableRecord
  2
CENTERX2
 70
0
  3
Center (2x) ________  __  ________  __  ________
 72
65
 73
4
 40
8.89
 49
6.35
 74
0
 49
-0.635
 74
0
 49
1.27
 74
0
 49
-0.635
 74
0
  0
LTYPE
  5
31
330
2
100
AcDbSymbolTableRecord
100
AcDbLinetypeTableRecord
  2
CENTER2
 70
0
  3
Center (.5x) ____ _ ____ _ ____ _ ____ _ ____
 72
65
 73
4
 40
2.54
 49
1.587
 74
0
 49
-0.318
 74
0
 49
0.318
 74
0
 49
-0.318
 74
0
  0
LTYPE
  5
32
330
2
100
AcDbSymbolTableRecord
100
AcDbLinetypeTableRecord
  2
DASHED
 70
0
  3
Dashed __ __ __ __ __ __ __ __ __ __ __ __ __ _
 72
65
 73
2
 40
1.524
 49
1.27
 74
0
 49
-0.254
 74
0
  0
LTYPE
  5
33
330
2
100
AcDbSymbolTableRecord
100
AcDbLinetypeTableRecord
  2
DASHEDX2
 70
0
  3
Dashed (2x) ____  ____  ____  ____  ____  ____
 72
65
 73
2
 40
3.048
 49
2.54
 74
0
 49
-0.508
 74
0
  0
LTYPE
  5
34
330
2
100
AcDbSymbolTableRecord
100
AcDbLinetypeTableRecord
  2
DASHED2
 70
0
  3
Dashed (.5x) _ _ _ _ _ _ _ _ _ _ _ _ _ _
 72
65
 73
2
 40
0.762
 49
0.635
 74
0
 49
-0.127
 74
0
  0
LTYPE
  5
35
330
2
100
AcDbSymbolTableRecord
100
AcDbLinetypeTableRecord
  2
PHANTOM
 70
0
  3
Phantom ______  __  __  ______  __  __  ______
 72
65
 73
6
 40
6.35
 49
3.175
 74
0
 49
-0.635
 74
0
 49
0.635
 74
0
 49
-0.635
 74
0
 49
0.635
 74
0
 49
-0.635
 74
0
  0
LTYPE
  5
36
330
2
100
AcDbSymbolTableRecord
100
AcDbLinetypeTableRecord
  2
PHANTOMX2
 70
0
  3
Phantom (2x)____________    ____    ____    ____________
 72
65
 73
6
 40
10.795
 49
6.35
 74
0
 49
-0.635
 74
0
 49
1.27
 74
0
 49
-0.635
 74
0
 49
1.27
 74
0
 49
-0.635
 74
0
  0
LTYPE
  5
37
330
2
100
AcDbSymbolTableRecord
100
AcDbLinetypeTableRecord
  2
PHANTOM2
 70
0
  3
Phantom (.5x) ___ _ _ ___ _ _ ___ _ _ ___ _ _ ___
 72
65
 73
6
 40
3.175
 49
1.587
 74
0
 49
-0.318
 74
0
 49
0.318
 74
0
 49
-0.318
 74
0
 49
0.318
 74
0
 49
-0.318
 74
0
  0
LTYPE
  5
38
330
2
100
AcDbSymbolTableRecord
100
AcDbLinetypeTableRecord
  2
DASHDOT
 70
0
  3
Dash dot __ . __ . __ . __ . __ . __ . __ . __
 72
65
 73
4
 40
3.556
 49
2.54
 74
0
 49
-0.508
 74
0
 49
0.0
 74
0
 49
-0.508
 74
0
  0
LTYPE
  5
39
330
2
100
AcDbSymbolTableRecord
100
AcDbLinetypeTableRecord
  2
DASHDOTX2
 70
0
  3
Dash dot (2x) ____  .  ____  .  ____  .  ____
 72
65
 73
4
 40
6.096
 49
5.08
 74
0
 49
-0.508
 74
0
 49
0.0
 74
0
 49
-0.508
 74
0
  0
LTYPE
  5
3A
330
2
100
AcDbSymbolTableRecord
100
AcDbLinetypeTableRecord
  2
DASHDOT2
 70
0
  3
Dash dot (.5x) _ . _ . _ . _ . _ . _ . _ . _
 72
65
 73
4
 40
1.778
 49
1.27
 74
0
 49
-0.254
 74
0
 49
0.0
 74
0
 49
-0.254
 74
0
  0
LTYPE
  5
3B
330
2
100
AcDbSymbolTableRecord
100
AcDbLinetypeTableRecord
  2
DOT
 70
0
  3
Dot .  .  .  .  .  .  .  .  .  .  .  .  .  .  .  .
 72
65
 73
2
 40
0.508
 49
0.0
 74
0
 49
-0.508
 74
0
  0
LTYPE
  5
3C
330
2
100
AcDbSymbolTableRecord
100
AcDbLinetypeTableRecord
  2
DOTX2
 70
0
  3
Dot (2x) .    .    .    .    .    .    .    . 
 72
65
 73
2
 40
1.016
 49
0.0
 74
0
 49
-1.016
 74
0
  0
LTYPE
  5
3D
330
2
100
AcDbSymbolTableRecord
100
AcDbLinetypeTableRecord
  2
DOT2
 70
0
  3
Dot (.5) . . . . . . . . . . . . . . . . . . . 
 72
65
 73
2
 40
0.254
 49
0.0
 74
0
 49
-0.254
 74
0
  0
LTYPE
  5
3E
330
2
100
AcDbSymbolTableRecord
100
AcDbLinetypeTableRecord
  2
DIVIDE
 70
0
  3
Divide __ . . __ . . __ . . __ . . __ . . __
 72
65
 73
6
 40
4.064
 49
2.54
 74
0
 49
-0.508
 74
0
 49
0.0
 74
0
 49
-0.508
 74
0
 49
0.0
 74
0
 49
-0.508
 74
0
  0
LTYPE
  5
3F
330
2
100
AcDbSymbolTableRecord
100
AcDbLinetypeTableRecord
  2
DIVIDEX2
 70
0
  3
Divide (2x) ____  . .  ____  . .  ____  . .  ____
 72
65
 73
6
 40
6.604
 49
5.08
 74
0
 49
-0.508
 74
0
 49
0.0
 74
0
 49
-0.508
 74
0
 49
0.0
 74
0
 49
-0.508
 74
0
  0
LTYPE
  5
40
330
2
100
AcDbSymbolTableRecord
100
AcDbLinetypeTableRecord
  2
DIVIDE2
 70
0
  3
Divide(.5x) _ . _ . _ . _ . _ . _ . _ . _
 72
65
 73
6
 40
2.032
 49
1.27
 74
0
 49
-0.254
 74
0
 49
0.0
 74
0
 49
-0.254
 74
0
 49
0.0
 74
0
 49
-0.254
 74
0
  0
ENDTAB
  0
TABLE
  2
LAYER
  5
1
330
0
100
AcDbSymbolTable
 70
3
  0
LAYER
  5
27
330
1
100
AcDbSymbolTableRecord
100
AcDbLayerTableRecord
  2
0
 70
0
 62
7
  6
Continuous
370
-3
390
13
347
21
  0
LAYER
  5
28
330
1
100
AcDbSymbolTableRecord
100
AcDbLayerTableRecord
  2
Defpoints
 70
0
 62
7
  6
Continuous
290
0
370
-3
390
13
347
21
  0
LAYER
  5
8A
330
1
100
AcDbSymbolTableRecord
100
AcDbLayerTableRecord
  2
OUTLINE
 70
0
 62
1
  6
Continuous
370
-3
390
13
347
21
  0
ENDTAB
  0
TABLE
  2
STYLE
  5
5
330
0
100
AcDbSymbolTable
 70
26
  0
STYLE
  5
29
330
5
100
AcDbSymbolTableRecord
100
AcDbTextStyleTableRecord
  2
Standard
 70
0
 40
0.0
 41
1.0
 50
0.0
 71
0
 42
2.5
  3
txt
  4

  0
STYLE
  5
41
330
5
100
AcDbSymbolTableRecord
100
AcDbTextStyleTableRecord
  2
OpenSans-Light
 70
0
 40
0.0
 41
1.0
 50
0.0
 71
0
 42
2.5
  3
OpenSans-Light.ttf
  4

  0
STYLE
  5
42
330
5
100
AcDbSymbolTableRecord
100
AcDbTextStyleTableRecord
  2
OpenSans-Light-Italic
 70
0
 40
0.0
 41
1.0
 50
0.0
 71
0
 42
2.5
  3
OpenSans-LightItalic.ttf
  4

  0
STYLE
  5
43
330
5
100
AcDbSymbolTableRecord
100
AcDbTextStyleTableRecord
  2
OpenSans
 70
0
 40
0.0
 41
1.0
 50
0.0
 71
0
 42
2.5
  3
OpenSans-Regular.ttf
  4

  0
STYLE
  5
44
330
5
100
AcDbSymbolTableRecord
100
AcDbTextStyleTableRecord
  2
OpenSans-Italic
 70
0
 40
0.0
 41
1.0
 50
0.0
 71
0
 42
2.5
  3
OpenSans-Italic.ttf
  4

  0
STYLE
  5
45
330
5
100
AcDbSymbolTableRecord
100
AcDbTextStyleTableRecord
  2
OpenSans-SemiBold
 70
0
 40
0.0
 41
1.0
 50
0.0
 71
0
 42
2.5
  3
OpenSans-SemiBold.ttf
  4

  0
STYLE
  5
46
330
5
100
AcDbSymbolTableRecord
100
AcDbTextStyleTableRecord
  2
OpenSans-SemiBoldItalic
 70
0
 40
0.0
 41
1.0
 50
0.0
 71
0
 42
2.5
  3
OpenSans-SemiBoldItalic.ttf
  4

  0
STYLE
  5
47
330
5
100
AcDbSymbolTableRecord
100
AcDbTextStyleTableRecord
  2
OpenSans-Bold
 70
0
 40
0.0
 41
1.0
 50
0.0
 71
0
 42
2.5
  3
OpenSans-Bold.ttf
  4

  0
STYLE
  5
48
330
5
100
AcDbSymbolTableRecord
100
AcDbTextStyleTableRecord
  2
OpenSans-BoldItalic
 70
0
 40
0.0
 41
1.0
 50
0.0
 71
0
 42
2.5
  3
OpenSans-BoldItalic.ttf
  4

  0
STYLE
  5
49
330
5
100
AcDbSymbolTableRecord
100
AcDbTextStyleTableRecord
  2
OpenSans-ExtraBold
 70
0
 40
0.0
 41
1.0
 50
0.0
 71
0
 42
2.5
  3
OpenSans-ExtraBold.ttf
  4

  0
STYLE
  5
4A
330
5
100
AcDbSymbolTableRecord
100
AcDbTextStyleTableRecord
  2
OpenSans-ExtraBoldItalic
 70
0
 40
0.0
 41
1.0
 50
0.0
 71
0
 42
2.5
  3
OpenSans-ExtraBoldItalic.ttf
  4

  0
STYLE
  5
4B
330
5
100
AcDbSymbolTableRecord
100
AcDbTextStyleTableRecord
  2
OpenSansCondensed-Bold
 70
0
 40
0.0
 41
1.0
 50
0.0
 71
0
 42
2.5
  3
OpenSansCondensed-Bold.ttf
  4

  0
STYLE
  5
4C
330
5
100
AcDbSymbolTableRecord
100
AcDbTextStyleTableRecord
  2
OpenSansCondensed-Light
 70
0
 40
0.0
 41
1.0
 50
0.0
 71
0
 42
2.5
  3
OpenSansCondensed-Light.ttf
  4

  0
STYLE
  5
4D
330
5
100
AcDbSymbolTableRecord
100
AcDbTextStyleTableRecord
  2
OpenSansCondensed-Italic
 70
0
 40
0.0
 41
1.0
 50
0.0
 71
0
 42
2.5
  3
OpenSansCondensed-LightItalic.ttf
  4

  0
STYLE
  5
4E
330
5
100
AcDbSymbolTableRecord
100
AcDbTextStyleTableRecord
  2
LiberationSans
 70
0
 40
0.0
 41
1.0
 50
0.0
 71
0
 42
2.5
  3
LiberationSans-Regular.ttf
  4

  0
STYLE
  5
4F
330
5
100
AcDbSymbolTableRecord
100
AcDbTextStyleTableRecord
  2
LiberationSans-Bold
 70
0
 40
0.0
 41
1.0
 50
0.0
 71
0
 42
2.5
  3
LiberationSans-Bold.ttf
  4

  0
STYLE
  5
50
330
5
100
AcDbSymbolTableRecord
100
AcDbTextStyleTableRecord
  2
LiberationSans-BoldItalic
 70
0
 40
0.0
 41
1.0
 50
0.0
 71
0
 42
2.5
  3
LiberationSans-BoldItalic.ttf
  4

  0
STYLE
  5
51
330
5
100
AcDbSymbolTableRecord
100
AcDbTextStyleTableRecord
  2
LiberationSans-Italic
 70
0
 40
0.0
 41
1.0
 50
0.0
 71
0
 42
2.5
  3
LiberationSans-Italic.ttf
  4

  0
STYLE
  5
52
330
5
100
AcDbSymbolTableRecord
100
AcDbTextStyleTableRecord
  2
LiberationSerif
 70
0
 40
0.0
 41
1.0
 50
0.0
 71
0
 42
2.5
  3
LiberationSerif-Regular.ttf
  4

  0
STYLE
  5
53
330
5
100
AcDbSymbolTableRecord
100
AcDbTextStyleTableRecord
  2
LiberationSerif-Bold
 70
0
 40
0.0
 41
1.0
 50
0.0
 71
0
 42
2.5
  3
LiberationSerif-Bold.ttf
  4

  0
STYLE
  5
54
330
5
100
AcDbSymbolTableRecord
100
AcDbTextStyleTableRecord
  2
LiberationSerif-BoldItalic
 70
0
 40
0.0
 41
1.0
 50
0.0
 71
0
 42
2.5
  3
LiberationSerif-BoldItalic.ttf
  4

  0
STYLE
  5
55
330
5
100
AcDbSymbolTableRecord
100
AcDbTextStyleTableRecord
  2
LiberationSerif-Italic
 70
0
 40
0.0
 41
1.0
 50
0.0
 71
0
 42
2.5
  3
LiberationSerif-Italic.ttf
  4

  0
STYLE
  5
56
330
5
100
AcDbSymbolTableRecord
100
AcDbTextStyleTableRecord
  2
LiberationMono
 70
0
 40
0.0
 41
1.0
 50
0.0
 71
0
 42
2.5
  3
LiberationMono-Regular.ttf
  4

  0
STYLE
  5
57
330
5
100
AcDbSymbolTableRecord
100
AcDbTextStyleTableRecord
  2
LiberationMono-Bold
 70
0
 40
0.0
 41
1.0
 50
0.0
 71
0
 42
2.5
  3
LiberationMono-Bold.ttf
  4

  0
STYLE
  5
58
330
5
100
AcDbSymbolTableRecord
100
AcDbTextStyleTableRecord
  2
LiberationMono-BoldItalic
 70
0
 40
0.0
 41
1.0
 50
0.0
 71
0
 42
2.5
  3
LiberationMono-BoldItalic.ttf
  4

  0
STYLE
  5
59
330
5
100
AcDbSymbolTableRecord
100
AcDbTextStyleTableRecord
  2
LiberationMono-Italic
 70
0
 40
0.0
 41
1.0
 50
0.0
 71
0
 42
2.5
  3
LiberationMono-Italic.ttf
  4

  0
ENDTAB
  0
TABLE
  2
VIEW
  5
7
330
0
100
AcDbSymbolTable
 70
0
  0
ENDTAB
  0
TABLE
  2
UCS
  5
6
330
0
100
AcDbSymbolTable
 70
0
  0
ENDTAB
  0
TABLE
  2
APPID
  5
3
330
0
100
AcDbSymbolTable
 70
3
  0
APPID
  5
2A
330
3
100
AcDbSymbolTableRecord
100
AcDbRegAppTableRecord
  2
ACAD
 70
0
  0
APPID
  5
8C
330
3
100
AcDbSymbolTableRecord
100
AcDbRegAppTableRecord
  2
HATCHBACKGROUNDCOLOR
 70
0
  0
APPID
  5
8D
330
3
100
AcDbSymbolTableRecord
100
AcDbRegAppTableRecord
  2
EZDXF
 70
0
  0
ENDTAB
  0
TABLE
  2
DIMSTYLE
  5
4
330
0
100
AcDbSymbolTable
 70
12
100
AcDbDimStyleTable
  0
DIMSTYLE
105
2B
330
4
100
AcDbSymbolTableRecord
100
AcDbDimStyleTableRecord
  2
Standard
 70
0
 40
1.0
 41
2.5
 42
0.625
 43
3.75
 44
1.25
 45
0.0
 46
0.0
 47
0.0
 48
0.0
 49
2.5
140
2.5
141
2.5
142
0.0
143
0.03937007874
144
1.0
145
0.0
146
1.0
147
0.625
148
0.0
 69
0
 70
0
 71
0
 72
0
 73
0
 74
0
 75
0
 76
0
 77
1
 78
8
 79
3
170
0
171
3
172
1
173
0
174
0
175
0
176
0
177
0
178
0
179
2
271
2
272
2
273
2
274
3
275
0
276
0
277
2
278
44
279
0
280
0
281
0
282
0
283
0
284
8
285
0
286
0
288
0
289
3
290
0
371
-2
372
-2
  0
DIMSTYLE
105
73
330
4
100
AcDbSymbolTableRecord
100
AcDbDimStyleTableRecord
  2
EZDXF
 70
0
 40
1.0
 41
0.175
 42
0.125
 43
3.75
 44
0.375
 45
0.0
 46
0.0
 47
0.0
 48
0.0
 49
2.5
140
0.25
141
2.5
142
0.0
143
0.03937007874
144
100.0
145
0.0
146
0.5
147
0.1
148
0.0
 69
0
 70
0
 71
0
 72
0
 73
0
 74
0
 75
0
 76
0
 77
1
 78
12
 79
3
170
0
171
3
172
1
173
0
174
0
175
0
176
0
177
0
178
0
179
2
271
2
272
2
273
2
274
3
275
0
276
0
277
2
278
46
279
2
280
0
281
0
282
0
283
0
284
8
285
0
286
0
288
1
289
3
290
0
340
4C
342
74
371
-2
372
-2
  0
DIMSTYLE
105
7C
330
4
100
AcDbSymbolTableRecord
100
AcDbDimStyleTableRecord
  2
EZ_M_100_H25_CM
 70
0
 40
1.0
 41
0.25
 42
0.125
 43
3.75
 44
0.375
 45
0.0
 46
0.0
 47
0.0
 48
0.0
 49
2.5
140
0.25
141
2.5
142
0.125
143
0.03937007874
144
100.0
145
0.0
146
0.5
147
0.1
148
0.0
 69
0
 70
0
 71
0
 72
0
 73
0
 74
0
 75
0
 76
0
 77
1
 78
12
 79
3
170
0
171
3
172
1
173
0
174
0
175
0
176
0
177
0
178
0
179
2
271
2
272
2
273
2
274
3
275
0
276
0
277
2
278
46
279
2
280
0
281
0
282
0
283
0
284
8
285
0
286
0
288
1
289
3
290
0
340
4C
371
-2
372
-2
  0
DIMSTYLE
105
7D
330
4
100
AcDbSymbolTableRecord
100
AcDbDimStyleTableRecord
  2
EZ_M_50_H25_CM
 70
0
 40
1.0
 41
0.125
 42
0.0625
 43
3.75
 44
0.1875
 45
0.0
 46
0.0
 47
0.0
 48
0.0
 49
2.5
140
0.125
141
2.5
142
0.0625
143
0.03937007874
144
100.0
145
0.0
146
0.5
147
0.05
148
0.0
 69
0
 70
0
 71
0
 72
0
 73
0
 74
0
 75
0
 76
0
 77
1
 78
12
 79
3
170
0
171
3
172
1
173
0
174
0
175
0
176
0
177
0
178
0
179
2
271
2
272
2
273
2
274
3
275
0
276
0
277
2
278
46
279
2
280
0
281
0
282
0
283
0
284
8
285
0
286
0
288
1
289
3
290
0
340
4C
371
-2
372
-2
  0
DIMSTYLE
105
7E
330
4
100
AcDbSymbolTableRecord
100
AcDbDimStyleTableRecord
  2
EZ_M_25_H25_CM
 70
0
 40
1.0
 41
0.0625
 42
0.03125
 43
3.75
 44
0.09375
 45
0.0
 46
0.0
 47
0.0
 48
0.0
 49
2.5
140
0.0625
141
2.5
142
0.03125
143
0.03937007874
144
100.0
145
0.0
146
0.5
147
0.025
148
0.0
 69
0
 70
0
 71
0
 72
0
 73
0
 74
0
 75
0
 76
0
 77
1
 78
12
 79
3
170
0
171
3
172
1
173
0
174
0
175
0
176
0
177
0
178
0
179
2
271
2
272
2
273
2
274
3
275
0
276
0
277
2
278
46
279
2
280
0
281
0
282
0
283
0
284
8
285
0
286
0
288
1
289
3
290
0
340
4C
371
-2
372
-2
  0
DIMSTYLE
105
7F
330
4
100
AcDbSymbolTableRecord
100
AcDbDimStyleTableRecord
  2
EZ_M_20_H25_CM
 70
0
 40
1.0
 41
0.05
 42
0.025
 43
3.75
 44
0.07500000000000001
 45
0.0
 46
0.0
 47
0.0
 48
0.0
 49
2.5
140
0.05
141
2.5
142
0.025
143
0.03937007874
144
100.0
145
0.0
146
0.5
147
0.020000000000000004
148
0.0
 69
0
 70
0
 71
0
 72
0
 73
0
 74
0
 75
0
 76
0
 77
1
 78
12
 79
3
170
0
171
3
172
1
173
0
174
0
175
0
176
0
177
0
178
0
179
2
271
2
272
2
273
2
274
3
275
0
276
0
277
2
278
46
279
2
280
0
281
0
282
0
283
0
284
8
285
0
286
0
288
1
289
3
290
0
340
4C
371
-2
372
-2
  0
DIMSTYLE
105
80
330
4
100
AcDbSymbolTableRecord
100
AcDbDimStyleTableRecord
  2
EZ_M_10_H25_CM
 70
0
 40
1.0
 41
0.025
 42
0.0125
 43
3.75
 44
0.037500000000000006
 45
0.0
 46
0.0
 47
0.0
 48
0.0
 49
2.5
140
0.025
141
2.5
142
0.0125
143
0.03937007874
144
100.0
145
0.0
146
0.5
147
0.010000000000000002
148
0.0
 69
0
 70
0
 71
0
 72
0
 73
0
 74
0
 75
0
 76
0
 77
1
 78
12
 79
3
170
0
171
3
172
1
173
0
174
0
175
0
176
0
177
0
178
0
179
2
271
2
272
2
273
2
274
3
275
0
276
0
277
2
278
46
279
2
280
0
281
0
282
0
283
0
284
8
285
0
286
0
288
1
289
3
290
0
340
4C
371
-2
372
-2
  0
DIMSTYLE
105
81
330
4
100
AcDbSymbolTableRecord
100
AcDbDimStyleTableRecord
  2
EZ_M_5_H25_CM
 70
0
 40
1.0
 41
0.0125
 42
0.00625
 43
3.75
 44
0.018750000000000003
 45
0.0
 46
0.0
 47
0.0
 48
0.0
 49
2.5
140
0.0125
141
2.5
142
0.00625
143
0.03937007874
144
100.0
145
0.0
146
0.5
147
0.005000000000000001
148
0.0
 69
0
 70
0
 71
0
 72
0
 73
0
 74
0
 75
0
 76
0
 77
1
 78
12
 79
3
170
0
171
3
172
1
173
0
174
0
175
0
176
0
177
0
178
0
179
2
271
2
272
2
273
2
274
3
275
0
276
0
277
2
278
46
279
2
280
0
281
0
282
0
283
0
284
8
285
0
286
0
288
1
289
3
290
0
340
4C
371
-2
372
-2
  0
DIMSTYLE
105
82
330
4
100
AcDbSymbolTableRecord
100
AcDbDimStyleTableRecord
  2
EZ_M_1_H25_CM
 70
0
 40
1.0
 41
0.0025
 42
0.00125
 43
3.75
 44
0.00375
 45
0.0
 46
0.0
 47
0.0
 48
0.0
 49
2.5
140
0.0025
141
2.5
142
0.00125
143
0.03937007874
144
100.0
145
0.0
146
0.5
147
0.001
148
0.0
 69
0
 70
0
 71
0
 72
0
 73
0
 74
0
 75
0
 76
0
 77
1
 78
12
 79
3
170
0
171
3
172
1
173
0
174
0
175
0
176
0
177
0
178
0
179
2
271
2
272
2
273
2
274
3
275
0
276
0
277
2
278
46
279
2
280
0
281
0
282
0
283
0
284
8
285
0
286
0
288
1
289
3
290
0
340
4C
371
-2
372
-2
  0
DIMSTYLE
105
83
330
4
100
AcDbSymbolTableRecord
100
AcDbDimStyleTableRecord
  2
EZ_RADIUS
 70
0
 40
1.0
 41
0.25
 42
0.125
 43
3.75
 44
0.375
 45
0.0
 46
0.0
 47
0.0
 48
0.0
 49
2.5
140
0.25
141
0.0
142
0.0
143
0.03937007874
144
100.0
145
0.0
146
0.5
147
0.1
148
0.0
 69
0
 70
0
 71
0
 72
0
 73
0
 74
0
 75
0
 76
0
 77
1
 78
12
 79
3
170
0
171
3
172
0
173
0
174
0
175
0
176
0
177
0
178
0
179
2
271
2
272
2
273
2
274
3
275
0
276
0
277
2
278
46
279
1
280
0
281
0
282
0
283
0
284
8
285
0
286
0
288
1
289
3
290
0
340
4C
342
84
371
-2
372
-2
  0
DIMSTYLE
105
88
330
4
100
AcDbSymbolTableRecord
100
AcDbDimStyleTableRecord
  2
EZ_RADIUS_INSIDE
 70
0
 40
1.0
 41
0.25
 42
0.125
 43
3.75
 44
0.375
 45
0.0
 46
0.0
 47
0.0
 48
0.0
 49
2.5
140
0.25
141
0.0
142
0.0
143
0.03937007874
144
100.0
145
0.0
146
0.5
147
0.1
148
0.0
 69
0
 70
0
 71
0
 72
0
 73
0
 74
0
 75
0
 76
0
 77
0
 78
12
 79
3
170
0
171
3
172
0
173
0
174
1
175
0
176
0
177
0
178
0
179
2
271
2
272
2
273
2
274
3
275
0
276
0
277
2
278
46
279
0
280
0
281
0
282
0
283
0
284
8
285
0
286
0
288
1
289
0
290
0
340
4C
342
84
371
-2
372
-2
  0
DIMSTYLE
105
89
330
4
100
AcDbSymbolTableRecord
100
AcDbDimStyleTableRecord
  2
EZ_CURVED
 70
0
 40
1.0
 41
0.25
 42
0.125
 43
3.75
 44
0.375
 45
0.0
 46
0.0
 47
0.0
 48
0.0
 49
2.5
140
0.25
141
2.5
142
0.0
143
0.03937007874
144
100.0
145
0.0
146
0.5
147
0.1
148
0.0
 69
0
 70
0
 71
0
 72
0
 73
0
 74
0
 75
0
 76
0
 77
1
 78
12
 79
2
 90
2
170
0
171
3
172
1
173
0
174
0
175
0
176
0
177
0
178
0
179
2
271
2
272
2
273
2
274
3
275
0
276
0
277
2
278
46
279
2
280
0
281
0
282
0
283
0
284
8
285
0
286
0
288
1
289
3
290
0
340
4C
371
-2
372
-2
  0
ENDTAB
  0
TABLE
  2
BLOCK_RECORD
  5
9
330
0
100
AcDbSymbolTable
 70
5
  0
BLOCK_RECORD
  5
17
330
9
100
AcDbSymbolTableRecord
100
AcDbBlockTableRecord
  2
*Model_Space
340
1A
 70
0
280
1
281
0
  0
BLOCK_RECORD
  5
1B
330
9
100
AcDbSymbolTableRecord
100
AcDbBlockTableRecord
  2
*Paper_Space
340
1E
 70
0
280
1
281
0
  0
BLOCK_RECORD
  5
74
330
9
100
AcDbSymbolTableRecord
100
AcDbBlockTableRecord
  2
_ARCHTICK
340
0
 70
0
280
1
281
0
  0
BLOCK_RECORD
  5
78
330
9
100
AcDbSymbolTableRecord
100
AcDbBlockTableRecord
  2
_CLOSEDFILLED
340
0
 70
0
280
1
281
0
  0
BLOCK_RECORD
  5
84
330
9
100
AcDbSymbolTableRecord
100
AcDbBlockTableRecord
  2
_CLOSEDBLANK
340
0
 70
0
280
1
281
0
  0
ENDTAB
  0
ENDSEC
  0
SECTION
  2
BLOCKS
  0
BLOCK
  5
18
330
17
100
AcDbEntity
  8
0
100
AcDbBlockBegin
  2
*Model_Space
 70
0
 10
0.0
 20
0.0
 30
0.0
  3
*Model_Space
  1

  0
ENDBLK
  5
19
330
17
100
AcDbEntity
  8
0
100
AcDbBlockEnd
  0
BLOCK
  5
1C
330
1B
100
AcDbEntity
  8
0
100
AcDbBlockBegin
  2
*Paper_Space
 70
0
 10
0.0
 20
0.0
 30
0.0
  3
*Paper_Space
  1

  0
ENDBLK
  5
1D
330
1B
100
AcDbEntity
  8
0
100
AcDbBlockEnd
  0
BLOCK
  5
75
330
74
100
AcDbEntity
  8
0
100
AcDbBlockBegin
  2
_ARCHTICK
 70
0
 10
0.0
 20
0.0
 30
0.0
  3
_ARCHTICK
  1

  0
LWPOLYLINE
  5
77
330
74
100
AcDbEntity
  8
0
  6
BYBLOCK
 62
0
100
AcDbPolyline
 90
2
 70
0
 43
0.15
 10
-0.5
 20
-0.5
 10
0.5
 20
0.5
  0
ENDBLK
  5
76
330
74
100
AcDbEntity
  8
0
100
AcDbBlockEnd
  0
BLOCK
  5
79
330
78
100
AcDbEntity
  8
0
100
AcDbBlockBegin
  2
_CLOSEDFILLED
 70
0
 10
0.0
 20
0.0
 30
0.0
  3
_CLOSEDFILLED
  1

  0
SOLID
  5
7B
330
78
100
AcDbEntity
  8
0
  6
BYBLOCK
 62
0
100
AcDbTrace
 10
-1.0
 20
0.16439898372402537
 30
0.0
 11
0.0
 21
0.0
 31
0.0
 12
-1.0
 22
-0.16439898372402537
 32
0.0
 13
-1.0
 23
-0.16439898372402537
 33
0.0
  0
ENDBLK
  5
7A
330
78
100
AcDbEntity
  8
0
100
AcDbBlockEnd
  0
BLOCK
  5
85
330
84
100
AcDbEntity
  8
0
100
AcDbBlockBegin
  2
_CLOSEDBLANK
 70
0
 10
0.0
 20
0.0
 30
0.0
  3
_CLOSEDBLANK
  1

  0
LWPOLYLINE
  5
87
330
84
100
AcDbEntity
  8
0
  6
BYBLOCK
 62
0
100
AcDbPolyline
 90
3
 70
1
 10
-1.0
 20
0.16439898372402537
 10
0.0
 20
0.0
 10
-1.0
 20
-0.16439898372402537
  0
ENDBLK
  5
86
330
84
100
AcDbEntity
  8
0
100
AcDbBlockEnd
  0
ENDSEC
  0
SECTION
  2
ENTITIES
  0
LWPOLYLINE
  5
8B
330
17
100
AcDbEntity
  8
OUTLINE
100
AcDbPolyline
 90
796
 70
1
 10
12.309098101445182
 20
-42.835101638291945
 10
12.270056523396791
 20
-42.83894689810321
 10
12.211836014257615
 20
-42.84758309482135
 10
12.173359333449016
 20
-42.8552365824899
 10
12.116265667280269
 20
-42.8695378013747
 10
12.078724435181552
 20
-42.88092580963038
 10
12.023307455198934
 20
-42.900754322126126
 10
11.987063214397024
 20
-42.91576717822419
 10
11.9338566164119
 20
-42.940932024916165
 10
11.899258418758865
 20
-42.95942514684554
 10
11.848774611395557
 20
-42.98968397650354
 10
11.816155656448089
 20
-43.0114792653907
 10
11.768880826368571
 20
-43.04654066894409
 10
11.738555252494347
 20
-43.071428224242375
 10
11.694944682155501
 20
-43.1109545412083
 10
11.667204541208312
 20
-43.13869468215549
 10
11.627678224242388
 20
-43.18230525249434
 10
11.602790668944008
 20
-43.21263082636868
 10
11.567729265390673
 20
-43.25990565644812
 10
11.545933976503576
 20
-43.29252461139551
 10
11.515675146845508
 20
-43.34300841875891
 10
11.49718202491616
 20
-43.3776066164119
 10
11.47201717822421
 20
-43.43081321439698
 10
11.457004322126096
 20
-43.467057455199
 10
11.437175809630395
 20
-43.522474435181465
 10
11.425787801374655
 20
-43.56001566728038
 10
11.411486582489887
 20
-43.61710933344906
 10
11.403833094821348
 20
-43.65558601425761
 10
11.39519689810321
 20
-43.713806523396734
 10
11.391351638291937
 20
-43.752848101445224
 10
11.387981744949782
 20
-43.82144385627109
 10
11.387499999999994
 20
-43.841067969903634
 10
11.387499999999994
 20
-99.97143203009637
 10
11.387981744949782
 20
-99.99105614372891
 10
11.391351638291937
 20
-100.05965189855479
 10
11.39519689810321
 20
-100.09869347660327
 10
11.403833094821348
 20
-100.15691398574239
 10
11.411486582489887
 20
-100.19539066655095
 10
11.425787801374653
 20
-100.25248433271962
 10
11.437175809630398
 20
-100.29002556481855
 10
11.45700432212609
 20
-100.34544254480099
 10
11.472017178224226
 20
-100.38168678560307
 10
11.497182024916139
 20
-100.43489338358806
 10
11.515675146845522
 20
-100.46949158124112
 10
11.54593397650354
 20
-100.51997538860445
 10
11.567729265390685
 20
-100.55259434355192
 10
11.602790668944056
 20
-100.5998691736314
 10
11.627678224242375
 20
-100.63019474750567
 10
11.667204541208381
 20
-100.6738053178446
 10
11.694944682155421
 20
-100.70154545879164
 10
11.738555252494269
 20
-100.74107177575756
 10
11.768880826368656
 20
-100.76595933105598
 10
11.816155656448245
 20
-100.80102073460942
 10
11.848774611395422
 20
-100.82281602349637
 10
11.899258418758803
 20
-100.85307485315442
 10
11.933856616411985
 20
-100.87156797508388
 10
11.987063214396995
 20
-100.89673282177581
 10
12.023307455198918
 20
-100.91174567787388
 10
12.078724435181526
 20
-100.93157419036963
 10
12.11626566728029
 20
-100.94296219862532
 10
12.173359333449163
 20
-100.95726341751013
 10
12.211836014257472
 20
-100.96491690517863
 10
12.270056523396846
 20
-100.9735531018968
 10
12.309098101445096
 20
-100.97739836170805
 10
12.377693856271094
 20
-100.98076825505021
 10
12.397317969903714
 20
-100.98125
 10
49.599961649739406
 20
-100.98125
 10
49.61965139616565
 20
-100.98076502482223
 10
49.68847597284715
 20
-100.97737255112227
 10
49.72764673610862
 20
-100.97350156652578
 10
49.786057585515714
 20
-100.96480769926984
 10
49.82465777756245
 20
-100.95710325963128
 10
49.88193048570912
 20
-100.9427071644003
 10
49.9195858741036
 20
-100.9312439649757
 10
49.97516517677816
 20
-100.91128521324669
 10
50.01151068904128
 20
-100.89617439081648
 10
50.06485773975478
 20
-100.87084648453666
 10
50.09954100277791
 20
-100.85223453992427
 10
50.15013859693161
 20
-100.82178303549139
 10
50.182823353266464
 20
-100.79985041322415
 10
50.23018094249702
 20
-100.76457054079515
 10
50.26055031040309
 20
-100.73952987967769
 10
50.30420875849548
 20
-100.69976368088432
 10
50.331968304137064
 20
-100.67185775244626
 10
50.371504338392604
 20
-100.62799076426965
 10
50.396384930402604
 20
-100.5974901190729
 10
50.43141524530617
 20
-100.54994763602768
 10
50.45317566404038
 20
-100.51714798065267
 10
50.48336063744343
 20
-100.4663909315168
 10
50.501789913626
 20
-100.43161026166149
 10
50.52683689941511
 20
-100.37813074072832
 10
50.54175635950603
 20
-100.34170625820931
 10
50.56142252483328
 20
-100.28602275438934
 10
50.572687523284905
 20
-100.2483075979388
 10
50.589134048881654
 20
-100.18139091071447
 10
50.59336250436463
 20
-100.16215444847612
 10
50.61015515035918
 20
-100.07565357947392
 10
50.61829018652786
 20
-100.03849449853426
 10
50.62053212328303
 20
-100.02930532823264
 10
50.630424338102465
 20
-99.99257495666285
 10
50.740696767018385
 20
-99.61875779546986
 10
50.75232379517875
 20
-99.58253917697203
 10
50.75542823580457
 20
-99.57360443692839
 10
50.76876378975558
 20
-99.53797945818428
 10
50.91403685484392
 20
-99.1763235234321
 10
50.9290507842296
 20
-99.14137272896158
 10
50.93298966927359
 20
-99.13277317572567
 10
50.94964802909835
 20
-99.0985755857862
 10
51.12860868135586
 20
-98.75234970066911
 10
51.14687380873093
 20
-98.71898263259793
 10
51.15161153662376
 20
-98.71079599313741
 10
51.17144213591999
 20
-98.67833488654368
 10
51.38247284145694
 20
-98.3506684099213
 10
51.4038240776683
 20
-98.31918665612753
 10
51.40931782650866
 20
-98.31148692529288
 10
51.43214142662243
 20
-98.28105570140036
 10
51.673334786724645
 20
-97.97491024312275
 10
51.69757914885855
 20
-97.94559835109196
 10
51.70377926345788
 20
-97.93845512281585
 10
51.72938957352999
 20
-97.9103288339078
 10
51.99856556466161
 20
-97.62847148633668
 10
52.02548392031722
 20
-97.6015943912831
 10
52.0323343610076
 20
-97.59507222955608
 10
52.06049990253177
 20
-97.56950509478578
 10
52.35522558045322
 20
-97.3144834224616
 10
52.384574628368206
 20
-97.29028405271401
 10
52.39201347751732
 20
-97.28444190802267
 10
52.42247967655627
 20
-97.26166501565655
 10
52.74009116646497
 20
-97.0357840291634
 10
52.7716056355924
 20
-97.01448111045922
 10
52.77956565724296
 20
-97.00937178696493
 10
52.81205714539095
 20
-96.98959100569475
 10
53.149683719324464
 20
-96.79489232784762
 10
53.18307876648136
 20
-96.77667840638352
 10
53.19148801406592
 20
-96.77234808465005
 10
53.22571111736421
 20
-96.75574220285003
 10
53.580301141241634
 20
-96.5939856155106
 10
53.61527492566152
 20
-96.57902531761556
 10
53.62405739228788
 20
-96.5755131372085
 10
53.659702785592756
 20
-96.56223224695906
 10
54.028051301378625
 20
-96.43487978526498
 10
54.06428771289426
 20
-96.42330832942757
 10
54.07336401833424
 20
-96.42064603515098
 10
54.11010952115078
 20
-96.41081017563236
 10
54.488887214831095
 20
-96.31901291340989
 10
54.5260587310343
 20
-96.31093488810666
 10
54.535346839200585
 20
-96.30914654307816
 10
54.57286032770575
 20
-96.30284461559857
 10
54.95864362125655
 20
-96.247432261394
 10
54.99641426780924
 20
-96.24292067976742
 10
55.00583022823835
 20
-96.24202244792387
 10
55.043772637175685
 20
-96.23931141238607
 10
55.454456524679465
 20
-96.21976726127082
 10
55.47346534241323
 20
-96.21908902317637
 10
55.47821284376524
 20
-96.21897612197412
 10
55.49723241335704
 20
-96.21875
 10
69.14233150960543
 20
-96.21875
 10
69.16198479345763
 20
-96.2182668207245
 10
69.23068224793812
 20
-96.21488690094702
 10
69.26978124352927
 20
-96.21103021840223
 10
69.32808635400251
 20
-96.20236841370918
 10
69.36661793523045
 20
-96.19469230111548
 10
69.42379119047601
 20
-96.1803489523955
 10
69.46138317281346
 20
-96.16892755491504
 10
69.51687232451164
 20
-96.1490412075456
 10
69.55316159921173
 20
-96.1339848468233
 10
69.60643066614804
 20
-96.1087475871544
 10
69.6410667075874
 20
-96.09020169569808
 10
69.69160115280613
 20
-96.05985729565046
 10
69.72424940428319
 20
-96.0380010120687
 10
69.77945552765564
 20
-95.99697604342971
 10
69.79494187070863
 20
-95.98486579127396
 10
70.04237824280068
 20
-95.78137618391963
 10
70.07265233119877
 20
-95.75767524039712
 10
70.08031875179866
 20
-95.75196509340566
 10
70.11169661795846
 20
-95.72974607750909
 10
70.43856370729154
 20
-95.50988695132571
 10
70.47097287544413
 20
-95.48920118395282
 10
70.4791519694475
 20
-95.484253234402
 10
70.51251758175005
 20
-95.4651484949934
 10
70.85897796883661
 20
-95.2776776182296
 10
70.89322295827489
 20
-95.26019803441014
 10
70.90183920189423
 20
-95.2560579704765
 10
70.93688447029484
 20
-95.2402439161279
 10
71.29973902319402
 20
-95.0868923498001
 10
71.3355036239181
 20
-95.0727803518091
 10
71.34447745682996
 20
-95.06948640184835
 10
71.38087878174183
 20
-95.05710905573727
 10
71.75677698872555
 20
-94.93929281135038
 10
71.79373095900618
 20
-94.92867870598634
 10
71.80297951899482
 20
-94.92626128554046
 10
71.84040077933514
 20
-94.91743493710507
 10
72.22587168670839
 20
-94.8362419015423
 10
72.26367380246715
 20
-94.82922369690266
 10
72.27311169055233
 20
-94.82770512785108
 10
72.3112073473964
 20
-94.82251127747173
 10
72.70269160945018
 20
-94.77869116770843
 10
72.74099281503428
 20
-94.77533366820815
 10
72.75053288402538
 20
-94.77472797265247
 10
72.78895117123598
 20
-94.77321457909507
 10
73.18283391638842
 20
-94.76717201949258
 10
73.22128054767312
 20
-94.76750622747483
 10
73.23083470686701
 20
-94.76781899826217
 10
73.26922087921217
 20
-94.77000003583929
 10
73.66186508886545
 20
-94.80179082194057
 10
73.70010213889813
 20
-94.80581365140924
 10
73.70958216748514
 20
-94.80704200048939
 10
73.74758177627582
 20
-94.81289733002419
 10
74.13536186817157
 20
-94.8822279133514
 10
74.1730362652234
 20
-94.88990221846629
 10
74.18235462689798
 20
-94.89203480355911
 10
74.21961679287918
 20
-94.9015103583458
 10
74.59895209885256
 20
-95.0077405569562
 10
74.63571596659546
 20
-95.01899547502832
 10
74.6447866178456
 20
-95.02201260435567
 10
74.68096727113367
 20
-95.03502088939895
 10
75.04835510014468
 20
-95.17716979917157
 10
75.08386896985984
 20
-95.19190140499248
 10
75.09260815447158
 20
-95.19577521910713
 10
75.12737321161048
 20
-95.21219611902958
 10
75.47942119274862
 20
-95.38895117109745
 10
75.51335713789925
 20
-95.4070234365599
 10
75.52168416034304
 20
-95.41171816559371
 10
75.55471260915084
 20
-95.4314000537522
 10
75.88817001597421
 20
-95.64112913444819
 10
75.920214680199
 20
-95.66237518459636
 10
75.9280526507505
 20
-95.66784747854955
 10
75.9590395144698
 20
-95.69060861711968
 10
76.27082728143134
 20
-95.93137513852172
 10
76.3006847720032
 20
-95.95559879243525
 10
76.30796131672614
 20
-95.96179812146062
 10
76.33662047010478
 20
-95.98742833955937
 10
76.62385962390393
 20
-96.25700912147812
 10
76.65125424393167
 20
-96.28398670375941
 10
76.65790217296143
 20
-96.29085582474309
 10
76.6839689842651
 20
-96.31911845909652
 10
76.94400722759435
 20
-96.61502425738627
 10
76.96868602174054
 20
-96.64450666352423
 10
76.97464394969808
 20
-96.65198214865384
 10
76.9978777242569
 20
-96.68261622888974
 10
77.22831392647848
 20
-97.00211472053115
 10
77.25004901668994
 20
-97.03382971707413
 10
77.25526192950028
 20
-97.04184253951635
 10
77.27544813222396
 20
-97.07456519790041
 10
77.47415450083253
 20
-97.41470621061403
 10
77.49274519051008
 20
-97.44836094890641
 10
77.4971649533899
 20
-97.45683712018568
 10
77.51411718973458
 20
-97.49134620355576
 10
77.6792589178821
 20
-97.84898895698416
 10
77.69453354506558
 20
-97.88427267726146
 10
77.69811934698633
 20
-97.89313393044868
 10
77.71168108407615
 20
-97.92911079022339
 10
77.84173329273743
 20
-98.30095289714244
 10
77.85355081519067
 20
-98.3375397980119
 10
77.85626954571936
 20
-98.34670431042501
 10
77.8663155577337
 20
-98.38381674492867
 10
77.96007737607223
 20
-98.766424704696
 10
77.96832867363351
 20
-98.8039769515094
 10
77.97015522866604
 20
-98.8133601002441
 10
77.97659275314433
 20
-98.85126542217594
 10
78.03319840706568
 20
-99.24110632485271
 10
78.03780728923643
 20
-99.27927716918818
 10
78.03872480280255
 20
-99.28879231250376
 10
78.04149439719113
 20
-99.32714051323234
 10
78.06146075193786
 20
-99.7422260919826
 10
78.06215365068672
 20
-99.76143903151126
 10
78.06226898927876
 20
-99.76623740999626
 10
78.0625
 20
-99.78546145192378
 10
78.0625
 20
-116.64018203009628
 10
78.06298174494978
 20
-116.6598061437289
 10
78.06635163829195
 20
-116.7284018985549
 10
78.0701968981032
 20
-116.76744347660315
 10
78.07883309482138
 20
-116.8256639857425
 10
78.08648658248988
 20
-116.86414066655088
 10
78.10078780137468
 20
-116.92123433271968
 10
78.11217580963036
 20
-116.95877556481845
 10
78.13200432212611
 20
-117.01419254480103
 10
78.14701717822425
 20
-117.05043678560311
 10
78.17218202491613
 20
-117.10364338358801
 10
78.19067514684554
 20
-117.13824158124113
 10
78.22093397650356
 20
-117.18872538860447
 10
78.24272926539071
 20
-117.22134434355193
 10
78.27779066894404
 20
-117.26861917363136
 10
78.30267822424236
 20
-117.29894474750564
 10
78.34220454120839
 20
-117.34255531784461
 10
78.36994468215539
 20
-117.37029545879162
 10
78.41355525249436
 20
-117.40982177575765
 10
78.44388082636864
 20
-117.43470933105597
 10
78.49115565644807
 20
-117.4697707346093
 10
78.52377461139554
 20
-117.49156602349645
 10
78.57425841875887
 20
-117.52182485315447
 10
78.608856616412
 20
-117.54031797508388
 10
78.6620632143969
 20
-117.56548282177576
 10
78.69830745519897
 20
-117.5804956778739
 10
78.75372443518155
 20
-117.60032419036965
 10
78.79126566728033
 20
-117.61171219862533
 10
78.84835933344912
 20
-117.62601341751012
 10
78.88683601425751
 20
-117.63366690517863
 10
78.94505652339686
 20
-117.6423031018968
 10
78.9840981014451
 20
-117.64614836170806
 10
79.0526938562711
 20
-117.64951825505022
 10
79.07231796990372
 20
-117.65
 10
97.01389084753181
 20
-117.65
 10
97.0347277221279
 20
-117.65027140562746
 10
97.03992722217464
 20
-117.65040687825055
 10
97.06074995865983
 20
-117.65122091098051
 10
97.5105396547381
 20
-117.67467531362459
 10
97.55208621846967
 20
-117.67792868325576
 10
97.5623813487193
 20
-117.67900529528092
 10
97.6037021245168
 20
-117.68441776785541
 10
98.04861294277853
 20
-117.75452656541368
 10
98.06915358796928
 20
-117.75803810341802
 10
98.0742686232948
 20
-117.75898127210843
 10
98.09471083807966
 20
-117.76302662235852
 10
115.56125011331397
 20
-121.45654109620791
 10
115.58158002736315
 20
-121.46111751387674
 10
115.58663900756844
 20
-121.46232576585577
 10
115.60684282675253
 20
-121.46743014578037
 10
116.04204881066705
 20
-121.58343286672569
 10
116.08202342498528
 20
-121.59521130388534
 10
116.09187308060369
 20
-121.598394554504
 10
116.13118010105948
 20
-121.61223866931174
 10
116.55196056262783
 20
-121.7728770298134
 10
116.57133031413744
 20
-121.78056219282035
 10
116.57613955500473
 20
-121.78254319151677
 10
116.59530256671735
 20
-121.79073025363198
 10
133.00099361965138
 20
-129.0538816754314
 10
133.0191328384889
 20
-129.06138545141758
 10
133.08322068411857
 20
-129.08607313668338
 10
133.12047676780585
 20
-129.09836195549528
 10
133.1772094550455
 20
-129.11403402545497
 10
133.21549065538423
 20
-129.1226119354624
 10
133.27348629070843
 20
-129.13264776435514
 10
133.31242393881396
 20
-129.1374321555958
 10
133.371123992551
 20
-129.14173509290328
 10
133.41034309758538
 20
-129.14267988907395
 10
133.46918225612933
 20
-129.14120849515763
 10
133.50830511667206
 20
-129.13830459735476
 10
133.56671672676103
 20
-129.1310730425425
 10
133.6053665682793
 20
-129.1243484168892
 10
133.66278809417685
 20
-129.11142634500712
 10
133.70059269756774
 20
-129.10094575332457
 10
133.7564711385903
 20
-129.08245761098863
 10
133.7930664248569
 20
-129.0683219871041
 10
133.8468636410716
 20
-129.0444458252315
 10
133.88189717760181
 20
-129.0267913029305
 10
133.93309507240681
 20
-128.99775706201262
 10
133.96622946709445
 20
-128.97675366399486
 10
134.0143349767756
 20
-128.94284095964323
 10
134.04525112728442
 20
-128.91869096011465
 10
134.08980096948716
 20
-128.8802263902102
 10
134.11820113638834
 20
-128.85316236686725
 10
134.1587662717778
 20
-128.81051636624576
 10
134.18437694593894
 20
-128.78079896042803
 10
134.2205667100866
 20
-128.73438223338783
 10
134.24314124671528
 20
-128.7022976399585
 10
134.27460711240903
 20
-128.65255720495492
 10
134.29392810637697
 20
-128.61841441608797
 10
134.3247786210487
 20
-128.55705498726357
 10
134.3331634076908
 20
-128.53930581074536
 10
145.71923419747375
 20
-102.82094351371677
 10
145.7267514935052
 20
-102.80276919190139
 10
145.75148039492888
 20
-102.73855634167502
 10
145.7637856957942
 20
-102.70122667829314
 10
145.77947171125518
 20
-102.64438099901902
 10
145.788051594336
 20
-102.60602334262623
 10
145.79807929188792
 20
-102.54791200453288
 10
145.80285081142742
 20
-102.50889717659693
 10
145.80712324861167
 20
-102.45008196926297
 10
145.8080402760912
 20
-102.41078714443566
 10
145.80651614925233
 20
-102.35183666207502
 10
145.8035698193368
 20
-102.31264172187038
 10
145.7962638629243
 20
-102.2541258664628
 10
145.7894826591677
 20
-102.21540972676307
 10
145.77646550329126
 20
-102.15789419854661
 10
145.765914982773
 20
-102.12003114644516
 10
145.7442084551789
 20
-102.05473462770462
 10
145.73754715324043
 20
-102.03622941845087
 10
145.700695136296
 20
-101.94124997796116
 10
145.687775129015
 20
-101.90544785075825
 10
145.68477518314356
 20
-101.89647154595339
 10
145.6735726943374
 20
-101.8600954116771
 10
145.56769258895653
 20
-101.48476690786002
 10
145.55823297683918
 20
-101.44789910837298
 10
145.55609953779185
 20
-101.43867836214395
 10
145.54840421536213
 20
-101.40140235225812
 10
145.478667088026
 20
-101.01771131045007
 10
145.47275347459436
 20
-100.9801114690064
 10
145.47150584864875
 20
-100.97072972329006
 10
145.4673873304086
 20
-100.93289116216746
 10
145.43442425812486
 20
-100.54430974423957
 10
145.43211015784982
 20
-100.50631811568535
 10
145.43175963523365
 20
-100.49686026936277
 10
145.43125519117493
 20
-100.45880157210922
 10
145.43536446895268
 20
-100.068846194752
 10
145.4366708229816
 20
-100.03080657935739
 10
145.43722057570332
 20
-100.02135821996926
 10
145.4403347707268
 20
-99.9834237937858
 10
145.48147921219447
 20
-99.59562330715751
 10
145.48639419884793
 20
-99.55787993944028
 10
145.48783925199228
 20
-99.54852656867953
 10
145.49454390459715
 20
-99.51105969619546
 10
145.5723511785162
 20
-99.12892345004909
 10
145.58083032026502
 20
-99.09181788368095
 10
145.58315759701267
 20
-99.08264414365188
 10
145.59339203432327
 20
-99.04598387642194
 10
145.69112348614604
 20
-98.7255437497002
 10
145.69641204516904
 20
-98.70653543229785
 10
145.71326872234658
 20
-98.63959618709463
 10
145.7210000555218
 20
-98.60093098539333
 10
145.72972436346876
 20
-98.5424199367543
 10
145.73360892683283
 20
-98.50318116125462
 10
145.7370133197144
 20
-98.43423610905415
 10
145.7375
 20
-98.41451180604216
 10
145.7375
 20
-36.459817969903
 10
145.73701825505023
 20
-36.440193856271534
 10
145.73364836170808
 20
-36.37159810144531
 10
145.72980310189678
 20
-36.33255652339663
 10
145.7211669051787
 20
-36.274336014257806
 10
145.7135134175101
 20
-36.235859333448865
 10
145.6992121986253
 20
-36.178765667280224
 10
145.6878241903697
 20
-36.14122443518168
 10
145.66799567787385
 20
-36.08580745519886
 10
145.65298282177582
 20
-36.04956321439704
 10
145.62781797508396
 20
-35.9963566164121
 10
145.60932485315433
 20
-35.96175841875862
 10
145.57906602349658
 20
-35.911274611395726
 10
145.5572707346092
 20
-35.87865565644794
 10
145.52220933105616
 20
-35.831380826368886
 10
145.49732177575746
 20
-35.80105525249415
 10
145.45779545879182
 20
-35.757444682155636
 10
145.43005531784442
 20
-35.72970454120822
 10
145.3864447475056
 20
-35.69017822424231
 10
145.35611917363147
 20
-35.6652906689441
 10
145.30884434355175
 20
-35.63022926539057
 10
145.2762253886047
 20
-35.6084339765037
 10
145.22574158124115
 20
-35.57817514684554
 10
145.191143383588
 20
-35.55968202491613
 10
145.13793678560293
 20
-35.534517178224164
 10
145.10169254480112
 20
-35.51950432212614
 10
145.04627556481864
 20
-35.49967580963044
 10
145.00873433271954
 20
-35.48828780137464
 10
144.95164066655107
 20
-35.47398658248992
 10
144.91316398574236
 20
-35.466333094821344
 10
144.85494347660327
 20
-35.45769689810321
 10
144.8159018985548
 20
-35.453851638291944
 10
144.74730614372902
 20
-35.4504817449498
 10
144.72768203009625
 20
-35.45
 10
126.10947723623823
 20
-35.45
 10
126.08978748981272
 20
-35.45048497517776
 10
126.02096291313065
 20
-35.453877448877755
 10
125.98179214986956
 20
-35.457748433474194
 10
125.92338130046222
 20
-35.46644230073017
 10
125.88478110841554
 20
-35.47414674036872
 10
125.82750840026875
 20
-35.48854283559973
 10
125.78985301187436
 20
-35.50000603502431
 10
125.73427370919991
 20
-35.519964786753285
 10
125.69792819693672
 20
-35.53507560918352
 10
125.64458114622319
 20
-35.560403515463356
 10
125.60989788320003
 20
-35.57901546007576
 10
125.5593002890465
 20
-35.60946696450853
 10
125.52661553271138
 20
-35.631399586775956
 10
125.47925794348087
 20
-35.66667945920491
 10
125.44888857557498
 20
-35.69172012032222
 10
125.40523012748223
 20
-35.73148631911594
 10
125.37747058184108
 20
-35.75939224755356
 10
125.3379345475854
 20
-35.80325923573031
 10
125.31305395557527
 20
-35.83375988092724
 10
125.2780236406718
 20
-35.88130236397234
 10
125.25626322193762
 20
-35.91410201934732
 10
125.22607824853452
 20
-35.96485906848326
 10
125.20764897235195
 20
-35.99963973833861
 10
125.1826019865629
 20
-36.053119259271625
 10
125.16768252647192
 20
-36.08954374179079
 10
125.14801636114474
 20
-36.14522724561054
 10
125.136751362693
 20
-36.182942402061435
 10
125.12030483709634
 20
-36.24985908928552
 10
125.11607638161338
 20
-36.26909555152375
 10
125.05317722282058
 20
-36.59309642052605
 10
125.04504218665203
 20
-36.63025550146519
 10
125.04280024989684
 20
-36.6394446717669
 10
125.03290803507727
 20
-36.67617504333723
 10
124.92263560616136
 20
-37.04999220453013
 10
124.91100857800141
 20
-37.086210823026754
 10
124.90790413737551
 20
-37.095145563070666
 10
124.89456858342409
 20
-37.130770541815984
 10
124.74929551833597
 20
-37.49242647656758
 10
124.73428158895038
 20
-37.52737727103789
 10
124.73034270390623
 20
-37.535976824274165
 10
124.7136843440814
 20
-37.57017441421379
 10
124.53472369182397
 20
-37.91640029933075
 10
124.51645856444894
 20
-37.949767367401876
 10
124.51172083655615
 20
-37.95795400686232
 10
124.49189023725988
 20
-37.990415113456145
 10
124.2808595317228
 20
-38.31808159007875
 10
124.2595082955109
 20
-38.34956334387326
 10
124.25401454667065
 20
-38.357263074707724
 10
124.23119094655743
 20
-38.38769429859948
 10
123.9899975864551
 20
-38.693839756877274
 10
123.96575322432147
 20
-38.72315164890774
 10
123.9595531097223
 20
-38.73029487718368
 10
123.93394279964988
 20
-38.758421166092084
 10
123.66476680851822
 20
-39.04027851366325
 10
123.63784845286251
 20
-39.06715560871693
 10
123.63099801217203
 20
-39.07367777044405
 10
123.60283247064795
 20
-39.09924490521426
 10
123.30810679272636
 20
-39.35426657753855
 10
123.27875774481153
 20
-39.378465947286024
 10
123.2713188956629
 20
-39.38430809197699
 10
123.24085269662382
 20
-39.40708498434323
 10
122.92324120671479
 20
-39.63296597083663
 10
122.89172673758704
 20
-39.65426888954102
 10
122.88376671593649
 20
-39.65937821303529
 10
122.85127522778879
 20
-39.67915899430528
 10
122.51364865385511
 20
-39.873857672152496
 10
122.48025360669777
 20
-39.89207159361681
 10
122.47184435911346
 20
-39.896401915350154
 10
122.43762125581561
 20
-39.913007797149945
 10
122.0830312319379
 20
-40.0747643844895
 10
122.04805744751812
 20
-40.0897246823845
 10
122.0392749808922
 20
-40.09323686279138
 10
122.00362958758723
 20
-40.10651775304086
 10
121.63528107180082
 20
-40.23387021473512
 10
121.59904466028532
 20
-40.245441670572504
 10
121.58996835484595
 20
-40.248103964848916
 10
121.5532228520293
 20
-40.257939824367554
 10
121.17444515834868
 20
-40.34973708659011
 10
121.13727364214493
 20
-40.35781511189346
 10
121.12798553397876
 20
-40.35960345692193
 10
121.09047204547409
 20
-40.365905384401415
 10
120.70468875192311
 20
-40.421317738606
 10
120.66691810537162
 20
-40.42582932023245
 10
120.65750214494258
 20
-40.42672755207601
 10
120.61955973600409
 20
-40.42943858761393
 10
120.20887584849959
 20
-40.44898273872922
 10
120.18986703076507
 20
-40.44966097682368
 10
120.18511952941407
 20
-40.449773878025894
 10
120.16609995982301
 20
-40.45
 10
111.91340470324921
 20
-40.45
 10
111.89279028344072
 20
-40.44973435945692
 10
111.88764608912881
 20
-40.44960175970068
 10
111.86704535938404
 20
-40.44880501448364
 10
111.42204065837817
 20
-40.425848359324384
 10
111.38093497479515
 20
-40.422664023702794
 10
111.37074717249008
 20
-40.42161009355118
 10
111.32986013010873
 20
-40.41631226555009
 10
110.91250590922992
 20
-40.35125948255941
 10
110.87194610257993
 20
-40.34386223302145
 10
110.86192083173214
 20
-40.34176556208743
 10
110.82179598621617
 20
-40.33228853784409
 10
110.41335124832146
 20
-40.224634897189276
 10
110.3737679341005
 20
-40.213103268879514
 10
110.36401163104053
 20
-40.20998611710638
 10
110.32507497998772
 20
-40.19643051232437
 10
109.92987610258098
 20
-40.04731895154928
 10
109.89168952905614
 20
-40.03177537349901
 10
109.88230577453612
 20
-40.027670835074545
 10
109.84497070071802
 20
-40.01018056694554
 10
109.46721343260647
 20
-39.821194174183866
 10
109.43082901912324
 20
-39.801803669506164
 10
109.42191743862011
 20
-39.79675532150788
 10
109.38658032117756
 20
-39.77551608077101
 10
109.03027523702997
 20
-39.54866128741013
 10
108.996079269755
 20
-39.525629721281966
 10
108.98773447576768
 20
-39.51969116102843
 10
108.9547704819313
 20
-39.49492844052821
 10
108.62370040279603
 20
-39.23261371932203
 10
108.59205593359296
 20
-39.20618561335429
 10
108.58436652115904
 20
-39.19941988937249
 10
108.55412562317237
 20
-39.17139659004541
 10
108.25180545500916
 20
-38.87640688483217
 10
108.22304844698766
 20
-38.846862821031316
 10
108.21609605308767
 20
-38.839341763683
 10
108.18889931262117
 20
-38.808355403390436
 10
107.88908665263388
 20
-38.448469160933584
 10
107.85332917421078
 20
-38.40563060324533
 10
107.82561878142845
 20
-38.375682656125356
 10
107.78125179724913
 20
-38.33239145374287
 10
107.75032967297206
 20
-38.30518384073114
 10
107.70189478966655
 20
-38.26680772729883
 10
107.66833712073388
 20
-38.242926462018026
 10
107.61621040720867
 20
-38.20973806434575
 10
107.58037346879587
 20
-38.18943668949562
 10
107.52510834412337
 20
-38.161788362278536
 10
107.48737260996192
 20
-38.1452824135657
 10
107.42955581310841
 20
-38.12346769365958
 10
107.39032191607116
 20
-38.11093241149739
 10
107.33056727660536
 20
-38.095182901495946
 10
107.29025175526593
 20
-38.08675137051136
 10
107.22919367645046
 20
-38.07723427986676
 10
107.188224552775
 20
-38.07299601596705
 10
107.11621262517541
 20
-38.069281104673934
 10
107.09560847234665
 20
-38.06875
 10
92.86340470324922
 20
-38.06875
 10
92.84279028344072
 20
-38.06848435945692
 10
92.83764608912881
 20
-38.068351759700676
 10
92.81704535938404
 20
-38.06755501448364
 10
92.37204065837817
 20
-38.04459835932438
 10
92.33093497479516
 20
-38.04141402370279
 10
92.32074717249009
 20
-38.04036009355118
 10
92.27986013010873
 20
-38.03506226555009
 10
91.86250590922992
 20
-37.97000948255941
 10
91.82194610257993
 20
-37.962612233021446
 10
91.81192083173214
 20
-37.96051556208743
 10
91.77179598621618
 20
-37.951038537844084
 10
91.36335124832146
 20
-37.84338489718928
 10
91.3237679341005
 20
-37.83185326887951
 10
91.31401163104053
 20
-37.82873611710638
 10
91.27507497998774
 20
-37.815180512324375
 10
90.87987610258111
 20
-37.666068951549335
 10
90.84168952905566
 20
-37.65052537349881
 10
90.83230577453539
 20
-37.646420835074224
 10
90.79497070071788
 20
-37.62893056694547
 10
90.41721343260647
 20
-37.439944174183864
 10
90.38082901912324
 20
-37.42055366950616
 10
90.37191743862012
 20
-37.41550532150788
 10
90.33658032117756
 20
-37.39426608077101
 10
89.98027523702997
 20
-37.167411287410125
 10
89.946079269755
 20
-37.144379721281965
 10
89.93773447576768
 20
-37.13844116102843
 10
89.90477048193131
 20
-37.113678440528204
 10
89.57370040279604
 20
-36.85136371932202
 10
89.54205593359296
 20
-36.82493561335429
 10
89.53436652115904
 20
-36.81816988937249
 10
89.50412562317237
 20
-36.79014659004541
 10
89.20180545500916
 20
-36.49515688483217
 10
89.17304844698766
 20
-36.465612821031314
 10
89.16609605308767
 20
-36.458091763683
 10
89.13889931262118
 20
-36.427105403390435
 10
88.83908665263388
 20
-36.06721916093358
 10
88.80332917421079
 20
-36.024380603245326
 10
88.77561878142845
 20
-35.994432656125355
 10
88.73125179724913
 20
-35.95114145374287
 10
88.70032967297206
 20
-35.92393384073114
 10
88.65189478966656
 20
-35.88555772729883
 10
88.61833712073388
 20
-35.861676462018025
 10
88.56621040720867
 20
-35.82848806434575
 10
88.53037346879587
 20
-35.80818668949562
 10
88.47510834412337
 20
-35.780538362278534
 10
88.43737260996193
 20
-35.7640324135657
 10
88.37955581310841
 20
-35.742217693659576
 10
88.34032191607116
 20
-35.729682411497386
 10
88.28056727660537
 20
-35.713932901495944
 10
88.24025175526593
 20
-35.70550137051136
 10
88.17919367645047
 20
-35.69598427986676
 10
88.138224552775
 20
-35.69174601596705
 10
88.06621262517541
 20
-35.68803110467393
 10
88.04560847234666
 20
-35.6875
 10
69.0793915276536
 20
-35.6875
 10
69.05878737482438
 20
-35.68803110467395
 10
68.9867754472249
 20
-35.69174601596706
 10
68.94580632354955
 20
-35.69598427986676
 10
68.88474824473408
 20
-35.70550137051135
 10
68.84443272339458
 20
-35.71393290149595
 10
68.78467808392881
 20
-35.72968241149739
 10
68.74544418689155
 20
-35.74221769365959
 10
68.68762739003797
 20
-35.76403241356574
 10
68.64989165587663
 20
-35.780538362278534
 10
68.59462653120413
 20
-35.80818668949563
 10
68.55878959279119
 20
-35.828488064345834
 10
68.50666287926617
 20
-35.861676462017996
 10
68.47310521033334
 20
-35.88555772729892
 10
68.42467032702791
 20
-35.923933840731166
 10
68.39374820275073
 20
-35.951141453743
 10
68.34951937330135
 20
-35.994297851281644
 10
68.3215610877956
 20
-36.024542954144636
 10
68.2871683136056
 20
-36.06582702224045
 10
67.98602103163188
 20
-36.42720100467112
 10
67.95890394691232
 20
-36.458091763683036
 10
67.95195155301231
 20
-36.465612821031364
 10
67.92319454499082
 20
-36.495156884832184
 10
67.6208743768277
 20
-36.790146590045325
 10
67.59063347884101
 20
-36.818169889372435
 10
67.58294406640687
 20
-36.824935613354434
 10
67.55129959720384
 20
-36.85136371932212
 10
67.22022951806869
 20
-37.113678440528204
 10
67.18726552423232
 20
-37.13844116102843
 10
67.178920730245
 20
-37.144379721281965
 10
67.14472476297003
 20
-37.167411287410125
 10
66.78841967882244
 20
-37.39426608077101
 10
66.75308256137988
 20
-37.41550532150788
 10
66.74417098087676
 20
-37.42055366950616
 10
66.70778656739353
 20
-37.439944174183864
 10
66.33002929928212
 20
-37.62893056694547
 10
66.29269422546461
 20
-37.646420835074224
 10
66.28331047094434
 20
-37.65052537349881
 10
66.24512389741889
 20
-37.666068951549335
 10
65.84992502001226
 20
-37.815180512324375
 10
65.81098836895947
 20
-37.82873611710638
 10
65.8012320658995
 20
-37.83185326887951
 10
65.76164875167854
 20
-37.84338489718928
 10
65.35320401378382
 20
-37.951038537844084
 10
65.313079168268
 20
-37.9605155620874
 10
65.30305389742026
 20
-37.96261223302141
 10
65.26249409077012
 20
-37.970009482559405
 10
64.84513986989124
 20
-38.03506226555009
 10
64.80425282751011
 20
-38.04036009355116
 10
64.79406502520507
 20
-38.04141402370277
 10
64.75295934162182
 20
-38.04459835932438
 10
64.30795464061609
 20
-38.067555014483624
 10
64.2873539108716
 20
-38.068351759700654
 10
64.28220971655921
 20
-38.06848435945691
 10
64.26159529675044
 20
-38.06875
 10
50.37503835026027
 20
-38.06875
 10
50.355348603834734
 20
-38.06923497517776
 10
50.28652402715268
 20
-38.07262744887775
 10
50.24735326389157
 20
-38.07649843347419
 10
50.18894241448429
 20
-38.085192300730164
 10
50.15034222243755
 20
-38.09289674036872
 10
50.09306951429087
 20
-38.10729283559971
 10
50.05541412589626
 20
-38.11875603502435
 10
49.99983482322192
 20
-38.13871478675329
 10
49.963489310958764
 20
-38.1538256091835
 10
49.9101422602452
 20
-38.179153515463355
 10
49.875458997221955
 20
-38.197765460075814
 10
49.82486140306859
 20
-38.22821696450848
 10
49.792176646733374
 20
-38.25014958677597
 10
49.744819057502966
 20
-38.28542945920486
 10
49.71444968959697
 20
-38.31047012032226
 10
49.67079124150436
 20
-38.35023631911583
 10
49.64303169586298
 20
-38.3781422475537
 10
49.60349566160742
 20
-38.42200923573032
 10
49.57861506959736
 20
-38.452509880927146
 10
49.54358475469381
 20
-38.50005236397235
 10
49.52182433595966
 20
-38.53285201934726
 10
49.49163936255654
 20
-38.58360906848325
 10
49.47321008637396
 20
-38.6183897383386
 10
49.448163100584914
 20
-38.671869259271624
 10
49.433243640493934
 20
-38.708293741790804
 10
49.41357747516669
 20
-38.76397724561075
 10
49.402312476715096
 20
-38.80169240206117
 10
49.385865951118355
 20
-38.868609089285535
 10
49.38163749563535
 20
-38.887845551524016
 10
49.364844849640825
 20
-38.97434642052605
 10
49.35670981347228
 20
-39.011505501465194
 10
49.35446787671709
 20
-39.02069467176693
 10
49.34457566189752
 20
-39.057425043337226
 10
49.23430323298162
 20
-39.43124220453017
 10
49.222676204821276
 20
-39.46746082302794
 10
49.21957176419543
 20
-39.47639556307165
 10
49.20623621024439
 20
-39.512020541815836
 10
49.06096314515617
 20
-39.873676476567695
 10
49.04594921577049
 20
-39.908627271038206
 10
49.04201033072643
 20
-39.91722682427429
 10
49.02535197090169
 20
-39.95142441421373
 10
48.84639131864418
 20
-40.29765029933084
 10
48.82812619126887
 20
-40.331017367402424
 10
48.823388463376105
 20
-40.33920400686282
 10
48.803557864080105
 20
-40.37166511345618
 10
48.59252715854303
 20
-40.69933159007877
 10
48.571175922331456
 20
-40.730813343872825
 10
48.565682173491126
 20
-40.73851307470741
 10
48.54285857337757
 20
-40.768944298599635
 10
48.30166521327536
 20
-41.075089756877254
 10
48.277420851141386
 20
-41.10440164890812
 10
48.27122073654209
 20
-41.11154487718419
 10
48.24561042647006
 20
-41.13967116609216
 10
47.97643443533841
 20
-41.42152851366332
 10
47.9495160796826
 20
-41.448405608717096
 10
47.94266563899231
 20
-41.45492777044403
 10
47.914500097468334
 20
-41.480494905214144
 10
47.61977441954658
 20
-41.73551657753858
 10
47.59042537163118
 20
-41.7597159472865
 10
47.5829865224826
 20
-41.76555809197742
 10
47.55252032344408
 20
-41.788334984343216
 10
47.234908833535
 20
-42.01421597083665
 10
47.20339436440728
 20
-42.03551888954102
 10
47.19543434275661
 20
-42.04062821303536
 10
47.162942854608886
 20
-42.06040899430538
 10
46.825316280675466
 20
-42.25510767215245
 10
46.791921233518416
 20
-42.273321593616615
 10
46.78351198593417
 20
-42.27765191534993
 10
46.74928888263601
 20
-42.29425779714988
 10
46.39469885875804
 20
-42.45601438448954
 10
46.35972507433859
 20
-42.47097468238441
 10
46.35094260771274
 20
-42.47448686279127
 10
46.31529721440743
 20
-42.487767753040885
 10
45.94694869862125
 20
-42.61512021473505
 10
45.91071228710579
 20
-42.62669167057242
 10
45.90163598166606
 20
-42.62935396484894
 10
45.86489047884941
 20
-42.63918982436758
 10
45.48611278516881
 20
-42.73098708659014
 10
45.44894126896481
 20
-42.73906511189354
 10
45.439653160798805
 20
-42.740853456921975
 10
45.402139672294346
 20
-42.74715538440142
 10
45.01635637874329
 20
-42.80256773860601
 10
44.978585732191696
 20
-42.80707932023247
 10
44.96916977176279
 20
-42.80797755207601
 10
44.93122736282442
 20
-42.810688587613924
 10
44.52054347531985
 20
-42.83023273872922
 10
44.50153465758524
 20
-42.83091097682368
 10
44.49678715623421
 20
-42.831023878025896
 10
44.477767586643246
 20
-42.831250000000004
 10
12.397317969903758
 20
-42.831250000000004
 10
12.377693856270993
 20
-42.8317317449498
 10
12.309098101445182
 20
-42.835101638291945
  0
ENDSEC
  0
SECTION
  2
OBJECTS
  0
DICTIONARY
  5
A
330
0
100
AcDbDictionary
281
1
  3
ACAD_COLOR
350
B
  3
ACAD_GROUP
350
C
  3
ACAD_LAYOUT
350
D
  3
ACAD_MATERIAL
350
E
  3
ACAD_MLEADERSTYLE
350
F
  3
ACAD_MLINESTYLE
350
10
  3
ACAD_PLOTSETTINGS
350
11
  3
ACAD_PLOTSTYLENAME
350
12
  3
ACAD_SCALELIST
350
14
  3
ACAD_TABLESTYLE
350
15
  3
ACAD_VISUALSTYLE
350
16
  3
EZDXF_META
350
2D
  0
DICTIONARY
  5
B
330
A
100
AcDbDictionary
281
1
  0
DICTIONARY
  5
C
330
A
100
AcDbDictionary
281
1
  0
DICTIONARY
  5
D
330
A
100
AcDbDictionary
281
1
  3
Model
350
1A
  3
Layout1
350
1E
  0
DICTIONARY
  5
E
330
A
100
AcDbDictionary
281
1
  3
ByBlock
350
1F
  3
ByLayer
350
20
  3
Global
350
21
  0
DICTIONARY
  5
F
330
A
100
AcDbDictionary
281
1
  3
Standard
350
2C
  0
DICTIONARY
  5
10
330
A
100
AcDbDictionary
281
1
  3
Standard
350
22
  0
DICTIONARY
  5
11
330
A
100
AcDbDictionary
281
1
  0
ACDBDICTIONARYWDFLT
  5
12
330
A
100
AcDbDictionary
281
1
  3
Normal
350
13
100
AcDbDictionaryWithDefault
340
13
  0
ACDBPLACEHOLDER
  5
13
330
12
  0
DICTIONARY
  5
14
330
A
100
AcDbDictionary
281
1
  0
DICTIONARY
  5
15
330
A
100
AcDbDictionary
281
1
  0
DICTIONARY
  5
16
330
A
100
AcDbDictionary
281
1
  3
2dWireframe
350
5A
  3
Basic
350
5B
  3
Brighten
350
5C
  3
ColorChange
350
5D
  3
Conceptual
350
5E
  3
Dim
350
5F
  3
EdgeColorOff
350
60
  3
Facepattern
350
61
  3
Flat
350
62
  3
FlatWithEdges
350
63
  3
Gouraud
350
64
  3
GouraudWithEdges
350
65
  3
Hidden
350
66
  3
JitterOff
350
67
  3
Linepattern
350
68
  3
Modeling
350
69
  3
OverhangOff
350
6A
  3
Realistic
350
6B
  3
Shaded
350
6C
  3
Shaded with edges
350
6D
  3
Shades of Gray
350
6E
  3
Sketchy
350
6F
  3
Thicken
350
70
  3
Wireframe
350
71
  3
X-Ray
350
72
  0
LAYOUT
  5
1A
330
D
100
AcDbPlotSettings
  1

  4
A3
  6

 40
7.5
 41
20.0
 42
7.5
 43
20.0
 44
420.0
 45
297.0
 46
0.0
 47
0.0
 48
0.0
 49
0.0
140
0.0
141
0.0
142
1.0
143
1.0
 70
1024
 72
1
 73
0
 74
5
  7

 75
16
 76
0
 77
2
 78
300
147
1.0
148
0.0
149
0.0
100
AcDbLayout
  1
Model
 70
1
 71
0
 10
0.0
 20
0.0
 11
420.0
 21
297.0
 12
0.0
 22
0.0
 32
0.0
 14
1e+20
 24
1e+20
 34
1e+20
 15
-1e+20
 25
-1e+20
 35
-1e+20
146
0.0
 13
0.0
 23
0.0
 33
0.0
 16
1.0
 26
0.0
 36
0.0
 17
0.0
 27
1.0
 37
0.0
 76
1
330
17
  0
LAYOUT
  5
1E
330
D
100
AcDbPlotSettings
  1

  4
A3
  6

 40
7.5
 41
20.0
 42
7.5
 43
20.0
 44
420.0
 45
297.0
 46
0.0
 47
0.0
 48
0.0
 49
0.0
140
0.0
141
0.0
142
1.0
143
1.0
 70
0
 72
1
 73
0
 74
5
  7

 75
16
 76
0
 77
2
 78
300
147
1.0
148
0.0
149
0.0
100
AcDbLayout
  1
Layout1
 70
1
 71
1
 10
0.0
 20
0.0
 11
420.0
 21
297.0
 12
0.0
 22
0.0
 32
0.0
 14
1e+20
 24
1e+20
 34
1e+20
 15
-1e+20
 25
-1e+20
 35
-1e+20
146
0.0
 13
0.0
 23
0.0
 33
0.0
 16
1.0
 26
0.0
 36
0.0
 17
0.0
 27
1.0
 37
0.0
 76
1
330
1B
  0
MATERIAL
  5
1F
102
{ACAD_REACTORS
330
E
102
}
330
E
100
AcDbMaterial
  1
ByBlock
  2

 70
0
 40
1.0
 71
1
 41
1.0
 91
-1023410177
 42
1.0
 72
1
  3

 73
1
 74
1
 75
1
 44
0.5
 73
0
 45
1.0
 46
1.0
 77
1
  4

 78
1
 79
1
170
1
 48
1.0
171
1
  6

172
1
173
1
174
1
140
1.0
141
1.0
175
1
  7

176
1
177
1
178
1
143
1.0
179
1
  8

270
1
271
1
272
1
145
1.0
146
1.0
273
1
  9

274
1
275
1
276
1
 42
1.0
 72
1
  3

 73
1
 74
1
 75
1
 94
63
  0
MATERIAL
  5
20
102
{ACAD_REACTORS
330
E
102
}
330
E
100
AcDbMaterial
  1
ByLayer
  2

 70
0
 40
1.0
 71
1
 41
1.0
 91
-1023410177
 42
1.0
 72
1
  3

 73
1
 74
1
 75
1
 44
0.5
 73
0
 45
1.0
 46
1.0
 77
1
  4

 78
1
 79
1
170
1
 48
1.0
171
1
  6

172
1
173
1
174
1
140
1.0
141
1.0
175
1
  7

176
1
177
1
178
1
143
1.0
179
1
  8

270
1
271
1
272
1
145
1.0
146
1.0
273
1
  9

274
1
275
1
276
1
 42
1.0
 72
1
  3

 73
1
 74
1
 75
1
 94
63
  0
MATERIAL
  5
21
102
{ACAD_REACTORS
330
E
102
}
330
E
100
AcDbMaterial
  1
Global
  2

 70
0
 40
1.0
 71
1
 41
1.0
 91
-1023410177
 42
1.0
 72
1
  3

 73
1
 74
1
 75
1
 44
0.5
 73
0
 45
1.0
 46
1.0
 77
1
  4

 78
1
 79
1
170
1
 48
1.0
171
1
  6

172
1
173
1
174
1
140
1.0
141
1.0
175
1
  7

176
1
177
1
178
1
143
1.0
179
1
  8

270
1
271
1
272
1
145
1.0
146
1.0
273
1
  9

274
1
275
1
276
1
 42
1.0
 72
1
  3

 73
1
 74
1
 75
1
 94
63
  0
MLINESTYLE
  5
22
102
{ACAD_REACTORS
330
10
102
}
330
10
100
AcDbMlineStyle
  2
Standard
 70
0
  3

 62
256
 51
90.0
 52
90.0
 71
2
 49
0.5
 62
256
  6
BYLAYER
 49
-0.5
 62
256
  6
BYLAYER
  0
MLEADERSTYLE
  5
2C
102
{ACAD_REACTORS
330
F
102
}
330
F
100
AcDbMLeaderStyle
179
2
170
2
171
1
172
0
 90
2
 40
0.0
 41
0.0
173
1
 91
-1056964608
 92
-2
290
1
 42
2.0
291
1
 43
8.0
  3
Standard
 44
4.0
300

342
29
174
1
175
1
176
0
178
1
 93
-1056964608
 45
4.0
292
0
297
0
 46
4.0
 94
-1056964608
 47
1.0
 49
1.0
140
1.0
294
1
141
0.0
177
0
142
1.0
295
0
296
0
143
3.75
271
0
272
9
273
9
  0
DICTIONARY
  5
2D
330
A
100
AcDbDictionary
280
1
281
1
  3
CREATED_BY_EZDXF
350
2E
  3
WRITTEN_BY_EZDXF
350
8E
  0
DICTIONARYVAR
  5
2E
330
2D
100
DictionaryVariables
280
0
  1
1.4.4 @ 2026-09-29T13:25:31.012149+00:00
  0
VISUALSTYLE
  5
5A
102
{ACAD_REACTORS
330
16
102
}
330
16
100
AcDbVisualStyle
  2
2dWireframe
 70
4
 90
0
 40
0.6
 62
7
290
0
291
0
  0
VISUALSTYLE
  5
5B
102
{ACAD_REACTORS
330
16
102
}
330
16
100
AcDbVisualStyle
  2
Basic
 70
7
 90
1
 40
0.6
 62
7
290
0
291
1
  0
VISUALSTYLE
  5
5C
102
{ACAD_REACTORS
330
16
102
}
330
16
100
AcDbVisualStyle
  2
Brighten
 70
12
 90
2
 40
0.6
 62
7
290
0
291
1
  0
VISUALSTYLE
  5
5D
102
{ACAD_REACTORS
330
16
102
}
330
16
100
AcDbVisualStyle
  2
ColorChange
 70
16
 90
2
 40
0.6
 62
8
290
0
291
1
  0
VISUALSTYLE
  5
5E
102
{ACAD_REACTORS
330
16
102
}
330
16
100
AcDbVisualStyle
  2
Conceptual
 70
9
 90
3
 40
0.6
 62
7
290
0
291
0
  0
VISUALSTYLE
  5
5F
102
{ACAD_REACTORS
330
16
102
}
330
16
100
AcDbVisualStyle
  2
Dim
 70
11
 90
2
 40
0.6
 62
7
290
0
291
1
  0
VISUALSTYLE
  5
60
102
{ACAD_REACTORS
330
16
102
}
330
16
100
AcDbVisualStyle
  2
EdgeColorOff
 70
22
 90
2
 40
0.6
 62
7
290
0
291
1
  0
VISUALSTYLE
  5
61
102
{ACAD_REACTORS
330
16
102
}
330
16
100
AcDbVisualStyle
  2
Facepattern
 70
15
 90
2
 40
0.6
 62
7
290
0
291
1
  0
VISUALSTYLE
  5
62
102
{ACAD_REACTORS
330
16
102
}
330
16
100
AcDbVisualStyle
  2
Flat
 70
0
 90
2
 40
0.6
 62
7
290
0
291
1
  0
VISUALSTYLE
  5
63
102
{ACAD_REACTORS
330
16
102
}
330
16
100
AcDbVisualStyle
  2
FlatWithEdges
 70
1
 90
2
 40
0.6
 62
7
290
0
291
1
  0
VISUALSTYLE
  5
64
102
{ACAD_REACTORS
330
16
102
}
330
16
100
AcDbVisualStyle
  2
Gouraud
 70
2
 90
2
 40
0.6
 62
7
290
0
291
1
  0
VISUALSTYLE
  5
65
102
{ACAD_REACTORS
330
16
102
}
330
16
100
AcDbVisualStyle
  2
GouraudWithEdges
 70
3
 90
2
 40
0.6
 62
7
290
0
291
1
  0
VISUALSTYLE
  5
66
102
{ACAD_REACTORS
330
16
102
}
330
16
100
AcDbVisualStyle
  2
Hidden
 70
6
 90
1
 40
0.6
 62
7
290
0
291
0
  0
VISUALSTYLE
  5
67
102
{ACAD_REACTORS
330
16
102
}
330
16
100
AcDbVisualStyle
  2
JitterOff
 70
20
 90
2
 40
0.6
 62
7
290
0
291
1
  0
VISUALSTYLE
  5
68
102
{ACAD_REACTORS
330
16
102
}
330
16
100
AcDbVisualStyle
  2
Linepattern
 70
14
 90
2
 40
0.6
 62
7
290
0
291
1
  0
VISUALSTYLE
  5
69
102
{ACAD_REACTORS
330
16
102
}
330
16
100
AcDbVisualStyle
  2
Modeling
 70
10
 90
2
 40
0.6
 62
7
290
0
291
0
  0
VISUALSTYLE
  5
6A
102
{ACAD_REACTORS
330
16
102
}
330
16
100
AcDbVisualStyle
  2
OverhangOff
 70
21
 90
2
 40
0.6
 62
7
290
0
291
1
  0
VISUALSTYLE
  5
6B
102
{ACAD_REACTORS
330
16
102
}
330
16
100
AcDbVisualStyle
  2
Realistic
 70
8
 90
2
 40
0.6
 62
7
290
0
291
0
  0
VISUALSTYLE
  5
6C
102
{ACAD_REACTORS
330
16
102
}
330
16
100
AcDbVisualStyle
  2
Shaded
 70
27
 90
2
 40
0.6
 62
7
290
0
291
0
  0
VISUALSTYLE
  5
6D
102
{ACAD_REACTORS
330
16
102
}
330
16
100
AcDbVisualStyle
  2
Shaded with edges
 70
26
 90
2
 40
0.6
 62
7
290
0
291
0
  0
VISUALSTYLE
  5
6E
102
{ACAD_REACTORS
330
16
102
}
330
16
100
AcDbVisualStyle
  2
Shades of Gray
 70
23
 90
2
 40
0.6
 62
7
290
0
291
0
  0
VISUALSTYLE
  5
6F
102
{ACAD_REACTORS
330
16
102
}
330
16
100
AcDbVisualStyle
  2
Sketchy
 70
24
 90
1
 40
0.6
 62
7
290
0
291
0
  0
VISUALSTYLE
  5
70
102
{ACAD_REACTORS
330
16
102
}
330
16
100
AcDbVisualStyle
  2
Thicken
 70
13
 90
2
 40
0.6
 62
7
290
0
291
1
  0
VISUALSTYLE
  5
71
102
{ACAD_REACTORS
330
16
102
}
330
16
100
AcDbVisualStyle
  2
Wireframe
 70
5
 90
0
 40
0.6
 62
7
290
0
291
0
  0
VISUALSTYLE
  5
72
102
{ACAD_REACTORS
330
16
102
}
330
16
100
AcDbVisualStyle
  2
X-Ray
 70
25
 90
2
 40
0.5
 62
7
290
0
291
0
  0
DICTIONARYVAR
  5
8E
330
2D
100
DictionaryVariables
280
0
  1
1.4.4 @ 2026-09-29T13:25:31.016385+00:00
  0
ENDSEC
  0
EOF
