  0
SECTION
  2
HEADER
  9
$ACADVER
  1
AC1024
  9
$ACADMAINTVER
 70
6
  9
$DWGCODEPAGE
  3
ANSI_1252
  9
$LASTSAVEDBY
  1
ezdxf
  9
$INSBASE
 10
0.0
 20
0.0
 30
0.0
  9
$EXTMIN
 10
1e+20
 20
1e+20
 30
1e+20
  9
$EXTMAX
 10
-1e+20
 20
-1e+20
 30
-1e+20
  9
$LIMMIN
 10
0.0
 20
0.0
  9
$LIMMAX
 10
420.0
 20
297.0
  9
$ORTHOMODE
 70
0
  9
$REGENMODE
 70
1
  9
$FILLMODE
 70
1
  9
$QTEXTMODE
 70
0
  9
$MIRRTEXT
 70
1
  9
$LTSCALE
 40
1.0
  9
$ATTMODE
 70
1
  9
$TEXTSIZE
 40
2.5
  9
$TRACEWID
 40
1.0
  9
$TEXTSTYLE
  7
OpenSans
  9
$CLAYER
  8
0
  9
$CELTYPE
  6
ByLayer
  9
$CECOLOR
 62
256
  9
$CELTSCALE
 40
1.0
  9
$DISPSILH
 70
0
  9
$DIMSCALE
 40
1.0
  9
$DIMASZ
 40
0.175
  9
$DIMEXO
 40
0.125
  9
$DIMDLI
 40
3.75
  9
$DIMRND
 40
0.0
  9
$DIMDLE
 40
0.0
  9
$DIMEXE
 40
0.375
  9
$DIMTP
 40
0.0
  9
$DIMTM
 40
0.0
  9
$DIMTXT
 40
0.25
  9
$DIMCEN
 40
2.5
  9
$DIMTSZ
 40
0.0
  9
$DIMTOL
 70
0
  9
$DIMLIM
 70
0
  9
$DIMTIH
 70
0
  9
$DIMTOH
 70
0
  9
$DIMSE1
 70
0
  9
$DIMSE2
 70
0
  9
$DIMTAD
 70
1
  9
$DIMZIN
 70
12
  9
$DIMBLK
  1
ARCHTICK
  9
$DIMASO
 70
1
  9
$DIMSHO
 70
1
  9
$DIMPOST
  1

  9
$DIMAPOST
  1

  9
$DIMALT
 70
0
  9
$DIMALTD
 70
3
  9
$DIMALTF
 40
0.03937007874
  9
$DIMLFAC
 40
100.0
  9
$DIMTOFL
 70
1
  9
$DIMTVP
 40
0.0
  9
$DIMTIX
 70
0
  9
$DIMSOXD
 70
0
  9
$DIMSAH
 70
0
  9
$DIMBLK1
  1

  9
$DIMBLK2
  1

  9
$DIMSTYLE
  2
EZDXF
  9
$DIMCLRD
 70
0
  9
$DIMCLRE
 70
0
  9
$DIMCLRT
 70
0
  9
$DIMTFAC
 40
0.5
  9
$DIMGAP
 40
0.1
  9
$DIMJUST
 70
0
  9
$DIMSD1
 70
0
  9
$DIMSD2
 70
0
  9
$DIMTOLJ
 70
0
  9
$DIMTZIN
 70
8
  9
$DIMALTZ
 70
0
  9
$DIMALTTZ
 70
0
  9
$DIMUPT
 70
1
  9
$DIMDEC
 70
2
  9
$DIMTDEC
 70
2
  9
$DIMALTU
 70
2
  9
$DIMALTTD
 70
3
  9
$DIMTXSTY
  7
OpenSansCondensed-Light
  9
$DIMAUNIT
 70
0
  9
$DIMADEC
 70
2
  9
$DIMALTRND
 40
0.0
  9
$DIMAZIN
 70
3
  9
$DIMDSEP
 70
46
  9
$DIMATFIT
 70
3
  9
$DIMFRAC
 70
0
  9
$DIMLDRBLK
  1

  9
$DIMLUNIT
 70
2
  9
$DIMLWD
 70
-2
  9
$DIMLWE
 70
-2
  9
$DIMTMOVE
 70
2
  9
$DIMFXL
 40
1.0
  9
$DIMFXLON
 70
0
  9
$DIMJOGANG
 40
0.785398163397
  9
$DIMTFILL
 70
0
  9
$DIMTFILLCLR
 70
0
  9
$DIMARCSYM
 70
0
  9
$DIMLTYPE
  6

  9
$DIMLTEX1
  6

  9
$DIMLTEX2
  6

  9
$DIMTXTDIRECTION
 70
0
  9
$LUNITS
 70
2
  9
$LUPREC
 70
4
  9
$SKETCHINC
 40
1.0
  9
$FILLETRAD
 40
10.0
  9
$AUNITS
 70
0
  9
$AUPREC
 70
2
  9
$MENU
  1
.
  9
$ELEVATION
 40
0.0
  9
$PELEVATION
 40
0.0
  9
$THICKNESS
 40
0.0
  9
$LIMCHECK
 70
0
  9
$CHAMFERA
 40
0.0
  9
$CHAMFERB
 40
0.0
  9
$CHAMFERC
 40
0.0
  9
$CHAMFERD
 40
0.0
  9
$SKPOLY
 70
0
  9
$TDCREATE
 40
2461311.05755787
  9
$TDUCREATE
 40
2458532.153996898
  9
$TDUPDATE
 40
2461311.05755787
  9
$TDUUPDATE
 40
2458532.1544311
  9
$TDINDWG
 40
0.0
  9
$TDUSRTIMER
 40
0.0
  9
$USRTIMER
 70
1
  9
$ANGBASE
 50
0.0
  9
$ANGDIR
 70
0
  9
$PDMODE
 70
0
  9
$PDSIZE
 40
0.0
  9
$PLINEWID
 40
0.0
  9
$SPLFRAME
 70
0
  9
$SPLINETYPE
 70
6
  9
$SPLINESEGS
 70
8
  9
$HANDSEED
  5
AD
  9
$SURFTAB1
 70
6
  9
$SURFTAB2
 70
6
  9
$SURFTYPE
 70
6
  9
$SURFU
 70
6
  9
$SURFV
 70
6
  9
$UCSBASE
  2

  9
$UCSNAME
  2

  9
$UCSORG
 10
0.0
 20
0.0
 30
0.0
  9
$UCSXDIR
 10
1.0
 20
0.0
 30
0.0
  9
$UCSYDIR
 10
0.0
 20
1.0
 30
0.0
  9
$UCSORTHOREF
  2

  9
$UCSORTHOVIEW
 70
0
  9
$UCSORGTOP
 10
0.0
 20
0.0
 30
0.0
  9
$UCSORGBOTTOM
 10
0.0
 20
0.0
 30
0.0
  9
$UCSORGLEFT
 10
0.0
 20
0.0
 30
0.0
  9
$UCSORGRIGHT
 10
0.0
 20
0.0
 30
0.0
  9
$UCSORGFRONT
 10
0.0
 20
0.0
 30
0.0
  9
$UCSORGBACK
 10
0.0
 20
0.0
 30
0.0
  9
$PUCSBASE
  2

  9
$PUCSNAME
  2

  9
$PUCSORG
 10
0.0
 20
0.0
 30
0.0
  9
$PUCSXDIR
 10
1.0
 20
0.0
 30
0.0
  9
$PUCSYDIR
 10
0.0
 20
1.0
 30
0.0
  9
$PUCSORTHOREF
  2

  9
$PUCSORTHOVIEW
 70
0
  9
$PUCSORGTOP
 10
0.0
 20
0.0
 30
0.0
  9
$PUCSORGBOTTOM
 10
0.0
 20
0.0
 30
0.0
  9
$PUCSORGLEFT
 10
0.0
 20
0.0
 30
0.0
  9
$PUCSORGRIGHT
 10
0.0
 20
0.0
 30
0.0
  9
$PUCSORGFRONT
 10
0.0
 20
0.0
 30
0.0
  9
$PUCSORGBACK
 10
0.0
 20
0.0
 30
0.0
  9
$USERI1
 70
0
  9
$USERI2
 70
0
  9
$USERI3
 70
0
  9
$USERI4
 70
0
  9
$USERI5
 70
0
  9
$USERR1
 40
0.0
  9
$USERR2
 40
0.0
  9
$USERR3
 40
0.0
  9
$USERR4
 40
0.0
  9
$USERR5
 40
0.0
  9
$WORLDVIEW
 70
1
  9
$SHADEDGE
 70
3
  9
$SHADEDIF
 70
70
  9
$TILEMODE
 70
1
  9
$MAXACTVP
 70
64
  9
$PINSBASE
 10
0.0
 20
0.0
 30
0.0
  9
$PLIMCHECK
 70
0
  9
$PEXTMIN
 10
1e+20
 20
1e+20
 30
1e+20
  9
$PEXTMAX
 10
-1e+20
 20
-1e+20
 30
-1e+20
  9
$PLIMMIN
 10
0.0
 20
0.0
  9
$PLIMMAX
 10
420.0
 20
297.0
  9
$UNITMODE
 70
0
  9
$VISRETAIN
 70
1
  9
$PLINEGEN
 70
0
  9
$PSLTSCALE
 70
1
  9
$TREEDEPTH
 70
3020
  9
$CMLSTYLE
  2
Standard
  9
$CMLJUST
 70
0
  9
$CMLSCALE
 40
20.0
  9
$PROXYGRAPHICS
 70
1
  9
$MEASUREMENT
 70
1
  9
$CELWEIGHT
370
-1
  9
$ENDCAPS
280
0
  9
$JOINSTYLE
280
0
  9
$LWDISPLAY
290
0
  9
$INSUNITS
 70
4
  9
$HYPERLINKBASE
  1

  9
$STYLESHEET
  1

  9
$XEDIT
290
1
  9
$CEPSNTYPE
380
0
  9
$PSTYLEMODE
290
1
  9
$FINGERPRINTGUID
  2
{E3372205-E5AC-4D7E-BB98-4AEE3DDDDE63}
  9
$VERSIONGUID
  2
{95197A3D-E4B4-461D-956C-48CE27F446D0}
  9
$EXTNAMES
290
1
  9
$PSVPSCALE
 40
0.0
  9
$OLESTARTUP
290
0
  9
$SORTENTS
280
127
  9
$INDEXCTL
280
0
  9
$HIDETEXT
280
1
  9
$XCLIPFRAME
280
1
  9
$HALOGAP
280
0
  9
$OBSCOLOR
 70
257
  9
$OBSLTYPE
280
0
  9
$INTERSECTIONDISPLAY
280
0
  9
$INTERSECTIONCOLOR
 70
257
  9
$DIMASSOC
280
2
  9
$PROJECTNAME
  1

  9
$CAMERADISPLAY
290
0
  9
$LENSLENGTH
 40
50.0
  9
$CAMERAHEIGHT
 40
0.0
  9
$STEPSPERSEC
 40
24.0
  9
$STEPSIZE
 40
100.0
  9
$3DDWFPREC
 40
2.0
  9
$PSOLWIDTH
 40
0.005
  9
$PSOLHEIGHT
 40
0.08
  9
$LOFTANG1
 40
1.570796326795
  9
$LOFTANG2
 40
1.570796326795
  9
$LOFTMAG1
 40
0.0
  9
$LOFTMAG2
 40
0.0
  9
$LOFTPARAM
 70
7
  9
$LOFTNORMALS
280
1
  9
$LATITUDE
 40
37.795
  9
$LONGITUDE
 40
-122.394
  9
$NORTHDIRECTION
 40
0.0
  9
$TIMEZONE
 70
-8000
  9
$LIGHTGLYPHDISPLAY
280
1
  9
$TILEMODELIGHTSYNCH
280
1
  9
$CMATERIAL
347
20
  9
$SOLIDHIST
280
0
  9
$SHOWHIST
280
1
  9
$DWFFRAME
280
2
  9
$DGNFRAME
280
2
  9
$REALWORLDSCALE
290
1
  9
$INTERFERECOLOR
 62
256
  9
$CSHADOW
280
0
  9
$SHADOWPLANELOCATION
 40
0.0
  0
ENDSEC
  0
SECTION
  2
CLASSES
  0
CLASS
  1
ACDBDICTIONARYWDFLT
  2
AcDbDictionaryWithDefault
  3
ObjectDBX Classes
 90
0
 91
0
280
0
281
0
  0
CLASS
  1
SUN
  2
AcDbSun
  3
SCENEOE
 90
1153
 91
0
280
0
281
0
  0
CLASS
  1
VISUALSTYLE
  2
AcDbVisualStyle
  3
ObjectDBX Classes
 90
4095
 91
0
280
0
281
0
  0
CLASS
  1
MATERIAL
  2
AcDbMaterial
  3
ObjectDBX Classes
 90
1153
 91
0
280
0
281
0
  0
CLASS
  1
SCALE
  2
AcDbScale
  3
ObjectDBX Classes
 90
1153
 91
0
280
0
281
0
  0
CLASS
  1
TABLESTYLE
  2
AcDbTableStyle
  3
ObjectDBX Classes
 90
4095
 91
0
280
0
281
0
  0
CLASS
  1
MLEADERSTYLE
  2
AcDbMLeaderStyle
  3
ACDB_MLEADERSTYLE_CLASS
 90
4095
 91
0
280
0
281
0
  0
CLASS
  1
DICTIONARYVAR
  2
AcDbDictionaryVar
  3
ObjectDBX Classes
 90
0
 91
0
280
0
281
0
  0
CLASS
  1
CELLSTYLEMAP
  2
AcDbCellStyleMap
  3
ObjectDBX Classes
 90
1152
 91
0
280
0
281
0
  0
CLASS
  1
MENTALRAYRENDERSETTINGS
  2
AcDbMentalRayRenderSettings
  3
SCENEOE
 90
1024
 91
0
280
0
281
0
  0
CLASS
  1
ACDBDETAILVIEWSTYLE
  2
AcDbDetailViewStyle
  3
ObjectDBX Classes
 90
1025
 91
0
280
0
281
0
  0
CLASS
  1
ACDBSECTIONVIEWSTYLE
  2
AcDbSectionViewStyle
  3
ObjectDBX Classes
 90
1025
 91
0
280
0
281
0
  0
CLASS
  1
RASTERVARIABLES
  2
AcDbRasterVariables
  3
ISM
 90
0
 91
0
280
0
281
0
  0
CLASS
  1
ACDBPLACEHOLDER
  2
AcDbPlaceHolder
  3
ObjectDBX Classes
 90
0
 91
0
280
0
281
0
  0
CLASS
  1
LAYOUT
  2
AcDbLayout
  3
ObjectDBX Classes
 90
0
 91
0
280
0
281
0
  0
ENDSEC
  0
SECTION
  2
TABLES
  0
TABLE
  2
VPORT
  5
8
330
0
100
AcDbSymbolTable
 70
1
  0
VPORT
  5
23
330
8
100
AcDbSymbolTableRecord
100
AcDbViewportTableRecord
  2
*Active
 70
0
 10
0.0
 20
0.0
 11
1.0
 21
1.0
 12
0.0
 22
0.0
 13
0.0
 23
0.0
 14
0.5
 24
0.5
 15
0.5
 25
0.5
 16
0.0
 26
0.0
 36
1.0
 17
0.0
 27
0.0
 37
0.0
 40
1000.0
 41
1.34
 42
50.0
 43
0.0
 44
0.0
 50
0.0
 51
0.0
 71
0
 72
1000
 73
1
 74
3
 75
0
 76
0
 77
0
 78
0
281
0
 65
0
146
0.0
  0
ENDTAB
  0
TABLE
  2
LTYPE
  5
2
330
0
100
AcDbSymbolTable
 70
21
  0
LTYPE
  5
24
330
2
100
AcDbSymbolTableRecord
100
AcDbLinetypeTableRecord
  2
ByBlock
 70
0
  3

 72
65
 73
0
 40
0.0
  0
LTYPE
  5
25
330
2
100
AcDbSymbolTableRecord
100
AcDbLinetypeTableRecord
  2
ByLayer
 70
0
  3

 72
65
 73
0
 40
0.0
  0
LTYPE
  5
26
330
2
100
AcDbSymbolTableRecord
100
AcDbLinetypeTableRecord
  2
Continuous
 70
0
  3

 72
65
 73
0
 40
0.0
  0
LTYPE
  5
2F
330
2
100
AcDbSymbolTableRecord
100
AcDbLinetypeTableRecord
  2
CENTER
 70
0
  3
Center ____ _ ____ _ ____ _ ____ _ ____ _ ____
 72
65
 73
4
 40
5.08
 49
3.175
 74
0
 49
-0.635
 74
0
 49
0.635
 74
0
 49
-0.635
 74
0
  0
LTYPE
  5
30
330
2
100
AcDbSymbolTableRecord
100
AcDbLinetypeTableRecord
  2
CENTERX2
 70
0
  3
Center (2x) ________  __  ________  __  ________
 72
65
 73
4
 40
8.89
 49
6.35
 74
0
 49
-0.635
 74
0
 49
1.27
 74
0
 49
-0.635
 74
0
  0
LTYPE
  5
31
330
2
100
AcDbSymbolTableRecord
100
AcDbLinetypeTableRecord
  2
CENTER2
 70
0
  3
Center (.5x) ____ _ ____ _ ____ _ ____ _ ____
 72
65
 73
4
 40
2.54
 49
1.587
 74
0
 49
-0.318
 74
0
 49
0.318
 74
0
 49
-0.318
 74
0
  0
LTYPE
  5
32
330
2
100
AcDbSymbolTableRecord
100
AcDbLinetypeTableRecord
  2
DASHED
 70
0
  3
Dashed __ __ __ __ __ __ __ __ __ __ __ __ __ _
 72
65
 73
2
 40
1.524
 49
1.27
 74
0
 49
-0.254
 74
0
  0
LTYPE
  5
33
330
2
100
AcDbSymbolTableRecord
100
AcDbLinetypeTableRecord
  2
DASHEDX2
 70
0
  3
Dashed (2x) ____  ____  ____  ____  ____  ____
 72
65
 73
2
 40
3.048
 49
2.54
 74
0
 49
-0.508
 74
0
  0
LTYPE
  5
34
330
2
100
AcDbSymbolTableRecord
100
AcDbLinetypeTableRecord
  2
DASHED2
 70
0
  3
Dashed (.5x) _ _ _ _ _ _ _ _ _ _ _ _ _ _
 72
65
 73
2
 40
0.762
 49
0.635
 74
0
 49
-0.127
 74
0
  0
LTYPE
  5
35
330
2
100
AcDbSymbolTableRecord
100
AcDbLinetypeTableRecord
  2
PHANTOM
 70
0
  3
Phantom ______  __  __  ______  __  __  ______
 72
65
 73
6
 40
6.35
 49
3.175
 74
0
 49
-0.635
 74
0
 49
0.635
 74
0
 49
-0.635
 74
0
 49
0.635
 74
0
 49
-0.635
 74
0
  0
LTYPE
  5
36
330
2
100
AcDbSymbolTableRecord
100
AcDbLinetypeTableRecord
  2
PHANTOMX2
 70
0
  3
Phantom (2x)____________    ____    ____    ____________
 72
65
 73
6
 40
10.795
 49
6.35
 74
0
 49
-0.635
 74
0
 49
1.27
 74
0
 49
-0.635
 74
0
 49
1.27
 74
0
 49
-0.635
 74
0
  0
LTYPE
  5
37
330
2
100
AcDbSymbolTableRecord
100
AcDbLinetypeTableRecord
  2
PHANTOM2
 70
0
  3
Phantom (.5x) ___ _ _ ___ _ _ ___ _ _ ___ _ _ ___
 72
65
 73
6
 40
3.175
 49
1.587
 74
0
 49
-0.318
 74
0
 49
0.318
 74
0
 49
-0.318
 74
0
 49
0.318
 74
0
 49
-0.318
 74
0
  0
LTYPE
  5
38
330
2
100
AcDbSymbolTableRecord
100
AcDbLinetypeTableRecord
  2
DASHDOT
 70
0
  3
Dash dot __ . __ . __ . __ . __ . __ . __ . __
 72
65
 73
4
 40
3.556
 49
2.54
 74
0
 49
-0.508
 74
0
 49
0.0
 74
0
 49
-0.508
 74
0
  0
LTYPE
  5
39
330
2
100
AcDbSymbolTableRecord
100
AcDbLinetypeTableRecord
  2
DASHDOTX2
 70
0
  3
Dash dot (2x) ____  .  ____  .  ____  .  ____
 72
65
 73
4
 40
6.096
 49
5.08
 74
0
 49
-0.508
 74
0
 49
0.0
 74
0
 49
-0.508
 74
0
  0
LTYPE
  5
3A
330
2
100
AcDbSymbolTableRecord
100
AcDbLinetypeTableRecord
  2
DASHDOT2
 70
0
  3
Dash dot (.5x) _ . _ . _ . _ . _ . _ . _ . _
 72
65
 73
4
 40
1.778
 49
1.27
 74
0
 49
-0.254
 74
0
 49
0.0
 74
0
 49
-0.254
 74
0
  0
LTYPE
  5
3B
330
2
100
AcDbSymbolTableRecord
100
AcDbLinetypeTableRecord
  2
DOT
 70
0
  3
Dot .  .  .  .  .  .  .  .  .  .  .  .  .  .  .  .
 72
65
 73
2
 40
0.508
 49
0.0
 74
0
 49
-0.508
 74
0
  0
LTYPE
  5
3C
330
2
100
AcDbSymbolTableRecord
100
AcDbLinetypeTableRecord
  2
DOTX2
 70
0
  3
Dot (2x) .    .    .    .    .    .    .    . 
 72
65
 73
2
 40
1.016
 49
0.0
 74
0
 49
-1.016
 74
0
  0
LTYPE
  5
3D
330
2
100
AcDbSymbolTableRecord
100
AcDbLinetypeTableRecord
  2
DOT2
 70
0
  3
Dot (.5) . . . . . . . . . . . . . . . . . . . 
 72
65
 73
2
 40
0.254
 49
0.0
 74
0
 49
-0.254
 74
0
  0
LTYPE
  5
3E
330
2
100
AcDbSymbolTableRecord
100
AcDbLinetypeTableRecord
  2
DIVIDE
 70
0
  3
Divide __ . . __ . . __ . . __ . . __ . . __
 72
65
 73
6
 40
4.064
 49
2.54
 74
0
 49
-0.508
 74
0
 49
0.0
 74
0
 49
-0.508
 74
0
 49
0.0
 74
0
 49
-0.508
 74
0
  0
LTYPE
  5
3F
330
2
100
AcDbSymbolTableRecord
100
AcDbLinetypeTableRecord
  2
DIVIDEX2
 70
0
  3
Divide (2x) ____  . .  ____  . .  ____  . .  ____
 72
65
 73
6
 40
6.604
 49
5.08
 74
0
 49
-0.508
 74
0
 49
0.0
 74
0
 49
-0.508
 74
0
 49
0.0
 74
0
 49
-0.508
 74
0
  0
LTYPE
  5
40
330
2
100
AcDbSymbolTableRecord
100
AcDbLinetypeTableRecord
  2
DIVIDE2
 70
0
  3
Divide(.5x) _ . _ . _ . _ . _ . _ . _ . _
 72
65
 73
6
 40
2.032
 49
1.27
 74
0
 49
-0.254
 74
0
 49
0.0
 74
0
 49
-0.254
 74
0
 49
0.0
 74
0
 49
-0.254
 74
0
  0
ENDTAB
  0
TABLE
  2
LAYER
  5
1
330
0
100
AcDbSymbolTable
 70
5
  0
LAYER
  5
27
330
1
100
AcDbSymbolTableRecord
100
AcDbLayerTableRecord
  2
0
 70
0
 62
7
  6
Continuous
370
-3
390
13
347
21
  0
LAYER
  5
28
330
1
100
AcDbSymbolTableRecord
100
AcDbLayerTableRecord
  2
Defpoints
 70
0
 62
7
  6
Continuous
290
0
370
-3
390
13
347
21
  0
LAYER
  5
8A
330
1
100
AcDbSymbolTableRecord
100
AcDbLayerTableRecord
  2
OUTLINE
 70
0
 62
1
  6
Continuous
370
-3
390
13
347
21
  0
LAYER
  5
8C
330
1
100
AcDbSymbolTableRecord
100
AcDbLayerTableRecord
  2
SWITCHES
 70
0
 62
2
  6
Continuous
370
-3
390
13
347
21
  0
LAYER
  5
A2
330
1
100
AcDbSymbolTableRecord
100
AcDbLayerTableRecord
  2
STANDOFFS
 70
0
 62
3
  6
Continuous
370
-3
390
13
347
21
  0
ENDTAB
  0
TABLE
  2
STYLE
  5
5
330
0
100
AcDbSymbolTable
 70
26
  0
STYLE
  5
29
330
5
100
AcDbSymbolTableRecord
100
AcDbTextStyleTableRecord
  2
Standard
 70
0
 40
0.0
 41
1.0
 50
0.0
 71
0
 42
2.5
  3
txt
  4

  0
STYLE
  5
41
330
5
100
AcDbSymbolTableRecord
100
AcDbTextStyleTableRecord
  2
OpenSans-Light
 70
0
 40
0.0
 41
1.0
 50
0.0
 71
0
 42
2.5
  3
OpenSans-Light.ttf
  4

  0
STYLE
  5
42
330
5
100
AcDbSymbolTableRecord
100
AcDbTextStyleTableRecord
  2
OpenSans-Light-Italic
 70
0
 40
0.0
 41
1.0
 50
0.0
 71
0
 42
2.5
  3
OpenSans-LightItalic.ttf
  4

  0
STYLE
  5
43
330
5
100
AcDbSymbolTableRecord
100
AcDbTextStyleTableRecord
  2
OpenSans
 70
0
 40
0.0
 41
1.0
 50
0.0
 71
0
 42
2.5
  3
OpenSans-Regular.ttf
  4

  0
STYLE
  5
44
330
5
100
AcDbSymbolTableRecord
100
AcDbTextStyleTableRecord
  2
OpenSans-Italic
 70
0
 40
0.0
 41
1.0
 50
0.0
 71
0
 42
2.5
  3
OpenSans-Italic.ttf
  4

  0
STYLE
  5
45
330
5
100
AcDbSymbolTableRecord
100
AcDbTextStyleTableRecord
  2
OpenSans-SemiBold
 70
0
 40
0.0
 41
1.0
 50
0.0
 71
0
 42
2.5
  3
OpenSans-SemiBold.ttf
  4

  0
STYLE
  5
46
330
5
100
AcDbSymbolTableRecord
100
AcDbTextStyleTableRecord
  2
OpenSans-SemiBoldItalic
 70
0
 40
0.0
 41
1.0
 50
0.0
 71
0
 42
2.5
  3
OpenSans-SemiBoldItalic.ttf
  4

  0
STYLE
  5
47
330
5
100
AcDbSymbolTableRecord
100
AcDbTextStyleTableRecord
  2
OpenSans-Bold
 70
0
 40
0.0
 41
1.0
 50
0.0
 71
0
 42
2.5
  3
OpenSans-Bold.ttf
  4

  0
STYLE
  5
48
330
5
100
AcDbSymbolTableRecord
100
AcDbTextStyleTableRecord
  2
OpenSans-BoldItalic
 70
0
 40
0.0
 41
1.0
 50
0.0
 71
0
 42
2.5
  3
OpenSans-BoldItalic.ttf
  4

  0
STYLE
  5
49
330
5
100
AcDbSymbolTableRecord
100
AcDbTextStyleTableRecord
  2
OpenSans-ExtraBold
 70
0
 40
0.0
 41
1.0
 50
0.0
 71
0
 42
2.5
  3
OpenSans-ExtraBold.ttf
  4

  0
STYLE
  5
4A
330
5
100
AcDbSymbolTableRecord
100
AcDbTextStyleTableRecord
  2
OpenSans-ExtraBoldItalic
 70
0
 40
0.0
 41
1.0
 50
0.0
 71
0
 42
2.5
  3
OpenSans-ExtraBoldItalic.ttf
  4

  0
STYLE
  5
4B
330
5
100
AcDbSymbolTableRecord
100
AcDbTextStyleTableRecord
  2
OpenSansCondensed-Bold
 70
0
 40
0.0
 41
1.0
 50
0.0
 71
0
 42
2.5
  3
OpenSansCondensed-Bold.ttf
  4

  0
STYLE
  5
4C
330
5
100
AcDbSymbolTableRecord
100
AcDbTextStyleTableRecord
  2
OpenSansCondensed-Light
 70
0
 40
0.0
 41
1.0
 50
0.0
 71
0
 42
2.5
  3
OpenSansCondensed-Light.ttf
  4

  0
STYLE
  5
4D
330
5
100
AcDbSymbolTableRecord
100
AcDbTextStyleTableRecord
  2
OpenSansCondensed-Italic
 70
0
 40
0.0
 41
1.0
 50
0.0
 71
0
 42
2.5
  3
OpenSansCondensed-LightItalic.ttf
  4

  0
STYLE
  5
4E
330
5
100
AcDbSymbolTableRecord
100
AcDbTextStyleTableRecord
  2
LiberationSans
 70
0
 40
0.0
 41
1.0
 50
0.0
 71
0
 42
2.5
  3
LiberationSans-Regular.ttf
  4

  0
STYLE
  5
4F
330
5
100
AcDbSymbolTableRecord
100
AcDbTextStyleTableRecord
  2
LiberationSans-Bold
 70
0
 40
0.0
 41
1.0
 50
0.0
 71
0
 42
2.5
  3
LiberationSans-Bold.ttf
  4

  0
STYLE
  5
50
330
5
100
AcDbSymbolTableRecord
100
AcDbTextStyleTableRecord
  2
LiberationSans-BoldItalic
 70
0
 40
0.0
 41
1.0
 50
0.0
 71
0
 42
2.5
  3
LiberationSans-BoldItalic.ttf
  4

  0
STYLE
  5
51
330
5
100
AcDbSymbolTableRecord
100
AcDbTextStyleTableRecord
  2
LiberationSans-Italic
 70
0
 40
0.0
 41
1.0
 50
0.0
 71
0
 42
2.5
  3
LiberationSans-Italic.ttf
  4

  0
STYLE
  5
52
330
5
100
AcDbSymbolTableRecord
100
AcDbTextStyleTableRecord
  2
LiberationSerif
 70
0
 40
0.0
 41
1.0
 50
0.0
 71
0
 42
2.5
  3
LiberationSerif-Regular.ttf
  4

  0
STYLE
  5
53
330
5
100
AcDbSymbolTableRecord
100
AcDbTextStyleTableRecord
  2
LiberationSerif-Bold
 70
0
 40
0.0
 41
1.0
 50
0.0
 71
0
 42
2.5
  3
LiberationSerif-Bold.ttf
  4

  0
STYLE
  5
54
330
5
100
AcDbSymbolTableRecord
100
AcDbTextStyleTableRecord
  2
LiberationSerif-BoldItalic
 70
0
 40
0.0
 41
1.0
 50
0.0
 71
0
 42
2.5
  3
LiberationSerif-BoldItalic.ttf
  4

  0
STYLE
  5
55
330
5
100
AcDbSymbolTableRecord
100
AcDbTextStyleTableRecord
  2
LiberationSerif-Italic
 70
0
 40
0.0
 41
1.0
 50
0.0
 71
0
 42
2.5
  3
LiberationSerif-Italic.ttf
  4

  0
STYLE
  5
56
330
5
100
AcDbSymbolTableRecord
100
AcDbTextStyleTableRecord
  2
LiberationMono
 70
0
 40
0.0
 41
1.0
 50
0.0
 71
0
 42
2.5
  3
LiberationMono-Regular.ttf
  4

  0
STYLE
  5
57
330
5
100
AcDbSymbolTableRecord
100
AcDbTextStyleTableRecord
  2
LiberationMono-Bold
 70
0
 40
0.0
 41
1.0
 50
0.0
 71
0
 42
2.5
  3
LiberationMono-Bold.ttf
  4

  0
STYLE
  5
58
330
5
100
AcDbSymbolTableRecord
100
AcDbTextStyleTableRecord
  2
LiberationMono-BoldItalic
 70
0
 40
0.0
 41
1.0
 50
0.0
 71
0
 42
2.5
  3
LiberationMono-BoldItalic.ttf
  4

  0
STYLE
  5
59
330
5
100
AcDbSymbolTableRecord
100
AcDbTextStyleTableRecord
  2
LiberationMono-Italic
 70
0
 40
0.0
 41
1.0
 50
0.0
 71
0
 42
2.5
  3
LiberationMono-Italic.ttf
  4

  0
ENDTAB
  0
TABLE
  2
VIEW
  5
7
330
0
100
AcDbSymbolTable
 70
0
  0
ENDTAB
  0
TABLE
  2
UCS
  5
6
330
0
100
AcDbSymbolTable
 70
0
  0
ENDTAB
  0
TABLE
  2
APPID
  5
3
330
0
100
AcDbSymbolTable
 70
3
  0
APPID
  5
2A
330
3
100
AcDbSymbolTableRecord
100
AcDbRegAppTableRecord
  2
ACAD
 70
0
  0
APPID
  5
AA
330
3
100
AcDbSymbolTableRecord
100
AcDbRegAppTableRecord
  2
HATCHBACKGROUNDCOLOR
 70
0
  0
APPID
  5
AB
330
3
100
AcDbSymbolTableRecord
100
AcDbRegAppTableRecord
  2
EZDXF
 70
0
  0
ENDTAB
  0
TABLE
  2
DIMSTYLE
  5
4
330
0
100
AcDbSymbolTable
 70
12
100
AcDbDimStyleTable
  0
DIMSTYLE
105
2B
330
4
100
AcDbSymbolTableRecord
100
AcDbDimStyleTableRecord
  2
Standard
 70
0
 40
1.0
 41
2.5
 42
0.625
 43
3.75
 44
1.25
 45
0.0
 46
0.0
 47
0.0
 48
0.0
 49
2.5
140
2.5
141
2.5
142
0.0
143
0.03937007874
144
1.0
145
0.0
146
1.0
147
0.625
148
0.0
 69
0
 70
0
 71
0
 72
0
 73
0
 74
0
 75
0
 76
0
 77
1
 78
8
 79
3
170
0
171
3
172
1
173
0
174
0
175
0
176
0
177
0
178
0
179
2
271
2
272
2
273
2
274
3
275
0
276
0
277
2
278
44
279
0
280
0
281
0
282
0
283
0
284
8
285
0
286
0
288
0
289
3
290
0
371
-2
372
-2
  0
DIMSTYLE
105
73
330
4
100
AcDbSymbolTableRecord
100
AcDbDimStyleTableRecord
  2
EZDXF
 70
0
 40
1.0
 41
0.175
 42
0.125
 43
3.75
 44
0.375
 45
0.0
 46
0.0
 47
0.0
 48
0.0
 49
2.5
140
0.25
141
2.5
142
0.0
143
0.03937007874
144
100.0
145
0.0
146
0.5
147
0.1
148
0.0
 69
0
 70
0
 71
0
 72
0
 73
0
 74
0
 75
0
 76
0
 77
1
 78
12
 79
3
170
0
171
3
172
1
173
0
174
0
175
0
176
0
177
0
178
0
179
2
271
2
272
2
273
2
274
3
275
0
276
0
277
2
278
46
279
2
280
0
281
0
282
0
283
0
284
8
285
0
286
0
288
1
289
3
290
0
340
4C
342
74
371
-2
372
-2
  0
DIMSTYLE
105
7C
330
4
100
AcDbSymbolTableRecord
100
AcDbDimStyleTableRecord
  2
EZ_M_100_H25_CM
 70
0
 40
1.0
 41
0.25
 42
0.125
 43
3.75
 44
0.375
 45
0.0
 46
0.0
 47
0.0
 48
0.0
 49
2.5
140
0.25
141
2.5
142
0.125
143
0.03937007874
144
100.0
145
0.0
146
0.5
147
0.1
148
0.0
 69
0
 70
0
 71
0
 72
0
 73
0
 74
0
 75
0
 76
0
 77
1
 78
12
 79
3
170
0
171
3
172
1
173
0
174
0
175
0
176
0
177
0
178
0
179
2
271
2
272
2
273
2
274
3
275
0
276
0
277
2
278
46
279
2
280
0
281
0
282
0
283
0
284
8
285
0
286
0
288
1
289
3
290
0
340
4C
371
-2
372
-2
  0
DIMSTYLE
105
7D
330
4
100
AcDbSymbolTableRecord
100
AcDbDimStyleTableRecord
  2
EZ_M_50_H25_CM
 70
0
 40
1.0
 41
0.125
 42
0.0625
 43
3.75
 44
0.1875
 45
0.0
 46
0.0
 47
0.0
 48
0.0
 49
2.5
140
0.125
141
2.5
142
0.0625
143
0.03937007874
144
100.0
145
0.0
146
0.5
147
0.05
148
0.0
 69
0
 70
0
 71
0
 72
0
 73
0
 74
0
 75
0
 76
0
 77
1
 78
12
 79
3
170
0
171
3
172
1
173
0
174
0
175
0
176
0
177
0
178
0
179
2
271
2
272
2
273
2
274
3
275
0
276
0
277
2
278
46
279
2
280
0
281
0
282
0
283
0
284
8
285
0
286
0
288
1
289
3
290
0
340
4C
371
-2
372
-2
  0
DIMSTYLE
105
7E
330
4
100
AcDbSymbolTableRecord
100
AcDbDimStyleTableRecord
  2
EZ_M_25_H25_CM
 70
0
 40
1.0
 41
0.0625
 42
0.03125
 43
3.75
 44
0.09375
 45
0.0
 46
0.0
 47
0.0
 48
0.0
 49
2.5
140
0.0625
141
2.5
142
0.03125
143
0.03937007874
144
100.0
145
0.0
146
0.5
147
0.025
148
0.0
 69
0
 70
0
 71
0
 72
0
 73
0
 74
0
 75
0
 76
0
 77
1
 78
12
 79
3
170
0
171
3
172
1
173
0
174
0
175
0
176
0
177
0
178
0
179
2
271
2
272
2
273
2
274
3
275
0
276
0
277
2
278
46
279
2
280
0
281
0
282
0
283
0
284
8
285
0
286
0
288
1
289
3
290
0
340
4C
371
-2
372
-2
  0
DIMSTYLE
105
7F
330
4
100
AcDbSymbolTableRecord
100
AcDbDimStyleTableRecord
  2
EZ_M_20_H25_CM
 70
0
 40
1.0
 41
0.05
 42
0.025
 43
3.75
 44
0.07500000000000001
 45
0.0
 46
0.0
 47
0.0
 48
0.0
 49
2.5
140
0.05
141
2.5
142
0.025
143
0.03937007874
144
100.0
145
0.0
146
0.5
147
0.020000000000000004
148
0.0
 69
0
 70
0
 71
0
 72
0
 73
0
 74
0
 75
0
 76
0
 77
1
 78
12
 79
3
170
0
171
3
172
1
173
0
174
0
175
0
176
0
177
0
178
0
179
2
271
2
272
2
273
2
274
3
275
0
276
0
277
2
278
46
279
2
280
0
281
0
282
0
283
0
284
8
285
0
286
0
288
1
289
3
290
0
340
4C
371
-2
372
-2
  0
DIMSTYLE
105
80
330
4
100
AcDbSymbolTableRecord
100
AcDbDimStyleTableRecord
  2
EZ_M_10_H25_CM
 70
0
 40
1.0
 41
0.025
 42
0.0125
 43
3.75
 44
0.037500000000000006
 45
0.0
 46
0.0
 47
0.0
 48
0.0
 49
2.5
140
0.025
141
2.5
142
0.0125
143
0.03937007874
144
100.0
145
0.0
146
0.5
147
0.010000000000000002
148
0.0
 69
0
 70
0
 71
0
 72
0
 73
0
 74
0
 75
0
 76
0
 77
1
 78
12
 79
3
170
0
171
3
172
1
173
0
174
0
175
0
176
0
177
0
178
0
179
2
271
2
272
2
273
2
274
3
275
0
276
0
277
2
278
46
279
2
280
0
281
0
282
0
283
0
284
8
285
0
286
0
288
1
289
3
290
0
340
4C
371
-2
372
-2
  0
DIMSTYLE
105
81
330
4
100
AcDbSymbolTableRecord
100
AcDbDimStyleTableRecord
  2
EZ_M_5_H25_CM
 70
0
 40
1.0
 41
0.0125
 42
0.00625
 43
3.75
 44
0.018750000000000003
 45
0.0
 46
0.0
 47
0.0
 48
0.0
 49
2.5
140
0.0125
141
2.5
142
0.00625
143
0.03937007874
144
100.0
145
0.0
146
0.5
147
0.005000000000000001
148
0.0
 69
0
 70
0
 71
0
 72
0
 73
0
 74
0
 75
0
 76
0
 77
1
 78
12
 79
3
170
0
171
3
172
1
173
0
174
0
175
0
176
0
177
0
178
0
179
2
271
2
272
2
273
2
274
3
275
0
276
0
277
2
278
46
279
2
280
0
281
0
282
0
283
0
284
8
285
0
286
0
288
1
289
3
290
0
340
4C
371
-2
372
-2
  0
DIMSTYLE
105
82
330
4
100
AcDbSymbolTableRecord
100
AcDbDimStyleTableRecord
  2
EZ_M_1_H25_CM
 70
0
 40
1.0
 41
0.0025
 42
0.00125
 43
3.75
 44
0.00375
 45
0.0
 46
0.0
 47
0.0
 48
0.0
 49
2.5
140
0.0025
141
2.5
142
0.00125
143
0.03937007874
144
100.0
145
0.0
146
0.5
147
0.001
148
0.0
 69
0
 70
0
 71
0
 72
0
 73
0
 74
0
 75
0
 76
0
 77
1
 78
12
 79
3
170
0
171
3
172
1
173
0
174
0
175
0
176
0
177
0
178
0
179
2
271
2
272
2
273
2
274
3
275
0
276
0
277
2
278
46
279
2
280
0
281
0
282
0
283
0
284
8
285
0
286
0
288
1
289
3
290
0
340
4C
371
-2
372
-2
  0
DIMSTYLE
105
83
330
4
100
AcDbSymbolTableRecord
100
AcDbDimStyleTableRecord
  2
EZ_RADIUS
 70
0
 40
1.0
 41
0.25
 42
0.125
 43
3.75
 44
0.375
 45
0.0
 46
0.0
 47
0.0
 48
0.0
 49
2.5
140
0.25
141
0.0
142
0.0
143
0.03937007874
144
100.0
145
0.0
146
0.5
147
0.1
148
0.0
 69
0
 70
0
 71
0
 72
0
 73
0
 74
0
 75
0
 76
0
 77
1
 78
12
 79
3
170
0
171
3
172
0
173
0
174
0
175
0
176
0
177
0
178
0
179
2
271
2
272
2
273
2
274
3
275
0
276
0
277
2
278
46
279
1
280
0
281
0
282
0
283
0
284
8
285
0
286
0
288
1
289
3
290
0
340
4C
342
84
371
-2
372
-2
  0
DIMSTYLE
105
88
330
4
100
AcDbSymbolTableRecord
100
AcDbDimStyleTableRecord
  2
EZ_RADIUS_INSIDE
 70
0
 40
1.0
 41
0.25
 42
0.125
 43
3.75
 44
0.375
 45
0.0
 46
0.0
 47
0.0
 48
0.0
 49
2.5
140
0.25
141
0.0
142
0.0
143
0.03937007874
144
100.0
145
0.0
146
0.5
147
0.1
148
0.0
 69
0
 70
0
 71
0
 72
0
 73
0
 74
0
 75
0
 76
0
 77
0
 78
12
 79
3
170
0
171
3
172
0
173
0
174
1
175
0
176
0
177
0
178
0
179
2
271
2
272
2
273
2
274
3
275
0
276
0
277
2
278
46
279
0
280
0
281
0
282
0
283
0
284
8
285
0
286
0
288
1
289
0
290
0
340
4C
342
84
371
-2
372
-2
  0
DIMSTYLE
105
89
330
4
100
AcDbSymbolTableRecord
100
AcDbDimStyleTableRecord
  2
EZ_CURVED
 70
0
 40
1.0
 41
0.25
 42
0.125
 43
3.75
 44
0.375
 45
0.0
 46
0.0
 47
0.0
 48
0.0
 49
2.5
140
0.25
141
2.5
142
0.0
143
0.03937007874
144
100.0
145
0.0
146
0.5
147
0.1
148
0.0
 69
0
 70
0
 71
0
 72
0
 73
0
 74
0
 75
0
 76
0
 77
1
 78
12
 79
2
 90
2
170
0
171
3
172
1
173
0
174
0
175
0
176
0
177
0
178
0
179
2
271
2
272
2
273
2
274
3
275
0
276
0
277
2
278
46
279
2
280
0
281
0
282
0
283
0
284
8
285
0
286
0
288
1
289
3
290
0
340
4C
371
-2
372
-2
  0
ENDTAB
  0
TABLE
  2
BLOCK_RECORD
  5
9
330
0
100
AcDbSymbolTable
 70
5
  0
BLOCK_RECORD
  5
17
330
9
100
AcDbSymbolTableRecord
100
AcDbBlockTableRecord
  2
*Model_Space
340
1A
 70
0
280
1
281
0
  0
BLOCK_RECORD
  5
1B
330
9
100
AcDbSymbolTableRecord
100
AcDbBlockTableRecord
  2
*Paper_Space
340
1E
 70
0
280
1
281
0
  0
BLOCK_RECORD
  5
74
330
9
100
AcDbSymbolTableRecord
100
AcDbBlockTableRecord
  2
_ARCHTICK
340
0
 70
0
280
1
281
0
  0
BLOCK_RECORD
  5
78
330
9
100
AcDbSymbolTableRecord
100
AcDbBlockTableRecord
  2
_CLOSEDFILLED
340
0
 70
0
280
1
281
0
  0
BLOCK_RECORD
  5
84
330
9
100
AcDbSymbolTableRecord
100
AcDbBlockTableRecord
  2
_CLOSEDBLANK
340
0
 70
0
280
1
281
0
  0
ENDTAB
  0
ENDSEC
  0
SECTION
  2
BLOCKS
  0
BLOCK
  5
18
330
17
100
AcDbEntity
  8
0
100
AcDbBlockBegin
  2
*Model_Space
 70
0
 10
0.0
 20
0.0
 30
0.0
  3
*Model_Space
  1

  0
ENDBLK
  5
19
330
17
100
AcDbEntity
  8
0
100
AcDbBlockEnd
  0
BLOCK
  5
1C
330
1B
100
AcDbEntity
  8
0
100
AcDbBlockBegin
  2
*Paper_Space
 70
0
 10
0.0
 20
0.0
 30
0.0
  3
*Paper_Space
  1

  0
ENDBLK
  5
1D
330
1B
100
AcDbEntity
  8
0
100
AcDbBlockEnd
  0
BLOCK
  5
75
330
74
100
AcDbEntity
  8
0
100
AcDbBlockBegin
  2
_ARCHTICK
 70
0
 10
0.0
 20
0.0
 30
0.0
  3
_ARCHTICK
  1

  0
LWPOLYLINE
  5
77
330
74
100
AcDbEntity
  8
0
  6
BYBLOCK
 62
0
100
AcDbPolyline
 90
2
 70
0
 43
0.15
 10
-0.5
 20
-0.5
 10
0.5
 20
0.5
  0
ENDBLK
  5
76
330
74
100
AcDbEntity
  8
0
100
AcDbBlockEnd
  0
BLOCK
  5
79
330
78
100
AcDbEntity
  8
0
100
AcDbBlockBegin
  2
_CLOSEDFILLED
 70
0
 10
0.0
 20
0.0
 30
0.0
  3
_CLOSEDFILLED
  1

  0
SOLID
  5
7B
330
78
100
AcDbEntity
  8
0
  6
BYBLOCK
 62
0
100
AcDbTrace
 10
-1.0
 20
0.16439898372402537
 30
0.0
 11
0.0
 21
0.0
 31
0.0
 12
-1.0
 22
-0.16439898372402537
 32
0.0
 13
-1.0
 23
-0.16439898372402537
 33
0.0
  0
ENDBLK
  5
7A
330
78
100
AcDbEntity
  8
0
100
AcDbBlockEnd
  0
BLOCK
  5
85
330
84
100
AcDbEntity
  8
0
100
AcDbBlockBegin
  2
_CLOSEDBLANK
 70
0
 10
0.0
 20
0.0
 30
0.0
  3
_CLOSEDBLANK
  1

  0
LWPOLYLINE
  5
87
330
84
100
AcDbEntity
  8
0
  6
BYBLOCK
 62
0
100
AcDbPolyline
 90
3
 70
1
 10
-1.0
 20
0.16439898372402537
 10
0.0
 20
0.0
 10
-1.0
 20
-0.16439898372402537
  0
ENDBLK
  5
86
330
84
100
AcDbEntity
  8
0
100
AcDbBlockEnd
  0
ENDSEC
  0
SECTION
  2
ENTITIES
  0
LWPOLYLINE
  5
8B
330
17
100
AcDbEntity
  8
OUTLINE
100
AcDbPolyline
 90
1018
 70
1
 10
217.2049096779839
 20
-31.206714719596768
 10
217.10971532274556
 20
-31.23055966426779
 10
217.0173165676349
 20
-31.263620467488714
 10
216.928603263174
 20
-31.305578735651643
 10
216.8444297669804
 20
-31.356030387697455
 10
216.76560671583636
 20
-31.414489546637263
 10
216.69289321881345
 20
-31.480393218813454
 10
216.62698954663728
 20
-31.553106715836353
 10
216.56853038769748
 20
-31.6319297669804
 10
216.51807873565167
 20
-31.716103263174002
 10
216.47612046748873
 20
-31.80481656763491
 10
216.4430596642678
 20
-31.897215322745538
 10
216.41921471959677
 20
-31.992409677983872
 10
216.4048152733278
 20
-32.08948285967044
 10
216.4
 20
-32.1875
 10
216.4
 20
-35.6875
 10
211.95439152765334
 20
-35.6875
 10
211.9337873748246
 20
-35.68803110467393
 10
211.861775447225
 20
-35.69174601596705
 10
211.82080632354953
 20
-35.69598427986676
 10
211.75974824473406
 20
-35.70550137051136
 10
211.71943272339462
 20
-35.713932901495944
 10
211.65967808392884
 20
-35.729682411497386
 10
211.62044418689158
 20
-35.742217693659576
 10
211.56262739003807
 20
-35.7640324135657
 10
211.52489165587662
 20
-35.780538362278534
 10
211.46962653120414
 20
-35.80818668949562
 10
211.43378959279133
 20
-35.82848806434575
 10
211.38166287926612
 20
-35.861676462018025
 10
211.34810521033344
 20
-35.88555772729883
 10
211.29967032702794
 20
-35.92393384073114
 10
211.26874820275088
 20
-35.95114145374287
 10
211.22438121857155
 20
-35.994432656125355
 10
211.19667082578923
 20
-36.024380603245326
 10
211.16091334736612
 20
-36.06721916093358
 10
210.86110068737884
 20
-36.427105403390435
 10
210.83390394691233
 20
-36.458091763683
 10
210.82695155301235
 20
-36.465612821031314
 10
210.79819454499085
 20
-36.49515688483217
 10
210.49587437682763
 20
-36.79014659004541
 10
210.46563347884097
 20
-36.81816988937249
 10
210.45794406640704
 20
-36.82493561335429
 10
210.42629959720398
 20
-36.85136371932202
 10
210.0952295180687
 20
-37.113678440528204
 10
210.06226552423232
 20
-37.13844116102843
 10
210.053920730245
 20
-37.144379721281965
 10
210.01972476297004
 20
-37.167411287410125
 10
209.66341967882244
 20
-37.39426608077101
 10
209.62808256137987
 20
-37.41550532150788
 10
209.61917098087676
 20
-37.42055366950616
 10
209.58278656739353
 20
-37.439944174183864
 10
209.2050292992821
 20
-37.62893056694547
 10
209.16769422546463
 20
-37.646420835074224
 10
209.15831047094434
 20
-37.65052537349881
 10
209.1201238974189
 20
-37.666068951549335
 10
208.72492502001228
 20
-37.815180512324375
 10
208.68598836895947
 20
-37.82873611710638
 10
208.6762320658995
 20
-37.83185326887951
 10
208.63664875167854
 20
-37.84338489718928
 10
208.22820401378382
 20
-37.951038537844084
 10
208.18807916826785
 20
-37.96051556208743
 10
208.17805389742006
 20
-37.962612233021446
 10
208.13749409077008
 20
-37.97000948255941
 10
207.72013986989128
 20
-38.03506226555009
 10
207.6792528275099
 20
-38.04036009355118
 10
207.66906502520484
 20
-38.04141402370279
 10
207.62795934162182
 20
-38.04459835932438
 10
207.18295464061595
 20
-38.06755501448364
 10
207.1623539108712
 20
-38.068351759700676
 10
207.1572097165593
 20
-38.06848435945692
 10
207.13659529675078
 20
-38.06875
 10
192.90439152765333
 20
-38.06875
 10
192.88378737482458
 20
-38.069281104673934
 10
192.811775447225
 20
-38.07299601596705
 10
192.77080632354955
 20
-38.07723427986676
 10
192.70974824473407
 20
-38.08675137051136
 10
192.66943272339464
 20
-38.095182901495946
 10
192.60967808392883
 20
-38.11093241149739
 10
192.5704441868916
 20
-38.12346769365958
 10
192.51262739003806
 20
-38.1452824135657
 10
192.47489165587663
 20
-38.161788362278536
 10
192.41962653120413
 20
-38.18943668949562
 10
192.38378959279135
 20
-38.20973806434575
 10
192.3316628792661
 20
-38.242926462018026
 10
192.29810521033346
 20
-38.26680772729883
 10
192.24967032702796
 20
-38.30518384073114
 10
192.21874820275087
 20
-38.33239145374287
 10
192.17438121857157
 20
-38.375682656125356
 10
192.14667082578922
 20
-38.40563060324533
 10
192.11091334736614
 20
-38.448469160933584
 10
191.81110068737883
 20
-38.808355403390436
 10
191.78390394691235
 20
-38.839341763683
 10
191.77695155301234
 20
-38.846862821031316
 10
191.74819454499084
 20
-38.87640688483217
 10
191.44587437682765
 20
-39.17139659004541
 10
191.41563347884096
 20
-39.19941988937249
 10
191.40794406640703
 20
-39.20618561335429
 10
191.37629959720397
 20
-39.23261371932203
 10
191.0452295180687
 20
-39.49492844052821
 10
191.0122655242323
 20
-39.51969116102843
 10
191.003920730245
 20
-39.525629721281966
 10
190.96972476297003
 20
-39.54866128741013
 10
190.61341967882242
 20
-39.77551608077101
 10
190.5780825613799
 20
-39.79675532150788
 10
190.56917098087678
 20
-39.801803669506164
 10
190.53278656739354
 20
-39.821194174183866
 10
190.15502929928198
 20
-40.01018056694554
 10
190.11769422546388
 20
-40.027670835074545
 10
190.10831047094388
 20
-40.03177537349901
 10
190.07012389741902
 20
-40.04731895154928
 10
189.67492502001227
 20
-40.19643051232437
 10
189.6359883689595
 20
-40.20998611710638
 10
189.6262320658995
 20
-40.213103268879514
 10
189.58664875167852
 20
-40.224634897189276
 10
189.17820401378384
 20
-40.33228853784409
 10
189.13807916826786
 20
-40.34176556208743
 10
189.12805389742007
 20
-40.34386223302145
 10
189.08749409077006
 20
-40.35125948255941
 10
188.67013986989127
 20
-40.41631226555009
 10
188.6292528275099
 20
-40.42161009355118
 10
188.61906502520486
 20
-40.422664023702794
 10
188.57795934162183
 20
-40.425848359324384
 10
188.3
 20
-40.44018757133604
 10
188.3
 20
-36.95
 10
188.29518472667218
 20
-36.85198285967044
 10
188.28078528040322
 20
-36.754909677983875
 10
188.25694033573222
 20
-36.65971532274554
 10
188.2238795325113
 20
-36.56731656763491
 10
188.18192126434835
 20
-36.47860326317401
 10
188.13146961230254
 20
-36.3944297669804
 10
188.07301045336274
 20
-36.31560671583636
 10
188.00710678118656
 20
-36.24289321881346
 10
187.93439328416366
 20
-36.176989546637266
 10
187.8555702330196
 20
-36.118530387697454
 10
187.77139673682598
 20
-36.068078735651646
 10
187.68268343236508
 20
-36.02612046748872
 10
187.59028467725446
 20
-35.9930596642678
 10
187.49509032201613
 20
-35.96921471959677
 10
187.39801714032956
 20
-35.9548152733278
 10
187.3
 20
-35.95
 10
179.3
 20
-35.95
 10
179.20198285967044
 20
-35.9548152733278
 10
179.10490967798387
 20
-35.96921471959677
 10
179.00971532274554
 20
-35.9930596642678
 10
178.9173165676349
 20
-36.02612046748872
 10
178.828603263174
 20
-36.068078735651646
 10
178.74442976698037
 20
-36.118530387697454
 10
178.66560671583636
 20
-36.176989546637266
 10
178.59289321881346
 20
-36.24289321881346
 10
178.52698954663725
 20
-36.31560671583636
 10
178.46853038769746
 20
-36.3944297669804
 10
178.41807873565165
 20
-36.47860326317401
 10
178.3761204674887
 20
-36.56731656763491
 10
178.3430596642678
 20
-36.65971532274554
 10
178.31921471959677
 20
-36.754909677983875
 10
178.3048152733278
 20
-36.85198285967044
 10
178.3
 20
-36.95
 10
178.3
 20
-40.45
 10
174.32231796990376
 20
-40.45
 10
174.302693856271
 20
-40.4504817449498
 10
174.23409810144517
 20
-40.453851638291944
 10
174.1950565233968
 20
-40.45769689810321
 10
174.13683601425763
 20
-40.46633309482135
 10
174.09835933344903
 20
-40.47398658248991
 10
174.0412656672803
 20
-40.48828780137468
 10
174.00372443518148
 20
-40.49967580963039
 10
173.94830745519903
 20
-40.519504322126096
 10
173.912063214397
 20
-40.53451717822422
 10
173.8588566164118
 20
-40.55968202491621
 10
173.82425841875897
 20
-40.578175146845474
 10
173.7737746113956
 20
-40.608433976503534
 10
173.74115565644806
 20
-40.63022926539072
 10
173.69388082636857
 20
-40.6652906689441
 10
173.6635552524944
 20
-40.69017822424231
 10
173.6199446821555
 20
-40.729704541208314
 10
173.59220454120828
 20
-40.75744468215554
 10
173.55267822424247
 20
-40.80105525249423
 10
173.5277906689439
 20
-40.83138082636879
 10
173.49272926539072
 20
-40.87865565644805
 10
173.47093397650357
 20
-40.91127461139552
 10
173.44067514684554
 20
-40.9617584187589
 10
173.4221820249162
 20
-40.99635661641188
 10
173.39701717822413
 20
-41.04956321439717
 10
173.38200432212614
 20
-41.08580745519884
 10
173.3621758096304
 20
-41.14122443518144
 10
173.35078780137468
 20
-41.17876566728038
 10
173.33648658248984
 20
-41.235859333449206
 10
173.3288330948214
 20
-41.27433601425745
 10
173.3201968981032
 20
-41.33255652339686
 10
173.31635163829196
 20
-41.371598101445095
 10
173.3129817449498
 20
-41.4401938562711
 10
173.3125
 20
-41.459817969903725
 10
173.3125
 20
-60.98036110231275
 10
173.3134162622933
 20
-60.99901204975948
 10
173.34909058532708
 20
-61.0155572966187
 10
173.41621576789242
 20
-61.05064127054289
 10
173.4797222218665
 20
-61.09191602874185
 10
173.53904070364027
 20
-61.13901160263998
 10
173.593639508725
 20
-61.19150584845857
 10
173.64302923771464
 20
-61.24892823112484
 10
173.68676718304454
 20
-61.31076404193912
 10
173.72446129722522
 20
-61.37645901219468
 10
173.75577370698147
 20
-61.445424281395894
 10
173.78042374179853
 20
-61.51704167554188
 10
173.79819044972726
 20
-61.590669248163266
 10
173.80891457789954
 20
-61.665647034444845
 10
173.8125
 20
-61.74130296685668
 10
173.8125
 20
-93.7
 10
173.80864778133775
 20
-93.77841371226366
 10
173.7971282243226
 20
-93.85607225761291
 10
173.77805226858578
 20
-93.93222774180357
 10
173.75160362600903
 20
-94.00614674589208
 10
173.71803701147869
 20
-94.0771173894608
 10
173.67767568984203
 20
-94.14445618641568
 10
173.6309083626902
 20
-94.20751462733092
 10
173.57818542494925
 20
-94.26568542494924
 10
173.5200146273309
 20
-94.31840836269019
 10
173.45695618641568
 20
-94.36517568984203
 10
173.3896173894608
 20
-94.40553701147869
 10
173.31864674589207
 20
-94.43910362600903
 10
173.24472774180356
 20
-94.46555226858577
 10
173.1685722576129
 20
-94.48462822432259
 10
173.09091371226367
 20
-94.49614778133775
 10
173.0125
 20
-94.5
 10
171.5305850214262
 20
-94.5
 10
171.51210040329158
 20
-94.50086836366529
 10
171.49693557684415
 20
-94.51147323056018
 10
171.20749728979663
 20
-94.73481366289923
 10
171.17648964764834
 20
-94.75757229871957
 10
171.16864650959843
 20
-94.76304374760862
 10
171.1365808056863
 20
-94.78428568745537
 10
170.80290701476156
 20
-94.99396423306113
 10
170.76985737243382
 20
-95.01364037388936
 10
170.76152510827743
 20
-95.01833344766125
 10
170.7275679253646
 20
-95.03639830593856
 10
170.35595460454988
 20
-95.2227724122465
 10
170.33866013826483
 20
-95.23118741258557
 10
170.33431751540382
 20
-95.23323622142648
 10
170.3168257539015
 20
-95.241233037935
 10
155.02638309385708
 20
-102.01064006796577
 10
155.00863391734083
 20
-102.01902485460691
 10
154.9472744885152
 20
-102.04987536927925
 10
154.9131316996484
 20
-102.06919636324714
 10
154.86339126464475
 20
-102.10066222894093
 10
154.83130667121554
 20
-102.12323676556952
 10
154.7848899441753
 20
-102.15942652971722
 10
154.75517253835756
 20
-102.18503720387834
 10
154.71252653773598
 20
-102.2256023392679
 10
154.68546251439307
 20
-102.25400250616909
 10
154.64699794448867
 20
-102.29855234837174
 10
154.62284794496009
 20
-102.32946849888056
 10
154.58893524060844
 20
-102.37757400856177
 10
154.56793184259075
 20
-102.41070840324927
 10
154.53889760167306
 20
-102.4619062980539
 10
154.52124307937163
 20
-102.49693983458502
 10
154.4973669174992
 20
-102.55073705079927
 10
154.48323129361472
 20
-102.58733233706573
 10
154.46474315127875
 20
-102.64321077808852
 10
154.45426255959623
 20
-102.6810153814793
 10
154.44134048771403
 20
-102.73843690737726
 10
154.43461586206087
 20
-102.77708674889465
 10
154.42738430724856
 20
-102.83549835898413
 10
154.4244804094457
 20
-102.87462121952677
 10
154.42300901552937
 20
-102.93346037807076
 10
154.42395381170004
 20
-102.97267948310517
 10
154.42825674900752
 20
-103.03137953684217
 10
154.43304114024818
 20
-103.07031718494771
 10
154.44307696914086
 20
-103.12831282027163
 10
154.45165487914844
 20
-103.16659402061102
 10
154.467326949108
 20
-103.22332670785023
 10
154.47961576791988
 20
-103.26058279153749
 10
154.5043034531859
 20
-103.32467063716764
 10
154.51180722917184
 20
-103.34280985600458
 10
158.09359274986537
 20
-111.43319146281023
 10
154.89320912768005
 20
-112.8500699582529
 10
154.80553204385825
 20
-112.89415255831358
 10
154.72259799955586
 20
-112.94661674563461
 10
154.6452056949559
 20
-113.00695726141227
 10
154.5741004602586
 20
-113.07459299349411
 10
154.50996707774414
 20
-113.14887257280675
 10
154.45342318694506
 20
-113.22908064639604
 10
154.40501333643974
 20
-113.31444476666715
 10
154.36520373955207
 20
-113.40414283047707
 10
154.33437778446228
 20
-113.49731099643738
 10
154.31283234196897
 20
-113.59305200417897
 10
154.30077490646136
 20
-113.69044381545993
 10
154.2983215976346
 20
-113.78854849389785
 10
154.30549604219388
 20
-113.88642123780988
 10
154.32222914631606
 20
-113.9831194791695
 10
154.34835976106126
 20
-114.07771196105176
 10
154.383636234325
 20
-114.16928770614662
 10
157.6222156524797
 20
-121.48445027114167
 10
157.66629825254037
 20
-121.57212735496347
 10
157.71876243986142
 20
-121.65506139926586
 10
157.77910295563908
 20
-121.73245370386581
 10
157.84673868772092
 20
-121.80355893856313
 10
157.92101826703356
 20
-121.86769232107757
 10
158.00122634062285
 20
-121.92423621187666
 10
158.08659046089394
 20
-121.97264606238198
 10
158.1762885247039
 20
-122.01245565926962
 10
158.26945669066419
 20
-122.04328161435944
 10
158.36519769840578
 20
-122.06482705685274
 10
158.46258950968672
 20
-122.07688449236035
 10
158.56069418812464
 20
-122.0793378011871
 10
158.6585669320367
 20
-122.07216335662783
 10
158.7552651733963
 20
-122.05543025250564
 10
158.84985765527856
 20
-122.02929963776045
 10
158.94143340037343
 20
-121.99402316449671
 10
162.14181702255877
 20
-120.57714466905402
 10
162.1418170225588
 20
-120.57714466905401
 10
165.6668365923092
 20
-128.53930581074536
 10
165.6752213789513
 20
-128.55705498726357
 10
165.70607189362303
 20
-128.61841441608797
 10
165.72539288759097
 20
-128.65255720495492
 10
165.75685875328472
 20
-128.7022976399585
 10
165.7794332899134
 20
-128.73438223338783
 10
165.81562305406106
 20
-128.78079896042803
 10
165.8412337282222
 20
-128.81051636624576
 10
165.88179886361166
 20
-128.85316236686725
 10
165.91019903051284
 20
-128.8802263902102
 10
165.95474887271558
 20
-128.91869096011465
 10
165.9856650232244
 20
-128.94284095964323
 10
166.03377053290555
 20
-128.97675366399486
 10
166.06690492759319
 20
-128.99775706201262
 10
166.11810282239819
 20
-129.0267913029305
 10
166.1531363589284
 20
-129.0444458252315
 10
166.2069335751431
 20
-129.0683219871041
 10
166.2435288614097
 20
-129.08245761098863
 10
166.29940730243226
 20
-129.10094575332457
 10
166.33721190582315
 20
-129.11142634500712
 10
166.3946334317207
 20
-129.1243484168892
 10
166.43328327323897
 20
-129.1310730425425
 10
166.49169488332794
 20
-129.13830459735476
 10
166.53081774387067
 20
-129.14120849515763
 10
166.58965690241462
 20
-129.14267988907395
 10
166.628876007449
 20
-129.14173509290328
 10
166.68757606118604
 20
-129.1374321555958
 10
166.72651370929157
 20
-129.13264776435514
 10
166.78450934461577
 20
-129.1226119354624
 10
166.8227905449545
 20
-129.11403402545497
 10
166.87952323219415
 20
-129.09836195549528
 10
166.91677931588143
 20
-129.08607313668338
 10
166.9808671615111
 20
-129.06138545141758
 10
166.99900638034862
 20
-129.0538816754314
 10
183.40469743328265
 20
-121.79073025363198
 10
183.42386044499528
 20
-121.78254319151677
 10
183.42866968586256
 20
-121.78056219282035
 10
183.4480394373722
 20
-121.7728770298134
 10
183.8688198989405
 20
-121.61223866931174
 10
183.9081269193963
 20
-121.598394554504
 10
183.91797657501473
 20
-121.59521130388534
 10
183.95795118933296
 20
-121.58343286672569
 10
184.39315717324746
 20
-121.46743014578037
 10
184.41336099243156
 20
-121.46232576585577
 10
184.41841997263685
 20
-121.46111751387674
 10
184.43874988668603
 20
-121.45654109620791
 10
185.81854262952288
 20
-121.1647669567362
 10
186.54264805083645
 20
-124.5890437181596
 10
186.56763764262234
 20
-124.68394401825387
 10
186.60180875872507
 20
-124.77593793913942
 10
186.64483231261676
 20
-124.86413952906918
 10
186.69629396395436
 20
-124.94769935851618
 10
186.7556981089037
 20
-125.02581270064442
 10
186.8224726530753
 20
-125.09772728126812
 10
186.8959745211061
 20
-125.16275052366335
 10
186.97549584982679
 20
-125.22025621846052
 10
187.06027080537095
 20
-125.26969055438292
 10
187.14948295857403
 20
-125.31057745175208
 10
187.24227314763235
 20
-125.34252314739528
 10
187.337747752301
 20
-125.36521998680017
 10
187.4349872999453
 20
-125.37844938699594
 10
187.53305532056487
 20
-125.38208394162676
 10
187.63100736551172
 20
-125.3760886479447
 10
187.727900103047
 20
-125.36052124390527
 10
195.55481841487193
 20
-123.7054231380457
 10
195.64971871496618
 20
-123.68043354625982
 10
195.74171263585174
 20
-123.64626243015708
 10
195.8299142257815
 20
-123.6032388762654
 10
195.9134740552285
 20
-123.55177722492778
 10
195.99158739735674
 20
-123.49237307997845
 10
196.06350197798042
 20
-123.42559853580684
 10
196.12852522037565
 20
-123.35209666777604
 10
196.18603091517284
 20
-123.27257533905536
 10
196.23546525109523
 20
-123.1878003835112
 10
196.2763521484644
 20
-123.09858823030812
 10
196.30829784410759
 20
-123.0057980412498
 10
196.33099468351247
 20
-122.91032343658115
 10
196.34422408370824
 20
-122.81308388893686
 10
196.34785863833906
 20
-122.71501586831728
 10
196.341863344657
 20
-122.61706382337042
 10
196.32629594061757
 20
-122.52017108583514
 10
195.60219051930403
 20
-119.09589432441174
 10
201.90528916192034
 20
-117.76302662235852
 10
201.9257313767052
 20
-117.75898127210843
 10
201.93084641203072
 20
-117.75803810341802
 10
201.95138705722147
 20
-117.75452656541368
 10
202.39629787548319
 20
-117.68441776785541
 10
202.4376186512807
 20
-117.67900529528092
 10
202.44791378153033
 20
-117.67792868325576
 10
202.4894603452619
 20
-117.67467531362459
 10
202.9392500413402
 20
-117.65122091098051
 10
202.96007277782536
 20
-117.65040687825055
 10
202.9652722778721
 20
-117.65027140562746
 10
202.9861091524682
 20
-117.65
 10
206.9
 20
-117.65
 10
206.9
 20
-121.15
 10
206.9048152733278
 20
-121.24801714032957
 10
206.91921471959677
 20
-121.34509032201613
 10
206.9430596642678
 20
-121.44028467725447
 10
206.97612046748873
 20
-121.53268343236509
 10
207.01807873565167
 20
-121.621396736826
 10
207.06853038769748
 20
-121.70557023301961
 10
207.12698954663728
 20
-121.78439328416366
 10
207.19289321881345
 20
-121.85710678118656
 10
207.26560671583636
 20
-121.92301045336275
 10
207.3444297669804
 20
-121.98146961230255
 10
207.428603263174
 20
-122.03192126434836
 10
207.5173165676349
 20
-122.0738795325113
 10
207.60971532274556
 20
-122.10694033573222
 10
207.7049096779839
 20
-122.13078528040323
 10
207.80198285967043
 20
-122.1451847266722
 10
207.9
 20
-122.15
 10
215.9
 20
-122.15
 10
215.99801714032958
 20
-122.1451847266722
 10
216.09509032201612
 20
-122.13078528040323
 10
216.19028467725445
 20
-122.10694033573222
 10
216.2826834323651
 20
-122.0738795325113
 10
216.371396736826
 20
-122.03192126434836
 10
216.4555702330196
 20
-121.98146961230255
 10
216.53439328416366
 20
-121.92301045336275
 10
216.60710678118656
 20
-121.85710678118656
 10
216.67301045336274
 20
-121.78439328416366
 10
216.73146961230253
 20
-121.70557023301961
 10
216.78192126434834
 20
-121.621396736826
 10
216.82387953251128
 20
-121.53268343236509
 10
216.85694033573222
 20
-121.44028467725447
 10
216.88078528040324
 20
-121.34509032201613
 10
216.8951847266722
 20
-121.24801714032957
 10
216.9
 20
-121.15
 10
216.9
 20
-117.65
 10
220.92768203009626
 20
-117.65
 10
220.9473061437289
 20
-117.64951825505022
 10
221.0159018985549
 20
-117.64614836170806
 10
221.05494347660314
 20
-117.6423031018968
 10
221.1131639857425
 20
-117.63366690517863
 10
221.15164066655086
 20
-117.62601341751012
 10
221.20873433271967
 20
-117.61171219862533
 10
221.24627556481846
 20
-117.60032419036965
 10
221.30169254480103
 20
-117.5804956778739
 10
221.33793678560312
 20
-117.56548282177576
 10
221.391143383588
 20
-117.54031797508388
 10
221.42574158124114
 20
-117.52182485315447
 10
221.47622538860446
 20
-117.49156602349645
 10
221.5088443435519
 20
-117.4697707346093
 10
221.55611917363137
 20
-117.43470933105597
 10
221.58644474750565
 20
-117.40982177575765
 10
221.6300553178446
 20
-117.37029545879162
 10
221.6577954587916
 20
-117.34255531784461
 10
221.69732177575764
 20
-117.29894474750564
 10
221.72220933105598
 20
-117.26861917363136
 10
221.75727073460928
 20
-117.22134434355193
 10
221.77906602349645
 20
-117.18872538860447
 10
221.80932485315446
 20
-117.13824158124113
 10
221.82781797508386
 20
-117.10364338358801
 10
221.85298282177575
 20
-117.05043678560311
 10
221.8679956778739
 20
-117.01419254480103
 10
221.88782419036966
 20
-116.95877556481845
 10
221.89921219862532
 20
-116.92123433271968
 10
221.9135134175101
 20
-116.86414066655088
 10
221.9211669051786
 20
-116.8256639857425
 10
221.9298031018968
 20
-116.76744347660315
 10
221.93364836170804
 20
-116.7284018985549
 10
221.93701825505022
 20
-116.6598061437289
 10
221.9375
 20
-116.64018203009628
 10
221.9375
 20
-99.78546145192378
 10
221.93773101072122
 20
-99.76623740999626
 10
221.93784634931328
 20
-99.76143903151126
 10
221.93853924806214
 20
-99.7422260919826
 10
221.95850560280888
 20
-99.32714051323234
 10
221.96127519719744
 20
-99.28879231250376
 10
221.9621927107636
 20
-99.27927716918818
 10
221.9668015929343
 20
-99.24110632485271
 10
222.02340724685567
 20
-98.85126542217594
 10
222.02984477133396
 20
-98.8133601002441
 10
222.0316713263665
 20
-98.8039769515094
 10
222.03992262392777
 20
-98.766424704696
 10
222.13368444226631
 20
-98.38381674492867
 10
222.14373045428064
 20
-98.34670431042501
 10
222.14644918480934
 20
-98.3375397980119
 10
222.15826670726256
 20
-98.30095289714244
 10
222.28831891592387
 20
-97.92911079022339
 10
222.30188065301365
 20
-97.89313393044868
 10
222.30546645493442
 20
-97.88427267726146
 10
222.3207410821179
 20
-97.84898895698416
 10
222.48588281026542
 20
-97.49134620355576
 10
222.5028350466101
 20
-97.45683712018568
 10
222.50725480948992
 20
-97.44836094890641
 10
222.52584549916747
 20
-97.41470621061403
 10
222.72455186777603
 20
-97.07456519790041
 10
222.74473807049972
 20
-97.04184253951635
 10
222.74995098331004
 20
-97.03382971707413
 10
222.77168607352152
 20
-97.00211472053115
 10
223.0021222757431
 20
-96.68261622888974
 10
223.02535605030192
 20
-96.65198214865384
 10
223.03131397825945
 20
-96.64450666352423
 10
223.05599277240566
 20
-96.61502425738627
 10
223.3160310157349
 20
-96.31911845909652
 10
223.34209782703857
 20
-96.29085582474309
 10
223.34874575606833
 20
-96.28398670375941
 10
223.3761403760961
 20
-96.25700912147812
 10
223.66337952989522
 20
-95.98742833955937
 10
223.69203868327386
 20
-95.96179812146062
 10
223.6993152279968
 20
-95.95559879243525
 10
223.72917271856866
 20
-95.93137513852172
 10
224.0409604855302
 20
-95.69060861711968
 10
224.0719473492495
 20
-95.66784747854955
 10
224.079785319801
 20
-95.66237518459636
 10
224.1118299840258
 20
-95.64112913444819
 10
224.44528739084916
 20
-95.4314000537522
 10
224.47831583965694
 20
-95.41171816559371
 10
224.48664286210075
 20
-95.4070234365599
 10
224.52057880725138
 20
-95.38895117109745
 10
224.87262678838954
 20
-95.21219611902958
 10
224.90739184552842
 20
-95.19577521910713
 10
224.91613103014015
 20
-95.19190140499248
 10
224.95164489985532
 20
-95.17716979917157
 10
225.31903272886632
 20
-95.03502088939895
 10
225.3552133821544
 20
-95.02201260435567
 10
225.36428403340454
 20
-95.01899547502832
 10
225.40104790114742
 20
-95.0077405569562
 10
225.78038320712082
 20
-94.9015103583458
 10
225.81764537310204
 20
-94.89203480355911
 10
225.8269637347766
 20
-94.88990221846629
 10
225.86463813182843
 20
-94.8822279133514
 10
226.2524182237242
 20
-94.81289733002419
 10
226.29041783251486
 20
-94.80704200048939
 10
226.29989786110187
 20
-94.80581365140924
 10
226.33813491113455
 20
-94.80179082194057
 10
226.73077912078782
 20
-94.77000003583929
 10
226.76916529313297
 20
-94.76781899826217
 10
226.77871945232687
 20
-94.76750622747483
 10
226.8171660836116
 20
-94.76717201949258
 10
227.21104882876404
 20
-94.77321457909507
 10
227.24946711597462
 20
-94.77472797265247
 10
227.25900718496572
 20
-94.77533366820815
 10
227.2973083905498
 20
-94.77869116770843
 10
227.68879265260358
 20
-94.82251127747173
 10
227.72688830944767
 20
-94.82770512785108
 10
227.73632619753283
 20
-94.82922369690266
 10
227.7741283132916
 20
-94.8362419015423
 10
228.15959922066486
 20
-94.91743493710507
 10
228.19702048100518
 20
-94.92626128554046
 10
228.20626904099382
 20
-94.92867870598634
 10
228.24322301127444
 20
-94.93929281135038
 10
228.61912121825816
 20
-95.05710905573727
 10
228.65552254317004
 20
-95.06948640184835
 10
228.6644963760819
 20
-95.0727803518091
 10
228.70026097680596
 20
-95.0868923498001
 10
229.06311552970516
 20
-95.2402439161279
 10
229.09816079810577
 20
-95.2560579704765
 10
229.1067770417251
 20
-95.26019803441014
 10
229.1410220311634
 20
-95.2776776182296
 10
229.48748241824995
 20
-95.4651484949934
 10
229.5208480305525
 20
-95.484253234402
 10
229.52902712455585
 20
-95.48920118395282
 10
229.56143629270846
 20
-95.50988695132571
 10
229.88830338204156
 20
-95.72974607750909
 10
229.91968124820136
 20
-95.75196509340566
 10
229.92734766880125
 20
-95.75767524039712
 10
229.95762175719932
 20
-95.78137618391963
 10
230.2050581292914
 20
-95.98486579127396
 10
230.22054447234436
 20
-95.99697604342971
 10
230.27575059571683
 20
-96.0380010120687
 10
230.30839884719387
 20
-96.05985729565046
 10
230.3589332924126
 20
-96.09020169569808
 10
230.39356933385196
 20
-96.1087475871544
 10
230.44683840078827
 20
-96.1339848468233
 10
230.48312767548836
 20
-96.1490412075456
 10
230.53861682718656
 20
-96.16892755491504
 10
230.576208809524
 20
-96.1803489523955
 10
230.63338206476953
 20
-96.19469230111548
 10
230.6719136459975
 20
-96.20236841370918
 10
230.73021875647072
 20
-96.21103021840223
 10
230.76931775206188
 20
-96.21488690094702
 10
230.83801520654237
 20
-96.2182668207245
 10
230.8576684903946
 20
-96.21875
 10
244.50276758664296
 20
-96.21875
 10
244.52178715623475
 20
-96.21897612197412
 10
244.52653465758678
 20
-96.21908902317637
 10
244.54554347532053
 20
-96.21976726127082
 10
244.9562273628243
 20
-96.23931141238607
 10
244.99416977176165
 20
-96.24202244792387
 10
245.00358573219074
 20
-96.24292067976742
 10
245.04135637874344
 20
-96.247432261394
 10
245.42713967229426
 20
-96.30284461559857
 10
245.4646531607994
 20
-96.30914654307816
 10
245.4739412689657
 20
-96.31093488810666
 10
245.5111127851689
 20
-96.31901291340989
 10
245.88989047884922
 20
-96.41081017563236
 10
245.92663598166575
 20
-96.42064603515098
 10
245.93571228710573
 20
-96.42330832942757
 10
245.97194869862136
 20
-96.43487978526498
 10
246.34029721440726
 20
-96.56223224695906
 10
246.37594260771212
 20
-96.5755131372085
 10
246.3847250743385
 20
-96.57902531761556
 10
246.41969885875835
 20
-96.5939856155106
 10
246.7742888826358
 20
-96.75574220285003
 10
246.80851198593408
 20
-96.77234808465005
 10
246.81692123351866
 20
-96.77667840638352
 10
246.85031628067554
 20
-96.79489232784762
 10
247.18794285460905
 20
-96.98959100569475
 10
247.22043434275704
 20
-97.00937178696493
 10
247.2283943644076
 20
-97.01448111045922
 10
247.25990883353504
 20
-97.0357840291634
 10
247.57752032344374
 20
-97.26166501565655
 10
247.6079865224827
 20
-97.28444190802267
 10
247.6154253716318
 20
-97.29028405271401
 10
247.64477441954676
 20
-97.3144834224616
 10
247.93950009746823
 20
-97.56950509478578
 10
247.9676656389924
 20
-97.59507222955608
 10
247.9745160796828
 20
-97.6015943912831
 10
248.00143443533838
 20
-97.62847148633668
 10
248.27061042647
 20
-97.9103288339078
 10
248.29622073654212
 20
-97.93845512281585
 10
248.30242085114145
 20
-97.94559835109196
 10
248.32666521327536
 20
-97.97491024312275
 10
248.56785857337758
 20
-98.28105570140036
 10
248.59068217349133
 20
-98.31148692529288
 10
248.5961759223317
 20
-98.31918665612753
 10
248.61752715854306
 20
-98.3506684099213
 10
248.82855786408
 20
-98.67833488654368
 10
248.84838846337624
 20
-98.71079599313741
 10
248.85312619126907
 20
-98.71898263259793
 10
248.87139131864416
 20
-98.75234970066911
 10
249.05035197090166
 20
-99.0985755857862
 10
249.06701033072642
 20
-99.13277317572567
 10
249.07094921577038
 20
-99.14137272896158
 10
249.0859631451561
 20
-99.1763235234321
 10
249.23123621024442
 20
-99.53797945818428
 10
249.24457176419543
 20
-99.57360443692839
 10
249.24767620482126
 20
-99.58253917697203
 10
249.2593032329816
 20
-99.61875779546986
 10
249.36957566189753
 20
-99.99257495666285
 10
249.37946787671697
 20
-100.02930532823264
 10
249.38170981347213
 20
-100.03849449853426
 10
249.3898448496408
 20
-100.07565357947392
 10
249.40663749563538
 20
-100.16215444847612
 10
249.41086595111835
 20
-100.18139091071447
 10
249.4273124767151
 20
-100.2483075979388
 10
249.4385774751667
 20
-100.28602275438934
 10
249.45824364049398
 20
-100.34170625820931
 10
249.47316310058488
 20
-100.37813074072832
 10
249.498210086374
 20
-100.43161026166149
 10
249.51663936255656
 20
-100.4663909315168
 10
249.54682433595963
 20
-100.51714798065267
 10
249.56858475469383
 20
-100.54994763602768
 10
249.6036150695974
 20
-100.5974901190729
 10
249.6284956616074
 20
-100.62799076426965
 10
249.66803169586294
 20
-100.67185775244626
 10
249.69579124150454
 20
-100.69976368088432
 10
249.7394496895969
 20
-100.73952987967769
 10
249.76981905750299
 20
-100.76457054079515
 10
249.81717664673354
 20
-100.79985041322415
 10
249.8498614030684
 20
-100.82178303549139
 10
249.90045899722207
 20
-100.85223453992427
 10
249.93514226024521
 20
-100.87084648453666
 10
249.98848931095873
 20
-100.89617439081648
 10
250.02483482322185
 20
-100.91128521324669
 10
250.0804141258964
 20
-100.9312439649757
 10
250.11806951429088
 20
-100.9427071644003
 10
250.17534222243756
 20
-100.95710325963128
 10
250.21394241448428
 20
-100.96480769926984
 10
250.27235326389138
 20
-100.97350156652578
 10
250.31152402715284
 20
-100.97737255112227
 10
250.38034860383436
 20
-100.98076502482223
 10
250.4000383502606
 20
-100.98125
 10
264.0
 20
-100.98125
 10
264.0
 20
-104.48125
 10
264.0048152733278
 20
-104.57926714032956
 10
264.0192147195968
 20
-104.67634032201613
 10
264.0430596642678
 20
-104.77153467725446
 10
264.0761204674887
 20
-104.86393343236509
 10
264.11807873565164
 20
-104.952646736826
 10
264.16853038769744
 20
-105.03682023301961
 10
264.22698954663724
 20
-105.11564328416365
 10
264.29289321881345
 20
-105.18835678118656
 10
264.36560671583635
 20
-105.25426045336275
 10
264.4444297669804
 20
-105.31271961230254
 10
264.528603263174
 20
-105.36317126434835
 10
264.61731656763493
 20
-105.4051295325113
 10
264.7097153227455
 20
-105.43819033573222
 10
264.80490967798386
 20
-105.46203528040323
 10
264.90198285967045
 20
-105.4764347266722
 10
265.0
 20
-105.48125
 10
273.0
 20
-105.48125
 10
273.09801714032955
 20
-105.4764347266722
 10
273.19509032201614
 20
-105.46203528040323
 10
273.2902846772545
 20
-105.43819033573222
 10
273.38268343236507
 20
-105.4051295325113
 10
273.471396736826
 20
-105.36317126434835
 10
273.5555702330196
 20
-105.31271961230254
 10
273.63439328416365
 20
-105.25426045336275
 10
273.70710678118655
 20
-105.18835678118656
 10
273.77301045336276
 20
-105.11564328416365
 10
273.83146961230256
 20
-105.03682023301961
 10
273.88192126434836
 20
-104.952646736826
 10
273.9238795325113
 20
-104.86393343236509
 10
273.9569403357322
 20
-104.77153467725446
 10
273.9807852804032
 20
-104.67634032201613
 10
273.9951847266722
 20
-104.57926714032956
 10
274.0
 20
-104.48125
 10
274.0
 20
-100.98125
 10
287.6026820300963
 20
-100.98125
 10
287.6223061437289
 20
-100.98076825505021
 10
287.6909018985549
 20
-100.97739836170805
 10
287.7299434766031
 20
-100.9735531018968
 10
287.78816398574253
 20
-100.96491690517863
 10
287.8266406665508
 20
-100.95726341751013
 10
287.8837343327197
 20
-100.94296219862532
 10
287.9212755648185
 20
-100.93157419036963
 10
287.9766925448011
 20
-100.91174567787388
 10
288.012936785603
 20
-100.89673282177581
 10
288.06614338358804
 20
-100.87156797508388
 10
288.1007415812412
 20
-100.85307485315442
 10
288.1512253886046
 20
-100.82281602349637
 10
288.18384434355175
 20
-100.80102073460942
 10
288.2311191736313
 20
-100.76595933105598
 10
288.2614447475057
 20
-100.74107177575756
 10
288.30505531784456
 20
-100.70154545879164
 10
288.3327954587916
 20
-100.6738053178446
 10
288.3723217757576
 20
-100.63019474750567
 10
288.39720933105593
 20
-100.5998691736314
 10
288.4322707346093
 20
-100.55259434355192
 10
288.45406602349647
 20
-100.51997538860445
 10
288.4843248531545
 20
-100.46949158124112
 10
288.5028179750839
 20
-100.43489338358806
 10
288.52798282177577
 20
-100.38168678560307
 10
288.54299567787393
 20
-100.34544254480099
 10
288.5628241903696
 20
-100.29002556481855
 10
288.57421219862533
 20
-100.25248433271962
 10
288.5885134175101
 20
-100.19539066655095
 10
288.5961669051787
 20
-100.15691398574239
 10
288.6048031018968
 20
-100.09869347660327
 10
288.60864836170805
 20
-100.05965189855479
 10
288.6120182550502
 20
-99.99105614372891
 10
288.6125
 20
-99.97143203009637
 10
288.6125
 20
-76.9
 10
292.1125
 20
-76.9
 10
292.21051714032956
 20
-76.8951847266722
 10
292.30759032201615
 20
-76.88078528040323
 10
292.4027846772545
 20
-76.85694033573222
 10
292.4951834323651
 20
-76.8238795325113
 10
292.583896736826
 20
-76.78192126434836
 10
292.6680702330196
 20
-76.73146961230255
 10
292.74689328416366
 20
-76.67301045336275
 10
292.81960678118656
 20
-76.60710678118656
 10
292.88551045336277
 20
-76.53439328416366
 10
292.94396961230257
 20
-76.45557023301961
 10
292.9944212643484
 20
-76.371396736826
 10
293.0363795325113
 20
-76.28268343236509
 10
293.0694403357322
 20
-76.19028467725447
 10
293.0932852804032
 20
-76.09509032201613
 10
293.1076847266722
 20
-75.99801714032957
 10
293.1125
 20
-75.9
 10
293.1125
 20
-67.9
 10
293.1076847266722
 20
-67.80198285967045
 10
293.0932852804032
 20
-67.70490967798388
 10
293.0694403357322
 20
-67.60971532274554
 10
293.0363795325113
 20
-67.51731656763492
 10
292.9944212643484
 20
-67.42860326317401
 10
292.94396961230257
 20
-67.3444297669804
 10
292.88551045336277
 20
-67.26560671583636
 10
292.81960678118656
 20
-67.19289321881345
 10
292.74689328416366
 20
-67.12698954663728
 10
292.6680702330196
 20
-67.06853038769746
 10
292.583896736826
 20
-67.01807873565166
 10
292.4951834323651
 20
-66.97612046748871
 10
292.4027846772545
 20
-66.94305966426779
 10
292.30759032201615
 20
-66.91921471959678
 10
292.21051714032956
 20
-66.90481527332781
 10
292.1125
 20
-66.9
 10
288.6125
 20
-66.9
 10
288.6125
 20
-43.841067969903634
 10
288.6120182550502
 20
-43.82144385627109
 10
288.60864836170805
 20
-43.752848101445224
 10
288.6048031018968
 20
-43.713806523396734
 10
288.5961669051787
 20
-43.65558601425761
 10
288.5885134175101
 20
-43.61710933344906
 10
288.57421219862533
 20
-43.56001566728038
 10
288.5628241903696
 20
-43.522474435181465
 10
288.54299567787393
 20
-43.467057455199
 10
288.52798282177577
 20
-43.43081321439698
 10
288.5028179750838
 20
-43.3776066164119
 10
288.4843248531545
 20
-43.34300841875891
 10
288.4540660234964
 20
-43.29252461139551
 10
288.43227073460935
 20
-43.25990565644812
 10
288.397209331056
 20
-43.21263082636868
 10
288.3723217757576
 20
-43.18230525249434
 10
288.3327954587917
 20
-43.13869468215549
 10
288.3050553178445
 20
-43.1109545412083
 10
288.26144474750566
 20
-43.071428224242375
 10
288.23111917363144
 20
-43.04654066894409
 10
288.1838443435519
 20
-43.0114792653907
 10
288.1512253886044
 20
-42.98968397650354
 10
288.10074158124115
 20
-42.95942514684554
 10
288.0661433835881
 20
-42.940932024916165
 10
288.01293678560296
 20
-42.91576717822419
 10
287.97669254480104
 20
-42.900754322126126
 10
287.9212755648185
 20
-42.88092580963038
 10
287.8837343327197
 20
-42.8695378013747
 10
287.826640666551
 20
-42.8552365824899
 10
287.78816398574236
 20
-42.84758309482135
 10
287.7299434766032
 20
-42.83894689810321
 10
287.69090189855484
 20
-42.835101638291945
 10
287.622306143729
 20
-42.8317317449498
 10
287.6026820300962
 20
-42.831250000000004
 10
274.0
 20
-42.831250000000004
 10
274.0
 20
-39.331250000000004
 10
273.9951847266722
 20
-39.233232859670444
 10
273.9807852804032
 20
-39.136159677983876
 10
273.9569403357322
 20
-39.04096532274554
 10
273.9238795325113
 20
-38.94856656763491
 10
273.88192126434836
 20
-38.85985326317401
 10
273.83146961230256
 20
-38.7756797669804
 10
273.77301045336276
 20
-38.69685671583636
 10
273.70710678118655
 20
-38.62414321881346
 10
273.63439328416365
 20
-38.55823954663727
 10
273.5555702330196
 20
-38.499780387697456
 10
273.471396736826
 20
-38.44932873565165
 10
273.38268343236507
 20
-38.40737046748872
 10
273.2902846772545
 20
-38.3743096642678
 10
273.19509032201614
 20
-38.35046471959677
 10
273.09801714032955
 20
-38.336065273327804
 10
273.0
 20
-38.331250000000004
 10
265.0
 20
-38.331250000000004
 10
264.90198285967045
 20
-38.336065273327804
 10
264.80490967798386
 20
-38.35046471959677
 10
264.7097153227455
 20
-38.3743096642678
 10
264.61731656763493
 20
-38.40737046748872
 10
264.528603263174
 20
-38.44932873565165
 10
264.4444297669804
 20
-38.499780387697456
 10
264.36560671583635
 20
-38.55823954663727
 10
264.29289321881345
 20
-38.62414321881346
 10
264.22698954663724
 20
-38.69685671583636
 10
264.16853038769744
 20
-38.7756797669804
 10
264.11807873565164
 20
-38.85985326317401
 10
264.0761204674887
 20
-38.94856656763491
 10
264.0430596642678
 20
-39.04096532274554
 10
264.0192147195968
 20
-39.136159677983876
 10
264.0048152733278
 20
-39.233232859670444
 10
264.0
 20
-39.331250000000004
 10
264.0
 20
-42.831250000000004
 10
255.52223241335676
 20
-42.831250000000004
 10
255.5032128437658
 20
-42.831023878025896
 10
255.49846534241476
 20
-42.83091097682368
 10
255.47945652468016
 20
-42.83023273872922
 10
255.06877263717558
 20
-42.810688587613924
 10
255.03083022823722
 20
-42.80797755207601
 10
255.0214142678083
 20
-42.80707932023247
 10
254.9836436212567
 20
-42.80256773860601
 10
254.59786032770566
 20
-42.74715538440142
 10
254.5603468392012
 20
-42.740853456921975
 10
254.5510587310352
 20
-42.73906511189354
 10
254.5138872148312
 20
-42.73098708659014
 10
254.13510952115058
 20
-42.63918982436758
 10
254.09836401833394
 20
-42.62935396484894
 10
254.08928771289422
 20
-42.62669167057242
 10
254.05305130137876
 20
-42.61512021473505
 10
253.68470278559258
 20
-42.487767753040885
 10
253.64905739228726
 20
-42.47448686279127
 10
253.6402749256614
 20
-42.47097468238441
 10
253.60530114124197
 20
-42.45601438448954
 10
253.250711117364
 20
-42.29425779714988
 10
253.21648801406582
 20
-42.27765191534993
 10
253.20807876648158
 20
-42.273321593616615
 10
253.17468371932455
 20
-42.25510767215245
 10
252.8370571453911
 20
-42.06040899430538
 10
252.8045656572434
 20
-42.04062821303536
 10
252.79660563559273
 20
-42.03551888954102
 10
252.765091166465
 20
-42.01421597083665
 10
252.44747967655593
 20
-41.788334984343216
 10
252.4170134775174
 20
-41.76555809197742
 10
252.40957462836883
 20
-41.7597159472865
 10
252.3802255804534
 20
-41.73551657753858
 10
252.08549990253167
 20
-41.480494905214144
 10
252.0573343610077
 20
-41.45492777044403
 10
252.0504839203174
 20
-41.448405608717096
 10
252.0235655646616
 20
-41.42152851366332
 10
251.75438957352995
 20
-41.13967116609216
 10
251.7287792634579
 20
-41.11154487718419
 10
251.7225791488586
 20
-41.10440164890812
 10
251.69833478672464
 20
-41.075089756877254
 10
251.45714142662243
 20
-40.768944298599635
 10
251.43431782650887
 20
-40.73851307470741
 10
251.42882407766854
 20
-40.730813343872825
 10
251.40747284145698
 20
-40.69933159007877
 10
251.19644213591988
 20
-40.37166511345618
 10
251.1766115366239
 20
-40.33920400686282
 10
251.17187380873114
 20
-40.331017367402424
 10
251.15360868135582
 20
-40.29765029933084
 10
250.97464802909832
 20
-39.95142441421373
 10
250.95798966927356
 20
-39.91722682427429
 10
250.9540507842295
 20
-39.908627271038206
 10
250.93903685484383
 20
-39.873676476567695
 10
250.79376378975562
 20
-39.512020541815836
 10
250.78042823580458
 20
-39.47639556307165
 10
250.77732379517872
 20
-39.46746082302794
 10
250.76569676701837
 20
-39.43124220453017
 10
250.65542433810248
 20
-39.057425043337226
 10
250.64553212328292
 20
-39.02069467176693
 10
250.64329018652774
 20
-39.011505501465194
 10
250.63515515035917
 20
-38.97434642052605
 10
250.61836250436465
 20
-38.887845551524016
 10
250.61413404888165
 20
-38.868609089285535
 10
250.5976875232849
 20
-38.80169240206117
 10
250.58642252483332
 20
-38.76397724561075
 10
250.56675635950606
 20
-38.708293741790804
 10
250.5518368994151
 20
-38.671869259271624
 10
250.52678991362603
 20
-38.6183897383386
 10
250.50836063744345
 20
-38.58360906848325
 10
250.47817566404035
 20
-38.53285201934726
 10
250.45641524530618
 20
-38.50005236397235
 10
250.42138493040264
 20
-38.452509880927146
 10
250.3965043383926
 20
-38.42200923573032
 10
250.356968304137
 20
-38.3781422475537
 10
250.32920875849564
 20
-38.35023631911583
 10
250.28555031040304
 20
-38.31047012032226
 10
250.25518094249702
 20
-38.28542945920486
 10
250.20782335326663
 20
-38.25014958677597
 10
250.17513859693142
 20
-38.22821696450848
 10
250.12454100277805
 20
-38.197765460075814
 10
250.0898577397548
 20
-38.179153515463355
 10
250.03651068904122
 20
-38.1538256091835
 10
250.00016517677807
 20
-38.13871478675329
 10
249.94458587410372
 20
-38.11875603502435
 10
249.90693048570913
 20
-38.10729283559971
 10
249.84965777756244
 20
-38.09289674036872
 10
249.8110575855157
 20
-38.085192300730164
 10
249.75264673610843
 20
-38.07649843347419
 10
249.71347597284733
 20
-38.07262744887775
 10
249.64465139616527
 20
-38.06923497517776
 10
249.62496164973973
 20
-38.06875
 10
235.73840470324956
 20
-38.06875
 10
235.7177902834408
 20
-38.06848435945691
 10
235.71264608912838
 20
-38.068351759700654
 10
235.6920453593839
 20
-38.067555014483624
 10
235.24704065837818
 20
-38.04459835932438
 10
235.20593497479493
 20
-38.04141402370277
 10
235.1957471724899
 20
-38.04036009355116
 10
235.15486013010877
 20
-38.03506226555009
 10
234.73750590922987
 20
-37.970009482559405
 10
234.69694610257974
 20
-37.96261223302141
 10
234.68692083173198
 20
-37.9605155620874
 10
234.64679598621618
 20
-37.951038537844084
 10
234.23835124832146
 20
-37.84338489718928
 10
234.1987679341005
 20
-37.83185326887951
 10
234.18901163104053
 20
-37.82873611710638
 10
234.15007497998772
 20
-37.815180512324375
 10
233.7548761025811
 20
-37.666068951549335
 10
233.71668952905566
 20
-37.65052537349881
 10
233.70730577453537
 20
-37.646420835074224
 10
233.6699707007179
 20
-37.62893056694547
 10
233.29221343260647
 20
-37.439944174183864
 10
233.25582901912324
 20
-37.42055366950616
 10
233.24691743862013
 20
-37.41550532150788
 10
233.21158032117756
 20
-37.39426608077101
 10
232.85527523702996
 20
-37.167411287410125
 10
232.821079269755
 20
-37.144379721281965
 10
232.81273447576768
 20
-37.13844116102843
 10
232.7797704819313
 20
-37.113678440528204
 10
232.44870040279616
 20
-36.85136371932212
 10
232.41705593359313
 20
-36.824935613354434
 10
232.40936652115897
 20
-36.818169889372435
 10
232.37912562317229
 20
-36.790146590045325
 10
232.07680545500918
 20
-36.495156884832184
 10
232.0480484469877
 20
-36.465612821031364
 10
232.0410960530877
 20
-36.458091763683036
 10
232.01397896836812
 20
-36.42720100467112
 10
231.7128316863944
 20
-36.06582702224045
 10
231.6784389122044
 20
-36.024542954144636
 10
231.65048062669865
 20
-35.994297851281644
 10
231.60625179724929
 20
-35.951141453743
 10
231.5753296729721
 20
-35.923933840731166
 10
231.52689478966664
 20
-35.88555772729892
 10
231.49333712073383
 20
-35.861676462017996
 10
231.4412104072088
 20
-35.828488064345834
 10
231.40537346879586
 20
-35.80818668949563
 10
231.35010834412338
 20
-35.780538362278534
 10
231.31237260996204
 20
-35.76403241356574
 10
231.25455581310845
 20
-35.74221769365959
 10
231.2153219160712
 20
-35.72968241149739
 10
231.15556727660544
 20
-35.71393290149595
 10
231.11525175526592
 20
-35.70550137051135
 10
231.05419367645044
 20
-35.69598427986676
 10
231.0132245527751
 20
-35.69174601596706
 10
230.94121262517564
 20
-35.68803110467395
 10
230.9206084723464
 20
-35.6875
 10
226.4
 20
-35.6875
 10
226.4
 20
-32.1875
 10
226.3951847266722
 20
-32.08948285967044
 10
226.38078528040324
 20
-31.992409677983872
 10
226.35694033573222
 20
-31.897215322745538
 10
226.32387953251128
 20
-31.80481656763491
 10
226.28192126434834
 20
-31.716103263174002
 10
226.23146961230253
 20
-31.6319297669804
 10
226.17301045336274
 20
-31.553106715836353
 10
226.10710678118656
 20
-31.480393218813454
 10
226.03439328416366
 20
-31.414489546637263
 10
225.9555702330196
 20
-31.356030387697455
 10
225.871396736826
 20
-31.305578735651643
 10
225.7826834323651
 20
-31.263620467488714
 10
225.69028467725445
 20
-31.23055966426779
 10
225.59509032201612
 20
-31.20671471959677
 10
225.49801714032958
 20
-31.192315273327804
 10
225.4
 20
-31.1875
 10
217.4
 20
-31.1875
 10
217.30198285967043
 20
-31.192315273327804
 10
217.2049096779839
 20
-31.206714719596768
  0
LWPOLYLINE
  5
8D
330
17
100
AcDbEntity
  8
SWITCHES
100
AcDbPolyline
 90
69
 70
1
 10
285.28749999999997
 20
-45.85625
 10
271.8875
 20
-45.85625
 10
271.8580948579011
 20
-45.85769458199834
 10
271.82897290339514
 20
-45.86201441587903
 10
271.80041459682366
 20
-45.869167899280335
 10
271.77269497029044
 20
-45.87908614024661
 10
271.7460809789522
 20
-45.89167362069549
 10
271.7208289300941
 20
-45.90680911630923
 10
271.6971820147509
 20
-45.924346863991175
 10
271.675367965644
 20
-45.94411796564403
 10
271.65559686399115
 20
-45.965932014750905
 10
271.63805911630925
 20
-45.98957893009412
 10
271.6229236206955
 20
-46.0148309789522
 10
271.6103361402466
 20
-46.04144497029047
 10
271.60041789928033
 20
-46.06916459682366
 10
271.593264415879
 20
-46.09772290339516
 10
271.5889445819983
 20
-46.12684485790113
 10
271.5875
 20
-46.15625
 10
271.5875
 20
-59.556250000000006
 10
271.5889445819983
 20
-59.58565514209887
 10
271.593264415879
 20
-59.61477709660485
 10
271.60041789928033
 20
-59.643335403176344
 10
271.6103361402466
 20
-59.671055029709535
 10
271.6229236206955
 20
-59.69766902104781
 10
271.63805911630925
 20
-59.72292106990589
 10
271.65559686399115
 20
-59.7465679852491
 10
271.675367965644
 20
-59.76838203435597
 10
271.6971820147509
 20
-59.78815313600883
 10
271.7208289300941
 20
-59.80569088369077
 10
271.7460809789522
 20
-59.82082637930451
 10
271.77269497029044
 20
-59.83341385975339
 10
271.80041459682366
 20
-59.84333210071967
 10
271.82897290339514
 20
-59.850485584120975
 10
271.8580948579011
 20
-59.85480541800167
 10
271.8875
 20
-59.85625
 10
285.28749999999997
 20
-59.85625
 10
285.31690514209885
 20
-59.85480541800167
 10
285.3460270966048
 20
-59.850485584120975
 10
285.3745854031763
 20
-59.84333210071967
 10
285.4023050297095
 20
-59.83341385975339
 10
285.42891902104776
 20
-59.82082637930451
 10
285.45417106990584
 20
-59.80569088369077
 10
285.47781798524903
 20
-59.78815313600883
 10
285.49963203435595
 20
-59.76838203435597
 10
285.5194031360088
 20
-59.7465679852491
 10
285.5369408836907
 20
-59.72292106990589
 10
285.5520763793045
 20
-59.69766902104781
 10
285.56466385975335
 20
-59.671055029709535
 10
285.5745821007196
 20
-59.643335403176344
 10
285.58173558412096
 20
-59.61477709660485
 10
285.58605541800165
 20
-59.58565514209887
 10
285.5875
 20
-59.556250000000006
 10
285.5875
 20
-46.15625
 10
285.58605541800165
 20
-46.12684485790113
 10
285.58173558412096
 20
-46.09772290339516
 10
285.5745821007196
 20
-46.06916459682366
 10
285.56466385975335
 20
-46.04144497029047
 10
285.5520763793045
 20
-46.0148309789522
 10
285.5369408836907
 20
-45.98957893009412
 10
285.5194031360088
 20
-45.965932014750905
 10
285.49963203435595
 20
-45.94411796564403
 10
285.47781798524903
 20
-45.924346863991175
 10
285.45417106990584
 20
-45.90680911630923
 10
285.42891902104776
 20
-45.89167362069549
 10
285.4023050297095
 20
-45.87908614024661
 10
285.3745854031763
 20
-45.869167899280335
 10
285.3460270966048
 20
-45.86201441587903
 10
285.31690514209885
 20
-45.85769458199834
 10
285.28749999999997
 20
-45.85625
  0
LWPOLYLINE
  5
8E
330
17
100
AcDbEntity
  8
SWITCHES
100
AcDbPolyline
 90
69
 70
1
 10
285.28749999999997
 20
-64.90625
 10
271.8875
 20
-64.90625
 10
271.8580948579011
 20
-64.90769458199834
 10
271.82897290339514
 20
-64.91201441587903
 10
271.80041459682366
 20
-64.91916789928034
 10
271.77269497029044
 20
-64.92908614024661
 10
271.7460809789522
 20
-64.9416736206955
 10
271.7208289300941
 20
-64.95680911630923
 10
271.6971820147509
 20
-64.97434686399117
 10
271.675367965644
 20
-64.99411796564404
 10
271.65559686399115
 20
-65.0159320147509
 10
271.63805911630925
 20
-65.03957893009412
 10
271.6229236206955
 20
-65.0648309789522
 10
271.6103361402466
 20
-65.09144497029047
 10
271.60041789928033
 20
-65.11916459682365
 10
271.593264415879
 20
-65.14772290339516
 10
271.5889445819983
 20
-65.17684485790113
 10
271.5875
 20
-65.20625
 10
271.5875
 20
-78.60625
 10
271.5889445819983
 20
-78.63565514209887
 10
271.593264415879
 20
-78.66477709660484
 10
271.60041789928033
 20
-78.69333540317635
 10
271.6103361402466
 20
-78.72105502970953
 10
271.6229236206955
 20
-78.7476690210478
 10
271.63805911630925
 20
-78.77292106990588
 10
271.65559686399115
 20
-78.7965679852491
 10
271.675367965644
 20
-78.81838203435596
 10
271.6971820147509
 20
-78.83815313600883
 10
271.7208289300941
 20
-78.85569088369077
 10
271.7460809789522
 20
-78.8708263793045
 10
271.77269497029044
 20
-78.88341385975339
 10
271.80041459682366
 20
-78.89333210071966
 10
271.82897290339514
 20
-78.90048558412097
 10
271.8580948579011
 20
-78.90480541800166
 10
271.8875
 20
-78.90625
 10
285.28749999999997
 20
-78.90625
 10
285.31690514209885
 20
-78.90480541800166
 10
285.3460270966048
 20
-78.90048558412097
 10
285.3745854031763
 20
-78.89333210071966
 10
285.4023050297095
 20
-78.88341385975339
 10
285.42891902104776
 20
-78.8708263793045
 10
285.45417106990584
 20
-78.85569088369077
 10
285.47781798524903
 20
-78.83815313600883
 10
285.49963203435595
 20
-78.81838203435596
 10
285.5194031360088
 20
-78.7965679852491
 10
285.5369408836907
 20
-78.77292106990588
 10
285.5520763793045
 20
-78.7476690210478
 10
285.56466385975335
 20
-78.72105502970953
 10
285.5745821007196
 20
-78.69333540317635
 10
285.58173558412096
 20
-78.66477709660484
 10
285.58605541800165
 20
-78.63565514209887
 10
285.5875
 20
-78.60625
 10
285.5875
 20
-65.20625
 10
285.58605541800165
 20
-65.17684485790113
 10
285.58173558412096
 20
-65.14772290339516
 10
285.5745821007196
 20
-65.11916459682365
 10
285.56466385975335
 20
-65.09144497029047
 10
285.5520763793045
 20
-65.0648309789522
 10
285.5369408836907
 20
-65.03957893009412
 10
285.5194031360088
 20
-65.0159320147509
 10
285.49963203435595
 20
-64.99411796564404
 10
285.47781798524903
 20
-64.97434686399117
 10
285.45417106990584
 20
-64.95680911630923
 10
285.42891902104776
 20
-64.9416736206955
 10
285.4023050297095
 20
-64.92908614024661
 10
285.3745854031763
 20
-64.91916789928034
 10
285.3460270966048
 20
-64.91201441587903
 10
285.31690514209885
 20
-64.90769458199834
 10
285.28749999999997
 20
-64.90625
  0
LWPOLYLINE
  5
8F
330
17
100
AcDbEntity
  8
SWITCHES
100
AcDbPolyline
 90
69
 70
1
 10
285.28749999999997
 20
-83.95625
 10
271.8875
 20
-83.95625
 10
271.8580948579011
 20
-83.95769458199834
 10
271.82897290339514
 20
-83.96201441587903
 10
271.80041459682366
 20
-83.96916789928034
 10
271.77269497029044
 20
-83.97908614024661
 10
271.7460809789522
 20
-83.9916736206955
 10
271.7208289300941
 20
-84.00680911630923
 10
271.6971820147509
 20
-84.02434686399117
 10
271.675367965644
 20
-84.04411796564403
 10
271.65559686399115
 20
-84.0659320147509
 10
271.63805911630925
 20
-84.08957893009412
 10
271.6229236206955
 20
-84.1148309789522
 10
271.6103361402466
 20
-84.14144497029046
 10
271.60041789928033
 20
-84.16916459682365
 10
271.593264415879
 20
-84.19772290339516
 10
271.5889445819983
 20
-84.22684485790113
 10
271.5875
 20
-84.25625
 10
271.5875
 20
-97.65625
 10
271.5889445819983
 20
-97.68565514209887
 10
271.593264415879
 20
-97.71477709660483
 10
271.60041789928033
 20
-97.74333540317635
 10
271.6103361402466
 20
-97.77105502970953
 10
271.6229236206955
 20
-97.7976690210478
 10
271.63805911630925
 20
-97.82292106990587
 10
271.65559686399115
 20
-97.8465679852491
 10
271.675367965644
 20
-97.86838203435596
 10
271.6971820147509
 20
-97.88815313600882
 10
271.7208289300941
 20
-97.90569088369077
 10
271.7460809789522
 20
-97.9208263793045
 10
271.77269497029044
 20
-97.93341385975339
 10
271.80041459682366
 20
-97.94333210071966
 10
271.82897290339514
 20
-97.95048558412097
 10
271.8580948579011
 20
-97.95480541800165
 10
271.8875
 20
-97.95625
 10
285.28749999999997
 20
-97.95625
 10
285.31690514209885
 20
-97.95480541800165
 10
285.3460270966048
 20
-97.95048558412097
 10
285.3745854031763
 20
-97.94333210071966
 10
285.4023050297095
 20
-97.93341385975339
 10
285.42891902104776
 20
-97.9208263793045
 10
285.45417106990584
 20
-97.90569088369077
 10
285.47781798524903
 20
-97.88815313600882
 10
285.49963203435595
 20
-97.86838203435596
 10
285.5194031360088
 20
-97.8465679852491
 10
285.5369408836907
 20
-97.82292106990587
 10
285.5520763793045
 20
-97.7976690210478
 10
285.56466385975335
 20
-97.77105502970953
 10
285.5745821007196
 20
-97.74333540317635
 10
285.58173558412096
 20
-97.71477709660483
 10
285.58605541800165
 20
-97.68565514209887
 10
285.5875
 20
-97.65625
 10
285.5875
 20
-84.25625
 10
285.58605541800165
 20
-84.22684485790113
 10
285.58173558412096
 20
-84.19772290339516
 10
285.5745821007196
 20
-84.16916459682365
 10
285.56466385975335
 20
-84.14144497029046
 10
285.5520763793045
 20
-84.1148309789522
 10
285.5369408836907
 20
-84.08957893009412
 10
285.5194031360088
 20
-84.0659320147509
 10
285.49963203435595
 20
-84.04411796564403
 10
285.47781798524903
 20
-84.02434686399117
 10
285.45417106990584
 20
-84.00680911630923
 10
285.42891902104776
 20
-83.9916736206955
 10
285.4023050297095
 20
-83.97908614024661
 10
285.3745854031763
 20
-83.96916789928034
 10
285.3460270966048
 20
-83.96201441587903
 10
285.31690514209885
 20
-83.95769458199834
 10
285.28749999999997
 20
-83.95625
  0
LWPOLYLINE
  5
90
330
17
100
AcDbEntity
  8
SWITCHES
100
AcDbPolyline
 90
69
 70
1
 10
266.2375
 20
-45.85625
 10
252.83750000000003
 20
-45.85625
 10
252.80809485790115
 20
-45.85769458199834
 10
252.77897290339519
 20
-45.86201441587903
 10
252.7504145968237
 20
-45.869167899280335
 10
252.72269497029052
 20
-45.87908614024661
 10
252.69608097895224
 20
-45.89167362069549
 10
252.67082893009416
 20
-45.90680911630923
 10
252.64718201475094
 20
-45.924346863991175
 10
252.62536796564407
 20
-45.94411796564403
 10
252.60559686399122
 20
-45.965932014750905
 10
252.58805911630927
 20
-45.98957893009412
 10
252.57292362069552
 20
-46.0148309789522
 10
252.56033614024665
 20
-46.04144497029047
 10
252.55041789928038
 20
-46.06916459682366
 10
252.54326441587907
 20
-46.09772290339516
 10
252.53894458199838
 20
-46.12684485790113
 10
252.53750000000002
 20
-46.15625
 10
252.53750000000002
 20
-59.556250000000006
 10
252.53894458199838
 20
-59.58565514209887
 10
252.54326441587907
 20
-59.61477709660485
 10
252.55041789928038
 20
-59.643335403176344
 10
252.56033614024665
 20
-59.671055029709535
 10
252.57292362069552
 20
-59.69766902104781
 10
252.58805911630927
 20
-59.72292106990589
 10
252.60559686399122
 20
-59.7465679852491
 10
252.62536796564407
 20
-59.76838203435597
 10
252.64718201475094
 20
-59.78815313600883
 10
252.67082893009416
 20
-59.80569088369077
 10
252.69608097895224
 20
-59.82082637930451
 10
252.72269497029052
 20
-59.83341385975339
 10
252.7504145968237
 20
-59.84333210071967
 10
252.77897290339519
 20
-59.850485584120975
 10
252.80809485790115
 20
-59.85480541800167
 10
252.83750000000003
 20
-59.85625
 10
266.2375
 20
-59.85625
 10
266.2669051420989
 20
-59.85480541800167
 10
266.29602709660486
 20
-59.850485584120975
 10
266.32458540317634
 20
-59.84333210071967
 10
266.35230502970956
 20
-59.83341385975339
 10
266.3789190210478
 20
-59.82082637930451
 10
266.4041710699059
 20
-59.80569088369077
 10
266.4278179852491
 20
-59.78815313600883
 10
266.449632034356
 20
-59.76838203435597
 10
266.46940313600885
 20
-59.7465679852491
 10
266.48694088369075
 20
-59.72292106990589
 10
266.5020763793045
 20
-59.69766902104781
 10
266.5146638597534
 20
-59.671055029709535
 10
266.52458210071967
 20
-59.643335403176344
 10
266.531735584121
 20
-59.61477709660485
 10
266.5360554180017
 20
-59.58565514209887
 10
266.5375
 20
-59.556250000000006
 10
266.5375
 20
-46.15625
 10
266.5360554180017
 20
-46.12684485790113
 10
266.531735584121
 20
-46.09772290339516
 10
266.52458210071967
 20
-46.06916459682366
 10
266.5146638597534
 20
-46.04144497029047
 10
266.5020763793045
 20
-46.0148309789522
 10
266.48694088369075
 20
-45.98957893009412
 10
266.46940313600885
 20
-45.965932014750905
 10
266.449632034356
 20
-45.94411796564403
 10
266.4278179852491
 20
-45.924346863991175
 10
266.4041710699059
 20
-45.90680911630923
 10
266.3789190210478
 20
-45.89167362069549
 10
266.35230502970956
 20
-45.87908614024661
 10
266.32458540317634
 20
-45.869167899280335
 10
266.29602709660486
 20
-45.86201441587903
 10
266.2669051420989
 20
-45.85769458199834
 10
266.2375
 20
-45.85625
  0
LWPOLYLINE
  5
91
330
17
100
AcDbEntity
  8
SWITCHES
100
AcDbPolyline
 90
69
 70
1
 10
266.2375
 20
-64.90625
 10
252.83750000000003
 20
-64.90625
 10
252.80809485790115
 20
-64.90769458199834
 10
252.77897290339519
 20
-64.91201441587903
 10
252.7504145968237
 20
-64.91916789928034
 10
252.72269497029052
 20
-64.92908614024661
 10
252.69608097895224
 20
-64.9416736206955
 10
252.67082893009416
 20
-64.95680911630923
 10
252.64718201475094
 20
-64.97434686399117
 10
252.62536796564407
 20
-64.99411796564404
 10
252.60559686399122
 20
-65.0159320147509
 10
252.58805911630927
 20
-65.03957893009412
 10
252.57292362069552
 20
-65.0648309789522
 10
252.56033614024665
 20
-65.09144497029047
 10
252.55041789928038
 20
-65.11916459682365
 10
252.54326441587907
 20
-65.14772290339516
 10
252.53894458199838
 20
-65.17684485790113
 10
252.53750000000002
 20
-65.20625
 10
252.53750000000002
 20
-78.60625
 10
252.53894458199838
 20
-78.63565514209887
 10
252.54326441587907
 20
-78.66477709660484
 10
252.55041789928038
 20
-78.69333540317635
 10
252.56033614024665
 20
-78.72105502970953
 10
252.57292362069552
 20
-78.7476690210478
 10
252.58805911630927
 20
-78.77292106990588
 10
252.60559686399122
 20
-78.7965679852491
 10
252.62536796564407
 20
-78.81838203435596
 10
252.64718201475094
 20
-78.83815313600883
 10
252.67082893009416
 20
-78.85569088369077
 10
252.69608097895224
 20
-78.8708263793045
 10
252.72269497029052
 20
-78.88341385975339
 10
252.7504145968237
 20
-78.89333210071966
 10
252.77897290339519
 20
-78.90048558412097
 10
252.80809485790115
 20
-78.90480541800166
 10
252.83750000000003
 20
-78.90625
 10
266.2375
 20
-78.90625
 10
266.2669051420989
 20
-78.90480541800166
 10
266.29602709660486
 20
-78.90048558412097
 10
266.32458540317634
 20
-78.89333210071966
 10
266.35230502970956
 20
-78.88341385975339
 10
266.3789190210478
 20
-78.8708263793045
 10
266.4041710699059
 20
-78.85569088369077
 10
266.4278179852491
 20
-78.83815313600883
 10
266.449632034356
 20
-78.81838203435596
 10
266.46940313600885
 20
-78.7965679852491
 10
266.48694088369075
 20
-78.77292106990588
 10
266.5020763793045
 20
-78.7476690210478
 10
266.5146638597534
 20
-78.72105502970953
 10
266.52458210071967
 20
-78.69333540317635
 10
266.531735584121
 20
-78.66477709660484
 10
266.5360554180017
 20
-78.63565514209887
 10
266.5375
 20
-78.60625
 10
266.5375
 20
-65.20625
 10
266.5360554180017
 20
-65.17684485790113
 10
266.531735584121
 20
-65.14772290339516
 10
266.52458210071967
 20
-65.11916459682365
 10
266.5146638597534
 20
-65.09144497029047
 10
266.5020763793045
 20
-65.0648309789522
 10
266.48694088369075
 20
-65.03957893009412
 10
266.46940313600885
 20
-65.0159320147509
 10
266.449632034356
 20
-64.99411796564404
 10
266.4278179852491
 20
-64.97434686399117
 10
266.4041710699059
 20
-64.95680911630923
 10
266.3789190210478
 20
-64.9416736206955
 10
266.35230502970956
 20
-64.92908614024661
 10
266.32458540317634
 20
-64.91916789928034
 10
266.29602709660486
 20
-64.91201441587903
 10
266.2669051420989
 20
-64.90769458199834
 10
266.2375
 20
-64.90625
  0
LWPOLYLINE
  5
92
330
17
100
AcDbEntity
  8
SWITCHES
100
AcDbPolyline
 90
69
 70
1
 10
266.2375
 20
-83.95625
 10
252.83750000000003
 20
-83.95625
 10
252.80809485790115
 20
-83.95769458199834
 10
252.77897290339519
 20
-83.96201441587903
 10
252.7504145968237
 20
-83.96916789928034
 10
252.72269497029052
 20
-83.97908614024661
 10
252.69608097895224
 20
-83.9916736206955
 10
252.67082893009416
 20
-84.00680911630923
 10
252.64718201475094
 20
-84.02434686399117
 10
252.62536796564407
 20
-84.04411796564403
 10
252.60559686399122
 20
-84.0659320147509
 10
252.58805911630927
 20
-84.08957893009412
 10
252.57292362069552
 20
-84.1148309789522
 10
252.56033614024665
 20
-84.14144497029046
 10
252.55041789928038
 20
-84.16916459682365
 10
252.54326441587907
 20
-84.19772290339516
 10
252.53894458199838
 20
-84.22684485790113
 10
252.53750000000002
 20
-84.25625
 10
252.53750000000002
 20
-97.65625
 10
252.53894458199838
 20
-97.68565514209887
 10
252.54326441587907
 20
-97.71477709660483
 10
252.55041789928038
 20
-97.74333540317635
 10
252.56033614024665
 20
-97.77105502970953
 10
252.57292362069552
 20
-97.7976690210478
 10
252.58805911630927
 20
-97.82292106990587
 10
252.60559686399122
 20
-97.8465679852491
 10
252.62536796564407
 20
-97.86838203435596
 10
252.64718201475094
 20
-97.88815313600882
 10
252.67082893009416
 20
-97.90569088369077
 10
252.69608097895224
 20
-97.9208263793045
 10
252.72269497029052
 20
-97.93341385975339
 10
252.7504145968237
 20
-97.94333210071966
 10
252.77897290339519
 20
-97.95048558412097
 10
252.80809485790115
 20
-97.95480541800165
 10
252.83750000000003
 20
-97.95625
 10
266.2375
 20
-97.95625
 10
266.2669051420989
 20
-97.95480541800165
 10
266.29602709660486
 20
-97.95048558412097
 10
266.32458540317634
 20
-97.94333210071966
 10
266.35230502970956
 20
-97.93341385975339
 10
266.3789190210478
 20
-97.9208263793045
 10
266.4041710699059
 20
-97.90569088369077
 10
266.4278179852491
 20
-97.88815313600882
 10
266.449632034356
 20
-97.86838203435596
 10
266.46940313600885
 20
-97.8465679852491
 10
266.48694088369075
 20
-97.82292106990587
 10
266.5020763793045
 20
-97.7976690210478
 10
266.5146638597534
 20
-97.77105502970953
 10
266.52458210071967
 20
-97.74333540317635
 10
266.531735584121
 20
-97.71477709660483
 10
266.5360554180017
 20
-97.68565514209887
 10
266.5375
 20
-97.65625
 10
266.5375
 20
-84.25625
 10
266.5360554180017
 20
-84.22684485790113
 10
266.531735584121
 20
-84.19772290339516
 10
266.52458210071967
 20
-84.16916459682365
 10
266.5146638597534
 20
-84.14144497029046
 10
266.5020763793045
 20
-84.1148309789522
 10
266.48694088369075
 20
-84.08957893009412
 10
266.46940313600885
 20
-84.0659320147509
 10
266.449632034356
 20
-84.04411796564403
 10
266.4278179852491
 20
-84.02434686399117
 10
266.4041710699059
 20
-84.00680911630923
 10
266.3789190210478
 20
-83.9916736206955
 10
266.35230502970956
 20
-83.97908614024661
 10
266.32458540317634
 20
-83.96916789928034
 10
266.29602709660486
 20
-83.96201441587903
 10
266.2669051420989
 20
-83.95769458199834
 10
266.2375
 20
-83.95625
  0
LWPOLYLINE
  5
93
330
17
100
AcDbEntity
  8
SWITCHES
100
AcDbPolyline
 90
69
 70
1
 10
247.1875
 20
-41.09375
 10
233.78750000000002
 20
-41.09375
 10
233.75809485790114
 20
-41.095194581998335
 10
233.72897290339517
 20
-41.09951441587903
 10
233.7004145968237
 20
-41.10666789928033
 10
233.6726949702905
 20
-41.11658614024661
 10
233.64608097895223
 20
-41.12917362069549
 10
233.62082893009415
 20
-41.14430911630923
 10
233.59718201475093
 20
-41.16184686399117
 10
233.57536796564406
 20
-41.18161796564403
 10
233.5555968639912
 20
-41.2034320147509
 10
233.53805911630926
 20
-41.227078930094116
 10
233.5229236206955
 20
-41.252330978952195
 10
233.51033614024664
 20
-41.27894497029047
 10
233.50041789928036
 20
-41.30666459682366
 10
233.49326441587905
 20
-41.335222903395156
 10
233.48894458199837
 20
-41.36434485790113
 10
233.4875
 20
-41.39375
 10
233.4875
 20
-54.79375
 10
233.48894458199837
 20
-54.82315514209887
 10
233.49326441587905
 20
-54.852277096604844
 10
233.50041789928036
 20
-54.88083540317634
 10
233.51033614024664
 20
-54.90855502970953
 10
233.5229236206955
 20
-54.935169021047805
 10
233.53805911630926
 20
-54.960421069905884
 10
233.5555968639912
 20
-54.9840679852491
 10
233.57536796564406
 20
-55.00588203435597
 10
233.59718201475093
 20
-55.02565313600883
 10
233.62082893009415
 20
-55.04319088369077
 10
233.64608097895223
 20
-55.05832637930451
 10
233.6726949702905
 20
-55.07091385975339
 10
233.7004145968237
 20
-55.08083210071967
 10
233.72897290339517
 20
-55.08798558412097
 10
233.75809485790114
 20
-55.092305418001665
 10
233.78750000000002
 20
-55.09375
 10
247.1875
 20
-55.09375
 10
247.21690514209888
 20
-55.092305418001665
 10
247.24602709660485
 20
-55.08798558412097
 10
247.27458540317633
 20
-55.08083210071967
 10
247.30230502970952
 20
-55.07091385975339
 10
247.3289190210478
 20
-55.05832637930451
 10
247.35417106990587
 20
-55.04319088369077
 10
247.3778179852491
 20
-55.02565313600883
 10
247.39963203435596
 20
-55.00588203435597
 10
247.4194031360088
 20
-54.9840679852491
 10
247.43694088369077
 20
-54.960421069905884
 10
247.45207637930451
 20
-54.935169021047805
 10
247.4646638597534
 20
-54.90855502970953
 10
247.47458210071966
 20
-54.88083540317634
 10
247.48173558412097
 20
-54.852277096604844
 10
247.48605541800165
 20
-54.82315514209887
 10
247.4875
 20
-54.79375
 10
247.4875
 20
-41.39375
 10
247.48605541800165
 20
-41.36434485790113
 10
247.48173558412097
 20
-41.335222903395156
 10
247.47458210071966
 20
-41.30666459682366
 10
247.4646638597534
 20
-41.27894497029047
 10
247.45207637930451
 20
-41.252330978952195
 10
247.43694088369077
 20
-41.227078930094116
 10
247.4194031360088
 20
-41.2034320147509
 10
247.39963203435596
 20
-41.18161796564403
 10
247.3778179852491
 20
-41.16184686399117
 10
247.35417106990587
 20
-41.14430911630923
 10
247.3289190210478
 20
-41.12917362069549
 10
247.30230502970952
 20
-41.11658614024661
 10
247.27458540317633
 20
-41.10666789928033
 10
247.24602709660485
 20
-41.09951441587903
 10
247.21690514209888
 20
-41.095194581998335
 10
247.1875
 20
-41.09375
  0
LWPOLYLINE
  5
94
330
17
100
AcDbEntity
  8
SWITCHES
100
AcDbPolyline
 90
69
 70
1
 10
247.1875
 20
-60.14375
 10
233.78750000000002
 20
-60.14375
 10
233.75809485790114
 20
-60.14519458199833
 10
233.72897290339517
 20
-60.149514415879025
 10
233.7004145968237
 20
-60.15666789928033
 10
233.6726949702905
 20
-60.16658614024661
 10
233.64608097895223
 20
-60.17917362069549
 10
233.62082893009415
 20
-60.19430911630923
 10
233.59718201475093
 20
-60.21184686399117
 10
233.57536796564406
 20
-60.23161796564403
 10
233.5555968639912
 20
-60.2534320147509
 10
233.53805911630926
 20
-60.27707893009411
 10
233.5229236206955
 20
-60.30233097895219
 10
233.51033614024664
 20
-60.328944970290465
 10
233.50041789928036
 20
-60.356664596823656
 10
233.49326441587905
 20
-60.38522290339515
 10
233.48894458199837
 20
-60.41434485790113
 10
233.4875
 20
-60.443749999999994
 10
233.4875
 20
-73.84375
 10
233.48894458199837
 20
-73.87315514209887
 10
233.49326441587905
 20
-73.90227709660483
 10
233.50041789928036
 20
-73.93083540317635
 10
233.51033614024664
 20
-73.95855502970953
 10
233.5229236206955
 20
-73.9851690210478
 10
233.53805911630926
 20
-74.01042106990587
 10
233.5555968639912
 20
-74.0340679852491
 10
233.57536796564406
 20
-74.05588203435596
 10
233.59718201475093
 20
-74.07565313600882
 10
233.62082893009415
 20
-74.09319088369077
 10
233.64608097895223
 20
-74.1083263793045
 10
233.6726949702905
 20
-74.12091385975339
 10
233.7004145968237
 20
-74.13083210071966
 10
233.72897290339517
 20
-74.13798558412097
 10
233.75809485790114
 20
-74.14230541800165
 10
233.78750000000002
 20
-74.14375
 10
247.1875
 20
-74.14375
 10
247.21690514209888
 20
-74.14230541800165
 10
247.24602709660485
 20
-74.13798558412097
 10
247.27458540317633
 20
-74.13083210071966
 10
247.30230502970952
 20
-74.12091385975339
 10
247.3289190210478
 20
-74.1083263793045
 10
247.35417106990587
 20
-74.09319088369077
 10
247.3778179852491
 20
-74.07565313600882
 10
247.39963203435596
 20
-74.05588203435596
 10
247.4194031360088
 20
-74.0340679852491
 10
247.43694088369077
 20
-74.01042106990587
 10
247.45207637930451
 20
-73.9851690210478
 10
247.4646638597534
 20
-73.95855502970953
 10
247.47458210071966
 20
-73.93083540317635
 10
247.48173558412097
 20
-73.90227709660483
 10
247.48605541800165
 20
-73.87315514209887
 10
247.4875
 20
-73.84375
 10
247.4875
 20
-60.443749999999994
 10
247.48605541800165
 20
-60.41434485790113
 10
247.48173558412097
 20
-60.38522290339515
 10
247.47458210071966
 20
-60.356664596823656
 10
247.4646638597534
 20
-60.328944970290465
 10
247.45207637930451
 20
-60.30233097895219
 10
247.43694088369077
 20
-60.27707893009411
 10
247.4194031360088
 20
-60.2534320147509
 10
247.39963203435596
 20
-60.23161796564403
 10
247.3778179852491
 20
-60.21184686399117
 10
247.35417106990587
 20
-60.19430911630923
 10
247.3289190210478
 20
-60.17917362069549
 10
247.30230502970952
 20
-60.16658614024661
 10
247.27458540317633
 20
-60.15666789928033
 10
247.24602709660485
 20
-60.149514415879025
 10
247.21690514209888
 20
-60.14519458199833
 10
247.1875
 20
-60.14375
  0
LWPOLYLINE
  5
95
330
17
100
AcDbEntity
  8
SWITCHES
100
AcDbPolyline
 90
69
 70
1
 10
247.1875
 20
-79.19375
 10
233.78750000000002
 20
-79.19375
 10
233.75809485790114
 20
-79.19519458199834
 10
233.72897290339517
 20
-79.19951441587902
 10
233.7004145968237
 20
-79.20666789928033
 10
233.6726949702905
 20
-79.2165861402466
 10
233.64608097895223
 20
-79.22917362069549
 10
233.62082893009415
 20
-79.24430911630922
 10
233.59718201475093
 20
-79.26184686399117
 10
233.57536796564406
 20
-79.28161796564403
 10
233.5555968639912
 20
-79.3034320147509
 10
233.53805911630926
 20
-79.32707893009412
 10
233.5229236206955
 20
-79.3523309789522
 10
233.51033614024664
 20
-79.37894497029046
 10
233.50041789928036
 20
-79.40666459682365
 10
233.49326441587905
 20
-79.43522290339516
 10
233.48894458199837
 20
-79.46434485790112
 10
233.4875
 20
-79.49374999999999
 10
233.4875
 20
-92.89375
 10
233.48894458199837
 20
-92.92315514209886
 10
233.49326441587905
 20
-92.95227709660483
 10
233.50041789928036
 20
-92.98083540317634
 10
233.51033614024664
 20
-93.00855502970953
 10
233.5229236206955
 20
-93.03516902104779
 10
233.53805911630926
 20
-93.06042106990587
 10
233.5555968639912
 20
-93.08406798524909
 10
233.57536796564406
 20
-93.10588203435596
 10
233.59718201475093
 20
-93.12565313600882
 10
233.62082893009415
 20
-93.14319088369076
 10
233.64608097895223
 20
-93.1583263793045
 10
233.6726949702905
 20
-93.17091385975338
 10
233.7004145968237
 20
-93.18083210071966
 10
233.72897290339517
 20
-93.18798558412097
 10
233.75809485790114
 20
-93.19230541800165
 10
233.78750000000002
 20
-93.19375
 10
247.1875
 20
-93.19375
 10
247.21690514209888
 20
-93.19230541800165
 10
247.24602709660485
 20
-93.18798558412097
 10
247.27458540317633
 20
-93.18083210071966
 10
247.30230502970952
 20
-93.17091385975338
 10
247.3289190210478
 20
-93.1583263793045
 10
247.35417106990587
 20
-93.14319088369076
 10
247.3778179852491
 20
-93.12565313600882
 10
247.39963203435596
 20
-93.10588203435596
 10
247.4194031360088
 20
-93.08406798524909
 10
247.43694088369077
 20
-93.06042106990587
 10
247.45207637930451
 20
-93.03516902104779
 10
247.4646638597534
 20
-93.00855502970953
 10
247.47458210071966
 20
-92.98083540317634
 10
247.48173558412097
 20
-92.95227709660483
 10
247.48605541800165
 20
-92.92315514209886
 10
247.4875
 20
-92.89375
 10
247.4875
 20
-79.49374999999999
 10
247.48605541800165
 20
-79.46434485790112
 10
247.48173558412097
 20
-79.43522290339516
 10
247.47458210071966
 20
-79.40666459682365
 10
247.4646638597534
 20
-79.37894497029046
 10
247.45207637930451
 20
-79.3523309789522
 10
247.43694088369077
 20
-79.32707893009412
 10
247.4194031360088
 20
-79.3034320147509
 10
247.39963203435596
 20
-79.28161796564403
 10
247.3778179852491
 20
-79.26184686399117
 10
247.35417106990587
 20
-79.24430911630922
 10
247.3289190210478
 20
-79.22917362069549
 10
247.30230502970952
 20
-79.2165861402466
 10
247.27458540317633
 20
-79.20666789928033
 10
247.24602709660485
 20
-79.19951441587902
 10
247.21690514209888
 20
-79.19519458199834
 10
247.1875
 20
-79.19375
  0
LWPOLYLINE
  5
96
330
17
100
AcDbEntity
  8
SWITCHES
100
AcDbPolyline
 90
69
 70
1
 10
228.1375
 20
-38.7125
 10
214.7375
 20
-38.7125
 10
214.70809485790113
 20
-38.713944581998334
 10
214.67897290339516
 20
-38.71826441587903
 10
214.65041459682368
 20
-38.72541789928033
 10
214.6226949702905
 20
-38.73533614024661
 10
214.59608097895222
 20
-38.74792362069549
 10
214.57082893009414
 20
-38.76305911630923
 10
214.54718201475092
 20
-38.78059686399117
 10
214.52536796564405
 20
-38.80036796564403
 10
214.5055968639912
 20
-38.8221820147509
 10
214.48805911630924
 20
-38.845828930094115
 10
214.4729236206955
 20
-38.87108097895219
 10
214.46033614024662
 20
-38.897694970290466
 10
214.45041789928035
 20
-38.92541459682366
 10
214.44326441587904
 20
-38.953972903395155
 10
214.43894458199836
 20
-38.98309485790113
 10
214.4375
 20
-39.012499999999996
 10
214.4375
 20
-52.4125
 10
214.43894458199836
 20
-52.44190514209887
 10
214.44326441587904
 20
-52.47102709660484
 10
214.45041789928035
 20
-52.49958540317634
 10
214.46033614024662
 20
-52.52730502970953
 10
214.4729236206955
 20
-52.553919021047804
 10
214.48805911630924
 20
-52.57917106990588
 10
214.5055968639912
 20
-52.6028179852491
 10
214.52536796564405
 20
-52.62463203435597
 10
214.54718201475092
 20
-52.644403136008826
 10
214.57082893009414
 20
-52.66194088369077
 10
214.59608097895222
 20
-52.67707637930451
 10
214.6226949702905
 20
-52.68966385975339
 10
214.65041459682368
 20
-52.69958210071967
 10
214.67897290339516
 20
-52.70673558412097
 10
214.70809485790113
 20
-52.71105541800166
 10
214.7375
 20
-52.7125
 10
228.1375
 20
-52.7125
 10
228.16690514209887
 20
-52.71105541800166
 10
228.19602709660484
 20
-52.70673558412097
 10
228.22458540317632
 20
-52.69958210071967
 10
228.2523050297095
 20
-52.68966385975339
 10
228.27891902104778
 20
-52.67707637930451
 10
228.30417106990586
 20
-52.66194088369077
 10
228.32781798524908
 20
-52.644403136008826
 10
228.34963203435595
 20
-52.62463203435597
 10
228.3694031360088
 20
-52.6028179852491
 10
228.38694088369076
 20
-52.57917106990588
 10
228.4020763793045
 20
-52.553919021047804
 10
228.41466385975338
 20
-52.52730502970953
 10
228.42458210071965
 20
-52.49958540317634
 10
228.43173558412096
 20
-52.47102709660484
 10
228.43605541800164
 20
-52.44190514209887
 10
228.4375
 20
-52.4125
 10
228.4375
 20
-39.012499999999996
 10
228.43605541800164
 20
-38.98309485790113
 10
228.43173558412096
 20
-38.953972903395155
 10
228.42458210071965
 20
-38.92541459682366
 10
228.41466385975338
 20
-38.897694970290466
 10
228.4020763793045
 20
-38.87108097895219
 10
228.38694088369076
 20
-38.845828930094115
 10
228.3694031360088
 20
-38.8221820147509
 10
228.34963203435595
 20
-38.80036796564403
 10
228.32781798524908
 20
-38.78059686399117
 10
228.30417106990586
 20
-38.76305911630923
 10
228.27891902104778
 20
-38.74792362069549
 10
228.2523050297095
 20
-38.73533614024661
 10
228.22458540317632
 20
-38.72541789928033
 10
228.19602709660484
 20
-38.71826441587903
 10
228.16690514209887
 20
-38.713944581998334
 10
228.1375
 20
-38.7125
  0
LWPOLYLINE
  5
97
330
17
100
AcDbEntity
  8
SWITCHES
100
AcDbPolyline
 90
69
 70
1
 10
228.1375
 20
-57.7625
 10
214.7375
 20
-57.7625
 10
214.70809485790113
 20
-57.76394458199834
 10
214.67897290339516
 20
-57.76826441587903
 10
214.65041459682368
 20
-57.775417899280335
 10
214.6226949702905
 20
-57.78533614024661
 10
214.59608097895222
 20
-57.79792362069549
 10
214.57082893009414
 20
-57.81305911630923
 10
214.54718201475092
 20
-57.830596863991175
 10
214.52536796564405
 20
-57.85036796564403
 10
214.5055968639912
 20
-57.872182014750905
 10
214.48805911630924
 20
-57.89582893009412
 10
214.4729236206955
 20
-57.9210809789522
 10
214.46033614024662
 20
-57.94769497029047
 10
214.45041789928035
 20
-57.97541459682366
 10
214.44326441587904
 20
-58.00397290339516
 10
214.43894458199836
 20
-58.03309485790113
 10
214.4375
 20
-58.0625
 10
214.4375
 20
-71.4625
 10
214.43894458199836
 20
-71.49190514209887
 10
214.44326441587904
 20
-71.52102709660484
 10
214.45041789928035
 20
-71.54958540317635
 10
214.46033614024662
 20
-71.57730502970954
 10
214.4729236206955
 20
-71.6039190210478
 10
214.48805911630924
 20
-71.62917106990588
 10
214.5055968639912
 20
-71.6528179852491
 10
214.52536796564405
 20
-71.67463203435597
 10
214.54718201475092
 20
-71.69440313600883
 10
214.57082893009414
 20
-71.71194088369077
 10
214.59608097895222
 20
-71.7270763793045
 10
214.6226949702905
 20
-71.73966385975339
 10
214.65041459682368
 20
-71.74958210071966
 10
214.67897290339516
 20
-71.75673558412097
 10
214.70809485790113
 20
-71.76105541800166
 10
214.7375
 20
-71.7625
 10
228.1375
 20
-71.7625
 10
228.16690514209887
 20
-71.76105541800166
 10
228.19602709660484
 20
-71.75673558412097
 10
228.22458540317632
 20
-71.74958210071966
 10
228.2523050297095
 20
-71.73966385975339
 10
228.27891902104778
 20
-71.7270763793045
 10
228.30417106990586
 20
-71.71194088369077
 10
228.32781798524908
 20
-71.69440313600883
 10
228.34963203435595
 20
-71.67463203435597
 10
228.3694031360088
 20
-71.6528179852491
 10
228.38694088369076
 20
-71.62917106990588
 10
228.4020763793045
 20
-71.6039190210478
 10
228.41466385975338
 20
-71.57730502970954
 10
228.42458210071965
 20
-71.54958540317635
 10
228.43173558412096
 20
-71.52102709660484
 10
228.43605541800164
 20
-71.49190514209887
 10
228.4375
 20
-71.4625
 10
228.4375
 20
-58.0625
 10
228.43605541800164
 20
-58.03309485790113
 10
228.43173558412096
 20
-58.00397290339516
 10
228.42458210071965
 20
-57.97541459682366
 10
228.41466385975338
 20
-57.94769497029047
 10
228.4020763793045
 20
-57.9210809789522
 10
228.38694088369076
 20
-57.89582893009412
 10
228.3694031360088
 20
-57.872182014750905
 10
228.34963203435595
 20
-57.85036796564403
 10
228.32781798524908
 20
-57.830596863991175
 10
228.30417106990586
 20
-57.81305911630923
 10
228.27891902104778
 20
-57.79792362069549
 10
228.2523050297095
 20
-57.78533614024661
 10
228.22458540317632
 20
-57.775417899280335
 10
228.19602709660484
 20
-57.76826441587903
 10
228.16690514209887
 20
-57.76394458199834
 10
228.1375
 20
-57.7625
  0
LWPOLYLINE
  5
98
330
17
100
AcDbEntity
  8
SWITCHES
100
AcDbPolyline
 90
69
 70
1
 10
228.1375
 20
-76.8125
 10
214.7375
 20
-76.8125
 10
214.70809485790113
 20
-76.81394458199834
 10
214.67897290339516
 20
-76.81826441587903
 10
214.65041459682368
 20
-76.82541789928034
 10
214.6226949702905
 20
-76.83533614024661
 10
214.59608097895222
 20
-76.8479236206955
 10
214.57082893009414
 20
-76.86305911630923
 10
214.54718201475092
 20
-76.88059686399117
 10
214.52536796564405
 20
-76.90036796564404
 10
214.5055968639912
 20
-76.9221820147509
 10
214.48805911630924
 20
-76.94582893009412
 10
214.4729236206955
 20
-76.9710809789522
 10
214.46033614024662
 20
-76.99769497029047
 10
214.45041789928035
 20
-77.02541459682365
 10
214.44326441587904
 20
-77.05397290339516
 10
214.43894458199836
 20
-77.08309485790113
 10
214.4375
 20
-77.1125
 10
214.4375
 20
-90.5125
 10
214.43894458199836
 20
-90.54190514209887
 10
214.44326441587904
 20
-90.57102709660484
 10
214.45041789928035
 20
-90.59958540317635
 10
214.46033614024662
 20
-90.62730502970953
 10
214.4729236206955
 20
-90.6539190210478
 10
214.48805911630924
 20
-90.67917106990588
 10
214.5055968639912
 20
-90.7028179852491
 10
214.52536796564405
 20
-90.72463203435596
 10
214.54718201475092
 20
-90.74440313600883
 10
214.57082893009414
 20
-90.76194088369077
 10
214.59608097895222
 20
-90.7770763793045
 10
214.6226949702905
 20
-90.78966385975339
 10
214.65041459682368
 20
-90.79958210071966
 10
214.67897290339516
 20
-90.80673558412097
 10
214.70809485790113
 20
-90.81105541800166
 10
214.7375
 20
-90.8125
 10
228.1375
 20
-90.8125
 10
228.16690514209887
 20
-90.81105541800166
 10
228.19602709660484
 20
-90.80673558412097
 10
228.22458540317632
 20
-90.79958210071966
 10
228.2523050297095
 20
-90.78966385975339
 10
228.27891902104778
 20
-90.7770763793045
 10
228.30417106990586
 20
-90.76194088369077
 10
228.32781798524908
 20
-90.74440313600883
 10
228.34963203435595
 20
-90.72463203435596
 10
228.3694031360088
 20
-90.7028179852491
 10
228.38694088369076
 20
-90.67917106990588
 10
228.4020763793045
 20
-90.6539190210478
 10
228.41466385975338
 20
-90.62730502970953
 10
228.42458210071965
 20
-90.59958540317635
 10
228.43173558412096
 20
-90.57102709660484
 10
228.43605541800164
 20
-90.54190514209887
 10
228.4375
 20
-90.5125
 10
228.4375
 20
-77.1125
 10
228.43605541800164
 20
-77.08309485790113
 10
228.43173558412096
 20
-77.05397290339516
 10
228.42458210071965
 20
-77.02541459682365
 10
228.41466385975338
 20
-76.99769497029047
 10
228.4020763793045
 20
-76.9710809789522
 10
228.38694088369076
 20
-76.94582893009412
 10
228.3694031360088
 20
-76.9221820147509
 10
228.34963203435595
 20
-76.90036796564404
 10
228.32781798524908
 20
-76.88059686399117
 10
228.30417106990586
 20
-76.86305911630923
 10
228.27891902104778
 20
-76.8479236206955
 10
228.2523050297095
 20
-76.83533614024661
 10
228.22458540317632
 20
-76.82541789928034
 10
228.19602709660484
 20
-76.81826441587903
 10
228.16690514209887
 20
-76.81394458199834
 10
228.1375
 20
-76.8125
  0
LWPOLYLINE
  5
99
330
17
100
AcDbEntity
  8
SWITCHES
100
AcDbPolyline
 90
69
 70
1
 10
209.08749999999998
 20
-41.09375
 10
195.6875
 20
-41.09375
 10
195.65809485790112
 20
-41.095194581998335
 10
195.62897290339515
 20
-41.09951441587903
 10
195.60041459682367
 20
-41.10666789928033
 10
195.57269497029048
 20
-41.11658614024661
 10
195.5460809789522
 20
-41.12917362069549
 10
195.52082893009413
 20
-41.14430911630923
 10
195.4971820147509
 20
-41.16184686399117
 10
195.47536796564404
 20
-41.18161796564403
 10
195.4555968639912
 20
-41.2034320147509
 10
195.43805911630923
 20
-41.227078930094116
 10
195.42292362069549
 20
-41.252330978952195
 10
195.4103361402466
 20
-41.27894497029047
 10
195.40041789928034
 20
-41.30666459682366
 10
195.39326441587903
 20
-41.335222903395156
 10
195.38894458199835
 20
-41.36434485790113
 10
195.3875
 20
-41.39375
 10
195.3875
 20
-54.79375
 10
195.38894458199835
 20
-54.82315514209887
 10
195.39326441587903
 20
-54.852277096604844
 10
195.40041789928034
 20
-54.88083540317634
 10
195.4103361402466
 20
-54.90855502970953
 10
195.42292362069549
 20
-54.935169021047805
 10
195.43805911630923
 20
-54.960421069905884
 10
195.4555968639912
 20
-54.9840679852491
 10
195.47536796564404
 20
-55.00588203435597
 10
195.4971820147509
 20
-55.02565313600883
 10
195.52082893009413
 20
-55.04319088369077
 10
195.5460809789522
 20
-55.05832637930451
 10
195.57269497029048
 20
-55.07091385975339
 10
195.60041459682367
 20
-55.08083210071967
 10
195.62897290339515
 20
-55.08798558412097
 10
195.65809485790112
 20
-55.092305418001665
 10
195.6875
 20
-55.09375
 10
209.08749999999998
 20
-55.09375
 10
209.11690514209886
 20
-55.092305418001665
 10
209.14602709660483
 20
-55.08798558412097
 10
209.1745854031763
 20
-55.08083210071967
 10
209.2023050297095
 20
-55.07091385975339
 10
209.22891902104777
 20
-55.05832637930451
 10
209.25417106990585
 20
-55.04319088369077
 10
209.27781798524907
 20
-55.02565313600883
 10
209.29963203435594
 20
-55.00588203435597
 10
209.3194031360088
 20
-54.9840679852491
 10
209.33694088369074
 20
-54.960421069905884
 10
209.3520763793045
 20
-54.935169021047805
 10
209.36466385975336
 20
-54.90855502970953
 10
209.37458210071964
 20
-54.88083540317634
 10
209.38173558412095
 20
-54.852277096604844
 10
209.38605541800163
 20
-54.82315514209887
 10
209.3875
 20
-54.79375
 10
209.3875
 20
-41.39375
 10
209.38605541800163
 20
-41.36434485790113
 10
209.38173558412095
 20
-41.335222903395156
 10
209.37458210071964
 20
-41.30666459682366
 10
209.36466385975336
 20
-41.27894497029047
 10
209.3520763793045
 20
-41.252330978952195
 10
209.33694088369074
 20
-41.227078930094116
 10
209.3194031360088
 20
-41.2034320147509
 10
209.29963203435594
 20
-41.18161796564403
 10
209.27781798524907
 20
-41.16184686399117
 10
209.25417106990585
 20
-41.14430911630923
 10
209.22891902104777
 20
-41.12917362069549
 10
209.2023050297095
 20
-41.11658614024661
 10
209.1745854031763
 20
-41.10666789928033
 10
209.14602709660483
 20
-41.09951441587903
 10
209.11690514209886
 20
-41.095194581998335
 10
209.08749999999998
 20
-41.09375
  0
LWPOLYLINE
  5
9A
330
17
100
AcDbEntity
  8
SWITCHES
100
AcDbPolyline
 90
69
 70
1
 10
209.08749999999998
 20
-60.14375
 10
195.6875
 20
-60.14375
 10
195.65809485790112
 20
-60.14519458199833
 10
195.62897290339515
 20
-60.149514415879025
 10
195.60041459682367
 20
-60.15666789928033
 10
195.57269497029048
 20
-60.16658614024661
 10
195.5460809789522
 20
-60.17917362069549
 10
195.52082893009413
 20
-60.19430911630923
 10
195.4971820147509
 20
-60.21184686399117
 10
195.47536796564404
 20
-60.23161796564403
 10
195.4555968639912
 20
-60.2534320147509
 10
195.43805911630923
 20
-60.27707893009411
 10
195.42292362069549
 20
-60.30233097895219
 10
195.4103361402466
 20
-60.328944970290465
 10
195.40041789928034
 20
-60.356664596823656
 10
195.39326441587903
 20
-60.38522290339515
 10
195.38894458199835
 20
-60.41434485790113
 10
195.3875
 20
-60.443749999999994
 10
195.3875
 20
-73.84375
 10
195.38894458199835
 20
-73.87315514209887
 10
195.39326441587903
 20
-73.90227709660483
 10
195.40041789928034
 20
-73.93083540317635
 10
195.4103361402466
 20
-73.95855502970953
 10
195.42292362069549
 20
-73.9851690210478
 10
195.43805911630923
 20
-74.01042106990587
 10
195.4555968639912
 20
-74.0340679852491
 10
195.47536796564404
 20
-74.05588203435596
 10
195.4971820147509
 20
-74.07565313600882
 10
195.52082893009413
 20
-74.09319088369077
 10
195.5460809789522
 20
-74.1083263793045
 10
195.57269497029048
 20
-74.12091385975339
 10
195.60041459682367
 20
-74.13083210071966
 10
195.62897290339515
 20
-74.13798558412097
 10
195.65809485790112
 20
-74.14230541800165
 10
195.6875
 20
-74.14375
 10
209.08749999999998
 20
-74.14375
 10
209.11690514209886
 20
-74.14230541800165
 10
209.14602709660483
 20
-74.13798558412097
 10
209.1745854031763
 20
-74.13083210071966
 10
209.2023050297095
 20
-74.12091385975339
 10
209.22891902104777
 20
-74.1083263793045
 10
209.25417106990585
 20
-74.09319088369077
 10
209.27781798524907
 20
-74.07565313600882
 10
209.29963203435594
 20
-74.05588203435596
 10
209.3194031360088
 20
-74.0340679852491
 10
209.33694088369074
 20
-74.01042106990587
 10
209.3520763793045
 20
-73.9851690210478
 10
209.36466385975336
 20
-73.95855502970953
 10
209.37458210071964
 20
-73.93083540317635
 10
209.38173558412095
 20
-73.90227709660483
 10
209.38605541800163
 20
-73.87315514209887
 10
209.3875
 20
-73.84375
 10
209.3875
 20
-60.443749999999994
 10
209.38605541800163
 20
-60.41434485790113
 10
209.38173558412095
 20
-60.38522290339515
 10
209.37458210071964
 20
-60.356664596823656
 10
209.36466385975336
 20
-60.328944970290465
 10
209.3520763793045
 20
-60.30233097895219
 10
209.33694088369074
 20
-60.27707893009411
 10
209.3194031360088
 20
-60.2534320147509
 10
209.29963203435594
 20
-60.23161796564403
 10
209.27781798524907
 20
-60.21184686399117
 10
209.25417106990585
 20
-60.19430911630923
 10
209.22891902104777
 20
-60.17917362069549
 10
209.2023050297095
 20
-60.16658614024661
 10
209.1745854031763
 20
-60.15666789928033
 10
209.14602709660483
 20
-60.149514415879025
 10
209.11690514209886
 20
-60.14519458199833
 10
209.08749999999998
 20
-60.14375
  0
LWPOLYLINE
  5
9B
330
17
100
AcDbEntity
  8
SWITCHES
100
AcDbPolyline
 90
69
 70
1
 10
209.08749999999998
 20
-79.19375
 10
195.6875
 20
-79.19375
 10
195.65809485790112
 20
-79.19519458199834
 10
195.62897290339515
 20
-79.19951441587902
 10
195.60041459682367
 20
-79.20666789928033
 10
195.57269497029048
 20
-79.2165861402466
 10
195.5460809789522
 20
-79.22917362069549
 10
195.52082893009413
 20
-79.24430911630922
 10
195.4971820147509
 20
-79.26184686399117
 10
195.47536796564404
 20
-79.28161796564403
 10
195.4555968639912
 20
-79.3034320147509
 10
195.43805911630923
 20
-79.32707893009412
 10
195.42292362069549
 20
-79.3523309789522
 10
195.4103361402466
 20
-79.37894497029046
 10
195.40041789928034
 20
-79.40666459682365
 10
195.39326441587903
 20
-79.43522290339516
 10
195.38894458199835
 20
-79.46434485790112
 10
195.3875
 20
-79.49374999999999
 10
195.3875
 20
-92.89375
 10
195.38894458199835
 20
-92.92315514209886
 10
195.39326441587903
 20
-92.95227709660483
 10
195.40041789928034
 20
-92.98083540317634
 10
195.4103361402466
 20
-93.00855502970953
 10
195.42292362069549
 20
-93.03516902104779
 10
195.43805911630923
 20
-93.06042106990587
 10
195.4555968639912
 20
-93.08406798524909
 10
195.47536796564404
 20
-93.10588203435596
 10
195.4971820147509
 20
-93.12565313600882
 10
195.52082893009413
 20
-93.14319088369076
 10
195.5460809789522
 20
-93.1583263793045
 10
195.57269497029048
 20
-93.17091385975338
 10
195.60041459682367
 20
-93.18083210071966
 10
195.62897290339515
 20
-93.18798558412097
 10
195.65809485790112
 20
-93.19230541800165
 10
195.6875
 20
-93.19375
 10
209.08749999999998
 20
-93.19375
 10
209.11690514209886
 20
-93.19230541800165
 10
209.14602709660483
 20
-93.18798558412097
 10
209.1745854031763
 20
-93.18083210071966
 10
209.2023050297095
 20
-93.17091385975338
 10
209.22891902104777
 20
-93.1583263793045
 10
209.25417106990585
 20
-93.14319088369076
 10
209.27781798524907
 20
-93.12565313600882
 10
209.29963203435594
 20
-93.10588203435596
 10
209.3194031360088
 20
-93.08406798524909
 10
209.33694088369074
 20
-93.06042106990587
 10
209.3520763793045
 20
-93.03516902104779
 10
209.36466385975336
 20
-93.00855502970953
 10
209.37458210071964
 20
-92.98083540317634
 10
209.38173558412095
 20
-92.95227709660483
 10
209.38605541800163
 20
-92.92315514209886
 10
209.3875
 20
-92.89375
 10
209.3875
 20
-79.49374999999999
 10
209.38605541800163
 20
-79.46434485790112
 10
209.38173558412095
 20
-79.43522290339516
 10
209.37458210071964
 20
-79.40666459682365
 10
209.36466385975336
 20
-79.37894497029046
 10
209.3520763793045
 20
-79.3523309789522
 10
209.33694088369074
 20
-79.32707893009412
 10
209.3194031360088
 20
-79.3034320147509
 10
209.29963203435594
 20
-79.28161796564403
 10
209.27781798524907
 20
-79.26184686399117
 10
209.25417106990585
 20
-79.24430911630922
 10
209.22891902104777
 20
-79.22917362069549
 10
209.2023050297095
 20
-79.2165861402466
 10
209.1745854031763
 20
-79.20666789928033
 10
209.14602709660483
 20
-79.19951441587902
 10
209.11690514209886
 20
-79.19519458199834
 10
209.08749999999998
 20
-79.19375
  0
LWPOLYLINE
  5
9C
330
17
100
AcDbEntity
  8
SWITCHES
100
AcDbPolyline
 90
69
 70
1
 10
190.0375
 20
-43.475
 10
176.63750000000002
 20
-43.475
 10
176.60809485790114
 20
-43.47644458199834
 10
176.57897290339517
 20
-43.48076441587903
 10
176.55041459682369
 20
-43.48791789928033
 10
176.5226949702905
 20
-43.49783614024661
 10
176.49608097895222
 20
-43.51042362069549
 10
176.47082893009414
 20
-43.52555911630923
 10
176.44718201475092
 20
-43.543096863991174
 10
176.42536796564406
 20
-43.56286796564403
 10
176.4055968639912
 20
-43.5846820147509
 10
176.38805911630925
 20
-43.60832893009412
 10
176.3729236206955
 20
-43.633580978952196
 10
176.36033614024663
 20
-43.66019497029047
 10
176.35041789928036
 20
-43.68791459682366
 10
176.34326441587905
 20
-43.71647290339516
 10
176.33894458199836
 20
-43.74559485790113
 10
176.3375
 20
-43.775
 10
176.3375
 20
-57.175000000000004
 10
176.33894458199836
 20
-57.20440514209887
 10
176.34326441587905
 20
-57.233527096604845
 10
176.35041789928036
 20
-57.26208540317634
 10
176.36033614024663
 20
-57.289805029709534
 10
176.3729236206955
 20
-57.31641902104781
 10
176.38805911630925
 20
-57.341671069905885
 10
176.4055968639912
 20
-57.3653179852491
 10
176.42536796564406
 20
-57.38713203435597
 10
176.44718201475092
 20
-57.40690313600883
 10
176.47082893009414
 20
-57.42444088369077
 10
176.49608097895222
 20
-57.43957637930451
 10
176.5226949702905
 20
-57.45216385975339
 10
176.55041459682369
 20
-57.46208210071967
 10
176.57897290339517
 20
-57.46923558412097
 10
176.60809485790114
 20
-57.473555418001666
 10
176.63750000000002
 20
-57.475
 10
190.0375
 20
-57.475
 10
190.06690514209888
 20
-57.473555418001666
 10
190.09602709660484
 20
-57.46923558412097
 10
190.12458540317633
 20
-57.46208210071967
 10
190.1523050297095
 20
-57.45216385975339
 10
190.1789190210478
 20
-57.43957637930451
 10
190.20417106990587
 20
-57.42444088369077
 10
190.2278179852491
 20
-57.40690313600883
 10
190.24963203435595
 20
-57.38713203435597
 10
190.2694031360088
 20
-57.3653179852491
 10
190.28694088369076
 20
-57.341671069905885
 10
190.3020763793045
 20
-57.31641902104781
 10
190.31466385975338
 20
-57.289805029709534
 10
190.32458210071965
 20
-57.26208540317634
 10
190.33173558412096
 20
-57.233527096604845
 10
190.33605541800165
 20
-57.20440514209887
 10
190.3375
 20
-57.175000000000004
 10
190.3375
 20
-43.775
 10
190.33605541800165
 20
-43.74559485790113
 10
190.33173558412096
 20
-43.71647290339516
 10
190.32458210071965
 20
-43.68791459682366
 10
190.31466385975338
 20
-43.66019497029047
 10
190.3020763793045
 20
-43.633580978952196
 10
190.28694088369076
 20
-43.60832893009412
 10
190.2694031360088
 20
-43.5846820147509
 10
190.24963203435595
 20
-43.56286796564403
 10
190.2278179852491
 20
-43.543096863991174
 10
190.20417106990587
 20
-43.52555911630923
 10
190.1789190210478
 20
-43.51042362069549
 10
190.1523050297095
 20
-43.49783614024661
 10
190.12458540317633
 20
-43.48791789928033
 10
190.09602709660484
 20
-43.48076441587903
 10
190.06690514209888
 20
-43.47644458199834
 10
190.0375
 20
-43.475
  0
LWPOLYLINE
  5
9D
330
17
100
AcDbEntity
  8
SWITCHES
100
AcDbPolyline
 90
69
 70
1
 10
190.0375
 20
-62.525000000000006
 10
176.63750000000002
 20
-62.525000000000006
 10
176.60809485790114
 20
-62.52644458199834
 10
176.57897290339517
 20
-62.530764415879034
 10
176.55041459682369
 20
-62.53791789928034
 10
176.5226949702905
 20
-62.547836140246616
 10
176.49608097895222
 20
-62.560423620695495
 10
176.47082893009414
 20
-62.575559116309236
 10
176.44718201475092
 20
-62.59309686399118
 10
176.42536796564406
 20
-62.612867965644035
 10
176.4055968639912
 20
-62.63468201475091
 10
176.38805911630925
 20
-62.65832893009412
 10
176.3729236206955
 20
-62.6835809789522
 10
176.36033614024663
 20
-62.71019497029047
 10
176.35041789928036
 20
-62.737914596823664
 10
176.34326441587905
 20
-62.76647290339516
 10
176.33894458199836
 20
-62.795594857901136
 10
176.3375
 20
-62.825
 10
176.3375
 20
-76.22500000000001
 10
176.33894458199836
 20
-76.25440514209888
 10
176.34326441587905
 20
-76.28352709660484
 10
176.35041789928036
 20
-76.31208540317635
 10
176.36033614024663
 20
-76.33980502970954
 10
176.3729236206955
 20
-76.3664190210478
 10
176.38805911630925
 20
-76.39167106990588
 10
176.4055968639912
 20
-76.4153179852491
 10
176.42536796564406
 20
-76.43713203435597
 10
176.44718201475092
 20
-76.45690313600883
 10
176.47082893009414
 20
-76.47444088369078
 10
176.49608097895222
 20
-76.48957637930451
 10
176.5226949702905
 20
-76.5021638597534
 10
176.55041459682369
 20
-76.51208210071967
 10
176.57897290339517
 20
-76.51923558412098
 10
176.60809485790114
 20
-76.52355541800166
 10
176.63750000000002
 20
-76.525
 10
190.0375
 20
-76.525
 10
190.06690514209888
 20
-76.52355541800166
 10
190.09602709660484
 20
-76.51923558412098
 10
190.12458540317633
 20
-76.51208210071967
 10
190.1523050297095
 20
-76.5021638597534
 10
190.1789190210478
 20
-76.48957637930451
 10
190.20417106990587
 20
-76.47444088369078
 10
190.2278179852491
 20
-76.45690313600883
 10
190.24963203435595
 20
-76.43713203435597
 10
190.2694031360088
 20
-76.4153179852491
 10
190.28694088369076
 20
-76.39167106990588
 10
190.3020763793045
 20
-76.3664190210478
 10
190.31466385975338
 20
-76.33980502970954
 10
190.32458210071965
 20
-76.31208540317635
 10
190.33173558412096
 20
-76.28352709660484
 10
190.33605541800165
 20
-76.25440514209888
 10
190.3375
 20
-76.22500000000001
 10
190.3375
 20
-62.825
 10
190.33605541800165
 20
-62.795594857901136
 10
190.33173558412096
 20
-62.76647290339516
 10
190.32458210071965
 20
-62.737914596823664
 10
190.31466385975338
 20
-62.71019497029047
 10
190.3020763793045
 20
-62.6835809789522
 10
190.28694088369076
 20
-62.65832893009412
 10
190.2694031360088
 20
-62.63468201475091
 10
190.24963203435595
 20
-62.612867965644035
 10
190.2278179852491
 20
-62.59309686399118
 10
190.20417106990587
 20
-62.575559116309236
 10
190.1789190210478
 20
-62.560423620695495
 10
190.1523050297095
 20
-62.547836140246616
 10
190.12458540317633
 20
-62.53791789928034
 10
190.09602709660484
 20
-62.530764415879034
 10
190.06690514209888
 20
-62.52644458199834
 10
190.0375
 20
-62.525000000000006
  0
LWPOLYLINE
  5
9E
330
17
100
AcDbEntity
  8
SWITCHES
100
AcDbPolyline
 90
69
 70
1
 10
190.0375
 20
-81.575
 10
176.63750000000002
 20
-81.575
 10
176.60809485790114
 20
-81.57644458199835
 10
176.57897290339517
 20
-81.58076441587903
 10
176.55041459682369
 20
-81.58791789928034
 10
176.5226949702905
 20
-81.59783614024661
 10
176.49608097895222
 20
-81.6104236206955
 10
176.47082893009414
 20
-81.62555911630923
 10
176.44718201475092
 20
-81.64309686399118
 10
176.42536796564406
 20
-81.66286796564404
 10
176.4055968639912
 20
-81.6846820147509
 10
176.38805911630925
 20
-81.70832893009413
 10
176.3729236206955
 20
-81.7335809789522
 10
176.36033614024663
 20
-81.76019497029047
 10
176.35041789928036
 20
-81.78791459682365
 10
176.34326441587905
 20
-81.81647290339517
 10
176.33894458199836
 20
-81.84559485790113
 10
176.3375
 20
-81.875
 10
176.3375
 20
-95.275
 10
176.33894458199836
 20
-95.30440514209887
 10
176.34326441587905
 20
-95.33352709660484
 10
176.35041789928036
 20
-95.36208540317635
 10
176.36033614024663
 20
-95.38980502970954
 10
176.3729236206955
 20
-95.4164190210478
 10
176.38805911630925
 20
-95.44167106990588
 10
176.4055968639912
 20
-95.4653179852491
 10
176.42536796564406
 20
-95.48713203435597
 10
176.44718201475092
 20
-95.50690313600883
 10
176.47082893009414
 20
-95.52444088369077
 10
176.49608097895222
 20
-95.5395763793045
 10
176.5226949702905
 20
-95.55216385975339
 10
176.55041459682369
 20
-95.56208210071966
 10
176.57897290339517
 20
-95.56923558412097
 10
176.60809485790114
 20
-95.57355541800166
 10
176.63750000000002
 20
-95.575
 10
190.0375
 20
-95.575
 10
190.06690514209888
 20
-95.57355541800166
 10
190.09602709660484
 20
-95.56923558412097
 10
190.12458540317633
 20
-95.56208210071966
 10
190.1523050297095
 20
-95.55216385975339
 10
190.1789190210478
 20
-95.5395763793045
 10
190.20417106990587
 20
-95.52444088369077
 10
190.2278179852491
 20
-95.50690313600883
 10
190.24963203435595
 20
-95.48713203435597
 10
190.2694031360088
 20
-95.4653179852491
 10
190.28694088369076
 20
-95.44167106990588
 10
190.3020763793045
 20
-95.4164190210478
 10
190.31466385975338
 20
-95.38980502970954
 10
190.32458210071965
 20
-95.36208540317635
 10
190.33173558412096
 20
-95.33352709660484
 10
190.33605541800165
 20
-95.30440514209887
 10
190.3375
 20
-95.275
 10
190.3375
 20
-81.875
 10
190.33605541800165
 20
-81.84559485790113
 10
190.33173558412096
 20
-81.81647290339517
 10
190.32458210071965
 20
-81.78791459682365
 10
190.31466385975338
 20
-81.76019497029047
 10
190.3020763793045
 20
-81.7335809789522
 10
190.28694088369076
 20
-81.70832893009413
 10
190.2694031360088
 20
-81.6846820147509
 10
190.24963203435595
 20
-81.66286796564404
 10
190.2278179852491
 20
-81.64309686399118
 10
190.20417106990587
 20
-81.62555911630923
 10
190.1789190210478
 20
-81.6104236206955
 10
190.1523050297095
 20
-81.59783614024661
 10
190.12458540317633
 20
-81.58791789928034
 10
190.09602709660484
 20
-81.58076441587903
 10
190.06690514209888
 20
-81.57644458199835
 10
190.0375
 20
-81.575
  0
LWPOLYLINE
  5
9F
330
17
100
AcDbEntity
  8
SWITCHES
100
AcDbPolyline
 90
69
 70
1
 10
218.61249999999998
 20
-100.625
 10
205.2125
 20
-100.625
 10
205.18309485790112
 20
-100.62644458199834
 10
205.15397290339516
 20
-100.63076441587903
 10
205.12541459682367
 20
-100.63791789928034
 10
205.0976949702905
 20
-100.64783614024661
 10
205.0710809789522
 20
-100.6604236206955
 10
205.04582893009413
 20
-100.67555911630923
 10
205.0221820147509
 20
-100.69309686399117
 10
205.00036796564405
 20
-100.71286796564404
 10
204.9805968639912
 20
-100.7346820147509
 10
204.96305911630924
 20
-100.75832893009412
 10
204.9479236206955
 20
-100.7835809789522
 10
204.93533614024662
 20
-100.81019497029047
 10
204.92541789928035
 20
-100.83791459682365
 10
204.91826441587904
 20
-100.86647290339516
 10
204.91394458199835
 20
-100.89559485790113
 10
204.9125
 20
-100.925
 10
204.9125
 20
-114.325
 10
204.91394458199835
 20
-114.35440514209887
 10
204.91826441587904
 20
-114.38352709660484
 10
204.92541789928035
 20
-114.41208540317635
 10
204.93533614024662
 20
-114.43980502970953
 10
204.9479236206955
 20
-114.4664190210478
 10
204.96305911630924
 20
-114.49167106990588
 10
204.9805968639912
 20
-114.5153179852491
 10
205.00036796564405
 20
-114.53713203435596
 10
205.0221820147509
 20
-114.55690313600883
 10
205.04582893009413
 20
-114.57444088369077
 10
205.0710809789522
 20
-114.5895763793045
 10
205.0976949702905
 20
-114.60216385975339
 10
205.12541459682367
 20
-114.61208210071966
 10
205.15397290339516
 20
-114.61923558412097
 10
205.18309485790112
 20
-114.62355541800166
 10
205.2125
 20
-114.625
 10
218.61249999999998
 20
-114.625
 10
218.64190514209886
 20
-114.62355541800166
 10
218.67102709660483
 20
-114.61923558412097
 10
218.69958540317631
 20
-114.61208210071966
 10
218.7273050297095
 20
-114.60216385975339
 10
218.75391902104778
 20
-114.5895763793045
 10
218.77917106990586
 20
-114.57444088369077
 10
218.80281798524908
 20
-114.55690313600883
 10
218.82463203435594
 20
-114.53713203435596
 10
218.8444031360088
 20
-114.5153179852491
 10
218.86194088369075
 20
-114.49167106990588
 10
218.8770763793045
 20
-114.4664190210478
 10
218.88966385975337
 20
-114.43980502970953
 10
218.89958210071964
 20
-114.41208540317635
 10
218.90673558412095
 20
-114.38352709660484
 10
218.91105541800164
 20
-114.35440514209887
 10
218.9125
 20
-114.325
 10
218.9125
 20
-100.925
 10
218.91105541800164
 20
-100.89559485790113
 10
218.90673558412095
 20
-100.86647290339516
 10
218.89958210071964
 20
-100.83791459682365
 10
218.88966385975337
 20
-100.81019497029047
 10
218.8770763793045
 20
-100.7835809789522
 10
218.86194088369075
 20
-100.75832893009412
 10
218.8444031360088
 20
-100.7346820147509
 10
218.82463203435594
 20
-100.71286796564404
 10
218.80281798524908
 20
-100.69309686399117
 10
218.77917106990586
 20
-100.67555911630923
 10
218.75391902104778
 20
-100.6604236206955
 10
218.7273050297095
 20
-100.64783614024661
 10
218.69958540317631
 20
-100.63791789928034
 10
218.67102709660483
 20
-100.63076441587903
 10
218.64190514209886
 20
-100.62644458199834
 10
218.61249999999998
 20
-100.625
  0
LWPOLYLINE
  5
A0
330
17
100
AcDbEntity
  8
SWITCHES
100
AcDbPolyline
 90
69
 70
1
 10
196.2048072435262
 20
-101.56697881349582
 10
183.0947190712195
 20
-104.3392681408106
 10
183.06624898119122
 20
-104.34676501834637
 10
183.03865080492554
 20
-104.35701635317719
 10
183.01219032794663
 20
-104.3699234193447
 10
182.98712237911252
 20
-104.38536191474599
 10
182.96368837647404
 20
-104.40318315823079
 10
182.94211400228693
 20
-104.42321552148226
 10
182.92260702956835
 20
-104.4452660818915
 10
182.9053553211292
 20
-104.4691224805077
 10
182.8905250203525
 20
-104.49455496717096
 10
182.87825895114173
 20
-104.52131861313188
 10
182.86867524244877
 20
-104.54915566984938
 10
182.86186619062732
 20
-104.57779805124997
 10
182.8578973705686
 20
-104.60696991554326
 10
182.85680700417933
 20
-104.63639032172914
 10
182.85860559228396
 20
-104.66577593521319
 10
182.8632758134958
 20
-104.69484375647377
 10
185.63556514081057
 20
-117.80493192878049
 10
185.6430620183463
 20
-117.83340201880877
 10
185.65331335317714
 20
-117.86100019507444
 10
185.66622041934465
 20
-117.88746067205336
 10
185.68165891474592
 20
-117.91252862088747
 10
185.69948015823073
 20
-117.93596262352594
 10
185.71951252148222
 20
-117.95753699771305
 10
185.74156308189146
 20
-117.97704397043161
 10
185.76541948050766
 20
-117.99429567887077
 10
185.7908519671709
 20
-118.0091259796475
 10
185.81761561313184
 20
-118.02139204885825
 10
185.84545266984932
 20
-118.0309757575512
 10
185.87409505124992
 20
-118.03778480937267
 10
185.9032669155432
 20
-118.0417536294314
 10
185.93268732172908
 20
-118.04284399582065
 10
185.96207293521314
 20
-118.04104540771603
 10
185.99114075647373
 20
-118.0363751865042
 10
199.10122892878044
 20
-115.26408585918942
 10
199.1296990188087
 20
-115.25658898165365
 10
199.1572971950744
 20
-115.24633764682284
 10
199.1837576720533
 20
-115.23343058065532
 10
199.2088256208874
 20
-115.21799208525404
 10
199.2322596235259
 20
-115.20017084176924
 10
199.253833997713
 20
-115.18013847851776
 10
199.27334097043158
 20
-115.15808791810852
 10
199.29059267887072
 20
-115.13423151949232
 10
199.30542297964743
 20
-115.10879903282907
 10
199.3176890488582
 20
-115.08203538686814
 10
199.32727275755116
 20
-115.05419833015064
 10
199.3340818093726
 20
-115.02555594875005
 10
199.33805062943134
 20
-114.99638408445676
 10
199.3391409958206
 20
-114.96696367827089
 10
199.33734240771597
 20
-114.93757806478683
 10
199.33267218650414
 20
-114.90851024352625
 10
196.56038285918936
 20
-101.79842207121953
 10
196.55288598165362
 20
-101.76995198119126
 10
196.5426346468228
 20
-101.74235380492559
 10
196.52972758065528
 20
-101.71589332794666
 10
196.514289085254
 20
-101.69082537911255
 10
196.4964678417692
 20
-101.66739137647409
 10
196.47643547851771
 20
-101.64581700228698
 10
196.45438491810847
 20
-101.62631002956842
 10
196.43052851949227
 20
-101.60905832112925
 10
196.40509603282902
 20
-101.59422802035253
 10
196.3783323868681
 20
-101.58196195114179
 10
196.3504953301506
 20
-101.57237824244882
 10
196.32185294875
 20
-101.56556919062736
 10
196.29268108445672
 20
-101.56160037056863
 10
196.26326067827085
 20
-101.56051000417938
 10
196.2338750647868
 20
-101.562308592284
 10
196.2048072435262
 20
-101.56697881349582
  0
LWPOLYLINE
  5
A1
330
17
100
AcDbEntity
  8
SWITCHES
100
AcDbPolyline
 90
69
 70
1
 10
178.36921250707522
 20
-115.17540465729792
 10
172.94459198166604
 20
-102.92250736093126
 10
172.93136720164784
 20
-102.89620423578472
 10
172.91562794545152
 20
-102.87132402249401
 10
172.89752579071825
 20
-102.84810633111401
 10
172.87723507109368
 20
-102.82677476070482
 10
172.8549511972999
 20
-102.80753474595049
 10
172.8308887752231
 20
-102.79057157871075
 10
172.80527953914176
 20
-102.77604862355916
 10
172.77837011999878
 20
-102.76410574449287
 10
172.7504196702107
 20
-102.75485795796592
 10
172.72169736788823
 20
-102.74839432521794
 10
172.69247982450392
 20
-102.74477709456566
 10
172.66304842097256
 20
-102.74404110191763
 10
172.63368659779894
 20
-102.74619343528542
 10
172.60467712539105
 20
-102.75121336652207
 10
172.57629938082638
 20
-102.75905255094563
 10
172.54882665729792
 20
-102.76963549292475
 10
160.29592936093127
 20
-108.19425601833396
 10
160.26962623578473
 20
-108.20748079835217
 10
160.244746022494
 20
-108.22322005454848
 10
160.22152833111403
 20
-108.24132220928178
 10
160.20019676070484
 20
-108.26161292890633
 10
160.1809567459505
 20
-108.28389680270013
 10
160.16399357871077
 20
-108.30795922477691
 10
160.14947062355918
 20
-108.33356846085825
 10
160.1375277444929
 20
-108.36047788000123
 10
160.12827995796596
 20
-108.3884283297893
 10
160.12181632521796
 20
-108.41715063211178
 10
160.11819909456568
 20
-108.44636817549608
 10
160.11746310191765
 20
-108.47579957902745
 10
160.11961543528543
 20
-108.50516140220107
 10
160.12463536652209
 20
-108.53417087460895
 10
160.13247455094566
 20
-108.56254861917363
 10
160.14305749292478
 20
-108.59002134270207
 10
165.56767801833396
 20
-120.84291863906873
 10
165.58090279835216
 20
-120.86922176421528
 10
165.59664205454848
 20
-120.89410197750598
 10
165.61474420928175
 20
-120.91731966888598
 10
165.63503492890632
 20
-120.93865123929517
 10
165.6573188027001
 20
-120.9578912540495
 10
165.6813812247769
 20
-120.97485442128924
 10
165.70699046085824
 20
-120.98937737644083
 10
165.73389988000122
 20
-121.00132025550712
 10
165.7618503297893
 20
-121.01056804203407
 10
165.79057263211178
 20
-121.01703167478205
 10
165.81979017549608
 20
-121.02064890543433
 10
165.84922157902744
 20
-121.02138489808236
 10
165.87858340220106
 20
-121.01923256471457
 10
165.90759287460895
 20
-121.01421263347792
 10
165.93597061917362
 20
-121.00637344905437
 10
165.96344334270208
 20
-120.99579050707524
 10
178.21634063906873
 20
-115.57116998166603
 10
178.24264376421527
 20
-115.55794520164783
 10
178.267523977506
 20
-115.54220594545151
 10
178.29074166888597
 20
-115.52410379071821
 10
178.31207323929516
 20
-115.50381307109366
 10
178.3313132540495
 20
-115.48152919729986
 10
178.34827642128923
 20
-115.45746677522308
 10
178.36279937644082
 20
-115.43185753914175
 10
178.3747422555071
 20
-115.40494811999876
 10
178.38399004203404
 20
-115.37699767021068
 10
178.39045367478204
 20
-115.3482753678882
 10
178.39407090543432
 20
-115.31905782450391
 10
178.39480689808235
 20
-115.28962642097254
 10
178.39265456471458
 20
-115.26026459779892
 10
178.38763463347792
 20
-115.23125512539104
 10
178.37979544905434
 20
-115.20287738082637
 10
178.36921250707522
 20
-115.17540465729792
  0
LWPOLYLINE
  5
A3
330
17
100
AcDbEntity
  8
STANDOFFS
100
AcDbPolyline
 90
129
 70
1
 10
270.1625
 20
-62.38125
 10
270.1611750018257
 20
-62.32727555823984
 10
270.1572031993394
 20
-62.27343114563749
 10
270.15059416096125
 20
-62.2198464780991
 10
270.14136380844354
 20
-62.16665064578226
 10
270.129534378514
 20
-62.11397180210641
 10
270.11513436930545
 20
-62.06193685502009
 10
270.0981984717013
 20
-62.01067116126856
 10
270.0787674857624
 20
-61.9602982243984
 10
270.05688822243576
 20
-61.91093939722669
 10
270.0326133907832
 20
-61.862713589491406
 10
270.0060014710003
 20
-61.81573698138746
 10
269.9771165735328
 20
-61.77012274367844
 10
269.9460282846287
 20
-61.725980765058324
 10
269.912811498699
 20
-61.68341738741999
 10
269.87754623789044
 20
-61.642535149668284
 10
269.8403174593052
 20
-61.6034325406948
 10
269.80121485033175
 20
-61.566203762109545
 10
269.76033261258
 20
-61.53093850130099
 10
269.71776923494167
 20
-61.49772171537129
 10
269.67362725632154
 20
-61.466633426467205
 10
269.62801301861253
 20
-61.437748528999705
 10
269.5810364105086
 20
-61.41113660921681
 10
269.53281060277334
 20
-61.386861777564214
 10
269.4834517756016
 20
-61.36498251423759
 10
269.43307883873143
 20
-61.34555152829868
 10
269.3818131449799
 20
-61.32861563069457
 10
269.3297781978936
 20
-61.314215621486
 10
269.27709935421774
 20
-61.30238619155645
 10
269.2239035219009
 20
-61.29315583903874
 10
269.1703188543625
 20
-61.28654680066059
 10
269.11647444176015
 20
-61.28257499817431
 10
269.0625
 20
-61.28125
 10
269.00852555823985
 20
-61.28257499817431
 10
268.9546811456375
 20
-61.28654680066059
 10
268.9010964780991
 20
-61.29315583903874
 10
268.84790064578226
 20
-61.30238619155645
 10
268.7952218021064
 20
-61.314215621486
 10
268.7431868550201
 20
-61.32861563069457
 10
268.69192116126857
 20
-61.34555152829868
 10
268.6415482243984
 20
-61.36498251423759
 10
268.59218939722666
 20
-61.386861777564214
 10
268.5439635894914
 20
-61.41113660921681
 10
268.49698698138747
 20
-61.437748528999705
 10
268.45137274367846
 20
-61.466633426467205
 10
268.40723076505833
 20
-61.49772171537129
 10
268.36466738742
 20
-61.53093850130099
 10
268.32378514966825
 20
-61.566203762109545
 10
268.2846825406948
 20
-61.6034325406948
 10
268.24745376210956
 20
-61.642535149668284
 10
268.212188501301
 20
-61.68341738741999
 10
268.1789717153713
 20
-61.725980765058324
 10
268.1478834264672
 20
-61.77012274367844
 10
268.1189985289997
 20
-61.81573698138746
 10
268.0923866092168
 20
-61.862713589491406
 10
268.06811177756424
 20
-61.91093939722669
 10
268.0462325142376
 20
-61.9602982243984
 10
268.0268015282987
 20
-62.01067116126856
 10
268.00986563069455
 20
-62.06193685502009
 10
267.995465621486
 20
-62.11397180210641
 10
267.98363619155646
 20
-62.16665064578226
 10
267.97440583903875
 20
-62.2198464780991
 10
267.9677968006606
 20
-62.27343114563748
 10
267.9638249981743
 20
-62.32727555823984
 10
267.9625
 20
-62.38125
 10
267.9638249981743
 20
-62.43522444176016
 10
267.9677968006606
 20
-62.489068854362515
 10
267.97440583903875
 20
-62.5426535219009
 10
267.98363619155646
 20
-62.59584935421774
 10
267.995465621486
 20
-62.64852819789359
 10
268.00986563069455
 20
-62.70056314497991
 10
268.0268015282987
 20
-62.75182883873144
 10
268.0462325142376
 20
-62.8022017756016
 10
268.06811177756424
 20
-62.85156060277331
 10
268.0923866092168
 20
-62.8997864105086
 10
268.1189985289997
 20
-62.94676301861254
 10
268.1478834264672
 20
-62.99237725632156
 10
268.1789717153713
 20
-63.03651923494168
 10
268.212188501301
 20
-63.07908261258001
 10
268.24745376210956
 20
-63.11996485033172
 10
268.2846825406948
 20
-63.159067459305206
 10
268.32378514966825
 20
-63.19629623789046
 10
268.36466738742
 20
-63.23156149869901
 10
268.40723076505833
 20
-63.26477828462871
 10
268.45137274367846
 20
-63.2958665735328
 10
268.49698698138747
 20
-63.3247514710003
 10
268.5439635894914
 20
-63.35136339078319
 10
268.59218939722666
 20
-63.37563822243579
 10
268.6415482243984
 20
-63.397517485762414
 10
268.69192116126857
 20
-63.416948471701325
 10
268.7431868550201
 20
-63.43388436930543
 10
268.7952218021064
 20
-63.448284378514
 10
268.84790064578226
 20
-63.46011380844355
 10
268.9010964780991
 20
-63.46934416096126
 10
268.9546811456375
 20
-63.475953199339415
 10
269.00852555823985
 20
-63.47992500182569
 10
269.0625
 20
-63.48125
 10
269.11647444176015
 20
-63.47992500182569
 10
269.1703188543625
 20
-63.475953199339415
 10
269.2239035219009
 20
-63.46934416096126
 10
269.27709935421774
 20
-63.46011380844355
 10
269.3297781978936
 20
-63.448284378514
 10
269.3818131449799
 20
-63.43388436930543
 10
269.43307883873143
 20
-63.416948471701325
 10
269.4834517756016
 20
-63.397517485762414
 10
269.53281060277334
 20
-63.37563822243579
 10
269.5810364105086
 20
-63.35136339078319
 10
269.62801301861253
 20
-63.3247514710003
 10
269.67362725632154
 20
-63.2958665735328
 10
269.71776923494167
 20
-63.26477828462871
 10
269.76033261258
 20
-63.231561498699016
 10
269.80121485033175
 20
-63.19629623789046
 10
269.8403174593052
 20
-63.159067459305206
 10
269.87754623789044
 20
-63.11996485033172
 10
269.912811498699
 20
-63.07908261258001
 10
269.9460282846287
 20
-63.03651923494168
 10
269.9771165735328
 20
-62.99237725632156
 10
270.0060014710003
 20
-62.94676301861254
 10
270.0326133907832
 20
-62.8997864105086
 10
270.05688822243576
 20
-62.85156060277331
 10
270.0787674857624
 20
-62.8022017756016
 10
270.0981984717013
 20
-62.75182883873144
 10
270.11513436930545
 20
-62.70056314497991
 10
270.129534378514
 20
-62.64852819789359
 10
270.14136380844354
 20
-62.59584935421774
 10
270.15059416096125
 20
-62.5426535219009
 10
270.1572031993394
 20
-62.489068854362515
 10
270.1611750018257
 20
-62.43522444176016
 10
270.1625
 20
-62.38125
  0
LWPOLYLINE
  5
A4
330
17
100
AcDbEntity
  8
STANDOFFS
100
AcDbPolyline
 90
129
 70
1
 10
270.1625
 20
-81.43125
 10
270.1611750018257
 20
-81.37727555823984
 10
270.1572031993394
 20
-81.32343114563749
 10
270.15059416096125
 20
-81.26984647809911
 10
270.14136380844354
 20
-81.21665064578227
 10
270.129534378514
 20
-81.16397180210642
 10
270.11513436930545
 20
-81.11193685502009
 10
270.0981984717013
 20
-81.06067116126856
 10
270.0787674857624
 20
-81.01029822439841
 10
270.05688822243576
 20
-80.9609393972267
 10
270.0326133907832
 20
-80.9127135894914
 10
270.0060014710003
 20
-80.86573698138746
 10
269.9771165735328
 20
-80.82012274367844
 10
269.9460282846287
 20
-80.77598076505834
 10
269.912811498699
 20
-80.73341738741999
 10
269.87754623789044
 20
-80.69253514966829
 10
269.8403174593052
 20
-80.65343254069481
 10
269.80121485033175
 20
-80.61620376210955
 10
269.76033261258
 20
-80.58093850130099
 10
269.71776923494167
 20
-80.5477217153713
 10
269.67362725632154
 20
-80.51663342646721
 10
269.62801301861253
 20
-80.4877485289997
 10
269.5810364105086
 20
-80.46113660921681
 10
269.53281060277334
 20
-80.43686177756422
 10
269.4834517756016
 20
-80.4149825142376
 10
269.43307883873143
 20
-80.39555152829868
 10
269.3818131449799
 20
-80.37861563069458
 10
269.3297781978936
 20
-80.36421562148601
 10
269.27709935421774
 20
-80.35238619155645
 10
269.2239035219009
 20
-80.34315583903874
 10
269.1703188543625
 20
-80.33654680066059
 10
269.11647444176015
 20
-80.33257499817432
 10
269.0625
 20
-80.33125000000001
 10
269.00852555823985
 20
-80.33257499817432
 10
268.9546811456375
 20
-80.33654680066059
 10
268.9010964780991
 20
-80.34315583903874
 10
268.84790064578226
 20
-80.35238619155645
 10
268.7952218021064
 20
-80.36421562148601
 10
268.7431868550201
 20
-80.37861563069458
 10
268.69192116126857
 20
-80.39555152829868
 10
268.6415482243984
 20
-80.4149825142376
 10
268.59218939722666
 20
-80.43686177756422
 10
268.5439635894914
 20
-80.46113660921681
 10
268.49698698138747
 20
-80.4877485289997
 10
268.45137274367846
 20
-80.51663342646721
 10
268.40723076505833
 20
-80.5477217153713
 10
268.36466738742
 20
-80.58093850130099
 10
268.32378514966825
 20
-80.61620376210955
 10
268.2846825406948
 20
-80.65343254069481
 10
268.24745376210956
 20
-80.69253514966829
 10
268.212188501301
 20
-80.73341738741999
 10
268.1789717153713
 20
-80.77598076505834
 10
268.1478834264672
 20
-80.82012274367844
 10
268.1189985289997
 20
-80.86573698138746
 10
268.0923866092168
 20
-80.9127135894914
 10
268.06811177756424
 20
-80.9609393972267
 10
268.0462325142376
 20
-81.01029822439841
 10
268.0268015282987
 20
-81.06067116126856
 10
268.00986563069455
 20
-81.11193685502009
 10
267.995465621486
 20
-81.16397180210642
 10
267.98363619155646
 20
-81.21665064578227
 10
267.97440583903875
 20
-81.26984647809911
 10
267.9677968006606
 20
-81.32343114563749
 10
267.9638249981743
 20
-81.37727555823984
 10
267.9625
 20
-81.43125
 10
267.9638249981743
 20
-81.48522444176017
 10
267.9677968006606
 20
-81.53906885436253
 10
267.97440583903875
 20
-81.5926535219009
 10
267.98363619155646
 20
-81.64584935421775
 10
267.995465621486
 20
-81.6985281978936
 10
268.00986563069455
 20
-81.75056314497992
 10
268.0268015282987
 20
-81.80182883873145
 10
268.0462325142376
 20
-81.8522017756016
 10
268.06811177756424
 20
-81.90156060277332
 10
268.0923866092168
 20
-81.94978641050861
 10
268.1189985289997
 20
-81.99676301861255
 10
268.1478834264672
 20
-82.04237725632157
 10
268.1789717153713
 20
-82.08651923494168
 10
268.212188501301
 20
-82.12908261258002
 10
268.24745376210956
 20
-82.16996485033172
 10
268.2846825406948
 20
-82.2090674593052
 10
268.32378514966825
 20
-82.24629623789046
 10
268.36466738742
 20
-82.28156149869902
 10
268.40723076505833
 20
-82.31477828462872
 10
268.45137274367846
 20
-82.3458665735328
 10
268.49698698138747
 20
-82.37475147100031
 10
268.5439635894914
 20
-82.4013633907832
 10
268.59218939722666
 20
-82.4256382224358
 10
268.6415482243984
 20
-82.44751748576242
 10
268.69192116126857
 20
-82.46694847170133
 10
268.7431868550201
 20
-82.48388436930543
 10
268.7952218021064
 20
-82.498284378514
 10
268.84790064578226
 20
-82.51011380844356
 10
268.9010964780991
 20
-82.51934416096127
 10
268.9546811456375
 20
-82.52595319933943
 10
269.00852555823985
 20
-82.52992500182569
 10
269.0625
 20
-82.53125
 10
269.11647444176015
 20
-82.52992500182569
 10
269.1703188543625
 20
-82.52595319933943
 10
269.2239035219009
 20
-82.51934416096127
 10
269.27709935421774
 20
-82.51011380844356
 10
269.3297781978936
 20
-82.498284378514
 10
269.3818131449799
 20
-82.48388436930543
 10
269.43307883873143
 20
-82.46694847170133
 10
269.4834517756016
 20
-82.44751748576242
 10
269.53281060277334
 20
-82.4256382224358
 10
269.5810364105086
 20
-82.4013633907832
 10
269.62801301861253
 20
-82.37475147100031
 10
269.67362725632154
 20
-82.3458665735328
 10
269.71776923494167
 20
-82.31477828462872
 10
269.76033261258
 20
-82.28156149869902
 10
269.80121485033175
 20
-82.24629623789046
 10
269.8403174593052
 20
-82.2090674593052
 10
269.87754623789044
 20
-82.16996485033172
 10
269.912811498699
 20
-82.12908261258002
 10
269.9460282846287
 20
-82.08651923494168
 10
269.9771165735328
 20
-82.04237725632157
 10
270.0060014710003
 20
-81.99676301861255
 10
270.0326133907832
 20
-81.94978641050861
 10
270.05688822243576
 20
-81.90156060277332
 10
270.0787674857624
 20
-81.8522017756016
 10
270.0981984717013
 20
-81.80182883873145
 10
270.11513436930545
 20
-81.75056314497992
 10
270.129534378514
 20
-81.6985281978936
 10
270.14136380844354
 20
-81.64584935421775
 10
270.15059416096125
 20
-81.5926535219009
 10
270.1572031993394
 20
-81.53906885436253
 10
270.1611750018257
 20
-81.48522444176017
 10
270.1625
 20
-81.43125
  0
LWPOLYLINE
  5
A5
330
17
100
AcDbEntity
  8
STANDOFFS
100
AcDbPolyline
 90
129
 70
1
 10
232.0625
 20
-56.428125
 10
232.0611750018257
 20
-56.37415055823984
 10
232.05720319933943
 20
-56.32030614563749
 10
232.05059416096125
 20
-56.2667214780991
 10
232.04136380844355
 20
-56.21352564578226
 10
232.029534378514
 20
-56.16084680210641
 10
232.01513436930543
 20
-56.10881185502009
 10
231.99819847170133
 20
-56.05754616126856
 10
231.97876748576243
 20
-56.0071732243984
 10
231.9568882224358
 20
-55.95781439722669
 10
231.9326133907832
 20
-55.909588589491406
 10
231.9060014710003
 20
-55.86261198138746
 10
231.87711657353282
 20
-55.81699774367844
 10
231.84602828462872
 20
-55.772855765058324
 10
231.812811498699
 20
-55.73029238741999
 10
231.77754623789045
 20
-55.689410149668284
 10
231.7403174593052
 20
-55.6503075406948
 10
231.70121485033172
 20
-55.613078762109545
 10
231.66033261258002
 20
-55.57781350130099
 10
231.61776923494168
 20
-55.54459671537129
 10
231.57362725632157
 20
-55.513508426467205
 10
231.52801301861254
 20
-55.484623528999705
 10
231.4810364105086
 20
-55.45801160921681
 10
231.43281060277332
 20
-55.433736777564214
 10
231.3834517756016
 20
-55.41185751423759
 10
231.33307883873144
 20
-55.39242652829868
 10
231.2818131449799
 20
-55.37549063069457
 10
231.2297781978936
 20
-55.361090621486
 10
231.17709935421775
 20
-55.34926119155645
 10
231.1239035219009
 20
-55.34003083903874
 10
231.0703188543625
 20
-55.33342180066059
 10
231.01647444176015
 20
-55.32944999817431
 10
230.9625
 20
-55.328125
 10
230.90852555823986
 20
-55.32944999817431
 10
230.8546811456375
 20
-55.33342180066059
 10
230.8010964780991
 20
-55.34003083903874
 10
230.74790064578227
 20
-55.34926119155645
 10
230.6952218021064
 20
-55.361090621486
 10
230.6431868550201
 20
-55.37549063069457
 10
230.59192116126857
 20
-55.39242652829868
 10
230.5415482243984
 20
-55.41185751423759
 10
230.4921893972267
 20
-55.433736777564214
 10
230.4439635894914
 20
-55.45801160921681
 10
230.39698698138747
 20
-55.484623528999705
 10
230.35137274367844
 20
-55.513508426467205
 10
230.30723076505834
 20
-55.54459671537129
 10
230.26466738742
 20
-55.57781350130099
 10
230.2237851496683
 20
-55.613078762109545
 10
230.1846825406948
 20
-55.6503075406948
 10
230.14745376210956
 20
-55.689410149668284
 10
230.112188501301
 20
-55.73029238741999
 10
230.0789717153713
 20
-55.772855765058324
 10
230.0478834264672
 20
-55.81699774367844
 10
230.0189985289997
 20
-55.86261198138746
 10
229.99238660921682
 20
-55.909588589491406
 10
229.96811177756422
 20
-55.95781439722669
 10
229.94623251423758
 20
-56.0071732243984
 10
229.92680152829868
 20
-56.05754616126856
 10
229.90986563069458
 20
-56.10881185502009
 10
229.895465621486
 20
-56.16084680210641
 10
229.88363619155646
 20
-56.21352564578226
 10
229.87440583903876
 20
-56.2667214780991
 10
229.86779680066059
 20
-56.32030614563748
 10
229.86382499817432
 20
-56.37415055823984
 10
229.8625
 20
-56.428125
 10
229.86382499817432
 20
-56.48209944176016
 10
229.86779680066059
 20
-56.535943854362515
 10
229.87440583903876
 20
-56.5895285219009
 10
229.88363619155646
 20
-56.64272435421774
 10
229.895465621486
 20
-56.69540319789359
 10
229.90986563069458
 20
-56.74743814497991
 10
229.92680152829868
 20
-56.79870383873144
 10
229.94623251423758
 20
-56.8490767756016
 10
229.96811177756422
 20
-56.89843560277331
 10
229.99238660921682
 20
-56.9466614105086
 10
230.0189985289997
 20
-56.99363801861254
 10
230.0478834264672
 20
-57.03925225632156
 10
230.0789717153713
 20
-57.08339423494168
 10
230.112188501301
 20
-57.12595761258001
 10
230.14745376210956
 20
-57.16683985033172
 10
230.1846825406948
 20
-57.205942459305206
 10
230.2237851496683
 20
-57.24317123789046
 10
230.26466738742
 20
-57.27843649869901
 10
230.30723076505834
 20
-57.31165328462871
 10
230.35137274367844
 20
-57.3427415735328
 10
230.39698698138747
 20
-57.3716264710003
 10
230.4439635894914
 20
-57.39823839078319
 10
230.4921893972267
 20
-57.42251322243579
 10
230.5415482243984
 20
-57.444392485762414
 10
230.59192116126857
 20
-57.463823471701325
 10
230.6431868550201
 20
-57.48075936930543
 10
230.6952218021064
 20
-57.495159378514
 10
230.74790064578227
 20
-57.50698880844355
 10
230.8010964780991
 20
-57.51621916096126
 10
230.8546811456375
 20
-57.522828199339415
 10
230.90852555823986
 20
-57.52680000182569
 10
230.9625
 20
-57.528125
 10
231.01647444176015
 20
-57.52680000182569
 10
231.0703188543625
 20
-57.522828199339415
 10
231.1239035219009
 20
-57.51621916096126
 10
231.17709935421775
 20
-57.50698880844355
 10
231.2297781978936
 20
-57.495159378514
 10
231.2818131449799
 20
-57.48075936930543
 10
231.33307883873144
 20
-57.463823471701325
 10
231.3834517756016
 20
-57.444392485762414
 10
231.43281060277332
 20
-57.42251322243579
 10
231.4810364105086
 20
-57.39823839078319
 10
231.52801301861254
 20
-57.3716264710003
 10
231.57362725632157
 20
-57.3427415735328
 10
231.61776923494168
 20
-57.31165328462871
 10
231.66033261258002
 20
-57.278436498699016
 10
231.70121485033172
 20
-57.24317123789046
 10
231.7403174593052
 20
-57.205942459305206
 10
231.77754623789045
 20
-57.16683985033172
 10
231.812811498699
 20
-57.12595761258001
 10
231.84602828462872
 20
-57.08339423494168
 10
231.87711657353282
 20
-57.03925225632156
 10
231.9060014710003
 20
-56.99363801861254
 10
231.9326133907832
 20
-56.9466614105086
 10
231.9568882224358
 20
-56.89843560277331
 10
231.97876748576243
 20
-56.8490767756016
 10
231.99819847170133
 20
-56.79870383873144
 10
232.01513436930543
 20
-56.74743814497991
 10
232.029534378514
 20
-56.69540319789359
 10
232.04136380844355
 20
-56.64272435421774
 10
232.05059416096125
 20
-56.5895285219009
 10
232.05720319933943
 20
-56.535943854362515
 10
232.0611750018257
 20
-56.48209944176016
 10
232.0625
 20
-56.428125
  0
LWPOLYLINE
  5
A6
330
17
100
AcDbEntity
  8
STANDOFFS
100
AcDbPolyline
 90
129
 70
1
 10
232.0625
 20
-75.478125
 10
232.0611750018257
 20
-75.42415055823984
 10
232.05720319933943
 20
-75.37030614563749
 10
232.05059416096125
 20
-75.31672147809911
 10
232.04136380844355
 20
-75.26352564578227
 10
232.029534378514
 20
-75.21084680210642
 10
232.01513436930543
 20
-75.15881185502009
 10
231.99819847170133
 20
-75.10754616126856
 10
231.97876748576243
 20
-75.05717322439841
 10
231.9568882224358
 20
-75.0078143972267
 10
231.9326133907832
 20
-74.9595885894914
 10
231.9060014710003
 20
-74.91261198138746
 10
231.87711657353282
 20
-74.86699774367844
 10
231.84602828462872
 20
-74.82285576505834
 10
231.812811498699
 20
-74.78029238741999
 10
231.77754623789045
 20
-74.73941014966829
 10
231.7403174593052
 20
-74.70030754069481
 10
231.70121485033172
 20
-74.66307876210955
 10
231.66033261258002
 20
-74.62781350130099
 10
231.61776923494168
 20
-74.5945967153713
 10
231.57362725632157
 20
-74.56350842646721
 10
231.52801301861254
 20
-74.5346235289997
 10
231.4810364105086
 20
-74.50801160921681
 10
231.43281060277332
 20
-74.48373677756422
 10
231.3834517756016
 20
-74.4618575142376
 10
231.33307883873144
 20
-74.44242652829868
 10
231.2818131449799
 20
-74.42549063069458
 10
231.2297781978936
 20
-74.41109062148601
 10
231.17709935421775
 20
-74.39926119155645
 10
231.1239035219009
 20
-74.39003083903874
 10
231.0703188543625
 20
-74.38342180066059
 10
231.01647444176015
 20
-74.37944999817432
 10
230.9625
 20
-74.37812500000001
 10
230.90852555823986
 20
-74.37944999817432
 10
230.8546811456375
 20
-74.38342180066059
 10
230.8010964780991
 20
-74.39003083903874
 10
230.74790064578227
 20
-74.39926119155645
 10
230.6952218021064
 20
-74.41109062148601
 10
230.6431868550201
 20
-74.42549063069458
 10
230.59192116126857
 20
-74.44242652829868
 10
230.5415482243984
 20
-74.4618575142376
 10
230.4921893972267
 20
-74.48373677756422
 10
230.4439635894914
 20
-74.50801160921681
 10
230.39698698138747
 20
-74.5346235289997
 10
230.35137274367844
 20
-74.56350842646721
 10
230.30723076505834
 20
-74.5945967153713
 10
230.26466738742
 20
-74.62781350130099
 10
230.2237851496683
 20
-74.66307876210955
 10
230.1846825406948
 20
-74.70030754069481
 10
230.14745376210956
 20
-74.73941014966829
 10
230.112188501301
 20
-74.78029238741999
 10
230.0789717153713
 20
-74.82285576505834
 10
230.0478834264672
 20
-74.86699774367844
 10
230.0189985289997
 20
-74.91261198138746
 10
229.99238660921682
 20
-74.9595885894914
 10
229.96811177756422
 20
-75.0078143972267
 10
229.94623251423758
 20
-75.05717322439841
 10
229.92680152829868
 20
-75.10754616126856
 10
229.90986563069458
 20
-75.15881185502009
 10
229.895465621486
 20
-75.21084680210642
 10
229.88363619155646
 20
-75.26352564578227
 10
229.87440583903876
 20
-75.31672147809911
 10
229.86779680066059
 20
-75.37030614563749
 10
229.86382499817432
 20
-75.42415055823984
 10
229.8625
 20
-75.478125
 10
229.86382499817432
 20
-75.53209944176017
 10
229.86779680066059
 20
-75.58594385436253
 10
229.87440583903876
 20
-75.6395285219009
 10
229.88363619155646
 20
-75.69272435421775
 10
229.895465621486
 20
-75.7454031978936
 10
229.90986563069458
 20
-75.79743814497992
 10
229.92680152829868
 20
-75.84870383873145
 10
229.94623251423758
 20
-75.8990767756016
 10
229.96811177756422
 20
-75.94843560277332
 10
229.99238660921682
 20
-75.99666141050861
 10
230.0189985289997
 20
-76.04363801861255
 10
230.0478834264672
 20
-76.08925225632157
 10
230.0789717153713
 20
-76.13339423494168
 10
230.112188501301
 20
-76.17595761258002
 10
230.14745376210956
 20
-76.21683985033172
 10
230.1846825406948
 20
-76.2559424593052
 10
230.2237851496683
 20
-76.29317123789046
 10
230.26466738742
 20
-76.32843649869902
 10
230.30723076505834
 20
-76.36165328462872
 10
230.35137274367844
 20
-76.3927415735328
 10
230.39698698138747
 20
-76.42162647100031
 10
230.4439635894914
 20
-76.4482383907832
 10
230.4921893972267
 20
-76.4725132224358
 10
230.5415482243984
 20
-76.49439248576242
 10
230.59192116126857
 20
-76.51382347170133
 10
230.6431868550201
 20
-76.53075936930543
 10
230.6952218021064
 20
-76.545159378514
 10
230.74790064578227
 20
-76.55698880844356
 10
230.8010964780991
 20
-76.56621916096127
 10
230.8546811456375
 20
-76.57282819933943
 10
230.90852555823986
 20
-76.57680000182569
 10
230.9625
 20
-76.578125
 10
231.01647444176015
 20
-76.57680000182569
 10
231.0703188543625
 20
-76.57282819933943
 10
231.1239035219009
 20
-76.56621916096127
 10
231.17709935421775
 20
-76.55698880844356
 10
231.2297781978936
 20
-76.545159378514
 10
231.2818131449799
 20
-76.53075936930543
 10
231.33307883873144
 20
-76.51382347170133
 10
231.3834517756016
 20
-76.49439248576242
 10
231.43281060277332
 20
-76.4725132224358
 10
231.4810364105086
 20
-76.4482383907832
 10
231.52801301861254
 20
-76.42162647100031
 10
231.57362725632157
 20
-76.3927415735328
 10
231.61776923494168
 20
-76.36165328462872
 10
231.66033261258002
 20
-76.32843649869902
 10
231.70121485033172
 20
-76.29317123789046
 10
231.7403174593052
 20
-76.2559424593052
 10
231.77754623789045
 20
-76.21683985033172
 10
231.812811498699
 20
-76.17595761258002
 10
231.84602828462872
 20
-76.13339423494168
 10
231.87711657353282
 20
-76.08925225632157
 10
231.9060014710003
 20
-76.04363801861255
 10
231.9326133907832
 20
-75.99666141050861
 10
231.9568882224358
 20
-75.94843560277332
 10
231.97876748576243
 20
-75.8990767756016
 10
231.99819847170133
 20
-75.84870383873145
 10
232.01513436930543
 20
-75.79743814497992
 10
232.029534378514
 20
-75.7454031978936
 10
232.04136380844355
 20
-75.69272435421775
 10
232.05059416096125
 20
-75.6395285219009
 10
232.05720319933943
 20
-75.58594385436253
 10
232.0611750018257
 20
-75.53209944176017
 10
232.0625
 20
-75.478125
  0
LWPOLYLINE
  5
A7
330
17
100
AcDbEntity
  8
STANDOFFS
100
AcDbPolyline
 90
129
 70
1
 10
193.9625
 20
-77.859375
 10
193.9611750018257
 20
-77.80540055823984
 10
193.95720319933943
 20
-77.75155614563748
 10
193.95059416096126
 20
-77.6979714780991
 10
193.94136380844355
 20
-77.64477564578226
 10
193.929534378514
 20
-77.59209680210641
 10
193.91513436930543
 20
-77.54006185502008
 10
193.89819847170133
 20
-77.48879616126855
 10
193.87876748576244
 20
-77.4384232243984
 10
193.8568882224358
 20
-77.38906439722669
 10
193.8326133907832
 20
-77.3408385894914
 10
193.80600147100031
 20
-77.29386198138745
 10
193.77711657353282
 20
-77.24824774367843
 10
193.74602828462872
 20
-77.20410576505833
 10
193.712811498699
 20
-77.16154238741998
 10
193.67754623789045
 20
-77.12066014966828
 10
193.6403174593052
 20
-77.0815575406948
 10
193.60121485033173
 20
-77.04432876210954
 10
193.56033261258003
 20
-77.00906350130099
 10
193.51776923494168
 20
-76.97584671537129
 10
193.47362725632158
 20
-76.9447584264672
 10
193.42801301861255
 20
-76.9158735289997
 10
193.3810364105086
 20
-76.8892616092168
 10
193.33281060277332
 20
-76.86498677756421
 10
193.2834517756016
 20
-76.84310751423759
 10
193.23307883873144
 20
-76.82367652829868
 10
193.1818131449799
 20
-76.80674063069458
 10
193.12977819789361
 20
-76.792340621486
 10
193.07709935421775
 20
-76.78051119155644
 10
193.0239035219009
 20
-76.77128083903874
 10
192.97031885436252
 20
-76.76467180066058
 10
192.91647444176016
 20
-76.76069999817432
 10
192.8625
 20
-76.759375
 10
192.80852555823986
 20
-76.76069999817432
 10
192.7546811456375
 20
-76.76467180066058
 10
192.70109647809912
 20
-76.77128083903874
 10
192.64790064578227
 20
-76.78051119155644
 10
192.5952218021064
 20
-76.792340621486
 10
192.5431868550201
 20
-76.80674063069458
 10
192.49192116126858
 20
-76.82367652829868
 10
192.44154822439842
 20
-76.84310751423759
 10
192.3921893972267
 20
-76.86498677756421
 10
192.3439635894914
 20
-76.8892616092168
 10
192.29698698138748
 20
-76.9158735289997
 10
192.25137274367844
 20
-76.9447584264672
 10
192.20723076505834
 20
-76.97584671537129
 10
192.16466738742
 20
-77.00906350130099
 10
192.1237851496683
 20
-77.04432876210954
 10
192.0846825406948
 20
-77.0815575406948
 10
192.04745376210957
 20
-77.12066014966828
 10
192.012188501301
 20
-77.16154238741998
 10
191.9789717153713
 20
-77.20410576505833
 10
191.9478834264672
 20
-77.24824774367843
 10
191.9189985289997
 20
-77.29386198138745
 10
191.89238660921683
 20
-77.3408385894914
 10
191.86811177756422
 20
-77.38906439722669
 10
191.84623251423758
 20
-77.4384232243984
 10
191.8268015282987
 20
-77.48879616126855
 10
191.8098656306946
 20
-77.54006185502008
 10
191.79546562148602
 20
-77.59209680210641
 10
191.78363619155647
 20
-77.64477564578226
 10
191.77440583903876
 20
-77.6979714780991
 10
191.7677968006606
 20
-77.75155614563748
 10
191.76382499817433
 20
-77.80540055823984
 10
191.76250000000002
 20
-77.859375
 10
191.76382499817433
 20
-77.91334944176016
 10
191.7677968006606
 20
-77.96719385436252
 10
191.77440583903876
 20
-78.0207785219009
 10
191.78363619155647
 20
-78.07397435421774
 10
191.79546562148602
 20
-78.12665319789359
 10
191.8098656306946
 20
-78.17868814497992
 10
191.8268015282987
 20
-78.22995383873145
 10
191.84623251423758
 20
-78.2803267756016
 10
191.86811177756422
 20
-78.32968560277331
 10
191.89238660921683
 20
-78.3779114105086
 10
191.9189985289997
 20
-78.42488801861255
 10
191.9478834264672
 20
-78.47050225632157
 10
191.9789717153713
 20
-78.51464423494167
 10
192.012188501301
 20
-78.55720761258002
 10
192.04745376210957
 20
-78.59808985033172
 10
192.0846825406948
 20
-78.6371924593052
 10
192.1237851496683
 20
-78.67442123789046
 10
192.16466738742
 20
-78.70968649869901
 10
192.20723076505834
 20
-78.74290328462871
 10
192.25137274367844
 20
-78.7739915735328
 10
192.29698698138748
 20
-78.8028764710003
 10
192.3439635894914
 20
-78.8294883907832
 10
192.3921893972267
 20
-78.85376322243579
 10
192.44154822439842
 20
-78.87564248576241
 10
192.49192116126858
 20
-78.89507347170132
 10
192.5431868550201
 20
-78.91200936930542
 10
192.5952218021064
 20
-78.926409378514
 10
192.64790064578227
 20
-78.93823880844356
 10
192.70109647809912
 20
-78.94746916096126
 10
192.7546811456375
 20
-78.95407819933942
 10
192.80852555823986
 20
-78.95805000182568
 10
192.8625
 20
-78.959375
 10
192.91647444176016
 20
-78.95805000182568
 10
192.97031885436252
 20
-78.95407819933942
 10
193.0239035219009
 20
-78.94746916096126
 10
193.07709935421775
 20
-78.93823880844356
 10
193.12977819789361
 20
-78.926409378514
 10
193.1818131449799
 20
-78.91200936930542
 10
193.23307883873144
 20
-78.89507347170132
 10
193.2834517756016
 20
-78.87564248576241
 10
193.33281060277332
 20
-78.85376322243579
 10
193.3810364105086
 20
-78.8294883907832
 10
193.42801301861255
 20
-78.8028764710003
 10
193.47362725632158
 20
-78.7739915735328
 10
193.51776923494168
 20
-78.74290328462871
 10
193.56033261258003
 20
-78.70968649869901
 10
193.60121485033173
 20
-78.67442123789046
 10
193.6403174593052
 20
-78.6371924593052
 10
193.67754623789045
 20
-78.59808985033172
 10
193.712811498699
 20
-78.55720761258002
 10
193.74602828462872
 20
-78.51464423494167
 10
193.77711657353282
 20
-78.47050225632157
 10
193.80600147100031
 20
-78.42488801861255
 10
193.8326133907832
 20
-78.3779114105086
 10
193.8568882224358
 20
-78.32968560277331
 10
193.87876748576244
 20
-78.2803267756016
 10
193.89819847170133
 20
-78.22995383873145
 10
193.91513436930543
 20
-78.17868814497992
 10
193.929534378514
 20
-78.12665319789359
 10
193.94136380844355
 20
-78.07397435421774
 10
193.95059416096126
 20
-78.0207785219009
 10
193.95720319933943
 20
-77.96719385436252
 10
193.9611750018257
 20
-77.91334944176016
 10
193.9625
 20
-77.859375
  0
LWPOLYLINE
  5
A8
330
17
100
AcDbEntity
  8
STANDOFFS
100
AcDbPolyline
 90
129
 70
1
 10
202.6
 20
-108.7
 10
202.59867500182568
 20
-108.64602555823984
 10
202.59470319933942
 20
-108.59218114563748
 10
202.58809416096125
 20
-108.53859647809911
 10
202.57886380844354
 20
-108.48540064578226
 10
202.567034378514
 20
-108.43272180210641
 10
202.55263436930542
 20
-108.38068685502009
 10
202.53569847170132
 20
-108.32942116126856
 10
202.51626748576243
 20
-108.27904822439841
 10
202.4943882224358
 20
-108.2296893972267
 10
202.47011339078318
 20
-108.1814635894914
 10
202.4435014710003
 20
-108.13448698138745
 10
202.4146165735328
 20
-108.08887274367844
 10
202.3835282846287
 20
-108.04473076505833
 10
202.350311498699
 20
-108.00216738741999
 10
202.31504623789044
 20
-107.96128514966829
 10
202.2778174593052
 20
-107.9221825406948
 10
202.23871485033172
 20
-107.88495376210955
 10
202.19783261258002
 20
-107.84968850130099
 10
202.15526923494167
 20
-107.81647171537129
 10
202.11112725632157
 20
-107.7853834264672
 10
202.06551301861253
 20
-107.7564985289997
 10
202.0185364105086
 20
-107.7298866092168
 10
201.9703106027733
 20
-107.70561177756422
 10
201.9209517756016
 20
-107.68373251423759
 10
201.87057883873143
 20
-107.66430152829868
 10
201.8193131449799
 20
-107.64736563069458
 10
201.7672781978936
 20
-107.63296562148601
 10
201.71459935421774
 20
-107.62113619155645
 10
201.6614035219009
 20
-107.61190583903874
 10
201.6078188543625
 20
-107.60529680066058
 10
201.55397444176015
 20
-107.60132499817432
 10
201.5
 20
-107.60000000000001
 10
201.44602555823985
 20
-107.60132499817432
 10
201.3921811456375
 20
-107.60529680066058
 10
201.3385964780991
 20
-107.61190583903874
 10
201.28540064578226
 20
-107.62113619155645
 10
201.2327218021064
 20
-107.63296562148601
 10
201.1806868550201
 20
-107.64736563069458
 10
201.12942116126857
 20
-107.66430152829868
 10
201.0790482243984
 20
-107.68373251423759
 10
201.0296893972267
 20
-107.70561177756422
 10
200.9814635894914
 20
-107.7298866092168
 10
200.93448698138747
 20
-107.7564985289997
 10
200.88887274367843
 20
-107.7853834264672
 10
200.84473076505833
 20
-107.81647171537129
 10
200.80216738741998
 20
-107.84968850130099
 10
200.76128514966828
 20
-107.88495376210955
 10
200.7221825406948
 20
-107.9221825406948
 10
200.68495376210956
 20
-107.96128514966829
 10
200.649688501301
 20
-108.00216738741999
 10
200.6164717153713
 20
-108.04473076505833
 10
200.5853834264672
 20
-108.08887274367844
 10
200.5564985289997
 20
-108.13448698138745
 10
200.52988660921682
 20
-108.1814635894914
 10
200.5056117775642
 20
-108.2296893972267
 10
200.48373251423757
 20
-108.27904822439841
 10
200.46430152829868
 20
-108.32942116126856
 10
200.44736563069458
 20
-108.38068685502009
 10
200.432965621486
 20
-108.43272180210641
 10
200.42113619155646
 20
-108.48540064578226
 10
200.41190583903875
 20
-108.53859647809911
 10
200.40529680066058
 20
-108.59218114563748
 10
200.40132499817432
 20
-108.64602555823984
 10
200.4
 20
-108.7
 10
200.40132499817432
 20
-108.75397444176016
 10
200.40529680066058
 20
-108.80781885436252
 10
200.41190583903875
 20
-108.8614035219009
 10
200.42113619155646
 20
-108.91459935421774
 10
200.432965621486
 20
-108.96727819789359
 10
200.44736563069458
 20
-109.01931314497992
 10
200.46430152829868
 20
-109.07057883873145
 10
200.48373251423757
 20
-109.1209517756016
 10
200.5056117775642
 20
-109.17031060277331
 10
200.52988660921682
 20
-109.2185364105086
 10
200.5564985289997
 20
-109.26551301861255
 10
200.5853834264672
 20
-109.31112725632157
 10
200.6164717153713
 20
-109.35526923494167
 10
200.649688501301
 20
-109.39783261258002
 10
200.68495376210956
 20
-109.43871485033172
 10
200.7221825406948
 20
-109.4778174593052
 10
200.76128514966828
 20
-109.51504623789046
 10
200.80216738741998
 20
-109.55031149869902
 10
200.84473076505833
 20
-109.58352828462871
 10
200.88887274367843
 20
-109.6146165735328
 10
200.93448698138747
 20
-109.6435014710003
 10
200.9814635894914
 20
-109.6701133907832
 10
201.0296893972267
 20
-109.69438822243579
 10
201.0790482243984
 20
-109.71626748576242
 10
201.12942116126857
 20
-109.73569847170133
 10
201.1806868550201
 20
-109.75263436930543
 10
201.2327218021064
 20
-109.767034378514
 10
201.28540064578226
 20
-109.77886380844356
 10
201.3385964780991
 20
-109.78809416096126
 10
201.3921811456375
 20
-109.79470319933942
 10
201.44602555823985
 20
-109.79867500182569
 10
201.5
 20
-109.8
 10
201.55397444176015
 20
-109.79867500182569
 10
201.6078188543625
 20
-109.79470319933942
 10
201.6614035219009
 20
-109.78809416096126
 10
201.71459935421774
 20
-109.77886380844356
 10
201.7672781978936
 20
-109.767034378514
 10
201.8193131449799
 20
-109.75263436930543
 10
201.87057883873143
 20
-109.73569847170133
 10
201.9209517756016
 20
-109.71626748576242
 10
201.9703106027733
 20
-109.69438822243579
 10
202.0185364105086
 20
-109.6701133907832
 10
202.06551301861253
 20
-109.6435014710003
 10
202.11112725632157
 20
-109.6146165735328
 10
202.15526923494167
 20
-109.58352828462871
 10
202.19783261258002
 20
-109.55031149869902
 10
202.23871485033172
 20
-109.51504623789046
 10
202.2778174593052
 20
-109.4778174593052
 10
202.31504623789044
 20
-109.43871485033172
 10
202.350311498699
 20
-109.39783261258002
 10
202.3835282846287
 20
-109.35526923494167
 10
202.4146165735328
 20
-109.31112725632157
 10
202.4435014710003
 20
-109.26551301861255
 10
202.47011339078318
 20
-109.2185364105086
 10
202.4943882224358
 20
-109.17031060277331
 10
202.51626748576243
 20
-109.1209517756016
 10
202.53569847170132
 20
-109.07057883873145
 10
202.55263436930542
 20
-109.01931314497992
 10
202.567034378514
 20
-108.96727819789359
 10
202.57886380844354
 20
-108.91459935421774
 10
202.58809416096125
 20
-108.8614035219009
 10
202.59470319933942
 20
-108.80781885436252
 10
202.59867500182568
 20
-108.75397444176016
 10
202.6
 20
-108.7
  0
LWPOLYLINE
  5
A9
330
17
100
AcDbEntity
  8
STANDOFFS
100
AcDbPolyline
 90
129
 70
1
 10
251.11249999999998
 20
-88.0
 10
251.11117500182567
 20
-87.94602555823984
 10
251.1072031993394
 20
-87.89218114563748
 10
251.10059416096124
 20
-87.8385964780991
 10
251.09136380844353
 20
-87.78540064578226
 10
251.07953437851398
 20
-87.73272180210641
 10
251.0651343693054
 20
-87.68068685502008
 10
251.0481984717013
 20
-87.62942116126855
 10
251.02876748576242
 20
-87.5790482243984
 10
251.00688822243578
 20
-87.52968939722669
 10
250.98261339078317
 20
-87.4814635894914
 10
250.9560014710003
 20
-87.43448698138745
 10
250.9271165735328
 20
-87.38887274367843
 10
250.8960282846287
 20
-87.34473076505833
 10
250.862811498699
 20
-87.30216738741998
 10
250.82754623789043
 20
-87.26128514966828
 10
250.7903174593052
 20
-87.2221825406948
 10
250.7512148503317
 20
-87.18495376210954
 10
250.71033261258
 20
-87.14968850130099
 10
250.66776923494166
 20
-87.11647171537129
 10
250.62362725632156
 20
-87.0853834264672
 10
250.57801301861252
 20
-87.0564985289997
 10
250.5310364105086
 20
-87.0298866092168
 10
250.4828106027733
 20
-87.00561177756421
 10
250.43345177560158
 20
-86.98373251423759
 10
250.38307883873142
 20
-86.96430152829868
 10
250.3318131449799
 20
-86.94736563069458
 10
250.2797781978936
 20
-86.932965621486
 10
250.22709935421773
 20
-86.92113619155644
 10
250.17390352190088
 20
-86.91190583903874
 10
250.1203188543625
 20
-86.90529680066058
 10
250.06647444176014
 20
-86.90132499817432
 10
250.0125
 20
-86.9
 10
249.95852555823984
 20
-86.90132499817432
 10
249.90468114563748
 20
-86.90529680066058
 10
249.8510964780991
 20
-86.91190583903874
 10
249.79790064578225
 20
-86.92113619155644
 10
249.74522180210639
 20
-86.932965621486
 10
249.6931868550201
 20
-86.94736563069458
 10
249.64192116126856
 20
-86.96430152829868
 10
249.5915482243984
 20
-86.98373251423759
 10
249.54218939722668
 20
-87.00561177756421
 10
249.4939635894914
 20
-87.0298866092168
 10
249.44698698138745
 20
-87.0564985289997
 10
249.40137274367842
 20
-87.0853834264672
 10
249.35723076505832
 20
-87.11647171537129
 10
249.31466738741997
 20
-87.14968850130099
 10
249.27378514966827
 20
-87.18495376210954
 10
249.2346825406948
 20
-87.2221825406948
 10
249.19745376210955
 20
-87.26128514966828
 10
249.162188501301
 20
-87.30216738741998
 10
249.12897171537128
 20
-87.34473076505833
 10
249.09788342646718
 20
-87.38887274367843
 10
249.06899852899969
 20
-87.43448698138745
 10
249.0423866092168
 20
-87.4814635894914
 10
249.0181117775642
 20
-87.52968939722669
 10
248.99623251423756
 20
-87.5790482243984
 10
248.97680152829867
 20
-87.62942116126855
 10
248.95986563069457
 20
-87.68068685502008
 10
248.945465621486
 20
-87.73272180210641
 10
248.93363619155645
 20
-87.78540064578226
 10
248.92440583903874
 20
-87.8385964780991
 10
248.91779680066057
 20
-87.89218114563748
 10
248.9138249981743
 20
-87.94602555823984
 10
248.9125
 20
-88.0
 10
248.9138249981743
 20
-88.05397444176016
 10
248.91779680066057
 20
-88.10781885436252
 10
248.92440583903874
 20
-88.1614035219009
 10
248.93363619155645
 20
-88.21459935421774
 10
248.945465621486
 20
-88.26727819789359
 10
248.95986563069457
 20
-88.31931314497992
 10
248.97680152829867
 20
-88.37057883873145
 10
248.99623251423756
 20
-88.4209517756016
 10
249.0181117775642
 20
-88.47031060277331
 10
249.0423866092168
 20
-88.5185364105086
 10
249.06899852899969
 20
-88.56551301861255
 10
249.09788342646718
 20
-88.61112725632157
 10
249.12897171537128
 20
-88.65526923494167
 10
249.162188501301
 20
-88.69783261258002
 10
249.19745376210955
 20
-88.73871485033172
 10
249.2346825406948
 20
-88.7778174593052
 10
249.27378514966827
 20
-88.81504623789046
 10
249.31466738741997
 20
-88.85031149869901
 10
249.35723076505832
 20
-88.88352828462871
 10
249.40137274367842
 20
-88.9146165735328
 10
249.44698698138745
 20
-88.9435014710003
 10
249.4939635894914
 20
-88.9701133907832
 10
249.54218939722668
 20
-88.99438822243579
 10
249.5915482243984
 20
-89.01626748576241
 10
249.64192116126856
 20
-89.03569847170132
 10
249.6931868550201
 20
-89.05263436930542
 10
249.74522180210639
 20
-89.067034378514
 10
249.79790064578225
 20
-89.07886380844356
 10
249.8510964780991
 20
-89.08809416096126
 10
249.90468114563748
 20
-89.09470319933942
 10
249.95852555823984
 20
-89.09867500182568
 10
250.0125
 20
-89.1
 10
250.06647444176014
 20
-89.09867500182568
 10
250.1203188543625
 20
-89.09470319933942
 10
250.17390352190088
 20
-89.08809416096126
 10
250.22709935421773
 20
-89.07886380844356
 10
250.2797781978936
 20
-89.067034378514
 10
250.3318131449799
 20
-89.05263436930542
 10
250.38307883873142
 20
-89.03569847170132
 10
250.43345177560158
 20
-89.01626748576241
 10
250.4828106027733
 20
-88.99438822243579
 10
250.5310364105086
 20
-88.9701133907832
 10
250.57801301861252
 20
-88.9435014710003
 10
250.62362725632156
 20
-88.9146165735328
 10
250.66776923494166
 20
-88.88352828462871
 10
250.71033261258
 20
-88.85031149869901
 10
250.7512148503317
 20
-88.81504623789046
 10
250.7903174593052
 20
-88.7778174593052
 10
250.82754623789043
 20
-88.73871485033172
 10
250.862811498699
 20
-88.69783261258002
 10
250.8960282846287
 20
-88.65526923494167
 10
250.9271165735328
 20
-88.61112725632157
 10
250.9560014710003
 20
-88.56551301861255
 10
250.98261339078317
 20
-88.5185364105086
 10
251.00688822243578
 20
-88.47031060277331
 10
251.02876748576242
 20
-88.4209517756016
 10
251.0481984717013
 20
-88.37057883873145
 10
251.0651343693054
 20
-88.31931314497992
 10
251.07953437851398
 20
-88.26727819789359
 10
251.09136380844353
 20
-88.21459935421774
 10
251.10059416096124
 20
-88.1614035219009
 10
251.1072031993394
 20
-88.10781885436252
 10
251.11117500182567
 20
-88.05397444176016
 10
251.11249999999998
 20
-88.0
  0
ENDSEC
  0
SECTION
  2
OBJECTS
  0
DICTIONARY
  5
A
330
0
100
AcDbDictionary
281
1
  3
ACAD_COLOR
350
B
  3
ACAD_GROUP
350
C
  3
ACAD_LAYOUT
350
D
  3
ACAD_MATERIAL
350
E
  3
ACAD_MLEADERSTYLE
350
F
  3
ACAD_MLINESTYLE
350
10
  3
ACAD_PLOTSETTINGS
350
11
  3
ACAD_PLOTSTYLENAME
350
12
  3
ACAD_SCALELIST
350
14
  3
ACAD_TABLESTYLE
350
15
  3
ACAD_VISUALSTYLE
350
16
  3
EZDXF_META
350
2D
  0
DICTIONARY
  5
B
330
A
100
AcDbDictionary
281
1
  0
DICTIONARY
  5
C
330
A
100
AcDbDictionary
281
1
  0
DICTIONARY
  5
D
330
A
100
AcDbDictionary
281
1
  3
Model
350
1A
  3
Layout1
350
1E
  0
DICTIONARY
  5
E
330
A
100
AcDbDictionary
281
1
  3
ByBlock
350
1F
  3
ByLayer
350
20
  3
Global
350
21
  0
DICTIONARY
  5
F
330
A
100
AcDbDictionary
281
1
  3
Standard
350
2C
  0
DICTIONARY
  5
10
330
A
100
AcDbDictionary
281
1
  3
Standard
350
22
  0
DICTIONARY
  5
11
330
A
100
AcDbDictionary
281
1
  0
ACDBDICTIONARYWDFLT
  5
12
330
A
100
AcDbDictionary
281
1
  3
Normal
350
13
100
AcDbDictionaryWithDefault
340
13
  0
ACDBPLACEHOLDER
  5
13
330
12
  0
DICTIONARY
  5
14
330
A
100
AcDbDictionary
281
1
  0
DICTIONARY
  5
15
330
A
100
AcDbDictionary
281
1
  0
DICTIONARY
  5
16
330
A
100
AcDbDictionary
281
1
  3
2dWireframe
350
5A
  3
Basic
350
5B
  3
Brighten
350
5C
  3
ColorChange
350
5D
  3
Conceptual
350
5E
  3
Dim
350
5F
  3
EdgeColorOff
350
60
  3
Facepattern
350
61
  3
Flat
350
62
  3
FlatWithEdges
350
63
  3
Gouraud
350
64
  3
GouraudWithEdges
350
65
  3
Hidden
350
66
  3
JitterOff
350
67
  3
Linepattern
350
68
  3
Modeling
350
69
  3
OverhangOff
350
6A
  3
Realistic
350
6B
  3
Shaded
350
6C
  3
Shaded with edges
350
6D
  3
Shades of Gray
350
6E
  3
Sketchy
350
6F
  3
Thicken
350
70
  3
Wireframe
350
71
  3
X-Ray
350
72
  0
LAYOUT
  5
1A
330
D
100
AcDbPlotSettings
  1

  4
A3
  6

 40
7.5
 41
20.0
 42
7.5
 43
20.0
 44
420.0
 45
297.0
 46
0.0
 47
0.0
 48
0.0
 49
0.0
140
0.0
141
0.0
142
1.0
143
1.0
 70
1024
 72
1
 73
0
 74
5
  7

 75
16
 76
0
 77
2
 78
300
147
1.0
148
0.0
149
0.0
100
AcDbLayout
  1
Model
 70
1
 71
0
 10
0.0
 20
0.0
 11
420.0
 21
297.0
 12
0.0
 22
0.0
 32
0.0
 14
1e+20
 24
1e+20
 34
1e+20
 15
-1e+20
 25
-1e+20
 35
-1e+20
146
0.0
 13
0.0
 23
0.0
 33
0.0
 16
1.0
 26
0.0
 36
0.0
 17
0.0
 27
1.0
 37
0.0
 76
1
330
17
  0
LAYOUT
  5
1E
330
D
100
AcDbPlotSettings
  1

  4
A3
  6

 40
7.5
 41
20.0
 42
7.5
 43
20.0
 44
420.0
 45
297.0
 46
0.0
 47
0.0
 48
0.0
 49
0.0
140
0.0
141
0.0
142
1.0
143
1.0
 70
0
 72
1
 73
0
 74
5
  7

 75
16
 76
0
 77
2
 78
300
147
1.0
148
0.0
149
0.0
100
AcDbLayout
  1
Layout1
 70
1
 71
1
 10
0.0
 20
0.0
 11
420.0
 21
297.0
 12
0.0
 22
0.0
 32
0.0
 14
1e+20
 24
1e+20
 34
1e+20
 15
-1e+20
 25
-1e+20
 35
-1e+20
146
0.0
 13
0.0
 23
0.0
 33
0.0
 16
1.0
 26
0.0
 36
0.0
 17
0.0
 27
1.0
 37
0.0
 76
1
330
1B
  0
MATERIAL
  5
1F
102
{ACAD_REACTORS
330
E
102
}
330
E
100
AcDbMaterial
  1
ByBlock
  2

 70
0
 40
1.0
 71
1
 41
1.0
 91
-1023410177
 42
1.0
 72
1
  3

 73
1
 74
1
 75
1
 44
0.5
 73
0
 45
1.0
 46
1.0
 77
1
  4

 78
1
 79
1
170
1
 48
1.0
171
1
  6

172
1
173
1
174
1
140
1.0
141
1.0
175
1
  7

176
1
177
1
178
1
143
1.0
179
1
  8

270
1
271
1
272
1
145
1.0
146
1.0
273
1
  9

274
1
275
1
276
1
 42
1.0
 72
1
  3

 73
1
 74
1
 75
1
 94
63
  0
MATERIAL
  5
20
102
{ACAD_REACTORS
330
E
102
}
330
E
100
AcDbMaterial
  1
ByLayer
  2

 70
0
 40
1.0
 71
1
 41
1.0
 91
-1023410177
 42
1.0
 72
1
  3

 73
1
 74
1
 75
1
 44
0.5
 73
0
 45
1.0
 46
1.0
 77
1
  4

 78
1
 79
1
170
1
 48
1.0
171
1
  6

172
1
173
1
174
1
140
1.0
141
1.0
175
1
  7

176
1
177
1
178
1
143
1.0
179
1
  8

270
1
271
1
272
1
145
1.0
146
1.0
273
1
  9

274
1
275
1
276
1
 42
1.0
 72
1
  3

 73
1
 74
1
 75
1
 94
63
  0
MATERIAL
  5
21
102
{ACAD_REACTORS
330
E
102
}
330
E
100
AcDbMaterial
  1
Global
  2

 70
0
 40
1.0
 71
1
 41
1.0
 91
-1023410177
 42
1.0
 72
1
  3

 73
1
 74
1
 75
1
 44
0.5
 73
0
 45
1.0
 46
1.0
 77
1
  4

 78
1
 79
1
170
1
 48
1.0
171
1
  6

172
1
173
1
174
1
140
1.0
141
1.0
175
1
  7

176
1
177
1
178
1
143
1.0
179
1
  8

270
1
271
1
272
1
145
1.0
146
1.0
273
1
  9

274
1
275
1
276
1
 42
1.0
 72
1
  3

 73
1
 74
1
 75
1
 94
63
  0
MLINESTYLE
  5
22
102
{ACAD_REACTORS
330
10
102
}
330
10
100
AcDbMlineStyle
  2
Standard
 70
0
  3

 62
256
 51
90.0
 52
90.0
 71
2
 49
0.5
 62
256
  6
BYLAYER
 49
-0.5
 62
256
  6
BYLAYER
  0
MLEADERSTYLE
  5
2C
102
{ACAD_REACTORS
330
F
102
}
330
F
100
AcDbMLeaderStyle
179
2
170
2
171
1
172
0
 90
2
 40
0.0
 41
0.0
173
1
 91
-1056964608
 92
-2
290
1
 42
2.0
291
1
 43
8.0
  3
Standard
 44
4.0
300

342
29
174
1
175
1
176
0
178
1
 93
-1056964608
 45
4.0
292
0
297
0
 46
4.0
 94
-1056964608
 47
1.0
 49
1.0
140
1.0
294
1
141
0.0
177
0
142
1.0
295
0
296
0
143
3.75
271
0
272
9
273
9
  0
DICTIONARY
  5
2D
330
A
100
AcDbDictionary
280
1
281
1
  3
CREATED_BY_EZDXF
350
2E
  3
WRITTEN_BY_EZDXF
350
AC
  0
DICTIONARYVAR
  5
2E
330
2D
100
DictionaryVariables
280
0
  1
1.4.4 @ 2026-09-27T00:22:53.754813+00:00
  0
VISUALSTYLE
  5
5A
102
{ACAD_REACTORS
330
16
102
}
330
16
100
AcDbVisualStyle
  2
2dWireframe
 70
4
 90
0
 40
0.6
 62
7
290
0
291
0
  0
VISUALSTYLE
  5
5B
102
{ACAD_REACTORS
330
16
102
}
330
16
100
AcDbVisualStyle
  2
Basic
 70
7
 90
1
 40
0.6
 62
7
290
0
291
1
  0
VISUALSTYLE
  5
5C
102
{ACAD_REACTORS
330
16
102
}
330
16
100
AcDbVisualStyle
  2
Brighten
 70
12
 90
2
 40
0.6
 62
7
290
0
291
1
  0
VISUALSTYLE
  5
5D
102
{ACAD_REACTORS
330
16
102
}
330
16
100
AcDbVisualStyle
  2
ColorChange
 70
16
 90
2
 40
0.6
 62
8
290
0
291
1
  0
VISUALSTYLE
  5
5E
102
{ACAD_REACTORS
330
16
102
}
330
16
100
AcDbVisualStyle
  2
Conceptual
 70
9
 90
3
 40
0.6
 62
7
290
0
291
0
  0
VISUALSTYLE
  5
5F
102
{ACAD_REACTORS
330
16
102
}
330
16
100
AcDbVisualStyle
  2
Dim
 70
11
 90
2
 40
0.6
 62
7
290
0
291
1
  0
VISUALSTYLE
  5
60
102
{ACAD_REACTORS
330
16
102
}
330
16
100
AcDbVisualStyle
  2
EdgeColorOff
 70
22
 90
2
 40
0.6
 62
7
290
0
291
1
  0
VISUALSTYLE
  5
61
102
{ACAD_REACTORS
330
16
102
}
330
16
100
AcDbVisualStyle
  2
Facepattern
 70
15
 90
2
 40
0.6
 62
7
290
0
291
1
  0
VISUALSTYLE
  5
62
102
{ACAD_REACTORS
330
16
102
}
330
16
100
AcDbVisualStyle
  2
Flat
 70
0
 90
2
 40
0.6
 62
7
290
0
291
1
  0
VISUALSTYLE
  5
63
102
{ACAD_REACTORS
330
16
102
}
330
16
100
AcDbVisualStyle
  2
FlatWithEdges
 70
1
 90
2
 40
0.6
 62
7
290
0
291
1
  0
VISUALSTYLE
  5
64
102
{ACAD_REACTORS
330
16
102
}
330
16
100
AcDbVisualStyle
  2
Gouraud
 70
2
 90
2
 40
0.6
 62
7
290
0
291
1
  0
VISUALSTYLE
  5
65
102
{ACAD_REACTORS
330
16
102
}
330
16
100
AcDbVisualStyle
  2
GouraudWithEdges
 70
3
 90
2
 40
0.6
 62
7
290
0
291
1
  0
VISUALSTYLE
  5
66
102
{ACAD_REACTORS
330
16
102
}
330
16
100
AcDbVisualStyle
  2
Hidden
 70
6
 90
1
 40
0.6
 62
7
290
0
291
0
  0
VISUALSTYLE
  5
67
102
{ACAD_REACTORS
330
16
102
}
330
16
100
AcDbVisualStyle
  2
JitterOff
 70
20
 90
2
 40
0.6
 62
7
290
0
291
1
  0
VISUALSTYLE
  5
68
102
{ACAD_REACTORS
330
16
102
}
330
16
100
AcDbVisualStyle
  2
Linepattern
 70
14
 90
2
 40
0.6
 62
7
290
0
291
1
  0
VISUALSTYLE
  5
69
102
{ACAD_REACTORS
330
16
102
}
330
16
100
AcDbVisualStyle
  2
Modeling
 70
10
 90
2
 40
0.6
 62
7
290
0
291
0
  0
VISUALSTYLE
  5
6A
102
{ACAD_REACTORS
330
16
102
}
330
16
100
AcDbVisualStyle
  2
OverhangOff
 70
21
 90
2
 40
0.6
 62
7
290
0
291
1
  0
VISUALSTYLE
  5
6B
102
{ACAD_REACTORS
330
16
102
}
330
16
100
AcDbVisualStyle
  2
Realistic
 70
8
 90
2
 40
0.6
 62
7
290
0
291
0
  0
VISUALSTYLE
  5
6C
102
{ACAD_REACTORS
330
16
102
}
330
16
100
AcDbVisualStyle
  2
Shaded
 70
27
 90
2
 40
0.6
 62
7
290
0
291
0
  0
VISUALSTYLE
  5
6D
102
{ACAD_REACTORS
330
16
102
}
330
16
100
AcDbVisualStyle
  2
Shaded with edges
 70
26
 90
2
 40
0.6
 62
7
290
0
291
0
  0
VISUALSTYLE
  5
6E
102
{ACAD_REACTORS
330
16
102
}
330
16
100
AcDbVisualStyle
  2
Shades of Gray
 70
23
 90
2
 40
0.6
 62
7
290
0
291
0
  0
VISUALSTYLE
  5
6F
102
{ACAD_REACTORS
330
16
102
}
330
16
100
AcDbVisualStyle
  2
Sketchy
 70
24
 90
1
 40
0.6
 62
7
290
0
291
0
  0
VISUALSTYLE
  5
70
102
{ACAD_REACTORS
330
16
102
}
330
16
100
AcDbVisualStyle
  2
Thicken
 70
13
 90
2
 40
0.6
 62
7
290
0
291
1
  0
VISUALSTYLE
  5
71
102
{ACAD_REACTORS
330
16
102
}
330
16
100
AcDbVisualStyle
  2
Wireframe
 70
5
 90
0
 40
0.6
 62
7
290
0
291
0
  0
VISUALSTYLE
  5
72
102
{ACAD_REACTORS
330
16
102
}
330
16
100
AcDbVisualStyle
  2
X-Ray
 70
25
 90
2
 40
0.5
 62
7
290
0
291
0
  0
DICTIONARYVAR
  5
AC
330
2D
100
DictionaryVariables
280
0
  1
1.4.4 @ 2026-09-27T00:22:53.765644+00:00
  0
ENDSEC
  0
EOF
